<?xml version="1.0" standalone="no"?>
<!DOCTYPE svg PUBLIC "-//W3C//DTD SVG 1.1//EN" "http://www.w3.org/Graphics/SVG/1.1/DTD/svg11.dtd" >
<svg>
<metadata>
Created by FontForge 20090622 at Wed Sep 21 20:26:21 2016
 By deploy user
Copyright (c) 2014 by Andriy Konstantynov. All rights reserved.
</metadata>
<defs>
<font id="ProbaPro-SemiBold" horiz-adv-x="226" >
  <font-face 
    font-family="Proba Pro SmBd"
    font-weight="600"
    font-stretch="normal"
    units-per-em="1000"
    panose-1="2 13 0 3 3 2 0 0 0 0"
    ascent="750"
    descent="-250"
    x-height="450"
    cap-height="700"
    bbox="-39 -259 1266 1021"
    underline-thickness="50"
    underline-position="-50"
    unicode-range="U+0020-U+FB03"
  />
<missing-glyph horiz-adv-x="230" 
 />
    <glyph glyph-name="ff" unicode="ff" horiz-adv-x="606" 
d="M356 0v364h-153v-364h-114v364h-58v86h58v139q0 78 45 124t123 46q35 0 56 -10v-91q-13 8 -34 8q-35 0 -55.5 -21t-20.5 -56v-139h153v139q0 78 45.5 124t123.5 46q35 0 56 -10v-91q-13 8 -35 8q-34 0 -54.5 -21t-20.5 -56v-139h110v-86h-110v-364h-115z" />
    <glyph glyph-name="fi" unicode="fi" horiz-adv-x="525" 
d="M356 0v364h-153v-364h-114v364h-58v86h58v139q0 78 45 124t123 46q35 0 56 -10v-91q-13 8 -34 8q-35 0 -55.5 -21t-20.5 -56v-139h264v-450h-111zM345 585q0 28 19.5 47t46.5 19q28 0 47 -19t19 -47t-19 -47t-47 -19q-27 0 -46.5 19t-19.5 47z" />
    <glyph glyph-name="ffi" unicode="ffi" horiz-adv-x="792" 
d="M624 0v364h-153v-364h-115v364h-153v-364h-114v364h-58v86h58v139q0 78 45 124t123 46q35 0 56 -10v-91q-13 8 -34 8q-35 0 -55.5 -21t-20.5 -56v-139h153v139q0 78 45.5 124t123.5 46q35 0 56 -10v-91q-13 8 -35 8q-34 0 -54.5 -21t-20.5 -56v-139h263v-450h-110z
M613 585q0 28 19 47t47 19t47 -19t19 -47t-19 -47t-47 -19t-47 19t-19 47z" />
    <glyph glyph-name="f_j" unicode="fj" horiz-adv-x="525" 
d="M310 -250v72q21 0 33.5 12.5t12.5 34.5v495h-153v-364h-114v364h-58v86h58v139q0 78 45 124t123 46q35 0 56 -10v-91q-13 8 -34 8q-35 0 -55.5 -21t-20.5 -56v-139h264v-584q0 -55 -30 -88t-85 -33q-31 0 -42 5zM345 585q0 28 19.5 47t46.5 19q28 0 47 -19t19 -47
t-19 -47t-47 -19q-27 0 -46.5 19t-19.5 47z" />
    <glyph glyph-name="afii10104_afii10104" unicode="&#x457;&#x457;" horiz-adv-x="453" 
d="M58 0v450h110v-450h-110zM-33 563q0 26 18 44t44 18t44 -18t18 -44t-18 -44t-44 -18q-25 0 -43.5 18.5t-18.5 43.5zM284 0v450h111v-450h-111zM361 563q0 27 18 45t44 18t44 -18t18 -45q0 -26 -18 -44t-44 -18t-44 18t-18 44zM164 563q0 27 18 45t44 18q27 0 45 -18
t18 -45q0 -26 -18 -44t-45 -18q-26 0 -44 18.5t-18 43.5z" />
    <glyph glyph-name="afii10103_afii10104" unicode="&#x456;&#x457;" horiz-adv-x="453" 
d="M58 0v450h110v-450h-110zM47 585q0 28 19 47t47 19t47 -19t19 -47t-19 -47t-47 -19t-47 19t-19 47zM284 0v450h111v-450h-111zM209 563q0 26 17.5 44t43.5 18t44 -18t18 -44t-18 -44t-44 -18q-25 0 -43 18t-18 44zM361 563q0 27 18 45t44 18t44 -18t18 -45q0 -26 -18 -44
t-44 -18t-44 18t-18 44z" />
    <glyph glyph-name="quoteright_afii10104" unicode="&#x2019;&#x457;" horiz-adv-x="327" 
d="M57 454l-35 35q42 46 54 83q-23 4 -37.5 22t-14.5 42q0 28 19 47t47 19q26 0 46 -17.5t20 -56.5q0 -77 -99 -174zM159 0v450h110v-450h-110zM235 563q0 27 18 45t44 18q27 0 45 -18t18 -45q0 -26 -18 -44t-45 -18q-25 0 -43.5 18.5t-18.5 43.5z" />
    <glyph glyph-name="afii10056_afii10056" unicode="&#x407;&#x407;" horiz-adv-x="461" 
d="M58 0v700h114v-700h-114zM-31 799q0 26 18 44t44 18t44 -18t18 -44q0 -25 -18.5 -43.5t-43.5 -18.5q-26 0 -44 18t-18 44zM289 0v700h114v-700h-114zM368 799q0 26 18 44.5t44 18.5t44.5 -18.5t18.5 -44.5t-18.5 -44t-44.5 -18t-44 18.5t-18 43.5zM168 799q0 26 18 44.5
t44 18.5q27 0 45 -18.5t18 -44.5t-18 -44t-45 -18q-26 0 -44 18.5t-18 43.5z" />
    <glyph glyph-name="f_f_j" unicode="ffj" horiz-adv-x="792" 
d="M578 -250v72q21 0 33.5 12.5t12.5 34.5v495h-153v-364h-115v364h-153v-364h-114v364h-58v86h58v139q0 78 45 124t123 46q35 0 56 -10v-91q-13 8 -34 8q-35 0 -55.5 -21t-20.5 -56v-139h153v139q0 78 45.5 124t123.5 46q35 0 56 -10v-91q-13 8 -35 8q-34 0 -54.5 -21
t-20.5 -56v-139h263v-584q0 -55 -30 -88t-84 -33q-31 0 -42 5zM613 585q0 28 19 47t47 19t47 -19t19 -47t-19 -47t-47 -19t-47 19t-19 47z" />
    <glyph glyph-name=".notdef" horiz-adv-x="230" 
 />
    <glyph glyph-name=".null" horiz-adv-x="0" 
 />
    <glyph glyph-name="nonmarkingreturn" horiz-adv-x="333" 
 />
    <glyph glyph-name="space" unicode=" " horiz-adv-x="230" 
 />
    <glyph glyph-name="exclam" unicode="!" 
d="M47 57q0 28 19 47t47 19t47 -19t19 -47t-19 -47t-47 -19t-47 19t-19 47zM58 204v496h110v-496h-110z" />
    <glyph glyph-name="quotedbl" unicode="&#x22;" horiz-adv-x="375" 
d="M58 450v250h94v-250h-94zM223 450v250h93v-250h-93z" />
    <glyph glyph-name="numbersign" unicode="#" horiz-adv-x="621" 
d="M331 0l23 159h-144l-23 -159h-111l24 159h-66v86h79l31 210h-80v86h92l24 159h110l-24 -159h144l24 159h111l-24 -159h67v-86h-79l-32 -210h80v-86h-92l-24 -159h-110zM254 455l-31 -210h144l31 210h-144z" />
    <glyph glyph-name="dollar" unicode="$" horiz-adv-x="550" 
d="M243 -100v92q-119 11 -206 101l70 70q60 -62 136 -69v211q-44 17 -68.5 29t-56.5 36t-47 58.5t-15 80.5q0 81 49 137t138 62v92h61v-94q105 -16 177 -88l-71 -70q-44 44 -106 56v-202q37 -14 56 -22.5t50 -27t47 -37t28.5 -49t12.5 -67.5q0 -81 -51.5 -139t-142.5 -67
v-93h-61zM379 197q0 29 -19.5 48t-55.5 36v-182q36 11 55.5 39.5t19.5 58.5zM174 512q0 -51 69 -85v176q-34 -10 -51.5 -36t-17.5 -55z" />
    <glyph glyph-name="percent" unicode="%" horiz-adv-x="896" 
d="M205 0l376 700h110l-375 -700h-111zM34 529q0 80 50.5 130t131.5 50q82 0 132.5 -50t50.5 -130t-50.5 -129.5t-132.5 -49.5q-81 0 -131.5 49.5t-50.5 129.5zM131 529q0 -43 24 -70.5t61 -27.5t61 27.5t24 70.5q0 44 -24 71.5t-61 27.5t-61 -27.5t-24 -71.5zM497 170
q0 80 50.5 130t132.5 50q81 0 132 -50t51 -130q0 -79 -51 -129t-132 -50q-82 0 -132.5 49.5t-50.5 129.5zM595 170q0 -43 24 -70.5t61 -27.5t61 27.5t24 70.5q0 44 -24 71.5t-61 27.5t-61 -27.5t-24 -71.5z" />
    <glyph glyph-name="ampersand" unicode="&#x26;" horiz-adv-x="591" 
d="M325 331v92h233v-92h-59v-122q0 -97 -63.5 -157.5t-166.5 -60.5t-166.5 60.5t-63.5 157.5q0 117 97 170q-73 45 -73 139q0 85 57 138t149 53t149 -53t57 -138h-114q0 41 -25.5 67t-66.5 26t-66.5 -26t-25.5 -67t26 -68t66 -27h26v-92h-26q-51 0 -83 -34.5t-32 -87.5
t32 -86.5t83 -33.5t83 33.5t32 86.5v122h-59z" />
    <glyph glyph-name="quotesingle" unicode="'" horiz-adv-x="210" 
d="M58 450v250h94v-250h-94z" />
    <glyph glyph-name="parenleft" unicode="(" horiz-adv-x="293" 
d="M255 759v-81q-38 0 -66 -121.5t-28 -306.5t28 -306.5t66 -121.5v-81q-89 0 -148.5 142.5t-59.5 366.5t59.5 366.5t148.5 142.5z" />
    <glyph glyph-name="parenright" unicode=")" horiz-adv-x="293" 
d="M37 678v81q89 0 148.5 -142.5t59.5 -366.5t-59.5 -366.5t-148.5 -142.5v81q39 0 66.5 121t27.5 307t-27.5 307t-66.5 121z" />
    <glyph glyph-name="asterisk" unicode="*" horiz-adv-x="451" 
d="M226 445l-78 -107l-64 47l76 107l-125 41l25 76l125 -40v131h80v-131l125 41l26 -76l-126 -42l78 -107l-66 -47z" />
    <glyph glyph-name="plus" unicode="+" horiz-adv-x="425" 
d="M47 242v85h123v123h85v-123h123v-85h-123v-123h-85v123h-123z" />
    <glyph glyph-name="comma" unicode="," 
d="M81 -125l-36 35q42 43 54 83q-23 5 -37.5 22.5t-14.5 41.5q0 28 19 47t47 19q26 0 46 -17.5t20 -56.5q0 -76 -98 -174z" />
    <glyph glyph-name="hyphen" unicode="-" horiz-adv-x="340" 
d="M47 225v86h246v-86h-246z" />
    <glyph glyph-name="period" unicode="." 
d="M47 57q0 28 19 47t47 19t47 -19t19 -47t-19 -47t-47 -19t-47 19t-19 47z" />
    <glyph glyph-name="slash" unicode="/" horiz-adv-x="563" 
d="M38 -50l376 800h111l-376 -800h-111z" />
    <glyph glyph-name="zero" unicode="0" horiz-adv-x="562" 
d="M44 350q0 160 65.5 259.5t171.5 99.5t171.5 -99.5t65.5 -259.5t-65.5 -259.5t-171.5 -99.5t-171.5 99.5t-65.5 259.5zM158 350q0 -116 34 -188.5t89 -72.5t89 72.5t34 188.5t-34 188.5t-89 72.5t-89 -72.5t-34 -188.5z" />
    <glyph glyph-name="one" unicode="1" horiz-adv-x="338" 
d="M31 585v86l220 34v-705h-110v604z" />
    <glyph glyph-name="two" unicode="2" horiz-adv-x="522" 
d="M39 91l297 297q32 32 32 94q0 57 -30.5 92.5t-78.5 35.5q-49 0 -79.5 -35.5t-30.5 -92.5h-115q0 101 62.5 164t162.5 63t162 -63t62 -164q0 -98 -70 -168l-220 -220h290v-94h-444v91z" />
    <glyph glyph-name="three" unicode="3" horiz-adv-x="537" 
d="M222 331v92h46q40 0 66 27t26 68t-25.5 67t-66.5 26t-66.5 -26t-25.5 -67h-114q0 85 57.5 138t148.5 53q92 0 149 -53t57 -138q0 -94 -73 -139q97 -53 97 -170q0 -97 -63.5 -157.5t-166.5 -60.5q-102 0 -165.5 60.5t-63.5 157.5h114q0 -53 32 -86.5t83 -33.5t83 33.5
t32 86.5t-32 87.5t-83 34.5h-46z" />
    <glyph glyph-name="four" unicode="4" horiz-adv-x="562" 
d="M347 0v125h-313v49l308 526h111v-481h58v-94h-54v-125h-110zM172 219h179v316z" />
    <glyph glyph-name="five" unicode="5" horiz-adv-x="535" 
d="M483 218q0 -101 -62 -164t-162 -63t-162.5 60.5t-62.5 158.5h111q0 -53 31.5 -86.5t82.5 -33.5q48 0 78.5 35.5t30.5 92.5q0 62 -35.5 101t-92.5 39q-60 0 -96 -38l-80 27l39 353h326v-94h-228l-19 -162q27 12 64 12q106 0 171.5 -65.5t65.5 -172.5z" />
    <glyph glyph-name="six" unicode="6" horiz-adv-x="530" 
d="M286 709l95 -54q-106 -123 -164 -231q21 9 50 9q100 0 162 -60t62 -160q0 -99 -62.5 -160.5t-164.5 -61.5t-163.5 62t-61.5 170q0 110 62.5 225t184.5 261zM153 214q0 -55 31 -90t81 -35t81 35t31 90t-31 90t-81 35t-81 -35t-31 -90z" />
    <glyph glyph-name="seven" unicode="7" horiz-adv-x="535" 
d="M44 606v94h447v-32l-236 -668h-117l210 606h-304z" />
    <glyph glyph-name="eight" unicode="8" horiz-adv-x="538" 
d="M63 518q0 85 57 138t149 53t149 -53t57 -138q0 -94 -73 -139q97 -53 97 -170q0 -97 -63.5 -157.5t-166.5 -60.5t-166.5 60.5t-63.5 157.5q0 117 95 170q-71 45 -71 139zM154 209q0 -53 32 -86.5t83 -33.5t83 33.5t32 86.5t-32 86.5t-83 33.5t-83 -33.5t-32 -86.5z
M177 518q0 -41 25.5 -67t66.5 -26t66.5 26t25.5 67t-25.5 67t-66.5 26t-66.5 -26t-25.5 -67z" />
    <glyph glyph-name="nine" unicode="9" horiz-adv-x="530" 
d="M244 -9l-95 54q106 123 164 231q-21 -9 -50 -9q-100 0 -162 60t-62 160q0 99 62.5 160.5t164.5 61.5t163.5 -62t61.5 -170q0 -110 -62.5 -225t-184.5 -261zM377 486q0 55 -31 90t-81 35t-81 -35t-31 -90t31 -90t81 -35t81 35t31 90z" />
    <glyph glyph-name="colon" unicode=":" 
d="M47 57q0 28 19 47t47 19t47 -19t19 -47t-19 -47t-47 -19t-47 19t-19 47zM47 393q0 28 19 47t47 19t47 -19t19 -47t-19 -47t-47 -19t-47 19t-19 47z" />
    <glyph glyph-name="semicolon" unicode=";" 
d="M47 393q0 28 19 47t47 19t47 -19t19 -47t-19 -47t-47 -19t-47 19t-19 47zM81 -125l-36 35q42 43 54 83q-23 5 -37.5 22.5t-14.5 41.5q0 28 19 47t47 19q26 0 46 -17.5t20 -56.5q0 -76 -98 -174z" />
    <glyph glyph-name="less" unicode="&#x3c;" horiz-adv-x="410" 
d="M316 106l-291 194l291 194l63 -63l-200 -131l200 -131z" />
    <glyph glyph-name="equal" unicode="=" horiz-adv-x="459" 
d="M47 309v86h365v-86h-365zM47 131v85h365v-85h-365z" />
    <glyph glyph-name="greater" unicode="&#x3e;" horiz-adv-x="410" 
d="M383 300l-291 -194l-63 63l200 131l-200 131l63 63z" />
    <glyph glyph-name="question" unicode="?" horiz-adv-x="478" 
d="M100 562l-71 71q90 76 201 76q95 0 152 -53.5t57 -131.5q0 -40 -16 -69.5t-38.5 -48l-44.5 -36.5t-38 -45t-16 -62v-59h-110v59q0 48 15.5 85t37 58.5t43.5 39t37.5 36t15.5 40.5q0 34 -25.5 61.5t-72.5 27.5q-71 0 -127 -49zM165 57q0 28 19 47t47 19t47 -19t19 -47
t-19 -47t-47 -19t-47 19t-19 47z" />
    <glyph glyph-name="at" unicode="@" horiz-adv-x="1040" 
d="M806 -56l69 -69q-61 -65 -153 -99.5t-199 -34.5q-217 0 -350.5 134t-133.5 350t133.5 350t349.5 134q142 0 252 -59.5t168.5 -161t58.5 -225.5q0 -74 -21.5 -129.5t-57 -85t-74 -43.5t-79.5 -14q-90 0 -126 55q-57 -55 -139 -55q-94 0 -152 64.5t-58 169.5
q0 104 66.5 169t175.5 65q136 0 201 -87v-226q0 -28 16.5 -42.5t39.5 -14.5q38 0 66 40t28 121q0 159 -101 260t-264 101q-165 0 -267 -107t-102 -279t102.5 -279t270.5 -107q82 0 157 27t123 78zM408 225q0 -61 35.5 -98.5t91.5 -37.5q59 0 92 35v209q-36 28 -94 28
q-56 0 -90.5 -37.5t-34.5 -98.5z" />
    <glyph glyph-name="A" unicode="A" horiz-adv-x="762" 
d="M613 0l-74 168h-318l-72 -168h-133l311 700h107l311 -700h-132zM381 552l-119 -282h236z" />
    <glyph glyph-name="B" unicode="B" horiz-adv-x="554" 
d="M59 0v700h213q89 0 143 -50t54 -134q0 -96 -69 -144q49 -23 77.5 -68.5t28.5 -106.5q0 -90 -58 -143.5t-153 -53.5h-236zM392 206q0 48 -28 77.5t-74 29.5h-113v-215h113q46 0 74 29.5t28 78.5zM355 506q0 43 -25 69.5t-66 26.5h-87v-191h87q41 0 66 26t25 69z" />
    <glyph glyph-name="C" unicode="C" horiz-adv-x="693" 
d="M162 350q0 -114 68 -185.5t177 -71.5q112 0 180 70l73 -72q-100 -100 -259 -100q-160 0 -258.5 99.5t-98.5 259.5t98.5 259.5t258.5 99.5q159 0 259 -100l-73 -73q-68 71 -180 71q-109 0 -177 -71.5t-68 -185.5z" />
    <glyph glyph-name="D" unicode="D" horiz-adv-x="697" 
d="M59 0v700h237q161 0 259.5 -95.5t98.5 -254.5t-98.5 -254.5t-259.5 -95.5h-237zM535 350q0 114 -66 183t-173 69h-119v-504h119q107 0 173 69t66 183z" />
    <glyph glyph-name="E" unicode="E" horiz-adv-x="483" 
d="M173 606v-208h235v-94h-235v-210h271v-94h-385v700h380v-94h-266z" />
    <glyph glyph-name="F" unicode="F" horiz-adv-x="461" 
d="M173 606v-208h222v-94h-222v-304h-114v700h368v-94h-254z" />
    <glyph glyph-name="G" unicode="G" horiz-adv-x="719" 
d="M401 289v94h259v-292q-100 -100 -259 -100q-160 0 -258.5 99.5t-98.5 259.5t98.5 259.5t258.5 99.5q159 0 259 -100l-73 -73q-68 71 -180 71q-109 0 -177 -71.5t-68 -185.5t68 -185.5t177 -71.5q80 0 138 38v158h-144z" />
    <glyph glyph-name="H" unicode="H" horiz-adv-x="684" 
d="M173 700v-302h337v302h115v-700h-115v304h-337v-304h-114v700h114z" />
    <glyph glyph-name="I" unicode="I" horiz-adv-x="230" 
d="M58 0v700h114v-700h-114z" />
    <glyph glyph-name="J" unicode="J" horiz-adv-x="450" 
d="M278 196v504h114v-504q0 -91 -58 -148t-150 -57q-91 0 -150 57l73 73q28 -28 72 -28t71.5 28.5t27.5 74.5z" />
    <glyph glyph-name="K" unicode="K" horiz-adv-x="617" 
d="M453 0l-281 353v-353h-114v700h114v-334l260 334h144l-265 -340l289 -360h-147z" />
    <glyph glyph-name="L" unicode="L" horiz-adv-x="462" 
d="M173 700v-606h255v-94h-369v700h114z" />
    <glyph glyph-name="M" unicode="M" horiz-adv-x="796" 
d="M623 0v467l-204 -320h-42l-204 320v-467h-114v700h85l254 -386l254 386h85v-700h-114z" />
    <glyph glyph-name="N" unicode="N" horiz-adv-x="708" 
d="M59 700h73l402 -481v481h115v-700h-74l-402 481v-481h-114v700z" />
    <glyph glyph-name="O" unicode="O" horiz-adv-x="802" 
d="M44 350q0 160 98.5 259.5t258.5 99.5t258.5 -99.5t98.5 -259.5t-98.5 -259.5t-258.5 -99.5t-258.5 99.5t-98.5 259.5zM162 350q0 -114 66.5 -185.5t172.5 -71.5t172.5 71.5t66.5 185.5t-66.5 185.5t-172.5 71.5t-172.5 -71.5t-66.5 -185.5z" />
    <glyph glyph-name="P" unicode="P" horiz-adv-x="529" 
d="M59 0v700h206q99 0 159.5 -56t60.5 -149t-60.5 -149t-159.5 -56h-88v-290h-118zM367 495q0 48 -28 77.5t-74 29.5h-88v-214h88q46 0 74 29.5t28 77.5z" />
    <glyph glyph-name="Q" unicode="Q" horiz-adv-x="802" 
d="M696 -23l-79 79q-90 -65 -216 -65q-160 0 -258.5 99.5t-98.5 259.5t98.5 259.5t258.5 99.5t258.5 -99.5t98.5 -259.5q0 -129 -68 -222l78 -78zM162 350q0 -114 66.5 -185.5t172.5 -71.5q88 0 142 37l-101 102l71 71l91 -91q36 62 36 138q0 114 -66.5 185.5t-172.5 71.5
t-172.5 -71.5t-66.5 -185.5z" />
    <glyph glyph-name="R" unicode="R" horiz-adv-x="547" 
d="M398 0l-149 290h-72v-290h-118v700h215q99 0 159.5 -56t60.5 -149q0 -70 -35.5 -120.5t-97.5 -71.5l167 -303h-130zM376 495q0 48 -28 77.5t-74 29.5h-97v-214h97q46 0 74 29.5t28 77.5z" />
    <glyph glyph-name="S" unicode="S" horiz-adv-x="550" 
d="M481 618l-71 -70q-24 25 -61.5 42t-73.5 17q-49 0 -75 -29.5t-26 -65.5q0 -37 33.5 -62.5t81 -42.5t95 -38.5t81 -64t33.5 -105.5q0 -88 -60 -148t-166 -60q-136 0 -235 102l70 70q68 -70 154 -70q57 0 87.5 32.5t30.5 71.5q0 36 -33.5 60t-80.5 40.5t-94.5 38t-81 65
t-33.5 108.5q0 85 54 142.5t152 57.5q130 0 219 -91z" />
    <glyph glyph-name="T" unicode="T" horiz-adv-x="556" 
d="M335 606v-606h-114v606h-187v94h488v-94h-187z" />
    <glyph glyph-name="U" unicode="U" horiz-adv-x="657" 
d="M484 258v442h114v-442q0 -119 -75 -193t-196 -74t-194.5 73.5t-73.5 193.5v442h114v-442q0 -73 43 -119t111 -46q70 0 113.5 46t43.5 119z" />
    <glyph glyph-name="V" unicode="V" horiz-adv-x="762" 
d="M745 700l-311 -700h-107l-311 700h136l229 -549l229 549h135z" />
    <glyph glyph-name="W" unicode="W" horiz-adv-x="1106" 
d="M1089 700l-253 -700h-115l-169 500l-167 -500h-115l-254 700h134l177 -520l167 520h118l167 -520l177 520h133z" />
    <glyph glyph-name="X" unicode="X" horiz-adv-x="735" 
d="M571 0l-204 278l-203 -278h-147l266 355l-258 345h148l194 -266l194 266h148l-258 -345l267 -355h-147z" />
    <glyph glyph-name="Y" unicode="Y" horiz-adv-x="679" 
d="M281 0v288l-265 412h132l191 -300l191 300h132l-266 -413v-287h-115z" />
    <glyph glyph-name="Z" unicode="Z" horiz-adv-x="626" 
d="M49 606v94h532v-32l-369 -574h370v-94h-538v33l369 573h-364z" />
    <glyph glyph-name="bracketleft" unicode="[" horiz-adv-x="299" 
d="M262 750v-86h-94v-828h94v-86h-204v1000h204z" />
    <glyph glyph-name="backslash" unicode="\" horiz-adv-x="563" 
d="M149 750l376 -800h-111l-376 800h111z" />
    <glyph glyph-name="bracketright" unicode="]" horiz-adv-x="299" 
d="M37 664v86h204v-1000h-204v86h94v828h-94z" />
    <glyph glyph-name="asciicircum" unicode="^" horiz-adv-x="439" 
d="M220 694l194 -194l-55 -55l-139 139l-140 -139l-55 55z" />
    <glyph glyph-name="underscore" unicode="_" horiz-adv-x="450" 
d="M0 -186v86h450v-86h-450z" />
    <glyph glyph-name="grave" unicode="`" horiz-adv-x="268" 
d="M92 694l139 -139l-55 -55l-139 139z" />
    <glyph glyph-name="a" unicode="a" horiz-adv-x="461" 
d="M420 72v-72q-10 -5 -38 -5q-64 0 -91 50q-52 -54 -124 -54q-61 0 -96 38t-35 91q0 71 61.5 110.5t151.5 39.5q18 0 30 -2v33q0 26 -19.5 47t-54.5 21q-24 0 -49 -9.5t-39 -24.5l-59 59q67 65 157 65q80 0 127.5 -45.5t47.5 -112.5v-195q0 -16 8 -25t22 -9zM204 81
q48 0 75 33v81q-10 3 -24 3q-46 0 -77 -18t-31 -48q0 -20 14 -35.5t43 -15.5z" />
    <glyph glyph-name="b" unicode="b" horiz-adv-x="540" 
d="M260 -9q-137 0 -202 87v672h110v-321q51 30 114 30q98 0 158.5 -65t60.5 -169t-66.5 -169t-174.5 -65zM387 225q0 61 -34 98.5t-89 37.5q-63 0 -96 -43v-201q33 -28 94 -28q56 0 90.5 37.5t34.5 98.5z" />
    <glyph glyph-name="c" unicode="c" horiz-adv-x="469" 
d="M153 225q0 -61 35 -98.5t91 -37.5q61 0 94 38l68 -68q-66 -68 -168 -68q-105 0 -169.5 65t-64.5 169t64.5 169t169.5 65q101 0 168 -69l-68 -67q-33 38 -94 38q-56 0 -91 -37.5t-35 -98.5z" />
    <glyph glyph-name="d" unicode="d" horiz-adv-x="540" 
d="M482 0h-110v32q-54 -41 -123 -41q-94 0 -152 64.5t-58 169.5t63.5 169.5t166.5 64.5q57 0 103 -23v314h110v-750zM153 225q0 -61 35 -98.5t91 -37.5q60 0 93 36v203q-35 33 -93 33q-56 0 -91 -37.5t-35 -98.5z" />
    <glyph glyph-name="e" unicode="e" horiz-adv-x="504" 
d="M469 192h-313q8 -48 41 -75.5t87 -27.5q63 0 98 38l66 -68q-66 -68 -172 -68t-171.5 65t-65.5 172q0 102 60.5 166.5t159.5 64.5q101 0 155.5 -70.5t54.5 -196.5zM262 364q-42 0 -70 -26t-36 -70h203q-15 96 -97 96z" />
    <glyph glyph-name="f" unicode="f" horiz-adv-x="338" 
d="M31 364v86h58v139q0 78 45 124t123 46q35 0 56 -10v-91q-13 8 -34 8q-35 0 -55.5 -21t-20.5 -56v-139h110v-86h-110v-364h-114v364h-58z" />
    <glyph glyph-name="g" unicode="g" horiz-adv-x="519" 
d="M14 -113q0 81 95 119q-50 27 -50 75q0 47 53 75q-68 42 -68 133q0 77 52.5 123.5t137.5 46.5q80 0 130 -41q35 41 80 41q18 0 27 -2v-87q-10 3 -21 3q-21 0 -39 -21q11 -28 11 -60q0 -75 -52.5 -121.5t-137.5 -46.5q-66 0 -66 -40q0 -18 22 -29t60 -11q100 0 162 -40.5
t62 -105.5q0 -69 -68 -113t-172 -44q-99 0 -158.5 40.5t-59.5 105.5zM129 -113q0 -29 27 -46t75 -17q53 0 90 20.5t37 51.5q0 28 -30 45.5t-80 17.5q-53 0 -86 -20t-33 -52zM155 292q0 -36 22.5 -59t57.5 -23t57.5 23t22.5 59t-22.5 58.5t-57.5 22.5t-57.5 -22.5
t-22.5 -58.5z" />
    <glyph glyph-name="h" unicode="h" horiz-adv-x="517" 
d="M58 750h110v-333q51 42 122 42q77 0 122.5 -52.5t45.5 -138.5v-268h-110v268q0 41 -24 67t-63 26q-59 0 -93 -37v-324h-110v750z" />
    <glyph glyph-name="i" unicode="i" 
d="M58 0v450h110v-450h-110zM47 585q0 28 19 47t47 19t47 -19t19 -47t-19 -47t-47 -19t-47 19t-19 47z" />
    <glyph glyph-name="j" unicode="j" 
d="M47 585q0 28 19 47t47 19t47 -19t19 -47t-19 -47t-47 -19t-47 19t-19 47zM11 -250v72q21 0 34 12.5t13 34.5v581h110v-584q0 -55 -30 -88t-84 -33q-31 0 -43 5z" />
    <glyph glyph-name="k" unicode="k" horiz-adv-x="482" 
d="M168 0h-110v750h110v-484l147 184h130l-172 -210l191 -240h-129l-167 213v-213z" />
    <glyph glyph-name="l" unicode="l" horiz-adv-x="255" 
d="M219 72v-72q-11 -5 -46 -5q-55 0 -85 33t-30 88v634h110v-631q0 -22 14 -34.5t37 -12.5z" />
    <glyph glyph-name="m" unicode="m" horiz-adv-x="759" 
d="M591 0v291q0 31 -17.5 50.5t-45.5 19.5q-60 0 -96 -30q3 -19 3 -40v-291h-111v291q0 31 -17.5 50.5t-45.5 19.5q-59 0 -93 -37v-324h-110v450h110v-33q51 42 122 42q77 0 116 -60q60 60 150 60q67 0 106 -46t39 -122v-291h-110z" />
    <glyph glyph-name="n" unicode="n" horiz-adv-x="516" 
d="M58 450h110v-33q51 42 122 42q77 0 122.5 -52.5t45.5 -138.5v-268h-110v268q0 41 -24 67t-63 26q-59 0 -93 -37v-324h-110v450z" />
    <glyph glyph-name="o" unicode="o" horiz-adv-x="552" 
d="M39 225q0 104 65.5 169t171.5 65t171.5 -65t65.5 -169t-65.5 -169t-171.5 -65t-171.5 65t-65.5 169zM153 225q0 -61 34 -98.5t89 -37.5t89 37.5t34 98.5t-34 98.5t-89 37.5t-89 -37.5t-34 -98.5z" />
    <glyph glyph-name="p" unicode="p" horiz-adv-x="540" 
d="M58 450h110v-33q53 42 124 42q94 0 152 -65t58 -169t-63.5 -169t-165.5 -65q-57 0 -105 24v-265h-110v700zM387 225q0 61 -35 98.5t-91 37.5q-59 0 -93 -37v-202q33 -33 93 -33q56 0 91 37.5t35 98.5z" />
    <glyph glyph-name="q" unicode="q" horiz-adv-x="540" 
d="M280 459q137 0 202 -87v-622h-110v270q-49 -29 -114 -29q-98 0 -158.5 65t-60.5 169t66.5 169t174.5 65zM153 225q0 -61 34 -98.5t89 -37.5q62 0 96 42v202q-36 28 -94 28q-56 0 -90.5 -37.5t-34.5 -98.5z" />
    <glyph glyph-name="r" unicode="r" horiz-adv-x="348" 
d="M277 457q8 0 28 -2v-96q-14 5 -36 5q-64 0 -101 -57v-307h-110v450h110v-46q50 53 109 53z" />
    <glyph glyph-name="s" unicode="s" horiz-adv-x="387" 
d="M342 400l-67 -67q-32 34 -72 34q-23 0 -34 -13.5t-11 -30.5q0 -20 20 -34t48 -25t56.5 -24.5t48.5 -40t20 -65.5q0 -60 -43 -101.5t-117 -41.5q-95 0 -159 66l67 68q38 -43 84 -43q28 0 43 16t15 35t-20 32t-48.5 23.5t-57 24t-48.5 41t-20 67.5q0 58 39 98t108 40
q91 0 148 -59z" />
    <glyph glyph-name="t" unicode="t" horiz-adv-x="333" 
d="M30 364v86h53v100h114v-100h101v-86h-101v-208q0 -32 18 -52t49 -20q21 0 34 8v-91q-21 -10 -55 -10q-74 0 -117 44.5t-43 120.5v208h-53z" />
    <glyph glyph-name="u" unicode="u" horiz-adv-x="523" 
d="M465 450v-259q0 -89 -56.5 -144.5t-147.5 -55.5q-90 0 -146.5 55.5t-56.5 144.5v259h114v-259q0 -45 25.5 -73.5t66.5 -28.5t66.5 28.5t25.5 73.5v259h109z" />
    <glyph glyph-name="v" unicode="v" horiz-adv-x="528" 
d="M516 450l-201 -450h-102l-201 450h123l129 -312l129 312h123z" />
    <glyph glyph-name="w" unicode="w" horiz-adv-x="788" 
d="M776 450l-171 -450h-115l-96 294l-96 -294h-115l-171 450h127l101 -315l99 315h110l99 -315l101 315h127z" />
    <glyph glyph-name="x" unicode="x" horiz-adv-x="525" 
d="M381 0l-119 161l-118 -161h-127l173 230l-165 220h128l109 -150l109 150h127l-164 -220l173 -230h-126z" />
    <glyph glyph-name="y" unicode="y" horiz-adv-x="528" 
d="M516 450l-317 -700h-123l137 250l-201 450h123l130 -316l128 316h123z" />
    <glyph glyph-name="z" unicode="z" horiz-adv-x="474" 
d="M48 364v86h382v-32l-222 -332h222v-86h-386v33l222 331h-218z" />
    <glyph glyph-name="braceleft" unicode="{" horiz-adv-x="309" 
d="M276 -178v-81q-77 0 -127.5 64.5t-50.5 165.5v88q0 64 -19 106t-45 42v82q26 0 45 42t19 106v92q0 101 50.5 165.5t127.5 64.5v-81q-26 0 -45 -42.5t-19 -106.5v-92q0 -133 -84 -189q84 -56 84 -189v-88q0 -64 19 -106.5t45 -42.5z" />
    <glyph glyph-name="bar" unicode="|" 
d="M58 -250v1000h110v-1000h-110z" />
    <glyph glyph-name="braceright" unicode="}" horiz-adv-x="309" 
d="M34 -259v81q26 0 45 42.5t19 106.5v88q0 134 83 189q-83 55 -83 189v92q0 64 -19 106.5t-45 42.5v81q77 0 127.5 -64.5t50.5 -165.5v-92q0 -64 19 -106t45 -42v-82q-26 0 -45 -42t-19 -106v-88q0 -101 -50.5 -165.5t-127.5 -64.5z" />
    <glyph glyph-name="asciitilde" unicode="~" horiz-adv-x="432" 
d="M96 243h-71q0 52 35 86t85 34q40 0 80 -28.5t62 -28.5q21 0 35 14.5t14 37.5h71q0 -53 -34 -86.5t-86 -33.5q-32 0 -57 14.5t-44.5 29t-39.5 14.5q-21 0 -35.5 -14.5t-14.5 -38.5z" />
    <glyph glyph-name="exclamdown" unicode="&#xa1;" 
d="M47 393q0 28 19 47t47 19t47 -19t19 -47t-19 -47t-47 -19t-47 19t-19 47zM58 246h110v-496h-110v496z" />
    <glyph glyph-name="cent" unicode="&#xa2;" horiz-adv-x="469" 
d="M234 -100v94q-89 12 -142 74.5t-53 156.5t53 156.5t142 74.5v94h61v-92q85 -7 146 -68l-68 -67q-29 32 -78 37v-271q51 6 78 38l68 -68q-58 -59 -146 -67v-92h-61zM153 225q0 -48 21.5 -81.5t59.5 -47.5v257q-38 -13 -59.5 -47t-21.5 -81z" />
    <glyph glyph-name="sterling" unicode="&#xa3;" horiz-adv-x="519" 
d="M34 307v86h73v111q0 91 58 148t150 57t151 -57l-73 -73q-28 28 -73 28q-44 0 -71 -28.5t-27 -74.5v-111h164v-86h-164v-174q13 -5 54.5 -27.5t64.5 -22.5t37 14.5t14 37.5h87q0 -65 -38.5 -104.5t-97.5 -39.5q-44 0 -97.5 31t-77.5 31q-23 0 -37 -14.5t-14 -38.5h-88
q0 47 21 81.5t57 50.5v175h-73z" />
    <glyph glyph-name="currency" unicode="&#xa4;" horiz-adv-x="550" 
d="M93 300q0 56 24 96l-83 84l60 61l86 -85q43 24 95 24t95 -24l86 85l60 -61l-84 -84q26 -41 26 -96q0 -56 -26 -97l84 -83l-61 -61l-85 85q-43 -24 -95 -24t-95 24l-85 -85l-61 61l83 83q-24 41 -24 97zM191 300q0 -44 23.5 -71t60.5 -27q38 0 61.5 27.5t23.5 70.5
t-23.5 70.5t-61.5 27.5q-37 0 -60.5 -27t-23.5 -71z" />
    <glyph glyph-name="yen" unicode="&#xa5;" horiz-adv-x="679" 
d="M154 207v61h127v20l-265 412h132l191 -300l191 300h132l-266 -413v-19h127v-61h-127v-65h127v-61h-127v-81h-115v81h-127v61h127v65h-127z" />
    <glyph glyph-name="brokenbar" unicode="&#xa6;" 
d="M58 -250v450h110v-450h-110zM168 750v-450h-110v450h110z" />
    <glyph glyph-name="section" unicode="&#xa7;" horiz-adv-x="429" 
d="M185 446l200 -201l-73 -73l-203 203q-70 70 -70 151q0 82 55.5 132.5t144.5 50.5q97 0 160 -68l-70 -70q-33 39 -90 39q-38 0 -62 -23.5t-24 -60.5q0 -48 32 -80zM244 4l-200 201l73 73l203 -203q70 -70 70 -151q0 -82 -55.5 -132.5t-144.5 -50.5q-98 0 -160 68l70 70
q33 -39 90 -39q38 0 62 23.5t24 60.5q0 46 -32 80z" />
    <glyph glyph-name="dieresis" unicode="&#xa8;" horiz-adv-x="440" 
d="M57 571q0 25 18.5 43.5t43.5 18.5q26 0 44 -18t18 -44t-18 -44t-44 -18t-44 18t-18 44zM249 571q0 26 18 44.5t44 18.5q27 0 45 -18.5t18 -44.5t-18 -44t-45 -18q-26 0 -44 18t-18 44z" />
    <glyph glyph-name="copyright" unicode="&#xa9;" horiz-adv-x="802" 
d="M44 350q0 160 98.5 259.5t258.5 99.5t258.5 -99.5t98.5 -259.5t-98.5 -259.5t-258.5 -99.5t-258.5 99.5t-98.5 259.5zM126 350q0 -131 76.5 -213.5t198.5 -82.5t198.5 82.5t76.5 213.5t-76.5 213.5t-198.5 82.5t-198.5 -82.5t-76.5 -213.5zM296 350q0 -55 32.5 -89.5
t84.5 -34.5q55 0 86 34l40 -39q-49 -51 -129 -51t-130 50t-50 130t50 130t130 50t129 -51l-40 -39q-32 34 -86 34q-52 0 -84.5 -34.5t-32.5 -89.5z" />
    <glyph glyph-name="ordfeminine" unicode="&#xaa;" horiz-adv-x="264" 
d="M238 495v-43q-9 -3 -23 -3q-35 0 -50 28q-29 -30 -69 -30q-33 0 -52.5 21t-19.5 50q0 39 33.5 61.5t82.5 22.5q4 0 10 -0.5t7 -0.5v15q0 14 -10 25t-29 11q-30 0 -47 -19l-35 35q37 37 88 37q45 0 71.5 -25.5t26.5 -63.5v-103q0 -18 16 -18zM118 500q25 0 39 17v41
q-4 1 -14 1q-22 0 -37.5 -9t-15.5 -24q0 -26 28 -26z" />
    <glyph glyph-name="guillemotleft" unicode="&#xab;" horiz-adv-x="470" 
d="M200 76l-175 174l175 174l55 -55l-120 -119l120 -119zM376 76l-174 174l174 174l55 -55l-119 -119l119 -119z" />
    <glyph glyph-name="logicalnot" unicode="&#xac;" horiz-adv-x="500" 
d="M47 257v86h406v-198h-86v112h-320z" />
    <glyph glyph-name="uni00AD" unicode="&#xad;" horiz-adv-x="340" 
d="M47 225v86h246v-86h-246z" />
    <glyph glyph-name="registered" unicode="&#xae;" horiz-adv-x="802" 
d="M44 350q0 160 98.5 259.5t258.5 99.5t258.5 -99.5t98.5 -259.5t-98.5 -259.5t-258.5 -99.5t-258.5 99.5t-98.5 259.5zM126 350q0 -131 76.5 -213.5t198.5 -82.5t198.5 82.5t76.5 213.5t-76.5 213.5t-198.5 82.5t-198.5 -82.5t-76.5 -213.5zM459 174l-71 142h-32v-142h-66
v350h111q51 0 82 -28t31 -76q0 -72 -65 -96l83 -150h-73zM448 420q0 22 -13 36t-34 14h-45v-100h45q21 0 34 14t13 36z" />
    <glyph glyph-name="macron" unicode="&#xaf;" horiz-adv-x="359" 
d="M49 531v65h261v-65h-261z" />
    <glyph glyph-name="degree" unicode="&#xb0;" horiz-adv-x="287" 
d="M39 598q0 48 29 77.5t76 29.5t76 -29.5t29 -77.5q0 -49 -29 -78.5t-76 -29.5t-76 29.5t-29 78.5zM93 597q0 -23 14 -37.5t37 -14.5t37.5 14.5t14.5 37.5q0 24 -14.5 38.5t-37.5 14.5t-37 -14.5t-14 -38.5z" />
    <glyph glyph-name="plusminus" unicode="&#xb1;" horiz-adv-x="425" 
d="M47 258v86h123v122h85v-122h123v-86h-123v-123h-85v123h-123zM47 19v85h331v-85h-331z" />
    <glyph glyph-name="twosuperior" unicode="&#xb2;" horiz-adv-x="282" 
d="M28 400l147 147q15 15 15 43q0 27 -14 43.5t-36 16.5q-23 0 -37 -16.5t-14 -43.5h-63q0 51 31.5 83t82.5 32t82.5 -32t31.5 -83q0 -46 -36 -84l-105 -104h141v-52h-226v50z" />
    <glyph glyph-name="threesuperior" unicode="&#xb3;" horiz-adv-x="290" 
d="M122 512v51h23q19 0 30.5 12.5t11.5 31.5t-11.5 31t-30.5 12t-30.5 -12t-11.5 -31h-64q0 43 29.5 70.5t76.5 27.5t76.5 -27t29.5 -71q0 -46 -35 -68q46 -27 46 -83q0 -50 -32.5 -80.5t-84.5 -30.5t-84 30.5t-32 80.5h63q0 -25 15 -40.5t38 -15.5t38 15.5t15 40.5
q0 24 -15 40t-38 16h-23z" />
    <glyph glyph-name="acute" unicode="&#xb4;" horiz-adv-x="268" 
d="M37 555l139 139l55 -55l-139 -139z" />
    <glyph glyph-name="mu" unicode="&#xb5;" horiz-adv-x="523" 
d="M11 -200v72q21 0 34 12.5t13 34.5v531h114v-259q0 -45 25.5 -73.5t66.5 -28.5t66.5 28.5t25.5 73.5v259h109v-259q0 -89 -56.5 -144.5t-147.5 -55.5q-50 0 -93 19v-94q0 -55 -30 -88t-84 -33q-31 0 -43 5z" />
    <glyph glyph-name="paragraph" unicode="&#xb6;" horiz-adv-x="623" 
d="M383 700v-700h-106v306h-21q-95 0 -153.5 54t-58.5 143t58.5 143t153.5 54h127zM459 0v700h106v-700h-106z" />
    <glyph glyph-name="periodcentered" unicode="&#xb7;" 
d="M47 250q0 28 19 47t47 19t47 -19t19 -47t-19 -47t-47 -19t-47 19t-19 47z" />
    <glyph glyph-name="cedilla" unicode="&#xb8;" horiz-adv-x="271" 
d="M155 0v-54q67 -15 67 -82q0 -38 -25 -61.5t-64 -23.5q-40 0 -66 26l33 33q15 -13 33 -13q19 0 31 11t12 30q0 44 -66 44v90h45z" />
    <glyph glyph-name="onesuperior" unicode="&#xb9;" horiz-adv-x="193" 
d="M25 638v47l116 18v-353h-61v297z" />
    <glyph glyph-name="ordmasculine" unicode="&#xba;" horiz-adv-x="314" 
d="M26 576q0 58 36 93.5t95 35.5t95 -35.5t36 -93.5t-36 -93.5t-95 -35.5t-95 35.5t-36 93.5zM93 576q0 -32 17.5 -51.5t46.5 -19.5t46.5 19.5t17.5 51.5t-18 51.5t-46 19.5t-46 -19.5t-18 -51.5z" />
    <glyph glyph-name="guillemotright" unicode="&#xbb;" horiz-adv-x="470" 
d="M443 250l-174 -174l-55 55l119 119l-119 119l55 55zM266 250l-174 -174l-55 55l119 119l-119 119l55 55z" />
    <glyph glyph-name="onequarter" unicode="&#xbc;" horiz-adv-x="639" 
d="M25 638v47l116 18v-353h-61v297zM86 0l376 700h78l-376 -700h-78zM517 0v61h-155v26l153 263h60v-237h29v-52h-26v-61h-61zM438 113h82v146z" />
    <glyph glyph-name="onehalf" unicode="&#xbd;" horiz-adv-x="693" 
d="M25 638v47l116 18v-353h-61v297zM86 0l376 700h78l-376 -700h-78zM439 50l148 147q15 15 15 43q0 27 -14 43.5t-36 16.5q-23 0 -37 -16.5t-14 -43.5h-64q0 51 31.5 83t83.5 32q50 0 81.5 -32t31.5 -83q0 -48 -36 -84l-104 -104h140v-52h-226v50z" />
    <glyph glyph-name="threequarters" unicode="&#xbe;" horiz-adv-x="666" 
d="M122 512v51h23q19 0 30.5 12.5t11.5 31.5t-11.5 31t-30.5 12t-30.5 -12t-11.5 -31h-64q0 43 29.5 70.5t76.5 27.5t76.5 -27t29.5 -71q0 -46 -35 -68q46 -27 46 -83q0 -50 -32.5 -80.5t-84.5 -30.5t-84 30.5t-32 80.5h63q0 -25 15 -40.5t38 -15.5t38 15.5t15 40.5
q0 24 -15 40t-38 16h-23zM134 0l375 700h78l-375 -700h-78zM543 0v61h-155v26l153 263h61v-237h29v-52h-27v-61h-61zM464 113h82v146z" />
    <glyph glyph-name="questiondown" unicode="&#xbf;" horiz-adv-x="478" 
d="M377 -112l71 -71q-88 -76 -200 -76q-95 0 -152 53.5t-57 131.5q0 40 15.5 69.5t38 48l45 36.5t38 45t15.5 62v59h111v-59q0 -48 -15.5 -85t-37 -58.5t-43.5 -39t-37.5 -36t-15.5 -40.5q0 -34 25.5 -61.5t72.5 -27.5q70 0 126 49zM312 393q0 -28 -19 -47t-47 -19
q-27 0 -46.5 19t-19.5 47t19.5 47t46.5 19q28 0 47 -19t19 -47z" />
    <glyph glyph-name="Agrave" unicode="&#xc0;" horiz-adv-x="762" 
d="M613 0l-74 168h-318l-72 -168h-133l311 700h107l311 -700h-132zM381 552l-119 -282h236zM319 922l139 -139l-55 -55l-139 139z" />
    <glyph glyph-name="Aacute" unicode="&#xc1;" horiz-adv-x="762" 
d="M613 0l-74 168h-318l-72 -168h-133l311 700h107l311 -700h-132zM381 552l-119 -282h236zM304 783l139 139l55 -55l-139 -139z" />
    <glyph glyph-name="Acircumflex" unicode="&#xc2;" horiz-adv-x="762" 
d="M613 0l-74 168h-318l-72 -168h-133l311 700h107l311 -700h-132zM381 552l-119 -282h236zM381 922l139 -139l-55 -55l-84 84l-84 -84l-55 55z" />
    <glyph glyph-name="Atilde" unicode="&#xc3;" horiz-adv-x="762" 
d="M613 0l-74 168h-318l-72 -168h-133l311 700h107l311 -700h-132zM381 552l-119 -282h236zM289 755h-58q0 44 26.5 71.5t68.5 27.5q33 0 62 -22.5t46 -22.5t27.5 11.5t10.5 29.5h58q0 -45 -27 -72.5t-69 -27.5q-33 0 -61.5 22.5t-45.5 22.5t-27.5 -11t-10.5 -29z" />
    <glyph glyph-name="Adieresis" unicode="&#xc4;" horiz-adv-x="762" 
d="M613 0l-74 168h-318l-72 -168h-133l311 700h107l311 -700h-132zM381 552l-119 -282h236zM222 799q0 26 18 44t44 18t44 -18t18 -44t-18 -44t-44 -18t-44 18.5t-18 43.5zM415 799q0 26 18 44.5t43 18.5q27 0 45 -18.5t18 -44.5t-18 -44t-45 -18q-25 0 -43 18t-18 44z" />
    <glyph glyph-name="Aring" unicode="&#xc5;" horiz-adv-x="762" 
d="M613 0l-74 168h-318l-72 -168h-133l311 700h107l311 -700h-132zM381 552l-119 -282h236zM290 814q0 42 25 67.5t66 25.5t66 -25.5t25 -67.5t-25 -68t-66 -26t-66 26t-25 68zM336 813q0 -21 12.5 -33.5t32.5 -12.5t33 12.5t13 33.5t-13 34t-33 13t-32.5 -13t-12.5 -34z
" />
    <glyph glyph-name="AE" unicode="&#xc6;" horiz-adv-x="779" 
d="M495 606v-208h213v-94h-213v-210h249v-94h-363v168h-160l-72 -168h-133l311 700h412v-94h-244zM262 270h119v284z" />
    <glyph glyph-name="Ccedilla" unicode="&#xc7;" horiz-adv-x="693" 
d="M162 350q0 -114 68 -185.5t177 -71.5q112 0 180 70l73 -72q-93 -93 -238 -99v-46q67 -15 67 -82q0 -38 -24.5 -61.5t-64.5 -23.5t-66 26l33 33q15 -13 33 -13q19 0 31 11t12 30q0 44 -66 44v82q-150 7 -241.5 105.5t-91.5 252.5q0 160 98.5 259.5t258.5 99.5
q159 0 259 -100l-73 -73q-68 71 -180 71q-109 0 -177 -71.5t-68 -185.5z" />
    <glyph glyph-name="Egrave" unicode="&#xc8;" horiz-adv-x="483" 
d="M173 606v-208h235v-94h-235v-210h271v-94h-385v700h380v-94h-266zM187 922l139 -139l-55 -55l-139 139z" />
    <glyph glyph-name="Eacute" unicode="&#xc9;" horiz-adv-x="483" 
d="M173 606v-208h235v-94h-235v-210h271v-94h-385v700h380v-94h-266zM172 783l139 139l55 -55l-139 -139z" />
    <glyph glyph-name="Ecircumflex" unicode="&#xca;" horiz-adv-x="483" 
d="M173 606v-208h235v-94h-235v-210h271v-94h-385v700h380v-94h-266zM249 922l139 -139l-55 -55l-84 84l-84 -84l-55 55z" />
    <glyph glyph-name="Edieresis" unicode="&#xcb;" horiz-adv-x="483" 
d="M173 606v-208h235v-94h-235v-210h271v-94h-385v700h380v-94h-266zM90 799q0 26 18 44t44 18t44 -18t18 -44t-18 -44t-44 -18t-44 18.5t-18 43.5zM283 799q0 26 18 44.5t44 18.5t44 -18.5t18 -44.5t-18 -44t-44 -18t-44 18t-18 44z" />
    <glyph glyph-name="Igrave" unicode="&#xcc;" horiz-adv-x="230" 
d="M58 0v700h114v-700h-114zM54 922l139 -139l-55 -55l-139 139z" />
    <glyph glyph-name="Iacute" unicode="&#xcd;" horiz-adv-x="230" 
d="M58 0v700h114v-700h-114zM39 783l139 139l55 -55l-139 -139z" />
    <glyph glyph-name="Icircumflex" unicode="&#xce;" horiz-adv-x="230" 
d="M58 0v700h114v-700h-114zM116 922l138 -139l-55 -55l-83 84l-84 -84l-55 55z" />
    <glyph glyph-name="Idieresis" unicode="&#xcf;" horiz-adv-x="230" 
d="M58 0v700h114v-700h-114zM-31 799q0 26 18 44t44 18t44 -18t18 -44q0 -25 -18.5 -43.5t-43.5 -18.5q-26 0 -44 18t-18 44zM138 799q0 26 18 44.5t44 18.5t44 -18.5t18 -44.5t-18 -44t-44 -18t-44 18t-18 44z" />
    <glyph glyph-name="Eth" unicode="&#xd0;" horiz-adv-x="703" 
d="M35 307v86h46v307h221q161 0 259 -95.5t98 -254.5t-98 -254.5t-259 -95.5h-221v307h-46zM541 350q0 113 -66.5 182.5t-172.5 69.5h-103v-209h141v-86h-141v-209h103q106 0 172.5 69.5t66.5 182.5z" />
    <glyph glyph-name="Ntilde" unicode="&#xd1;" horiz-adv-x="708" 
d="M59 700h73l402 -481v481h115v-700h-74l-402 481v-481h-114v700zM262 755h-58q0 44 26.5 71.5t68.5 27.5q33 0 62 -22.5t46 -22.5t27.5 11.5t10.5 29.5h58q0 -45 -27 -72.5t-69 -27.5q-33 0 -61.5 22.5t-45.5 22.5t-27.5 -11t-10.5 -29z" />
    <glyph glyph-name="Ograve" unicode="&#xd2;" horiz-adv-x="802" 
d="M44 350q0 160 98.5 259.5t258.5 99.5t258.5 -99.5t98.5 -259.5t-98.5 -259.5t-258.5 -99.5t-258.5 99.5t-98.5 259.5zM162 350q0 -114 66.5 -185.5t172.5 -71.5t172.5 71.5t66.5 185.5t-66.5 185.5t-172.5 71.5t-172.5 -71.5t-66.5 -185.5zM339 922l139 -139l-55 -55
l-139 139z" />
    <glyph glyph-name="Oacute" unicode="&#xd3;" horiz-adv-x="802" 
d="M44 350q0 160 98.5 259.5t258.5 99.5t258.5 -99.5t98.5 -259.5t-98.5 -259.5t-258.5 -99.5t-258.5 99.5t-98.5 259.5zM162 350q0 -114 66.5 -185.5t172.5 -71.5t172.5 71.5t66.5 185.5t-66.5 185.5t-172.5 71.5t-172.5 -71.5t-66.5 -185.5zM324 783l139 139l55 -55
l-139 -139z" />
    <glyph glyph-name="Ocircumflex" unicode="&#xd4;" horiz-adv-x="802" 
d="M44 350q0 160 98.5 259.5t258.5 99.5t258.5 -99.5t98.5 -259.5t-98.5 -259.5t-258.5 -99.5t-258.5 99.5t-98.5 259.5zM162 350q0 -114 66.5 -185.5t172.5 -71.5t172.5 71.5t66.5 185.5t-66.5 185.5t-172.5 71.5t-172.5 -71.5t-66.5 -185.5zM401 922l139 -139l-55 -55
l-84 84l-84 -84l-55 55z" />
    <glyph glyph-name="Otilde" unicode="&#xd5;" horiz-adv-x="802" 
d="M44 350q0 160 98.5 259.5t258.5 99.5t258.5 -99.5t98.5 -259.5t-98.5 -259.5t-258.5 -99.5t-258.5 99.5t-98.5 259.5zM162 350q0 -114 66.5 -185.5t172.5 -71.5t172.5 71.5t66.5 185.5t-66.5 185.5t-172.5 71.5t-172.5 -71.5t-66.5 -185.5zM310 755h-59q0 44 26.5 71.5
t68.5 27.5q33 0 62.5 -22.5t46.5 -22.5q16 0 26.5 11.5t10.5 29.5h59q0 -45 -27 -72.5t-69 -27.5q-34 0 -62 22.5t-46 22.5q-17 0 -27 -11t-10 -29z" />
    <glyph glyph-name="Odieresis" unicode="&#xd6;" horiz-adv-x="802" 
d="M44 350q0 160 98.5 259.5t258.5 99.5t258.5 -99.5t98.5 -259.5t-98.5 -259.5t-258.5 -99.5t-258.5 99.5t-98.5 259.5zM162 350q0 -114 66.5 -185.5t172.5 -71.5t172.5 71.5t66.5 185.5t-66.5 185.5t-172.5 71.5t-172.5 -71.5t-66.5 -185.5zM242 799q0 26 18 44t44 18
t44 -18t18 -44t-18 -44t-44 -18t-44 18.5t-18 43.5zM435 799q0 26 18 44.5t44 18.5t44 -18.5t18 -44.5t-18 -44t-44 -18t-44 18t-18 44z" />
    <glyph glyph-name="multiply" unicode="&#xd7;" horiz-adv-x="425" 
d="M107 117l-61 61l106 106l-106 105l61 61l106 -106l105 106l61 -61l-106 -105l106 -106l-61 -61l-105 106z" />
    <glyph glyph-name="Oslash" unicode="&#xd8;" horiz-adv-x="802" 
d="M38 -9l94 111q-88 97 -88 248q0 160 98.5 259.5t258.5 99.5q112 0 201 -54l46 54h116l-95 -111q89 -100 89 -248q0 -160 -98.5 -259.5t-258.5 -99.5q-116 0 -202 54l-46 -54h-115zM640 350q0 92 -46 159l-324 -380q56 -36 131 -36q106 0 172.5 71.5t66.5 185.5zM162 350
q0 -94 45 -159l324 380q-58 36 -130 36q-106 0 -172.5 -71.5t-66.5 -185.5z" />
    <glyph glyph-name="Ugrave" unicode="&#xd9;" horiz-adv-x="657" 
d="M484 258v442h114v-442q0 -119 -75 -193t-196 -74t-194.5 73.5t-73.5 193.5v442h114v-442q0 -73 43 -119t111 -46q70 0 113.5 46t43.5 119zM266 922l139 -139l-55 -55l-139 139z" />
    <glyph glyph-name="Uacute" unicode="&#xda;" horiz-adv-x="657" 
d="M484 258v442h114v-442q0 -119 -75 -193t-196 -74t-194.5 73.5t-73.5 193.5v442h114v-442q0 -73 43 -119t111 -46q70 0 113.5 46t43.5 119zM251 783l139 139l55 -55l-139 -139z" />
    <glyph glyph-name="Ucircumflex" unicode="&#xdb;" horiz-adv-x="657" 
d="M484 258v442h114v-442q0 -119 -75 -193t-196 -74t-194.5 73.5t-73.5 193.5v442h114v-442q0 -73 43 -119t111 -46q70 0 113.5 46t43.5 119zM328 922l139 -139l-55 -55l-84 84l-83 -84l-55 55z" />
    <glyph glyph-name="Udieresis" unicode="&#xdc;" horiz-adv-x="657" 
d="M484 258v442h114v-442q0 -119 -75 -193t-196 -74t-194.5 73.5t-73.5 193.5v442h114v-442q0 -73 43 -119t111 -46q70 0 113.5 46t43.5 119zM170 799q0 26 18 44t44 18t44 -18t18 -44q0 -25 -18 -43.5t-44 -18.5t-44 18t-18 44zM362 799q0 26 18 44.5t44 18.5t44.5 -18.5
t18.5 -44.5t-18.5 -44t-44.5 -18t-44 18.5t-18 43.5z" />
    <glyph glyph-name="Yacute" unicode="&#xdd;" horiz-adv-x="679" 
d="M281 0v288l-265 412h132l191 -300l191 300h132l-266 -413v-287h-115zM262 783l139 139l55 -55l-139 -139z" />
    <glyph glyph-name="Thorn" unicode="&#xde;" horiz-adv-x="529" 
d="M59 0v700h118v-135h88q99 0 159.5 -56t60.5 -150q0 -93 -60.5 -149t-159.5 -56h-88v-154h-118zM367 359q0 49 -28 78.5t-74 29.5h-88v-215h88q46 0 74 29.5t28 77.5z" />
    <glyph glyph-name="germandbls" unicode="&#xdf;" horiz-adv-x="610" 
d="M172 556v-556h-114v556q0 91 60 147t156 56q97 0 157.5 -56t60.5 -146q0 -62 -28.5 -109.5t-78.5 -70.5q0 -31 19.5 -51.5t47.5 -33.5t55.5 -28t47 -46t19.5 -77q0 -62 -43 -106t-116 -44q-96 0 -160 66l67 68q38 -43 84 -43q28 0 43 16.5t15 37.5q0 19 -14 33.5
t-35 23.5t-46 23t-46 30t-35 46t-14 71v87q46 0 74.5 29t28.5 76t-28.5 76.5t-74.5 29.5q-45 0 -73.5 -29.5t-28.5 -75.5z" />
    <glyph glyph-name="agrave" unicode="&#xe0;" horiz-adv-x="461" 
d="M420 72v-72q-10 -5 -38 -5q-64 0 -91 50q-52 -54 -124 -54q-61 0 -96 38t-35 91q0 71 61.5 110.5t151.5 39.5q18 0 30 -2v33q0 26 -19.5 47t-54.5 21q-24 0 -49 -9.5t-39 -24.5l-59 59q67 65 157 65q80 0 127.5 -45.5t47.5 -112.5v-195q0 -16 8 -25t22 -9zM149 694
l139 -139l-55 -55l-139 139zM204 81q48 0 75 33v81q-10 3 -24 3q-46 0 -77 -18t-31 -48q0 -20 14 -35.5t43 -15.5z" />
    <glyph glyph-name="aacute" unicode="&#xe1;" horiz-adv-x="461" 
d="M420 72v-72q-10 -5 -38 -5q-64 0 -91 50q-52 -54 -124 -54q-61 0 -96 38t-35 91q0 71 61.5 110.5t151.5 39.5q18 0 30 -2v33q0 26 -19.5 47t-54.5 21q-24 0 -49 -9.5t-39 -24.5l-59 59q67 65 157 65q80 0 127.5 -45.5t47.5 -112.5v-195q0 -16 8 -25t22 -9zM138 555
l139 139l55 -55l-139 -139zM204 81q48 0 75 33v81q-10 3 -24 3q-46 0 -77 -18t-31 -48q0 -20 14 -35.5t43 -15.5z" />
    <glyph glyph-name="acircumflex" unicode="&#xe2;" horiz-adv-x="461" 
d="M420 72v-72q-10 -5 -38 -5q-64 0 -91 50q-52 -54 -124 -54q-61 0 -96 38t-35 91q0 71 61.5 110.5t151.5 39.5q18 0 30 -2v33q0 26 -19.5 47t-54.5 21q-24 0 -49 -9.5t-39 -24.5l-59 59q67 65 157 65q80 0 127.5 -45.5t47.5 -112.5v-195q0 -16 8 -25t22 -9zM219 694
l139 -139l-55 -55l-84 84l-84 -84l-55 55zM204 81q48 0 75 33v81q-10 3 -24 3q-46 0 -77 -18t-31 -48q0 -20 14 -35.5t43 -15.5z" />
    <glyph glyph-name="atilde" unicode="&#xe3;" horiz-adv-x="461" 
d="M420 72v-72q-10 -5 -38 -5q-64 0 -91 50q-52 -54 -124 -54q-61 0 -96 38t-35 91q0 71 61.5 110.5t151.5 39.5q18 0 30 -2v33q0 26 -19.5 47t-54.5 21q-24 0 -49 -9.5t-39 -24.5l-59 59q67 65 157 65q80 0 127.5 -45.5t47.5 -112.5v-195q0 -16 8 -25t22 -9zM134 527h-59
q0 44 26.5 71.5t68.5 27.5q33 0 62.5 -22.5t46.5 -22.5q16 0 26.5 11.5t10.5 28.5h59q0 -44 -27 -71.5t-69 -27.5q-34 0 -62 22.5t-46 22.5q-16 0 -26.5 -11t-10.5 -29zM204 81q48 0 75 33v81q-10 3 -24 3q-46 0 -77 -18t-31 -48q0 -20 14 -35.5t43 -15.5z" />
    <glyph glyph-name="adieresis" unicode="&#xe4;" horiz-adv-x="461" 
d="M420 72v-72q-10 -5 -38 -5q-64 0 -91 50q-52 -54 -124 -54q-61 0 -96 38t-35 91q0 71 61.5 110.5t151.5 39.5q18 0 30 -2v33q0 26 -19.5 47t-54.5 21q-24 0 -49 -9.5t-39 -24.5l-59 59q67 65 157 65q80 0 127.5 -45.5t47.5 -112.5v-195q0 -16 8 -25t22 -9zM204 81
q48 0 75 33v81q-10 3 -24 3q-46 0 -77 -18t-31 -48q0 -20 14 -35.5t43 -15.5zM258 571q0 26 18 44.5t44 18.5t44.5 -18.5t18.5 -44.5t-18.5 -44t-44.5 -18t-44 18t-18 44zM66 571q0 26 18 44t44 18q25 0 43 -18t18 -44t-17.5 -44t-43.5 -18t-44 18t-18 44z" />
    <glyph glyph-name="aring" unicode="&#xe5;" horiz-adv-x="461" 
d="M420 72v-72q-10 -5 -38 -5q-64 0 -91 50q-52 -54 -124 -54q-61 0 -96 38t-35 91q0 71 61.5 110.5t151.5 39.5q18 0 30 -2v33q0 26 -19.5 47t-54.5 21q-24 0 -49 -9.5t-39 -24.5l-59 59q67 65 157 65q80 0 127.5 -45.5t47.5 -112.5v-195q0 -16 8 -25t22 -9zM129 585
q0 42 25 68t66 26t66 -26t25 -68t-25 -67.5t-66 -25.5t-66 25.5t-25 67.5zM204 81q48 0 75 33v81q-10 3 -24 3q-46 0 -77 -18t-31 -48q0 -20 14 -35.5t43 -15.5zM175 585q0 -21 12.5 -34t32.5 -13t33 13t13 34t-13 34t-33 13t-32.5 -13t-12.5 -34z" />
    <glyph glyph-name="ae" unicode="&#xe6;" horiz-adv-x="708" 
d="M279 268v33q0 26 -19.5 47t-54.5 21q-24 0 -49 -9.5t-39 -24.5l-59 59q67 65 157 65q72 0 117 -40q55 40 131 40q101 0 155.5 -70.5t54.5 -196.5h-283v-64q33 -39 98 -39q64 0 99 38l65 -68q-66 -68 -172 -68q-114 0 -177 69q-53 -69 -136 -69q-61 0 -96 38t-35 91
q0 71 61.5 110.5t151.5 39.5q18 0 30 -2zM390 301v-33h173q-15 96 -97 96q-50 0 -79 -35q3 -27 3 -28zM279 116v79q-10 3 -24 3q-46 0 -77 -18t-31 -48q0 -20 14 -35.5t43 -15.5q46 0 75 35z" />
    <glyph glyph-name="ccedilla" unicode="&#xe7;" horiz-adv-x="469" 
d="M153 225q0 -61 35 -98.5t91 -37.5q61 0 94 38l68 -68q-59 -61 -151 -67v-46q67 -15 67 -82q0 -38 -25 -61.5t-64 -23.5q-40 0 -66 26l33 33q15 -13 33 -13q19 0 31 11t12 30q0 44 -66 44v82q-94 9 -150 72.5t-56 160.5q0 104 64.5 169t169.5 65q101 0 168 -69l-68 -67
q-33 38 -94 38q-56 0 -91 -37.5t-35 -98.5z" />
    <glyph glyph-name="egrave" unicode="&#xe8;" horiz-adv-x="504" 
d="M469 192h-313q8 -48 41 -75.5t87 -27.5q63 0 98 38l66 -68q-66 -68 -172 -68t-171.5 65t-65.5 172q0 102 60.5 166.5t159.5 64.5q101 0 155.5 -70.5t54.5 -196.5zM262 364q-42 0 -70 -26t-36 -70h203q-15 96 -97 96zM198 694l139 -139l-55 -55l-139 139z" />
    <glyph glyph-name="eacute" unicode="&#xe9;" horiz-adv-x="504" 
d="M469 192h-313q8 -48 41 -75.5t87 -27.5q63 0 98 38l66 -68q-66 -68 -172 -68t-171.5 65t-65.5 172q0 102 60.5 166.5t159.5 64.5q101 0 155.5 -70.5t54.5 -196.5zM262 364q-42 0 -70 -26t-36 -70h203q-15 96 -97 96zM181 555l139 139l55 -55l-139 -139z" />
    <glyph glyph-name="ecircumflex" unicode="&#xea;" horiz-adv-x="504" 
d="M469 192h-313q8 -48 41 -75.5t87 -27.5q63 0 98 38l66 -68q-66 -68 -172 -68t-171.5 65t-65.5 172q0 102 60.5 166.5t159.5 64.5q101 0 155.5 -70.5t54.5 -196.5zM262 364q-42 0 -70 -26t-36 -70h203q-15 96 -97 96zM260 694l138 -139l-55 -55l-83 84l-84 -84l-55 55z
" />
    <glyph glyph-name="edieresis" unicode="&#xeb;" horiz-adv-x="504" 
d="M469 192h-313q8 -48 41 -75.5t87 -27.5q63 0 98 38l66 -68q-66 -68 -172 -68t-171.5 65t-65.5 172q0 102 60.5 166.5t159.5 64.5q101 0 155.5 -70.5t54.5 -196.5zM262 364q-42 0 -70 -26t-36 -70h203q-15 96 -97 96zM102 571q0 26 18 44t44 18t44 -18.5t18 -43.5
q0 -26 -18 -44t-44 -18t-44 18t-18 44zM294 571q0 26 18 44.5t44 18.5t44.5 -18.5t18.5 -44.5t-18.5 -44t-44.5 -18t-44 18t-18 44z" />
    <glyph glyph-name="igrave" unicode="&#xec;" 
d="M51 694l139 -139l-55 -55l-139 139zM58 0v450h110v-450h-110z" />
    <glyph glyph-name="iacute" unicode="&#xed;" 
d="M36 555l139 139l55 -55l-139 -139zM58 0v450h110v-450h-110z" />
    <glyph glyph-name="icircumflex" unicode="&#xee;" 
d="M58 0v450h110v-450h-110zM113 694l139 -139l-55 -55l-84 84l-84 -84l-55 55z" />
    <glyph glyph-name="idieresis" unicode="&#xef;" 
d="M58 0v450h110v-450h-110zM-33 571q0 25 18.5 43.5t43.5 18.5q26 0 44 -18t18 -44t-18 -44t-44 -18t-44 18t-18 44zM134 571q0 26 18 44.5t44 18.5q27 0 45 -18.5t18 -44.5t-18 -44t-45 -18q-26 0 -44 18t-18 44z" />
    <glyph glyph-name="eth" unicode="&#xf0;" horiz-adv-x="552" 
d="M164 520l-42 73l69 40l-63 72l99 54q53 -60 61 -71l79 45l43 -74l-67 -38q84 -116 127 -208t43 -177q0 -114 -64.5 -179.5t-171.5 -65.5t-172.5 65t-65.5 171q0 105 65.5 168.5t169.5 63.5q28 0 53 -9q-34 57 -80 116zM399 225q0 61 -34 98.5t-89 37.5t-89 -37.5
t-34 -98.5t34 -98.5t89 -37.5t89 37.5t34 98.5z" />
    <glyph glyph-name="ntilde" unicode="&#xf1;" horiz-adv-x="516" 
d="M58 450h110v-33q51 42 122 42q77 0 122.5 -52.5t45.5 -138.5v-268h-110v268q0 41 -24 67t-63 26q-59 0 -93 -37v-324h-110v450zM162 527h-59q0 44 27 71.5t68 27.5q33 0 62.5 -22.5t46.5 -22.5q16 0 26.5 11.5t10.5 28.5h59q0 -44 -27 -71.5t-69 -27.5q-33 0 -61.5 22.5
t-46.5 22.5q-16 0 -26.5 -11t-10.5 -29z" />
    <glyph glyph-name="ograve" unicode="&#xf2;" horiz-adv-x="552" 
d="M39 225q0 104 65.5 169t171.5 65t171.5 -65t65.5 -169t-65.5 -169t-171.5 -65t-171.5 65t-65.5 169zM153 225q0 -61 34 -98.5t89 -37.5t89 37.5t34 98.5t-34 98.5t-89 37.5t-89 -37.5t-34 -98.5zM214 694l139 -139l-55 -55l-139 139z" />
    <glyph glyph-name="oacute" unicode="&#xf3;" horiz-adv-x="552" 
d="M39 225q0 104 65.5 169t171.5 65t171.5 -65t65.5 -169t-65.5 -169t-171.5 -65t-171.5 65t-65.5 169zM153 225q0 -61 34 -98.5t89 -37.5t89 37.5t34 98.5t-34 98.5t-89 37.5t-89 -37.5t-34 -98.5zM199 555l139 139l55 -55l-139 -139z" />
    <glyph glyph-name="ocircumflex" unicode="&#xf4;" horiz-adv-x="552" 
d="M39 225q0 104 65.5 169t171.5 65t171.5 -65t65.5 -169t-65.5 -169t-171.5 -65t-171.5 65t-65.5 169zM153 225q0 -61 34 -98.5t89 -37.5t89 37.5t34 98.5t-34 98.5t-89 37.5t-89 -37.5t-34 -98.5zM276 694l139 -139l-55 -55l-84 84l-84 -84l-55 55z" />
    <glyph glyph-name="otilde" unicode="&#xf5;" horiz-adv-x="552" 
d="M39 225q0 104 65.5 169t171.5 65t171.5 -65t65.5 -169t-65.5 -169t-171.5 -65t-171.5 65t-65.5 169zM153 225q0 -61 34 -98.5t89 -37.5t89 37.5t34 98.5t-34 98.5t-89 37.5t-89 -37.5t-34 -98.5zM185 527h-59q0 44 26.5 71.5t68.5 27.5q33 0 62.5 -22.5t46.5 -22.5
q16 0 26.5 11.5t10.5 28.5h59q0 -44 -27 -71.5t-69 -27.5q-34 0 -62 22.5t-46 22.5q-17 0 -27 -11t-10 -29z" />
    <glyph glyph-name="odieresis" unicode="&#xf6;" horiz-adv-x="552" 
d="M39 225q0 104 65.5 169t171.5 65t171.5 -65t65.5 -169t-65.5 -169t-171.5 -65t-171.5 65t-65.5 169zM153 225q0 -61 34 -98.5t89 -37.5t89 37.5t34 98.5t-34 98.5t-89 37.5t-89 -37.5t-34 -98.5zM117 571q0 25 18.5 43.5t43.5 18.5q26 0 44 -18t18 -44t-18 -44t-44 -18
t-44 18t-18 44zM310 571q0 26 18 44.5t44 18.5t44 -18.5t18 -44.5t-18 -44t-44 -18t-44 18t-18 44z" />
    <glyph glyph-name="divide" unicode="&#xf7;" horiz-adv-x="500" 
d="M47 229v86h406v-86h-406zM190 110q0 26 17 43t43 17q25 0 42 -17t17 -43q0 -25 -17 -42.5t-42 -17.5t-42.5 17.5t-17.5 42.5zM190 434q0 26 17 43t43 17q25 0 42 -17t17 -43t-17 -43t-42 -17q-26 0 -43 17t-17 43z" />
    <glyph glyph-name="oslash" unicode="&#xf8;" horiz-adv-x="552" 
d="M38 -9l57 74q-56 64 -56 160q0 104 65.5 169t171.5 65q58 0 105 -21l22 29h111l-61 -79q60 -65 60 -163q0 -104 -65.5 -169t-171.5 -65q-60 0 -110 22l-17 -22h-111zM407 225q0 43 -19 78l-163 -213q23 -9 51 -9q59 0 95 40t36 104zM145 225q0 -40 16 -74l161 210
q-22 8 -46 8q-59 0 -95 -40t-36 -104z" />
    <glyph glyph-name="ugrave" unicode="&#xf9;" horiz-adv-x="523" 
d="M465 450v-259q0 -89 -56.5 -144.5t-147.5 -55.5q-90 0 -146.5 55.5t-56.5 144.5v259h114v-259q0 -45 25.5 -73.5t66.5 -28.5t66.5 28.5t25.5 73.5v259h109zM199 694l139 -139l-55 -55l-139 139z" />
    <glyph glyph-name="uacute" unicode="&#xfa;" horiz-adv-x="523" 
d="M465 450v-259q0 -89 -56.5 -144.5t-147.5 -55.5q-90 0 -146.5 55.5t-56.5 144.5v259h114v-259q0 -45 25.5 -73.5t66.5 -28.5t66.5 28.5t25.5 73.5v259h109zM184 555l139 139l55 -55l-139 -139z" />
    <glyph glyph-name="ucircumflex" unicode="&#xfb;" horiz-adv-x="523" 
d="M465 450v-259q0 -89 -56.5 -144.5t-147.5 -55.5q-90 0 -146.5 55.5t-56.5 144.5v259h114v-259q0 -45 25.5 -73.5t66.5 -28.5t66.5 28.5t25.5 73.5v259h109zM261 694l139 -139l-55 -55l-84 84l-84 -84l-55 55z" />
    <glyph glyph-name="udieresis" unicode="&#xfc;" horiz-adv-x="523" 
d="M465 450v-259q0 -89 -56.5 -144.5t-147.5 -55.5q-90 0 -146.5 55.5t-56.5 144.5v259h114v-259q0 -45 25.5 -73.5t66.5 -28.5t66.5 28.5t25.5 73.5v259h109zM103 571q0 26 18 44t44 18q25 0 43 -18t18 -44t-17.5 -44t-43.5 -18t-44 18t-18 44zM295 571q0 26 18 44.5
t44 18.5t44.5 -18.5t18.5 -44.5t-18.5 -44t-44.5 -18t-44 18t-18 44z" />
    <glyph glyph-name="yacute" unicode="&#xfd;" horiz-adv-x="528" 
d="M516 450l-317 -700h-123l137 250l-201 450h123l130 -316l128 316h123zM187 555l139 139l55 -55l-139 -139z" />
    <glyph glyph-name="thorn" unicode="&#xfe;" horiz-adv-x="540" 
d="M58 750h110v-333q53 42 124 42q94 0 152 -65t58 -169t-63.5 -169t-165.5 -65q-57 0 -105 24v-265h-110v1000zM387 225q0 61 -35 98.5t-91 37.5q-59 0 -93 -37v-202q33 -33 93 -33q56 0 91 37.5t35 98.5z" />
    <glyph glyph-name="ydieresis" unicode="&#xff;" horiz-adv-x="528" 
d="M516 450l-317 -700h-123l137 250l-201 450h123l130 -316l128 316h123zM106 571q0 26 18 44t44 18t44 -18.5t18 -43.5q0 -26 -18 -44t-44 -18t-44 18t-18 44zM298 571q0 26 18 44.5t44 18.5t44.5 -18.5t18.5 -44.5t-18.5 -44t-44.5 -18t-44 18t-18 44z" />
    <glyph glyph-name="Amacron" unicode="&#x100;" horiz-adv-x="762" 
d="M613 0l-74 168h-318l-72 -168h-133l311 700h107l311 -700h-132zM381 552l-119 -282h236zM250 759v66h261v-66h-261z" />
    <glyph glyph-name="amacron" unicode="&#x101;" horiz-adv-x="461" 
d="M420 72v-72q-10 -5 -38 -5q-64 0 -91 50q-52 -54 -124 -54q-61 0 -96 38t-35 91q0 71 61.5 110.5t151.5 39.5q18 0 30 -2v33q0 26 -19.5 47t-54.5 21q-24 0 -49 -9.5t-39 -24.5l-59 59q67 65 157 65q80 0 127.5 -45.5t47.5 -112.5v-195q0 -16 8 -25t22 -9zM89 531v65h261
v-65h-261zM204 81q48 0 75 33v81q-10 3 -24 3q-46 0 -77 -18t-31 -48q0 -20 14 -35.5t43 -15.5z" />
    <glyph glyph-name="Abreve" unicode="&#x102;" horiz-adv-x="762" 
d="M613 0l-74 168h-318l-72 -168h-133l311 700h107l311 -700h-132zM381 552l-119 -282h236zM381 820q62 0 97 38l55 -54q-59 -64 -152 -64q-90 0 -152 65l54 54q37 -39 98 -39z" />
    <glyph glyph-name="abreve" unicode="&#x103;" horiz-adv-x="461" 
d="M420 72v-72q-10 -5 -38 -5q-64 0 -91 50q-52 -54 -124 -54q-61 0 -96 38t-35 91q0 71 61.5 110.5t151.5 39.5q18 0 30 -2v33q0 26 -19.5 47t-54.5 21q-24 0 -49 -9.5t-39 -24.5l-59 59q67 65 157 65q80 0 127.5 -45.5t47.5 -112.5v-195q0 -16 8 -25t22 -9zM220 592
q62 0 98 38l54 -54q-59 -64 -152 -64q-90 0 -152 64l54 55q37 -39 98 -39zM204 81q48 0 75 33v81q-10 3 -24 3q-46 0 -77 -18t-31 -48q0 -20 14 -35.5t43 -15.5z" />
    <glyph glyph-name="Aogonek" unicode="&#x104;" horiz-adv-x="762" 
d="M656 -35q0 -24 13.5 -37.5t35.5 -13.5q21 0 36 13l36 -36q-26 -28 -71 -28t-73 28t-28 74q0 20 8 35l-74 168h-318l-72 -168h-133l311 700h107l311 -700h-81q-8 -14 -8 -35zM381 552l-119 -282h236z" />
    <glyph glyph-name="aogonek" unicode="&#x105;" horiz-adv-x="461" 
d="M391 -35q0 -24 13.5 -37.5t35.5 -13.5q21 0 36 13l36 -36q-26 -28 -72 -28q-44 0 -72.5 28.5t-28.5 73.5q0 17 8 35q-36 10 -56 45q-52 -54 -124 -54q-61 0 -96 38t-35 91q0 71 61.5 110.5t151.5 39.5q18 0 30 -2v33q0 26 -19.5 47t-54.5 21q-24 0 -49 -9.5t-39 -24.5
l-59 59q67 65 157 65q80 0 127.5 -45.5t47.5 -112.5v-195q0 -16 8 -25t22 -9v-72q-10 -4 -24 -4q-5 -15 -5 -31zM204 81q48 0 75 33v81q-10 3 -24 3q-46 0 -77 -18t-31 -48q0 -20 14 -35.5t43 -15.5z" />
    <glyph glyph-name="Cacute" unicode="&#x106;" horiz-adv-x="693" 
d="M162 350q0 -114 68 -185.5t177 -71.5q112 0 180 70l73 -72q-100 -100 -259 -100q-160 0 -258.5 99.5t-98.5 259.5t98.5 259.5t258.5 99.5q159 0 259 -100l-73 -73q-68 71 -180 71q-109 0 -177 -71.5t-68 -185.5zM302 785l139 139l55 -55l-139 -139z" />
    <glyph glyph-name="cacute" unicode="&#x107;" horiz-adv-x="469" 
d="M153 225q0 -61 35 -98.5t91 -37.5q61 0 94 38l68 -68q-66 -68 -168 -68q-105 0 -169.5 65t-64.5 169t64.5 169t169.5 65q101 0 168 -69l-68 -67q-33 38 -94 38q-56 0 -91 -37.5t-35 -98.5zM180 555l139 139l55 -55l-139 -139z" />
    <glyph glyph-name="Ccircumflex" unicode="&#x108;" horiz-adv-x="693" 
d="M162 350q0 -114 68 -185.5t177 -71.5q112 0 180 70l73 -72q-100 -100 -259 -100q-160 0 -258.5 99.5t-98.5 259.5t98.5 259.5t258.5 99.5q159 0 259 -100l-73 -73q-68 71 -180 71q-109 0 -177 -71.5t-68 -185.5zM381 922l139 -139l-55 -55l-84 84l-84 -84l-55 55z" />
    <glyph glyph-name="ccircumflex" unicode="&#x109;" horiz-adv-x="469" 
d="M153 225q0 -61 35 -98.5t91 -37.5q61 0 94 38l68 -68q-66 -68 -168 -68q-105 0 -169.5 65t-64.5 169t64.5 169t169.5 65q101 0 168 -69l-68 -67q-33 38 -94 38q-56 0 -91 -37.5t-35 -98.5zM255 694l139 -139l-55 -55l-84 84l-83 -84l-55 55z" />
    <glyph glyph-name="Cdotaccent" unicode="&#x10a;" horiz-adv-x="693" 
d="M162 350q0 -114 68 -185.5t177 -71.5q112 0 180 70l73 -72q-100 -100 -259 -100q-160 0 -258.5 99.5t-98.5 259.5t98.5 259.5t258.5 99.5q159 0 259 -100l-73 -73q-68 71 -180 71q-109 0 -177 -71.5t-68 -185.5zM315 813q0 28 19 47t47 19t47 -19t19 -47t-19 -47t-47 -19
t-47 19t-19 47z" />
    <glyph glyph-name="cdotaccent" unicode="&#x10b;" horiz-adv-x="469" 
d="M153 225q0 -61 35 -98.5t91 -37.5q61 0 94 38l68 -68q-66 -68 -168 -68q-105 0 -169.5 65t-64.5 169t64.5 169t169.5 65q101 0 168 -69l-68 -67q-33 38 -94 38q-56 0 -91 -37.5t-35 -98.5zM187 585q0 28 19 47t47 19t47 -19t19 -47t-19 -47t-47 -19t-47 19t-19 47z" />
    <glyph glyph-name="Ccaron" unicode="&#x10c;" horiz-adv-x="693" 
d="M162 350q0 -114 68 -185.5t177 -71.5q112 0 180 70l73 -72q-100 -100 -259 -100q-160 0 -258.5 99.5t-98.5 259.5t98.5 259.5t258.5 99.5q159 0 259 -100l-73 -73q-68 71 -180 71q-109 0 -177 -71.5t-68 -185.5zM377 728l-138 139l55 55l83 -84l84 84l55 -55z" />
    <glyph glyph-name="ccaron" unicode="&#x10d;" horiz-adv-x="469" 
d="M153 225q0 -61 35 -98.5t91 -37.5q61 0 94 38l68 -68q-66 -68 -168 -68q-105 0 -169.5 65t-64.5 169t64.5 169t169.5 65q101 0 168 -69l-68 -67q-33 38 -94 38q-56 0 -91 -37.5t-35 -98.5zM254 500l-138 139l55 55l83 -84l84 84l55 -55z" />
    <glyph glyph-name="Dcaron" unicode="&#x10e;" horiz-adv-x="697" 
d="M59 0v700h237q161 0 259.5 -95.5t98.5 -254.5t-98.5 -254.5t-259.5 -95.5h-237zM535 350q0 114 -66 183t-173 69h-119v-504h119q107 0 173 69t66 183zM339 728l-139 139l55 55l84 -84l83 84l55 -55z" />
    <glyph glyph-name="dcaron" unicode="&#x10f;" horiz-adv-x="700" 
d="M482 0h-110v32q-54 -41 -123 -41q-94 0 -152 64.5t-58 169.5t63.5 169.5t166.5 64.5q57 0 103 -23v314h110v-750zM153 225q0 -61 35 -98.5t91 -37.5q60 0 93 36v203q-35 33 -93 33q-56 0 -91 -37.5t-35 -98.5zM587 511l-35 36q41 41 54 82q-23 5 -37.5 22.5t-14.5 41.5
q0 28 19 47t47 19q26 0 46 -17.5t20 -56.5q0 -75 -99 -174z" />
    <glyph glyph-name="Dcroat" unicode="&#x110;" horiz-adv-x="703" 
d="M35 307v86h46v307h221q161 0 259 -95.5t98 -254.5t-98 -254.5t-259 -95.5h-221v307h-46zM541 350q0 113 -66.5 182.5t-172.5 69.5h-103v-209h141v-86h-141v-209h103q106 0 172.5 69.5t66.5 182.5z" />
    <glyph glyph-name="dcroat" unicode="&#x111;" horiz-adv-x="565" 
d="M482 0h-110v33q-53 -42 -123 -42q-94 0 -152 64.5t-58 169.5t63.5 169.5t166.5 64.5q56 0 103 -25v123h-121v85h121v108h110v-108h53v-85h-53v-557zM153 225q0 -61 35 -98.5t91 -37.5q61 0 93 36v203q-35 33 -93 33q-56 0 -91 -37.5t-35 -98.5z" />
    <glyph glyph-name="Emacron" unicode="&#x112;" horiz-adv-x="483" 
d="M173 606v-208h235v-94h-235v-210h271v-94h-385v700h380v-94h-266zM118 759v66h261v-66h-261z" />
    <glyph glyph-name="emacron" unicode="&#x113;" horiz-adv-x="504" 
d="M469 192h-313q8 -48 41 -75.5t87 -27.5q63 0 98 38l66 -68q-66 -68 -172 -68t-171.5 65t-65.5 172q0 102 60.5 166.5t159.5 64.5q101 0 155.5 -70.5t54.5 -196.5zM262 364q-42 0 -70 -26t-36 -70h203q-15 96 -97 96zM128 531v65h261v-65h-261z" />
    <glyph glyph-name="Ebreve" unicode="&#x114;" horiz-adv-x="483" 
d="M173 606v-208h235v-94h-235v-210h271v-94h-385v700h380v-94h-266zM249 820q62 0 97 38l55 -54q-59 -64 -152 -64q-90 0 -152 65l54 54q37 -39 98 -39z" />
    <glyph glyph-name="ebreve" unicode="&#x115;" horiz-adv-x="504" 
d="M469 192h-313q8 -48 41 -75.5t87 -27.5q63 0 98 38l66 -68q-66 -68 -172 -68t-171.5 65t-65.5 172q0 102 60.5 166.5t159.5 64.5q101 0 155.5 -70.5t54.5 -196.5zM262 364q-42 0 -70 -26t-36 -70h203q-15 96 -97 96zM260 592q62 0 98 38l54 -54q-59 -64 -152 -64
q-90 0 -152 64l54 55q37 -39 98 -39z" />
    <glyph glyph-name="Edotaccent" unicode="&#x116;" horiz-adv-x="483" 
d="M173 606v-208h235v-94h-235v-210h271v-94h-385v700h380v-94h-266zM183 813q0 28 19 47t47 19t47 -19t19 -47t-19 -47t-47 -19t-47 19t-19 47z" />
    <glyph glyph-name="edotaccent" unicode="&#x117;" horiz-adv-x="504" 
d="M469 192h-313q8 -48 41 -75.5t87 -27.5q63 0 98 38l66 -68q-66 -68 -172 -68t-171.5 65t-65.5 172q0 102 60.5 166.5t159.5 64.5q101 0 155.5 -70.5t54.5 -196.5zM262 364q-42 0 -70 -26t-36 -70h203q-15 96 -97 96zM194 585q0 28 19 47t47 19t47 -19t19 -47t-19 -47
t-47 -19t-47 19t-19 47z" />
    <glyph glyph-name="Eogonek" unicode="&#x118;" horiz-adv-x="483" 
d="M336 -35q0 -24 13.5 -37.5t35.5 -13.5q21 0 36 13l36 -36q-26 -28 -72 -28q-45 0 -73 28.5t-28 73.5q0 17 8 35h-233v700h380v-94h-266v-208h235v-94h-235v-210h271v-94h-100q-8 -14 -8 -35z" />
    <glyph glyph-name="eogonek" unicode="&#x119;" horiz-adv-x="504" 
d="M336 -35q0 -24 13.5 -37.5t35.5 -13.5q23 0 36 13l37 -36q-28 -28 -72 -28q-45 0 -73 28t-28 74q0 15 4 26h-13q-106 0 -171.5 65t-65.5 172q0 102 60.5 166.5t159.5 64.5q101 0 155.5 -70.5t54.5 -196.5h-313q8 -48 41 -75.5t87 -27.5q63 0 98 38l66 -68
q-42 -44 -104 -59q-8 -14 -8 -35zM262 364q-42 0 -70 -26t-36 -70h203q-15 96 -97 96z" />
    <glyph glyph-name="Ecaron" unicode="&#x11a;" horiz-adv-x="483" 
d="M173 606v-208h235v-94h-235v-210h271v-94h-385v700h380v-94h-266zM249 728l-139 139l55 55l84 -84l84 84l55 -55z" />
    <glyph glyph-name="ecaron" unicode="&#x11b;" horiz-adv-x="504" 
d="M469 192h-313q8 -48 41 -75.5t87 -27.5q63 0 98 38l66 -68q-66 -68 -172 -68t-171.5 65t-65.5 172q0 102 60.5 166.5t159.5 64.5q101 0 155.5 -70.5t54.5 -196.5zM262 364q-42 0 -70 -26t-36 -70h203q-15 96 -97 96zM259 500l-139 139l55 55l84 -84l84 84l55 -55z" />
    <glyph glyph-name="Gcircumflex" unicode="&#x11c;" horiz-adv-x="719" 
d="M401 289v94h259v-292q-100 -100 -259 -100q-160 0 -258.5 99.5t-98.5 259.5t98.5 259.5t258.5 99.5q159 0 259 -100l-73 -73q-68 71 -180 71q-109 0 -177 -71.5t-68 -185.5t68 -185.5t177 -71.5q80 0 138 38v158h-144zM400 922l139 -139l-55 -55l-84 84l-84 -84l-55 55z
" />
    <glyph glyph-name="gcircumflex" unicode="&#x11d;" horiz-adv-x="519" 
d="M14 -113q0 81 95 119q-50 27 -50 75q0 47 53 75q-68 42 -68 133q0 77 52.5 123.5t137.5 46.5q80 0 130 -41q35 41 80 41q18 0 27 -2v-87q-10 3 -21 3q-21 0 -39 -21q11 -28 11 -60q0 -75 -52.5 -121.5t-137.5 -46.5q-66 0 -66 -40q0 -18 22 -29t60 -11q100 0 162 -40.5
t62 -105.5q0 -69 -68 -113t-172 -44q-99 0 -158.5 40.5t-59.5 105.5zM129 -113q0 -29 27 -46t75 -17q53 0 90 20.5t37 51.5q0 28 -30 45.5t-80 17.5q-53 0 -86 -20t-33 -52zM232 694l139 -139l-55 -55l-84 84l-84 -84l-55 55zM155 292q0 -36 22.5 -59t57.5 -23t57.5 23
t22.5 59t-22.5 58.5t-57.5 22.5t-57.5 -22.5t-22.5 -58.5z" />
    <glyph glyph-name="Gbreve" unicode="&#x11e;" horiz-adv-x="719" 
d="M401 289v94h259v-292q-100 -100 -259 -100q-160 0 -258.5 99.5t-98.5 259.5t98.5 259.5t258.5 99.5q159 0 259 -100l-73 -73q-68 71 -180 71q-109 0 -177 -71.5t-68 -185.5t68 -185.5t177 -71.5q80 0 138 38v158h-144zM399 820q62 0 98 38l54 -54q-59 -64 -152 -64
q-90 0 -152 65l55 54q36 -39 97 -39z" />
    <glyph glyph-name="gbreve" unicode="&#x11f;" horiz-adv-x="519" 
d="M14 -113q0 81 95 119q-50 27 -50 75q0 47 53 75q-68 42 -68 133q0 77 52.5 123.5t137.5 46.5q80 0 130 -41q35 41 80 41q18 0 27 -2v-87q-10 3 -21 3q-21 0 -39 -21q11 -28 11 -60q0 -75 -52.5 -121.5t-137.5 -46.5q-66 0 -66 -40q0 -18 22 -29t60 -11q100 0 162 -40.5
t62 -105.5q0 -69 -68 -113t-172 -44q-99 0 -158.5 40.5t-59.5 105.5zM129 -113q0 -29 27 -46t75 -17q53 0 90 20.5t37 51.5q0 28 -30 45.5t-80 17.5q-53 0 -86 -20t-33 -52zM234 592q62 0 98 38l54 -54q-59 -64 -152 -64q-90 0 -152 64l54 55q37 -39 98 -39zM155 292
q0 -36 22.5 -59t57.5 -23t57.5 23t22.5 59t-22.5 58.5t-57.5 22.5t-57.5 -22.5t-22.5 -58.5z" />
    <glyph glyph-name="Gdotaccent" unicode="&#x120;" horiz-adv-x="719" 
d="M401 289v94h259v-292q-100 -100 -259 -100q-160 0 -258.5 99.5t-98.5 259.5t98.5 259.5t258.5 99.5q159 0 259 -100l-73 -73q-68 71 -180 71q-109 0 -177 -71.5t-68 -185.5t68 -185.5t177 -71.5q80 0 138 38v158h-144zM333 813q0 28 19 47t47 19t47 -19t19 -47t-19 -47
t-47 -19t-47 19t-19 47z" />
    <glyph glyph-name="gdotaccent" unicode="&#x121;" horiz-adv-x="519" 
d="M14 -113q0 81 95 119q-50 27 -50 75q0 47 53 75q-68 42 -68 133q0 77 52.5 123.5t137.5 46.5q80 0 130 -41q35 41 80 41q18 0 27 -2v-87q-10 3 -21 3q-21 0 -39 -21q11 -28 11 -60q0 -75 -52.5 -121.5t-137.5 -46.5q-66 0 -66 -40q0 -18 22 -29t60 -11q100 0 162 -40.5
t62 -105.5q0 -69 -68 -113t-172 -44q-99 0 -158.5 40.5t-59.5 105.5zM129 -113q0 -29 27 -46t75 -17q53 0 90 20.5t37 51.5q0 28 -30 45.5t-80 17.5q-53 0 -86 -20t-33 -52zM155 292q0 -36 22.5 -59t57.5 -23t57.5 23t22.5 59t-22.5 58.5t-57.5 22.5t-57.5 -22.5
t-22.5 -58.5zM167 585q0 28 19 47t47 19t47 -19t19 -47t-19 -47t-47 -19t-47 19t-19 47z" />
    <glyph glyph-name="Gcommaaccent" unicode="&#x122;" horiz-adv-x="719" 
d="M401 289v94h259v-292q-100 -100 -259 -100q-160 0 -258.5 99.5t-98.5 259.5t98.5 259.5t258.5 99.5q159 0 259 -100l-73 -73q-68 71 -180 71q-109 0 -177 -71.5t-68 -185.5t68 -185.5t177 -71.5q80 0 138 38v158h-144zM361 -245l-28 28q37 38 44 69q-19 3 -30.5 17.5
t-11.5 34.5q0 23 15.5 38t38.5 15q21 0 37 -14.5t16 -45.5q0 -63 -81 -142z" />
    <glyph glyph-name="gcommaaccent" unicode="&#x123;" horiz-adv-x="519" 
d="M14 -113q0 81 95 119q-50 27 -50 75q0 47 53 75q-68 42 -68 133q0 77 52.5 123.5t137.5 46.5q80 0 130 -41q35 41 80 41q18 0 27 -2v-87q-10 3 -21 3q-21 0 -39 -21q11 -28 11 -60q0 -75 -52.5 -121.5t-137.5 -46.5q-66 0 -66 -40q0 -18 22 -29t60 -11q100 0 162 -40.5
t62 -105.5q0 -69 -68 -113t-172 -44q-99 0 -158.5 40.5t-59.5 105.5zM129 -113q0 -29 27 -46t75 -17q53 0 90 20.5t37 51.5q0 28 -30 45.5t-80 17.5q-53 0 -86 -20t-33 -52zM155 292q0 -36 22.5 -59t57.5 -23t57.5 23t22.5 59t-22.5 58.5t-57.5 22.5t-57.5 -22.5
t-22.5 -58.5zM263 701l29 -29q-36 -36 -45 -68q19 -4 31 -18.5t12 -33.5q0 -23 -15.5 -38.5t-38.5 -15.5q-22 0 -38 14.5t-16 45.5q0 64 81 143z" />
    <glyph glyph-name="Hcircumflex" unicode="&#x124;" horiz-adv-x="684" 
d="M173 700v-302h337v302h115v-700h-115v304h-337v-304h-114v700h114zM342 922l139 -139l-55 -55l-84 84l-84 -84l-55 55z" />
    <glyph glyph-name="hcircumflex" unicode="&#x125;" horiz-adv-x="517" 
d="M58 750h110v-333q51 42 122 42q77 0 122.5 -52.5t45.5 -138.5v-268h-110v268q0 41 -24 67t-63 26q-59 0 -93 -37v-324h-110v750zM282 939l139 -139l-55 -55l-84 84l-83 -84l-55 55z" />
    <glyph glyph-name="Hbar" unicode="&#x126;" horiz-adv-x="700" 
d="M87 0v504h-53v85h53v111h114v-111h289v111h115v-111h61v-85h-61v-504h-115v304h-289v-304h-114zM201 398h289v106h-289v-106z" />
    <glyph glyph-name="hbar" unicode="&#x127;" horiz-adv-x="542" 
d="M30 564v86h53v100h110v-100h155v-86h-155v-146q52 41 121 41q77 0 123 -52.5t46 -138.5v-268h-110v268q0 41 -24 67t-63 26q-59 0 -93 -37v-324h-110v564h-53z" />
    <glyph glyph-name="Itilde" unicode="&#x128;" horiz-adv-x="230" 
d="M58 0v700h114v-700h-114zM24 755h-58q0 44 26.5 71.5t68.5 27.5q33 0 62 -22.5t46 -22.5t27.5 11.5t10.5 29.5h59q0 -45 -27.5 -72.5t-69.5 -27.5q-33 0 -61.5 22.5t-45.5 22.5t-27.5 -11t-10.5 -29z" />
    <glyph glyph-name="itilde" unicode="&#x129;" 
d="M22 527h-59q0 44 27 71.5t69 27.5q33 0 62 -22.5t46 -22.5q16 0 27 11.5t11 28.5h58q0 -44 -27 -71.5t-69 -27.5q-33 0 -61.5 22.5t-45.5 22.5t-27.5 -11t-10.5 -29zM58 0v450h110v-450h-110z" />
    <glyph glyph-name="Imacron" unicode="&#x12a;" horiz-adv-x="230" 
d="M58 0v700h114v-700h-114zM-15 759v66h261v-66h-261z" />
    <glyph glyph-name="imacron" unicode="&#x12b;" 
d="M-17 531v65h261v-65h-261zM58 0v450h110v-450h-110z" />
    <glyph glyph-name="Ibreve" unicode="&#x12c;" horiz-adv-x="230" 
d="M58 0v700h114v-700h-114zM116 820q62 0 97 38l55 -54q-59 -64 -152 -64q-90 0 -152 65l54 54q37 -39 98 -39z" />
    <glyph glyph-name="ibreve" unicode="&#x12d;" 
d="M113 592q62 0 98 38l54 -54q-59 -64 -152 -64q-90 0 -152 64l55 55q36 -39 97 -39zM58 0v450h110v-450h-110z" />
    <glyph glyph-name="Iogonek" unicode="&#x12e;" horiz-adv-x="230" 
d="M101 -35q0 -23 13.5 -37t35.5 -14t37 13l36 -36q-28 -28 -72 -28q-45 0 -73 28.5t-28 73.5q0 20 8 35v700h114v-700h-62q-9 -16 -9 -35z" />
    <glyph glyph-name="iogonek" unicode="&#x12f;" 
d="M58 0v450h110v-450h-110zM47 585q0 28 19 47t47 19t47 -19t19 -47t-19 -47t-47 -19t-47 19t-19 47zM101 -35q0 -23 13.5 -37t35.5 -14t37 13l36 -36q-28 -28 -72 -28q-45 0 -73 28.5t-28 73.5q0 20 8 35h52q-9 -16 -9 -35z" />
    <glyph glyph-name="Idotaccent" unicode="&#x130;" horiz-adv-x="230" 
d="M58 0v700h114v-700h-114zM49 813q0 28 19 47t47 19t47 -19t19 -47t-19 -47t-47 -19t-47 19t-19 47z" />
    <glyph glyph-name="dotlessi" unicode="&#x131;" 
d="M58 0v450h110v-450h-110z" />
    <glyph glyph-name="IJ" unicode="&#x132;" horiz-adv-x="494" 
d="M59 250v450h114v-450h-114zM322 196v504h114v-504q0 -91 -58 -148t-149 -57q-92 0 -151 57l73 73q28 -28 73 -28q44 0 71 28.5t27 74.5z" />
    <glyph glyph-name="ij" unicode="&#x133;" horiz-adv-x="453" 
d="M58 0v450h110v-450h-110zM47 585q0 28 19 47t47 19t47 -19t19 -47t-19 -47t-47 -19t-47 19t-19 47zM274 585q0 28 19 47t47 19t47 -19t19 -47t-19 -47t-47 -19t-47 19t-19 47zM238 -250v72q21 0 33.5 12.5t12.5 34.5v581h111v-584q0 -55 -30 -88t-85 -33q-31 0 -42 5z
" />
    <glyph glyph-name="Jcircumflex" unicode="&#x134;" horiz-adv-x="450" 
d="M278 196v504h114v-504q0 -91 -58 -148t-150 -57q-91 0 -150 57l73 73q28 -28 72 -28t71.5 28.5t27.5 74.5zM335 922l138 -139l-55 -55l-83 84l-84 -84l-55 55z" />
    <glyph glyph-name="jcircumflex" unicode="&#x135;" 
d="M11 -250v72q21 0 34 12.5t13 34.5v581h110v-584q0 -55 -30 -88t-84 -33q-31 0 -43 5zM113 694l139 -139l-55 -55l-84 84l-84 -84l-55 55z" />
    <glyph glyph-name="Kcommaaccent" unicode="&#x136;" horiz-adv-x="617" 
d="M453 0l-281 353v-353h-114v700h114v-334l260 334h144l-265 -340l289 -360h-147zM282 -245l-28 28q35 37 44 69q-19 3 -31 17.5t-12 34.5q0 22 15.5 37.5t38.5 15.5q22 0 38 -14.5t16 -45.5q0 -63 -81 -142z" />
    <glyph glyph-name="kcommaaccent" unicode="&#x137;" horiz-adv-x="482" 
d="M168 0h-110v750h110v-484l147 184h130l-172 -210l191 -240h-129l-167 213v-213zM215 -245l-29 28q37 38 44 69q-18 3 -30 18t-12 34q0 23 15.5 38t38.5 15q21 0 37 -14.5t16 -45.5q0 -62 -80 -142z" />
    <glyph glyph-name="Lacute" unicode="&#x139;" horiz-adv-x="462" 
d="M173 700v-606h255v-94h-369v700h114zM134 783l139 139l55 -55l-139 -139z" />
    <glyph glyph-name="lacute" unicode="&#x13a;" horiz-adv-x="255" 
d="M219 72v-72q-11 -5 -46 -5q-55 0 -85 33t-30 88v634h110v-631q0 -22 14 -34.5t37 -12.5zM31 822l139 138l55 -55l-139 -138z" />
    <glyph glyph-name="Lcommaaccent" unicode="&#x13b;" horiz-adv-x="462" 
d="M173 700v-606h255v-94h-369v700h114zM217 -245l-29 28q37 38 44 69q-18 3 -30 18t-12 34q0 23 15.5 38t38.5 15q21 0 37 -14.5t16 -45.5q0 -62 -80 -142z" />
    <glyph glyph-name="lcommaaccent" unicode="&#x13c;" horiz-adv-x="255" 
d="M219 72v-72q-11 -5 -46 -5q-55 0 -85 33t-30 88v634h110v-631q0 -22 14 -34.5t37 -12.5zM112 -245l-29 28q37 38 44 69q-18 3 -30 18t-12 34q0 23 15.5 38t38.5 15q21 0 37 -14.5t16 -45.5q0 -62 -80 -142z" />
    <glyph glyph-name="Lcaron" unicode="&#x13d;" horiz-adv-x="462" 
d="M173 700v-606h255v-94h-369v700h114zM117 728l-139 139l55 55l84 -84l83 84l55 -55z" />
    <glyph glyph-name="lcaron" unicode="&#x13e;" horiz-adv-x="403" 
d="M219 72v-72q-11 -5 -46 -5q-55 0 -85 33t-30 88v634h110v-631q0 -22 14 -34.5t37 -12.5zM287 511l-35 36q41 41 54 82q-23 5 -37.5 22.5t-14.5 41.5q0 28 19 47t47 19q26 0 46 -17.5t20 -56.5q0 -75 -99 -174z" />
    <glyph glyph-name="Ldot" unicode="&#x13f;" horiz-adv-x="462" 
d="M173 700v-606h255v-94h-369v700h114zM284 325q0 28 19 47t47 19t47 -19t19 -47t-19 -47t-47 -19t-47 19t-19 47z" />
    <glyph glyph-name="ldot" unicode="&#x140;" horiz-adv-x="399" 
d="M219 72v-72q-11 -5 -46 -5q-55 0 -85 33t-30 88v634h110v-631q0 -22 14 -34.5t37 -12.5zM247 325q0 28 19 47t47 19t47 -19t19 -47t-19 -47t-47 -19t-47 19t-19 47z" />
    <glyph glyph-name="Lslash" unicode="&#x141;" horiz-adv-x="510" 
d="M4 220l103 104v376h115v-287l78 78l55 -55l-133 -133v-209h255v-94h-370v214l-48 -49z" />
    <glyph glyph-name="lslash" unicode="&#x142;" horiz-adv-x="329" 
d="M264 72v-72q-11 -5 -46 -5q-55 0 -85 33t-30 88v137l-45 -46l-55 55l100 101v387h110v-302l55 54l55 -55l-110 -109v-219q0 -22 14 -34.5t37 -12.5z" />
    <glyph glyph-name="Nacute" unicode="&#x143;" horiz-adv-x="708" 
d="M59 700h73l402 -481v481h115v-700h-74l-402 481v-481h-114v700zM277 783l138 139l55 -55l-138 -139z" />
    <glyph glyph-name="nacute" unicode="&#x144;" horiz-adv-x="516" 
d="M58 450h110v-33q51 42 122 42q77 0 122.5 -52.5t45.5 -138.5v-268h-110v268q0 41 -24 67t-63 26q-59 0 -93 -37v-324h-110v450zM181 555l139 139l55 -55l-139 -139z" />
    <glyph glyph-name="Ncommaaccent" unicode="&#x145;" horiz-adv-x="708" 
d="M59 700h73l402 -481v481h115v-700h-74l-402 481v-481h-114v700zM327 -245l-28 28q35 37 44 69q-19 3 -30.5 17.5t-11.5 34.5q0 23 15.5 38t38.5 15q21 0 37 -14.5t16 -45.5q0 -63 -81 -142z" />
    <glyph glyph-name="ncommaaccent" unicode="&#x146;" horiz-adv-x="516" 
d="M58 450h110v-33q51 42 122 42q77 0 122.5 -52.5t45.5 -138.5v-268h-110v268q0 41 -24 67t-63 26q-59 0 -93 -37v-324h-110v450zM231 -245l-28 28q35 37 44 69q-19 3 -31 17.5t-12 34.5q0 22 15.5 37.5t38.5 15.5q22 0 38 -14.5t16 -45.5q0 -63 -81 -142z" />
    <glyph glyph-name="Ncaron" unicode="&#x147;" horiz-adv-x="708" 
d="M59 700h73l402 -481v481h115v-700h-74l-402 481v-481h-114v700zM353 728l-138 139l55 55l83 -84l84 84l55 -55z" />
    <glyph glyph-name="ncaron" unicode="&#x148;" horiz-adv-x="516" 
d="M58 450h110v-33q51 42 122 42q77 0 122.5 -52.5t45.5 -138.5v-268h-110v268q0 41 -24 67t-63 26q-59 0 -93 -37v-324h-110v450zM258 500l-139 139l55 55l84 -84l84 84l55 -55z" />
    <glyph glyph-name="Eng" unicode="&#x14a;" horiz-adv-x="708" 
d="M488 -250v72q21 0 33.5 12.5t12.5 34.5v178l-361 434v-481h-114v700h73l402 -481v481h115v-834q0 -55 -31.5 -88t-87.5 -33q-31 0 -42 5z" />
    <glyph glyph-name="eng" unicode="&#x14b;" horiz-adv-x="516" 
d="M301 -250v72q21 0 34 12.5t13 34.5v399q0 41 -24 67t-63 26q-59 0 -93 -37v-324h-110v450h110v-33q51 42 122 42q77 0 122.5 -52.5t45.5 -138.5v-402q0 -55 -30 -88t-85 -33q-29 0 -42 5z" />
    <glyph glyph-name="Omacron" unicode="&#x14c;" horiz-adv-x="802" 
d="M44 350q0 160 98.5 259.5t258.5 99.5t258.5 -99.5t98.5 -259.5t-98.5 -259.5t-258.5 -99.5t-258.5 99.5t-98.5 259.5zM162 350q0 -114 66.5 -185.5t172.5 -71.5t172.5 71.5t66.5 185.5t-66.5 185.5t-172.5 71.5t-172.5 -71.5t-66.5 -185.5zM270 759v66h261v-66h-261z" />
    <glyph glyph-name="omacron" unicode="&#x14d;" horiz-adv-x="552" 
d="M39 225q0 104 65.5 169t171.5 65t171.5 -65t65.5 -169t-65.5 -169t-171.5 -65t-171.5 65t-65.5 169zM153 225q0 -61 34 -98.5t89 -37.5t89 37.5t34 98.5t-34 98.5t-89 37.5t-89 -37.5t-34 -98.5zM145 531v65h261v-65h-261z" />
    <glyph glyph-name="Obreve" unicode="&#x14e;" horiz-adv-x="802" 
d="M44 350q0 160 98.5 259.5t258.5 99.5t258.5 -99.5t98.5 -259.5t-98.5 -259.5t-258.5 -99.5t-258.5 99.5t-98.5 259.5zM162 350q0 -114 66.5 -185.5t172.5 -71.5t172.5 71.5t66.5 185.5t-66.5 185.5t-172.5 71.5t-172.5 -71.5t-66.5 -185.5zM401 820q62 0 97 38l55 -54
q-59 -64 -152 -64q-90 0 -152 65l54 54q37 -39 98 -39z" />
    <glyph glyph-name="obreve" unicode="&#x14f;" horiz-adv-x="552" 
d="M39 225q0 104 65.5 169t171.5 65t171.5 -65t65.5 -169t-65.5 -169t-171.5 -65t-171.5 65t-65.5 169zM153 225q0 -61 34 -98.5t89 -37.5t89 37.5t34 98.5t-34 98.5t-89 37.5t-89 -37.5t-34 -98.5zM276 592q62 0 97 38l55 -54q-59 -64 -152 -64q-90 0 -152 64l54 55
q37 -39 98 -39z" />
    <glyph glyph-name="Ohungarumlaut" unicode="&#x150;" horiz-adv-x="802" 
d="M44 350q0 160 98.5 259.5t258.5 99.5t258.5 -99.5t98.5 -259.5t-98.5 -259.5t-258.5 -99.5t-258.5 99.5t-98.5 259.5zM162 350q0 -114 66.5 -185.5t172.5 -71.5t172.5 71.5t66.5 185.5t-66.5 185.5t-172.5 71.5t-172.5 -71.5t-66.5 -185.5zM243 783l138 139l55 -55
l-138 -139zM405 783l139 139l55 -55l-139 -139z" />
    <glyph glyph-name="ohungarumlaut" unicode="&#x151;" horiz-adv-x="552" 
d="M39 225q0 104 65.5 169t171.5 65t171.5 -65t65.5 -169t-65.5 -169t-171.5 -65t-171.5 65t-65.5 169zM153 225q0 -61 34 -98.5t89 -37.5t89 37.5t34 98.5t-34 98.5t-89 37.5t-89 -37.5t-34 -98.5zM118 555l138 139l55 -55l-138 -139zM280 555l139 139l55 -55l-139 -139z
" />
    <glyph glyph-name="OE" unicode="&#x152;" horiz-adv-x="889" 
d="M602 606v-208h216v-94h-216v-210h252v-94h-364q-50 -9 -89 -9q-160 0 -258.5 99.5t-98.5 259.5t98.5 259.5t258.5 99.5q38 0 88 -9h360v-94h-247zM401 93q48 0 87 16v482q-43 16 -87 16q-106 0 -172.5 -71.5t-66.5 -185.5t66.5 -185.5t172.5 -71.5z" />
    <glyph glyph-name="oe" unicode="&#x153;" horiz-adv-x="818" 
d="M783 192h-313q8 -48 41 -75.5t87 -27.5q63 0 99 38l65 -68q-66 -68 -172 -68q-95 0 -157 53q-62 -53 -157 -53q-106 0 -171.5 65t-65.5 169t65.5 169t171.5 65q89 0 153 -51q59 51 144 51q101 0 155.5 -70.5t54.5 -196.5zM276 89q60 0 93 43q-16 41 -16 96q0 49 15 91
q-34 42 -92 42q-55 0 -89 -37.5t-34 -98.5t34 -98.5t89 -37.5zM576 364q-42 0 -70 -26t-36 -70h203q-15 96 -97 96z" />
    <glyph glyph-name="Racute" unicode="&#x154;" horiz-adv-x="547" 
d="M398 0l-149 290h-72v-290h-118v700h215q99 0 159.5 -56t60.5 -149q0 -70 -35.5 -120.5t-97.5 -71.5l167 -303h-130zM376 495q0 48 -28 77.5t-74 29.5h-97v-214h97q46 0 74 29.5t28 77.5zM188 783l139 139l55 -55l-139 -139z" />
    <glyph glyph-name="racute" unicode="&#x155;" horiz-adv-x="348" 
d="M277 457q8 0 28 -2v-96q-14 5 -36 5q-64 0 -101 -57v-307h-110v450h110v-46q50 53 109 53zM109 555l139 139l55 -55l-139 -139z" />
    <glyph glyph-name="Rcommaaccent" unicode="&#x156;" horiz-adv-x="547" 
d="M398 0l-149 290h-72v-290h-118v700h215q99 0 159.5 -56t60.5 -149q0 -70 -35.5 -120.5t-97.5 -71.5l167 -303h-130zM376 495q0 48 -28 77.5t-74 29.5h-97v-214h97q46 0 74 29.5t28 77.5zM247 -245l-28 28q35 37 44 69q-19 3 -30.5 17.5t-11.5 34.5q0 22 15.5 37.5
t37.5 15.5t38 -14.5t16 -45.5q0 -63 -81 -142z" />
    <glyph glyph-name="rcommaaccent" unicode="&#x157;" horiz-adv-x="348" 
d="M277 457q8 0 28 -2v-96q-14 5 -36 5q-64 0 -101 -57v-307h-110v450h110v-46q50 53 109 53zM86 -245l-28 28q35 37 44 69q-19 3 -31 17.5t-12 34.5q0 22 15.5 37.5t38.5 15.5q22 0 38 -14.5t16 -45.5q0 -63 -81 -142z" />
    <glyph glyph-name="Rcaron" unicode="&#x158;" horiz-adv-x="547" 
d="M398 0l-149 290h-72v-290h-118v700h215q99 0 159.5 -56t60.5 -149q0 -70 -35.5 -120.5t-97.5 -71.5l167 -303h-130zM376 495q0 48 -28 77.5t-74 29.5h-97v-214h97q46 0 74 29.5t28 77.5zM265 728l-139 139l55 55l84 -84l84 84l55 -55z" />
    <glyph glyph-name="rcaron" unicode="&#x159;" horiz-adv-x="348" 
d="M277 457q8 0 28 -2v-96q-14 5 -36 5q-64 0 -101 -57v-307h-110v450h110v-46q50 53 109 53zM186 500l-139 139l55 55l84 -84l84 84l55 -55z" />
    <glyph glyph-name="Sacute" unicode="&#x15a;" horiz-adv-x="550" 
d="M481 618l-71 -70q-24 25 -61.5 42t-73.5 17q-49 0 -75 -29.5t-26 -65.5q0 -37 33.5 -62.5t81 -42.5t95 -38.5t81 -64t33.5 -105.5q0 -88 -60 -148t-166 -60q-136 0 -235 102l70 70q68 -70 154 -70q57 0 87.5 32.5t30.5 71.5q0 36 -33.5 60t-80.5 40.5t-94.5 38t-81 65
t-33.5 108.5q0 85 54 142.5t152 57.5q130 0 219 -91zM187 783l139 139l55 -55l-139 -139z" />
    <glyph glyph-name="sacute" unicode="&#x15b;" horiz-adv-x="387" 
d="M342 400l-67 -67q-32 34 -72 34q-23 0 -34 -13.5t-11 -30.5q0 -20 20 -34t48 -25t56.5 -24.5t48.5 -40t20 -65.5q0 -60 -43 -101.5t-117 -41.5q-95 0 -159 66l67 68q38 -43 84 -43q28 0 43 16t15 35t-20 32t-48.5 23.5t-57 24t-48.5 41t-20 67.5q0 58 39 98t108 40
q91 0 148 -59zM114 555l138 139l55 -55l-138 -139z" />
    <glyph glyph-name="Scircumflex" unicode="&#x15c;" horiz-adv-x="550" 
d="M481 618l-71 -70q-24 25 -61.5 42t-73.5 17q-49 0 -75 -29.5t-26 -65.5q0 -37 33.5 -62.5t81 -42.5t95 -38.5t81 -64t33.5 -105.5q0 -88 -60 -148t-166 -60q-136 0 -235 102l70 70q68 -70 154 -70q57 0 87.5 32.5t30.5 71.5q0 36 -33.5 60t-80.5 40.5t-94.5 38t-81 65
t-33.5 108.5q0 85 54 142.5t152 57.5q130 0 219 -91zM264 922l139 -139l-55 -55l-84 84l-84 -84l-55 55z" />
    <glyph glyph-name="scircumflex" unicode="&#x15d;" horiz-adv-x="387" 
d="M342 400l-67 -67q-32 34 -72 34q-23 0 -34 -13.5t-11 -30.5q0 -20 20 -34t48 -25t56.5 -24.5t48.5 -40t20 -65.5q0 -60 -43 -101.5t-117 -41.5q-95 0 -159 66l67 68q38 -43 84 -43q28 0 43 16t15 35t-20 32t-48.5 23.5t-57 24t-48.5 41t-20 67.5q0 58 39 98t108 40
q91 0 148 -59zM191 694l138 -139l-55 -55l-83 84l-84 -84l-55 55z" />
    <glyph glyph-name="Scedilla" unicode="&#x15e;" horiz-adv-x="550" 
d="M481 618l-71 -70q-24 25 -61.5 42t-73.5 17q-49 0 -75 -29.5t-26 -65.5q0 -37 33.5 -62.5t81 -42.5t95 -38.5t81 -64t33.5 -105.5q0 -84 -54 -142.5t-150 -64.5v-46q68 -15 68 -82q0 -38 -25 -61.5t-65 -23.5q-41 0 -65 26l33 33q13 -13 32 -13t31 11t12 30q0 44 -65 44
v82q-123 7 -213 101l70 70q68 -70 154 -70q57 0 87.5 32.5t30.5 71.5q0 36 -33.5 60t-80.5 40.5t-94.5 38t-81 65t-33.5 108.5q0 85 54 142.5t152 57.5q130 0 219 -91z" />
    <glyph glyph-name="scedilla" unicode="&#x15f;" horiz-adv-x="387" 
d="M342 400l-67 -67q-32 34 -72 34q-23 0 -34 -13.5t-11 -30.5q0 -20 20 -34t48 -25t56.5 -24.5t48.5 -40t20 -65.5q0 -56 -37.5 -96t-102.5 -46v-46q67 -15 67 -82q0 -38 -24.5 -61.5t-64.5 -23.5q-41 0 -65 26l33 33q13 -13 32 -13t31 11t12 30q0 44 -65 44v82
q-81 9 -135 65l67 68q38 -43 84 -43q28 0 43 16t15 35t-20 32t-48.5 23.5t-57 24t-48.5 41t-20 67.5q0 58 39 98t108 40q91 0 148 -59z" />
    <glyph glyph-name="Scaron" unicode="&#x160;" horiz-adv-x="550" 
d="M481 618l-71 -70q-24 25 -61.5 42t-73.5 17q-49 0 -75 -29.5t-26 -65.5q0 -37 33.5 -62.5t81 -42.5t95 -38.5t81 -64t33.5 -105.5q0 -88 -60 -148t-166 -60q-136 0 -235 102l70 70q68 -70 154 -70q57 0 87.5 32.5t30.5 71.5q0 36 -33.5 60t-80.5 40.5t-94.5 38t-81 65
t-33.5 108.5q0 85 54 142.5t152 57.5q130 0 219 -91zM264 728l-139 139l55 55l84 -84l84 84l55 -55z" />
    <glyph glyph-name="scaron" unicode="&#x161;" horiz-adv-x="387" 
d="M342 400l-67 -67q-32 34 -72 34q-23 0 -34 -13.5t-11 -30.5q0 -20 20 -34t48 -25t56.5 -24.5t48.5 -40t20 -65.5q0 -60 -43 -101.5t-117 -41.5q-95 0 -159 66l67 68q38 -43 84 -43q28 0 43 16t15 35t-20 32t-48.5 23.5t-57 24t-48.5 41t-20 67.5q0 58 39 98t108 40
q91 0 148 -59zM191 500l-139 139l55 55l84 -84l83 84l55 -55z" />
    <glyph glyph-name="Tcommaaccent" unicode="&#x162;" horiz-adv-x="556" 
d="M335 606v-606h-114v606h-187v94h488v-94h-187zM252 -245l-28 28q35 37 44 69q-19 3 -31 17.5t-12 34.5q0 22 15.5 37.5t38.5 15.5q22 0 38 -14.5t16 -45.5q0 -63 -81 -142z" />
    <glyph glyph-name="tcommaaccent" unicode="&#x163;" horiz-adv-x="333" 
d="M30 364v86h53v100h114v-100h101v-86h-101v-208q0 -32 18 -52t49 -20q21 0 34 8v-91q-21 -10 -55 -10q-74 0 -117 44.5t-43 120.5v208h-53zM159 -245l-29 28q37 38 44 69q-18 3 -30 18t-12 34q0 23 15.5 38t38.5 15q21 0 37 -14.5t16 -45.5q0 -62 -80 -142z" />
    <glyph glyph-name="Tcaron" unicode="&#x164;" horiz-adv-x="556" 
d="M335 606v-606h-114v606h-187v94h488v-94h-187zM278 728l-139 139l55 55l84 -84l84 84l55 -55z" />
    <glyph glyph-name="tcaron" unicode="&#x165;" horiz-adv-x="398" 
d="M30 364v86h53v100h114v-100h101v-86h-101v-208q0 -32 18 -52t49 -20q21 0 34 8v-91q-21 -10 -55 -10q-74 0 -117 44.5t-43 120.5v208h-53zM292 502l-35 36q42 44 54 82q-23 5 -37.5 22.5t-14.5 41.5q0 28 19 47t47 19q26 0 46 -17.5t20 -56.5q0 -75 -99 -174z" />
    <glyph glyph-name="Tbar" unicode="&#x166;" horiz-adv-x="556" 
d="M85 327v86h136v193h-187v94h488v-94h-187v-193h135v-86h-135v-327h-114v327h-136z" />
    <glyph glyph-name="tbar" unicode="&#x167;" horiz-adv-x="333" 
d="M30 218v82h53v64h-53v86h53v100h114v-100h101v-86h-101v-64h101v-82h-101v-62q0 -32 18 -52t49 -20q21 0 34 8v-91q-21 -10 -55 -10q-74 0 -117 44.5t-43 120.5v62h-53z" />
    <glyph glyph-name="Utilde" unicode="&#x168;" horiz-adv-x="657" 
d="M484 258v442h114v-442q0 -119 -75 -193t-196 -74t-194.5 73.5t-73.5 193.5v442h114v-442q0 -73 43 -119t111 -46q70 0 113.5 46t43.5 119zM237 755h-59q0 44 27 71.5t68 27.5q33 0 62.5 -22.5t46.5 -22.5q16 0 26.5 11.5t10.5 29.5h59q0 -45 -27 -72.5t-69 -27.5
q-33 0 -61.5 22.5t-46.5 22.5q-16 0 -26.5 -11t-10.5 -29z" />
    <glyph glyph-name="utilde" unicode="&#x169;" horiz-adv-x="523" 
d="M465 450v-259q0 -89 -56.5 -144.5t-147.5 -55.5q-90 0 -146.5 55.5t-56.5 144.5v259h114v-259q0 -45 25.5 -73.5t66.5 -28.5t66.5 28.5t25.5 73.5v259h109zM170 527h-59q0 44 27 71.5t68 27.5q33 0 62.5 -22.5t46.5 -22.5q16 0 26.5 11.5t10.5 28.5h59q0 -44 -27 -71.5
t-69 -27.5q-33 0 -61.5 22.5t-46.5 22.5q-16 0 -26.5 -11t-10.5 -29z" />
    <glyph glyph-name="Umacron" unicode="&#x16a;" horiz-adv-x="657" 
d="M484 258v442h114v-442q0 -119 -75 -193t-196 -74t-194.5 73.5t-73.5 193.5v442h114v-442q0 -73 43 -119t111 -46q70 0 113.5 46t43.5 119zM198 759v66h261v-66h-261z" />
    <glyph glyph-name="umacron" unicode="&#x16b;" horiz-adv-x="523" 
d="M465 450v-259q0 -89 -56.5 -144.5t-147.5 -55.5q-90 0 -146.5 55.5t-56.5 144.5v259h114v-259q0 -45 25.5 -73.5t66.5 -28.5t66.5 28.5t25.5 73.5v259h109zM131 531v65h261v-65h-261z" />
    <glyph glyph-name="Ubreve" unicode="&#x16c;" horiz-adv-x="657" 
d="M484 258v442h114v-442q0 -119 -75 -193t-196 -74t-194.5 73.5t-73.5 193.5v442h114v-442q0 -73 43 -119t111 -46q70 0 113.5 46t43.5 119zM328 820q62 0 98 38l54 -54q-59 -64 -152 -64q-90 0 -152 65l55 54q36 -39 97 -39z" />
    <glyph glyph-name="ubreve" unicode="&#x16d;" horiz-adv-x="523" 
d="M465 450v-259q0 -89 -56.5 -144.5t-147.5 -55.5q-90 0 -146.5 55.5t-56.5 144.5v259h114v-259q0 -45 25.5 -73.5t66.5 -28.5t66.5 28.5t25.5 73.5v259h109zM261 592q62 0 98 38l54 -54q-59 -64 -152 -64q-90 0 -152 64l55 55q36 -39 97 -39z" />
    <glyph glyph-name="Uring" unicode="&#x16e;" horiz-adv-x="657" 
d="M484 258v442h114v-442q0 -119 -75 -193t-196 -74t-194.5 73.5t-73.5 193.5v442h114v-442q0 -73 43 -119t111 -46q70 0 113.5 46t43.5 119zM237 814q0 42 25 67.5t66 25.5t66.5 -25.5t25.5 -67.5t-25.5 -68t-66.5 -26t-66 26t-25 68zM283 813q0 -21 12.5 -33.5t32.5 -12.5
t33 12.5t13 33.5t-13 34t-33 13t-32.5 -13t-12.5 -34z" />
    <glyph glyph-name="uring" unicode="&#x16f;" horiz-adv-x="523" 
d="M465 450v-259q0 -89 -56.5 -144.5t-147.5 -55.5q-90 0 -146.5 55.5t-56.5 144.5v259h114v-259q0 -45 25.5 -73.5t66.5 -28.5t66.5 28.5t25.5 73.5v259h109zM170 585q0 42 25 68t66 26t66 -26t25 -68t-25 -67.5t-66 -25.5t-66 25.5t-25 67.5zM216 585q0 -21 12.5 -34
t32.5 -13t33 13t13 34t-13 34t-33 13t-32.5 -13t-12.5 -34z" />
    <glyph glyph-name="Uhungarumlaut" unicode="&#x170;" horiz-adv-x="657" 
d="M484 258v442h114v-442q0 -119 -75 -193t-196 -74t-194.5 73.5t-73.5 193.5v442h114v-442q0 -73 43 -119t111 -46q70 0 113.5 46t43.5 119zM170 783l139 139l55 -55l-139 -139zM333 783l139 139l55 -55l-139 -139z" />
    <glyph glyph-name="uhungarumlaut" unicode="&#x171;" horiz-adv-x="523" 
d="M465 450v-259q0 -89 -56.5 -144.5t-147.5 -55.5q-90 0 -146.5 55.5t-56.5 144.5v259h114v-259q0 -45 25.5 -73.5t66.5 -28.5t66.5 28.5t25.5 73.5v259h109zM103 555l139 139l55 -55l-139 -139zM266 555l138 139l55 -55l-138 -139z" />
    <glyph glyph-name="Uogonek" unicode="&#x172;" horiz-adv-x="657" 
d="M395 -35q0 -24 13.5 -37.5t35.5 -13.5q21 0 36 13l36 -36q-26 -28 -71 -28t-73 28t-28 74q0 13 3 27q-6 -1 -20 -1q-121 0 -194.5 73.5t-73.5 193.5v442h114v-442q0 -73 43 -119t111 -46q70 0 113.5 46t43.5 119v442h114v-442q0 -99 -53 -168t-143 -90q-7 -13 -7 -35z
" />
    <glyph glyph-name="uogonek" unicode="&#x173;" horiz-adv-x="523" 
d="M318 -35q0 -24 13.5 -37.5t35.5 -13.5q21 0 36 13l36 -36q-26 -28 -71 -28t-73 28t-28 74q0 14 3 26h-9q-90 0 -146.5 55.5t-56.5 144.5v259h114v-259q0 -45 25.5 -73.5t66.5 -28.5t66.5 28.5t25.5 73.5v259h109v-259q0 -72 -37.5 -123t-102.5 -68q-7 -13 -7 -35z" />
    <glyph glyph-name="Wcircumflex" unicode="&#x174;" horiz-adv-x="1106" 
d="M1089 700l-253 -700h-115l-169 500l-167 -500h-115l-254 700h134l177 -520l167 520h118l167 -520l177 520h133zM552 922l139 -139l-55 -55l-84 84l-83 -84l-55 55z" />
    <glyph glyph-name="wcircumflex" unicode="&#x175;" horiz-adv-x="788" 
d="M776 450l-171 -450h-115l-96 294l-96 -294h-115l-171 450h127l101 -315l99 315h110l99 -315l101 315h127zM394 694l139 -139l-55 -55l-84 84l-84 -84l-55 55z" />
    <glyph glyph-name="Ycircumflex" unicode="&#x176;" horiz-adv-x="679" 
d="M281 0v288l-265 412h132l191 -300l191 300h132l-266 -413v-287h-115zM339 922l139 -139l-55 -55l-84 84l-84 -84l-55 55z" />
    <glyph glyph-name="ycircumflex" unicode="&#x177;" horiz-adv-x="528" 
d="M516 450l-317 -700h-123l137 250l-201 450h123l130 -316l128 316h123zM264 694l139 -139l-55 -55l-84 84l-84 -84l-55 55z" />
    <glyph glyph-name="Ydieresis" unicode="&#x178;" horiz-adv-x="679" 
d="M281 0v288l-265 412h132l191 -300l191 300h132l-266 -413v-287h-115zM180 799q0 26 18 44t44 18t44 -18t18 -44t-18 -44t-44 -18t-44 18.5t-18 43.5zM373 799q0 26 18 44.5t44 18.5t44 -18.5t18 -44.5t-18 -44t-44 -18t-44 18t-18 44z" />
    <glyph glyph-name="Zacute" unicode="&#x179;" horiz-adv-x="626" 
d="M49 606v94h532v-32l-369 -574h370v-94h-538v33l369 573h-364zM236 783l139 139l55 -55l-139 -139z" />
    <glyph glyph-name="zacute" unicode="&#x17a;" horiz-adv-x="474" 
d="M48 364v86h382v-32l-222 -332h222v-86h-386v33l222 331h-218zM160 555l139 139l55 -55l-139 -139z" />
    <glyph glyph-name="Zdotaccent" unicode="&#x17b;" horiz-adv-x="626" 
d="M49 606v94h532v-32l-369 -574h370v-94h-538v33l369 573h-364zM247 813q0 28 19 47t47 19t47 -19t19 -47t-19 -47t-47 -19t-47 19t-19 47z" />
    <glyph glyph-name="zdotaccent" unicode="&#x17c;" horiz-adv-x="474" 
d="M48 364v86h382v-32l-222 -332h222v-86h-386v33l222 331h-218zM171 585q0 28 19 47t47 19t47 -19t19 -47t-19 -47t-47 -19t-47 19t-19 47z" />
    <glyph glyph-name="Zcaron" unicode="&#x17d;" horiz-adv-x="626" 
d="M49 606v94h532v-32l-369 -574h370v-94h-538v33l369 573h-364zM313 728l-139 139l55 55l84 -84l84 84l55 -55z" />
    <glyph glyph-name="zcaron" unicode="&#x17e;" horiz-adv-x="474" 
d="M48 364v86h382v-32l-222 -332h222v-86h-386v33l222 331h-218zM237 500l-139 139l55 55l84 -84l84 84l55 -55z" />
    <glyph glyph-name="longs" unicode="&#x17f;" horiz-adv-x="307" 
d="M58 0v589q0 78 45.5 124t123.5 46q34 0 55 -10v-91q-13 8 -34 8q-34 0 -55 -21t-21 -56v-589h-114z" />
    <glyph glyph-name="uni018F" unicode="&#x18f;" horiz-adv-x="735" 
d="M692 350q0 -160 -89.5 -259.5t-234.5 -99.5t-234.5 99.5t-89.5 259.5v43h526q-13 97 -78.5 155.5t-162.5 58.5q-113 0 -181 -70l-72 72q98 100 258 100t259 -99.5t99 -259.5zM368 93q80 0 134.5 56.5t65.5 149.5h-401q11 -93 65.5 -149.5t135.5 -56.5z" />
    <glyph glyph-name="florin" unicode="&#x192;" horiz-adv-x="338" 
d="M42 -250v72q21 0 34 12.5t13 34.5v495h-58v86h58v139q0 78 45 124t123 46q35 0 56 -10v-91q-13 8 -34 8q-35 0 -55.5 -21t-20.5 -56v-139h110v-86h-110v-498q0 -55 -31.5 -88t-87.5 -33q-31 0 -42 5z" />
    <glyph glyph-name="uni01DD" unicode="&#x1dd;" horiz-adv-x="504" 
d="M39 258h312q-8 47 -41 75t-86 28q-64 0 -99 -38l-65 68q66 68 172 68t171.5 -65t65.5 -172q0 -103 -61 -167t-160 -64q-101 0 -155 70.5t-54 196.5zM246 86q42 0 70 26t35 70h-202q15 -96 97 -96z" />
    <glyph glyph-name="Aringacute" unicode="&#x1fa;" horiz-adv-x="762" 
d="M325 883l139 138l55 -55l-108 -107q61 -18 61 -88q0 -52 -36 -77l309 -694h-132l-74 168h-318l-72 -168h-133l309 695q-35 25 -35 76q0 68 59 88zM381 552l-119 -282h236zM336 770q0 -20 12.5 -33t32.5 -13t33 13t13 33q0 21 -13 34t-33 13t-32.5 -13t-12.5 -34z" />
    <glyph glyph-name="aringacute" unicode="&#x1fb;" horiz-adv-x="461" 
d="M420 72v-72q-10 -5 -38 -5q-64 0 -91 50q-52 -54 -124 -54q-61 0 -96 38t-35 91q0 71 61.5 110.5t151.5 39.5q18 0 30 -2v33q0 26 -19.5 47t-54.5 21q-24 0 -49 -9.5t-39 -24.5l-59 59q67 65 157 65q80 0 127.5 -45.5t47.5 -112.5v-195q0 -16 8 -25t22 -9zM159 683
l139 139l55 -55l-108 -108q29 -8 45.5 -32t16.5 -57q0 -42 -25 -67.5t-66 -25.5t-66 25.5t-25 67.5q0 68 59 88zM204 81q48 0 75 33v81q-10 3 -24 3q-46 0 -77 -18t-31 -48q0 -20 14 -35.5t43 -15.5zM171 569q0 -20 12.5 -33t32.5 -13t33 13t13 33q0 21 -13 34t-33 13
t-32.5 -13t-12.5 -34z" />
    <glyph glyph-name="AEacute" unicode="&#x1fc;" horiz-adv-x="779" 
d="M495 606v-208h213v-94h-213v-210h249v-94h-363v168h-160l-72 -168h-133l311 700h412v-94h-244zM262 270h119v284zM340 783l139 139l55 -55l-139 -139z" />
    <glyph glyph-name="aeacute" unicode="&#x1fd;" horiz-adv-x="708" 
d="M279 268v33q0 26 -19.5 47t-54.5 21q-24 0 -49 -9.5t-39 -24.5l-59 59q67 65 157 65q72 0 117 -40q55 40 131 40q101 0 155.5 -70.5t54.5 -196.5h-283v-64q33 -39 98 -39q64 0 99 38l65 -68q-66 -68 -172 -68q-114 0 -177 69q-53 -69 -136 -69q-61 0 -96 38t-35 91
q0 71 61.5 110.5t151.5 39.5q18 0 30 -2zM390 301v-33h173q-15 96 -97 96q-50 0 -79 -35q3 -27 3 -28zM279 116v79q-10 3 -24 3q-46 0 -77 -18t-31 -48q0 -20 14 -35.5t43 -15.5q46 0 75 35zM293 555l139 139l55 -55l-139 -139z" />
    <glyph glyph-name="Oslashacute" unicode="&#x1fe;" horiz-adv-x="802" 
d="M38 -9l94 111q-88 97 -88 248q0 160 98.5 259.5t258.5 99.5q112 0 201 -54l46 54h116l-95 -111q89 -100 89 -248q0 -160 -98.5 -259.5t-258.5 -99.5q-116 0 -202 54l-46 -54h-115zM640 350q0 92 -46 159l-324 -380q56 -36 131 -36q106 0 172.5 71.5t66.5 185.5zM162 350
q0 -94 45 -159l324 380q-58 36 -130 36q-106 0 -172.5 -71.5t-66.5 -185.5zM324 783l139 139l55 -55l-139 -139z" />
    <glyph glyph-name="oslashacute" unicode="&#x1ff;" horiz-adv-x="552" 
d="M38 -9l57 74q-56 64 -56 160q0 104 65.5 169t171.5 65q58 0 105 -21l22 29h111l-61 -79q60 -65 60 -163q0 -104 -65.5 -169t-171.5 -65q-60 0 -110 22l-17 -22h-111zM407 225q0 43 -19 78l-163 -213q23 -9 51 -9q59 0 95 40t36 104zM145 225q0 -40 16 -74l161 210
q-22 8 -46 8q-59 0 -95 -40t-36 -104zM199 555l139 139l55 -55l-139 -139z" />
    <glyph glyph-name="Scommaaccent" unicode="&#x218;" horiz-adv-x="550" 
d="M481 618l-71 -70q-24 25 -61.5 42t-73.5 17q-49 0 -75 -29.5t-26 -65.5q0 -37 33.5 -62.5t81 -42.5t95 -38.5t81 -64t33.5 -105.5q0 -88 -60 -148t-166 -60q-136 0 -235 102l70 70q68 -70 154 -70q57 0 87.5 32.5t30.5 71.5q0 36 -33.5 60t-80.5 40.5t-94.5 38t-81 65
t-33.5 108.5q0 85 54 142.5t152 57.5q130 0 219 -91zM247 -245l-28 28q35 37 44 69q-19 3 -31 17.5t-12 34.5q0 22 15.5 37.5t38.5 15.5q22 0 38 -14.5t16 -45.5q0 -63 -81 -142z" />
    <glyph glyph-name="scommaaccent" unicode="&#x219;" horiz-adv-x="387" 
d="M342 400l-67 -67q-32 34 -72 34q-23 0 -34 -13.5t-11 -30.5q0 -20 20 -34t48 -25t56.5 -24.5t48.5 -40t20 -65.5q0 -60 -43 -101.5t-117 -41.5q-95 0 -159 66l67 68q38 -43 84 -43q28 0 43 16t15 35t-20 32t-48.5 23.5t-57 24t-48.5 41t-20 67.5q0 58 39 98t108 40
q91 0 148 -59zM165 -245l-29 28q37 38 44 69q-18 3 -30 18t-12 34q0 23 15.5 38t38.5 15q21 0 37 -14.5t16 -45.5q0 -62 -80 -142z" />
    <glyph glyph-name="uni021A" unicode="&#x21a;" horiz-adv-x="556" 
d="M335 606v-606h-114v606h-187v94h488v-94h-187zM252 -245l-28 28q35 37 44 69q-19 3 -31 17.5t-12 34.5q0 22 15.5 37.5t38.5 15.5q22 0 38 -14.5t16 -45.5q0 -63 -81 -142z" />
    <glyph glyph-name="uni021B" unicode="&#x21b;" horiz-adv-x="333" 
d="M30 364v86h53v100h114v-100h101v-86h-101v-208q0 -32 18 -52t49 -20q21 0 34 8v-91q-21 -10 -55 -10q-74 0 -117 44.5t-43 120.5v208h-53zM159 -245l-29 28q37 38 44 69q-18 3 -30 18t-12 34q0 23 15.5 38t38.5 15q21 0 37 -14.5t16 -45.5q0 -62 -80 -142z" />
    <glyph glyph-name="dotlessj" unicode="&#x237;" 
d="M11 -250v72q21 0 34 12.5t13 34.5v581h110v-584q0 -55 -30 -88t-84 -33q-31 0 -43 5z" />
    <glyph glyph-name="circumflex" unicode="&#x2c6;" horiz-adv-x="352" 
d="M176 694l139 -139l-55 -55l-84 84l-84 -84l-55 55z" />
    <glyph glyph-name="caron" unicode="&#x2c7;" horiz-adv-x="352" 
d="M176 500l-139 139l55 55l84 -84l84 84l55 -55z" />
    <glyph glyph-name="breve" unicode="&#x2d8;" horiz-adv-x="358" 
d="M179 592q62 0 97 38l55 -54q-59 -64 -152 -64q-90 0 -152 64l54 55q37 -39 98 -39z" />
    <glyph glyph-name="dotaccent" unicode="&#x2d9;" 
d="M47 585q0 28 19 47t47 19t47 -19t19 -47t-19 -47t-47 -19t-47 19t-19 47z" />
    <glyph glyph-name="ring" unicode="&#x2da;" horiz-adv-x="275" 
d="M47 585q0 42 25 68t66 26t66 -26t25 -68t-25 -67.5t-66 -25.5t-66 25.5t-25 67.5zM93 585q0 -21 12.5 -34t32.5 -13t33 13t13 34t-13 34t-33 13t-32.5 -13t-12.5 -34z" />
    <glyph glyph-name="ogonek" unicode="&#x2db;" horiz-adv-x="258" 
d="M94 -35q0 -24 13.5 -37.5t35.5 -13.5q23 0 36 13l36 -36q-26 -28 -71 -28t-73 28t-28 74q0 20 8 35h52q-9 -14 -9 -35z" />
    <glyph glyph-name="tilde" unicode="&#x2dc;" horiz-adv-x="347" 
d="M82 527h-58q0 44 26.5 71.5t68.5 27.5q33 0 62 -22.5t46 -22.5q16 0 27 11.5t11 28.5h58q0 -44 -27 -71.5t-69 -27.5q-33 0 -61.5 22.5t-45.5 22.5t-27.5 -11t-10.5 -29z" />
    <glyph glyph-name="hungarumlaut" unicode="&#x2dd;" horiz-adv-x="431" 
d="M37 555l139 139l55 -55l-139 -139zM200 555l139 139l55 -55l-139 -139z" />
    <glyph glyph-name="uni0400" unicode="&#x400;" horiz-adv-x="483" 
d="M173 606v-208h235v-94h-235v-210h271v-94h-385v700h380v-94h-266zM188 922l139 -139l-55 -55l-139 139z" />
    <glyph glyph-name="afii10023" unicode="&#x401;" horiz-adv-x="483" 
d="M173 606v-208h235v-94h-235v-210h271v-94h-385v700h380v-94h-266zM90 799q0 26 18 44t44 18t44 -18t18 -44t-18 -44t-44 -18t-44 18.5t-18 43.5zM283 799q0 26 18 44.5t44 18.5t44 -18.5t18 -44.5t-18 -44t-44 -18t-44 18t-18 44z" />
    <glyph glyph-name="afii10051" unicode="&#x402;" horiz-adv-x="684" 
d="M468 0v72q21 0 34 12.5t13 34.5v123q0 41 -24 67t-63 26q-59 0 -93 -37v-298h-114v606h-187v94h488v-94h-187v-215q53 42 123 42q78 0 124.5 -52.5t46.5 -138.5v-126q0 -55 -30.5 -88t-87.5 -33q-31 0 -43 5z" />
    <glyph glyph-name="afii10052" unicode="&#x403;" horiz-adv-x="462" 
d="M166 783l139 139l55 -55l-139 -139zM59 0v700h369v-94h-255v-606h-114z" />
    <glyph glyph-name="afii10053" unicode="&#x404;" horiz-adv-x="693" 
d="M407 607q-96 0 -161.5 -57.5t-79.5 -151.5h373v-94h-373q14 -96 79 -153.5t162 -57.5q112 0 180 70l73 -72q-100 -100 -259 -100q-160 0 -258.5 99.5t-98.5 259.5t98.5 259.5t258.5 99.5q159 0 259 -100l-73 -73q-68 71 -180 71z" />
    <glyph glyph-name="afii10054" unicode="&#x405;" horiz-adv-x="550" 
d="M481 618l-71 -70q-24 25 -61.5 42t-73.5 17q-49 0 -75 -29.5t-26 -65.5q0 -37 33.5 -62.5t81 -42.5t95 -38.5t81 -64t33.5 -105.5q0 -88 -60 -148t-166 -60q-136 0 -235 102l70 70q68 -70 154 -70q57 0 87.5 32.5t30.5 71.5q0 36 -33.5 60t-80.5 40.5t-94.5 38t-81 65
t-33.5 108.5q0 85 54 142.5t152 57.5q130 0 219 -91z" />
    <glyph glyph-name="afii10055" unicode="&#x406;" horiz-adv-x="230" 
d="M58 0v700h114v-700h-114z" />
    <glyph glyph-name="afii10056" unicode="&#x407;" horiz-adv-x="230" 
d="M58 0v700h114v-700h-114zM-31 799q0 26 18 44t44 18t44 -18t18 -44q0 -25 -18.5 -43.5t-43.5 -18.5q-26 0 -44 18t-18 44zM138 799q0 26 18 44.5t44 18.5t44 -18.5t18 -44.5t-18 -44t-44 -18t-44 18t-18 44z" />
    <glyph glyph-name="afii10057" unicode="&#x408;" horiz-adv-x="450" 
d="M278 196v504h114v-504q0 -91 -58 -148t-150 -57q-91 0 -150 57l73 73q28 -28 72 -28t71.5 28.5t27.5 74.5z" />
    <glyph glyph-name="afii10058" unicode="&#x409;" horiz-adv-x="946" 
d="M467 0v606h-203v-413q0 -90 -46.5 -144t-126.5 -54q-43 0 -60 5v72q52 0 83 31t31 86v511h440v-290h98q99 0 159.5 -56t60.5 -149t-60.5 -149t-159.5 -56h-216zM784 205q0 48 -28 77.5t-73 29.5h-98v-214h98q45 0 73 29.5t28 77.5z" />
    <glyph glyph-name="afii10059" unicode="&#x40a;" horiz-adv-x="945" 
d="M173 700v-290h292v290h118v-290h98q99 0 159.5 -56t60.5 -149t-60.5 -149t-159.5 -56h-216v312h-292v-312h-114v700h114zM783 205q0 48 -28 77.5t-74 29.5h-98v-214h98q46 0 74 29.5t28 77.5z" />
    <glyph glyph-name="afii10060" unicode="&#x40b;" horiz-adv-x="684" 
d="M335 606v-215q53 42 123 42q78 0 124.5 -52.5t46.5 -138.5v-242h-114v242q0 41 -24 67t-63 26q-59 0 -93 -37v-298h-114v606h-187v94h488v-94h-187z" />
    <glyph glyph-name="afii10061" unicode="&#x40c;" horiz-adv-x="617" 
d="M453 0l-281 353v-353h-114v700h114v-334l260 334h144l-265 -340l289 -360h-147zM231 783l139 139l55 -55l-139 -139z" />
    <glyph glyph-name="uni040D" unicode="&#x40d;" horiz-adv-x="695" 
d="M286 922l139 -139l-55 -55l-139 139zM563 700h73v-700h-114v481l-390 -481h-73v700h114v-481z" />
    <glyph glyph-name="afii10062" unicode="&#x40e;" horiz-adv-x="608" 
d="M304 820q62 0 98 38l54 -54q-59 -64 -152 -64q-90 0 -152 65l55 54q36 -39 97 -39zM596 700l-344 -700h-123l122 220l-239 480h123l170 -346l168 346h123z" />
    <glyph glyph-name="afii10145" unicode="&#x40f;" horiz-adv-x="685" 
d="M290 0h-231v700h114v-606h339v606h114v-700h-230v-150h-106v150z" />
    <glyph glyph-name="afii10017" unicode="&#x410;" horiz-adv-x="762" 
d="M613 0l-74 168h-318l-72 -168h-133l311 700h107l311 -700h-132zM381 552l-119 -282h236z" />
    <glyph glyph-name="afii10018" unicode="&#x411;" horiz-adv-x="541" 
d="M59 0v700h381v-94h-263v-196h101q99 0 159.5 -56t60.5 -149t-60.5 -149t-159.5 -56h-219zM379 205q0 48 -28 77.5t-73 29.5h-101v-214h101q45 0 73 29.5t28 77.5z" />
    <glyph glyph-name="afii10019" unicode="&#x412;" horiz-adv-x="554" 
d="M59 0v700h213q89 0 143 -50t54 -134q0 -96 -69 -144q49 -23 77.5 -68.5t28.5 -106.5q0 -90 -58 -143.5t-153 -53.5h-236zM392 206q0 48 -28 77.5t-74 29.5h-113v-215h113q46 0 74 29.5t28 78.5zM355 506q0 43 -25 69.5t-66 26.5h-87v-191h87q41 0 66 26t25 69z" />
    <glyph glyph-name="afii10020" unicode="&#x413;" horiz-adv-x="462" 
d="M59 0v700h369v-94h-255v-606h-114z" />
    <glyph glyph-name="afii10021" unicode="&#x414;" horiz-adv-x="686" 
d="M555 0h-424v-150h-106v240q52 0 82 40.5t30 114.5v455h450v-606h74v-244h-106v150zM256 245q0 -99 -51 -151h263v512h-212v-361z" />
    <glyph glyph-name="afii10022" unicode="&#x415;" horiz-adv-x="483" 
d="M173 606v-208h235v-94h-235v-210h271v-94h-385v700h380v-94h-266z" />
    <glyph glyph-name="afii10024" unicode="&#x416;" horiz-adv-x="936" 
d="M784 0l-259 353v-353h-114v353l-259 -353h-135l267 360l-248 340h132l243 -333v333h114v-333l243 333h132l-248 -340l267 -360h-135z" />
    <glyph glyph-name="afii10025" unicode="&#x417;" horiz-adv-x="554" 
d="M188 313v98h76q45 0 72 26t27 72q0 47 -29 74t-77 27q-78 0 -144 -66l-69 68q97 97 222 97q99 0 155 -53.5t56 -136.5q0 -99 -77 -147q50 -23 78 -68.5t28 -107.5q0 -94 -63.5 -149.5t-170.5 -55.5q-141 0 -238 100l71 72q70 -73 159 -73q60 0 94 32t34 84q0 48 -28 77.5
t-74 29.5h-102z" />
    <glyph glyph-name="afii10026" unicode="&#x418;" horiz-adv-x="695" 
d="M563 700h73v-700h-114v481l-390 -481h-73v700h114v-481z" />
    <glyph glyph-name="afii10027" unicode="&#x419;" horiz-adv-x="695" 
d="M348 820q62 0 97 38l55 -54q-59 -64 -152 -64q-90 0 -152 65l54 54q37 -39 98 -39zM563 700h73v-700h-114v481l-390 -481h-73v700h114v-481z" />
    <glyph glyph-name="afii10028" unicode="&#x41a;" horiz-adv-x="617" 
d="M453 0l-281 353v-353h-114v700h114v-334l260 334h144l-265 -340l289 -360h-147z" />
    <glyph glyph-name="afii10029" unicode="&#x41b;" horiz-adv-x="656" 
d="M31 0v72q52 0 83 31t31 86v511h452v-700h-119v606h-214v-413q0 -90 -46.5 -144t-126.5 -54q-43 0 -60 5z" />
    <glyph glyph-name="afii10030" unicode="&#x41c;" horiz-adv-x="796" 
d="M623 0v467l-204 -320h-42l-204 320v-467h-114v700h85l254 -386l254 386h85v-700h-114z" />
    <glyph glyph-name="afii10031" unicode="&#x41d;" horiz-adv-x="684" 
d="M173 700v-302h337v302h115v-700h-115v304h-337v-304h-114v700h114z" />
    <glyph glyph-name="afii10032" unicode="&#x41e;" horiz-adv-x="802" 
d="M44 350q0 160 98.5 259.5t258.5 99.5t258.5 -99.5t98.5 -259.5t-98.5 -259.5t-258.5 -99.5t-258.5 99.5t-98.5 259.5zM162 350q0 -114 66.5 -185.5t172.5 -71.5t172.5 71.5t66.5 185.5t-66.5 185.5t-172.5 71.5t-172.5 -71.5t-66.5 -185.5z" />
    <glyph glyph-name="afii10033" unicode="&#x41f;" horiz-adv-x="647" 
d="M59 700h529v-700h-114v606h-301v-606h-114v700z" />
    <glyph glyph-name="afii10034" unicode="&#x420;" horiz-adv-x="529" 
d="M59 0v700h206q99 0 159.5 -56t60.5 -149t-60.5 -149t-159.5 -56h-88v-290h-118zM367 495q0 48 -28 77.5t-74 29.5h-88v-214h88q46 0 74 29.5t28 77.5z" />
    <glyph glyph-name="afii10035" unicode="&#x421;" horiz-adv-x="693" 
d="M162 350q0 -114 68 -185.5t177 -71.5q112 0 180 70l73 -72q-100 -100 -259 -100q-160 0 -258.5 99.5t-98.5 259.5t98.5 259.5t258.5 99.5q159 0 259 -100l-73 -73q-68 71 -180 71q-109 0 -177 -71.5t-68 -185.5z" />
    <glyph glyph-name="afii10036" unicode="&#x422;" horiz-adv-x="556" 
d="M335 606v-606h-114v606h-187v94h488v-94h-187z" />
    <glyph glyph-name="afii10037" unicode="&#x423;" horiz-adv-x="608" 
d="M596 700l-344 -700h-123l122 220l-239 480h123l170 -346l168 346h123z" />
    <glyph glyph-name="afii10038" unicode="&#x424;" horiz-adv-x="800" 
d="M343 0v66q-133 0 -216 79t-83 205t83 205t216 79v66h114v-66q134 0 217 -79t83 -205t-83 -205t-217 -79v-66h-114zM457 532v-364q81 0 131 50.5t50 131.5t-50 131.5t-131 50.5zM343 168v364q-80 0 -130.5 -50.5t-50.5 -131.5t50.5 -131.5t130.5 -50.5z" />
    <glyph glyph-name="afii10039" unicode="&#x425;" horiz-adv-x="735" 
d="M571 0l-204 278l-203 -278h-147l266 355l-258 345h148l194 -266l194 266h148l-258 -345l267 -355h-147z" />
    <glyph glyph-name="afii10040" unicode="&#x426;" horiz-adv-x="722" 
d="M590 0h-531v700h114v-606h339v606h114v-606h70v-244h-106v150z" />
    <glyph glyph-name="afii10041" unicode="&#x427;" horiz-adv-x="575" 
d="M516 0h-110v300q-64 -18 -140 -18q-101 0 -154 57t-53 163v198h110v-194q0 -69 29 -101.5t91 -32.5q75 0 117 17v311h110v-700z" />
    <glyph glyph-name="afii10042" unicode="&#x428;" horiz-adv-x="988" 
d="M929 0h-870v700h114v-606h264v606h114v-606h264v606h114v-700z" />
    <glyph glyph-name="afii10043" unicode="&#x429;" horiz-adv-x="1025" 
d="M893 0h-834v700h114v-606h264v606h114v-606h264v606h114v-606h70v-244h-106v150z" />
    <glyph glyph-name="afii10044" unicode="&#x42a;" horiz-adv-x="665" 
d="M34 606v94h270v-290h97q99 0 160 -56t61 -149t-61 -149t-160 -56h-216v606h-151zM503 205q0 48 -28 77.5t-74 29.5h-97v-214h97q46 0 74 29.5t28 77.5z" />
    <glyph glyph-name="afii10045" unicode="&#x42b;" horiz-adv-x="752" 
d="M59 0v700h118v-290h98q99 0 159.5 -56t60.5 -149t-60.5 -149t-159.5 -56h-216zM377 205q0 48 -28 77.5t-74 29.5h-98v-214h98q46 0 74 29.5t28 77.5zM579 0v700h114v-700h-114z" />
    <glyph glyph-name="afii10046" unicode="&#x42c;" horiz-adv-x="539" 
d="M59 0v700h118v-290h98q99 0 159.5 -56t60.5 -149t-60.5 -149t-159.5 -56h-216zM377 205q0 48 -28 77.5t-74 29.5h-98v-214h98q46 0 74 29.5t28 77.5z" />
    <glyph glyph-name="afii10047" unicode="&#x42d;" horiz-adv-x="693" 
d="M106 536l-72 73q98 100 258 100t259 -99.5t99 -259.5t-99 -259.5t-259 -99.5t-258 100l72 72q68 -70 181 -70q96 0 161.5 57.5t78.5 153.5h-318v94h318q-14 94 -79 151.5t-161 57.5q-113 0 -181 -71z" />
    <glyph glyph-name="afii10048" unicode="&#x42e;" horiz-adv-x="1030" 
d="M173 700v-302h155q14 140 103.5 225.5t224.5 85.5q148 0 239 -99.5t91 -259.5t-91 -259.5t-239 -99.5q-136 0 -225 85.5t-103 227.5h-155v-304h-114v700h114zM444 350q0 -114 59 -185.5t153 -71.5t153 71.5t59 185.5t-59 185.5t-153 71.5t-153 -71.5t-59 -185.5z" />
    <glyph glyph-name="afii10049" unicode="&#x42f;" horiz-adv-x="551" 
d="M492 700v-700h-119v290h-78l-143 -290h-130l163 301q-66 19 -103.5 70t-37.5 124q0 93 60.5 149t159.5 56h228zM162 495q0 -48 28 -77.5t74 -29.5h109v214h-109q-46 0 -74 -29.5t-28 -77.5z" />
    <glyph glyph-name="afii10065" unicode="&#x430;" horiz-adv-x="461" 
d="M420 72v-72q-10 -5 -38 -5q-64 0 -91 50q-52 -54 -124 -54q-61 0 -96 38t-35 91q0 71 61.5 110.5t151.5 39.5q18 0 30 -2v33q0 26 -19.5 47t-54.5 21q-24 0 -49 -9.5t-39 -24.5l-59 59q67 65 157 65q80 0 127.5 -45.5t47.5 -112.5v-195q0 -16 8 -25t22 -9zM204 81
q48 0 75 33v81q-10 3 -24 3q-46 0 -77 -18t-31 -48q0 -20 14 -35.5t43 -15.5z" />
    <glyph glyph-name="afii10066" unicode="&#x431;" horiz-adv-x="562" 
d="M423 755l60 -60q-43 -46 -93.5 -74.5t-86.5 -40.5t-68 -30t-51 -57t-24 -107h6q56 73 139 73q88 0 153 -66.5t65 -171.5q0 -103 -66.5 -166.5t-182.5 -63.5q-52 0 -90.5 14t-70 48t-48 97t-16.5 154q0 97 20 166.5t51 104.5t73 61t81.5 38t81.5 33t67 48zM165 225
q0 -61 32.5 -98.5t87.5 -37.5t89.5 37.5t34.5 98.5t-34 98.5t-89 37.5t-88 -37.5t-33 -98.5z" />
    <glyph glyph-name="afii10067" unicode="&#x432;" horiz-adv-x="447" 
d="M58 0v450h189q64 0 99.5 -32t35.5 -84q0 -63 -50 -96q77 -29 77 -113q0 -56 -38 -90.5t-106 -34.5h-207zM244 196h-76v-115h76q23 0 39 16.5t16 41.5t-16 41t-39 16zM168 270h61q20 0 33.5 14t13.5 35t-13.5 35t-33.5 14h-61v-98z" />
    <glyph glyph-name="afii10068" unicode="&#x433;" horiz-adv-x="366" 
d="M168 364v-364h-110v450h274v-86h-164z" />
    <glyph glyph-name="afii10069" unicode="&#x434;" horiz-adv-x="545" 
d="M518 86v-206h-102v120h-287v-120h-102v206q36 0 60.5 24.5t24.5 60.5v279h343v-364h63zM222 182q0 -59 -36 -96h159v278h-123v-182z" />
    <glyph glyph-name="afii10070" unicode="&#x435;" horiz-adv-x="504" 
d="M469 192h-313q8 -48 41 -75.5t87 -27.5q63 0 98 38l66 -68q-66 -68 -172 -68t-171.5 65t-65.5 172q0 102 60.5 166.5t159.5 64.5q101 0 155.5 -70.5t54.5 -196.5zM262 364q-42 0 -70 -26t-36 -70h203q-15 96 -97 96z" />
    <glyph glyph-name="afii10072" unicode="&#x436;" horiz-adv-x="701" 
d="M558 0l-153 221v-221h-110v221l-153 -221h-125l169 240l-151 210h126l134 -192v192h110v-192l135 192h126l-152 -210l169 -240h-125z" />
    <glyph glyph-name="afii10073" unicode="&#x437;" horiz-adv-x="412" 
d="M193 459q73 0 114 -34.5t41 -89.5q0 -69 -52 -101q76 -29 76 -115q0 -59 -44.5 -93.5t-130.5 -34.5q-102 0 -168 68l60 61q36 -39 98 -39q37 0 56 16.5t19 42.5q0 24 -14.5 38t-38.5 14h-70v73h51q21 0 35.5 15.5t14.5 35.5q0 19 -13.5 36t-43.5 17q-53 0 -88 -38l-61 61
q65 67 159 67z" />
    <glyph glyph-name="afii10074" unicode="&#x438;" horiz-adv-x="524" 
d="M168 450v-272l213 272h85v-450h-110v272l-212 -272h-86v450h110z" />
    <glyph glyph-name="afii10075" unicode="&#x439;" horiz-adv-x="524" 
d="M262 592q62 0 98 38l54 -54q-59 -64 -152 -64q-90 0 -152 64l55 55q36 -39 97 -39zM168 450v-272l213 272h85v-450h-110v272l-212 -272h-86v450h110z" />
    <glyph glyph-name="afii10076" unicode="&#x43a;" horiz-adv-x="485" 
d="M168 0h-110v450h110v-189l152 189h130l-173 -210l191 -240h-130l-170 218v-218z" />
    <glyph glyph-name="afii10077" unicode="&#x43b;" horiz-adv-x="503" 
d="M31 0v72q35 0 55.5 21t20.5 58v299h338v-450h-110v364h-118v-218q0 -69 -35.5 -110t-100.5 -41q-35 0 -50 5z" />
    <glyph glyph-name="afii10078" unicode="&#x43c;" horiz-adv-x="598" 
d="M58 0v450h105l136 -231l137 231h104v-450h-102v281l-111 -197h-56l-111 197v-281h-102z" />
    <glyph glyph-name="afii10079" unicode="&#x43d;" horiz-adv-x="523" 
d="M168 450v-181h186v181h111v-450h-111v183h-186v-183h-110v450h110z" />
    <glyph glyph-name="afii10080" unicode="&#x43e;" horiz-adv-x="552" 
d="M39 225q0 104 65.5 169t171.5 65t171.5 -65t65.5 -169t-65.5 -169t-171.5 -65t-171.5 65t-65.5 169zM153 225q0 -61 34 -98.5t89 -37.5t89 37.5t34 98.5t-34 98.5t-89 37.5t-89 -37.5t-34 -98.5z" />
    <glyph glyph-name="afii10081" unicode="&#x43f;" horiz-adv-x="512" 
d="M343 0v364h-175v-364h-110v450h396v-450h-111z" />
    <glyph glyph-name="afii10082" unicode="&#x440;" horiz-adv-x="540" 
d="M58 450h110v-33q53 42 124 42q94 0 152 -65t58 -169t-63.5 -169t-165.5 -65q-57 0 -105 24v-265h-110v700zM387 225q0 61 -35 98.5t-91 37.5q-59 0 -93 -37v-202q33 -33 93 -33q56 0 91 37.5t35 98.5z" />
    <glyph glyph-name="afii10083" unicode="&#x441;" horiz-adv-x="469" 
d="M153 225q0 -61 35 -98.5t91 -37.5q61 0 94 38l68 -68q-66 -68 -168 -68q-105 0 -169.5 65t-64.5 169t64.5 169t169.5 65q101 0 168 -69l-68 -67q-33 38 -94 38q-56 0 -91 -37.5t-35 -98.5z" />
    <glyph glyph-name="afii10084" unicode="&#x442;" horiz-adv-x="439" 
d="M274 364v-364h-110v364h-130v86h371v-86h-131z" />
    <glyph glyph-name="afii10085" unicode="&#x443;" horiz-adv-x="528" 
d="M516 450l-317 -700h-123l137 250l-201 450h123l130 -316l128 316h123z" />
    <glyph glyph-name="afii10086" unicode="&#x444;" horiz-adv-x="706" 
d="M430 -5q-16 0 -22 1v-246h-110v246q-8 -1 -22 -1q-106 0 -171.5 63t-65.5 167t65.5 167t171.5 63q14 0 22 -1v296h110v-296q6 1 22 1q106 0 171.5 -63t65.5 -167t-65.5 -167t-171.5 -63zM430 361q-10 0 -22 -2v-269q6 -1 22 -1q54 0 88.5 37.5t34.5 98.5t-34.5 98.5
t-88.5 37.5zM153 225q0 -61 34 -98.5t89 -37.5q14 0 22 1v269q-16 2 -22 2q-55 0 -89 -37.5t-34 -98.5z" />
    <glyph glyph-name="afii10087" unicode="&#x445;" horiz-adv-x="525" 
d="M381 0l-119 161l-118 -161h-127l173 230l-165 220h128l109 -150l109 150h127l-164 -220l173 -230h-126z" />
    <glyph glyph-name="afii10088" unicode="&#x446;" horiz-adv-x="538" 
d="M58 0v450h110v-364h175v364h111v-364h58v-206h-102v120h-352z" />
    <glyph glyph-name="afii10089" unicode="&#x447;" horiz-adv-x="478" 
d="M420 0h-111v175q-48 -15 -96 -15q-75 0 -115.5 43.5t-40.5 117.5v129h110v-125q0 -33 18.5 -54t55.5 -21q42 0 68 16v184h111v-450z" />
    <glyph glyph-name="afii10090" unicode="&#x448;" horiz-adv-x="710" 
d="M542 86v364h110v-450h-594v450h110v-364h132v364h110v-364h132z" />
    <glyph glyph-name="afii10091" unicode="&#x449;" horiz-adv-x="736" 
d="M58 0v450h110v-364h132v364h110v-364h132v364h110v-364h58v-206h-102v120h-550z" />
    <glyph glyph-name="afii10092" unicode="&#x44a;" horiz-adv-x="523" 
d="M329 0h-179v364h-116v86h227v-176h68q75 0 116.5 -38t41.5 -100q0 -61 -41.5 -98.5t-116.5 -37.5zM325 192h-64v-111h64q22 0 37 16t15 39q0 24 -15 40t-37 16z" />
    <glyph glyph-name="afii10093" unicode="&#x44b;" horiz-adv-x="618" 
d="M58 0v450h110v-176h69q75 0 116.5 -38t41.5 -100q0 -61 -41.5 -98.5t-116.5 -37.5h-179zM233 192h-65v-111h65q22 0 37 16t15 39q0 24 -15 40t-37 16zM450 0v450h110v-450h-110z" />
    <glyph glyph-name="afii10094" unicode="&#x44c;" horiz-adv-x="430" 
d="M58 0v450h110v-176h69q75 0 116.5 -38t41.5 -100q0 -61 -41.5 -98.5t-116.5 -37.5h-179zM233 192h-65v-111h65q22 0 37 16t15 39q0 24 -15 40t-37 16z" />
    <glyph glyph-name="afii10095" unicode="&#x44d;" horiz-adv-x="469" 
d="M145 187v78h167q-11 44 -43.5 70t-78.5 26q-61 0 -94 -38l-67 68q65 68 168 68q105 0 169.5 -65t64.5 -169t-64.5 -169t-169.5 -65q-102 0 -168 69l67 67q33 -38 94 -38q46 0 79 26.5t44 71.5h-168z" />
    <glyph glyph-name="afii10096" unicode="&#x44e;" horiz-adv-x="751" 
d="M168 450v-181h88q13 86 74.5 138t152.5 52q103 0 167 -65t64 -169t-64 -169t-167 -65q-92 0 -153 52.5t-74 139.5h-88v-183h-110v450h110zM367 225q0 -61 32 -98.5t84 -37.5t84 37.5t32 98.5t-32 98.5t-84 37.5t-84 -37.5t-32 -98.5z" />
    <glyph glyph-name="afii10097" unicode="&#x44f;" horiz-adv-x="469" 
d="M411 450v-450h-110v172h-58l-87 -172h-114l104 182q-45 15 -69 48.5t-24 80.5q0 62 42.5 100.5t119.5 38.5h196zM219 254h82v114h-82q-23 0 -39 -16t-16 -41t16 -41t39 -16z" />
    <glyph glyph-name="uni0450" unicode="&#x450;" horiz-adv-x="504" 
d="M469 192h-313q8 -48 41 -75.5t87 -27.5q63 0 98 38l66 -68q-66 -68 -172 -68t-171.5 65t-65.5 172q0 102 60.5 166.5t159.5 64.5q101 0 155.5 -70.5t54.5 -196.5zM262 364q-42 0 -70 -26t-36 -70h203q-15 96 -97 96zM198 694l139 -139l-55 -55l-139 139z" />
    <glyph glyph-name="afii10071" unicode="&#x451;" horiz-adv-x="504" 
d="M469 192h-313q8 -48 41 -75.5t87 -27.5q63 0 98 38l66 -68q-66 -68 -172 -68t-171.5 65t-65.5 172q0 102 60.5 166.5t159.5 64.5q101 0 155.5 -70.5t54.5 -196.5zM262 364q-42 0 -70 -26t-36 -70h203q-15 96 -97 96zM102 554q0 26 18 44t44 18t44 -18t18 -44t-18 -44
t-44 -18t-44 18t-18 44zM294 554q0 26 18 44.5t44 18.5t44.5 -18.5t18.5 -44.5t-18.5 -44t-44.5 -18t-44 18t-18 44z" />
    <glyph glyph-name="afii10099" unicode="&#x452;" horiz-adv-x="542" 
d="M326 -250v72q21 0 34 12.5t13 34.5v399q0 41 -24 67t-63 26q-59 0 -93 -37v-324h-110v564h-53v86h53v100h110v-100h155v-86h-155v-146q52 41 121 41q77 0 123 -52.5t46 -138.5v-402q0 -55 -30 -88t-85 -33q-29 0 -42 5z" />
    <glyph glyph-name="afii10100" unicode="&#x453;" horiz-adv-x="366" 
d="M117 555l139 139l55 -55l-139 -139zM168 364v-364h-110v450h274v-86h-164z" />
    <glyph glyph-name="afii10101" unicode="&#x454;" horiz-adv-x="469" 
d="M279 361q-45 0 -78 -26t-44 -70h188v-78h-188q10 -45 43 -71.5t79 -26.5q61 0 94 38l68 -68q-66 -68 -168 -68q-105 0 -169.5 65t-64.5 169t64.5 169t169.5 65q101 0 168 -69l-68 -67q-33 38 -94 38z" />
    <glyph glyph-name="afii10102" unicode="&#x455;" horiz-adv-x="387" 
d="M342 400l-67 -67q-32 34 -72 34q-23 0 -34 -13.5t-11 -30.5q0 -20 20 -34t48 -25t56.5 -24.5t48.5 -40t20 -65.5q0 -60 -43 -101.5t-117 -41.5q-95 0 -159 66l67 68q38 -43 84 -43q28 0 43 16t15 35t-20 32t-48.5 23.5t-57 24t-48.5 41t-20 67.5q0 58 39 98t108 40
q91 0 148 -59z" />
    <glyph glyph-name="afii10103" unicode="&#x456;" 
d="M58 0v450h110v-450h-110zM47 585q0 28 19 47t47 19t47 -19t19 -47t-19 -47t-47 -19t-47 19t-19 47z" />
    <glyph glyph-name="afii10104" unicode="&#x457;" 
d="M58 0v450h110v-450h-110zM-33 563q0 26 18 44t44 18t44 -18t18 -44t-18 -44t-44 -18q-25 0 -43.5 18.5t-18.5 43.5zM134 563q0 27 18 45t44 18q27 0 45 -18t18 -45q0 -26 -18 -44t-45 -18q-26 0 -44 18.5t-18 43.5z" />
    <glyph glyph-name="afii10105" unicode="&#x458;" 
d="M47 585q0 28 19 47t47 19t47 -19t19 -47t-19 -47t-47 -19t-47 19t-19 47zM11 -250v72q21 0 34 12.5t13 34.5v581h110v-584q0 -55 -30 -88t-84 -33q-31 0 -43 5z" />
    <glyph glyph-name="afii10106" unicode="&#x459;" horiz-adv-x="705" 
d="M335 0v364h-118v-218q0 -69 -35.5 -110t-100.5 -41q-35 0 -50 5v72q35 0 55.5 21t20.5 58v299h338v-176h68q75 0 117 -38t42 -100q0 -61 -42 -98.5t-117 -37.5h-178zM509 192h-64v-111h64q22 0 37 16t15 39q0 25 -14.5 40.5t-37.5 15.5z" />
    <glyph glyph-name="afii10107" unicode="&#x45a;" horiz-adv-x="731" 
d="M168 450v-181h185v181h110v-181h76q74 0 114 -36.5t40 -98.5q0 -61 -40 -97.5t-114 -36.5h-186v183h-185v-183h-110v450h110zM534 183h-71v-102h71q22 0 35.5 14t13.5 37q0 24 -13.5 37.5t-35.5 13.5z" />
    <glyph glyph-name="afii10108" unicode="&#x45b;" horiz-adv-x="542" 
d="M30 564v86h53v100h110v-100h155v-86h-155v-146q52 41 121 41q77 0 123 -52.5t46 -138.5v-268h-110v268q0 41 -24 67t-63 26q-59 0 -93 -37v-324h-110v564h-53z" />
    <glyph glyph-name="afii10109" unicode="&#x45c;" horiz-adv-x="485" 
d="M168 0h-110v450h110v-189l152 189h130l-173 -210l191 -240h-130l-170 218v-218zM165 555l139 139l55 -55l-139 -139z" />
    <glyph glyph-name="uni045D" unicode="&#x45d;" horiz-adv-x="524" 
d="M200 694l139 -139l-55 -55l-139 139zM168 450v-272l213 272h85v-450h-110v272l-212 -272h-86v450h110z" />
    <glyph glyph-name="afii10110" unicode="&#x45e;" horiz-adv-x="528" 
d="M516 450l-317 -700h-123l137 250l-201 450h123l130 -316l128 316h123zM264 592q62 0 98 38l54 -54q-59 -64 -152 -64q-90 0 -152 64l55 55q36 -39 97 -39z" />
    <glyph glyph-name="afii10193" unicode="&#x45f;" horiz-adv-x="512" 
d="M205 -120v120h-147v450h110v-364h175v364h111v-450h-147v-120h-102z" />
    <glyph glyph-name="afii10050" unicode="&#x490;" horiz-adv-x="458" 
d="M173 606v-606h-114v700h265v125h86v-219h-237z" />
    <glyph glyph-name="afii10098" unicode="&#x491;" horiz-adv-x="365" 
d="M168 364v-364h-110v450h179v100h85v-186h-154z" />
    <glyph glyph-name="uni04D8" unicode="&#x4d8;" horiz-adv-x="735" 
d="M692 350q0 -160 -89.5 -259.5t-234.5 -99.5t-234.5 99.5t-89.5 259.5v43h526q-13 97 -78.5 155.5t-162.5 58.5q-113 0 -181 -70l-72 72q98 100 258 100t259 -99.5t99 -259.5zM368 93q80 0 134.5 56.5t65.5 149.5h-401q11 -93 65.5 -149.5t135.5 -56.5z" />
    <glyph glyph-name="afii10846" unicode="&#x4d9;" horiz-adv-x="504" 
d="M39 258h312q-8 47 -41 75t-86 28q-64 0 -99 -38l-65 68q66 68 172 68t171.5 -65t65.5 -172q0 -103 -61 -167t-160 -64q-101 0 -155 70.5t-54 196.5zM246 86q42 0 70 26t35 70h-202q15 -96 97 -96z" />
    <glyph glyph-name="Wgrave" unicode="&#x1e80;" horiz-adv-x="1106" 
d="M1089 700l-253 -700h-115l-169 500l-167 -500h-115l-254 700h134l177 -520l167 520h118l167 -520l177 520h133zM490 922l139 -139l-55 -55l-139 139z" />
    <glyph glyph-name="wgrave" unicode="&#x1e81;" horiz-adv-x="788" 
d="M776 450l-171 -450h-115l-96 294l-96 -294h-115l-171 450h127l101 -315l99 315h110l99 -315l101 315h127zM332 694l139 -139l-55 -55l-139 139z" />
    <glyph glyph-name="Wacute" unicode="&#x1e82;" horiz-adv-x="1106" 
d="M1089 700l-253 -700h-115l-169 500l-167 -500h-115l-254 700h134l177 -520l167 520h118l167 -520l177 520h133zM475 783l139 139l55 -55l-139 -139z" />
    <glyph glyph-name="wacute" unicode="&#x1e83;" horiz-adv-x="788" 
d="M776 450l-171 -450h-115l-96 294l-96 -294h-115l-171 450h127l101 -315l99 315h110l99 -315l101 315h127zM317 555l139 139l55 -55l-139 -139z" />
    <glyph glyph-name="Wdieresis" unicode="&#x1e84;" horiz-adv-x="1106" 
d="M1089 700l-253 -700h-115l-169 500l-167 -500h-115l-254 700h134l177 -520l167 520h118l167 -520l177 520h133zM394 799q0 26 18 44t44 18t44 -18t18 -44q0 -25 -18 -43.5t-44 -18.5t-44 18t-18 44zM586 799q0 26 18 44.5t44 18.5t44.5 -18.5t18.5 -44.5t-18.5 -44
t-44.5 -18t-44 18.5t-18 43.5z" />
    <glyph glyph-name="wdieresis" unicode="&#x1e85;" horiz-adv-x="788" 
d="M776 450l-171 -450h-115l-96 294l-96 -294h-115l-171 450h127l101 -315l99 315h110l99 -315l101 315h127zM236 571q0 26 18 44t44 18q25 0 43 -18t18 -44t-17.5 -44t-43.5 -18t-44 18t-18 44zM428 571q0 26 18 44.5t44 18.5t44.5 -18.5t18.5 -44.5t-18.5 -44t-44.5 -18
t-44 18t-18 44z" />
    <glyph glyph-name="Ygrave" unicode="&#x1ef2;" horiz-adv-x="679" 
d="M281 0v288l-265 412h132l191 -300l191 300h132l-266 -413v-287h-115zM277 922l139 -139l-55 -55l-139 139z" />
    <glyph glyph-name="ygrave" unicode="&#x1ef3;" horiz-adv-x="528" 
d="M516 450l-317 -700h-123l137 250l-201 450h123l130 -316l128 316h123zM202 694l139 -139l-55 -55l-139 139z" />
    <glyph glyph-name="figuredash" unicode="&#x2012;" horiz-adv-x="500" 
d="M47 307v86h406v-86h-406z" />
    <glyph glyph-name="endash" unicode="&#x2013;" horiz-adv-x="500" 
d="M47 225v86h406v-86h-406z" />
    <glyph glyph-name="emdash" unicode="&#x2014;" horiz-adv-x="700" 
d="M47 225v86h606v-86h-606z" />
    <glyph glyph-name="quoteleft" unicode="&#x2018;" 
d="M146 709l35 -35q-42 -44 -54 -82q23 -5 37.5 -23t14.5 -42q0 -28 -19 -47t-47 -19q-25 0 -45.5 18t-20.5 56q0 77 99 174z" />
    <glyph glyph-name="quoteright" unicode="&#x2019;" 
d="M81 461l-36 36q41 41 54 82q-23 5 -37.5 22.5t-14.5 41.5q0 28 19 47t47 19q26 0 46 -17.5t20 -56.5q0 -74 -98 -174z" />
    <glyph glyph-name="quotesinglbase" unicode="&#x201a;" 
d="M81 -125l-36 35q42 43 54 83q-23 5 -37.5 22.5t-14.5 41.5q0 28 19 47t47 19q26 0 46 -17.5t20 -56.5q0 -76 -98 -174z" />
    <glyph glyph-name="quotedblleft" unicode="&#x201c;" horiz-adv-x="384" 
d="M303 750l36 -35q-41 -41 -54 -82q23 -5 37.5 -23t14.5 -42q0 -28 -19 -47t-47 -19q-26 0 -46 18t-20 56q0 78 98 174zM146 750l35 -35q-42 -44 -54 -82q23 -5 37.5 -23t14.5 -42q0 -28 -19 -47t-47 -19q-25 0 -45.5 18t-20.5 56q0 77 99 174z" />
    <glyph glyph-name="quotedblright" unicode="&#x201d;" horiz-adv-x="384" 
d="M81 502l-36 36q41 41 54 82q-23 5 -37.5 22.5t-14.5 41.5q0 28 19 47t47 19q26 0 46 -17.5t20 -56.5q0 -74 -98 -174zM238 502l-35 36q42 44 54 82q-23 4 -37.5 22t-14.5 42q0 28 19 47t47 19q26 0 46 -17.5t20 -56.5q0 -75 -99 -174z" />
    <glyph glyph-name="quotedblbase" unicode="&#x201e;" horiz-adv-x="384" 
d="M81 -125l-36 35q42 43 54 83q-23 5 -37.5 22.5t-14.5 41.5q0 28 19 47t47 19q26 0 46 -17.5t20 -56.5q0 -76 -98 -174zM238 -125l-35 35q42 46 54 83q-23 4 -37.5 22t-14.5 42q0 28 19 47t47 19q26 0 46 -17.5t20 -56.5q0 -77 -99 -174z" />
    <glyph glyph-name="dagger" unicode="&#x2020;" horiz-adv-x="500" 
d="M47 364v86h148v300h110v-300h148v-86h-148v-614h-110v614h-148z" />
    <glyph glyph-name="daggerdbl" unicode="&#x2021;" horiz-adv-x="500" 
d="M47 55v86h148v223h-148v86h148v300h110v-300h148v-86h-148v-223h148v-86h-148v-305h-110v305h-148z" />
    <glyph glyph-name="bullet" unicode="&#x2022;" horiz-adv-x="258" 
d="M43 275q0 36 25 61t61 25q37 0 61.5 -25t24.5 -61q0 -37 -24.5 -61.5t-61.5 -24.5q-36 0 -61 24.5t-25 61.5z" />
    <glyph glyph-name="ellipsis" unicode="&#x2026;" horiz-adv-x="679" 
d="M47 57q0 28 19 47t47 19t47 -19t19 -47t-19 -47t-47 -19t-47 19t-19 47zM274 57q0 28 19 47t47 19t47 -19t19 -47t-19 -47t-47 -19t-47 19t-19 47zM500 57q0 28 19 47t47 19t47 -19t19 -47t-19 -47t-47 -19t-47 19t-19 47z" />
    <glyph glyph-name="perthousand" unicode="&#x2030;" horiz-adv-x="1300" 
d="M205 0l376 700h110l-375 -700h-111zM34 529q0 80 50.5 130t131.5 50q82 0 132.5 -50t50.5 -130t-50.5 -129.5t-132.5 -49.5q-81 0 -131.5 49.5t-50.5 129.5zM131 529q0 -43 24 -70.5t61 -27.5t61 27.5t24 70.5q0 44 -24 71.5t-61 27.5t-61 -27.5t-24 -71.5zM497 170
q0 80 50.5 130t132.5 50q81 0 132 -50t51 -130q0 -79 -51 -129t-132 -50q-82 0 -132.5 49.5t-50.5 129.5zM595 170q0 -43 24 -70.5t61 -27.5t61 27.5t24 70.5q0 44 -24 71.5t-61 27.5t-61 -27.5t-24 -71.5zM901 170q0 80 50.5 130t132.5 50q81 0 131.5 -50t50.5 -130
t-50.5 -129.5t-131.5 -49.5q-82 0 -132.5 49.5t-50.5 129.5zM999 170q0 -43 24 -70.5t61 -27.5t60.5 27.5t23.5 70.5t-23.5 71t-60.5 28t-61 -27.5t-24 -71.5z" />
    <glyph glyph-name="guilsinglleft" unicode="&#x2039;" horiz-adv-x="294" 
d="M200 76l-175 174l175 174l55 -55l-120 -119l120 -119z" />
    <glyph glyph-name="guilsinglright" unicode="&#x203a;" horiz-adv-x="294" 
d="M266 250l-174 -174l-55 55l119 119l-119 119l55 55z" />
    <glyph glyph-name="fraction" unicode="&#x2044;" horiz-adv-x="530" 
d="M38 0l376 700h78l-376 -700h-78z" />
    <glyph glyph-name="Euro" unicode="&#x20ac;" horiz-adv-x="739" 
d="M34 385v61h65q28 120 121.5 191.5t226.5 71.5q159 0 259 -100l-73 -73q-68 71 -180 71q-83 0 -144 -43.5t-86 -117.5h232v-61h-246q-1 -12 -1 -35q0 -24 1 -35h246v-61h-232q25 -75 86 -118t144 -43q112 0 180 70l73 -72q-100 -100 -259 -100q-133 0 -226.5 71
t-121.5 192h-65v61h56q-1 11 -1 35q0 23 1 35h-56z" />
    <glyph glyph-name="uni20B4" unicode="&#x20b4;" horiz-adv-x="435" 
d="M34 384v61h208l9 9q33 33 33 74q0 36 -25 59t-63 23q-58 0 -89 -39l-70 70q62 68 159 68q90 0 145.5 -49t55.5 -129q0 -46 -25 -86h29v-61h-79l-64 -64h143v-61h-204l-13 -13q-33 -33 -33 -74q0 -36 25 -59t63 -23q57 0 90 39l70 -70q-63 -68 -160 -68q-89 0 -144.5 49.5
t-55.5 128.5q0 48 26 90h-31v61h83l64 64h-147z" />
    <glyph glyph-name="afii61352" unicode="&#x2116;" horiz-adv-x="1000" 
d="M59 700h73l402 -481v481h115v-700h-74l-402 481v-481h-114v700zM712 576q0 58 36.5 93.5t94.5 35.5q59 0 95 -35.5t36 -93.5t-36 -93.5t-95 -35.5q-58 0 -94.5 35.5t-36.5 93.5zM780 576q0 -32 17.5 -51.5t45.5 -19.5q29 0 46.5 19.5t17.5 51.5t-18 51.5t-46 19.5
t-45.5 -20t-17.5 -51z" />
    <glyph glyph-name="trademark" unicode="&#x2122;" horiz-adv-x="681" 
d="M175 648v-298h-63v298h-91v52h246v-52h-92zM585 350v222l-97 -151h-22l-96 151v-222h-64v350h47l124 -185l124 185h48v-350h-64z" />
    <glyph glyph-name="arrowleft" unicode="&#x2190;" horiz-adv-x="953" 
d="M393 -3l-354 354l354 353l71 -72l-231 -230h659v-102h-659l232 -232z" />
    <glyph glyph-name="arrowup" unicode="&#x2191;" horiz-adv-x="785" 
d="M342 -148v659l-232 -232l-71 72l354 354l353 -354l-72 -71l-230 231v-659h-102z" />
    <glyph glyph-name="arrowright" unicode="&#x2192;" horiz-adv-x="953" 
d="M61 300v102h658l-231 230l72 72l354 -353l-354 -354l-72 71l231 232h-658z" />
    <glyph glyph-name="arrowdown" unicode="&#x2193;" horiz-adv-x="785" 
d="M393 -153l-354 354l71 72l232 -232v659h102v-659l230 231l72 -71z" />
    <glyph glyph-name="uni2196" unicode="&#x2196;" horiz-adv-x="739" 
d="M61 134v500h500v-102h-327l466 -465l-72 -73l-465 467v-327h-102z" />
    <glyph glyph-name="uni2197" unicode="&#x2197;" horiz-adv-x="739" 
d="M179 532v102h500v-500h-102v327l-466 -467l-72 73l466 465h-326z" />
    <glyph glyph-name="uni2198" unicode="&#x2198;" horiz-adv-x="739" 
d="M179 0v102h326l-466 466l72 72l466 -467v327h102v-500h-500z" />
    <glyph glyph-name="uni2199" unicode="&#x2199;" horiz-adv-x="739" 
d="M61 0v500h102v-327l465 467l72 -72l-466 -466h327v-102h-500z" />
    <glyph glyph-name="minus" unicode="&#x2212;" horiz-adv-x="425" 
d="M47 258v86h331v-86h-331z" />
    <glyph glyph-name="commaaccent" unicode="&#xf6c3;" 
d="M86 -245l-28 28q35 37 44 69q-19 3 -31 17.5t-12 34.5q0 22 15.5 37.5t38.5 15.5q22 0 38 -14.5t16 -45.5q0 -63 -81 -142z" />
    <glyph glyph-name="adieresis.alt" horiz-adv-x="540" 
d="M280 459q137 0 202 -87v-372h-110v32q-54 -41 -123 -41q-94 0 -152 64.5t-58 169.5q0 104 66.5 169t174.5 65zM153 225q0 -61 35 -98.5t91 -37.5q60 0 93 36v208q-36 28 -94 28q-56 0 -90.5 -37.5t-34.5 -98.5zM312 571q0 26 18 44.5t44 18.5q27 0 45 -18.5t18 -44.5
t-18 -44t-45 -18q-26 0 -44 18t-18 44zM120 571q0 25 18 43.5t44 18.5t44 -18t18 -44t-18 -44t-44 -18t-44 18t-18 44z" />
    <glyph glyph-name="agrave.alt" horiz-adv-x="540" 
d="M280 459q137 0 202 -87v-372h-110v32q-54 -41 -123 -41q-94 0 -152 64.5t-58 169.5q0 104 66.5 169t174.5 65zM153 225q0 -61 35 -98.5t91 -37.5q60 0 93 36v208q-36 28 -94 28q-56 0 -90.5 -37.5t-34.5 -98.5zM218 694l139 -139l-55 -55l-139 139z" />
    <glyph glyph-name="amacron.alt" horiz-adv-x="540" 
d="M280 459q137 0 202 -87v-372h-110v32q-54 -41 -123 -41q-94 0 -152 64.5t-58 169.5q0 104 66.5 169t174.5 65zM153 225q0 -61 35 -98.5t91 -37.5q60 0 93 36v208q-36 28 -94 28q-56 0 -90.5 -37.5t-34.5 -98.5zM150 531v65h261v-65h-261z" />
    <glyph glyph-name="aogonek.alt" horiz-adv-x="540" 
d="M415 -35q0 -24 13.5 -37.5t35.5 -13.5q21 0 36 13l36 -36q-26 -28 -71 -28t-73 28t-28 74q0 20 8 35v32q-54 -41 -123 -41q-94 0 -152 64.5t-58 169.5q0 104 66.5 169t174.5 65q137 0 202 -87v-372h-59q-8 -14 -8 -35zM153 225q0 -61 35 -98.5t91 -37.5q60 0 93 36v208
q-36 28 -94 28q-56 0 -90.5 -37.5t-34.5 -98.5z" />
    <glyph glyph-name="aring.alt" horiz-adv-x="540" 
d="M280 459q137 0 202 -87v-372h-110v32q-54 -41 -123 -41q-94 0 -152 64.5t-58 169.5q0 104 66.5 169t174.5 65zM153 225q0 -61 35 -98.5t91 -37.5q60 0 93 36v208q-36 28 -94 28q-56 0 -90.5 -37.5t-34.5 -98.5zM189 585q0 42 25.5 68t65.5 26q41 0 66.5 -26t25.5 -68
t-25.5 -67.5t-66.5 -25.5q-40 0 -65.5 25.5t-25.5 67.5zM235 585q0 -21 12.5 -34t32.5 -13q21 0 33.5 13t12.5 34t-13 34t-33 13t-32.5 -13t-12.5 -34z" />
    <glyph glyph-name="atilde.alt" horiz-adv-x="540" 
d="M280 459q137 0 202 -87v-372h-110v32q-54 -41 -123 -41q-94 0 -152 64.5t-58 169.5q0 104 66.5 169t174.5 65zM153 225q0 -61 35 -98.5t91 -37.5q60 0 93 36v208q-36 28 -94 28q-56 0 -90.5 -37.5t-34.5 -98.5zM189 527h-58q0 44 26.5 71.5t68.5 27.5q33 0 62 -22.5
t46 -22.5q16 0 27 11.5t11 28.5h58q0 -44 -27 -71.5t-69 -27.5q-33 0 -61.5 22.5t-45.5 22.5t-27.5 -11t-10.5 -29z" />
    <glyph glyph-name="g.alt" horiz-adv-x="540" 
d="M372 -21v41q-49 -29 -114 -29q-98 0 -158.5 65t-60.5 169t66.5 169t174.5 65q137 0 202 -87v-393q0 -110 -65 -174t-172 -64q-108 0 -177 69l67 67q38 -38 103 -38q62 0 98 37t36 103zM153 225q0 -61 34 -98.5t89 -37.5q62 0 96 42v202q-36 28 -94 28q-56 0 -90.5 -37.5
t-34.5 -98.5z" />
    <glyph glyph-name="gbreve.alt" horiz-adv-x="540" 
d="M372 -21v41q-49 -29 -114 -29q-98 0 -158.5 65t-60.5 169t66.5 169t174.5 65q137 0 202 -87v-393q0 -110 -65 -174t-172 -64q-108 0 -177 69l67 67q38 -38 103 -38q62 0 98 37t36 103zM153 225q0 -61 34 -98.5t89 -37.5q62 0 96 42v202q-36 28 -94 28q-56 0 -90.5 -37.5
t-34.5 -98.5zM275 592q62 0 97 38l55 -54q-59 -64 -152 -64q-90 0 -152 64l54 55q37 -39 98 -39z" />
    <glyph glyph-name="gcircumflex.alt" horiz-adv-x="540" 
d="M372 -21v41q-49 -29 -114 -29q-98 0 -158.5 65t-60.5 169t66.5 169t174.5 65q137 0 202 -87v-393q0 -110 -65 -174t-172 -64q-108 0 -177 69l67 67q38 -38 103 -38q62 0 98 37t36 103zM153 225q0 -61 34 -98.5t89 -37.5q62 0 96 42v202q-36 28 -94 28q-56 0 -90.5 -37.5
t-34.5 -98.5zM276 694l138 -139l-55 -55l-83 84l-84 -84l-55 55z" />
    <glyph glyph-name="gcommaaccent.alt" horiz-adv-x="540" 
d="M372 -21v41q-49 -29 -114 -29q-98 0 -158.5 65t-60.5 169t66.5 169t174.5 65q137 0 202 -87v-393q0 -110 -65 -174t-172 -64q-108 0 -177 69l67 67q38 -38 103 -38q62 0 98 37t36 103zM153 225q0 -61 34 -98.5t89 -37.5q62 0 96 42v202q-36 28 -94 28q-56 0 -90.5 -37.5
t-34.5 -98.5zM300 701l29 -29q-37 -38 -44 -68q18 -4 30 -18.5t12 -33.5q0 -23 -15.5 -38.5t-38.5 -15.5q-21 0 -37 14.5t-16 45.5q0 63 80 143z" />
    <glyph glyph-name="gdotaccent.alt" horiz-adv-x="540" 
d="M372 -21v41q-49 -29 -114 -29q-98 0 -158.5 65t-60.5 169t66.5 169t174.5 65q137 0 202 -87v-393q0 -110 -65 -174t-172 -64q-108 0 -177 69l67 67q38 -38 103 -38q62 0 98 37t36 103zM153 225q0 -61 34 -98.5t89 -37.5q62 0 96 42v202q-36 28 -94 28q-56 0 -90.5 -37.5
t-34.5 -98.5zM209 585q0 28 19 47t47 19q27 0 46.5 -19t19.5 -47t-19.5 -47t-46.5 -19q-28 0 -47 19t-19 47z" />
    <glyph glyph-name="afii10021.alt" horiz-adv-x="798" 
d="M666 0h-535v-150h-106v244h52l268 606h107l269 -606h51v-244h-106v150zM399 553l-190 -459h380z" />
    <glyph glyph-name="afii10029.alt" horiz-adv-x="762" 
d="M16 0l311 700h107l311 -700h-135l-229 549l-229 -549h-136z" />
    <glyph glyph-name="afii10058.alt" horiz-adv-x="1019" 
d="M16 0l311 700h107l129 -290h192q99 0 160 -56t61 -149t-61 -149t-160 -56h-145l-229 549l-229 -549h-136zM755 312h-149l96 -214h53q46 0 74 29.5t28 77.5t-28 77.5t-74 29.5z" />
    <glyph glyph-name="afii10065.alt" horiz-adv-x="540" 
d="M280 459q137 0 202 -87v-372h-110v32q-54 -41 -123 -41q-94 0 -152 64.5t-58 169.5q0 104 66.5 169t174.5 65zM153 225q0 -61 35 -98.5t91 -37.5q60 0 93 36v208q-36 28 -94 28q-56 0 -90.5 -37.5t-34.5 -98.5z" />
    <glyph glyph-name="afii10069.alt" horiz-adv-x="572" 
d="M545 86v-206h-102v120h-314v-120h-102v206h46l162 364h102l162 -364h46zM286 324l-94 -238h188z" />
    <glyph glyph-name="afii10077.alt" horiz-adv-x="528" 
d="M12 0l201 450h102l201 -450h-123l-129 317l-129 -317h-123z" />
    <glyph glyph-name="afii10106.alt" horiz-adv-x="718" 
d="M12 0l201 450h102l78 -176h133q75 0 116.5 -38t41.5 -100q0 -61 -41.5 -98.5t-116.5 -37.5h-133l-129 317l-129 -317h-123zM522 192h-92l50 -111h42q22 0 37 16t15 39q0 24 -15 40t-37 16z" />
    <glyph glyph-name="acircumflex.alt" horiz-adv-x="540" 
d="M280 459q137 0 202 -87v-372h-110v32q-54 -41 -123 -41q-94 0 -152 64.5t-58 169.5q0 104 66.5 169t174.5 65zM153 225q0 -61 35 -98.5t91 -37.5q60 0 93 36v208q-36 28 -94 28q-56 0 -90.5 -37.5t-34.5 -98.5zM280 694l139 -139l-55 -55l-84 84l-84 -84l-55 55z" />
    <glyph glyph-name="abreve.alt" horiz-adv-x="540" 
d="M280 459q137 0 202 -87v-372h-110v32q-54 -41 -123 -41q-94 0 -152 64.5t-58 169.5q0 104 66.5 169t174.5 65zM153 225q0 -61 35 -98.5t91 -37.5q60 0 93 36v208q-36 28 -94 28q-56 0 -90.5 -37.5t-34.5 -98.5zM281 592q62 0 97 38l55 -54q-59 -64 -152 -64
q-90 0 -152 64l54 55q37 -39 98 -39z" />
    <glyph glyph-name="aacute.alt" horiz-adv-x="540" 
d="M280 459q137 0 202 -87v-372h-110v32q-54 -41 -123 -41q-94 0 -152 64.5t-58 169.5q0 104 66.5 169t174.5 65zM153 225q0 -61 35 -98.5t91 -37.5q60 0 93 36v208q-36 28 -94 28q-56 0 -90.5 -37.5t-34.5 -98.5zM202 555l139 139l55 -55l-139 -139z" />
    <glyph glyph-name="a.alt" horiz-adv-x="540" 
d="M280 459q137 0 202 -87v-372h-110v32q-54 -41 -123 -41q-94 0 -152 64.5t-58 169.5q0 104 66.5 169t174.5 65zM153 225q0 -61 35 -98.5t91 -37.5q60 0 93 36v208q-36 28 -94 28q-56 0 -90.5 -37.5t-34.5 -98.5z" />
    <glyph glyph-name="zero.fitted" horiz-adv-x="530" 
d="M32 350q0 160 64.5 259.5t168.5 99.5t168.5 -99.5t64.5 -259.5t-64.5 -259.5t-168.5 -99.5t-168.5 99.5t-64.5 259.5zM146 350q0 -116 33 -188.5t86 -72.5t86 72.5t33 188.5t-33 188.5t-86 72.5t-86 -72.5t-33 -188.5z" />
    <glyph glyph-name="one.fitted" horiz-adv-x="530" 
d="M96 0v86h110v518l-119 -19v86l230 34v-619h111v-86h-332z" />
    <glyph glyph-name="germandbls.case" horiz-adv-x="594" 
d="M172 506v-506h-114v506q0 91 57.5 147t150.5 56q94 0 151.5 -55t57.5 -144q0 -57 -28.5 -100t-78.5 -63q0 -29 20 -47.5t47.5 -30t55.5 -25.5t47.5 -42.5t19.5 -71.5q0 -58 -43 -98.5t-117 -40.5q-96 0 -159 66l67 68q38 -43 84 -43q28 0 43 15t15 34q0 21 -19.5 35.5
t-47.5 26.5t-56 27.5t-47.5 46.5t-19.5 75v83q46 0 74.5 24.5t28.5 64.5q0 43 -26.5 70t-68.5 27q-41 0 -67.5 -29.5t-26.5 -75.5z" />
    <glyph glyph-name="at.case" horiz-adv-x="791" 
d="M608 142l52 -52q-96 -99 -262 -99q-161 0 -260 99.5t-99 259.5t99 259.5t259 99.5q159 0 257.5 -94.5t98.5 -236.5q0 -104 -52.5 -152.5t-120.5 -48.5q-66 0 -94 40q-42 -40 -102 -40q-70 0 -113 48t-43 125t49.5 125t129.5 48q103 0 149 -64v-168q0 -20 12.5 -30.5
t29.5 -10.5q29 0 49 29t20 89q0 118 -74.5 193t-195.5 75q-122 0 -197.5 -79t-75.5 -207t76 -207t200 -79q133 0 208 78zM314 350q0 -45 25.5 -72.5t67.5 -27.5q41 0 67 24v156q-26 20 -69 20q-41 0 -66 -27.5t-25 -72.5z" />
    <glyph glyph-name="parenleft.case" horiz-adv-x="293" 
d="M255 759v-81q-38 0 -66 -93t-28 -235t28 -235t66 -93v-81q-89 0 -148.5 114.5t-59.5 294.5t59.5 294.5t148.5 114.5z" />
    <glyph glyph-name="parenright.case" horiz-adv-x="293" 
d="M37 678v81q89 0 148.5 -114.5t59.5 -294.5t-59.5 -294.5t-148.5 -114.5v81q39 0 66.5 92.5t27.5 235.5t-27.5 235.5t-66.5 92.5z" />
    <glyph glyph-name="bracketleft.case" horiz-adv-x="299" 
d="M262 750v-86h-94v-628h94v-86h-204v800h204z" />
    <glyph glyph-name="bracketright.case" horiz-adv-x="299" 
d="M37 664v86h204v-800h-204v86h94v628h-94z" />
    <glyph glyph-name="braceleft.case" horiz-adv-x="309" 
d="M276 22v-81q-77 0 -127.5 50.5t-50.5 129.5v69q0 50 -19 83.5t-45 33.5v82q26 0 45 33t19 84v73q0 79 50.5 129.5t127.5 50.5v-81q-26 0 -45 -32.5t-19 -82.5v-70q0 -102 -84 -145q84 -43 84 -145v-67q0 -50 19 -82t45 -32z" />
    <glyph glyph-name="braceright.case" horiz-adv-x="309" 
d="M34 -59v81q26 0 45 32.5t19 81.5v67q0 103 83 145q-83 42 -83 145v70q0 50 -19 82.5t-45 32.5v81q77 0 127.5 -50.5t50.5 -129.5v-73q0 -51 19 -84t45 -33v-82q-26 0 -45 -33t-19 -84v-69q0 -79 -50.5 -129.5t-127.5 -50.5z" />
    <glyph glyph-name="questiondown.case" horiz-adv-x="478" 
d="M377 138l71 -71q-88 -76 -200 -76q-95 0 -152 53.5t-57 131.5q0 40 15.5 69.5t38 48l45 36.5t38 45t15.5 62v59h111v-59q0 -48 -15.5 -85t-37 -58.5t-43.5 -39t-37.5 -36t-15.5 -40.5q0 -34 25.5 -61.5t72.5 -27.5q70 0 126 49zM312 643q0 -28 -19 -47t-47 -19
q-27 0 -46.5 19t-19.5 47t19.5 47t46.5 19q28 0 47 -19t19 -47z" />
    <glyph glyph-name="guillemotleft.case" horiz-adv-x="470" 
d="M200 176l-175 174l175 174l55 -55l-120 -119l120 -119zM376 176l-174 174l174 174l55 -55l-119 -119l119 -119z" />
    <glyph glyph-name="guillemotright.case" horiz-adv-x="470" 
d="M443 350l-174 -174l-55 55l119 119l-119 119l55 55zM266 350l-174 -174l-55 55l119 119l-119 119l55 55z" />
    <glyph glyph-name="guilsinglleft.case" horiz-adv-x="294" 
d="M200 176l-175 174l175 174l55 -55l-120 -119l120 -119z" />
    <glyph glyph-name="guilsinglright.case" horiz-adv-x="294" 
d="M266 350l-174 -174l-55 55l119 119l-119 119l55 55z" />
    <glyph glyph-name="hyphen.case" horiz-adv-x="340" 
d="M47 307v86h246v-86h-246z" />
    <glyph glyph-name="endash.case" horiz-adv-x="500" 
d="M47 307v86h406v-86h-406z" />
    <glyph glyph-name="emdash.case" horiz-adv-x="700" 
d="M47 307v86h606v-86h-606z" />
    <glyph glyph-name="bar.case" 
d="M58 -50v800h110v-800h-110z" />
    <glyph glyph-name="brokenbar.case" 
d="M58 -50v350h110v-350h-110zM168 750v-350h-110v350h110z" />
    <glyph glyph-name="asciitilde.case" horiz-adv-x="432" 
d="M96 293h-71q0 52 35 86t85 34q40 0 80 -28.5t62 -28.5q21 0 35 14.5t14 37.5h71q0 -53 -34 -86.5t-86 -33.5q-32 0 -57 14.5t-44.5 29t-39.5 14.5q-21 0 -35.5 -14.5t-14.5 -38.5z" />
    <glyph glyph-name="dagger.case" horiz-adv-x="500" 
d="M47 460v85h148v205h110v-205h148v-85h-148v-510h-110v510h-148z" />
    <glyph glyph-name="daggerdbl.case" horiz-adv-x="500" 
d="M47 160v85h148v215h-148v85h148v205h110v-205h148v-85h-148v-215h148v-85h-148v-210h-110v210h-148z" />
    <glyph glyph-name="bullet.case" horiz-adv-x="258" 
d="M43 350q0 36 25 61t61 25q37 0 61.5 -25t24.5 -61q0 -37 -24.5 -61.5t-61.5 -24.5q-36 0 -61 24.5t-25 61.5z" />
    <glyph glyph-name="A.smcp" horiz-adv-x="597" 
d="M458 0l-47 100h-226l-46 -100h-123l233 504h99l233 -504h-123zM298 365l-75 -171h151z" />
    <glyph glyph-name="Aacute.smcp" horiz-adv-x="597" 
d="M458 0l-47 100h-226l-46 -100h-123l233 504h99l233 -504h-123zM298 365l-75 -171h151zM232 569l112 108l50 -50l-111 -108z" />
    <glyph glyph-name="Abreve.smcp" horiz-adv-x="597" 
d="M458 0l-47 100h-226l-46 -100h-123l233 504h99l233 -504h-123zM298 365l-75 -171h151zM298 599q47 0 71 24l50 -49q-48 -48 -121 -48q-72 0 -119 49l49 49q23 -25 70 -25z" />
    <glyph glyph-name="Acircumflex.smcp" horiz-adv-x="597" 
d="M458 0l-47 100h-226l-46 -100h-123l233 504h99l233 -504h-123zM298 365l-75 -171h151zM298 677l111 -108l-49 -50l-62 59l-61 -59l-49 50z" />
    <glyph glyph-name="Agrave.smcp" horiz-adv-x="597" 
d="M458 0l-47 100h-226l-46 -100h-123l233 504h99l233 -504h-123zM298 365l-75 -171h151zM253 677l111 -108l-50 -50l-112 108z" />
    <glyph glyph-name="Adieresis.smcp" horiz-adv-x="597" 
d="M458 0l-47 100h-226l-46 -100h-123l233 504h99l233 -504h-123zM298 365l-75 -171h151zM171 576q0 22 15.5 38t37.5 16q23 0 39 -15.5t16 -38.5t-16 -38.5t-39 -15.5q-22 0 -37.5 16t-15.5 38zM317 576q0 23 16 39t39 16t38.5 -16t15.5 -39t-15.5 -38.5t-38.5 -15.5
t-39 15.5t-16 38.5z" />
    <glyph glyph-name="Amacron.smcp" horiz-adv-x="597" 
d="M458 0l-47 100h-226l-46 -100h-123l233 504h99l233 -504h-123zM298 365l-75 -171h151zM196 542v58h205v-58h-205z" />
    <glyph glyph-name="Aogonek.smcp" horiz-adv-x="597" 
d="M498 -23q0 -15 9 -24t24 -9q17 0 25 9l33 -32q-24 -21 -57 -21q-35 0 -57 21.5t-22 55.5q0 14 5 23l-47 100h-226l-46 -100h-123l233 504h99l233 -504h-77q-6 -9 -6 -23zM298 365l-75 -171h151z" />
    <glyph glyph-name="Aring.smcp" horiz-adv-x="597" 
d="M458 0l-47 100h-226l-46 -100h-123l233 504h99l233 -504h-123zM298 365l-75 -171h151zM229 581q0 31 19 50.5t50 19.5q32 0 51 -19t19 -51q0 -31 -19 -49.5t-51 -18.5q-31 0 -50 18.5t-19 49.5zM269 581q0 -13 8 -20.5t21 -7.5q31 0 31 28q0 13 -8.5 21t-22.5 8
q-13 0 -21 -8t-8 -21z" />
    <glyph glyph-name="Atilde.smcp" horiz-adv-x="597" 
d="M458 0l-47 100h-226l-46 -100h-123l233 504h99l233 -504h-123zM298 365l-75 -171h151zM232 538h-52q0 35 22 57t55 22q26 0 48 -15t34 -15q11 0 18.5 7.5t7.5 19.5h52q0 -36 -22 -58t-56 -22q-26 0 -47.5 15t-33.5 15q-11 0 -18.5 -7t-7.5 -19z" />
    <glyph glyph-name="AE.smcp" horiz-adv-x="608" 
d="M404 418v-123h147v-87h-147v-122h173v-86h-279v100h-113l-46 -100h-123l233 504h324v-86h-169zM223 194h75v175z" />
    <glyph glyph-name="AEacute.smcp" horiz-adv-x="608" 
d="M404 418v-123h147v-87h-147v-122h173v-86h-279v100h-113l-46 -100h-123l233 504h324v-86h-169zM223 194h75v175zM261 569l111 108l50 -50l-111 -108z" />
    <glyph glyph-name="B.smcp" horiz-adv-x="440" 
d="M45 0v504h172q69 0 110.5 -36.5t41.5 -98.5q0 -61 -45 -100q73 -39 73 -124q0 -66 -45.5 -105.5t-119.5 -39.5h-187zM291 153q0 28 -17.5 45.5t-46.5 17.5h-72v-126h72q29 0 46.5 17.5t17.5 45.5zM264 360q0 25 -15 39.5t-40 14.5h-54v-108h54q25 0 40 15t15 39z" />
    <glyph glyph-name="C.smcp" horiz-adv-x="537" 
d="M149 252q0 -73 46.5 -119t120.5 -46q76 0 122 43l67 -66q-74 -71 -195 -71t-196 72t-75 187t75 187t196 72t195 -71l-67 -67q-46 44 -122 44q-74 0 -120.5 -46t-46.5 -119z" />
    <glyph glyph-name="Cacute.smcp" horiz-adv-x="537" 
d="M149 252q0 -73 46.5 -119t120.5 -46q76 0 122 43l67 -66q-74 -71 -195 -71t-196 72t-75 187t75 187t196 72t195 -71l-67 -67q-46 44 -122 44q-74 0 -120.5 -46t-46.5 -119zM227 568l112 109l50 -50l-111 -108z" />
    <glyph glyph-name="Ccaron.smcp" horiz-adv-x="537" 
d="M149 252q0 -73 46.5 -119t120.5 -46q76 0 122 43l67 -66q-74 -71 -195 -71t-196 72t-75 187t75 187t196 72t195 -71l-67 -67q-46 44 -122 44q-74 0 -120.5 -46t-46.5 -119zM291 519l-110 108l50 50l60 -58l62 58l50 -50z" />
    <glyph glyph-name="Ccedilla.smcp" horiz-adv-x="537" 
d="M149 252q0 -73 46.5 -119t120.5 -46q76 0 122 43l67 -66q-69 -65 -177 -70v-30q51 -13 51 -62q0 -29 -19 -47.5t-50 -18.5t-53 20l29 29q13 -9 24 -9q13 0 21.5 7.5t8.5 20.5q0 29 -50 29v61q-113 6 -182 76.5t-69 181.5q0 115 75 187t196 72t195 -71l-67 -67
q-46 44 -122 44q-74 0 -120.5 -46t-46.5 -119z" />
    <glyph glyph-name="Ccircumflex.smcp" horiz-adv-x="537" 
d="M149 252q0 -73 46.5 -119t120.5 -46q76 0 122 43l67 -66q-74 -71 -195 -71t-196 72t-75 187t75 187t196 72t195 -71l-67 -67q-46 44 -122 44q-74 0 -120.5 -46t-46.5 -119zM295 677l111 -108l-50 -50l-61 59l-61 -59l-50 50z" />
    <glyph glyph-name="Cdotaccent.smcp" horiz-adv-x="537" 
d="M149 252q0 -73 46.5 -119t120.5 -46q76 0 122 43l67 -66q-74 -71 -195 -71t-196 72t-75 187t75 187t196 72t195 -71l-67 -67q-46 44 -122 44q-74 0 -120.5 -46t-46.5 -119zM237 587q0 25 16.5 41.5t41.5 16.5q24 0 41 -16.5t17 -41.5q0 -24 -17 -40.5t-41 -16.5
q-25 0 -41.5 16.5t-16.5 40.5z" />
    <glyph glyph-name="D.smcp" horiz-adv-x="546" 
d="M45 0v504h191q121 0 195.5 -68.5t74.5 -183.5t-74.5 -183.5t-195.5 -68.5h-191zM397 252q0 73 -45 117.5t-116 44.5h-81v-324h81q71 0 116 44.5t45 117.5z" />
    <glyph glyph-name="Dcaron.smcp" horiz-adv-x="546" 
d="M45 0v504h191q121 0 195.5 -68.5t74.5 -183.5t-74.5 -183.5t-195.5 -68.5h-191zM397 252q0 73 -45 117.5t-116 44.5h-81v-324h81q71 0 116 44.5t45 117.5zM265 519l-111 108l50 50l61 -58l61 58l50 -50z" />
    <glyph glyph-name="Dcroat.smcp" horiz-adv-x="545" 
d="M31 213v78h29v213h175q121 0 195.5 -68.5t74.5 -183.5t-74.5 -183.5t-195.5 -68.5h-175v213h-29zM395 252q0 73 -44.5 117.5t-115.5 44.5h-66v-123h96v-78h-96v-123h66q71 0 115.5 44.5t44.5 117.5z" />
    <glyph glyph-name="Eth.smcp" horiz-adv-x="545" 
d="M31 213v78h29v213h175q121 0 195.5 -68.5t74.5 -183.5t-74.5 -183.5t-195.5 -68.5h-175v213h-29zM395 252q0 73 -44.5 117.5t-115.5 44.5h-66v-123h96v-78h-96v-123h66q71 0 115.5 44.5t44.5 117.5z" />
    <glyph glyph-name="Thorn.smcp" horiz-adv-x="421" 
d="M45 0v504h110v-91h53q78 0 126 -42t48 -112q0 -69 -48 -111t-126 -42h-53v-106h-110zM273 259q0 28 -18 46t-47 18h-53v-127h53q29 0 47 17.5t18 45.5z" />
    <glyph glyph-name="E.smcp" horiz-adv-x="374" 
d="M151 418v-123h162v-87h-162v-122h188v-86h-294v504h290v-86h-184z" />
    <glyph glyph-name="Eacute.smcp" horiz-adv-x="374" 
d="M151 418v-123h162v-87h-162v-122h188v-86h-294v504h290v-86h-184zM125 569l110 108l50 -50l-111 -108z" />
    <glyph glyph-name="Ebreve.smcp" horiz-adv-x="374" 
d="M151 418v-123h162v-87h-162v-122h188v-86h-294v504h290v-86h-184zM189 599q46 0 72 24l49 -49q-48 -48 -121 -48q-72 0 -119 49l49 49q23 -25 70 -25z" />
    <glyph glyph-name="Ecaron.smcp" horiz-adv-x="374" 
d="M151 418v-123h162v-87h-162v-122h188v-86h-294v504h290v-86h-184zM189 519l-110 108l50 50l60 -58l62 58l50 -50z" />
    <glyph glyph-name="Ecircumflex.smcp" horiz-adv-x="374" 
d="M151 418v-123h162v-87h-162v-122h188v-86h-294v504h290v-86h-184zM189 677l112 -108l-50 -50l-62 59l-60 -59l-50 50z" />
    <glyph glyph-name="Edieresis.smcp" horiz-adv-x="374" 
d="M151 418v-123h162v-87h-162v-122h188v-86h-294v504h290v-86h-184zM62 576q0 22 16 38t38 16t38 -16t16 -38t-16 -38t-38 -16t-38 16t-16 38zM209 576q0 23 15.5 39t38.5 16t39 -16t16 -39t-16 -38.5t-39 -15.5t-38.5 15.5t-15.5 38.5z" />
    <glyph glyph-name="Edotaccent.smcp" horiz-adv-x="374" 
d="M151 418v-123h162v-87h-162v-122h188v-86h-294v504h290v-86h-184zM132 587q0 25 16.5 41.5t40.5 16.5q25 0 42 -16.5t17 -41.5q0 -24 -17 -40.5t-42 -16.5q-24 0 -40.5 16.5t-16.5 40.5z" />
    <glyph glyph-name="Egrave.smcp" horiz-adv-x="374" 
d="M151 418v-123h162v-87h-162v-122h188v-86h-294v504h290v-86h-184zM144 677l111 -108l-50 -50l-110 108z" />
    <glyph glyph-name="Emacron.smcp" horiz-adv-x="374" 
d="M151 418v-123h162v-87h-162v-122h188v-86h-294v504h290v-86h-184zM87 542v58h205v-58h-205z" />
    <glyph glyph-name="Eogonek.smcp" horiz-adv-x="374" 
d="M260 -23q0 -15 9 -24t24 -9q17 0 25 9l33 -32q-23 -21 -57 -21q-35 0 -57 21.5t-22 55.5q0 14 5 23h-175v504h290v-86h-184v-123h162v-87h-162v-122h188v-86h-73q-6 -9 -6 -23z" />
    <glyph glyph-name="F.smcp" horiz-adv-x="359" 
d="M151 418v-123h155v-87h-155v-208h-106v504h283v-86h-177z" />
    <glyph glyph-name="G.smcp" horiz-adv-x="551" 
d="M310 198v86h195v-220q-74 -71 -195 -71t-196 72t-75 187t75 187t196 72t195 -71l-67 -67q-46 44 -122 44q-74 0 -120.5 -46t-46.5 -119t46.5 -119t120.5 -46q49 0 83 14v97h-89z" />
    <glyph glyph-name="Gbreve.smcp" horiz-adv-x="551" 
d="M310 198v86h195v-220q-74 -71 -195 -71t-196 72t-75 187t75 187t196 72t195 -71l-67 -67q-46 44 -122 44q-74 0 -120.5 -46t-46.5 -119t46.5 -119t120.5 -46q49 0 83 14v97h-89zM308 599q47 0 71 24l49 -49q-48 -48 -120 -48q-71 0 -120 49l50 49q23 -25 70 -25z" />
    <glyph glyph-name="Gcircumflex.smcp" horiz-adv-x="551" 
d="M310 198v86h195v-220q-74 -71 -195 -71t-196 72t-75 187t75 187t196 72t195 -71l-67 -67q-46 44 -122 44q-74 0 -120.5 -46t-46.5 -119t46.5 -119t120.5 -46q49 0 83 14v97h-89zM309 677l111 -108l-50 -50l-61 59l-61 -59l-50 50z" />
    <glyph glyph-name="Gcommaaccent.smcp" horiz-adv-x="551" 
d="M310 198v86h195v-220q-74 -71 -195 -71t-196 72t-75 187t75 187t196 72t195 -71l-67 -67q-46 44 -122 44q-74 0 -120.5 -46t-46.5 -119t46.5 -119t120.5 -46q49 0 83 14v97h-89zM277 -194l-25 25q28 30 35 52q-15 3 -25 15.5t-10 27.5q0 20 13 33t33 13q18 0 32 -11.5
t14 -38.5q0 -49 -67 -116z" />
    <glyph glyph-name="Gdotaccent.smcp" horiz-adv-x="551" 
d="M310 198v86h195v-220q-74 -71 -195 -71t-196 72t-75 187t75 187t196 72t195 -71l-67 -67q-46 44 -122 44q-74 0 -120.5 -46t-46.5 -119t46.5 -119t120.5 -46q49 0 83 14v97h-89zM250 587q0 25 17 41.5t41 16.5q25 0 42 -16.5t17 -41.5q0 -24 -17 -40.5t-42 -16.5
q-24 0 -41 16.5t-17 40.5z" />
    <glyph glyph-name="H.smcp" horiz-adv-x="529" 
d="M151 504v-209h227v209h105v-504h-105v208h-227v-208h-106v504h106z" />
    <glyph glyph-name="Hbar.smcp" horiz-adv-x="544" 
d="M68 0v358h-37v78h37v68h106v-68h188v68h106v-68h45v-78h-45v-358h-106v208h-188v-208h-106zM174 295h188v63h-188v-63z" />
    <glyph glyph-name="Hcircumflex.smcp" horiz-adv-x="529" 
d="M151 504v-209h227v209h105v-504h-105v208h-227v-208h-106v504h106zM265 677l110 -108l-50 -50l-60 59l-62 -59l-50 50z" />
    <glyph glyph-name="I.smcp" horiz-adv-x="197" 
d="M45 0v504h106v-504h-106z" />
    <glyph glyph-name="Iacute.smcp" horiz-adv-x="197" 
d="M45 0v504h106v-504h-106zM33 569l112 108l49 -50l-111 -108z" />
    <glyph glyph-name="Ibreve.smcp" horiz-adv-x="198" 
d="M46 0v504h106v-504h-106zM99 599q47 0 71 24l49 -49q-48 -48 -120 -48q-71 0 -120 49l49 49q25 -25 71 -25z" />
    <glyph glyph-name="Icircumflex.smcp" horiz-adv-x="197" 
d="M45 0v504h106v-504h-106zM99 677l111 -108l-50 -50l-61 59l-62 -59l-50 50z" />
    <glyph glyph-name="Idieresis.smcp" horiz-adv-x="198" 
d="M46 0v504h105v-504h-105zM-22 576q0 23 16 38.5t39 15.5t38.5 -16t15.5 -38t-15.5 -38t-38.5 -16t-39 15.5t-16 38.5zM111 576q0 23 15.5 39t38.5 16t39 -16t16 -39t-16 -38.5t-39 -15.5t-38.5 16t-15.5 38z" />
    <glyph glyph-name="Idotaccent.smcp" horiz-adv-x="198" 
d="M46 0v504h105v-504h-105zM40 587q0 25 17 41.5t41 16.5q25 0 42 -16.5t17 -41.5q0 -24 -17 -40.5t-42 -16.5q-24 0 -41 16.5t-17 40.5z" />
    <glyph glyph-name="Igrave.smcp" horiz-adv-x="197" 
d="M45 0v504h106v-504h-106zM53 677l111 -108l-49 -50l-112 108z" />
    <glyph glyph-name="Imacron.smcp" horiz-adv-x="198" 
d="M46 0v504h106v-504h-106zM-3 542v58h205v-58h-205z" />
    <glyph glyph-name="Iogonek.smcp" horiz-adv-x="197" 
d="M85 -23q0 -15 9.5 -24t24.5 -9q16 0 25 9l32 -32q-23 -21 -56 -21q-35 0 -57.5 21.5t-22.5 55.5q0 11 5 23v504h106v-504h-60q-6 -12 -6 -23z" />
    <glyph glyph-name="Itilde.smcp" horiz-adv-x="197" 
d="M45 0v504h106v-504h-106zM33 538h-52q0 35 21.5 57t55.5 22q25 0 47.5 -15t34.5 -15q11 0 18 7.5t7 19.5h52q0 -36 -21.5 -58t-55.5 -22q-26 0 -48 15t-34 15q-11 0 -18 -7t-7 -19z" />
    <glyph glyph-name="IJ.smcp" horiz-adv-x="386" 
d="M45 180v324h106v-324h-106zM235 146v358h106v-358q0 -68 -45.5 -110.5t-116.5 -42.5q-73 0 -118 42l68 67q17 -15 45 -15q27 0 44 16t17 43z" />
    <glyph glyph-name="J.smcp" horiz-adv-x="356" 
d="M205 146v358h106v-358q0 -69 -45.5 -111t-117.5 -42q-70 0 -117 42l68 67q17 -15 45 -15q27 0 44 16t17 43z" />
    <glyph glyph-name="Jcircumflex.smcp" horiz-adv-x="355" 
d="M205 146v358h106v-358q0 -69 -45.5 -111t-117.5 -42q-70 0 -117 42l68 67q17 -15 45 -15q27 0 44 16t17 43zM257 677l111 -108l-50 -50l-61 59l-61 -59l-50 50z" />
    <glyph glyph-name="K.smcp" horiz-adv-x="494" 
d="M341 0l-190 246v-246h-106v504h106v-230l175 230h133l-186 -244l205 -260h-137z" />
    <glyph glyph-name="Kcommaaccent.smcp" horiz-adv-x="494" 
d="M341 0l-190 246v-246h-106v504h106v-230l175 230h133l-186 -244l205 -260h-137zM226 -194l-25 25q26 28 34 52q-15 3 -25 15.5t-10 27.5q0 20 13.5 33t33.5 13q17 0 31.5 -11.5t14.5 -38.5q0 -49 -67 -116z" />
    <glyph glyph-name="L.smcp" horiz-adv-x="364" 
d="M151 504v-418h182v-86h-288v504h106z" />
    <glyph glyph-name="Lacute.smcp" horiz-adv-x="364" 
d="M151 504v-418h182v-86h-288v504h106zM101 569l112 108l50 -50l-112 -108z" />
    <glyph glyph-name="Lcaron.smcp" horiz-adv-x="364" 
d="M151 504v-418h182v-86h-288v504h106zM99 519l-112 108l50 50l62 -58l61 58l49 -50z" />
    <glyph glyph-name="Lcommaaccent.smcp" horiz-adv-x="364" 
d="M151 504v-418h182v-86h-288v504h106zM167 -194l-24 25q25 25 35 52q-16 3 -26 15.5t-10 27.5q0 19 13.5 32.5t33.5 13.5q18 0 32.5 -11.5t14.5 -38.5q0 -49 -69 -116z" />
    <glyph glyph-name="Ldot.smcp" horiz-adv-x="365" 
d="M151 504v-418h182v-86h-288v504h106zM214 234q0 24 17 41t41 17q25 0 42 -17t17 -41q0 -25 -17 -41.5t-42 -16.5q-24 0 -41 16.5t-17 41.5z" />
    <glyph glyph-name="Lslash.smcp" horiz-adv-x="411" 
d="M9 150l83 81v273h106v-191l52 50l51 -50l-103 -99v-128h182v-86h-288v131l-33 -30z" />
    <glyph glyph-name="M.smcp" horiz-adv-x="611" 
d="M460 0v289l-137 -191h-35l-137 191v-289h-106v504h79l181 -250l182 250h79v-504h-106z" />
    <glyph glyph-name="N.smcp" horiz-adv-x="548" 
d="M45 504h67l284 -300v300h106v-504h-66l-285 300v-300h-106v504z" />
    <glyph glyph-name="Nacute.smcp" horiz-adv-x="548" 
d="M45 504h67l284 -300v300h106v-504h-66l-285 300v-300h-106v504zM208 569l111 108l50 -50l-111 -108z" />
    <glyph glyph-name="Ncaron.smcp" horiz-adv-x="548" 
d="M45 504h67l284 -300v300h106v-504h-66l-285 300v-300h-106v504zM273 519l-111 108l51 50l60 -58l62 58l50 -50z" />
    <glyph glyph-name="Ncommaaccent.smcp" horiz-adv-x="548" 
d="M45 504h67l284 -300v300h106v-504h-66l-285 300v-300h-106v504zM252 -194l-25 25q27 27 36 52q-16 3 -26 15.5t-10 27.5q0 20 13.5 33t32.5 13q18 0 32.5 -11.5t14.5 -38.5q0 -48 -68 -116z" />
    <glyph glyph-name="Ntilde.smcp" horiz-adv-x="548" 
d="M45 504h67l284 -300v300h106v-504h-66l-285 300v-300h-106v504zM207 538h-52q0 35 22 57t55 22q26 0 48 -15t34 -15q11 0 18 7.5t7 19.5h53q0 -36 -22 -58t-56 -22q-25 0 -47 15t-34 15q-11 0 -18.5 -7t-7.5 -19z" />
    <glyph glyph-name="Eng.smcp" horiz-adv-x="548" 
d="M366 -180v66q14 0 22 8t8 22v130l-245 254v-300h-106v504h67l284 -300v300h106v-591q0 -43 -26.5 -70t-73.5 -27q-24 0 -36 4z" />
    <glyph glyph-name="O.smcp" horiz-adv-x="620" 
d="M39 252q0 115 75 187t196 72t195.5 -71.5t74.5 -187.5t-74.5 -187.5t-195.5 -71.5t-196 72t-75 187zM149 252q0 -73 45 -119t116 -46t116 46t45 119t-45 119t-116 46t-116 -46t-45 -119z" />
    <glyph glyph-name="Oacute.smcp" horiz-adv-x="620" 
d="M39 252q0 115 75 187t196 72t195.5 -71.5t74.5 -187.5t-74.5 -187.5t-195.5 -71.5t-196 72t-75 187zM149 252q0 -73 45 -119t116 -46t116 46t45 119t-45 119t-116 46t-116 -46t-45 -119zM244 569l112 108l49 -50l-111 -108z" />
    <glyph glyph-name="Obreve.smcp" horiz-adv-x="620" 
d="M39 252q0 115 75 187t196 72t195.5 -71.5t74.5 -187.5t-74.5 -187.5t-195.5 -71.5t-196 72t-75 187zM149 252q0 -73 45 -119t116 -46t116 46t45 119t-45 119t-116 46t-116 -46t-45 -119zM310 599q46 0 70 24l50 -49q-48 -48 -120 -48q-73 0 -120 49l49 49q25 -25 71 -25z
" />
    <glyph glyph-name="Ocircumflex.smcp" horiz-adv-x="620" 
d="M39 252q0 115 75 187t196 72t195.5 -71.5t74.5 -187.5t-74.5 -187.5t-195.5 -71.5t-196 72t-75 187zM149 252q0 -73 45 -119t116 -46t116 46t45 119t-45 119t-116 46t-116 -46t-45 -119zM310 677l111 -108l-50 -50l-61 59l-61 -59l-51 50z" />
    <glyph glyph-name="Odieresis.smcp" horiz-adv-x="620" 
d="M39 252q0 115 75 187t196 72t195.5 -71.5t74.5 -187.5t-74.5 -187.5t-195.5 -71.5t-196 72t-75 187zM149 252q0 -73 45 -119t116 -46t116 46t45 119t-45 119t-116 46t-116 -46t-45 -119zM182 576q0 22 16 38t38 16q23 0 39 -16t16 -38t-16 -38t-39 -16q-22 0 -38 16
t-16 38zM329 576q0 23 15.5 39t38.5 16t39 -16t16 -39t-16 -38.5t-39 -15.5t-38.5 16t-15.5 38z" />
    <glyph glyph-name="Ograve.smcp" horiz-adv-x="620" 
d="M39 252q0 115 75 187t196 72t195.5 -71.5t74.5 -187.5t-74.5 -187.5t-195.5 -71.5t-196 72t-75 187zM149 252q0 -73 45 -119t116 -46t116 46t45 119t-45 119t-116 46t-116 -46t-45 -119zM264 677l111 -108l-49 -50l-112 108z" />
    <glyph glyph-name="Ohungarumlaut.smcp" horiz-adv-x="620" 
d="M39 252q0 115 75 187t196 72t195.5 -71.5t74.5 -187.5t-74.5 -187.5t-195.5 -71.5t-196 72t-75 187zM149 252q0 -73 45 -119t116 -46t116 46t45 119t-45 119t-116 46t-116 -46t-45 -119zM180 569l111 108l50 -50l-111 -108zM309 569l111 108l50 -50l-111 -108z" />
    <glyph glyph-name="Omacron.smcp" horiz-adv-x="620" 
d="M39 252q0 115 75 187t196 72t195.5 -71.5t74.5 -187.5t-74.5 -187.5t-195.5 -71.5t-196 72t-75 187zM149 252q0 -73 45 -119t116 -46t116 46t45 119t-45 119t-116 46t-116 -46t-45 -119zM208 542v58h204v-58h-204z" />
    <glyph glyph-name="Oslash.smcp" horiz-adv-x="619" 
d="M30 -7l73 83q-64 70 -64 176q0 115 75 187t196 72q81 0 143 -34l30 34h105l-72 -83q64 -69 64 -176q0 -116 -74.5 -187.5t-195.5 -71.5q-81 0 -144 34l-29 -34h-107zM470 252q0 54 -26 94l-211 -242q36 -17 77 -17q71 0 115.5 46t44.5 119zM149 252q0 -53 25 -94l212 242
q-34 17 -76 17q-71 0 -116 -46t-45 -119z" />
    <glyph glyph-name="Oslashacute.smcp" horiz-adv-x="619" 
d="M30 -7l73 83q-64 70 -64 176q0 115 75 187t196 72q81 0 143 -34l30 34h105l-72 -83q64 -69 64 -176q0 -116 -74.5 -187.5t-195.5 -71.5q-81 0 -144 34l-29 -34h-107zM470 252q0 54 -26 94l-211 -242q36 -17 77 -17q71 0 115.5 46t44.5 119zM149 252q0 -53 25 -94l212 242
q-34 17 -76 17q-71 0 -116 -46t-45 -119zM244 569l111 108l50 -50l-111 -108z" />
    <glyph glyph-name="Otilde.smcp" horiz-adv-x="620" 
d="M39 252q0 115 75 187t196 72t195.5 -71.5t74.5 -187.5t-74.5 -187.5t-195.5 -71.5t-196 72t-75 187zM149 252q0 -73 45 -119t116 -46t116 46t45 119t-45 119t-116 46t-116 -46t-45 -119zM244 538h-53q0 35 22 57t56 22q25 0 47.5 -15t34.5 -15q11 0 18 7.5t7 19.5h52
q0 -36 -21.5 -58t-55.5 -22q-26 0 -48 15t-34 15q-25 0 -25 -26z" />
    <glyph glyph-name="OE.smcp" horiz-adv-x="694" 
d="M487 418v-123h150v-87h-150v-122h176v-86h-280q-42 -7 -73 -7q-121 0 -196 72t-75 187t75 187t196 72q31 0 71 -7h278v-86h-172zM310 87q38 0 71 14v302q-33 14 -71 14q-71 0 -116 -46t-45 -119t45 -119t116 -46z" />
    <glyph glyph-name="P.smcp" horiz-adv-x="421" 
d="M45 0v504h163q79 0 126.5 -41.5t47.5 -112.5q0 -69 -48 -111t-126 -42h-53v-197h-110zM273 350q0 29 -18 46.5t-47 17.5h-53v-126h53q29 0 47 17t18 45z" />
    <glyph glyph-name="Q.smcp" horiz-adv-x="620" 
d="M519 -14l-51 48q-65 -41 -158 -41q-121 0 -196 72t-75 187t75 187t196 72t195.5 -71.5t74.5 -187.5q0 -85 -46 -152l52 -48zM149 252q0 -73 45 -119t116 -46q59 0 89 15l-68 65l66 66l58 -55q16 37 16 74q0 73 -45 119t-116 46t-116 -46t-45 -119z" />
    <glyph glyph-name="R.smcp" horiz-adv-x="437" 
d="M298 0l-101 197h-42v-197h-110v504h171q79 0 126.5 -41.5t47.5 -112.5q0 -48 -24 -84t-67 -54l119 -212h-120zM280 350q0 29 -17.5 46.5t-46.5 17.5h-61v-126h61q29 0 46.5 17t17.5 45z" />
    <glyph glyph-name="Racute.smcp" horiz-adv-x="437" 
d="M298 0l-101 197h-42v-197h-110v504h171q79 0 126.5 -41.5t47.5 -112.5q0 -48 -24 -84t-67 -54l119 -212h-120zM280 350q0 29 -17.5 46.5t-46.5 17.5h-61v-126h61q29 0 46.5 17t17.5 45zM145 569l111 108l50 -50l-111 -108z" />
    <glyph glyph-name="Rcaron.smcp" horiz-adv-x="437" 
d="M298 0l-101 197h-42v-197h-110v504h171q79 0 126.5 -41.5t47.5 -112.5q0 -48 -24 -84t-67 -54l119 -212h-120zM210 519l-111 108l51 50l60 -58l61 58l51 -50zM280 350q0 29 -17.5 46.5t-46.5 17.5h-61v-126h61q29 0 46.5 17t17.5 45z" />
    <glyph glyph-name="Rcommaaccent.smcp" horiz-adv-x="437" 
d="M298 0l-101 197h-42v-197h-110v504h171q79 0 126.5 -41.5t47.5 -112.5q0 -48 -24 -84t-67 -54l119 -212h-120zM280 350q0 29 -17.5 46.5t-46.5 17.5h-61v-126h61q29 0 46.5 17t17.5 45zM197 -194l-25 25q25 25 35 52q-16 3 -26 15.5t-10 27.5q0 19 13.5 32.5t33.5 13.5
q18 0 32.5 -11.5t14.5 -38.5q0 -50 -68 -116z" />
    <glyph glyph-name="S.smcp" horiz-adv-x="442" 
d="M385 441l-66 -65q-43 41 -95 41q-30 0 -46.5 -17t-16.5 -37q0 -22 24 -37.5t58.5 -27t69.5 -26.5t59 -46.5t24 -77.5q0 -68 -47 -111.5t-128 -43.5q-105 0 -186 78l65 66q56 -50 110 -50q35 0 55 18t20 40t-24 36.5t-58.5 25.5t-68.5 26t-58 47.5t-24 79.5
q0 66 42.5 108.5t118.5 42.5q99 0 172 -70z" />
    <glyph glyph-name="Sacute.smcp" horiz-adv-x="442" 
d="M385 441l-66 -65q-43 41 -95 41q-30 0 -46.5 -17t-16.5 -37q0 -22 24 -37.5t58.5 -27t69.5 -26.5t59 -46.5t24 -77.5q0 -68 -47 -111.5t-128 -43.5q-105 0 -186 78l65 66q56 -50 110 -50q35 0 55 18t20 40t-24 36.5t-58.5 25.5t-68.5 26t-58 47.5t-24 79.5
q0 66 42.5 108.5t118.5 42.5q99 0 172 -70zM149 569l111 108l50 -50l-111 -108z" />
    <glyph glyph-name="Scaron.smcp" horiz-adv-x="442" 
d="M385 441l-66 -65q-43 41 -95 41q-30 0 -46.5 -17t-16.5 -37q0 -22 24 -37.5t58.5 -27t69.5 -26.5t59 -46.5t24 -77.5q0 -68 -47 -111.5t-128 -43.5q-105 0 -186 78l65 66q56 -50 110 -50q35 0 55 18t20 40t-24 36.5t-58.5 25.5t-68.5 26t-58 47.5t-24 79.5
q0 66 42.5 108.5t118.5 42.5q99 0 172 -70zM214 519l-111 108l50 50l61 -58l61 58l51 -50z" />
    <glyph glyph-name="Scedilla.smcp" horiz-adv-x="442" 
d="M385 441l-66 -65q-43 41 -95 41q-30 0 -46.5 -17t-16.5 -37q0 -22 24 -37.5t58.5 -27t69.5 -26.5t59 -46.5t24 -77.5q0 -64 -41.5 -107t-114.5 -47v-30q51 -13 51 -62q0 -29 -19.5 -47.5t-50.5 -18.5q-30 0 -52 20l29 29q11 -9 23 -9q14 0 22 7.5t8 20.5q0 29 -49 29v61
q-96 7 -167 77l65 66q56 -50 110 -50q35 0 55 18t20 40t-24 36.5t-58.5 25.5t-68.5 26t-58 47.5t-24 79.5q0 66 42.5 108.5t118.5 42.5q99 0 172 -70z" />
    <glyph glyph-name="Scircumflex.smcp" horiz-adv-x="442" 
d="M385 441l-66 -65q-43 41 -95 41q-30 0 -46.5 -17t-16.5 -37q0 -22 24 -37.5t58.5 -27t69.5 -26.5t59 -46.5t24 -77.5q0 -68 -47 -111.5t-128 -43.5q-105 0 -186 78l65 66q56 -50 110 -50q35 0 55 18t20 40t-24 36.5t-58.5 25.5t-68.5 26t-58 47.5t-24 79.5
q0 66 42.5 108.5t118.5 42.5q99 0 172 -70zM214 677l112 -108l-51 -50l-61 59l-61 -59l-50 50z" />
    <glyph glyph-name="Scommaaccent.smcp" horiz-adv-x="442" 
d="M385 441l-66 -65q-43 41 -95 41q-30 0 -46.5 -17t-16.5 -37q0 -22 24 -37.5t58.5 -27t69.5 -26.5t59 -46.5t24 -77.5q0 -68 -47 -111.5t-128 -43.5q-105 0 -186 78l65 66q56 -50 110 -50q35 0 55 18t20 40t-24 36.5t-58.5 25.5t-68.5 26t-58 47.5t-24 79.5
q0 66 42.5 108.5t118.5 42.5q99 0 172 -70zM200 -194l-24 25q26 28 35 52q-16 3 -26 15.5t-10 27.5q0 19 13.5 32.5t33.5 13.5q18 0 32 -11.5t14 -38.5q0 -50 -68 -116z" />
    <glyph glyph-name="T.smcp" horiz-adv-x="437" 
d="M271 418v-418h-106v418h-134v86h373v-86h-133z" />
    <glyph glyph-name="Tbar.smcp" horiz-adv-x="437" 
d="M68 227v79h97v112h-134v86h373v-86h-133v-112h96v-79h-96v-227h-106v227h-97z" />
    <glyph glyph-name="two.fitted" horiz-adv-x="530" 
d="M42 91l299 297q32 33 32 94q0 57 -31 92.5t-80 35.5t-79.5 -35.5t-30.5 -92.5h-114q0 101 62 164t162 63q101 0 163 -63t62 -164q0 -94 -74 -168l-221 -220h295v-94h-445v91z" />
    <glyph glyph-name="three.fitted" horiz-adv-x="530" 
d="M218 331v92h46q40 0 66 27t26 68t-25.5 67t-66.5 26q-40 0 -65 -26t-25 -67h-115q0 85 57 138t148 53q92 0 149 -53t57 -138q0 -93 -72 -139q95 -53 95 -170q0 -97 -63.5 -157.5t-165.5 -60.5q-101 0 -164.5 60.5t-63.5 157.5h114q0 -53 32 -86.5t82 -33.5q51 0 83 33.5
t32 86.5t-32 87.5t-83 34.5h-46z" />
    <glyph glyph-name="four.fitted" horiz-adv-x="530" 
d="M328 0v125h-307v49l303 526h110v-481h58v-94h-53v-125h-111zM159 219h173v316z" />
    <glyph glyph-name="five.fitted" horiz-adv-x="530" 
d="M487 218q0 -101 -62 -164t-163 -63q-100 0 -162 60.5t-62 158.5h110q0 -53 32 -86.5t82 -33.5q49 0 80 35.5t31 92.5q0 62 -36 101t-94 39q-60 0 -96 -38l-80 27l40 353h326v-94h-229l-19 -162q27 12 65 12q106 0 171.5 -65.5t65.5 -172.5z" />
    <glyph glyph-name="six.fitted" horiz-adv-x="530" 
d="M286 709l95 -54q-105 -121 -165 -231q22 9 51 9q100 0 163 -60t63 -160q0 -99 -63 -160.5t-166 -61.5q-102 0 -164.5 62t-62.5 170q0 110 63 224.5t186 261.5zM152 214q0 -55 31.5 -90t81.5 -35t81.5 35t31.5 90t-31.5 90t-81.5 35t-81.5 -35t-31.5 -90z" />
    <glyph glyph-name="seven.fitted" horiz-adv-x="530" 
d="M42 606v94h446v-32l-235 -668h-118l210 606h-303z" />
    <glyph glyph-name="eight.fitted" horiz-adv-x="530" 
d="M59 518q0 85 57.5 138t148.5 53t148.5 -53t57.5 -138q0 -94 -73 -139q96 -53 96 -170q0 -97 -63.5 -157.5t-165.5 -60.5t-165.5 60.5t-63.5 157.5q0 117 94 170q-71 45 -71 139zM150 209q0 -53 32 -86.5t83 -33.5t83 33.5t32 86.5t-32 86.5t-83 33.5t-83 -33.5t-32 -86.5
zM174 518q0 -41 25.5 -67t65.5 -26t65.5 26t25.5 67t-25.5 67t-65.5 26t-65.5 -26t-25.5 -67z" />
    <glyph glyph-name="nine.fitted" horiz-adv-x="530" 
d="M243 -9l-95 54q105 120 165 231q-22 -9 -50 -9q-100 0 -162 60t-62 160q0 99 62.5 160.5t164.5 61.5q101 0 163 -62t62 -170q0 -110 -62.5 -225t-185.5 -261zM377 486q0 55 -31 90t-81 35t-81 -35t-31 -90t31 -90t81 -35t81 35t31 90z" />
    <glyph glyph-name="exclamdown.case" 
d="M47 643q0 28 19 47t47 19t47 -19t19 -47t-19 -47t-47 -19t-47 19t-19 47zM58 496h110v-496h-110v496z" />
    <glyph glyph-name="Uhungarumlaut.smcp" horiz-adv-x="505" 
d="M353 188v316h106v-316q0 -87 -58 -141t-150 -54t-149 54t-57 141v316h106v-316q0 -45 28 -73t72 -28q45 0 73.5 28t28.5 73zM122 569l111 108l50 -50l-112 -108zM251 569l111 108l50 -50l-111 -108z" />
    <glyph glyph-name="Umacron.smcp" horiz-adv-x="505" 
d="M353 188v316h106v-316q0 -87 -58 -141t-150 -54t-149 54t-57 141v316h106v-316q0 -45 28 -73t72 -28q45 0 73.5 28t28.5 73zM149 542v58h205v-58h-205z" />
    <glyph glyph-name="Uogonek.smcp" horiz-adv-x="505" 
d="M307 -23q0 -15 9.5 -24t24.5 -9q16 0 25 9l31 -32q-21 -21 -55 -21q-35 0 -57.5 21.5t-22.5 55.5q0 12 2 16h-13q-92 0 -149 54t-57 141v316h106v-316q0 -45 28 -73t72 -28q45 0 73.5 28t28.5 73v316h106v-316q0 -71 -40 -121t-107 -67h1q-6 -9 -6 -23z" />
    <glyph glyph-name="Uring.smcp" horiz-adv-x="505" 
d="M353 188v316h106v-316q0 -87 -58 -141t-150 -54t-149 54t-57 141v316h106v-316q0 -45 28 -73t72 -28q45 0 73.5 28t28.5 73zM182 581q0 31 19 50.5t51 19.5t51 -19.5t19 -50.5t-19 -49.5t-51 -18.5t-51 18.5t-19 49.5zM222 581q0 -13 8 -20.5t22 -7.5t22 7.5t8 20.5
t-8.5 21t-21.5 8q-30 0 -30 -29z" />
    <glyph glyph-name="Utilde.smcp" horiz-adv-x="505" 
d="M353 188v316h106v-316q0 -87 -58 -141t-150 -54t-149 54t-57 141v316h106v-316q0 -45 28 -73t72 -28q45 0 73.5 28t28.5 73zM186 538h-52q0 35 21.5 57t54.5 22q26 0 48.5 -15t34.5 -15q11 0 18 7.5t7 19.5h52q0 -36 -22 -58t-55 -22q-26 0 -48 15t-34 15q-11 0 -18 -7
t-7 -19z" />
    <glyph glyph-name="V.smcp" horiz-adv-x="597" 
d="M581 504l-233 -504h-99l-233 504h125l157 -363l158 363h125z" />
    <glyph glyph-name="W.smcp" horiz-adv-x="834" 
d="M819 504l-186 -504h-106l-110 317l-109 -317h-107l-185 504h124l114 -336l108 336h110l108 -336l115 336h124z" />
    <glyph glyph-name="Wacute.smcp" horiz-adv-x="834" 
d="M819 504l-186 -504h-106l-110 317l-109 -317h-107l-185 504h124l114 -336l108 336h110l108 -336l115 336h124zM351 569l112 108l49 -50l-111 -108z" />
    <glyph glyph-name="Wcircumflex.smcp" horiz-adv-x="834" 
d="M819 504l-186 -504h-106l-110 317l-109 -317h-107l-185 504h124l114 -336l108 336h110l108 -336l115 336h124zM417 677l111 -108l-51 -50l-60 59l-61 -59l-51 50z" />
    <glyph glyph-name="Wdieresis.smcp" horiz-adv-x="834" 
d="M819 504l-186 -504h-106l-110 317l-109 -317h-107l-185 504h124l114 -336l108 336h110l108 -336l115 336h124zM288 576q0 22 16 38t39 16t39 -16t16 -38t-16 -38t-39 -16t-39 16t-16 38zM436 576q0 23 15.5 39t38.5 16t39 -16t16 -39t-16 -38.5t-39 -15.5q-22 0 -38 16
t-16 38z" />
    <glyph glyph-name="Wgrave.smcp" horiz-adv-x="834" 
d="M819 504l-186 -504h-106l-110 317l-109 -317h-107l-185 504h124l114 -336l108 336h110l108 -336l115 336h124zM371 677l111 -108l-49 -50l-112 108z" />
    <glyph glyph-name="X.smcp" horiz-adv-x="578" 
d="M426 0l-137 185l-137 -185h-136l194 256l-187 248h137l129 -175l129 175h137l-188 -248l196 -256h-137z" />
    <glyph glyph-name="Y.smcp" horiz-adv-x="534" 
d="M214 0v199l-198 305h122l129 -201l129 201h122l-198 -306v-198h-106z" />
    <glyph glyph-name="Yacute.smcp" horiz-adv-x="534" 
d="M214 0v199l-198 305h122l129 -201l129 201h122l-198 -306v-198h-106zM201 569l111 108l51 -50l-112 -108z" />
    <glyph glyph-name="Ycircumflex.smcp" horiz-adv-x="534" 
d="M214 0v199l-198 305h122l129 -201l129 201h122l-198 -306v-198h-106zM267 677l111 -108l-50 -50l-61 59l-61 -59l-50 50z" />
    <glyph glyph-name="Ydieresis.smcp" horiz-adv-x="534" 
d="M214 0v199l-198 305h122l129 -201l129 201h122l-198 -306v-198h-106zM139 576q0 22 15.5 38t38.5 16t38.5 -16t15.5 -38t-15.5 -38t-38.5 -16t-38.5 16t-15.5 38zM285 576q0 23 16 39t39 16t39 -16t16 -39t-16 -38.5t-39 -15.5t-39 15.5t-16 38.5z" />
    <glyph glyph-name="Ygrave.smcp" horiz-adv-x="534" 
d="M214 0v199l-198 305h122l129 -201l129 201h122l-198 -306v-198h-106zM221 677l112 -108l-51 -50l-111 108z" />
    <glyph glyph-name="Z.smcp" horiz-adv-x="490" 
d="M43 418v86h408v-26l-254 -392h254v-86h-412v27l254 391h-250z" />
    <glyph glyph-name="Zacute.smcp" horiz-adv-x="490" 
d="M43 418v86h408v-26l-254 -392h254v-86h-412v27l254 391h-250zM179 569l112 108l49 -50l-111 -108z" />
    <glyph glyph-name="Zcaron.smcp" horiz-adv-x="490" 
d="M43 418v86h408v-26l-254 -392h254v-86h-412v27l254 391h-250zM245 519l-112 108l51 50l61 -58l61 58l50 -50z" />
    <glyph glyph-name="Zdotaccent.smcp" horiz-adv-x="490" 
d="M43 418v86h408v-26l-254 -392h254v-86h-412v27l254 391h-250zM187 587q0 25 16.5 41.5t41.5 16.5q24 0 41.5 -17t17.5 -41t-17.5 -40.5t-41.5 -16.5q-25 0 -41.5 16.5t-16.5 40.5z" />
    <glyph glyph-name="uni018F.smcp" horiz-adv-x="567" 
d="M527 252q0 -116 -67.5 -187.5t-176.5 -71.5q-108 0 -176 72t-68 187v39h375q-12 57 -56 91.5t-107 34.5q-77 0 -123 -44l-67 67q76 71 195 71q121 0 196 -71.5t75 -187.5zM283 87q49 0 83.5 32t45.5 86h-258q11 -54 45.5 -86t83.5 -32z" />
    <glyph glyph-name="afii10017.smcp" horiz-adv-x="597" 
d="M458 0l-47 100h-226l-46 -100h-123l233 504h99l233 -504h-123zM298 365l-75 -171h151z" />
    <glyph glyph-name="afii10018.smcp" horiz-adv-x="429" 
d="M45 0v504h300v-86h-190v-111h61q78 0 125.5 -42t47.5 -112t-47.5 -111.5t-125.5 -41.5h-171zM279 153q0 29 -17.5 46t-45.5 17h-61v-126h61q28 0 45.5 17t17.5 46z" />
    <glyph glyph-name="afii10019.smcp" horiz-adv-x="440" 
d="M45 0v504h172q69 0 110.5 -36.5t41.5 -98.5q0 -61 -45 -100q73 -39 73 -124q0 -66 -45.5 -105.5t-119.5 -39.5h-187zM291 153q0 28 -17.5 45.5t-46.5 17.5h-72v-126h72q29 0 46.5 17.5t17.5 45.5zM264 360q0 25 -15 39.5t-40 14.5h-54v-108h54q25 0 40 15t15 39z" />
    <glyph glyph-name="afii10020.smcp" horiz-adv-x="364" 
d="M45 0v504h288v-86h-182v-418h-106z" />
    <glyph glyph-name="afii10021.smcp" horiz-adv-x="539" 
d="M417 0h-295v-108h-98v190q38 0 60 30t22 82v310h352v-418h57v-194h-98v108zM216 194q0 -66 -36 -108h168v332h-132v-224z" />
    <glyph glyph-name="afii10022.smcp" horiz-adv-x="374" 
d="M151 418v-123h162v-87h-162v-122h188v-86h-294v504h290v-86h-184z" />
    <glyph glyph-name="afii10023.smcp" horiz-adv-x="374" 
d="M151 418v-123h162v-87h-162v-122h188v-86h-294v504h290v-86h-184zM62 576q0 22 16 38t38 16t38 -16t16 -38t-16 -38t-38 -16t-38 16t-16 38zM209 576q0 23 15.5 39t38.5 16t39 -16t16 -39t-16 -38.5t-39 -15.5t-38.5 15.5t-15.5 38.5z" />
    <glyph glyph-name="afii10024.smcp" horiz-adv-x="739" 
d="M598 0l-175 243v-243h-106v244l-176 -244h-125l190 260l-175 244h122l164 -229v229h106v-228l163 228h122l-175 -244l190 -260h-125z" />
    <glyph glyph-name="afii10025.smcp" horiz-adv-x="440" 
d="M153 216v90h55q28 0 45.5 14.5t17.5 39.5q0 29 -19.5 44.5t-50.5 15.5q-54 0 -98 -42l-64 62q73 71 171 71q78 0 122.5 -40t44.5 -101q0 -63 -54 -101q74 -39 74 -124q0 -70 -49.5 -111t-131.5 -41q-111 0 -185 71l66 66q48 -46 110 -46q39 0 61.5 19.5t22.5 50.5
q0 28 -17.5 45t-46.5 17h-74z" />
    <glyph glyph-name="afii10026.smcp" horiz-adv-x="536" 
d="M424 504h67v-504h-106v300l-273 -300h-67v504h106v-300z" />
    <glyph glyph-name="afii10027.smcp" horiz-adv-x="536" 
d="M268 599q45 0 71 24l49 -49q-48 -48 -120 -48q-73 0 -120 49l49 49q25 -25 71 -25zM424 504h67v-504h-106v300l-273 -300h-67v504h106v-300z" />
    <glyph glyph-name="afii10028.smcp" horiz-adv-x="494" 
d="M341 0l-190 246v-246h-106v504h106v-230l175 230h133l-186 -244l205 -260h-137z" />
    <glyph glyph-name="afii10029.smcp" horiz-adv-x="511" 
d="M30 0v66q38 0 61 22.5t23 59.5v356h352v-504h-111v418h-132v-267q0 -69 -37.5 -112t-104.5 -43q-35 0 -51 4z" />
    <glyph glyph-name="afii10030.smcp" horiz-adv-x="611" 
d="M460 0v289l-137 -191h-35l-137 191v-289h-106v504h79l181 -250l182 250h79v-504h-106z" />
    <glyph glyph-name="afii10031.smcp" horiz-adv-x="529" 
d="M151 504v-209h227v209h105v-504h-105v208h-227v-208h-106v504h106z" />
    <glyph glyph-name="afii10032.smcp" horiz-adv-x="620" 
d="M39 252q0 115 75 187t196 72t195.5 -71.5t74.5 -187.5t-74.5 -187.5t-195.5 -71.5t-196 72t-75 187zM149 252q0 -73 45 -119t116 -46t116 46t45 119t-45 119t-116 46t-116 -46t-45 -119z" />
    <glyph glyph-name="afii10033.smcp" horiz-adv-x="498" 
d="M45 504h408v-504h-106v418h-196v-418h-106v504z" />
    <glyph glyph-name="afii10034.smcp" horiz-adv-x="421" 
d="M45 0v504h163q79 0 126.5 -41.5t47.5 -112.5q0 -69 -48 -111t-126 -42h-53v-197h-110zM273 350q0 29 -18 46.5t-47 17.5h-53v-126h53q29 0 47 17t18 45z" />
    <glyph glyph-name="afii10035.smcp" horiz-adv-x="537" 
d="M149 252q0 -73 46.5 -119t120.5 -46q76 0 122 43l67 -66q-74 -71 -195 -71t-196 72t-75 187t75 187t196 72t195 -71l-67 -67q-46 44 -122 44q-74 0 -120.5 -46t-46.5 -119z" />
    <glyph glyph-name="afii10036.smcp" horiz-adv-x="437" 
d="M271 418v-418h-106v418h-134v86h373v-86h-133z" />
    <glyph glyph-name="afii10037.smcp" horiz-adv-x="476" 
d="M464 504l-254 -504h-114l93 158l-177 346h114l113 -221l112 221h113z" />
    <glyph glyph-name="afii10038.smcp" horiz-adv-x="637" 
d="M266 0v47q-101 0 -164 57t-63 148t63 148t164 57v47h105v-47q102 0 164 -56.5t62 -148.5t-62 -148.5t-164 -56.5v-47h-105zM371 363v-222q52 0 84 30.5t32 80.5t-32 80.5t-84 30.5zM266 141v222q-52 0 -84.5 -31t-32.5 -80t32.5 -80t84.5 -31z" />
    <glyph glyph-name="afii10039.smcp" horiz-adv-x="578" 
d="M426 0l-137 185l-137 -185h-136l194 256l-187 248h137l129 -175l129 175h137l-188 -248l196 -256h-137z" />
    <glyph glyph-name="afii10040.smcp" horiz-adv-x="560" 
d="M438 0h-393v504h106v-418h226v418h106v-418h53v-194h-98v108z" />
    <glyph glyph-name="afii10041.smcp" horiz-adv-x="450" 
d="M404 0h-102v206q-45 -11 -100 -11q-77 0 -117 42t-40 120v147h102v-143q0 -46 18.5 -65t58.5 -19q45 0 78 10v217h102v-504z" />
    <glyph glyph-name="afii10042.smcp" horiz-adv-x="748" 
d="M702 0h-657v504h106v-418h170v418h106v-418h170v418h105v-504z" />
    <glyph glyph-name="afii10043.smcp" horiz-adv-x="779" 
d="M657 0h-612v504h106v-418h170v418h106v-418h170v418h105v-418h53v-194h-98v108z" />
    <glyph glyph-name="afii10044.smcp" horiz-adv-x="527" 
d="M31 418v86h222v-197h61q78 0 126 -42t48 -112t-47.5 -111.5t-126.5 -41.5h-171v418h-112zM378 153q0 28 -17.5 45.5t-46.5 17.5h-61v-126h61q29 0 46.5 17.5t17.5 45.5z" />
    <glyph glyph-name="afii10045.smcp" horiz-adv-x="596" 
d="M45 0v504h110v-197h61q78 0 126 -42t48 -112t-47.5 -111.5t-126.5 -41.5h-171zM280 153q0 28 -17.5 45.5t-46.5 17.5h-61v-126h61q29 0 46.5 17.5t17.5 45.5zM444 0v504h106v-504h-106z" />
    <glyph glyph-name="afii10046.smcp" horiz-adv-x="429" 
d="M45 0v504h110v-197h61q78 0 126 -42t48 -112t-47.5 -111.5t-126.5 -41.5h-171zM280 153q0 28 -17.5 45.5t-46.5 17.5h-61v-126h61q29 0 46.5 17.5t17.5 45.5z" />
    <glyph glyph-name="afii10047.smcp" horiz-adv-x="537" 
d="M98 373l-67 67q76 71 195 71q121 0 196 -71.5t75 -187.5t-75 -187.5t-196 -71.5q-119 0 -195 71l67 66q46 -43 123 -43q63 0 106.5 32.5t55.5 88.5h-220v87h220q-12 55 -56 88.5t-106 33.5q-76 0 -123 -44z" />
    <glyph glyph-name="afii10048.smcp" horiz-adv-x="793" 
d="M151 504v-209h100q13 98 80.5 157t169.5 59q113 0 183 -72t70 -187t-70 -187t-183 -72q-102 0 -169.5 58.5t-80.5 156.5h-100v-208h-106v504h106zM358 252q0 -73 40 -119t103 -46t102.5 46t39.5 119t-39.5 119t-102.5 46t-103 -46t-40 -119z" />
    <glyph glyph-name="afii10049.smcp" horiz-adv-x="436" 
d="M391 504v-504h-111v197h-44l-97 -197h-120l117 209q-46 18 -71.5 54.5t-25.5 86.5q0 71 47.5 112.5t126.5 41.5h178zM149 350q0 -28 17.5 -45t46.5 -17h67v126h-67q-29 0 -46.5 -17.5t-17.5 -46.5z" />
    <glyph glyph-name="afii10050.smcp" horiz-adv-x="360" 
d="M151 418v-418h-106v504h194v90h78v-176h-166z" />
    <glyph glyph-name="afii10051.smcp" horiz-adv-x="528" 
d="M350 0v66q14 0 22.5 8.5t8.5 21.5v76q0 23 -14.5 37.5t-37.5 14.5q-37 0 -58 -21v-203h-106v418h-134v86h373v-86h-133v-132q37 28 87 28q60 0 94.5 -39t34.5 -103v-79q0 -44 -25.5 -70.5t-74.5 -26.5q-25 0 -37 4z" />
    <glyph glyph-name="afii10052.smcp" horiz-adv-x="364" 
d="M124 569l111 108l49 -50l-110 -108zM45 0v504h288v-86h-182v-418h-106z" />
    <glyph glyph-name="afii10053.smcp" horiz-adv-x="537" 
d="M316 417q-63 0 -107 -33.5t-56 -88.5h257v-87h-257q13 -56 56.5 -88.5t106.5 -32.5q76 0 122 43l67 -66q-74 -71 -195 -71t-196 72t-75 187t75 187t196 72t195 -71l-67 -67q-46 44 -122 44z" />
    <glyph glyph-name="afii10054.smcp" horiz-adv-x="442" 
d="M385 441l-66 -65q-43 41 -95 41q-30 0 -46.5 -17t-16.5 -37q0 -22 24 -37.5t58.5 -27t69.5 -26.5t59 -46.5t24 -77.5q0 -68 -47 -111.5t-128 -43.5q-105 0 -186 78l65 66q56 -50 110 -50q35 0 55 18t20 40t-24 36.5t-58.5 25.5t-68.5 26t-58 47.5t-24 79.5
q0 66 42.5 108.5t118.5 42.5q99 0 172 -70z" />
    <glyph glyph-name="afii10055.smcp" horiz-adv-x="197" 
d="M45 0v504h106v-504h-106z" />
    <glyph glyph-name="afii10056.smcp" horiz-adv-x="198" 
d="M46 0v504h105v-504h-105zM-22 576q0 23 16 38.5t39 15.5t38.5 -16t15.5 -38t-15.5 -38t-38.5 -16t-39 15.5t-16 38.5zM111 576q0 23 15.5 39t38.5 16t39 -16t16 -39t-16 -38.5t-39 -15.5t-38.5 16t-15.5 38z" />
    <glyph glyph-name="afii10057.smcp" horiz-adv-x="356" 
d="M205 146v358h106v-358q0 -69 -45.5 -111t-117.5 -42q-70 0 -117 42l68 67q17 -15 45 -15q27 0 44 16t17 43z" />
    <glyph glyph-name="afii10058.smcp" horiz-adv-x="732" 
d="M349 0v418h-126v-267q0 -69 -37.5 -112t-104.5 -43q-35 0 -51 4v66q38 0 61 22.5t23 59.5v356h344v-197h61q78 0 126 -42t48 -112t-47.5 -111.5t-126.5 -41.5h-170zM583 153q0 28 -17.5 45.5t-46.5 17.5h-61v-126h61q29 0 46.5 17.5t17.5 45.5z" />
    <glyph glyph-name="afii10059.smcp" horiz-adv-x="732" 
d="M151 504v-197h198v197h110v-197h61q78 0 125.5 -42t47.5 -112t-47.5 -111.5t-125.5 -41.5h-171v216h-198v-216h-106v504h106zM584 153q0 28 -17.5 45.5t-46.5 17.5h-61v-126h61q29 0 46.5 17.5t17.5 45.5z" />
    <glyph glyph-name="afii10060.smcp" horiz-adv-x="528" 
d="M271 418v-132q37 28 87 28q60 0 94.5 -39t34.5 -103v-172h-106v172q0 23 -14.5 37.5t-37.5 14.5q-37 0 -58 -21v-203h-106v418h-134v86h373v-86h-133z" />
    <glyph glyph-name="afii10061.smcp" horiz-adv-x="494" 
d="M341 0l-190 246v-246h-106v504h106v-230l175 230h133l-186 -244l205 -260h-137zM181 569l111 108l50 -50l-111 -108z" />
    <glyph glyph-name="afii10062.smcp" horiz-adv-x="476" 
d="M238 599q47 0 71 24l49 -49q-48 -48 -120 -48t-119 49l49 49q23 -25 70 -25zM464 504l-254 -504h-114l93 158l-177 346h114l113 -221l112 221h113z" />
    <glyph glyph-name="afii10145.smcp" horiz-adv-x="528" 
d="M216 0h-171v504h106v-418h226v418h106v-504h-169v-108h-98v108z" />
    <glyph glyph-name="uni040D.smcp" horiz-adv-x="536" 
d="M223 677l110 -108l-50 -50l-111 108zM424 504h67v-504h-106v300l-273 -300h-67v504h106v-300z" />
    <glyph glyph-name="uni0400.smcp" horiz-adv-x="374" 
d="M151 418v-123h162v-87h-162v-122h188v-86h-294v504h290v-86h-184zM145 677l111 -108l-50 -50l-111 108z" />
    <glyph glyph-name="uni04D8.smcp" horiz-adv-x="567" 
d="M527 252q0 -116 -67.5 -187.5t-176.5 -71.5q-108 0 -176 72t-68 187v39h375q-12 57 -56 91.5t-107 34.5q-77 0 -123 -44l-67 67q76 71 195 71q121 0 196 -71.5t75 -187.5zM283 87q49 0 83.5 32t45.5 86h-258q11 -54 45.5 -86t83.5 -32z" />
    <glyph glyph-name="afii10056_afii10056.smcp" horiz-adv-x="395" 
d="M46 0v504h105v-504h-105zM-22 576q0 23 16 38.5t39 15.5t38.5 -16t15.5 -38t-15.5 -38t-38.5 -16t-39 15.5t-16 38.5zM243 0v504h106v-504h-106zM308 576q0 23 15.5 39t38.5 16q24 0 39.5 -16t15.5 -39t-15.5 -38.5t-39.5 -15.5q-22 0 -38 16t-16 38zM143 576q0 23 16 39
t39 16t38.5 -16t15.5 -39q0 -22 -16 -38t-38 -16q-23 0 -39 15.5t-16 38.5z" />
    <glyph glyph-name="afii10021.alt.smcp" horiz-adv-x="609" 
d="M487 0h-365v-108h-98v194h36l195 418h99l195 -418h36v-194h-98v108zM304 367l-121 -281h243z" />
    <glyph glyph-name="afii10029.alt.smcp" horiz-adv-x="597" 
d="M16 0l233 504h99l233 -504h-125l-158 363l-157 -363h-125z" />
    <glyph glyph-name="afii10058.alt.smcp" horiz-adv-x="794" 
d="M16 0l233 504h99l92 -197h141q78 0 126 -42t48 -112t-47.5 -111.5t-126.5 -41.5h-125l-158 363l-157 -363h-125zM581 216h-101l61 -126h40q29 0 46.5 17.5t17.5 45.5t-17.5 45.5t-46.5 17.5z" />
    <glyph glyph-name="Aringacute.smcp" horiz-adv-x="597" 
d="M247 639l112 108l50 -49l-82 -80q41 -16 41 -64q0 -33 -20 -51l233 -503h-123l-47 100h-226l-46 -100h-123l232 503q-19 19 -19 51q0 47 40 63zM298 365l-75 -171h151zM269 553q0 -12 8 -20t21 -8q14 0 22.5 8t8.5 20q0 13 -8.5 21t-22.5 8q-13 0 -21 -8t-8 -21z" />
    <glyph glyph-name="germandbls.smcp" horiz-adv-x="467" 
d="M151 355v-355h-106v355q0 70 45.5 113t119.5 43t119.5 -42t45.5 -110q0 -79 -71 -118q0 -19 21 -32t45.5 -20t45 -30t20.5 -60q0 -45 -34 -75.5t-91 -30.5q-76 0 -126 52l62 61q27 -29 56 -29q14 0 22.5 6.5t8.5 16.5q0 13 -20.5 23t-45.5 18.5t-45.5 33t-20.5 62.5v76
q30 0 49 14t19 37q0 25 -16.5 41.5t-43.5 16.5q-26 0 -42.5 -18.5t-16.5 -48.5z" />
    <glyph glyph-name="at.smcp" horiz-adv-x="612" 
d="M455 109l48 -47q-72 -69 -195 -69t-198 71.5t-75 187.5t75.5 187.5t196.5 71.5q120 0 195 -68t75 -171q0 -76 -40.5 -110.5t-93.5 -34.5q-51 0 -74 30q-30 -30 -76 -30q-52 0 -83 34.5t-31 90.5t37.5 90.5t99.5 34.5q81 0 118 -51v-100q0 -16 8 -24.5t19 -8.5
q16 0 26.5 17.5t10.5 51.5q0 83 -53.5 133.5t-137.5 50.5q-87 0 -140.5 -54t-53.5 -140t54 -140t142 -54q92 0 146 51zM257 252q0 -26 16.5 -42.5t42.5 -16.5q27 0 42 15v92q-16 11 -44 11q-25 0 -41 -16.5t-16 -42.5z" />
    <glyph glyph-name="parenleft.smcp" horiz-adv-x="237" 
d="M206 547v-73q-25 0 -43 -63t-18 -159t18 -159t43 -63v-73q-72 0 -120 82.5t-48 212.5t48 212.5t120 82.5z" />
    <glyph glyph-name="parenright.smcp" horiz-adv-x="237" 
d="M31 474v73q72 0 119.5 -82t47.5 -213t-47.5 -213t-119.5 -82v73q25 0 43.5 63t18.5 159t-18.5 159t-43.5 63z" />
    <glyph glyph-name="bracketleft.smcp" horiz-adv-x="244" 
d="M214 540v-78h-67v-420h67v-78h-169v576h169z" />
    <glyph glyph-name="bracketright.smcp" horiz-adv-x="244" 
d="M31 462v78h168v-576h-168v78h66v420h-66z" />
    <glyph glyph-name="braceleft.smcp" horiz-adv-x="247" 
d="M216 30v-73q-63 0 -104 37t-41 96v46q0 33 -12 55t-28 22v74q16 0 28 22t12 55v50q0 59 41 96t104 37v-73q-16 0 -27.5 -21t-11.5 -53v-48q0 -70 -63 -102q63 -32 63 -102v-45q0 -31 11.5 -52t27.5 -21z" />
    <glyph glyph-name="braceright.smcp" horiz-adv-x="247" 
d="M31 -43v73q16 0 28 21t12 52v45q0 70 62 102q-62 32 -62 102v48q0 32 -12 53t-28 21v73q63 0 104.5 -37t41.5 -96v-50q0 -33 12 -55t27 -22v-74q-16 0 -27.5 -22t-11.5 -55v-46q0 -59 -41.5 -96t-104.5 -37z" />
    <glyph glyph-name="exclamdown.smcp" horiz-adv-x="194" 
d="M38 453q0 25 17 41.5t41 16.5q25 0 42 -16.5t17 -41.5q0 -24 -17 -40.5t-42 -16.5q-24 0 -41 16.5t-17 40.5zM45 350h102v-350h-102v350z" />
    <glyph glyph-name="questiondown.smcp" horiz-adv-x="382" 
d="M289 114l65 -66q-72 -55 -155 -55q-73 0 -118.5 38.5t-45.5 97.5q0 28 11.5 49t28.5 34l33.5 25.5t28 29.5t11.5 39v44h102v-44q0 -33 -11 -59.5t-27 -42t-32.5 -28t-27.5 -24t-11 -22.5q0 -17 16.5 -32.5t44.5 -15.5q44 0 87 32zM258 453q0 -24 -17.5 -40.5t-41.5 -16.5
t-41 16.5t-17 40.5q0 25 17 41.5t41 16.5t41.5 -17t17.5 -41z" />
    <glyph glyph-name="bar.smcp" horiz-adv-x="193" 
d="M45 -36v576h102v-576h-102z" />
    <glyph glyph-name="brokenbar.smcp" horiz-adv-x="193" 
d="M45 -36v252h102v-252h-102zM147 540v-252h-102v252h102z" />
    <glyph glyph-name="dagger.smcp" horiz-adv-x="395" 
d="M38 320v78h109v142h102v-142h108v-78h-108v-356h-102v356h-109z" />
    <glyph glyph-name="daggerdbl.smcp" horiz-adv-x="395" 
d="M38 104v78h109v138h-109v78h109v142h102v-142h108v-78h-108v-138h108v-78h-108v-140h-102v140h-109z" />
    <glyph glyph-name="zero.smcp" horiz-adv-x="440" 
d="M39 252q0 116 50 187.5t131 71.5q80 0 130 -72t50 -187t-50 -187t-130 -72q-81 0 -131 71.5t-50 187.5zM145 252q0 -75 21 -122.5t54 -47.5t53.5 47.5t20.5 122.5t-20.5 122.5t-53.5 47.5t-54 -47.5t-21 -122.5z" />
    <glyph glyph-name="one.smcp" horiz-adv-x="285" 
d="M32 404v78l184 26v-508h-101v416z" />
    <glyph glyph-name="two.smcp" horiz-adv-x="414" 
d="M33 81l220 210q20 20 20 54t-19 55t-49 21t-49 -21t-19 -55h-106q0 74 48 120t126 46t126 -46t48 -120q0 -69 -56 -122l-146 -137h202v-86h-346v81z" />
    <glyph glyph-name="three.smcp" horiz-adv-x="425" 
d="M178 227v84h34q26 0 42 16t16 40t-16 39.5t-42 15.5q-25 0 -40.5 -15.5t-15.5 -39.5h-107q0 64 45 104t118 40t118.5 -40t45.5 -104q0 -60 -48 -97q62 -40 62 -116q0 -71 -49.5 -116t-128.5 -45t-128 45t-49 116h106q0 -31 20 -51.5t51 -20.5q32 0 52 20t20 52t-20 52.5
t-52 20.5h-34z" />
    <glyph glyph-name="four.smcp" horiz-adv-x="449" 
d="M263 0v84h-232v42l228 378h102v-334h41v-86h-37v-84h-102zM160 170h107v182z" />
    <glyph glyph-name="five.smcp" horiz-adv-x="414" 
d="M379 159q0 -74 -48 -120t-126 -46t-126 45t-48 119h102q0 -32 20 -53t52 -21q30 0 49 21t19 55q0 37 -23 60.5t-59 23.5q-38 0 -62 -24l-74 22l28 263h254v-86h-164l-10 -87q5 1 34 1q82 0 132 -47.5t50 -125.5z" />
    <glyph glyph-name="six.smcp" horiz-adv-x="417" 
d="M221 511l88 -50q-76 -67 -121 -147h22q77 0 124.5 -43.5t47.5 -116.5q0 -72 -47.5 -116.5t-126.5 -44.5t-126 45t-47 126q0 92 56 191.5t130 155.5zM141 155q0 -32 19 -52.5t49 -20.5q29 0 48 20.5t19 52.5t-19 52.5t-48 20.5q-30 0 -49 -20.5t-19 -52.5z" />
    <glyph glyph-name="seven.smcp" horiz-adv-x="427" 
d="M39 418v86h349v-26l-169 -478h-109l144 418h-215z" />
    <glyph glyph-name="eight.smcp" horiz-adv-x="425" 
d="M49 367q0 64 45 104t118 40t118.5 -40t45.5 -104q0 -59 -48 -97q62 -40 62 -116q0 -71 -49.5 -116t-128.5 -45t-128 45t-49 116q0 77 61 116q-47 37 -47 97zM141 154q0 -31 20 -51.5t51 -20.5q32 0 52 20t20 52t-20 51.5t-52 19.5q-31 0 -51 -20t-20 -51zM155 367
q0 -24 16 -39t41 -15q26 0 42 15t16 39t-16 39.5t-42 15.5q-25 0 -41 -15.5t-16 -39.5z" />
    <glyph glyph-name="nine.smcp" horiz-adv-x="417" 
d="M196 -7l-88 50q73 64 121 147h-22q-77 0 -124.5 43.5t-47.5 116.5q0 72 48 116.5t127 44.5q78 0 125 -45t47 -126q0 -91 -56 -190.5t-130 -156.5zM276 349q0 32 -19 52.5t-48 20.5q-30 0 -49 -20.5t-19 -52.5t19 -52.5t49 -20.5q29 0 48 20.5t19 52.5z" />
    <glyph glyph-name="dollar.smcp" horiz-adv-x="442" 
d="M194 -72v67q-89 7 -159 76l65 66q46 -42 94 -49v121q-32 11 -51.5 20t-43.5 26.5t-35.5 43.5t-11.5 61q0 61 37.5 102.5t104.5 47.5v66h55v-68q78 -12 136 -67l-66 -65q-29 27 -70 38v-117l41.5 -15.5t38 -19t35.5 -27.5t22 -36.5t10 -50.5q0 -62 -39 -104t-108 -49v-67
h-55zM285 145q0 26 -36 43v-94q36 16 36 51zM161 363q0 -27 33 -43v91q-33 -14 -33 -48z" />
    <glyph glyph-name="Euro.smcp" horiz-adv-x="570" 
d="M31 271v55h50q22 85 92 135t170 50q120 0 196 -71l-67 -67q-47 44 -123 44q-53 0 -92.5 -24.5t-58.5 -66.5h153v-55h-167q-1 -6 -1 -19t1 -19h167v-55h-153q19 -42 58.5 -66.5t92.5 -24.5q77 0 123 43l67 -66q-76 -71 -196 -71q-100 0 -170 50t-92 135h-50v55h41v38h-41z
" />
    <glyph glyph-name="sterling.smcp" horiz-adv-x="413" 
d="M32 213v78h55v67q0 69 45 111t116 42q72 0 117 -42l-67 -67q-17 15 -45 15q-27 0 -44 -16t-17 -43v-67h117v-78h-117v-107q9 -4 24 -12t26 -12.5t21 -4.5q15 0 24.5 9.5t9.5 23.5h81q0 -52 -32 -84.5t-81 -32.5q-33 0 -70 20t-53 20q-15 0 -24.5 -9t-9.5 -24h-80
q0 74 59 104v109h-55z" />
    <glyph glyph-name="yen.smcp" horiz-adv-x="534" 
d="M125 141v54h89v4l-198 305h122l129 -201l129 201h122l-198 -306v-3h88v-54h-88v-36h88v-53h-88v-52h-106v52h-89v53h89v36h-89z" />
    <glyph glyph-name="uni20B4.smcp" horiz-adv-x="350" 
d="M31 272v54h156l4 4q20 19 20 43q0 21 -16 34.5t-40 13.5q-36 0 -57 -23l-64 64q47 49 121 49q72 0 116.5 -37.5t44.5 -96.5q0 -25 -12 -51h15v-54h-56l-4 -4l-34 -32h94v-54h-151l-8 -8q-20 -19 -20 -43q0 -21 15.5 -34.5t39.5 -13.5q36 0 57 23l64 -64q-47 -49 -121 -49
q-71 0 -115.5 37.5t-44.5 96.5q0 27 13 55h-17v54h60l38 36h-98z" />
    <glyph glyph-name="numbersign.smcp" horiz-adv-x="494" 
d="M257 0l15 104h-94l-15 -104h-102l15 104h-45v78h57l20 140h-56v78h67l16 104h102l-16 -104h94l16 104h102l-16 -104h45v-78h-56l-20 -140h56v-78h-68l-15 -104h-102zM210 322l-20 -140h94l20 140h-94z" />
    <glyph glyph-name="zero.fitted.smcp" horiz-adv-x="417" 
d="M31 252q0 116 49 187.5t128 71.5t128.5 -71.5t49.5 -187.5t-49.5 -187.5t-128.5 -71.5t-128 71.5t-49 187.5zM137 252q0 -76 19.5 -123t51.5 -47t52 47.5t20 122.5t-20 122.5t-52 47.5t-51.5 -47t-19.5 -123z" />
    <glyph glyph-name="one.fitted.smcp" horiz-adv-x="418" 
d="M73 0v78h80v338l-87 -12v78l189 26v-430h82v-78h-264z" />
    <glyph glyph-name="two.fitted.smcp" horiz-adv-x="417" 
d="M35 81l221 210q20 20 20 54t-19 55t-50 21q-30 0 -49 -21t-19 -55h-106q0 74 48 120t126 46t126 -46t48 -120q0 -66 -60 -122l-146 -137h206v-86h-346v81z" />
    <glyph glyph-name="three.fitted.smcp" horiz-adv-x="418" 
d="M175 227v84h34q25 0 41 16t16 40t-16 39.5t-41 15.5t-40.5 -15.5t-15.5 -39.5h-106q0 64 44.5 104t117.5 40t118 -40t45 -104q0 -59 -48 -97q62 -40 62 -116q0 -71 -49 -116t-128 -45t-128 45t-49 116h106q0 -31 20 -51.5t51 -20.5t51 20.5t20 51.5q0 32 -20 52.5
t-51 20.5h-34z" />
    <glyph glyph-name="four.fitted.smcp" horiz-adv-x="418" 
d="M245 0v84h-226v42l223 378h101v-334h41v-86h-37v-84h-102zM147 170h103v182z" />
    <glyph glyph-name="five.fitted.smcp" horiz-adv-x="417" 
d="M381 159q0 -74 -48 -120t-126 -46t-126 45t-48 119h102q0 -32 20 -53t52 -21q31 0 50 21t19 55q0 37 -23.5 60.5t-60.5 23.5t-61 -24l-75 22l29 263h255v-86h-165l-10 -87q5 1 34 1q82 0 132 -47.5t50 -125.5z" />
    <glyph glyph-name="six.fitted.smcp" horiz-adv-x="418" 
d="M222 511l88 -50q-76 -67 -121 -147h22q76 0 124 -43.5t48 -116.5q0 -72 -48 -116.5t-127 -44.5q-78 0 -125.5 45t-47.5 126q0 92 56 191.5t131 155.5zM141 155q0 -32 19 -52.5t49 -20.5t49.5 20.5t19.5 52.5t-19.5 52.5t-49.5 20.5t-49 -20.5t-19 -52.5z" />
    <glyph glyph-name="seven.fitted.smcp" horiz-adv-x="417" 
d="M35 418v86h347v-26l-168 -478h-108l142 418h-213z" />
    <glyph glyph-name="eight.fitted.smcp" horiz-adv-x="418" 
d="M47 367q0 64 45 104t117 40t117 -40t45 -104q0 -60 -47 -97q62 -40 62 -116q0 -71 -49 -116t-128 -45t-128 45t-49 116q0 75 60 116q-45 36 -45 97zM138 154q0 -32 20 -52t51 -20t51 20.5t20 51.5t-20 51t-51 20t-51 -19.5t-20 -51.5zM152 367q0 -24 16 -39t41 -15
t40.5 15t15.5 39t-15.5 39.5t-40.5 15.5t-41 -15.5t-16 -39.5z" />
    <glyph glyph-name="nine.fitted.smcp" horiz-adv-x="418" 
d="M197 -7l-89 50q77 68 120 147h-21q-76 0 -123 43.5t-47 116.5q0 72 47.5 116.5t125.5 44.5q77 0 124 -45t47 -126q0 -91 -55.5 -190.5t-128.5 -156.5zM275 349q0 32 -18.5 52.5t-47.5 20.5t-47.5 -20.5t-18.5 -52.5t18.5 -52.5t47.5 -20.5t47.5 20.5t18.5 52.5z" />
    <glyph glyph-name="exclam.smcp" horiz-adv-x="194" 
d="M38 51q0 24 17 40.5t41 16.5q25 0 42 -16.5t17 -40.5q0 -25 -17 -41.5t-42 -16.5q-24 0 -41 16.5t-17 41.5zM45 154v350h102v-350h-102z" />
    <glyph glyph-name="ampersand.smcp" horiz-adv-x="457" 
d="M249 227v84h177v-84h-36v-73q0 -71 -49.5 -116t-128.5 -45t-128 45t-49 116q0 76 62 116q-48 37 -48 97q0 64 45 104t118 40t118.5 -40t45.5 -104h-106q0 24 -16 39.5t-42 15.5q-25 0 -41 -15.5t-16 -39.5t16 -40t41 -16h19v-84h-19q-31 0 -51 -20.5t-20 -52.5
q0 -31 20 -51.5t51 -20.5q32 0 52 20t20 52v73h-35z" />
    <glyph glyph-name="slash.smcp" horiz-adv-x="449" 
d="M30 -36l287 576h101l-285 -576h-103z" />
    <glyph glyph-name="backslash.smcp" horiz-adv-x="449" 
d="M133 540l285 -576h-101l-287 576h103z" />
    <glyph glyph-name="question.smcp" horiz-adv-x="382" 
d="M93 390l-65 66q71 55 155 55q73 0 118.5 -38.5t45.5 -97.5q0 -28 -11.5 -49t-28.5 -34l-33.5 -25.5t-28 -29.5t-11.5 -39v-44h-102v44q0 33 11 59.5t27 42t32 28t27 24t11 22.5q0 17 -16 32.5t-44 15.5q-44 0 -87 -32zM124 51q0 24 17 40.5t42 16.5q24 0 41 -16.5
t17 -40.5q0 -25 -17 -41.5t-41 -16.5q-25 0 -42 16.5t-17 41.5z" />
    <glyph glyph-name="percent.smcp" horiz-adv-x="713" 
d="M163 0l285 504h103l-287 -504h-101zM31 376q0 61 40 98t105 37q64 0 103.5 -37t39.5 -98t-39.5 -98t-103.5 -37q-65 0 -105 37t-40 98zM122 376q0 -27 15 -44t39 -17q23 0 38.5 17t15.5 44t-15.5 44.5t-38.5 17.5q-24 0 -39 -17.5t-15 -44.5zM393 128q0 61 40 98t105 37
q64 0 103.5 -37t39.5 -98t-39.5 -98t-103.5 -37q-65 0 -105 37t-40 98zM484 128q0 -27 15 -44.5t39 -17.5q23 0 38.5 17.5t15.5 44.5t-15.5 44t-38.5 17q-24 0 -39 -17t-15 -44z" />
    <glyph glyph-name="perthousand.smcp" horiz-adv-x="1022" 
d="M163 0l285 504h103l-287 -504h-101zM31 376q0 61 40 98t105 37q64 0 103.5 -37t39.5 -98t-39.5 -98t-103.5 -37q-65 0 -105 37t-40 98zM122 376q0 -27 15 -44t39 -17q23 0 38.5 17t15.5 44t-15.5 44.5t-38.5 17.5q-24 0 -39 -17.5t-15 -44.5zM393 128q0 61 40 98t105 37
q64 0 103.5 -37t39.5 -98t-39.5 -98t-103.5 -37q-65 0 -105 37t-40 98zM484 128q0 -27 15 -44.5t39 -17.5q23 0 38.5 17.5t15.5 44.5t-15.5 44t-38.5 17q-24 0 -39 -17t-15 -44zM702 128q0 61 40 98t104 37q65 0 104.5 -37t39.5 -98t-39.5 -98t-104.5 -37q-64 0 -104 37
t-40 98zM792 128q0 -27 15 -44.5t39 -17.5t39 17.5t15 44.5t-15 44t-39 17t-39 -17t-15 -44z" />
    <glyph glyph-name="section.smcp" horiz-adv-x="345" 
d="M162 325l147 -142l-68 -67l-149 144q-56 52 -56 112q0 62 44.5 100.5t115.5 38.5q74 0 121 -49l-64 -64q-21 23 -57 23q-24 0 -39 -14t-15 -35q0 -27 20 -47zM184 -1l-148 142l68 67l150 -144q56 -54 56 -112q0 -62 -44.5 -100.5t-115.5 -38.5q-75 0 -122 49l64 64
q21 -23 58 -23q23 0 38.5 14t15.5 35q0 27 -20 47z" />
    <glyph glyph-name="paragraph.smcp" horiz-adv-x="512" 
d="M313 504v-504h-98v214h-10q-75 0 -120.5 39.5t-45.5 105.5t45.5 105.5t120.5 39.5h108zM369 0v504h98v-504h-98z" />
    <glyph glyph-name="quoteright_afii10056.smcp" horiz-adv-x="305" 
d="M154 0v504h105v-504h-105zM218 576q0 23 16 39t39 16t39 -16t16 -39q0 -22 -16 -38t-39 -16t-39 16t-16 38zM35 454l-35 35q42 43 54 83q-23 5 -37.5 22.5t-14.5 41.5q0 28 19 47t47 19q26 0 46 -17.5t20 -56.5q0 -77 -99 -174z" />
    <glyph glyph-name="zero.sub" horiz-adv-x="300" 
d="M31 125q0 80 33 130t86 50q54 0 86.5 -49.5t32.5 -130.5t-32.5 -130.5t-86.5 -49.5q-53 0 -86 50t-33 130zM94 125q0 -56 15.5 -90.5t40.5 -34.5t40.5 34.5t15.5 90.5q0 55 -15.5 90t-40.5 35t-40.5 -34.5t-15.5 -90.5z" />
    <glyph glyph-name="one.sub" horiz-adv-x="193" 
d="M25 238v47l116 18v-353h-61v297z" />
    <glyph glyph-name="two.sub" horiz-adv-x="282" 
d="M28 0l147 147q15 15 15 43q0 27 -14 43.5t-36 16.5q-23 0 -37 -16.5t-14 -43.5h-63q0 51 31.5 83t82.5 32t82.5 -32t31.5 -83q0 -46 -36 -84l-105 -104h141v-52h-226v50z" />
    <glyph glyph-name="three.sub" horiz-adv-x="290" 
d="M122 112v51h23q19 0 30.5 12.5t11.5 31.5t-11.5 31t-30.5 12t-30.5 -12t-11.5 -31h-64q0 43 29.5 70.5t76.5 27.5t76.5 -27t29.5 -71q0 -46 -35 -68q46 -27 46 -83q0 -50 -32.5 -80.5t-84.5 -30.5t-84 30.5t-32 80.5h63q0 -25 15 -40.5t38 -15.5t38 15.5t15 40.5
q0 24 -15 40t-38 16h-23z" />
    <glyph glyph-name="four.sub" horiz-adv-x="303" 
d="M181 -50v61h-155v26l153 263h61v-237h28v-52h-26v-61h-61zM102 63h82v146z" />
    <glyph glyph-name="five.sub" horiz-adv-x="282" 
d="M254 60q0 -51 -31.5 -83t-82.5 -32t-82.5 31t-31.5 81h61q0 -26 14.5 -41.5t38.5 -15.5q22 0 36 16.5t14 43.5q0 28 -17 46.5t-43 18.5q-28 0 -44 -18l-45 14l19 179h166v-52h-112l-7 -73q9 4 27 4q53 0 86.5 -33t33.5 -86z" />
    <glyph glyph-name="six.sub" horiz-adv-x="286" 
d="M153 305l52 -30q-57 -65 -81 -110q10 2 20 2q50 0 81.5 -30t31.5 -80t-31.5 -81t-83.5 -31q-51 0 -82 31.5t-31 86.5q0 109 124 242zM92 57q0 -25 14 -41t37 -16t37 16t14 41q0 26 -14 42t-37 16t-37 -16t-14 -42z" />
    <glyph glyph-name="seven.sub" horiz-adv-x="289" 
d="M31 248v52h227v-17l-115 -333h-65l101 298h-148z" />
    <glyph glyph-name="eight.sub" horiz-adv-x="289" 
d="M39 207q0 44 29.5 71t76.5 27t76 -27.5t29 -70.5q0 -45 -34 -68q45 -27 45 -83q0 -50 -32 -80.5t-84 -30.5t-84.5 30.5t-32.5 80.5q0 56 44 83q-33 22 -33 68zM92 56q0 -25 14.5 -40.5t38.5 -15.5q23 0 38 15.5t15 40.5q0 24 -15 39.5t-38 15.5q-24 0 -38.5 -15.5
t-14.5 -39.5zM102 207q0 -19 12 -31t31 -12t30.5 12t11.5 31t-11.5 31t-30.5 12t-31 -12t-12 -31z" />
    <glyph glyph-name="nine.sub" horiz-adv-x="286" 
d="M133 -55l-53 30q56 62 82 110q-12 -2 -20 -2q-51 0 -82 30t-31 80t31 81t83 31t83 -31.5t31 -86.5q0 -109 -124 -242zM194 193q0 25 -14 41t-37 16t-37 -16t-14 -41q0 -26 14 -42t37 -16t37 16t14 42z" />
    <glyph glyph-name="comma.sub" horiz-adv-x="134" 
d="M50 -115l-19 19q22 24 28 42q-28 7 -28 35q0 15 10.5 25t25.5 10q14 0 25 -9t11 -30q0 -39 -53 -92z" />
    <glyph glyph-name="period.sub" horiz-adv-x="134" 
d="M31 -19q0 15 10.5 25t25.5 10t25.5 -10t10.5 -25t-10.5 -25.5t-25.5 -10.5t-25.5 10.5t-10.5 25.5z" />
    <glyph glyph-name="parenleft.sub" horiz-adv-x="165" 
d="M139 330v-45q-18 0 -31 -45t-13 -115t13 -115t31 -45v-45q-46 0 -77 57.5t-31 147.5t31 147.5t77 57.5z" />
    <glyph glyph-name="parenright.sub" horiz-adv-x="165" 
d="M26 285v45q46 0 77 -57.5t31 -147.5t-31 -147.5t-77 -57.5v45q18 0 31 45t13 115t-13 115t-31 45z" />
    <glyph glyph-name="hyphen.sub" horiz-adv-x="190" 
d="M31 101v48h128v-48h-128z" />
    <glyph glyph-name="zero.sup" horiz-adv-x="300" 
d="M31 525q0 80 33 130t86 50q54 0 86.5 -49.5t32.5 -130.5t-32.5 -130.5t-86.5 -49.5q-53 0 -86 50t-33 130zM94 525q0 -56 15.5 -90.5t40.5 -34.5t40.5 34.5t15.5 90.5q0 55 -15.5 90t-40.5 35t-40.5 -34.5t-15.5 -90.5z" />
    <glyph glyph-name="one.sup" horiz-adv-x="193" 
d="M25 638v47l116 18v-353h-61v297z" />
    <glyph glyph-name="two.sup" horiz-adv-x="282" 
d="M28 400l147 147q15 15 15 43q0 27 -14 43.5t-36 16.5q-23 0 -37 -16.5t-14 -43.5h-63q0 51 31.5 83t82.5 32t82.5 -32t31.5 -83q0 -46 -36 -84l-105 -104h141v-52h-226v50z" />
    <glyph glyph-name="three.sup" horiz-adv-x="290" 
d="M122 512v51h23q19 0 30.5 12.5t11.5 31.5t-11.5 31t-30.5 12t-30.5 -12t-11.5 -31h-64q0 43 29.5 70.5t76.5 27.5t76.5 -27t29.5 -71q0 -46 -35 -68q46 -27 46 -83q0 -50 -32.5 -80.5t-84.5 -30.5t-84 30.5t-32 80.5h63q0 -25 15 -40.5t38 -15.5t38 15.5t15 40.5
q0 24 -15 40t-38 16h-23z" />
    <glyph glyph-name="four.sup" horiz-adv-x="303" 
d="M181 350v61h-155v26l153 263h61v-237h28v-52h-26v-61h-61zM102 463h82v146z" />
    <glyph glyph-name="five.sup" horiz-adv-x="282" 
d="M254 460q0 -51 -31.5 -83t-82.5 -32t-82.5 31t-31.5 81h61q0 -25 14.5 -41t38.5 -16q22 0 36 16.5t14 43.5q0 28 -17 46.5t-43 18.5q-28 0 -44 -18l-45 14l19 179h166v-52h-112l-7 -73q9 4 27 4q53 0 86.5 -33t33.5 -86z" />
    <glyph glyph-name="six.sup" horiz-adv-x="286" 
d="M153 705l52 -30q-57 -65 -81 -110q10 2 20 2q50 0 81.5 -30t31.5 -80t-31.5 -81t-83.5 -31q-51 0 -82 31.5t-31 86.5q0 109 124 242zM92 457q0 -25 14 -41t37 -16t37 16t14 41q0 26 -14 42t-37 16t-37 -16t-14 -42z" />
    <glyph glyph-name="seven.sup" horiz-adv-x="289" 
d="M31 648v52h227v-17l-115 -333h-65l101 298h-148z" />
    <glyph glyph-name="eight.sup" horiz-adv-x="289" 
d="M39 607q0 44 29.5 71t76.5 27t76 -27.5t29 -70.5q0 -45 -34 -68q45 -27 45 -83q0 -50 -32 -80.5t-84 -30.5t-84.5 30.5t-32.5 80.5q0 56 44 83q-33 22 -33 68zM92 456q0 -25 14.5 -40.5t38.5 -15.5q23 0 38 15.5t15 40.5q0 24 -15 39.5t-38 15.5q-24 0 -38.5 -15.5
t-14.5 -39.5zM102 607q0 -19 12 -31t31 -12t30.5 12t11.5 31t-11.5 31t-30.5 12t-31 -12t-12 -31z" />
    <glyph glyph-name="nine.sup" horiz-adv-x="286" 
d="M133 345l-53 30q56 62 82 110q-12 -2 -20 -2q-51 0 -82 30t-31 80t31 81t83 31t83 -31.5t31 -86.5q0 -109 -124 -242zM194 593q0 25 -14 41t-37 16t-37 -16t-14 -41q0 -26 14 -42t37 -16t37 16t14 42z" />
    <glyph glyph-name="comma.sup" horiz-adv-x="134" 
d="M50 285l-19 19q22 24 28 42q-28 7 -28 35q0 15 10.5 25t25.5 10q14 0 25 -9t11 -30q0 -39 -53 -92z" />
    <glyph glyph-name="period.sup" horiz-adv-x="134" 
d="M31 381q0 15 10.5 25t25.5 10t25.5 -10t10.5 -25t-10.5 -25.5t-25.5 -10.5t-25.5 10.5t-10.5 25.5z" />
    <glyph glyph-name="parenleft.sup" horiz-adv-x="165" 
d="M139 730v-45q-18 0 -31 -45t-13 -115t13 -115t31 -45v-45q-46 0 -77 57.5t-31 147.5t31 147.5t77 57.5z" />
    <glyph glyph-name="parenright.sup" horiz-adv-x="165" 
d="M26 685v45q46 0 77 -57.5t31 -147.5t-31 -147.5t-77 -57.5v45q18 0 31 45t13 115t-13 115t-31 45z" />
    <glyph glyph-name="hyphen.sup" horiz-adv-x="190" 
d="M31 501v48h128v-48h-128z" />
    <glyph glyph-name="Ugrave.smcp" horiz-adv-x="505" 
d="M353 188v316h106v-316q0 -87 -58 -141t-150 -54t-149 54t-57 141v316h106v-316q0 -45 28 -73t72 -28q45 0 73.5 28t28.5 73zM206 677l112 -108l-50 -50l-112 108z" />
    <glyph glyph-name="Udieresis.smcp" horiz-adv-x="505" 
d="M353 188v316h106v-316q0 -87 -58 -141t-150 -54t-149 54t-57 141v316h106v-316q0 -45 28 -73t72 -28q45 0 73.5 28t28.5 73zM124 576q0 22 16 38t38 16t38 -16t16 -38t-16 -38t-38 -16t-38 16t-16 38zM270 576q0 23 16 39t39 16t39 -16t16 -39t-16 -38.5t-39 -15.5
t-39 16t-16 38z" />
    <glyph glyph-name="Ucircumflex.smcp" horiz-adv-x="505" 
d="M353 188v316h106v-316q0 -87 -58 -141t-150 -54t-149 54t-57 141v316h106v-316q0 -45 28 -73t72 -28q45 0 73.5 28t28.5 73zM252 677l111 -108l-50 -50l-61 59l-61 -59l-50 50z" />
    <glyph glyph-name="a.ord" horiz-adv-x="264" 
d="M238 495v-43q-9 -3 -23 -3q-35 0 -50 28q-29 -30 -69 -30q-33 0 -52.5 21t-19.5 50q0 39 33.5 61.5t82.5 22.5q4 0 10 -0.5t7 -0.5v15q0 14 -10 25t-29 11q-30 0 -47 -19l-35 35q37 37 88 37q45 0 71.5 -25.5t26.5 -63.5v-103q0 -18 16 -18zM118 500q25 0 39 17v41
q-4 1 -14 1q-22 0 -37.5 -9t-15.5 -24q0 -26 28 -26z" />
    <glyph glyph-name="b.ord" horiz-adv-x="307" 
d="M147 447q-76 0 -111 49h-1v369h65v-175q26 15 61 15q53 0 86.5 -35.5t33.5 -93.5t-36.5 -93.5t-97.5 -35.5zM214 576q0 32 -18 51.5t-46 19.5q-32 0 -50 -24v-108q3 0 20 -5t29 -5q29 0 47 19.5t18 51.5z" />
    <glyph glyph-name="c.ord" horiz-adv-x="267" 
d="M93 576q0 -32 18.5 -51.5t47.5 -19.5q32 0 49 19l39 -40q-34 -37 -92 -37t-93.5 35.5t-35.5 93.5t35.5 93.5t93.5 35.5q57 0 92 -38l-39 -40q-18 20 -49 20q-29 0 -47.5 -20t-18.5 -51z" />
    <glyph glyph-name="d.ord" horiz-adv-x="307" 
d="M272 452h-65v16q-29 -21 -67 -21q-51 0 -82.5 35.5t-31.5 93.5t35 93.5t91 35.5q26 0 55 -12v172h65v-413zM93 576q0 -32 18.5 -51.5t47.5 -19.5q31 0 48 17v108q-19 17 -48 17t-47.5 -20t-18.5 -51z" />
    <glyph glyph-name="e.ord" horiz-adv-x="287" 
d="M264 556h-169q12 -51 67 -51q34 0 51 19l39 -40q-35 -37 -95 -37q-59 0 -95 35.5t-36 94.5q0 57 33.5 92.5t88.5 35.5q56 0 86 -39t30 -110zM149 649q-44 0 -54 -49h104q-8 49 -50 49z" />
    <glyph glyph-name="egrave.ord" horiz-adv-x="287" 
d="M264 556h-169q12 -51 67 -51q34 0 51 19l39 -40q-35 -37 -95 -37q-59 0 -95 35.5t-36 94.5q0 57 33.5 92.5t88.5 35.5q56 0 86 -39t30 -110zM149 649q-44 0 -54 -49h104q-8 49 -50 49zM115 836l78 -78l-32 -32l-79 78z" />
    <glyph glyph-name="f.ord" horiz-adv-x="197" 
d="M22 649v51h31v73q0 44 25.5 70.5t69.5 26.5q18 0 30 -6v-53q-10 4 -18 4q-18 0 -28.5 -11.5t-10.5 -30.5v-73h57v-51h-57v-197h-68v197h-31z" />
    <glyph glyph-name="g.ord" horiz-adv-x="297" 
d="M12 391q0 43 51 65q-26 14 -26 41q0 26 28 40q-36 23 -36 73q0 43 29 69t76 26q42 0 72 -23q21 23 45 23q3 0 8 -0.5t7 -0.5v-52q-6 3 -12 3q-11 0 -20 -12q5 -17 5 -31q0 -41 -29 -67t-77 -26q-33 0 -33 -21q0 -20 42 -20q56 0 90.5 -22.5t34.5 -59.5q0 -38 -38 -62.5
t-95 -24.5q-55 0 -88.5 23t-33.5 59zM80 391q0 -32 53 -32q27 0 46.5 10t19.5 26q0 15 -15.5 24t-41.5 9q-28 0 -45 -10t-17 -27zM94 612q0 -19 11.5 -30.5t29.5 -11.5t29.5 11.5t11.5 30.5q0 18 -11.5 30.5t-29.5 12.5t-29.5 -12.5t-11.5 -30.5z" />
    <glyph glyph-name="h.ord" horiz-adv-x="294" 
d="M35 865h65v-183q28 23 66 23q42 0 67 -29.5t25 -77.5v-146h-65v146q0 22 -12.5 35.5t-32.5 13.5q-31 0 -48 -19v-176h-65v413z" />
    <glyph glyph-name="i.ord" horiz-adv-x="136" 
d="M35 452v248h65v-248h-65zM30 774q0 16 11 27t27 11t27.5 -11t11.5 -27t-11.5 -27.5t-27.5 -11.5t-27 11.5t-11 27.5z" />
    <glyph glyph-name="j.ord" horiz-adv-x="136" 
d="M29 774q0 16 11.5 27t27.5 11t27 -11t11 -27t-11 -27.5t-27 -11.5t-27.5 11.5t-11.5 27.5zM11 315v42q24 0 24 24v319h65v-320q0 -31 -16.5 -50t-48.5 -19q-17 0 -24 4z" />
    <glyph glyph-name="k.ord" horiz-adv-x="277" 
d="M100 452h-65v413h65v-264l77 99h77l-93 -115l103 -133h-76l-88 116v-116z" />
    <glyph glyph-name="l.ord" horiz-adv-x="152" 
d="M127 495v-43q-8 -3 -26 -3q-32 0 -49 19t-17 50v347h65v-346q0 -24 27 -24z" />
    <glyph glyph-name="m.ord" horiz-adv-x="428" 
d="M327 452v159q0 16 -9 26t-24 10q-32 0 -50 -15q2 -14 2 -21v-159h-65v159q0 16 -9 26t-24 10q-31 0 -48 -19v-176h-65v248h65v-18q28 23 66 23q41 0 64 -34q31 34 82 34q37 0 59 -26t22 -68v-159h-66z" />
    <glyph glyph-name="n.ord" horiz-adv-x="293" 
d="M35 700h65v-18q28 23 66 23q42 0 67 -29.5t25 -77.5v-146h-65v146q0 22 -12.5 35.5t-32.5 13.5q-31 0 -48 -19v-176h-65v248z" />
    <glyph glyph-name="p.ord" horiz-adv-x="307" 
d="M35 700h65v-18q30 23 67 23q52 0 83.5 -35.5t31.5 -93.5t-35 -93.5t-91 -35.5q-32 0 -56 12v-144h-65v385zM214 576q0 31 -18.5 51t-47.5 20q-31 0 -48 -19v-105q17 -18 48 -18q29 0 47.5 19.5t18.5 51.5z" />
    <glyph glyph-name="q.ord" horiz-adv-x="307" 
d="M273 655l-1 -1v-339h-65v147q-27 -15 -61 -15q-53 0 -86.5 35.5t-33.5 93.5t37 93.5t97 35.5q76 0 113 -50zM93 576q0 -32 17.5 -51.5t46.5 -19.5q35 0 50 24v108q-4 0 -21 5t-28 5q-29 0 -47 -20t-18 -51z" />
    <glyph glyph-name="r.ord" horiz-adv-x="202" 
d="M159 704q5 0 15 -2v-56q-9 3 -20 3q-35 0 -54 -32v-165h-65v248h65v-24q28 28 59 28z" />
    <glyph glyph-name="s.ord" horiz-adv-x="223" 
d="M196 672l-40 -40q-16 18 -38 18q-10 0 -16 -6.5t-6 -14.5q0 -15 26 -25t52 -27.5t26 -50.5t-24 -56t-65 -23q-52 0 -89 37l40 40q19 -23 45 -23q13 0 20.5 8t7.5 17q0 12 -16.5 20.5t-35.5 14.5t-35.5 23t-16.5 44q0 33 21.5 55t60.5 22q48 0 83 -33z" />
    <glyph glyph-name="t.ord" horiz-adv-x="195" 
d="M22 649v51h28v55h68v-55h53v-51h-53v-110q0 -16 10 -27t25 -11q10 0 18 5v-54q-11 -5 -30 -5q-42 0 -66.5 25t-24.5 67v110h-28z" />
    <glyph glyph-name="u.ord" horiz-adv-x="297" 
d="M262 700v-142q0 -49 -32 -80t-82 -31t-81.5 31t-31.5 80v142h68v-142q0 -24 13.5 -38.5t33.5 -14.5q21 0 34.5 14.5t13.5 38.5v142h64z" />
    <glyph glyph-name="uacute.ord" horiz-adv-x="297" 
d="M262 700v-142q0 -49 -32 -80t-82 -31t-81.5 31t-31.5 80v142h68v-142q0 -24 13.5 -38.5t33.5 -14.5q21 0 34.5 14.5t13.5 38.5v142h64zM104 758l78 78l32 -32l-77 -78z" />
    <glyph glyph-name="v.ord" horiz-adv-x="299" 
d="M290 700l-110 -248h-61l-109 248h72l68 -166l68 166h72z" />
    <glyph glyph-name="w.ord" horiz-adv-x="442" 
d="M432 700l-93 -248h-68l-50 155l-51 -155h-67l-93 248h75l51 -168l52 168h66l52 -168l51 168h75z" />
    <glyph glyph-name="x.ord" horiz-adv-x="300" 
d="M212 452l-62 86l-63 -86h-74l94 127l-90 121h76l57 -80l57 80h75l-90 -121l95 -127h-75z" />
    </font>
</defs>
</svg>
