<?xml version="1.0" standalone="no"?>
<!DOCTYPE svg PUBLIC "-//W3C//DTD SVG 1.1//EN" "http://www.w3.org/Graphics/SVG/1.1/DTD/svg11.dtd" >
<svg>
<metadata>
Created by FontForge 20090622 at Fri Sep 23 08:35:10 2016
 By deploy user
Copyright (c) 2014 by Andriy Konstantynov. All rights reserved.
</metadata>
<defs>
<font id="ProbaPro-Light" horiz-adv-x="216" >
  <font-face 
    font-family="Proba Pro Lt"
    font-weight="350"
    font-stretch="normal"
    units-per-em="1000"
    panose-1="2 13 0 3 3 2 0 0 0 0"
    ascent="750"
    descent="-250"
    x-height="450"
    cap-height="700"
    bbox="-27 -257 1178 992"
    underline-thickness="50"
    underline-position="-50"
    unicode-range="U+0020-U+FB03"
  />
<missing-glyph horiz-adv-x="230" 
 />
    <glyph glyph-name="ff" unicode="ff" horiz-adv-x="566" 
d="M346 0v404h-191v-404h-56v404h-66v46h66v164q0 65 38 104t102 39q26 0 54 -10v-50q-20 11 -46 11q-41 0 -66.5 -26t-25.5 -68v-164h191v164q0 65 38.5 104t102.5 39q26 0 54 -10v-50q-20 11 -46 11q-41 0 -66.5 -26t-25.5 -68v-164h138v-46h-138v-404h-57z" />
    <glyph glyph-name="fi" unicode="fi" horiz-adv-x="482" 
d="M346 0v404h-191v-404h-56v404h-66v46h66v164q0 65 38 104t102 39q26 0 54 -10v-50q-20 11 -46 11q-41 0 -66.5 -26t-25.5 -68v-164h247v-450h-56zM333 585q0 17 12 29t29 12t29 -12t12 -29t-12 -29t-29 -12t-29 12t-12 29z" />
    <glyph glyph-name="ffi" unicode="ffi" horiz-adv-x="730" 
d="M594 0v404h-191v-404h-57v404h-191v-404h-56v404h-66v46h66v164q0 65 38 104t102 39q26 0 54 -10v-50q-20 11 -46 11q-41 0 -66.5 -26t-25.5 -68v-164h191v164q0 65 38.5 104t102.5 39q26 0 54 -10v-50q-20 11 -46 11q-41 0 -66.5 -26t-25.5 -68v-164h246v-450h-55z
M581 585q0 17 12 29t29 12t29 -12t12 -29t-12 -29t-29 -12t-29 12t-12 29z" />
    <glyph glyph-name="f_j" unicode="fj" horiz-adv-x="482" 
d="M287 -250v37q59 0 59 57v560h-191v-404h-56v404h-66v46h66v164q0 65 38 104t102 39q26 0 54 -10v-50q-20 11 -46 11q-41 0 -66.5 -26t-25.5 -68v-164h247v-607q0 -45 -24 -71t-63 -26q-21 0 -28 4zM333 585q0 17 12 29t29 12t29 -12t12 -29t-12 -29t-29 -12t-29 12
t-12 29z" />
    <glyph glyph-name="afii10104_afii10104" unicode="&#x457;&#x457;" horiz-adv-x="433" 
d="M81 0v450h55v-450h-55zM-4 558q0 16 12 28t28 12t27.5 -11.5t11.5 -28.5q0 -16 -11.5 -27.5t-27.5 -11.5q-17 0 -28.5 11.5t-11.5 27.5zM297 0v450h55v-450h-55zM357 558q0 17 11.5 28.5t28.5 11.5t28 -11.5t11 -28.5q0 -16 -11 -27.5t-28 -11.5t-28.5 11.5t-11.5 27.5z
M177 558q0 17 11 28.5t28 11.5t28.5 -11.5t11.5 -28.5t-11.5 -28t-28.5 -11q-16 0 -27.5 11.5t-11.5 27.5z" />
    <glyph glyph-name="afii10103_afii10104" unicode="&#x456;&#x457;" horiz-adv-x="433" 
d="M81 0v450h55v-450h-55zM67 585q0 17 12 29t29 12t29 -12t12 -29t-12 -29t-29 -12t-29 12t-12 29zM297 0v450h55v-450h-55zM219 558q0 17 11.5 28.5t27.5 11.5t27.5 -11.5t11.5 -28.5q0 -16 -11.5 -27.5t-27.5 -11.5t-27.5 11.5t-11.5 27.5zM357 558q0 17 11.5 28.5
t28.5 11.5t28 -11.5t11 -28.5q0 -16 -11 -27.5t-28 -11.5t-28.5 11.5t-11.5 27.5z" />
    <glyph glyph-name="quoteright_afii10104" unicode="&#x2019;&#x457;" horiz-adv-x="292" 
d="M48 508l-21 21q38 40 43 69q-16 2 -26 13t-10 27q0 17 12 29t29 12t29 -12t12 -37q0 -56 -68 -122zM157 0v450h55v-450h-55zM217 558q0 17 11 28.5t28 11.5t28.5 -11.5t11.5 -28.5t-11.5 -28t-28.5 -11q-16 0 -27.5 11.5t-11.5 27.5z" />
    <glyph glyph-name="afii10056_afii10056" unicode="&#x407;&#x407;" horiz-adv-x="436" 
d="M81 0v700h56v-700h-56zM-6 797q0 17 11 28t28 11t28.5 -11.5t11.5 -27.5q0 -17 -11.5 -28.5t-28.5 -11.5q-16 0 -27.5 11.5t-11.5 28.5zM299 0v700h56v-700h-56zM363 797q0 16 11.5 27.5t28.5 11.5t28 -11t11 -28t-11.5 -28.5t-27.5 -11.5q-17 0 -28.5 11.5t-11.5 28.5z
M178 797q0 17 11 28t28 11t28.5 -11t11.5 -28t-11.5 -28.5t-28.5 -11.5q-16 0 -27.5 11.5t-11.5 28.5z" />
    <glyph glyph-name="f_f_j" unicode="ffj" horiz-adv-x="730" 
d="M535 -250v37q59 0 59 57v560h-191v-404h-57v404h-191v-404h-56v404h-66v46h66v164q0 65 38 104t102 39q26 0 54 -10v-50q-20 11 -46 11q-41 0 -66.5 -26t-25.5 -68v-164h191v164q0 65 38.5 104t102.5 39q26 0 54 -10v-50q-20 11 -46 11q-41 0 -66.5 -26t-25.5 -68v-164
h246v-607q0 -45 -24 -71t-62 -26q-21 0 -28 4zM581 585q0 17 12 29t29 12t29 -12t12 -29t-12 -29t-29 -12t-29 12t-12 29z" />
    <glyph glyph-name=".notdef" horiz-adv-x="230" 
 />
    <glyph glyph-name=".null" horiz-adv-x="0" 
 />
    <glyph glyph-name="nonmarkingreturn" horiz-adv-x="333" 
 />
    <glyph glyph-name="space" unicode=" " horiz-adv-x="230" 
 />
    <glyph glyph-name="exclam" unicode="!" 
d="M67 34q0 17 12 29t29 12t29 -12t12 -29t-12 -29t-29 -12t-29 12t-12 29zM81 186v514h55v-514h-55z" />
    <glyph glyph-name="quotedbl" unicode="&#x22;" horiz-adv-x="360" 
d="M81 450v250h48v-250h-48zM230 450v250h49v-250h-49z" />
    <glyph glyph-name="numbersign" unicode="#" horiz-adv-x="597" 
d="M333 0l30 184h-183l-30 -184h-56l30 184h-80v46h87l39 240h-88v46h95l30 184h56l-31 -184h185l30 184h56l-31 -184h82v-46h-88l-40 -240h90v-46h-97l-30 -184h-56zM226 470l-40 -240h185l39 240h-184z" />
    <glyph glyph-name="dollar" unicode="$" horiz-adv-x="521" 
d="M239 -100v93q-119 6 -195 88l36 36q58 -68 159 -72v287q-42 17 -67 29.5t-55 35t-44.5 54t-14.5 73.5q0 74 45.5 127t135.5 56v93h36v-95q101 -10 167 -77l-37 -37q-49 52 -130 62v-274l55.5 -23t49 -25.5t45.5 -35t27 -45.5t12 -61q0 -75 -48.5 -132t-140.5 -63v-94h-36
zM405 188q0 48 -33 76.5t-97 53.5v-272q65 8 97.5 51t32.5 91zM117 525q0 -48 31.5 -77t90.5 -54v260q-61 -4 -91.5 -42.5t-30.5 -86.5z" />
    <glyph glyph-name="percent" unicode="%" horiz-adv-x="836" 
d="M207 0l365 700h57l-364 -700h-58zM44 542q0 73 45 119t117 46q73 0 118 -45.5t45 -119.5t-45 -119.5t-118 -45.5q-72 0 -117 46t-45 119zM94 542q0 -53 31.5 -87t80.5 -34q50 0 81.5 34t31.5 87t-31.5 87t-81.5 34q-49 0 -80.5 -34t-31.5 -87zM467 158q0 73 45 119
t117 46q73 0 118 -45.5t45 -119.5t-45 -119.5t-118 -45.5q-72 0 -117 46t-45 119zM517 158q0 -53 31.5 -87t80.5 -34q50 0 81.5 34t31.5 87t-31.5 87t-81.5 34q-49 0 -80.5 -34t-31.5 -87z" />
    <glyph glyph-name="ampersand" unicode="&#x26;" horiz-adv-x="609" 
d="M340 358v48h225v-48h-84v-158q0 -92 -59.5 -149.5t-154.5 -57.5q-96 0 -155.5 57.5t-59.5 149.5q0 67 33.5 115t91.5 68q-43 19 -67 57.5t-24 90.5q0 78 50 127t131 49q80 0 130.5 -49t50.5 -127h-57q0 55 -34.5 90t-89.5 35t-90 -35t-35 -90t35 -90t90 -35h29v-48h-29
q-70 0 -114 -44t-44 -114q0 -69 44 -112.5t114 -43.5t113.5 43.5t43.5 112.5v158h-84z" />
    <glyph glyph-name="quotesingle" unicode="'" horiz-adv-x="210" 
d="M81 450v250h48v-250h-48z" />
    <glyph glyph-name="parenleft" unicode="(" horiz-adv-x="300" 
d="M243 757v-44q-49 0 -84 -130.5t-35 -332.5t35 -332.5t84 -130.5v-44q-75 0 -125.5 142t-50.5 365t50.5 365t125.5 142z" />
    <glyph glyph-name="parenright" unicode=")" horiz-adv-x="300" 
d="M57 713v44q75 0 125.5 -142t50.5 -365t-50.5 -365t-125.5 -142v44q50 0 84.5 130.5t34.5 332.5t-34.5 332.5t-84.5 130.5z" />
    <glyph glyph-name="asterisk" unicode="*" horiz-adv-x="443" 
d="M222 490l-84 -116l-35 26l83 116l-136 44l14 41l136 -44v143h43v-143l137 45l13 -41l-137 -45l85 -116l-36 -25z" />
    <glyph glyph-name="plus" unicode="+" horiz-adv-x="440" 
d="M67 274v46h130v130h46v-130h130v-46h-130v-130h-46v130h-130z" />
    <glyph glyph-name="comma" unicode="," 
d="M82 -96l-22 21q39 41 43 69q-15 2 -25.5 13.5t-10.5 26.5q0 17 12 29t30 12q17 0 28.5 -12t11.5 -37q0 -57 -67 -122z" />
    <glyph glyph-name="hyphen" unicode="-" horiz-adv-x="340" 
d="M67 240v46h206v-46h-206z" />
    <glyph glyph-name="period" unicode="." 
d="M67 34q0 17 12 29t29 12t29 -12t12 -29t-12 -29t-29 -12t-29 12t-12 29z" />
    <glyph glyph-name="slash" unicode="/" horiz-adv-x="543" 
d="M61 -50l365 800h56l-365 -800h-56z" />
    <glyph glyph-name="zero" unicode="0" horiz-adv-x="567" 
d="M54 350q0 159 63.5 258t165.5 99q103 0 166.5 -99t63.5 -258t-63.5 -258t-166.5 -99q-102 0 -165.5 99t-63.5 258zM110 350q0 -136 48 -221t125 -85t125 84.5t48 221.5t-48 221.5t-125 84.5t-125 -85t-48 -221z" />
    <glyph glyph-name="one" unicode="1" horiz-adv-x="306" 
d="M33 628v45l166 31v-704h-56v650z" />
    <glyph glyph-name="two" unicode="2" horiz-adv-x="515" 
d="M55 53l307 306q44 44 44 129q0 74 -42 121t-109 47t-109 -47t-42 -121h-57q0 98 57.5 158.5t150.5 60.5t150.5 -60.5t57.5 -158.5q0 -105 -62 -167l-273 -272h335v-49h-408v53z" />
    <glyph glyph-name="three" unicode="3" horiz-adv-x="530" 
d="M217 358v48h46q55 0 89.5 35t34.5 90q0 56 -34.5 90.5t-89.5 34.5t-89.5 -35t-34.5 -90h-57q0 78 50.5 127t130.5 49q81 0 131 -49t50 -127q0 -52 -24.5 -90.5t-67.5 -57.5q59 -20 92.5 -68t33.5 -115q0 -92 -59.5 -149.5t-155.5 -57.5t-155 57.5t-59 149.5h56
q0 -69 44 -112.5t114 -43.5t114 43.5t44 112.5q0 70 -44 114t-114 44h-46z" />
    <glyph glyph-name="four" unicode="4" horiz-adv-x="541" 
d="M366 0v140h-322v32l318 528h57v-511h65v-49h-63v-140h-55zM112 189h255v426z" />
    <glyph glyph-name="five" unicode="5" horiz-adv-x="520" 
d="M463 212q0 -98 -57.5 -158.5t-150.5 -60.5t-150.5 56.5t-57.5 146.5h55q0 -68 42.5 -110t110.5 -42q67 0 109 47t42 121q0 82 -47 132.5t-122 50.5q-78 0 -126 -46l-40 19l45 332h296v-49h-247l-34 -234q43 28 108 28q100 0 162 -64.5t62 -168.5z" />
    <glyph glyph-name="six" unicode="6" horiz-adv-x="530" 
d="M296 707l47 -28q-103 -155 -171 -276q39 25 94 25q96 0 155.5 -59.5t59.5 -157.5q0 -97 -59.5 -157.5t-156.5 -60.5t-156.5 60.5t-59.5 161.5q0 18 2 35t4.5 31.5t10 34.5l13 34t20.5 40.5l24.5 43t32.5 53.5l38 60.5l47.5 74zM105 212q0 -75 44.5 -121.5t115.5 -46.5
t115.5 46.5t44.5 121.5q0 74 -44.5 120.5t-115.5 46.5t-115.5 -46.5t-44.5 -120.5z" />
    <glyph glyph-name="seven" unicode="7" horiz-adv-x="518" 
d="M54 651v49h410v-25l-260 -675h-59l249 651h-340z" />
    <glyph glyph-name="eight" unicode="8" horiz-adv-x="533" 
d="M86 531q0 78 50 127t131 49q80 0 130.5 -49t50.5 -127q0 -52 -24.5 -90.5t-67.5 -57.5q58 -20 91.5 -68t33.5 -115q0 -92 -59.5 -149.5t-154.5 -57.5q-96 0 -155.5 57.5t-59.5 149.5q0 67 33.5 115t91.5 68q-91 40 -91 148zM109 200q0 -69 44 -112.5t114 -43.5
t113.5 43.5t43.5 112.5q0 70 -43.5 113.5t-113.5 43.5t-114 -43.5t-44 -113.5zM142 531q0 -55 35 -89.5t90 -34.5t89.5 34.5t34.5 89.5t-34.5 90t-89.5 35t-90 -35t-35 -90z" />
    <glyph glyph-name="nine" unicode="9" horiz-adv-x="530" 
d="M234 -7l-47 28q103 155 171 276q-39 -25 -94 -25q-96 0 -155.5 59.5t-59.5 157.5q0 97 59.5 157.5t156.5 60.5t156.5 -60.5t59.5 -161.5q0 -18 -2 -35t-4.5 -31.5t-10 -34.5l-13 -34t-20.5 -40.5l-24.5 -43t-32.5 -53.5l-38 -60.5l-47.5 -74zM425 488q0 75 -44.5 121.5
t-115.5 46.5t-115.5 -46.5t-44.5 -121.5q0 -74 44.5 -120.5t115.5 -46.5t115.5 46.5t44.5 120.5z" />
    <glyph glyph-name="colon" unicode=":" 
d="M67 34q0 17 12 29t29 12t29 -12t12 -29t-12 -29t-29 -12t-29 12t-12 29zM67 416q0 17 12 29t29 12t29 -12t12 -29t-12 -29t-29 -12t-29 12t-12 29z" />
    <glyph glyph-name="semicolon" unicode=";" 
d="M67 416q0 17 12 29t29 12t29 -12t12 -29t-12 -29t-29 -12t-29 12t-12 29zM82 -96l-22 21q39 41 43 69q-15 2 -25.5 13.5t-10.5 26.5q0 17 12 29t30 12q17 0 28.5 -12t11.5 -37q0 -57 -67 -122z" />
    <glyph glyph-name="less" unicode="&#x3c;" horiz-adv-x="410" 
d="M316 111l-276 189l276 189l33 -33l-229 -156l229 -156z" />
    <glyph glyph-name="equal" unicode="=" horiz-adv-x="484" 
d="M67 334v46h350v-46h-350zM67 161v45h350v-45h-350z" />
    <glyph glyph-name="greater" unicode="&#x3e;" horiz-adv-x="410" 
d="M363 300l-276 -189l-33 33l229 156l-229 156l33 33z" />
    <glyph glyph-name="question" unicode="?" horiz-adv-x="468" 
d="M79 597l-37 37q75 73 188 73q92 0 140.5 -52.5t48.5 -125.5q0 -42 -16 -72t-39.5 -49l-46.5 -38t-39 -51t-16 -76v-57h-56v57q0 44 11.5 78t29 53t38 37t38 32t29 35.5t11.5 49.5q0 51 -33.5 89.5t-100.5 38.5q-42 0 -83 -16t-67 -43zM193 34q0 17 12 29t29 12t29 -12
t12 -29t-12 -29t-29 -12t-29 12t-12 29z" />
    <glyph glyph-name="at" unicode="@" horiz-adv-x="1040" 
d="M844 -82l35 -35q-62 -67 -155 -103.5t-200 -36.5q-213 0 -344 133.5t-131 348.5t131 348.5t342 133.5q107 0 196 -35t148 -95t92 -141t33 -172q0 -73 -20.5 -128t-53.5 -84.5t-69.5 -44t-75.5 -14.5q-86 0 -111 51q-61 -51 -142 -51q-98 0 -159 64t-61 168t63.5 168
t166.5 64q118 0 181 -68v-295q0 -24 19.5 -37t51.5 -13q60 0 107 52.5t47 162.5q0 169 -112.5 283t-299.5 114q-185 0 -301.5 -119.5t-116.5 -311.5t116.5 -311.5t303.5 -119.5q96 0 180 32.5t139 91.5zM356 225q0 -81 48.5 -131t126.5 -50q75 0 123 46v278q-48 38 -126 38
q-77 0 -124.5 -50t-47.5 -131z" />
    <glyph glyph-name="A" unicode="A" horiz-adv-x="744" 
d="M645 0l-96 218h-355l-95 -218h-65l310 700h55l311 -700h-65zM372 629l-156 -359h311z" />
    <glyph glyph-name="B" unicode="B" horiz-adv-x="541" 
d="M84 0v700h181q82 0 132 -49t50 -130q0 -109 -87 -153q58 -17 91.5 -64t33.5 -114q0 -86 -53 -138t-140 -52h-208zM429 194q0 64 -38.5 103t-100.5 39h-148v-286h148q62 0 100.5 39.5t38.5 104.5zM390 518q0 59 -35 95.5t-93 36.5h-120v-264h120q58 0 93 36.5t35 95.5z
" />
    <glyph glyph-name="C" unicode="C" horiz-adv-x="702" 
d="M112 350q0 -136 81.5 -220.5t212.5 -84.5q132 0 215 86l38 -36q-97 -102 -256 -102q-156 0 -252.5 99t-96.5 258t96.5 258t252.5 99q157 0 256 -102l-38 -37q-82 87 -215 87q-131 0 -212.5 -84.5t-81.5 -220.5z" />
    <glyph glyph-name="D" unicode="D" horiz-adv-x="690" 
d="M84 0v700h202q157 0 253.5 -96t96.5 -254t-96.5 -254t-253.5 -96h-202zM577 350q0 135 -80 217.5t-211 82.5h-144v-600h144q131 0 211 82.5t80 217.5z" />
    <glyph glyph-name="E" unicode="E" horiz-adv-x="506" 
d="M141 651v-273h274v-49h-274v-280h313v-49h-370v700h365v-49h-308z" />
    <glyph glyph-name="F" unicode="F" horiz-adv-x="477" 
d="M141 651v-273h254v-49h-254v-329h-57v700h348v-49h-291z" />
    <glyph glyph-name="G" unicode="G" horiz-adv-x="743" 
d="M403 314v49h256v-269q-98 -101 -256 -101q-156 0 -252.5 99t-96.5 258t96.5 258t252.5 99q157 0 256 -102l-38 -37q-82 87 -215 87q-131 0 -212.5 -84.5t-81.5 -220.5t81.5 -220.5t212.5 -84.5q116 0 196 70v199h-199z" />
    <glyph glyph-name="H" unicode="H" horiz-adv-x="694" 
d="M141 700v-322h412v322h57v-700h-57v329h-412v-329h-57v700h57z" />
    <glyph glyph-name="I" unicode="I" horiz-adv-x="218" 
d="M81 0v700h56v-700h-56z" />
    <glyph glyph-name="J" unicode="J" horiz-adv-x="454" 
d="M316 186v514h57v-514q0 -86 -53 -139.5t-138 -53.5t-138 55l37 38q38 -41 99 -41t98.5 39.5t37.5 101.5z" />
    <glyph glyph-name="K" unicode="K" horiz-adv-x="585" 
d="M81 0v700h56v-700h-56zM476 0l-321 359l300 341h72l-301 -341l322 -359h-72z" />
    <glyph glyph-name="L" unicode="L" horiz-adv-x="467" 
d="M141 700v-651h282v-49h-339v700h57z" />
    <glyph glyph-name="M" unicode="M" horiz-adv-x="814" 
d="M674 0v582l-252 -415h-30l-251 415v-582h-57v700h44l279 -456l279 456h44v-700h-56z" />
    <glyph glyph-name="N" unicode="N" horiz-adv-x="715" 
d="M84 700h41l449 -594v594h57v-700h-41l-449 594v-594h-57v700z" />
    <glyph glyph-name="O" unicode="O" horiz-adv-x="807" 
d="M54 350q0 159 96.5 258t252.5 99q157 0 253.5 -99t96.5 -258t-96.5 -258t-253.5 -99q-156 0 -252.5 99t-96.5 258zM112 350q0 -136 81 -220.5t210 -84.5q130 0 211 84.5t81 220.5t-81 220.5t-211 84.5q-129 0 -210 -84.5t-81 -220.5z" />
    <glyph glyph-name="P" unicode="P" horiz-adv-x="514" 
d="M84 0v700h181q88 0 142 -52.5t54 -139.5q0 -86 -54 -138.5t-142 -52.5h-123v-317h-58zM402 508q0 64 -37.5 103t-99.5 39h-123v-282h123q62 0 99.5 38.5t37.5 101.5z" />
    <glyph glyph-name="Q" unicode="Q" horiz-adv-x="807" 
d="M731 -27l-99 98q-94 -78 -229 -78q-156 0 -252.5 99t-96.5 258t96.5 258t252.5 99q157 0 253.5 -99t96.5 -258q0 -145 -84 -242l98 -98zM112 350q0 -136 80.5 -220.5t210.5 -84.5q116 0 191 64l-122 122l37 37l118 -118q67 81 67 200q0 136 -80.5 220.5t-210.5 84.5
t-210.5 -84.5t-80.5 -220.5z" />
    <glyph glyph-name="R" unicode="R" horiz-adv-x="527" 
d="M427 0l-176 317h-109v-317h-58v700h188q88 0 141.5 -52.5t53.5 -139.5q0 -76 -42.5 -126.5t-114.5 -61.5l183 -320h-66zM409 508q0 64 -37.5 103t-99.5 39h-130v-282h130q62 0 99.5 38.5t37.5 101.5z" />
    <glyph glyph-name="S" unicode="S" horiz-adv-x="521" 
d="M442 628l-37 -37q-25 28 -68 46t-86 18q-67 0 -100.5 -39.5t-33.5 -90.5q0 -36 19 -62.5t49.5 -43t67.5 -31t74.5 -31t68 -36.5t49.5 -54t19 -78q0 -79 -54 -137.5t-156 -58.5q-128 0 -210 88l36 36q30 -34 76.5 -53t92.5 -19q78 0 117 45t39 98q0 40 -25.5 68.5
t-64.5 44l-83.5 34.5t-83.5 39t-64.5 58.5t-25.5 91.5q0 76 48 129.5t141 53.5q119 0 195 -79z" />
    <glyph glyph-name="T" unicode="T" horiz-adv-x="557" 
d="M308 651v-651h-57v651h-207v49h471v-49h-207z" />
    <glyph glyph-name="U" unicode="U" horiz-adv-x="681" 
d="M539 253v447h58v-447q0 -116 -71.5 -188t-185.5 -72q-115 0 -185.5 72t-70.5 188v447h57v-447q0 -92 55 -150t143 -58q89 0 144.5 58t55.5 150z" />
    <glyph glyph-name="V" unicode="V" horiz-adv-x="744" 
d="M710 700l-311 -700h-55l-310 700h67l271 -627l271 627h67z" />
    <glyph glyph-name="W" unicode="W" horiz-adv-x="1146" 
d="M1112 700l-266 -700h-59l-214 604l-214 -604h-59l-266 700h65l230 -615l214 615h60l214 -615l230 615h65z" />
    <glyph glyph-name="X" unicode="X" horiz-adv-x="714" 
d="M604 0l-247 315l-247 -315h-73l279 354l-273 346h73l241 -306l240 306h73l-273 -346l280 -354h-73z" />
    <glyph glyph-name="Y" unicode="Y" horiz-adv-x="661" 
d="M302 0v309l-268 391h66l230 -335l230 335h67l-268 -392v-308h-57z" />
    <glyph glyph-name="Z" unicode="Z" horiz-adv-x="625" 
d="M61 651v49h507v-25l-433 -626h437v-49h-518v25l433 626h-426z" />
    <glyph glyph-name="bracketleft" unicode="[" horiz-adv-x="297" 
d="M239 750v-46h-103v-908h103v-46h-158v1000h158z" />
    <glyph glyph-name="backslash" unicode="\" horiz-adv-x="543" 
d="M117 750l365 -800h-56l-365 800h56z" />
    <glyph glyph-name="bracketright" unicode="]" horiz-adv-x="297" 
d="M57 704v46h159v-1000h-159v46h104v908h-104z" />
    <glyph glyph-name="asciicircum" unicode="^" horiz-adv-x="459" 
d="M230 667l189 -190l-30 -30l-159 160l-160 -160l-30 30z" />
    <glyph glyph-name="underscore" unicode="_" horiz-adv-x="450" 
d="M0 -146v46h450v-46h-450z" />
    <glyph glyph-name="grave" unicode="`" horiz-adv-x="263" 
d="M87 667l119 -119l-30 -30l-119 119z" />
    <glyph glyph-name="a" unicode="a" horiz-adv-x="449" 
d="M402 37v-37q-7 -4 -25 -4q-52 0 -67 48q-54 -51 -131 -51q-64 0 -96 36t-32 85q0 67 61.5 105.5t157.5 38.5q23 0 35 -3v64q0 36 -25 63t-74 27q-67 0 -102 -37l-32 31q54 54 138 54q73 0 112 -40.5t39 -97.5v-242q0 -40 41 -40zM194 41q67 0 111 47v127q-11 3 -32 3
q-74 0 -120.5 -27t-46.5 -72q0 -30 20.5 -54t67.5 -24z" />
    <glyph glyph-name="b" unicode="b" horiz-adv-x="539" 
d="M261 -7q-118 0 -180 68v689h55v-335q54 42 132 42q99 0 161 -64.5t62 -167.5q0 -104 -63.5 -168t-166.5 -64zM434 225q0 81 -48 131t-125 50q-78 0 -125 -50v-274q48 -38 126 -38q77 0 124.5 50t47.5 131z" />
    <glyph glyph-name="c" unicode="c" horiz-adv-x="482" 
d="M105 225q0 -81 48.5 -131t126.5 -50q80 0 128 51l35 -35q-64 -67 -166 -67t-165 64t-63 168t63 168t165 64q103 0 166 -68l-35 -34q-48 51 -128 51q-78 0 -126.5 -50t-48.5 -131z" />
    <glyph glyph-name="d" unicode="d" horiz-adv-x="541" 
d="M461 0h-55v40q-58 -47 -138 -47q-98 0 -158.5 64t-60.5 168t62.5 168t164.5 64q74 0 130 -39v332h55v-750zM105 225q0 -81 48.5 -131t126.5 -50q79 0 126 49v265q-48 48 -126 48t-126.5 -50t-48.5 -131z" />
    <glyph glyph-name="e" unicode="e" horiz-adv-x="511" 
d="M464 212h-357q3 -76 50.5 -122t124.5 -46q81 0 129 51l35 -35q-65 -67 -168 -67q-102 0 -165.5 64.5t-63.5 169.5q0 102 58.5 166t152.5 64q95 0 149.5 -66t54.5 -179zM262 407q-64 0 -106.5 -41.5t-48.5 -111.5h301q-7 71 -45.5 112t-100.5 41z" />
    <glyph glyph-name="f" unicode="f" horiz-adv-x="318" 
d="M33 404v46h66v164q0 65 38 104t102 39q26 0 54 -10v-50q-20 11 -46 11q-41 0 -66.5 -26t-25.5 -68v-164h138v-46h-138v-404h-56v404h-66z" />
    <glyph glyph-name="g" unicode="g" horiz-adv-x="501" 
d="M27 -120q0 44 28.5 76.5t78.5 48.5q-62 24 -62 75q0 54 68 77q-40 19 -61.5 55t-21.5 83q0 73 47.5 117.5t124.5 44.5q70 0 117 -39q33 39 75 39q9 0 25 -2v-47q-10 3 -21 3q-26 0 -52 -24q26 -38 26 -90q0 -71 -47.5 -115.5t-124.5 -44.5q-47 0 -74 -15t-27 -40
t32 -40.5t85 -15.5q94 0 150 -36.5t56 -97.5q0 -66 -63.5 -107.5t-160.5 -41.5q-91 0 -144.5 38t-53.5 99zM84 -120q0 -42 37.5 -67t102.5 -25q71 0 120 29t49 74q0 41 -41 65.5t-108 24.5q-74 0 -117 -28t-43 -73zM112 297q0 -51 32.5 -82.5t84.5 -31.5t84 31.5t32 82.5
q0 50 -32 82t-84 32t-84.5 -32t-32.5 -82z" />
    <glyph glyph-name="h" unicode="h" horiz-adv-x="526" 
d="M81 750h55v-340q56 47 137 47q76 0 122.5 -50.5t46.5 -131.5v-275h-55v275q0 58 -34.5 94.5t-90.5 36.5q-76 0 -126 -48v-358h-55v750z" />
    <glyph glyph-name="i" unicode="i" 
d="M81 0v450h55v-450h-55zM67 585q0 17 12 29t29 12t29 -12t12 -29t-12 -29t-29 -12t-29 12t-12 29z" />
    <glyph glyph-name="j" unicode="j" 
d="M67 585q0 17 12 29t29 12t29 -12t12 -29t-12 -29t-29 -12t-29 12t-12 29zM21 -250v37q27 0 43.5 14.5t16.5 42.5v606h55v-607q0 -45 -24 -71t-62 -26q-22 0 -29 4z" />
    <glyph glyph-name="k" unicode="k" horiz-adv-x="458" 
d="M136 0h-55v750h55v-750zM354 0l-218 239l195 211h67l-196 -211l219 -239h-67z" />
    <glyph glyph-name="l" unicode="l" horiz-adv-x="243" 
d="M197 37v-37q-7 -4 -30 -4q-38 0 -62 26t-24 71v657h55v-656q0 -57 61 -57z" />
    <glyph glyph-name="m" unicode="m" horiz-adv-x="762" 
d="M626 0v309q0 43 -25.5 70t-65.5 27q-81 0 -132 -51q6 -28 6 -46v-309h-56v309q0 43 -25.5 70t-65.5 27q-76 0 -126 -48v-358h-55v450h55v-40q56 47 137 47q77 0 114 -63q63 63 159 63q61 0 98 -41t37 -107v-309h-55z" />
    <glyph glyph-name="n" unicode="n" horiz-adv-x="523" 
d="M81 450h55v-40q56 47 137 47q76 0 122.5 -50.5t46.5 -131.5v-275h-55v275q0 58 -34.5 94.5t-90.5 36.5q-76 0 -126 -48v-358h-55v450z" />
    <glyph glyph-name="o" unicode="o" horiz-adv-x="557" 
d="M49 225q0 103 63.5 167.5t165.5 64.5q103 0 166.5 -64t63.5 -168t-63.5 -168t-166.5 -64q-102 0 -165.5 64.5t-63.5 167.5zM105 225q0 -81 48 -131t125 -50t125 50t48 131t-48 131t-125 50t-125 -50t-48 -131z" />
    <glyph glyph-name="p" unicode="p" horiz-adv-x="541" 
d="M81 450h55v-40q56 47 138 47q98 0 158.5 -64.5t60.5 -167.5t-63 -167.5t-164 -64.5q-77 0 -130 38v-281h-55v700zM436 225q0 81 -48.5 131t-125.5 50q-76 0 -126 -48v-267q49 -47 126 -47t125.5 50t48.5 131z" />
    <glyph glyph-name="q" unicode="q" horiz-adv-x="539" 
d="M278 457q118 0 181 -68v-639h-55v284q-57 -41 -133 -41q-99 0 -160.5 64.5t-61.5 167.5q0 104 63 168t166 64zM105 225q0 -81 48 -131t125 -50t126 49v275q-49 38 -127 38q-77 0 -124.5 -50t-47.5 -131z" />
    <glyph glyph-name="r" unicode="r" horiz-adv-x="343" 
d="M264 456q9 0 29 -2v-50q-17 3 -33 3q-77 0 -124 -65v-342h-55v450h55v-56q54 62 128 62z" />
    <glyph glyph-name="s" unicode="s" horiz-adv-x="383" 
d="M316 405l-35 -34q-35 37 -94 37q-39 0 -58.5 -22.5t-19.5 -51.5t22.5 -48.5t55 -31.5t65 -25.5t55 -39.5t22.5 -64q0 -53 -37.5 -92.5t-107.5 -39.5q-87 0 -141 57l35 35q38 -44 103 -44q47 0 70 26t23 57q0 28 -22.5 46.5t-55 30.5t-65 25.5t-55 40t-22.5 66.5
q0 51 33 87.5t97 36.5q82 0 132 -52z" />
    <glyph glyph-name="t" unicode="t" horiz-adv-x="313" 
d="M30 404v46h60v100h57v-100h131v-46h-131v-273q0 -40 24 -64.5t63 -24.5q24 0 44 11v-50q-28 -10 -53 -10q-61 0 -98 38t-37 100v273h-60z" />
    <glyph glyph-name="u" unicode="u" horiz-adv-x="535" 
d="M454 450v-269q0 -84 -51.5 -136t-135.5 -52q-83 0 -134.5 52.5t-51.5 135.5v269h56v-269q0 -61 36.5 -99t94.5 -38t94.5 38t36.5 99v269h55z" />
    <glyph glyph-name="v" unicode="v" horiz-adv-x="529" 
d="M497 450l-206 -450h-53l-206 450h62l171 -383l171 383h61z" />
    <glyph glyph-name="w" unicode="w" horiz-adv-x="794" 
d="M762 450l-176 -450h-58l-131 374l-131 -374h-58l-176 450h63l142 -384l132 384h56l132 -384l142 384h63z" />
    <glyph glyph-name="x" unicode="x" horiz-adv-x="507" 
d="M405 0l-152 193l-151 -193h-65l180 229l-174 221h65l145 -185l145 185h65l-174 -221l181 -229h-65z" />
    <glyph glyph-name="y" unicode="y" horiz-adv-x="529" 
d="M497 450l-323 -700h-61l125 250l-206 450h62l171 -384l171 384h61z" />
    <glyph glyph-name="z" unicode="z" horiz-adv-x="469" 
d="M57 404v46h358v-25l-283 -379h283v-46h-361v25l283 379h-280z" />
    <glyph glyph-name="braceleft" unicode="{" horiz-adv-x="322" 
d="M278 -213v-44q-62 0 -103.5 60.5t-41.5 154.5v99q0 74 -26 122t-63 48v44q37 0 63 48t26 123v100q0 94 41.5 154.5t103.5 60.5v-44q-37 0 -63 -48.5t-26 -122.5v-100q0 -69 -23 -120.5t-62 -72.5q39 -21 62 -72t23 -120v-99q0 -74 26 -122.5t63 -48.5z" />
    <glyph glyph-name="bar" unicode="|" 
d="M81 -250v1000h55v-1000h-55z" />
    <glyph glyph-name="braceright" unicode="}" horiz-adv-x="322" 
d="M44 -257v44q37 0 63 48.5t26 122.5v99q0 69 23 120t62 72q-39 21 -62 72.5t-23 120.5v100q0 74 -26 122.5t-63 48.5v44q62 0 103.5 -60.5t41.5 -154.5v-100q0 -75 26 -123t63 -48v-44q-37 0 -63 -48t-26 -122v-99q0 -94 -41.5 -154.5t-103.5 -60.5z" />
    <glyph glyph-name="asciitilde" unicode="~" horiz-adv-x="433" 
d="M80 252h-40q0 45 28.5 73t72.5 28q27 0 48 -10.5t32 -23t29.5 -23t40.5 -10.5q27 0 44 17.5t17 45.5h40q0 -46 -28 -74t-73 -28q-34 0 -57.5 17t-44 34t-47.5 17t-44.5 -17.5t-17.5 -45.5z" />
    <glyph glyph-name="exclamdown" unicode="&#xa1;" 
d="M67 416q0 17 12 29t29 12t29 -12t12 -29t-12 -29t-29 -12t-29 12t-12 29zM81 264h55v-514h-55v514z" />
    <glyph glyph-name="cent" unicode="&#xa2;" horiz-adv-x="482" 
d="M247 -100v95q-90 9 -144 71.5t-54 158.5q0 95 54 157.5t144 72.5v95h36v-93q98 -3 160 -68l-35 -34q-48 49 -125 51v-362q77 0 125 51l35 -35q-61 -64 -160 -67v-93h-36zM105 225q0 -72 38.5 -120t103.5 -59v357q-65 -11 -103.5 -58.5t-38.5 -119.5z" />
    <glyph glyph-name="sterling" unicode="&#xa3;" horiz-adv-x="509" 
d="M44 327v46h76v141q0 86 53 139.5t138 53.5q86 0 139 -55l-37 -38q-39 41 -100 41t-98.5 -39.5t-37.5 -101.5v-141h184v-46h-184v-219q30 -5 84.5 -35.5t87.5 -30.5q28 0 45 17.5t17 45.5h46q0 -51 -29.5 -81.5t-77.5 -30.5q-44 0 -106 35t-94 35q-28 0 -45 -17.5
t-17 -45.5h-46q0 42 21 70.5t57 36.5v220h-76z" />
    <glyph glyph-name="currency" unicode="&#xa4;" horiz-adv-x="520" 
d="M97 300q0 57 30 100l-83 84l32 32l84 -84q41 33 100 33q58 0 100 -33l84 84l32 -32l-84 -84q31 -42 31 -100q0 -59 -31 -101l84 -83l-33 -32l-83 84q-42 -33 -100 -33q-59 0 -100 33l-84 -84l-32 32l83 83q-30 43 -30 101zM148 300q0 -53 31 -87t81 -34q49 0 80.5 34
t31.5 87t-31.5 87t-80.5 34q-50 0 -81 -34t-31 -87z" />
    <glyph glyph-name="yen" unicode="&#xa5;" horiz-adv-x="661" 
d="M155 227v36h147v46l-268 391h66l230 -335l230 335h67l-268 -392v-45h147v-36h-147v-92h147v-36h-147v-99h-57v99h-147v36h147v92h-147z" />
    <glyph glyph-name="brokenbar" unicode="&#xa6;" 
d="M81 -250v450h55v-450h-55zM136 750v-450h-55v450h55z" />
    <glyph glyph-name="section" unicode="&#xa7;" horiz-adv-x="420" 
d="M150 436l206 -207l-37 -37l-208 208q-62 62 -62 144q0 72 48 117.5t126 45.5q93 0 152 -67l-36 -36q-43 52 -116 52q-52 0 -85 -31.5t-33 -81.5q0 -67 45 -107zM271 14l-207 207l37 37l209 -208q62 -62 62 -144q0 -72 -48.5 -117.5t-126.5 -45.5q-93 0 -152 67l36 36
q44 -52 116 -52q52 0 85 31.5t33 81.5q0 61 -44 107z" />
    <glyph glyph-name="dieresis" unicode="&#xa8;" horiz-adv-x="422" 
d="M77 573q0 17 11.5 28.5t28.5 11.5q16 0 27.5 -11.5t11.5 -28.5t-11 -28t-28 -11t-28.5 11.5t-11.5 27.5zM262 573q0 17 11 28.5t28 11.5t28.5 -11.5t11.5 -28.5t-11.5 -28t-28.5 -11t-28 11t-11 28z" />
    <glyph glyph-name="copyright" unicode="&#xa9;" horiz-adv-x="807" 
d="M54 350q0 159 96.5 258t252.5 99q157 0 253.5 -99t96.5 -258t-96.5 -258t-253.5 -99q-156 0 -252.5 99t-96.5 258zM98 350q0 -142 84.5 -231t220.5 -89t221 88.5t85 231.5t-85 231.5t-221 88.5t-220.5 -89t-84.5 -231zM272 350q0 -64 39 -104.5t101 -40.5t102 40l24 -23
q-49 -51 -128 -51t-127.5 49.5t-48.5 129.5t48.5 129.5t127.5 49.5t128 -51l-24 -24q-39 41 -102 41q-62 0 -101 -40.5t-39 -104.5z" />
    <glyph glyph-name="ordfeminine" unicode="&#xaa;" horiz-adv-x="259" 
d="M229 477v-25q-8 -2 -16 -2q-29 0 -40 26q-30 -28 -71 -28q-35 0 -53 20t-18 47q0 37 34 59t86 22q11 0 19 -2v31q0 19 -13 33t-38 14q-36 0 -55 -21l-21 21q30 32 79 32q41 0 63 -23t22 -56v-127q0 -21 22 -21zM113 480q36 0 57 24v64q-4 1 -17 1q-37 0 -60.5 -13.5
t-23.5 -36.5q0 -15 10.5 -27t33.5 -12z" />
    <glyph glyph-name="guillemotleft" unicode="&#xab;" horiz-adv-x="470" 
d="M210 81l-170 169l170 169l30 -30l-140 -139l140 -139zM376 81l-169 169l169 169l30 -30l-139 -139l139 -139z" />
    <glyph glyph-name="logicalnot" unicode="&#xac;" horiz-adv-x="500" 
d="M67 277v46h366v-163h-46v117h-320z" />
    <glyph glyph-name="uni00AD" unicode="&#xad;" horiz-adv-x="340" 
d="M67 240v46h206v-46h-206z" />
    <glyph glyph-name="registered" unicode="&#xae;" horiz-adv-x="807" 
d="M54 350q0 159 96.5 258t252.5 99q157 0 253.5 -99t96.5 -258t-96.5 -258t-253.5 -99q-156 0 -252.5 99t-96.5 258zM98 350q0 -142 84.5 -231t220.5 -89t221 88.5t85 231.5t-85 231.5t-221 88.5t-220.5 -89t-84.5 -231zM479 174l-84 155h-48v-155h-39v350h98
q46 0 74 -26.5t28 -71.5q0 -37 -20.5 -62t-54.5 -32l89 -158h-43zM470 426q0 29 -17.5 47t-46.5 18h-59v-130h59q29 0 46.5 18t17.5 47z" />
    <glyph glyph-name="macron" unicode="&#xaf;" horiz-adv-x="384" 
d="M74 549v37h236v-37h-236z" />
    <glyph glyph-name="degree" unicode="&#xb0;" horiz-adv-x="292" 
d="M49 605q0 45 27 72.5t70 27.5q44 0 71 -27.5t27 -72.5t-27 -72.5t-71 -27.5q-43 0 -70 27.5t-27 72.5zM82 605q0 -30 18 -48t46 -18q29 0 47 18t18 48t-18 48t-47 18q-28 0 -46 -18t-18 -48z" />
    <glyph glyph-name="plusminus" unicode="&#xb1;" horiz-adv-x="440" 
d="M67 281v45h130v130h46v-130h130v-45h-130v-131h-46v131h-130zM67 71v46h306v-46h-306z" />
    <glyph glyph-name="twosuperior" unicode="&#xb2;" horiz-adv-x="278" 
d="M35 382l152 152q20 20 20 59q0 35 -19 56.5t-50 21.5t-50.5 -22t-19.5 -56h-37q0 50 29.5 80.5t77.5 30.5q47 0 76.5 -31t29.5 -80q0 -51 -32 -83l-128 -129h160v-31h-209v32z" />
    <glyph glyph-name="threesuperior" unicode="&#xb3;" horiz-adv-x="286" 
d="M120 525v31h23q25 0 41 16t16 42t-16 41.5t-41 15.5t-41 -15.5t-16 -41.5h-38q0 40 26.5 65t68.5 25t68 -25t26 -65q0 -52 -43 -73q58 -23 58 -89q0 -47 -30 -76.5t-79 -29.5t-79.5 29.5t-30.5 76.5h37q0 -32 20.5 -52.5t52.5 -20.5t52 20.5t20 52.5t-20 52.5t-52 20.5
h-23z" />
    <glyph glyph-name="acute" unicode="&#xb4;" horiz-adv-x="263" 
d="M57 548l119 119l30 -30l-119 -119z" />
    <glyph glyph-name="mu" unicode="&#xb5;" horiz-adv-x="535" 
d="M21 -200v37q27 0 43.5 14.5t16.5 42.5v556h56v-269q0 -61 36.5 -99t94.5 -38t94.5 38t36.5 99v269h55v-269q0 -84 -51.5 -136t-135.5 -52q-80 0 -131 49v-149q0 -45 -24 -71t-62 -26q-22 0 -29 4z" />
    <glyph glyph-name="paragraph" unicode="&#xb6;" horiz-adv-x="551" 
d="M338 700v-700h-53v324h-36q-86 0 -139 51.5t-53 136.5t53 136.5t139 51.5h89zM417 0v700h53v-700h-53z" />
    <glyph glyph-name="periodcentered" unicode="&#xb7;" 
d="M67 250q0 17 12 29t29 12t29 -12t12 -29t-12 -29t-29 -12t-29 12t-12 29z" />
    <glyph glyph-name="cedilla" unicode="&#xb8;" horiz-adv-x="261" 
d="M132 0v-61q30 -5 47.5 -24.5t17.5 -49.5q0 -34 -22 -55t-57 -21q-37 0 -58 23l21 22q17 -15 37 -15q21 0 35 13t14 34q0 48 -64 48v86h29z" />
    <glyph glyph-name="onesuperior" unicode="&#xb9;" horiz-adv-x="178" 
d="M26 658v28l91 16v-352h-36v318z" />
    <glyph glyph-name="ordmasculine" unicode="&#xba;" horiz-adv-x="316" 
d="M31 576q0 57 35.5 92.5t91.5 35.5q57 0 92.5 -35.5t35.5 -92.5t-35.5 -92.5t-92.5 -35.5q-56 0 -91.5 35.5t-35.5 92.5zM69 576q0 -42 25 -68t64 -26q40 0 64.5 26t24.5 68q0 41 -24.5 67.5t-64.5 26.5q-39 0 -64 -26.5t-25 -67.5z" />
    <glyph glyph-name="guillemotright" unicode="&#xbb;" horiz-adv-x="470" 
d="M423 250l-169 -169l-30 30l139 139l-139 139l30 30zM256 250l-169 -169l-30 30l139 139l-139 139l30 30z" />
    <glyph glyph-name="onequarter" unicode="&#xbc;" horiz-adv-x="632" 
d="M26 658v28l91 16v-352h-36v318zM104 0l364 700h45l-365 -700h-44zM528 0v68h-159v18l157 264h37v-251h31v-31h-30v-68h-36zM414 99h116v196z" />
    <glyph glyph-name="onehalf" unicode="&#xbd;" horiz-adv-x="683" 
d="M26 658v28l91 16v-352h-36v318zM104 0l364 700h45l-365 -700h-44zM440 32l151 152q21 21 21 59q0 34 -19.5 56t-49.5 22q-31 0 -50.5 -21.5t-19.5 -56.5h-37q0 50 29.5 80.5t77.5 30.5q47 0 76.5 -31t29.5 -80q0 -50 -33 -83l-128 -129h161v-31h-209v32z" />
    <glyph glyph-name="threequarters" unicode="&#xbe;" horiz-adv-x="645" 
d="M120 525v31h23q25 0 41 16t16 42t-16 41.5t-41 15.5t-41 -15.5t-16 -41.5h-38q0 40 26.5 65t68.5 25t68 -25t26 -65q0 -52 -43 -73q58 -23 58 -89q0 -47 -30 -76.5t-79 -29.5t-79.5 29.5t-30.5 76.5h37q0 -32 20.5 -52.5t52.5 -20.5t52 20.5t20 52.5t-20 52.5t-52 20.5
h-23zM144 0l364 700h44l-364 -700h-44zM541 0v68h-159v18l157 264h37v-251h32v-31h-31v-68h-36zM427 99h116v196z" />
    <glyph glyph-name="questiondown" unicode="&#xbf;" horiz-adv-x="468" 
d="M389 -147l37 -37q-75 -73 -188 -73q-92 0 -140.5 52.5t-48.5 125.5q0 35 11.5 62.5t29 43.5l38 34l38 34.5t29 45t11.5 66.5v57h56v-57q0 -44 -11.5 -78t-29 -53t-38 -37t-38 -32t-29 -35.5t-11.5 -49.5q0 -51 33.5 -89.5t100.5 -38.5q42 0 83 16t67 43zM275 416
q0 -17 -12 -29t-29 -12t-29 12t-12 29t12 29t29 12t29 -12t12 -29z" />
    <glyph glyph-name="Agrave" unicode="&#xc0;" horiz-adv-x="744" 
d="M645 0l-96 218h-355l-95 -218h-65l310 700h55l311 -700h-65zM372 629l-156 -359h311zM307 890l119 -119l-30 -30l-119 119z" />
    <glyph glyph-name="Aacute" unicode="&#xc1;" horiz-adv-x="744" 
d="M645 0l-96 218h-355l-95 -218h-65l310 700h55l311 -700h-65zM372 629l-156 -359h311zM317 771l119 119l30 -30l-119 -119z" />
    <glyph glyph-name="Acircumflex" unicode="&#xc2;" horiz-adv-x="744" 
d="M645 0l-96 218h-355l-95 -218h-65l310 700h55l311 -700h-65zM372 629l-156 -359h311zM372 890l119 -119l-30 -30l-89 89l-89 -89l-30 30z" />
    <glyph glyph-name="Atilde" unicode="&#xc3;" horiz-adv-x="744" 
d="M645 0l-96 218h-355l-95 -218h-65l310 700h55l311 -700h-65zM372 629l-156 -359h311zM274 768h-35q0 36 22 59t56 23q31 0 59 -25.5t48 -25.5t32.5 13t12.5 34h35q0 -37 -22 -59.5t-58 -22.5q-31 0 -58 25.5t-48 25.5q-20 0 -32 -13t-12 -34z" />
    <glyph glyph-name="Adieresis" unicode="&#xc4;" horiz-adv-x="744" 
d="M645 0l-96 218h-355l-95 -218h-65l310 700h55l311 -700h-65zM372 629l-156 -359h311zM240 797q0 17 11 28t28 11t28.5 -11.5t11.5 -27.5q0 -17 -11.5 -28.5t-28.5 -11.5q-16 0 -27.5 11.5t-11.5 28.5zM425 797q0 17 11.5 28t27.5 11q17 0 28.5 -11.5t11.5 -27.5
q0 -17 -12 -28.5t-28 -11.5t-27.5 11.5t-11.5 28.5z" />
    <glyph glyph-name="Aring" unicode="&#xc5;" horiz-adv-x="744" 
d="M645 0l-96 218h-355l-95 -218h-65l310 700h55l311 -700h-65zM372 629l-156 -359h311zM286 824q0 40 24 64t62 24q39 0 62.5 -24t23.5 -64t-23.5 -64.5t-62.5 -24.5q-38 0 -62 24.5t-24 64.5zM316 823q0 -25 15.5 -41t40.5 -16t40.5 16t15.5 41q0 26 -16 42t-40 16
q-25 0 -40.5 -16t-15.5 -42z" />
    <glyph glyph-name="AE" unicode="&#xc6;" horiz-adv-x="769" 
d="M429 651v-273h251v-49h-251v-280h289v-49h-346v218h-178l-95 -218h-65l310 700h369v-49h-284zM216 270h156v358z" />
    <glyph glyph-name="Ccedilla" unicode="&#xc7;" horiz-adv-x="702" 
d="M112 350q0 -136 81.5 -220.5t212.5 -84.5q132 0 215 86l38 -36q-94 -98 -242 -102v-54q29 -5 46.5 -24.5t17.5 -49.5q0 -34 -22 -55t-57 -21q-37 0 -58 23l21 22q17 -15 37 -15q21 0 35 13t14 34q0 48 -64 48v80q-149 5 -241 103t-92 253q0 159 96.5 258t252.5 99
q157 0 256 -102l-38 -37q-82 87 -215 87q-131 0 -212.5 -84.5t-81.5 -220.5z" />
    <glyph glyph-name="Egrave" unicode="&#xc8;" horiz-adv-x="506" 
d="M141 651v-273h274v-49h-274v-280h313v-49h-370v700h365v-49h-308zM203 890l119 -119l-30 -30l-119 119z" />
    <glyph glyph-name="Eacute" unicode="&#xc9;" horiz-adv-x="506" 
d="M141 651v-273h274v-49h-274v-280h313v-49h-370v700h365v-49h-308zM213 771l119 119l30 -30l-119 -119z" />
    <glyph glyph-name="Ecircumflex" unicode="&#xca;" horiz-adv-x="506" 
d="M141 651v-273h274v-49h-274v-280h313v-49h-370v700h365v-49h-308zM268 890l119 -119l-30 -30l-89 89l-89 -89l-30 30z" />
    <glyph glyph-name="Edieresis" unicode="&#xcb;" horiz-adv-x="506" 
d="M141 651v-273h274v-49h-274v-280h313v-49h-370v700h365v-49h-308zM136 797q0 17 11 28t28 11t28.5 -11.5t11.5 -27.5q0 -17 -11.5 -28.5t-28.5 -11.5q-16 0 -27.5 11.5t-11.5 28.5zM321 797q0 17 11.5 28t27.5 11q17 0 28.5 -11.5t11.5 -27.5q0 -17 -12 -28.5t-28 -11.5
t-27.5 11.5t-11.5 28.5z" />
    <glyph glyph-name="Igrave" unicode="&#xcc;" horiz-adv-x="218" 
d="M81 0v700h56v-700h-56zM45 890l119 -119l-30 -30l-119 119z" />
    <glyph glyph-name="Iacute" unicode="&#xcd;" horiz-adv-x="218" 
d="M81 0v700h56v-700h-56zM55 771l119 119l30 -30l-119 -119z" />
    <glyph glyph-name="Icircumflex" unicode="&#xce;" horiz-adv-x="218" 
d="M81 0v700h56v-700h-56zM109 890l119 -119l-30 -30l-89 89l-89 -89l-30 30z" />
    <glyph glyph-name="Idieresis" unicode="&#xcf;" horiz-adv-x="218" 
d="M81 0v700h56v-700h-56zM-6 797q0 17 11 28t28 11t28.5 -11.5t11.5 -27.5q0 -17 -11.5 -28.5t-28.5 -11.5q-16 0 -27.5 11.5t-11.5 28.5zM145 797q0 16 11.5 27.5t28.5 11.5t28 -11t11 -28t-11.5 -28.5t-27.5 -11.5q-17 0 -28.5 11.5t-11.5 28.5z" />
    <glyph glyph-name="Eth" unicode="&#xd0;" horiz-adv-x="710" 
d="M50 327v46h61v327h196q157 0 253.5 -96t96.5 -254t-96.5 -254t-253.5 -96h-196v327h-61zM598 350q0 135 -80.5 217.5t-210.5 82.5h-138v-277h171v-46h-171v-277h138q130 0 210.5 82.5t80.5 217.5z" />
    <glyph glyph-name="Ntilde" unicode="&#xd1;" horiz-adv-x="715" 
d="M84 700h41l449 -594v594h57v-700h-41l-449 594v-594h-57v700zM260 768h-35q0 37 21.5 59.5t56.5 22.5q31 0 58.5 -25.5t48.5 -25.5q20 0 32.5 13t12.5 34h35q0 -37 -22 -59.5t-58 -22.5q-31 0 -58 25.5t-48 25.5q-20 0 -32 -13t-12 -34z" />
    <glyph glyph-name="Ograve" unicode="&#xd2;" horiz-adv-x="807" 
d="M54 350q0 159 96.5 258t252.5 99q157 0 253.5 -99t96.5 -258t-96.5 -258t-253.5 -99q-156 0 -252.5 99t-96.5 258zM112 350q0 -136 81 -220.5t210 -84.5q130 0 211 84.5t81 220.5t-81 220.5t-211 84.5q-129 0 -210 -84.5t-81 -220.5zM339 890l119 -119l-30 -30l-119 119z
" />
    <glyph glyph-name="Oacute" unicode="&#xd3;" horiz-adv-x="807" 
d="M54 350q0 159 96.5 258t252.5 99q157 0 253.5 -99t96.5 -258t-96.5 -258t-253.5 -99q-156 0 -252.5 99t-96.5 258zM112 350q0 -136 81 -220.5t210 -84.5q130 0 211 84.5t81 220.5t-81 220.5t-211 84.5q-129 0 -210 -84.5t-81 -220.5zM349 771l119 119l30 -30l-119 -119z
" />
    <glyph glyph-name="Ocircumflex" unicode="&#xd4;" horiz-adv-x="807" 
d="M54 350q0 159 96.5 258t252.5 99q157 0 253.5 -99t96.5 -258t-96.5 -258t-253.5 -99q-156 0 -252.5 99t-96.5 258zM112 350q0 -136 81 -220.5t210 -84.5q130 0 211 84.5t81 220.5t-81 220.5t-211 84.5q-129 0 -210 -84.5t-81 -220.5zM403 890l119 -119l-30 -30l-89 89
l-88 -89l-30 30z" />
    <glyph glyph-name="Otilde" unicode="&#xd5;" horiz-adv-x="807" 
d="M54 350q0 159 96.5 258t252.5 99q157 0 253.5 -99t96.5 -258t-96.5 -258t-253.5 -99q-156 0 -252.5 99t-96.5 258zM112 350q0 -136 81 -220.5t210 -84.5q130 0 211 84.5t81 220.5t-81 220.5t-211 84.5q-129 0 -210 -84.5t-81 -220.5zM306 768h-35q0 37 21.5 59.5
t56.5 22.5q31 0 58.5 -25.5t48.5 -25.5q20 0 32.5 13t12.5 34h35q0 -37 -22.5 -59.5t-57.5 -22.5q-31 0 -58 25.5t-48 25.5q-20 0 -32 -13t-12 -34z" />
    <glyph glyph-name="Odieresis" unicode="&#xd6;" horiz-adv-x="807" 
d="M54 350q0 159 96.5 258t252.5 99q157 0 253.5 -99t96.5 -258t-96.5 -258t-253.5 -99q-156 0 -252.5 99t-96.5 258zM112 350q0 -136 81 -220.5t210 -84.5q130 0 211 84.5t81 220.5t-81 220.5t-211 84.5q-129 0 -210 -84.5t-81 -220.5zM271 797q0 16 11.5 27.5t28.5 11.5
t28 -11t11 -28t-11.5 -28.5t-27.5 -11.5q-17 0 -28.5 11.5t-11.5 28.5zM456 797q0 16 11.5 27.5t28.5 11.5q16 0 27.5 -11t11.5 -28t-11.5 -28.5t-27.5 -11.5t-28 11.5t-12 28.5z" />
    <glyph glyph-name="multiply" unicode="&#xd7;" horiz-adv-x="440" 
d="M96 137l-32 32l124 125l-124 124l32 32l124 -124l124 124l33 -32l-125 -124l125 -125l-33 -32l-124 124z" />
    <glyph glyph-name="Oslash" unicode="&#xd8;" horiz-adv-x="807" 
d="M61 -7l88 100q-95 98 -95 257t96.5 258t252.5 99q128 0 220 -70l62 70h61l-88 -101q95 -98 95 -256q0 -159 -96.5 -258t-253.5 -99q-131 0 -221 70l-61 -70h-60zM695 350q0 130 -75 213l-401 -458q77 -60 184 -60q130 0 211 84.5t81 220.5zM112 350q0 -131 74 -214
l401 459q-77 60 -184 60q-129 0 -210 -84.5t-81 -220.5z" />
    <glyph glyph-name="Ugrave" unicode="&#xd9;" horiz-adv-x="681" 
d="M539 253v447h58v-447q0 -116 -71.5 -188t-185.5 -72q-115 0 -185.5 72t-70.5 188v447h57v-447q0 -92 55 -150t143 -58q89 0 144.5 58t55.5 150zM276 890l119 -119l-30 -30l-119 119z" />
    <glyph glyph-name="Uacute" unicode="&#xda;" horiz-adv-x="681" 
d="M539 253v447h58v-447q0 -116 -71.5 -188t-185.5 -72q-115 0 -185.5 72t-70.5 188v447h57v-447q0 -92 55 -150t143 -58q89 0 144.5 58t55.5 150zM286 771l119 119l30 -30l-119 -119z" />
    <glyph glyph-name="Ucircumflex" unicode="&#xdb;" horiz-adv-x="681" 
d="M539 253v447h58v-447q0 -116 -71.5 -188t-185.5 -72q-115 0 -185.5 72t-70.5 188v447h57v-447q0 -92 55 -150t143 -58q89 0 144.5 58t55.5 150zM340 890l119 -119l-30 -30l-89 89l-88 -89l-30 30z" />
    <glyph glyph-name="Udieresis" unicode="&#xdc;" horiz-adv-x="681" 
d="M539 253v447h58v-447q0 -116 -71.5 -188t-185.5 -72q-115 0 -185.5 72t-70.5 188v447h57v-447q0 -92 55 -150t143 -58q89 0 144.5 58t55.5 150zM208 797q0 16 11.5 27.5t28.5 11.5q16 0 27.5 -11t11.5 -28t-11.5 -28.5t-27.5 -11.5t-28 11.5t-12 28.5zM393 797
q0 16 11.5 27.5t28.5 11.5t28 -11t11 -28t-11.5 -28.5t-27.5 -11.5q-17 0 -28.5 11.5t-11.5 28.5z" />
    <glyph glyph-name="Yacute" unicode="&#xdd;" horiz-adv-x="661" 
d="M302 0v309l-268 391h66l230 -335l230 335h67l-268 -392v-308h-57zM276 771l119 119l30 -30l-119 -119z" />
    <glyph glyph-name="Thorn" unicode="&#xde;" horiz-adv-x="514" 
d="M84 0v700h58v-150h123q88 0 142 -52.5t54 -139.5t-54 -139t-142 -52h-123v-167h-58zM402 358q0 64 -37.5 102.5t-99.5 38.5h-123v-282h123q61 0 99 39t38 102z" />
    <glyph glyph-name="germandbls" unicode="&#xdf;" horiz-adv-x="595" 
d="M137 578v-578h-56v578q0 80 51.5 129.5t134.5 49.5q84 0 136 -49.5t52 -129.5q0 -66 -36 -111.5t-96 -57.5q0 -44 22.5 -73t54.5 -45l64 -33t54.5 -49t22.5 -81q0 -53 -37.5 -94t-106.5 -41q-88 0 -142 57l35 35q38 -44 103 -44q47 0 70 26.5t23 58.5q0 26 -12 46
t-31.5 32.5t-43 24.5t-46.5 25.5t-42.5 31.5t-31.5 48t-12 69v47q59 0 95 35t36 93q0 56 -36.5 92t-94.5 36t-94 -36t-36 -92z" />
    <glyph glyph-name="agrave" unicode="&#xe0;" horiz-adv-x="449" 
d="M402 37v-37q-7 -4 -25 -4q-52 0 -67 48q-54 -51 -131 -51q-64 0 -96 36t-32 85q0 67 61.5 105.5t157.5 38.5q23 0 35 -3v64q0 36 -25 63t-74 27q-67 0 -102 -37l-32 31q54 54 138 54q73 0 112 -40.5t39 -97.5v-242q0 -40 41 -40zM194 41q67 0 111 47v127q-11 3 -32 3
q-74 0 -120.5 -27t-46.5 -72q0 -30 20.5 -54t67.5 -24zM144 667l118 -119l-30 -30l-118 119z" />
    <glyph glyph-name="aacute" unicode="&#xe1;" horiz-adv-x="449" 
d="M402 37v-37q-7 -4 -25 -4q-52 0 -67 48q-54 -51 -131 -51q-64 0 -96 36t-32 85q0 67 61.5 105.5t157.5 38.5q23 0 35 -3v64q0 36 -25 63t-74 27q-67 0 -102 -37l-32 31q54 54 138 54q73 0 112 -40.5t39 -97.5v-242q0 -40 41 -40zM194 41q67 0 111 47v127q-11 3 -32 3
q-74 0 -120.5 -27t-46.5 -72q0 -30 20.5 -54t67.5 -24zM155 548l119 119l30 -30l-119 -119z" />
    <glyph glyph-name="acircumflex" unicode="&#xe2;" horiz-adv-x="449" 
d="M402 37v-37q-7 -4 -25 -4q-52 0 -67 48q-54 -51 -131 -51q-64 0 -96 36t-32 85q0 67 61.5 105.5t157.5 38.5q23 0 35 -3v64q0 36 -25 63t-74 27q-67 0 -102 -37l-32 31q54 54 138 54q73 0 112 -40.5t39 -97.5v-242q0 -40 41 -40zM194 41q67 0 111 47v127q-11 3 -32 3
q-74 0 -120.5 -27t-46.5 -72q0 -30 20.5 -54t67.5 -24zM211 667l119 -119l-30 -30l-89 89l-89 -89l-30 30z" />
    <glyph glyph-name="atilde" unicode="&#xe3;" horiz-adv-x="449" 
d="M402 37v-37q-7 -4 -25 -4q-52 0 -67 48q-54 -51 -131 -51q-64 0 -96 36t-32 85q0 67 61.5 105.5t157.5 38.5q23 0 35 -3v64q0 36 -25 63t-74 27q-67 0 -102 -37l-32 31q54 54 138 54q73 0 112 -40.5t39 -97.5v-242q0 -40 41 -40zM194 41q67 0 111 47v127q-11 3 -32 3
q-74 0 -120.5 -27t-46.5 -72q0 -30 20.5 -54t67.5 -24zM122 545h-35q0 37 21.5 59.5t56.5 22.5q31 0 58.5 -25.5t48.5 -25.5q20 0 32.5 13t12.5 33h35q0 -36 -22 -58.5t-58 -22.5q-31 0 -58 25t-48 25q-20 0 -32 -12.5t-12 -33.5z" />
    <glyph glyph-name="adieresis" unicode="&#xe4;" horiz-adv-x="449" 
d="M402 37v-37q-7 -4 -25 -4q-52 0 -67 48q-54 -51 -131 -51q-64 0 -96 36t-32 85q0 67 61.5 105.5t157.5 38.5q23 0 35 -3v64q0 36 -25 63t-74 27q-67 0 -102 -37l-32 31q54 54 138 54q73 0 112 -40.5t39 -97.5v-242q0 -40 41 -40zM194 41q67 0 111 47v127q-11 3 -32 3
q-74 0 -120.5 -27t-46.5 -72q0 -30 20.5 -54t67.5 -24zM269 573q0 17 11 28.5t28 11.5t28.5 -11.5t11.5 -28.5t-11.5 -28t-28.5 -11q-16 0 -27.5 11t-11.5 28zM84 573q0 17 12 28.5t28 11.5t27.5 -11.5t11.5 -28.5t-11.5 -28t-27.5 -11q-17 0 -28.5 11.5t-11.5 27.5z" />
    <glyph glyph-name="aring" unicode="&#xe5;" horiz-adv-x="449" 
d="M402 37v-37q-7 -4 -25 -4q-52 0 -67 48q-54 -51 -131 -51q-64 0 -96 36t-32 85q0 67 61.5 105.5t157.5 38.5q23 0 35 -3v64q0 36 -25 63t-74 27q-67 0 -102 -37l-32 31q54 54 138 54q73 0 112 -40.5t39 -97.5v-242q0 -40 41 -40zM194 41q67 0 111 47v127q-11 3 -32 3
q-74 0 -120.5 -27t-46.5 -72q0 -30 20.5 -54t67.5 -24zM128 600q0 40 24.5 64.5t62.5 24.5t62 -24.5t24 -64.5t-24 -64t-62 -24q-39 0 -63 24t-24 64zM159 600q0 -26 15.5 -42t40.5 -16t40.5 16t15.5 42t-16 42t-40 16q-25 0 -40.5 -16t-15.5 -42z" />
    <glyph glyph-name="ae" unicode="&#xe6;" horiz-adv-x="726" 
d="M305 255v64q0 36 -25 63t-74 27q-67 0 -102 -37l-32 31q54 54 138 54q83 0 121 -58q56 58 145 58q95 0 149 -66t54 -179h-318v-108q46 -60 136 -60q82 0 130 51l34 -35q-64 -67 -167 -67q-111 0 -172 69q-59 -69 -143 -69q-64 0 -96 36t-32 85q0 67 61.5 105.5
t157.5 38.5q23 0 35 -3zM361 319v-65h262q-6 71 -44.5 112t-100.5 41q-78 0 -121 -57q4 -20 4 -31zM305 94v121q-11 3 -32 3q-74 0 -120.5 -27t-46.5 -72q0 -30 20.5 -54t67.5 -24q66 0 111 53z" />
    <glyph glyph-name="ccedilla" unicode="&#xe7;" horiz-adv-x="482" 
d="M105 225q0 -81 48.5 -131t126.5 -50q80 0 128 51l35 -35q-59 -62 -156 -67v-54q30 -5 47.5 -24.5t17.5 -49.5q0 -34 -22 -55t-58 -21q-35 0 -58 23l22 22q15 -15 36 -15q22 0 35.5 12.5t13.5 34.5q0 48 -64 48v80q-94 6 -151 69.5t-57 161.5q0 104 63 168t165 64
q103 0 166 -68l-35 -34q-48 51 -128 51q-78 0 -126.5 -50t-48.5 -131z" />
    <glyph glyph-name="egrave" unicode="&#xe8;" horiz-adv-x="511" 
d="M464 212h-357q3 -76 50.5 -122t124.5 -46q81 0 129 51l35 -35q-65 -67 -168 -67q-102 0 -165.5 64.5t-63.5 169.5q0 102 58.5 166t152.5 64q95 0 149.5 -66t54.5 -179zM262 407q-64 0 -106.5 -41.5t-48.5 -111.5h301q-7 71 -45.5 112t-100.5 41zM197 667l119 -119
l-30 -30l-119 119z" />
    <glyph glyph-name="eacute" unicode="&#xe9;" horiz-adv-x="511" 
d="M464 212h-357q3 -76 50.5 -122t124.5 -46q81 0 129 51l35 -35q-65 -67 -168 -67q-102 0 -165.5 64.5t-63.5 169.5q0 102 58.5 166t152.5 64q95 0 149.5 -66t54.5 -179zM262 407q-64 0 -106.5 -41.5t-48.5 -111.5h301q-7 71 -45.5 112t-100.5 41zM206 548l119 119l30 -30
l-119 -119z" />
    <glyph glyph-name="ecircumflex" unicode="&#xea;" horiz-adv-x="511" 
d="M464 212h-357q3 -76 50.5 -122t124.5 -46q81 0 129 51l35 -35q-65 -67 -168 -67q-102 0 -165.5 64.5t-63.5 169.5q0 102 58.5 166t152.5 64q95 0 149.5 -66t54.5 -179zM262 407q-64 0 -106.5 -41.5t-48.5 -111.5h301q-7 71 -45.5 112t-100.5 41zM261 667l119 -119
l-30 -30l-89 89l-89 -89l-30 30z" />
    <glyph glyph-name="edieresis" unicode="&#xeb;" horiz-adv-x="511" 
d="M464 212h-357q3 -76 50.5 -122t124.5 -46q81 0 129 51l35 -35q-65 -67 -168 -67q-102 0 -165.5 64.5t-63.5 169.5q0 102 58.5 166t152.5 64q95 0 149.5 -66t54.5 -179zM262 407q-64 0 -106.5 -41.5t-48.5 -111.5h301q-7 71 -45.5 112t-100.5 41zM129 573q0 17 11.5 28.5
t28.5 11.5q16 0 27.5 -11.5t11.5 -28.5t-11 -28t-28 -11t-28.5 11.5t-11.5 27.5zM314 573q0 17 11.5 28.5t28.5 11.5t28 -11.5t11 -28.5t-11.5 -28t-27.5 -11q-17 0 -28.5 11.5t-11.5 27.5z" />
    <glyph glyph-name="igrave" unicode="&#xec;" 
d="M44 667l119 -119l-30 -30l-119 119zM81 0v450h55v-450h-55z" />
    <glyph glyph-name="iacute" unicode="&#xed;" 
d="M54 548l119 119l30 -30l-119 -119zM81 0v450h55v-450h-55z" />
    <glyph glyph-name="icircumflex" unicode="&#xee;" 
d="M81 0v450h55v-450h-55zM108 667l119 -119l-30 -30l-89 89l-89 -89l-30 30z" />
    <glyph glyph-name="idieresis" unicode="&#xef;" 
d="M81 0v450h55v-450h-55zM-4 573q0 17 12 28.5t28 11.5t27.5 -11.5t11.5 -28.5t-11.5 -28t-27.5 -11q-17 0 -28.5 11.5t-11.5 27.5zM141 573q0 17 11 28.5t28 11.5t28.5 -11.5t11.5 -28.5t-11.5 -28t-28.5 -11q-16 0 -27.5 11t-11.5 28z" />
    <glyph glyph-name="eth" unicode="&#xf0;" horiz-adv-x="557" 
d="M168 546l-22 39l95 55l-62 89l49 28l61 -90l100 57l23 -39l-95 -54q122 -188 148 -239q43 -85 43 -163q0 -107 -63.5 -171.5t-165.5 -64.5q-103 0 -166.5 64.5t-63.5 168.5q0 102 65 166.5t164 64.5q58 0 103 -28l-111 175zM451 225q0 81 -48 131t-125 50t-125 -50
t-48 -131t48 -131t125 -50t125 50t48 131z" />
    <glyph glyph-name="ntilde" unicode="&#xf1;" horiz-adv-x="523" 
d="M81 450h55v-40q56 47 137 47q76 0 122.5 -50.5t46.5 -131.5v-275h-55v275q0 58 -34.5 94.5t-90.5 36.5q-76 0 -126 -48v-358h-55v450zM159 545h-35q0 36 22 59t56 23q31 0 59 -25.5t48 -25.5t32.5 13t12.5 33h35q0 -36 -22 -58.5t-58 -22.5q-31 0 -58 25t-48 25
q-20 0 -32 -12.5t-12 -33.5z" />
    <glyph glyph-name="ograve" unicode="&#xf2;" horiz-adv-x="557" 
d="M49 225q0 103 63.5 167.5t165.5 64.5q103 0 166.5 -64t63.5 -168t-63.5 -168t-166.5 -64q-102 0 -165.5 64.5t-63.5 167.5zM105 225q0 -81 48 -131t125 -50t125 50t48 131t-48 131t-125 50t-125 -50t-48 -131zM214 667l119 -119l-30 -30l-119 119z" />
    <glyph glyph-name="oacute" unicode="&#xf3;" horiz-adv-x="557" 
d="M49 225q0 103 63.5 167.5t165.5 64.5q103 0 166.5 -64t63.5 -168t-63.5 -168t-166.5 -64q-102 0 -165.5 64.5t-63.5 167.5zM105 225q0 -81 48 -131t125 -50t125 50t48 131t-48 131t-125 50t-125 -50t-48 -131zM224 548l119 119l30 -30l-119 -119z" />
    <glyph glyph-name="ocircumflex" unicode="&#xf4;" horiz-adv-x="557" 
d="M49 225q0 103 63.5 167.5t165.5 64.5q103 0 166.5 -64t63.5 -168t-63.5 -168t-166.5 -64q-102 0 -165.5 64.5t-63.5 167.5zM105 225q0 -81 48 -131t125 -50t125 50t48 131t-48 131t-125 50t-125 -50t-48 -131zM278 667l119 -119l-30 -30l-89 89l-88 -89l-30 30z" />
    <glyph glyph-name="otilde" unicode="&#xf5;" horiz-adv-x="557" 
d="M49 225q0 103 63.5 167.5t165.5 64.5q103 0 166.5 -64t63.5 -168t-63.5 -168t-166.5 -64q-102 0 -165.5 64.5t-63.5 167.5zM105 225q0 -81 48 -131t125 -50t125 50t48 131t-48 131t-125 50t-125 -50t-48 -131zM181 545h-35q0 37 21.5 59.5t56.5 22.5q31 0 58.5 -25.5
t48.5 -25.5q20 0 32.5 13t12.5 33h35q0 -36 -22.5 -58.5t-57.5 -22.5q-31 0 -58 25t-48 25q-20 0 -32 -12.5t-12 -33.5z" />
    <glyph glyph-name="odieresis" unicode="&#xf6;" horiz-adv-x="557" 
d="M49 225q0 103 63.5 167.5t165.5 64.5q103 0 166.5 -64t63.5 -168t-63.5 -168t-166.5 -64q-102 0 -165.5 64.5t-63.5 167.5zM105 225q0 -81 48 -131t125 -50t125 50t48 131t-48 131t-125 50t-125 -50t-48 -131zM146 573q0 17 12 28.5t28 11.5t27.5 -11.5t11.5 -28.5
t-11.5 -28t-27.5 -11q-17 0 -28.5 11.5t-11.5 27.5zM331 573q0 17 11.5 28.5t28.5 11.5t28 -11.5t11 -28.5t-11 -28t-28 -11t-28.5 11.5t-11.5 27.5z" />
    <glyph glyph-name="divide" unicode="&#xf7;" horiz-adv-x="500" 
d="M67 242v46h366v-46h-366zM211 98q0 16 11 27t28 11q16 0 27 -11t11 -27q0 -17 -11 -28t-27 -11t-27.5 11.5t-11.5 27.5zM211 432q0 16 11.5 27t27.5 11t27 -11t11 -27q0 -17 -11 -28t-27 -11t-27.5 11.5t-11.5 27.5z" />
    <glyph glyph-name="oslash" unicode="&#xf8;" horiz-adv-x="557" 
d="M61 -7l52 64q-64 64 -64 168q0 103 63.5 167.5t165.5 64.5q72 0 129 -35l31 38h58l-53 -66q65 -65 65 -169t-63.5 -168t-166.5 -64q-74 0 -130 36l-29 -36h-58zM455 225q0 78 -45 129l-231 -286q42 -27 99 -27q79 0 128 51t49 133zM102 225q0 -77 43 -128l230 286
q-41 26 -97 26q-78 0 -127 -51t-49 -133z" />
    <glyph glyph-name="ugrave" unicode="&#xf9;" horiz-adv-x="535" 
d="M454 450v-269q0 -84 -51.5 -136t-135.5 -52q-83 0 -134.5 52.5t-51.5 135.5v269h56v-269q0 -61 36.5 -99t94.5 -38t94.5 38t36.5 99v269h55zM203 667l119 -119l-30 -30l-119 119z" />
    <glyph glyph-name="uacute" unicode="&#xfa;" horiz-adv-x="535" 
d="M454 450v-269q0 -84 -51.5 -136t-135.5 -52q-83 0 -134.5 52.5t-51.5 135.5v269h56v-269q0 -61 36.5 -99t94.5 -38t94.5 38t36.5 99v269h55zM213 548l119 119l30 -30l-119 -119z" />
    <glyph glyph-name="ucircumflex" unicode="&#xfb;" horiz-adv-x="535" 
d="M454 450v-269q0 -84 -51.5 -136t-135.5 -52q-83 0 -134.5 52.5t-51.5 135.5v269h56v-269q0 -61 36.5 -99t94.5 -38t94.5 38t36.5 99v269h55zM267 667l119 -119l-30 -30l-89 89l-89 -89l-30 30z" />
    <glyph glyph-name="udieresis" unicode="&#xfc;" horiz-adv-x="535" 
d="M454 450v-269q0 -84 -51.5 -136t-135.5 -52q-83 0 -134.5 52.5t-51.5 135.5v269h56v-269q0 -61 36.5 -99t94.5 -38t94.5 38t36.5 99v269h55zM135 573q0 17 11.5 28.5t28.5 11.5q16 0 27.5 -11.5t11.5 -28.5t-11 -28t-28 -11t-28.5 11.5t-11.5 27.5zM320 573q0 17 11 28.5
t28 11.5t28.5 -11.5t11.5 -28.5t-11.5 -28t-28.5 -11t-28 11t-11 28z" />
    <glyph glyph-name="yacute" unicode="&#xfd;" horiz-adv-x="529" 
d="M497 450l-323 -700h-61l125 250l-206 450h62l171 -384l171 384h61zM210 548l119 119l30 -30l-119 -119z" />
    <glyph glyph-name="thorn" unicode="&#xfe;" horiz-adv-x="541" 
d="M81 750h55v-340q56 47 138 47q98 0 158.5 -64.5t60.5 -167.5t-63 -167.5t-164 -64.5q-77 0 -130 38v-281h-55v1000zM436 225q0 81 -48.5 131t-125.5 50q-76 0 -126 -48v-267q49 -47 126 -47t125.5 50t48.5 131z" />
    <glyph glyph-name="ydieresis" unicode="&#xff;" horiz-adv-x="529" 
d="M497 450l-323 -700h-61l125 250l-206 450h62l171 -384l171 384h61zM133 573q0 17 11.5 28.5t27.5 11.5t28 -11.5t12 -28.5q0 -16 -11.5 -27.5t-28.5 -11.5q-16 0 -27.5 11t-11.5 28zM318 573q0 17 11 28.5t28 11.5t28.5 -11.5t11.5 -28.5q0 -16 -11.5 -27.5t-28.5 -11.5
t-28 11t-11 28z" />
    <glyph glyph-name="Amacron" unicode="&#x100;" horiz-adv-x="744" 
d="M645 0l-96 218h-355l-95 -218h-65l310 700h55l311 -700h-65zM372 629l-156 -359h311zM254 772v38h236v-38h-236z" />
    <glyph glyph-name="amacron" unicode="&#x101;" horiz-adv-x="449" 
d="M402 37v-37q-7 -4 -25 -4q-52 0 -67 48q-54 -51 -131 -51q-64 0 -96 36t-32 85q0 67 61.5 105.5t157.5 38.5q23 0 35 -3v64q0 36 -25 63t-74 27q-67 0 -102 -37l-32 31q54 54 138 54q73 0 112 -40.5t39 -97.5v-242q0 -40 41 -40zM194 41q67 0 111 47v127q-11 3 -32 3
q-74 0 -120.5 -27t-46.5 -72q0 -30 20.5 -54t67.5 -24zM93 549v37h236v-37h-236z" />
    <glyph glyph-name="Abreve" unicode="&#x102;" horiz-adv-x="744" 
d="M645 0l-96 218h-355l-95 -218h-65l310 700h55l311 -700h-65zM372 629l-156 -359h311zM372 800q61 0 104 45l31 -31q-55 -57 -135 -57q-79 0 -135 58l30 30q45 -45 105 -45z" />
    <glyph glyph-name="abreve" unicode="&#x103;" horiz-adv-x="449" 
d="M402 37v-37q-7 -4 -25 -4q-52 0 -67 48q-54 -51 -131 -51q-64 0 -96 36t-32 85q0 67 61.5 105.5t157.5 38.5q23 0 35 -3v64q0 36 -25 63t-74 27q-67 0 -102 -37l-32 31q54 54 138 54q73 0 112 -40.5t39 -97.5v-242q0 -40 41 -40zM194 41q67 0 111 47v127q-11 3 -32 3
q-74 0 -120.5 -27t-46.5 -72q0 -30 20.5 -54t67.5 -24zM215 577q62 0 104 44l30 -30q-55 -57 -134 -57q-78 0 -135 57l30 31q43 -45 105 -45z" />
    <glyph glyph-name="Aogonek" unicode="&#x104;" horiz-adv-x="744" 
d="M666 -40q0 -29 16 -45t42 -16q27 0 42 16l23 -23q-24 -25 -65 -25q-40 0 -65 25t-25 67q0 25 11 41l-96 218h-355l-95 -218h-65l310 700h55l311 -700h-33q-11 -16 -11 -40zM372 629l-156 -359h311z" />
    <glyph glyph-name="aogonek" unicode="&#x105;" horiz-adv-x="449" 
d="M376 -40q0 -29 15.5 -45t41.5 -16q27 0 42 16l24 -23q-24 -25 -66 -25q-40 0 -65 25t-25 67q0 24 10 41q-33 10 -43 44q-54 -51 -131 -51q-64 0 -96 36t-32 85q0 67 61.5 105.5t157.5 38.5q23 0 35 -3v64q0 36 -25 63t-74 27q-67 0 -102 -37l-32 31q54 54 138 54
q73 0 112 -40.5t39 -97.5v-242q0 -40 41 -40v-37q-4 -2 -19 -4q-7 -14 -7 -36zM194 41q67 0 111 47v127q-11 3 -32 3q-74 0 -120.5 -27t-46.5 -72q0 -30 20.5 -54t67.5 -24z" />
    <glyph glyph-name="Cacute" unicode="&#x106;" horiz-adv-x="702" 
d="M112 350q0 -136 81.5 -220.5t212.5 -84.5q132 0 215 86l38 -36q-97 -102 -256 -102q-156 0 -252.5 99t-96.5 258t96.5 258t252.5 99q157 0 256 -102l-38 -37q-82 87 -215 87q-131 0 -212.5 -84.5t-81.5 -220.5zM328 778l118 119l30 -30l-118 -119z" />
    <glyph glyph-name="cacute" unicode="&#x107;" horiz-adv-x="482" 
d="M105 225q0 -81 48.5 -131t126.5 -50q80 0 128 51l35 -35q-64 -67 -166 -67t-165 64t-63 168t63 168t165 64q103 0 166 -68l-35 -34q-48 51 -128 51q-78 0 -126.5 -50t-48.5 -131zM217 548l118 119l30 -30l-118 -119z" />
    <glyph glyph-name="Ccircumflex" unicode="&#x108;" horiz-adv-x="702" 
d="M112 350q0 -136 81.5 -220.5t212.5 -84.5q132 0 215 86l38 -36q-97 -102 -256 -102q-156 0 -252.5 99t-96.5 258t96.5 258t252.5 99q157 0 256 -102l-38 -37q-82 87 -215 87q-131 0 -212.5 -84.5t-81.5 -220.5zM383 890l119 -119l-30 -30l-89 89l-89 -89l-30 30z" />
    <glyph glyph-name="ccircumflex" unicode="&#x109;" horiz-adv-x="482" 
d="M105 225q0 -81 48.5 -131t126.5 -50q80 0 128 51l35 -35q-64 -67 -166 -67t-165 64t-63 168t63 168t165 64q103 0 166 -68l-35 -34q-48 51 -128 51q-78 0 -126.5 -50t-48.5 -131zM270 667l119 -119l-30 -30l-89 89l-88 -89l-30 30z" />
    <glyph glyph-name="Cdotaccent" unicode="&#x10a;" horiz-adv-x="702" 
d="M112 350q0 -136 81.5 -220.5t212.5 -84.5q132 0 215 86l38 -36q-97 -102 -256 -102q-156 0 -252.5 99t-96.5 258t96.5 258t252.5 99q157 0 256 -102l-38 -37q-82 87 -215 87q-131 0 -212.5 -84.5t-81.5 -220.5zM342 808q0 17 12 29t29 12t29 -12t12 -29t-12 -29t-29 -12
t-29 12t-12 29z" />
    <glyph glyph-name="cdotaccent" unicode="&#x10b;" horiz-adv-x="482" 
d="M105 225q0 -81 48.5 -131t126.5 -50q80 0 128 51l35 -35q-64 -67 -166 -67t-165 64t-63 168t63 168t165 64q103 0 166 -68l-35 -34q-48 51 -128 51q-78 0 -126.5 -50t-48.5 -131zM228 585q0 17 12 29t29 12t29 -12t12 -29t-12 -29t-29 -12t-29 12t-12 29z" />
    <glyph glyph-name="Ccaron" unicode="&#x10c;" horiz-adv-x="702" 
d="M112 350q0 -136 81.5 -220.5t212.5 -84.5q132 0 215 86l38 -36q-97 -102 -256 -102q-156 0 -252.5 99t-96.5 258t96.5 258t252.5 99q157 0 256 -102l-38 -37q-82 87 -215 87q-131 0 -212.5 -84.5t-81.5 -220.5zM381 741l-118 119l30 30l88 -89l89 89l30 -30z" />
    <glyph glyph-name="ccaron" unicode="&#x10d;" horiz-adv-x="482" 
d="M105 225q0 -81 48.5 -131t126.5 -50q80 0 128 51l35 -35q-64 -67 -166 -67t-165 64t-63 168t63 168t165 64q103 0 166 -68l-35 -34q-48 51 -128 51q-78 0 -126.5 -50t-48.5 -131zM269 518l-118 119l30 30l88 -89l89 89l30 -30z" />
    <glyph glyph-name="Dcaron" unicode="&#x10e;" horiz-adv-x="690" 
d="M84 0v700h202q157 0 253.5 -96t96.5 -254t-96.5 -254t-253.5 -96h-202zM577 350q0 135 -80 217.5t-211 82.5h-144v-600h144q131 0 211 82.5t80 217.5zM335 741l-119 119l30 30l89 -89l88 89l30 -30z" />
    <glyph glyph-name="dcaron" unicode="&#x10f;" horiz-adv-x="671" 
d="M461 0h-55v40q-58 -47 -138 -47q-98 0 -158.5 64t-60.5 168t62.5 168t164.5 64q74 0 130 -39v332h55v-750zM105 225q0 -81 48.5 -131t126.5 -50q79 0 126 49v265q-48 48 -126 48t-126.5 -50t-48.5 -131zM580 585l-22 22q39 39 43 68q-15 2 -25.5 13.5t-10.5 27.5
q0 17 12 29t30 12q16 0 28 -12.5t12 -36.5q0 -56 -67 -123z" />
    <glyph glyph-name="Dcroat" unicode="&#x110;" horiz-adv-x="710" 
d="M50 327v46h61v327h196q157 0 253.5 -96t96.5 -254t-96.5 -254t-253.5 -96h-196v327h-61zM598 350q0 135 -80.5 217.5t-210.5 82.5h-138v-277h171v-46h-171v-277h138q130 0 210.5 82.5t80.5 217.5z" />
    <glyph glyph-name="dcroat" unicode="&#x111;" horiz-adv-x="551" 
d="M461 0h-55v40q-58 -47 -138 -47q-98 0 -158.5 64t-60.5 168t62.5 168t164.5 64q75 0 130 -41v173h-139v46h139v115h55v-115h60v-46h-60v-589zM105 225q0 -81 48.5 -131t126.5 -50t126 48v266q-50 48 -126 48q-78 0 -126.5 -50t-48.5 -131z" />
    <glyph glyph-name="Emacron" unicode="&#x112;" horiz-adv-x="506" 
d="M141 651v-273h274v-49h-274v-280h313v-49h-370v700h365v-49h-308zM150 772v38h236v-38h-236z" />
    <glyph glyph-name="emacron" unicode="&#x113;" horiz-adv-x="511" 
d="M464 212h-357q3 -76 50.5 -122t124.5 -46q81 0 129 51l35 -35q-65 -67 -168 -67q-102 0 -165.5 64.5t-63.5 169.5q0 102 58.5 166t152.5 64q95 0 149.5 -66t54.5 -179zM262 407q-64 0 -106.5 -41.5t-48.5 -111.5h301q-7 71 -45.5 112t-100.5 41zM143 549v37h236v-37h-236
z" />
    <glyph glyph-name="Ebreve" unicode="&#x114;" horiz-adv-x="506" 
d="M141 651v-273h274v-49h-274v-280h313v-49h-370v700h365v-49h-308zM268 800q61 0 104 45l31 -31q-55 -57 -135 -57q-79 0 -135 58l30 30q45 -45 105 -45z" />
    <glyph glyph-name="ebreve" unicode="&#x115;" horiz-adv-x="511" 
d="M464 212h-357q3 -76 50.5 -122t124.5 -46q81 0 129 51l35 -35q-65 -67 -168 -67q-102 0 -165.5 64.5t-63.5 169.5q0 102 58.5 166t152.5 64q95 0 149.5 -66t54.5 -179zM262 407q-64 0 -106.5 -41.5t-48.5 -111.5h301q-7 71 -45.5 112t-100.5 41zM260 577q61 0 105 44
l30 -30q-55 -57 -135 -57q-78 0 -135 57l30 31q45 -45 105 -45z" />
    <glyph glyph-name="Edotaccent" unicode="&#x116;" horiz-adv-x="506" 
d="M141 651v-273h274v-49h-274v-280h313v-49h-370v700h365v-49h-308zM227 808q0 17 12 29t29 12t29 -12t12 -29t-12 -29t-29 -12t-29 12t-12 29z" />
    <glyph glyph-name="edotaccent" unicode="&#x117;" horiz-adv-x="511" 
d="M464 212h-357q3 -76 50.5 -122t124.5 -46q81 0 129 51l35 -35q-65 -67 -168 -67q-102 0 -165.5 64.5t-63.5 169.5q0 102 58.5 166t152.5 64q95 0 149.5 -66t54.5 -179zM262 407q-64 0 -106.5 -41.5t-48.5 -111.5h301q-7 71 -45.5 112t-100.5 41zM220 585q0 17 12 29
t29 12t29 -12t12 -29t-12 -29t-29 -12t-29 12t-12 29z" />
    <glyph glyph-name="Eogonek" unicode="&#x118;" horiz-adv-x="506" 
d="M340 -40q0 -29 16 -45t42 -16q27 0 42 16l23 -23q-24 -25 -65 -25q-40 0 -65 25t-25 67q0 24 10 41h-234v700h365v-49h-308v-273h274v-49h-274v-280h313v-49h-103q-11 -16 -11 -40z" />
    <glyph glyph-name="eogonek" unicode="&#x119;" horiz-adv-x="511" 
d="M325 -40q0 -29 16 -45t42 -16q27 0 42 16l23 -23q-24 -25 -65 -25q-40 0 -65 25t-25 67q0 20 7 35q-7 -1 -22 -1q-102 0 -165.5 64.5t-63.5 169.5q0 102 58.5 166t152.5 64q95 0 149.5 -66t54.5 -179h-357q3 -76 50.5 -122t124.5 -46q81 0 129 51l35 -35
q-44 -46 -111 -61q-10 -17 -10 -39zM262 407q-64 0 -106.5 -41.5t-48.5 -111.5h301q-7 71 -45.5 112t-100.5 41z" />
    <glyph glyph-name="Ecaron" unicode="&#x11a;" horiz-adv-x="506" 
d="M141 651v-273h274v-49h-274v-280h313v-49h-370v700h365v-49h-308zM268 741l-119 119l30 30l89 -89l89 89l30 -30z" />
    <glyph glyph-name="ecaron" unicode="&#x11b;" horiz-adv-x="511" 
d="M464 212h-357q3 -76 50.5 -122t124.5 -46q81 0 129 51l35 -35q-65 -67 -168 -67q-102 0 -165.5 64.5t-63.5 169.5q0 102 58.5 166t152.5 64q95 0 149.5 -66t54.5 -179zM262 407q-64 0 -106.5 -41.5t-48.5 -111.5h301q-7 71 -45.5 112t-100.5 41zM261 518l-119 119l30 30
l89 -89l89 89l30 -30z" />
    <glyph glyph-name="Gcircumflex" unicode="&#x11c;" horiz-adv-x="743" 
d="M403 314v49h256v-269q-98 -101 -256 -101q-156 0 -252.5 99t-96.5 258t96.5 258t252.5 99q157 0 256 -102l-38 -37q-82 87 -215 87q-131 0 -212.5 -84.5t-81.5 -220.5t81.5 -220.5t212.5 -84.5q116 0 196 70v199h-199zM402 890l119 -119l-30 -30l-89 89l-88 -89l-30 30z
" />
    <glyph glyph-name="gcircumflex" unicode="&#x11d;" horiz-adv-x="501" 
d="M27 -120q0 44 28.5 76.5t78.5 48.5q-62 24 -62 75q0 54 68 77q-40 19 -61.5 55t-21.5 83q0 73 47.5 117.5t124.5 44.5q70 0 117 -39q33 39 75 39q9 0 25 -2v-47q-10 3 -21 3q-26 0 -52 -24q26 -38 26 -90q0 -71 -47.5 -115.5t-124.5 -44.5q-47 0 -74 -15t-27 -40
t32 -40.5t85 -15.5q94 0 150 -36.5t56 -97.5q0 -66 -63.5 -107.5t-160.5 -41.5q-91 0 -144.5 38t-53.5 99zM84 -120q0 -42 37.5 -67t102.5 -25q71 0 120 29t49 74q0 41 -41 65.5t-108 24.5q-74 0 -117 -28t-43 -73zM112 297q0 -51 32.5 -82.5t84.5 -31.5t84 31.5t32 82.5
q0 50 -32 82t-84 32t-84.5 -32t-32.5 -82zM227 667l119 -119l-30 -30l-89 89l-89 -89l-30 30z" />
    <glyph glyph-name="Gbreve" unicode="&#x11e;" horiz-adv-x="743" 
d="M403 314v49h256v-269q-98 -101 -256 -101q-156 0 -252.5 99t-96.5 258t96.5 258t252.5 99q157 0 256 -102l-38 -37q-82 87 -215 87q-131 0 -212.5 -84.5t-81.5 -220.5t81.5 -220.5t212.5 -84.5q116 0 196 70v199h-199zM402 800q60 0 105 45l30 -31q-55 -57 -135 -57
q-79 0 -135 58l31 30q43 -45 104 -45z" />
    <glyph glyph-name="gbreve" unicode="&#x11f;" horiz-adv-x="501" 
d="M27 -120q0 44 28.5 76.5t78.5 48.5q-62 24 -62 75q0 54 68 77q-40 19 -61.5 55t-21.5 83q0 73 47.5 117.5t124.5 44.5q70 0 117 -39q33 39 75 39q9 0 25 -2v-47q-10 3 -21 3q-26 0 -52 -24q26 -38 26 -90q0 -71 -47.5 -115.5t-124.5 -44.5q-47 0 -74 -15t-27 -40
t32 -40.5t85 -15.5q94 0 150 -36.5t56 -97.5q0 -66 -63.5 -107.5t-160.5 -41.5q-91 0 -144.5 38t-53.5 99zM84 -120q0 -42 37.5 -67t102.5 -25q71 0 120 29t49 74q0 41 -41 65.5t-108 24.5q-74 0 -117 -28t-43 -73zM112 297q0 -51 32.5 -82.5t84.5 -31.5t84 31.5t32 82.5
q0 50 -32 82t-84 32t-84.5 -32t-32.5 -82zM229 577q62 0 104 44l30 -30q-55 -57 -134 -57q-78 0 -135 57l30 31q43 -45 105 -45z" />
    <glyph glyph-name="Gdotaccent" unicode="&#x120;" horiz-adv-x="743" 
d="M403 314v49h256v-269q-98 -101 -256 -101q-156 0 -252.5 99t-96.5 258t96.5 258t252.5 99q157 0 256 -102l-38 -37q-82 87 -215 87q-131 0 -212.5 -84.5t-81.5 -220.5t81.5 -220.5t212.5 -84.5q116 0 196 70v199h-199zM361 808q0 17 12 29t29 12t29 -12t12 -29t-12 -29
t-29 -12t-29 12t-12 29z" />
    <glyph glyph-name="gdotaccent" unicode="&#x121;" horiz-adv-x="501" 
d="M27 -120q0 44 28.5 76.5t78.5 48.5q-62 24 -62 75q0 54 68 77q-40 19 -61.5 55t-21.5 83q0 73 47.5 117.5t124.5 44.5q70 0 117 -39q33 39 75 39q9 0 25 -2v-47q-10 3 -21 3q-26 0 -52 -24q26 -38 26 -90q0 -71 -47.5 -115.5t-124.5 -44.5q-47 0 -74 -15t-27 -40
t32 -40.5t85 -15.5q94 0 150 -36.5t56 -97.5q0 -66 -63.5 -107.5t-160.5 -41.5q-91 0 -144.5 38t-53.5 99zM84 -120q0 -42 37.5 -67t102.5 -25q71 0 120 29t49 74q0 41 -41 65.5t-108 24.5q-74 0 -117 -28t-43 -73zM112 297q0 -51 32.5 -82.5t84.5 -31.5t84 31.5t32 82.5
q0 50 -32 82t-84 32t-84.5 -32t-32.5 -82zM184 585q0 17 12 29t29 12t29 -12t12 -29t-12 -29t-29 -12t-29 12t-12 29z" />
    <glyph glyph-name="Gcommaaccent" unicode="&#x122;" horiz-adv-x="743" 
d="M403 314v49h256v-269q-98 -101 -256 -101q-156 0 -252.5 99t-96.5 258t96.5 258t252.5 99q157 0 256 -102l-38 -37q-82 87 -215 87q-131 0 -212.5 -84.5t-81.5 -220.5t81.5 -220.5t212.5 -84.5q116 0 196 70v199h-199zM374 -204l-19 19q37 37 39 63q-14 2 -23 12t-9 24
q0 15 10.5 25.5t26.5 10.5q15 0 25 -11.5t10 -32.5q0 -52 -60 -110z" />
    <glyph glyph-name="gcommaaccent" unicode="&#x123;" horiz-adv-x="501" 
d="M27 -120q0 44 28.5 76.5t78.5 48.5q-62 24 -62 75q0 54 68 77q-40 19 -61.5 55t-21.5 83q0 73 47.5 117.5t124.5 44.5q70 0 117 -39q33 39 75 39q9 0 25 -2v-47q-10 3 -21 3q-26 0 -52 -24q26 -38 26 -90q0 -71 -47.5 -115.5t-124.5 -44.5q-47 0 -74 -15t-27 -40
t32 -40.5t85 -15.5q94 0 150 -36.5t56 -97.5q0 -66 -63.5 -107.5t-160.5 -41.5q-91 0 -144.5 38t-53.5 99zM84 -120q0 -42 37.5 -67t102.5 -25q71 0 120 29t49 74q0 41 -41 65.5t-108 24.5q-74 0 -117 -28t-43 -73zM112 297q0 -51 32.5 -82.5t84.5 -31.5t84 31.5t32 82.5
q0 50 -32 82t-84 32t-84.5 -32t-32.5 -82zM254 675l20 -19q-36 -36 -40 -64q14 -2 23.5 -12t9.5 -23q0 -16 -10.5 -26t-26.5 -10q-15 0 -25.5 11t-10.5 32q0 49 60 111z" />
    <glyph glyph-name="Hcircumflex" unicode="&#x124;" horiz-adv-x="694" 
d="M141 700v-322h412v322h57v-700h-57v329h-412v-329h-57v700h57zM347 890l119 -119l-30 -30l-89 89l-89 -89l-30 30z" />
    <glyph glyph-name="hcircumflex" unicode="&#x125;" horiz-adv-x="526" 
d="M81 750h55v-340q56 47 137 47q76 0 122.5 -50.5t46.5 -131.5v-275h-55v275q0 58 -34.5 94.5t-90.5 36.5q-76 0 -126 -48v-358h-55v750zM269 896l119 -119l-30 -30l-89 89l-88 -89l-30 30z" />
    <glyph glyph-name="Hbar" unicode="&#x126;" horiz-adv-x="700" 
d="M107 0v514h-63v45h63v141h57v-141h369v141h57v-141h66v-45h-66v-514h-57v329h-369v-329h-57zM164 378h369v136h-369v-136z" />
    <glyph glyph-name="hbar" unicode="&#x127;" horiz-adv-x="536" 
d="M30 604v46h60v100h55v-100h183v-46h-183v-195q59 48 137 48q76 0 123 -50.5t47 -131.5v-275h-55v275q0 58 -35 94.5t-91 36.5q-79 0 -126 -49v-357h-55v604h-60z" />
    <glyph glyph-name="Itilde" unicode="&#x128;" horiz-adv-x="218" 
d="M81 0v700h56v-700h-56zM12 768h-35q0 37 22 59.5t57 22.5q30 0 58 -25.5t48 -25.5t32.5 13t12.5 34h35q0 -37 -22 -59.5t-58 -22.5q-31 0 -58 25.5t-47 25.5t-32.5 -13t-12.5 -34z" />
    <glyph glyph-name="itilde" unicode="&#x129;" 
d="M11 545h-35q0 37 22 59.5t57 22.5q30 0 58 -25.5t49 -25.5q19 0 31.5 13t12.5 33h35q0 -36 -22 -58.5t-57 -22.5q-32 0 -59 25t-47 25t-32.5 -12.5t-12.5 -33.5zM81 0v450h55v-450h-55z" />
    <glyph glyph-name="Imacron" unicode="&#x12a;" horiz-adv-x="218" 
d="M81 0v700h56v-700h-56zM-9 772v38h236v-38h-236z" />
    <glyph glyph-name="imacron" unicode="&#x12b;" 
d="M-10 549v37h236v-37h-236zM81 0v450h55v-450h-55z" />
    <glyph glyph-name="Ibreve" unicode="&#x12c;" horiz-adv-x="218" 
d="M81 0v700h56v-700h-56zM109 800q60 0 105 45l30 -31q-55 -57 -135 -57q-79 0 -135 58l31 30q43 -45 104 -45z" />
    <glyph glyph-name="ibreve" unicode="&#x12d;" 
d="M108 577q61 0 105 44l30 -30q-55 -57 -135 -57q-78 0 -135 57l31 31q43 -45 104 -45zM81 0v450h55v-450h-55z" />
    <glyph glyph-name="Iogonek" unicode="&#x12e;" horiz-adv-x="218" 
d="M81 0v700h56v-700h-56zM102 -40q0 -29 16 -45t42 -16q27 0 42 16l23 -23q-24 -25 -65 -25q-40 0 -65 25t-25 67q0 25 11 41h32q-11 -16 -11 -40z" />
    <glyph glyph-name="iogonek" unicode="&#x12f;" 
d="M102 -40q0 -29 16 -45t42 -16q27 0 42 16l23 -23q-24 -25 -65 -25q-40 0 -65 25t-25 67q0 25 11 41v450h55v-450h-23q-11 -16 -11 -40zM67 585q0 17 12 29t29 12t29 -12t12 -29t-12 -29t-29 -12t-29 12t-12 29z" />
    <glyph glyph-name="Idotaccent" unicode="&#x130;" horiz-adv-x="218" 
d="M81 0v700h56v-700h-56zM68 808q0 17 12 29t29 12t29 -12t12 -29t-12 -29t-29 -12t-29 12t-12 29z" />
    <glyph glyph-name="dotlessi" unicode="&#x131;" 
d="M81 0v450h55v-450h-55z" />
    <glyph glyph-name="IJ" unicode="&#x132;" horiz-adv-x="507" 
d="M84 250v450h57v-450h-57zM370 186v514h56v-514q0 -86 -52.5 -139.5t-137.5 -53.5q-86 0 -139 55l37 38q39 -41 100 -41q60 0 98 39.5t38 101.5z" />
    <glyph glyph-name="ij" unicode="&#x133;" horiz-adv-x="433" 
d="M81 0v450h55v-450h-55zM67 585q0 17 12 29t29 12t29 -12t12 -29t-12 -29t-29 -12t-29 12t-12 29zM284 585q0 17 12 29t29 12t29 -12t12 -29t-12 -29t-29 -12t-29 12t-12 29zM237 -250v37q60 0 60 57v606h55v-607q0 -45 -24 -71t-62 -26q-21 0 -29 4z" />
    <glyph glyph-name="Jcircumflex" unicode="&#x134;" horiz-adv-x="454" 
d="M316 186v514h57v-514q0 -86 -53 -139.5t-138 -53.5t-138 55l37 38q38 -41 99 -41t98.5 39.5t37.5 101.5zM345 890l118 -119l-30 -30l-88 89l-89 -89l-30 30z" />
    <glyph glyph-name="jcircumflex" unicode="&#x135;" 
d="M21 -250v37q27 0 43.5 14.5t16.5 42.5v606h55v-607q0 -45 -24 -71t-62 -26q-22 0 -29 4zM108 667l119 -119l-30 -30l-89 89l-89 -89l-30 30z" />
    <glyph glyph-name="Kcommaaccent" unicode="&#x136;" horiz-adv-x="585" 
d="M81 0v700h56v-700h-56zM476 0l-321 359l300 341h72l-301 -341l322 -359h-72zM272 -204l-19 19q35 35 39 63q-14 2 -23.5 12t-9.5 24q0 15 10.5 25.5t26.5 10.5q15 0 25.5 -11.5t10.5 -32.5q0 -50 -60 -110z" />
    <glyph glyph-name="kcommaaccent" unicode="&#x137;" horiz-adv-x="458" 
d="M136 0h-55v750h55v-750zM354 0l-218 239l195 211h67l-196 -211l219 -239h-67zM208 -204l-19 19q37 37 39 63q-14 2 -23 12t-9 24q0 15 10.5 25.5t26.5 10.5q15 0 25 -11.5t10 -32.5q0 -52 -60 -110z" />
    <glyph glyph-name="Lacute" unicode="&#x139;" horiz-adv-x="467" 
d="M141 700v-651h282v-49h-339v700h57zM159 771l119 119l30 -30l-119 -119z" />
    <glyph glyph-name="lacute" unicode="&#x13a;" horiz-adv-x="243" 
d="M197 37v-37q-7 -4 -30 -4q-38 0 -62 26t-24 71v657h55v-656q0 -57 61 -57zM47 804l119 119l30 -30l-119 -119z" />
    <glyph glyph-name="Lcommaaccent" unicode="&#x13b;" horiz-adv-x="467" 
d="M141 700v-651h282v-49h-339v700h57zM230 -204l-19 19q35 35 39 63q-14 2 -23.5 12t-9.5 24q0 15 10.5 25.5t26.5 10.5q15 0 25.5 -11.5t10.5 -32.5q0 -50 -60 -110z" />
    <glyph glyph-name="lcommaaccent" unicode="&#x13c;" horiz-adv-x="243" 
d="M197 37v-37q-7 -4 -30 -4q-38 0 -62 26t-24 71v657h55v-656q0 -57 61 -57zM111 -204l-19 19q35 35 39 63q-14 2 -23.5 12t-9.5 24q0 15 10.5 25.5t26.5 10.5q15 0 25.5 -11.5t10.5 -32.5q0 -50 -60 -110z" />
    <glyph glyph-name="Lcaron" unicode="&#x13d;" horiz-adv-x="467" 
d="M141 700v-651h282v-49h-339v700h57zM113 741l-119 119l30 30l89 -89l88 89l30 -30z" />
    <glyph glyph-name="lcaron" unicode="&#x13e;" horiz-adv-x="355" 
d="M197 37v-37q-7 -4 -30 -4q-38 0 -62 26t-24 71v657h55v-656q0 -57 61 -57zM266 585l-21 22q38 38 43 68q-16 2 -26 13.5t-10 27.5q0 17 12 29t29 12t29 -12.5t12 -36.5q0 -55 -68 -123z" />
    <glyph glyph-name="Ldot" unicode="&#x13f;" horiz-adv-x="467" 
d="M141 700v-651h282v-49h-339v700h57zM309 325q0 17 12 29t29 12t29 -12t12 -29t-12 -29t-29 -12t-29 12t-12 29z" />
    <glyph glyph-name="ldot" unicode="&#x140;" horiz-adv-x="366" 
d="M197 37v-37q-7 -4 -30 -4q-38 0 -62 26t-24 71v657h55v-656q0 -57 61 -57zM252 325q0 17 12 29t29 12t29 -12t12 -29t-12 -29t-29 -12t-29 12t-12 29z" />
    <glyph glyph-name="Lslash" unicode="&#x141;" horiz-adv-x="486" 
d="M14 240l89 89v371h57v-326l95 95l30 -30l-125 -125v-265h282v-49h-339v269l-59 -59z" />
    <glyph glyph-name="lslash" unicode="&#x142;" horiz-adv-x="272" 
d="M215 37v-37q-8 -4 -31 -4q-38 0 -62 26t-24 71v206l-58 -58l-30 30l88 88v391h55v-348l65 65l30 -30l-95 -95v-248q0 -28 17 -42.5t45 -14.5z" />
    <glyph glyph-name="Nacute" unicode="&#x143;" horiz-adv-x="715" 
d="M84 700h41l449 -594v594h57v-700h-41l-449 594v-594h-57v700zM303 771l119 119l30 -30l-119 -119z" />
    <glyph glyph-name="nacute" unicode="&#x144;" horiz-adv-x="523" 
d="M81 450h55v-40q56 47 137 47q76 0 122.5 -50.5t46.5 -131.5v-275h-55v275q0 58 -34.5 94.5t-90.5 36.5q-76 0 -126 -48v-358h-55v450zM207 548l118 119l30 -30l-118 -119z" />
    <glyph glyph-name="Ncommaaccent" unicode="&#x145;" horiz-adv-x="715" 
d="M84 700h41l449 -594v594h57v-700h-41l-449 594v-594h-57v700zM337 -204l-19 19q35 35 39 63q-14 2 -23 12t-9 24q0 15 10.5 25.5t26.5 10.5q15 0 25 -11.5t10 -32.5q0 -52 -60 -110z" />
    <glyph glyph-name="ncommaaccent" unicode="&#x146;" horiz-adv-x="523" 
d="M81 450h55v-40q56 47 137 47q76 0 122.5 -50.5t46.5 -131.5v-275h-55v275q0 58 -34.5 94.5t-90.5 36.5q-76 0 -126 -48v-358h-55v450zM237 -204l-19 19q37 37 39 63q-14 2 -23 12t-9 24q0 15 10.5 25.5t26.5 10.5q15 0 25 -11.5t10 -32.5q0 -52 -60 -110z" />
    <glyph glyph-name="Ncaron" unicode="&#x147;" horiz-adv-x="715" 
d="M84 700h41l449 -594v594h57v-700h-41l-449 594v-594h-57v700zM357 741l-118 119l30 30l88 -89l89 89l30 -30z" />
    <glyph glyph-name="ncaron" unicode="&#x148;" horiz-adv-x="523" 
d="M81 450h55v-40q56 47 137 47q76 0 122.5 -50.5t46.5 -131.5v-275h-55v275q0 58 -34.5 94.5t-90.5 36.5q-76 0 -126 -48v-358h-55v450zM261 518l-119 119l30 30l89 -89l89 89l30 -30z" />
    <glyph glyph-name="Eng" unicode="&#x14a;" horiz-adv-x="715" 
d="M515 -250v37q59 0 59 57v174l-433 576v-594h-57v700h41l449 -594v594h57v-857q0 -45 -24.5 -71t-63.5 -26q-21 0 -28 4z" />
    <glyph glyph-name="eng" unicode="&#x14b;" horiz-adv-x="523" 
d="M327 -250v37q60 0 60 57v431q0 58 -34.5 94.5t-90.5 36.5q-76 0 -126 -48v-358h-55v450h55v-40q56 47 137 47q76 0 122.5 -50.5t46.5 -131.5v-432q0 -45 -24 -71t-62 -26q-21 0 -29 4z" />
    <glyph glyph-name="Omacron" unicode="&#x14c;" horiz-adv-x="807" 
d="M54 350q0 159 96.5 258t252.5 99q157 0 253.5 -99t96.5 -258t-96.5 -258t-253.5 -99q-156 0 -252.5 99t-96.5 258zM112 350q0 -136 81 -220.5t210 -84.5q130 0 211 84.5t81 220.5t-81 220.5t-211 84.5q-129 0 -210 -84.5t-81 -220.5zM285 772v38h236v-38h-236z" />
    <glyph glyph-name="omacron" unicode="&#x14d;" horiz-adv-x="557" 
d="M49 225q0 103 63.5 167.5t165.5 64.5q103 0 166.5 -64t63.5 -168t-63.5 -168t-166.5 -64q-102 0 -165.5 64.5t-63.5 167.5zM105 225q0 -81 48 -131t125 -50t125 50t48 131t-48 131t-125 50t-125 -50t-48 -131zM160 549v37h236v-37h-236z" />
    <glyph glyph-name="Obreve" unicode="&#x14e;" horiz-adv-x="807" 
d="M54 350q0 159 96.5 258t252.5 99q157 0 253.5 -99t96.5 -258t-96.5 -258t-253.5 -99q-156 0 -252.5 99t-96.5 258zM112 350q0 -136 81 -220.5t210 -84.5q130 0 211 84.5t81 220.5t-81 220.5t-211 84.5q-129 0 -210 -84.5t-81 -220.5zM403 800q60 0 105 45l30 -31
q-55 -57 -135 -57q-79 0 -134 58l30 30q43 -45 104 -45z" />
    <glyph glyph-name="obreve" unicode="&#x14f;" horiz-adv-x="557" 
d="M49 225q0 103 63.5 167.5t165.5 64.5q103 0 166.5 -64t63.5 -168t-63.5 -168t-166.5 -64q-102 0 -165.5 64.5t-63.5 167.5zM105 225q0 -81 48 -131t125 -50t125 50t48 131t-48 131t-125 50t-125 -50t-48 -131zM278 577q61 0 105 44l30 -30q-55 -57 -135 -57
q-79 0 -134 57l30 31q43 -45 104 -45z" />
    <glyph glyph-name="Ohungarumlaut" unicode="&#x150;" horiz-adv-x="807" 
d="M54 350q0 159 96.5 258t252.5 99q157 0 253.5 -99t96.5 -258t-96.5 -258t-253.5 -99q-156 0 -252.5 99t-96.5 258zM112 350q0 -136 81 -220.5t210 -84.5q130 0 211 84.5t81 220.5t-81 220.5t-211 84.5q-129 0 -210 -84.5t-81 -220.5zM278 771l118 119l30 -30l-118 -119z
M420 771l119 119l30 -30l-119 -119z" />
    <glyph glyph-name="ohungarumlaut" unicode="&#x151;" horiz-adv-x="557" 
d="M49 225q0 103 63.5 167.5t165.5 64.5q103 0 166.5 -64t63.5 -168t-63.5 -168t-166.5 -64q-102 0 -165.5 64.5t-63.5 167.5zM105 225q0 -81 48 -131t125 -50t125 50t48 131t-48 131t-125 50t-125 -50t-48 -131zM153 548l118 119l30 -30l-118 -119zM295 548l119 119l30 -30
l-119 -119z" />
    <glyph glyph-name="OE" unicode="&#x152;" horiz-adv-x="868" 
d="M531 651v-273h249v-49h-249v-280h287v-49h-341q-42 -7 -74 -7q-156 0 -252.5 99t-96.5 258t96.5 258t252.5 99q32 0 74 -7h336v-49h-282zM403 45q37 0 71 9v592q-35 9 -71 9q-129 0 -210 -84.5t-81 -220.5t81 -220.5t210 -84.5z" />
    <glyph glyph-name="oe" unicode="&#x153;" horiz-adv-x="853" 
d="M806 212h-357q3 -76 50.5 -122t124.5 -46q81 0 130 51l34 -35q-65 -67 -168 -67q-107 0 -171 72q-64 -72 -171 -72q-102 0 -165.5 64.5t-63.5 167.5t63.5 167.5t165.5 64.5q104 0 169 -70q59 70 155 70q95 0 149.5 -66t54.5 -179zM278 44q91 0 139 67q-26 50 -26 116
q0 67 25 114q-49 65 -138 65q-77 0 -125 -50t-48 -131t48 -131t125 -50zM604 407q-64 0 -106.5 -41.5t-48.5 -111.5h301q-7 71 -45.5 112t-100.5 41z" />
    <glyph glyph-name="Racute" unicode="&#x154;" horiz-adv-x="527" 
d="M427 0l-176 317h-109v-317h-58v700h188q88 0 141.5 -52.5t53.5 -139.5q0 -76 -42.5 -126.5t-114.5 -61.5l183 -320h-66zM409 508q0 64 -37.5 103t-99.5 39h-130v-282h130q62 0 99.5 38.5t37.5 101.5zM206 771l119 119l30 -30l-119 -119z" />
    <glyph glyph-name="racute" unicode="&#x155;" horiz-adv-x="343" 
d="M264 456q9 0 29 -2v-50q-17 3 -33 3q-77 0 -124 -65v-342h-55v450h55v-56q54 62 128 62zM134 548l119 119l30 -30l-119 -119z" />
    <glyph glyph-name="Rcommaaccent" unicode="&#x156;" horiz-adv-x="527" 
d="M427 0l-176 317h-109v-317h-58v700h188q88 0 141.5 -52.5t53.5 -139.5q0 -76 -42.5 -126.5t-114.5 -61.5l183 -320h-66zM409 508q0 64 -37.5 103t-99.5 39h-130v-282h130q62 0 99.5 38.5t37.5 101.5zM243 -204l-19 19q35 35 39 63q-14 2 -23 12t-9 24q0 15 10 25.5
t26 10.5q15 0 25.5 -11.5t10.5 -32.5q0 -52 -60 -110z" />
    <glyph glyph-name="rcommaaccent" unicode="&#x157;" horiz-adv-x="343" 
d="M264 456q9 0 29 -2v-50q-17 3 -33 3q-77 0 -124 -65v-342h-55v450h55v-56q54 62 128 62zM84 -204l-19 19q37 37 39 63q-14 2 -23 12t-9 24q0 15 10.5 25.5t26.5 10.5q15 0 25 -11.5t10 -32.5q0 -52 -60 -110z" />
    <glyph glyph-name="Rcaron" unicode="&#x158;" horiz-adv-x="527" 
d="M427 0l-176 317h-109v-317h-58v700h188q88 0 141.5 -52.5t53.5 -139.5q0 -76 -42.5 -126.5t-114.5 -61.5l183 -320h-66zM409 508q0 64 -37.5 103t-99.5 39h-130v-282h130q62 0 99.5 38.5t37.5 101.5zM260 741l-119 119l30 30l89 -89l89 89l30 -30z" />
    <glyph glyph-name="rcaron" unicode="&#x159;" horiz-adv-x="343" 
d="M264 456q9 0 29 -2v-50q-17 3 -33 3q-77 0 -124 -65v-342h-55v450h55v-56q54 62 128 62zM188 518l-118 119l30 30l88 -89l89 89l30 -30z" />
    <glyph glyph-name="Sacute" unicode="&#x15a;" horiz-adv-x="521" 
d="M442 628l-37 -37q-25 28 -68 46t-86 18q-67 0 -100.5 -39.5t-33.5 -90.5q0 -36 19 -62.5t49.5 -43t67.5 -31t74.5 -31t68 -36.5t49.5 -54t19 -78q0 -79 -54 -137.5t-156 -58.5q-128 0 -210 88l36 36q30 -34 76.5 -53t92.5 -19q78 0 117 45t39 98q0 40 -25.5 68.5
t-64.5 44l-83.5 34.5t-83.5 39t-64.5 58.5t-25.5 91.5q0 76 48 129.5t141 53.5q119 0 195 -79zM192 771l119 119l30 -30l-119 -119z" />
    <glyph glyph-name="sacute" unicode="&#x15b;" horiz-adv-x="383" 
d="M316 405l-35 -34q-35 37 -94 37q-39 0 -58.5 -22.5t-19.5 -51.5t22.5 -48.5t55 -31.5t65 -25.5t55 -39.5t22.5 -64q0 -53 -37.5 -92.5t-107.5 -39.5q-87 0 -141 57l35 35q38 -44 103 -44q47 0 70 26t23 57q0 28 -22.5 46.5t-55 30.5t-65 25.5t-55 40t-22.5 66.5
q0 51 33 87.5t97 36.5q82 0 132 -52zM127 548l118 119l30 -30l-118 -119z" />
    <glyph glyph-name="Scircumflex" unicode="&#x15c;" horiz-adv-x="521" 
d="M442 628l-37 -37q-25 28 -68 46t-86 18q-67 0 -100.5 -39.5t-33.5 -90.5q0 -36 19 -62.5t49.5 -43t67.5 -31t74.5 -31t68 -36.5t49.5 -54t19 -78q0 -79 -54 -137.5t-156 -58.5q-128 0 -210 88l36 36q30 -34 76.5 -53t92.5 -19q78 0 117 45t39 98q0 40 -25.5 68.5
t-64.5 44l-83.5 34.5t-83.5 39t-64.5 58.5t-25.5 91.5q0 76 48 129.5t141 53.5q119 0 195 -79zM247 890l119 -119l-30 -30l-89 89l-89 -89l-30 30z" />
    <glyph glyph-name="scircumflex" unicode="&#x15d;" horiz-adv-x="383" 
d="M316 405l-35 -34q-35 37 -94 37q-39 0 -58.5 -22.5t-19.5 -51.5t22.5 -48.5t55 -31.5t65 -25.5t55 -39.5t22.5 -64q0 -53 -37.5 -92.5t-107.5 -39.5q-87 0 -141 57l35 35q38 -44 103 -44q47 0 70 26t23 57q0 28 -22.5 46.5t-55 30.5t-65 25.5t-55 40t-22.5 66.5
q0 51 33 87.5t97 36.5q82 0 132 -52zM181 667l119 -119l-30 -30l-89 89l-89 -89l-30 30z" />
    <glyph glyph-name="Scedilla" unicode="&#x15e;" horiz-adv-x="521" 
d="M442 628l-37 -37q-25 28 -68 46t-86 18q-67 0 -100.5 -39.5t-33.5 -90.5q0 -36 19 -62.5t49.5 -43t67.5 -31t74.5 -31t68 -36.5t49.5 -54t19 -78q0 -76 -50.5 -133.5t-145.5 -62.5v-54q30 -5 47.5 -24.5t17.5 -49.5q0 -34 -22 -55t-58 -21q-35 0 -58 23l22 22
q15 -15 36 -15q22 0 35.5 12.5t13.5 34.5q0 48 -64 48v80q-121 6 -194 87l36 36q30 -34 76.5 -53t92.5 -19q78 0 117 45t39 98q0 40 -25.5 68.5t-64.5 44l-83.5 34.5t-83.5 39t-64.5 58.5t-25.5 91.5q0 76 48 129.5t141 53.5q119 0 195 -79z" />
    <glyph glyph-name="scedilla" unicode="&#x15f;" horiz-adv-x="383" 
d="M316 405l-35 -34q-35 37 -94 37q-39 0 -58.5 -22.5t-19.5 -51.5t22.5 -48.5t55 -31.5t65 -25.5t55 -39.5t22.5 -64q0 -50 -34 -88.5t-97 -42.5v-55q30 -5 47.5 -24.5t17.5 -49.5q0 -34 -22 -55t-57 -21q-37 0 -58 23l21 22q15 -15 37 -15q21 0 35 13t14 34q0 48 -64 48
v80q-78 5 -126 56l35 35q38 -44 103 -44q47 0 70 26t23 57q0 28 -22.5 46.5t-55 30.5t-65 25.5t-55 40t-22.5 66.5q0 51 33 87.5t97 36.5q82 0 132 -52z" />
    <glyph glyph-name="Scaron" unicode="&#x160;" horiz-adv-x="521" 
d="M442 628l-37 -37q-25 28 -68 46t-86 18q-67 0 -100.5 -39.5t-33.5 -90.5q0 -36 19 -62.5t49.5 -43t67.5 -31t74.5 -31t68 -36.5t49.5 -54t19 -78q0 -79 -54 -137.5t-156 -58.5q-128 0 -210 88l36 36q30 -34 76.5 -53t92.5 -19q78 0 117 45t39 98q0 40 -25.5 68.5
t-64.5 44l-83.5 34.5t-83.5 39t-64.5 58.5t-25.5 91.5q0 76 48 129.5t141 53.5q119 0 195 -79zM247 741l-119 119l30 30l89 -89l89 89l30 -30z" />
    <glyph glyph-name="scaron" unicode="&#x161;" horiz-adv-x="383" 
d="M316 405l-35 -34q-35 37 -94 37q-39 0 -58.5 -22.5t-19.5 -51.5t22.5 -48.5t55 -31.5t65 -25.5t55 -39.5t22.5 -64q0 -53 -37.5 -92.5t-107.5 -39.5q-87 0 -141 57l35 35q38 -44 103 -44q47 0 70 26t23 57q0 28 -22.5 46.5t-55 30.5t-65 25.5t-55 40t-22.5 66.5
q0 51 33 87.5t97 36.5q82 0 132 -52zM181 518l-119 119l30 30l89 -89l89 89l30 -30z" />
    <glyph glyph-name="Tcommaaccent" unicode="&#x162;" horiz-adv-x="557" 
d="M308 651v-651h-57v651h-207v49h471v-49h-207zM258 -204l-19 19q37 37 39 63q-14 2 -23 12t-9 24q0 15 10.5 25.5t26.5 10.5q15 0 25 -11.5t10 -32.5q0 -52 -60 -110z" />
    <glyph glyph-name="tcommaaccent" unicode="&#x163;" horiz-adv-x="313" 
d="M30 404v46h60v100h57v-100h131v-46h-131v-273q0 -40 24 -64.5t63 -24.5q24 0 44 11v-50q-28 -10 -53 -10q-61 0 -98 38t-37 100v273h-60zM149 -204l-19 19q37 37 39 63q-14 2 -23 12t-9 24q0 15 10.5 25.5t26.5 10.5q15 0 25 -11.5t10 -32.5q0 -52 -60 -110z" />
    <glyph glyph-name="Tcaron" unicode="&#x164;" horiz-adv-x="557" 
d="M308 651v-651h-57v651h-207v49h471v-49h-207zM279 741l-119 119l30 30l89 -89l88 89l30 -30z" />
    <glyph glyph-name="tcaron" unicode="&#x165;" horiz-adv-x="338" 
d="M30 404v46h60v100h57v-100h131v-46h-131v-273q0 -40 24 -64.5t63 -24.5q24 0 44 11v-50q-28 -10 -53 -10q-61 0 -98 38t-37 100v273h-60zM256 551l-22 22q39 39 43 68q-15 2 -25.5 13.5t-10.5 27.5q0 17 12 29t30 12q17 0 28.5 -12.5t11.5 -36.5q0 -56 -67 -123z" />
    <glyph glyph-name="Tbar" unicode="&#x166;" horiz-adv-x="557" 
d="M100 347v46h151v258h-207v49h471v-49h-207v-258h150v-46h-150v-347h-57v347h-151z" />
    <glyph glyph-name="tbar" unicode="&#x167;" horiz-adv-x="313" 
d="M30 256v44h60v104h-60v46h60v100h57v-100h131v-46h-131v-104h131v-44h-131v-125q0 -40 24 -64.5t63 -24.5q24 0 44 11v-50q-28 -10 -53 -10q-61 0 -98 38t-37 100v125h-60z" />
    <glyph glyph-name="Utilde" unicode="&#x168;" horiz-adv-x="681" 
d="M539 253v447h58v-447q0 -116 -71.5 -188t-185.5 -72q-115 0 -185.5 72t-70.5 188v447h57v-447q0 -92 55 -150t143 -58q89 0 144.5 58t55.5 150zM242 768h-35q0 37 22 59.5t57 22.5q31 0 58.5 -25.5t48.5 -25.5q20 0 32 13t12 34h36q0 -37 -22.5 -59.5t-57.5 -22.5
q-31 0 -58.5 25.5t-47.5 25.5t-32.5 -13t-12.5 -34z" />
    <glyph glyph-name="utilde" unicode="&#x169;" horiz-adv-x="535" 
d="M454 450v-269q0 -84 -51.5 -136t-135.5 -52q-83 0 -134.5 52.5t-51.5 135.5v269h56v-269q0 -61 36.5 -99t94.5 -38t94.5 38t36.5 99v269h55zM169 545h-35q0 37 22 59.5t57 22.5q31 0 58.5 -25.5t48.5 -25.5q19 0 31.5 13t12.5 33h35q0 -36 -22 -58.5t-57 -22.5
q-31 0 -58.5 25t-47.5 25t-32.5 -12.5t-12.5 -33.5z" />
    <glyph glyph-name="Umacron" unicode="&#x16a;" horiz-adv-x="681" 
d="M539 253v447h58v-447q0 -116 -71.5 -188t-185.5 -72q-115 0 -185.5 72t-70.5 188v447h57v-447q0 -92 55 -150t143 -58q89 0 144.5 58t55.5 150zM222 772v38h236v-38h-236z" />
    <glyph glyph-name="umacron" unicode="&#x16b;" horiz-adv-x="535" 
d="M454 450v-269q0 -84 -51.5 -136t-135.5 -52q-83 0 -134.5 52.5t-51.5 135.5v269h56v-269q0 -61 36.5 -99t94.5 -38t94.5 38t36.5 99v269h55zM149 549v37h236v-37h-236z" />
    <glyph glyph-name="Ubreve" unicode="&#x16c;" horiz-adv-x="681" 
d="M539 253v447h58v-447q0 -116 -71.5 -188t-185.5 -72q-115 0 -185.5 72t-70.5 188v447h57v-447q0 -92 55 -150t143 -58q89 0 144.5 58t55.5 150zM340 800q60 0 105 45l30 -31q-55 -57 -135 -57q-79 0 -135 58l31 30q43 -45 104 -45z" />
    <glyph glyph-name="ubreve" unicode="&#x16d;" horiz-adv-x="535" 
d="M454 450v-269q0 -84 -51.5 -136t-135.5 -52q-83 0 -134.5 52.5t-51.5 135.5v269h56v-269q0 -61 36.5 -99t94.5 -38t94.5 38t36.5 99v269h55zM267 577q61 0 105 44l30 -30q-55 -57 -135 -57q-78 0 -135 57l31 31q43 -45 104 -45z" />
    <glyph glyph-name="Uring" unicode="&#x16e;" horiz-adv-x="681" 
d="M539 253v447h58v-447q0 -116 -71.5 -188t-185.5 -72q-115 0 -185.5 72t-70.5 188v447h57v-447q0 -92 55 -150t143 -58q89 0 144.5 58t55.5 150zM254 824q0 40 24 64t62 24q39 0 63 -24t24 -64t-24 -64.5t-63 -24.5q-38 0 -62 24.5t-24 64.5zM284 823q0 -25 15.5 -41
t40.5 -16t41 16t16 41q0 26 -16.5 42t-40.5 16q-25 0 -40.5 -16t-15.5 -42z" />
    <glyph glyph-name="uring" unicode="&#x16f;" horiz-adv-x="535" 
d="M454 450v-269q0 -84 -51.5 -136t-135.5 -52q-83 0 -134.5 52.5t-51.5 135.5v269h56v-269q0 -61 36.5 -99t94.5 -38t94.5 38t36.5 99v269h55zM181 600q0 40 24 64.5t62 24.5q39 0 62.5 -24.5t23.5 -64.5t-23.5 -64t-62.5 -24q-38 0 -62 24t-24 64zM211 600q0 -26 15.5 -42
t40.5 -16t40.5 16t15.5 42t-16 42t-40 16q-25 0 -40.5 -16t-15.5 -42z" />
    <glyph glyph-name="Uhungarumlaut" unicode="&#x170;" horiz-adv-x="681" 
d="M539 253v447h58v-447q0 -116 -71.5 -188t-185.5 -72q-115 0 -185.5 72t-70.5 188v447h57v-447q0 -92 55 -150t143 -58q89 0 144.5 58t55.5 150zM215 771l118 119l30 -30l-118 -119zM357 771l119 119l30 -30l-119 -119z" />
    <glyph glyph-name="uhungarumlaut" unicode="&#x171;" horiz-adv-x="535" 
d="M454 450v-269q0 -84 -51.5 -136t-135.5 -52q-83 0 -134.5 52.5t-51.5 135.5v269h56v-269q0 -61 36.5 -99t94.5 -38t94.5 38t36.5 99v269h55zM141 548l119 119l30 -30l-119 -119zM284 548l119 119l30 -30l-119 -119z" />
    <glyph glyph-name="Uogonek" unicode="&#x172;" horiz-adv-x="681" 
d="M391 -40q0 -29 16 -45t42 -16q27 0 42 16l23 -23q-24 -25 -65 -25q-40 0 -65 25t-25 67q0 21 7 35q-4 0 -13 -0.5t-13 -0.5q-115 0 -185.5 72t-70.5 188v447h57v-447q0 -92 55 -150t143 -58q89 0 144.5 58t55.5 150v447h58v-447q0 -99 -53.5 -167t-142.5 -86
q-10 -17 -10 -40z" />
    <glyph glyph-name="uogonek" unicode="&#x173;" horiz-adv-x="535" 
d="M309 -40q0 -29 16 -45t41 -16q27 0 42 16l24 -23q-24 -25 -65 -25t-65.5 25t-24.5 67q0 22 6 35q-5 -1 -16 -1q-83 0 -134.5 52.5t-51.5 135.5v269h56v-269q0 -61 36.5 -99t94.5 -38t94.5 38t36.5 99v269h55v-269q0 -69 -36.5 -118t-99.5 -64q-9 -15 -9 -39z" />
    <glyph glyph-name="Wcircumflex" unicode="&#x174;" horiz-adv-x="1146" 
d="M1112 700l-266 -700h-59l-214 604l-214 -604h-59l-266 700h65l230 -615l214 615h60l214 -615l230 615h65zM573 890l119 -119l-30 -30l-89 89l-89 -89l-30 30z" />
    <glyph glyph-name="wcircumflex" unicode="&#x175;" horiz-adv-x="794" 
d="M762 450l-176 -450h-58l-131 374l-131 -374h-58l-176 450h63l142 -384l132 384h56l132 -384l142 384h63zM397 667l119 -119l-30 -30l-89 89l-89 -89l-30 30z" />
    <glyph glyph-name="Ycircumflex" unicode="&#x176;" horiz-adv-x="661" 
d="M302 0v309l-268 391h66l230 -335l230 335h67l-268 -392v-308h-57zM330 890l119 -119l-30 -30l-89 89l-88 -89l-30 30z" />
    <glyph glyph-name="ycircumflex" unicode="&#x177;" horiz-adv-x="529" 
d="M497 450l-323 -700h-61l125 250l-206 450h62l171 -384l171 384h61zM265 667l118 -119l-30 -30l-88 89l-89 -89l-30 30z" />
    <glyph glyph-name="Ydieresis" unicode="&#x178;" horiz-adv-x="661" 
d="M302 0v309l-268 391h66l230 -335l230 335h67l-268 -392v-308h-57zM198 797q0 16 11.5 27.5t28.5 11.5q16 0 27.5 -11t11.5 -28t-11.5 -28.5t-27.5 -11.5t-28 11.5t-12 28.5zM383 797q0 16 11.5 27.5t28.5 11.5t28 -11t11 -28t-11.5 -28.5t-27.5 -11.5q-17 0 -28.5 11.5
t-11.5 28.5z" />
    <glyph glyph-name="Zacute" unicode="&#x179;" horiz-adv-x="625" 
d="M61 651v49h507v-25l-433 -626h437v-49h-518v25l433 626h-426zM258 771l119 119l30 -30l-119 -119z" />
    <glyph glyph-name="zacute" unicode="&#x17a;" horiz-adv-x="469" 
d="M57 404v46h358v-25l-283 -379h283v-46h-361v25l283 379h-280zM180 548l118 119l30 -30l-118 -119z" />
    <glyph glyph-name="Zdotaccent" unicode="&#x17b;" horiz-adv-x="625" 
d="M61 651v49h507v-25l-433 -626h437v-49h-518v25l433 626h-426zM271 808q0 17 12 29t29 12t29 -12t12 -29t-12 -29t-29 -12t-29 12t-12 29z" />
    <glyph glyph-name="zdotaccent" unicode="&#x17c;" horiz-adv-x="469" 
d="M57 404v46h358v-25l-283 -379h283v-46h-361v25l283 379h-280zM193 585q0 17 12 29t29 12t29 -12t12 -29t-12 -29t-29 -12t-29 12t-12 29z" />
    <glyph glyph-name="Zcaron" unicode="&#x17d;" horiz-adv-x="625" 
d="M61 651v49h507v-25l-433 -626h437v-49h-518v25l433 626h-426zM312 741l-118 119l30 30l88 -89l89 89l30 -30z" />
    <glyph glyph-name="zcaron" unicode="&#x17e;" horiz-adv-x="469" 
d="M57 404v46h358v-25l-283 -379h283v-46h-361v25l283 379h-280zM234 518l-119 119l30 30l89 -89l89 89l30 -30z" />
    <glyph glyph-name="longs" unicode="&#x17f;" horiz-adv-x="300" 
d="M81 0v614q0 65 38 104t102 39q26 0 54 -10v-50q-20 11 -46 11q-41 0 -66.5 -26t-25.5 -68v-614h-56z" />
    <glyph glyph-name="uni018F" unicode="&#x18f;" horiz-adv-x="750" 
d="M697 350q0 -159 -89.5 -258t-232.5 -99t-232 99t-89 258v23h583q-8 126 -88 204t-204 78q-133 0 -216 -86l-37 36q96 102 255 102q157 0 253.5 -99t96.5 -258zM375 45q112 0 183.5 77t77.5 202h-522q6 -125 77.5 -202t183.5 -77z" />
    <glyph glyph-name="florin" unicode="&#x192;" horiz-adv-x="318" 
d="M39 -250v37q27 0 43.5 14.5t16.5 42.5v560h-66v46h66v164q0 65 38 104t102 39q26 0 54 -10v-50q-20 11 -46 11q-41 0 -66.5 -26t-25.5 -68v-164h138v-46h-138v-561q0 -45 -24.5 -71t-62.5 -26q-22 0 -29 4z" />
    <glyph glyph-name="uni01DD" unicode="&#x1dd;" horiz-adv-x="511" 
d="M49 238h356q-3 75 -50.5 121.5t-123.5 46.5q-82 0 -130 -51l-34 35q64 67 167 67t166.5 -64.5t63.5 -169.5q0 -102 -59 -166t-153 -64q-95 0 -149 66t-54 179zM250 43q64 0 106.5 41.5t48.5 111.5h-301q7 -71 45.5 -112t100.5 -41z" />
    <glyph glyph-name="Aringacute" unicode="&#x1fa;" horiz-adv-x="744" 
d="M341 873l119 119l30 -30l-102 -102q32 -5 51 -28.5t19 -58.5q0 -65 -55 -83l307 -690h-65l-96 218h-355l-95 -218h-65l305 690q-53 18 -53 83q0 35 18 58.5t49 28.5zM372 629l-156 -359h311zM316 773q0 -26 15.5 -42t40.5 -16t40.5 16t15.5 42t-16 42t-40 16
q-25 0 -40.5 -16t-15.5 -42z" />
    <glyph glyph-name="aringacute" unicode="&#x1fb;" horiz-adv-x="449" 
d="M402 37v-37q-7 -4 -25 -4q-52 0 -67 48q-54 -51 -131 -51q-64 0 -96 36t-32 85q0 67 61.5 105.5t157.5 38.5q23 0 35 -3v64q0 36 -25 63t-74 27q-67 0 -102 -37l-32 31q54 54 138 54q73 0 112 -40.5t39 -97.5v-242q0 -40 41 -40zM182 670l118 119l30 -30l-101 -102
q32 -5 51 -28.5t19 -58.5q0 -40 -23.5 -64t-62.5 -24q-38 0 -62 24t-24 64q0 34 18.5 57.5t49.5 28.5zM194 41q67 0 111 47v127q-11 3 -32 3q-74 0 -120.5 -27t-46.5 -72q0 -30 20.5 -54t67.5 -24zM157 570q0 -26 15.5 -42t40.5 -16t40.5 16t15.5 42t-16 42t-40 16
q-25 0 -40.5 -16t-15.5 -42z" />
    <glyph glyph-name="AEacute" unicode="&#x1fc;" horiz-adv-x="769" 
d="M429 651v-273h251v-49h-251v-280h289v-49h-346v218h-178l-95 -218h-65l310 700h369v-49h-284zM216 270h156v358zM353 771l119 119l30 -30l-119 -119z" />
    <glyph glyph-name="aeacute" unicode="&#x1fd;" horiz-adv-x="726" 
d="M305 255v64q0 36 -25 63t-74 27q-67 0 -102 -37l-32 31q54 54 138 54q83 0 121 -58q56 58 145 58q95 0 149 -66t54 -179h-318v-108q46 -60 136 -60q82 0 130 51l34 -35q-64 -67 -167 -67q-111 0 -172 69q-59 -69 -143 -69q-64 0 -96 36t-32 85q0 67 61.5 105.5
t157.5 38.5q23 0 35 -3zM361 319v-65h262q-6 71 -44.5 112t-100.5 41q-78 0 -121 -57q4 -20 4 -31zM305 94v121q-11 3 -32 3q-74 0 -120.5 -27t-46.5 -72q0 -30 20.5 -54t67.5 -24q66 0 111 53zM315 548l119 119l30 -30l-119 -119z" />
    <glyph glyph-name="Oslashacute" unicode="&#x1fe;" horiz-adv-x="807" 
d="M61 -7l88 100q-95 98 -95 257t96.5 258t252.5 99q128 0 220 -70l62 70h61l-88 -101q95 -98 95 -256q0 -159 -96.5 -258t-253.5 -99q-131 0 -221 70l-61 -70h-60zM695 350q0 130 -75 213l-401 -458q77 -60 184 -60q130 0 211 84.5t81 220.5zM112 350q0 -131 74 -214
l401 459q-77 60 -184 60q-129 0 -210 -84.5t-81 -220.5zM349 771l119 119l30 -30l-119 -119z" />
    <glyph glyph-name="oslashacute" unicode="&#x1ff;" horiz-adv-x="557" 
d="M61 -7l52 64q-64 64 -64 168q0 103 63.5 167.5t165.5 64.5q72 0 129 -35l31 38h58l-53 -66q65 -65 65 -169t-63.5 -168t-166.5 -64q-74 0 -130 36l-29 -36h-58zM455 225q0 78 -45 129l-231 -286q42 -27 99 -27q79 0 128 51t49 133zM102 225q0 -77 43 -128l230 286
q-41 26 -97 26q-78 0 -127 -51t-49 -133zM224 548l119 119l30 -30l-119 -119z" />
    <glyph glyph-name="Scommaaccent" unicode="&#x218;" horiz-adv-x="521" 
d="M442 628l-37 -37q-25 28 -68 46t-86 18q-67 0 -100.5 -39.5t-33.5 -90.5q0 -36 19 -62.5t49.5 -43t67.5 -31t74.5 -31t68 -36.5t49.5 -54t19 -78q0 -79 -54 -137.5t-156 -58.5q-128 0 -210 88l36 36q30 -34 76.5 -53t92.5 -19q78 0 117 45t39 98q0 40 -25.5 68.5
t-64.5 44l-83.5 34.5t-83.5 39t-64.5 58.5t-25.5 91.5q0 76 48 129.5t141 53.5q119 0 195 -79zM234 -204l-19 19q35 35 39 63q-14 2 -23.5 12t-9.5 24q0 15 10.5 25.5t26.5 10.5q15 0 25.5 -11.5t10.5 -32.5q0 -50 -60 -110z" />
    <glyph glyph-name="scommaaccent" unicode="&#x219;" horiz-adv-x="383" 
d="M316 405l-35 -34q-35 37 -94 37q-39 0 -58.5 -22.5t-19.5 -51.5t22.5 -48.5t55 -31.5t65 -25.5t55 -39.5t22.5 -64q0 -53 -37.5 -92.5t-107.5 -39.5q-87 0 -141 57l35 35q38 -44 103 -44q47 0 70 26t23 57q0 28 -22.5 46.5t-55 30.5t-65 25.5t-55 40t-22.5 66.5
q0 51 33 87.5t97 36.5q82 0 132 -52zM161 -204l-19 19q37 37 39 63q-14 2 -23 12t-9 24q0 15 10.5 25.5t26.5 10.5q15 0 25 -11.5t10 -32.5q0 -52 -60 -110z" />
    <glyph glyph-name="uni021A" unicode="&#x21a;" horiz-adv-x="557" 
d="M308 651v-651h-57v651h-207v49h471v-49h-207zM258 -204l-19 19q37 37 39 63q-14 2 -23 12t-9 24q0 15 10.5 25.5t26.5 10.5q15 0 25 -11.5t10 -32.5q0 -52 -60 -110z" />
    <glyph glyph-name="uni021B" unicode="&#x21b;" horiz-adv-x="313" 
d="M30 404v46h60v100h57v-100h131v-46h-131v-273q0 -40 24 -64.5t63 -24.5q24 0 44 11v-50q-28 -10 -53 -10q-61 0 -98 38t-37 100v273h-60zM149 -204l-19 19q37 37 39 63q-14 2 -23 12t-9 24q0 15 10.5 25.5t26.5 10.5q15 0 25 -11.5t10 -32.5q0 -52 -60 -110z" />
    <glyph glyph-name="dotlessj" unicode="&#x237;" 
d="M21 -250v37q27 0 43.5 14.5t16.5 42.5v606h55v-607q0 -45 -24 -71t-62 -26q-22 0 -29 4z" />
    <glyph glyph-name="circumflex" unicode="&#x2c6;" horiz-adv-x="352" 
d="M176 667l119 -119l-30 -30l-89 89l-89 -89l-30 30z" />
    <glyph glyph-name="caron" unicode="&#x2c7;" horiz-adv-x="352" 
d="M176 518l-119 119l30 30l89 -89l89 89l30 -30z" />
    <glyph glyph-name="breve" unicode="&#x2d8;" horiz-adv-x="353" 
d="M176 577q62 0 104 44l31 -30q-55 -57 -135 -57q-78 0 -135 57l30 31q45 -45 105 -45z" />
    <glyph glyph-name="dotaccent" unicode="&#x2d9;" 
d="M67 585q0 17 12 29t29 12t29 -12t12 -29t-12 -29t-29 -12t-29 12t-12 29z" />
    <glyph glyph-name="ring" unicode="&#x2da;" horiz-adv-x="275" 
d="M52 600q0 40 24 64.5t62 24.5q39 0 62.5 -24.5t23.5 -64.5t-23.5 -64t-62.5 -24q-38 0 -62 24t-24 64zM82 600q0 -26 15.5 -42t40.5 -16t40.5 16t15.5 42t-16 42t-40 16q-25 0 -40.5 -16t-15.5 -42z" />
    <glyph glyph-name="ogonek" unicode="&#x2db;" horiz-adv-x="256" 
d="M82 -40q0 -29 16 -45t42 -16q27 0 42 16l23 -23q-24 -25 -65 -25q-40 0 -65 25t-25 67q0 25 11 41h32q-11 -16 -11 -40z" />
    <glyph glyph-name="tilde" unicode="&#x2dc;" horiz-adv-x="332" 
d="M69 545h-35q0 37 21.5 59.5t56.5 22.5q31 0 58.5 -25.5t48.5 -25.5q20 0 32.5 13t12.5 33h35q0 -36 -22 -58.5t-58 -22.5q-31 0 -58 25t-48 25q-20 0 -32 -12.5t-12 -33.5z" />
    <glyph glyph-name="hungarumlaut" unicode="&#x2dd;" horiz-adv-x="406" 
d="M57 548l119 119l30 -30l-119 -119zM200 548l119 119l30 -30l-119 -119z" />
    <glyph glyph-name="uni0400" unicode="&#x400;" horiz-adv-x="506" 
d="M141 651v-273h274v-49h-274v-280h313v-49h-370v700h365v-49h-308zM204 890l119 -119l-30 -30l-119 119z" />
    <glyph glyph-name="afii10023" unicode="&#x401;" horiz-adv-x="506" 
d="M141 651v-273h274v-49h-274v-280h313v-49h-370v700h365v-49h-308zM136 797q0 17 11 28t28 11t28.5 -11.5t11.5 -27.5q0 -17 -11.5 -28.5t-28.5 -11.5q-16 0 -27.5 11.5t-11.5 28.5zM321 797q0 17 11.5 28t27.5 11q17 0 28.5 -11.5t11.5 -27.5q0 -17 -12 -28.5t-28 -11.5
t-27.5 11.5t-11.5 28.5z" />
    <glyph glyph-name="afii10051" unicode="&#x402;" horiz-adv-x="698" 
d="M499 0v37q27 0 43.5 14.5t16.5 42.5v153q0 58 -35 94.5t-91 36.5q-78 0 -125 -49v-329h-57v651h-207v49h471v-49h-207v-269q57 46 137 46q77 0 124 -50t47 -131v-154q0 -45 -24.5 -71t-63.5 -26q-21 0 -29 4z" />
    <glyph glyph-name="afii10052" unicode="&#x403;" horiz-adv-x="468" 
d="M196 771l119 119l30 -30l-119 -119zM84 0v700h339v-49h-282v-651h-57z" />
    <glyph glyph-name="afii10053" unicode="&#x404;" horiz-adv-x="702" 
d="M406 655q-124 0 -204 -76.5t-88 -200.5h435v-49h-435q6 -128 86 -206t206 -78q132 0 215 86l38 -36q-97 -102 -256 -102q-156 0 -252.5 99t-96.5 258t96.5 258t252.5 99q157 0 256 -102l-38 -37q-82 87 -215 87z" />
    <glyph glyph-name="afii10054" unicode="&#x405;" horiz-adv-x="521" 
d="M442 628l-37 -37q-25 28 -68 46t-86 18q-67 0 -100.5 -39.5t-33.5 -90.5q0 -36 19 -62.5t49.5 -43t67.5 -31t74.5 -31t68 -36.5t49.5 -54t19 -78q0 -79 -54 -137.5t-156 -58.5q-128 0 -210 88l36 36q30 -34 76.5 -53t92.5 -19q78 0 117 45t39 98q0 40 -25.5 68.5
t-64.5 44l-83.5 34.5t-83.5 39t-64.5 58.5t-25.5 91.5q0 76 48 129.5t141 53.5q119 0 195 -79z" />
    <glyph glyph-name="afii10055" unicode="&#x406;" horiz-adv-x="218" 
d="M81 0v700h56v-700h-56z" />
    <glyph glyph-name="afii10056" unicode="&#x407;" horiz-adv-x="218" 
d="M81 0v700h56v-700h-56zM-6 797q0 17 11 28t28 11t28.5 -11.5t11.5 -27.5q0 -17 -11.5 -28.5t-28.5 -11.5q-16 0 -27.5 11.5t-11.5 28.5zM145 797q0 16 11.5 27.5t28.5 11.5t28 -11t11 -28t-11.5 -28.5t-27.5 -11.5q-17 0 -28.5 11.5t-11.5 28.5z" />
    <glyph glyph-name="afii10057" unicode="&#x408;" horiz-adv-x="454" 
d="M316 186v514h57v-514q0 -86 -53 -139.5t-138 -53.5t-138 55l37 38q38 -41 99 -41t98.5 39.5t37.5 101.5z" />
    <glyph glyph-name="afii10058" unicode="&#x409;" horiz-adv-x="939" 
d="M499 0v651h-280v-487q0 -78 -38.5 -123t-96.5 -45q-32 0 -43 4v37q55 0 87 31t32 91v541h398v-317h132q88 0 142 -52.5t54 -138.5q0 -87 -54 -139.5t-142 -52.5h-191zM827 192q0 63 -37.5 101.5t-99.5 38.5h-132v-282h132q62 0 99.5 39t37.5 103z" />
    <glyph glyph-name="afii10059" unicode="&#x40a;" horiz-adv-x="933" 
d="M141 700v-317h351v317h59v-317h132q88 0 142 -52.5t54 -138.5q0 -87 -54 -139.5t-142 -52.5h-191v332h-351v-332h-57v700h57zM821 192q0 63 -38 101.5t-100 38.5h-132v-282h132q62 0 100 39t38 103z" />
    <glyph glyph-name="afii10060" unicode="&#x40b;" horiz-adv-x="698" 
d="M308 651v-269q57 46 137 46q77 0 124 -50t47 -131v-247h-57v247q0 58 -35 94.5t-91 36.5q-78 0 -125 -49v-329h-57v651h-207v49h471v-49h-207z" />
    <glyph glyph-name="afii10061" unicode="&#x40c;" horiz-adv-x="585" 
d="M81 0v700h56v-700h-56zM476 0l-321 359l300 341h72l-301 -341l322 -359h-72zM238 771l119 119l30 -30l-119 -119z" />
    <glyph glyph-name="uni040D" unicode="&#x40d;" horiz-adv-x="710" 
d="M291 890l119 -119l-30 -30l-119 119zM586 700h40v-700h-56v594l-445 -594h-41v700h57v-594z" />
    <glyph glyph-name="afii10062" unicode="&#x40e;" horiz-adv-x="609" 
d="M305 800q61 0 104 45l31 -31q-55 -57 -135 -57q-79 0 -135 58l30 30q45 -45 105 -45zM577 700l-356 -700h-62l118 220l-245 480h62l211 -414l211 414h61z" />
    <glyph glyph-name="afii10145" unicode="&#x40f;" horiz-adv-x="700" 
d="M324 0h-240v700h57v-651h419v651h56v-700h-239v-150h-53v150z" />
    <glyph glyph-name="afii10017" unicode="&#x410;" horiz-adv-x="744" 
d="M645 0l-96 218h-355l-95 -218h-65l310 700h55l311 -700h-65zM372 629l-156 -359h311z" />
    <glyph glyph-name="afii10018" unicode="&#x411;" horiz-adv-x="534" 
d="M84 0v700h344v-49h-286v-268h143q88 0 142 -52.5t54 -138.5q0 -87 -54 -139.5t-142 -52.5h-201zM422 192q0 63 -37.5 101.5t-99.5 38.5h-143v-282h143q62 0 99.5 39t37.5 103z" />
    <glyph glyph-name="afii10019" unicode="&#x412;" horiz-adv-x="541" 
d="M84 0v700h181q82 0 132 -49t50 -130q0 -109 -87 -153q58 -17 91.5 -64t33.5 -114q0 -86 -53 -138t-140 -52h-208zM429 194q0 64 -38.5 103t-100.5 39h-148v-286h148q62 0 100.5 39.5t38.5 104.5zM390 518q0 59 -35 95.5t-93 36.5h-120v-264h120q58 0 93 36.5t35 95.5z
" />
    <glyph glyph-name="afii10020" unicode="&#x413;" horiz-adv-x="468" 
d="M84 0v700h339v-49h-282v-651h-57z" />
    <glyph glyph-name="afii10021" unicode="&#x414;" horiz-adv-x="676" 
d="M582 0h-488v-150h-54v197q55 0 86 38.5t31 116.5v498h407v-651h72v-199h-54v150zM216 202q0 -108 -59 -153h349v602h-290v-449z" />
    <glyph glyph-name="afii10022" unicode="&#x415;" horiz-adv-x="506" 
d="M141 651v-273h274v-49h-274v-280h313v-49h-370v700h365v-49h-308z" />
    <glyph glyph-name="afii10024" unicode="&#x416;" horiz-adv-x="889" 
d="M416 0v700h57v-700h-57zM784 0l-294 359l279 341h66l-278 -341l295 -359h-68zM398 359l-294 -359h-67l295 359l-279 341h67z" />
    <glyph glyph-name="afii10025" unicode="&#x417;" horiz-adv-x="541" 
d="M183 336v50h79q59 0 95 36t36 100q0 62 -34 98t-98 36q-92 0 -171 -79l-36 36q94 94 210 94q89 0 137.5 -50t48.5 -131q0 -114 -90 -158q57 -17 91 -64t34 -115q0 -90 -58.5 -143t-158.5 -53q-128 0 -224 102l37 36q81 -87 184 -87q77 0 120.5 40.5t43.5 108.5
q0 64 -38.5 103.5t-100.5 39.5h-107z" />
    <glyph glyph-name="afii10026" unicode="&#x418;" horiz-adv-x="710" 
d="M586 700h40v-700h-56v594l-445 -594h-41v700h57v-594z" />
    <glyph glyph-name="afii10027" unicode="&#x419;" horiz-adv-x="710" 
d="M355 800q60 0 105 45l30 -31q-55 -57 -135 -57q-79 0 -135 58l31 30q43 -45 104 -45zM586 700h40v-700h-56v594l-445 -594h-41v700h57v-594z" />
    <glyph glyph-name="afii10028" unicode="&#x41a;" horiz-adv-x="585" 
d="M81 0v700h56v-700h-56zM476 0l-321 359l300 341h72l-301 -341l322 -359h-72z" />
    <glyph glyph-name="afii10029" unicode="&#x41b;" horiz-adv-x="658" 
d="M41 0v37q55 0 87 31t32 91v541h414v-700h-58v651h-297v-487q0 -78 -38.5 -123t-96.5 -45q-32 0 -43 4z" />
    <glyph glyph-name="afii10030" unicode="&#x41c;" horiz-adv-x="814" 
d="M674 0v582l-252 -415h-30l-251 415v-582h-57v700h44l279 -456l279 456h44v-700h-56z" />
    <glyph glyph-name="afii10031" unicode="&#x41d;" horiz-adv-x="694" 
d="M141 700v-322h412v322h57v-700h-57v329h-412v-329h-57v700h57z" />
    <glyph glyph-name="afii10032" unicode="&#x41e;" horiz-adv-x="807" 
d="M54 350q0 159 96.5 258t252.5 99q157 0 253.5 -99t96.5 -258t-96.5 -258t-253.5 -99q-156 0 -252.5 99t-96.5 258zM112 350q0 -136 81 -220.5t210 -84.5q130 0 211 84.5t81 220.5t-81 220.5t-211 84.5q-129 0 -210 -84.5t-81 -220.5z" />
    <glyph glyph-name="afii10033" unicode="&#x41f;" horiz-adv-x="667" 
d="M84 700h499v-700h-57v651h-385v-651h-57v700z" />
    <glyph glyph-name="afii10034" unicode="&#x420;" horiz-adv-x="514" 
d="M84 0v700h181q88 0 142 -52.5t54 -139.5q0 -86 -54 -138.5t-142 -52.5h-123v-317h-58zM402 508q0 64 -37.5 103t-99.5 39h-123v-282h123q62 0 99.5 38.5t37.5 101.5z" />
    <glyph glyph-name="afii10035" unicode="&#x421;" horiz-adv-x="702" 
d="M112 350q0 -136 81.5 -220.5t212.5 -84.5q132 0 215 86l38 -36q-97 -102 -256 -102q-156 0 -252.5 99t-96.5 258t96.5 258t252.5 99q157 0 256 -102l-38 -37q-82 87 -215 87q-131 0 -212.5 -84.5t-81.5 -220.5z" />
    <glyph glyph-name="afii10036" unicode="&#x422;" horiz-adv-x="557" 
d="M308 651v-651h-57v651h-207v49h471v-49h-207z" />
    <glyph glyph-name="afii10037" unicode="&#x423;" horiz-adv-x="609" 
d="M577 700l-356 -700h-62l118 220l-245 480h62l211 -414l211 414h61z" />
    <glyph glyph-name="afii10038" unicode="&#x424;" horiz-adv-x="754" 
d="M348 0v68q-131 0 -212.5 78.5t-81.5 203.5t81.5 203.5t212.5 78.5v68h57v-68q132 0 213.5 -78.5t81.5 -203.5t-81.5 -203.5t-213.5 -78.5v-68h-57zM405 580v-460q106 0 171.5 64t65.5 166t-65.5 166t-171.5 64zM348 120v460q-105 0 -170.5 -64t-65.5 -166t65.5 -166
t170.5 -64z" />
    <glyph glyph-name="afii10039" unicode="&#x425;" horiz-adv-x="714" 
d="M604 0l-247 315l-247 -315h-73l279 354l-273 346h73l241 -306l240 306h73l-273 -346l280 -354h-73z" />
    <glyph glyph-name="afii10040" unicode="&#x426;" horiz-adv-x="727" 
d="M633 0h-549v700h57v-651h419v651h56v-651h70v-199h-53v150z" />
    <glyph glyph-name="afii10041" unicode="&#x427;" horiz-adv-x="579" 
d="M495 0h-55v323q-66 -21 -153 -21q-98 0 -150.5 54t-52.5 156v188h55v-186q0 -165 157 -165q87 0 144 22v329h55v-700z" />
    <glyph glyph-name="afii10042" unicode="&#x428;" horiz-adv-x="1026" 
d="M942 0h-858v700h57v-651h344v651h56v-651h344v651h57v-700z" />
    <glyph glyph-name="afii10043" unicode="&#x429;" horiz-adv-x="1052" 
d="M958 0h-874v700h57v-651h344v651h56v-651h344v651h57v-651h70v-199h-54v150z" />
    <glyph glyph-name="afii10044" unicode="&#x42a;" horiz-adv-x="641" 
d="M44 651v49h215v-317h132q88 0 142 -52.5t54 -138.5q0 -87 -54 -139.5t-142 -52.5h-191v651h-156zM529 192q0 63 -38 101.5t-100 38.5h-132v-282h132q62 0 100 39t38 103z" />
    <glyph glyph-name="afii10045" unicode="&#x42b;" horiz-adv-x="720" 
d="M84 0v700h58v-317h133q88 0 142 -52.5t54 -138.5q0 -87 -54 -139.5t-142 -52.5h-191zM412 192q0 63 -37.5 101.5t-99.5 38.5h-133v-282h133q62 0 99.5 39t37.5 103zM580 0v700h56v-700h-56z" />
    <glyph glyph-name="afii10046" unicode="&#x42c;" horiz-adv-x="524" 
d="M84 0v700h58v-317h133q88 0 142 -52.5t54 -138.5q0 -87 -54 -139.5t-142 -52.5h-191zM412 192q0 63 -37.5 101.5t-99.5 38.5h-133v-282h133q62 0 99.5 39t37.5 103z" />
    <glyph glyph-name="afii10047" unicode="&#x42d;" horiz-adv-x="702" 
d="M81 568l-37 37q97 102 255 102q156 0 253 -99t97 -258t-97 -258t-253 -99q-159 0 -255 102l37 36q83 -86 216 -86q125 0 205.5 78t86.5 206h-368v49h368q-8 124 -88.5 200.5t-203.5 76.5q-132 0 -216 -87z" />
    <glyph glyph-name="afii10048" unicode="&#x42e;" horiz-adv-x="1029" 
d="M141 700v-322h200q8 148 95 238.5t222 90.5q142 0 230 -99t88 -258t-88 -258t-230 -99q-137 0 -223.5 92.5t-93.5 243.5h-200v-329h-57v700h57zM399 350q0 -136 72 -220.5t187 -84.5t187 84.5t72 220.5t-72 220.5t-187 84.5t-187 -84.5t-72 -220.5z" />
    <glyph glyph-name="afii10049" unicode="&#x42f;" horiz-adv-x="541" 
d="M457 700v-700h-58v317h-121l-171 -317h-65l179 318q-76 9 -121.5 60t-45.5 130q0 87 53.5 139.5t141.5 52.5h208zM112 508q0 -63 37.5 -101.5t99.5 -38.5h150v282h-150q-62 0 -99.5 -39t-37.5 -103z" />
    <glyph glyph-name="afii10065" unicode="&#x430;" horiz-adv-x="449" 
d="M402 37v-37q-7 -4 -25 -4q-52 0 -67 48q-54 -51 -131 -51q-64 0 -96 36t-32 85q0 67 61.5 105.5t157.5 38.5q23 0 35 -3v64q0 36 -25 63t-74 27q-67 0 -102 -37l-32 31q54 54 138 54q73 0 112 -40.5t39 -97.5v-242q0 -40 41 -40zM194 41q67 0 111 47v127q-11 3 -32 3
q-74 0 -120.5 -27t-46.5 -72q0 -30 20.5 -54t67.5 -24z" />
    <glyph glyph-name="afii10066" unicode="&#x431;" horiz-adv-x="567" 
d="M439 755l32 -33q-24 -29 -58 -50t-65.5 -33l-65.5 -25t-62 -31.5t-51 -46.5t-37 -76.5t-16 -114.5h5q52 112 174 112q96 0 159.5 -65t63.5 -169q0 -103 -64 -166.5t-173 -63.5q-49 0 -86.5 14.5t-69.5 48t-49 96.5t-17 153q0 85 16 148.5t43 101t60 62.5t71 39.5
l72.5 26.5t66.5 30t51 42zM125 224q0 -80 41.5 -130t119.5 -50t126.5 50t48.5 132q0 80 -48 130t-125 50q-76 0 -119.5 -49t-43.5 -133z" />
    <glyph glyph-name="afii10067" unicode="&#x432;" horiz-adv-x="440" 
d="M81 0v450h154q56 0 89.5 -31.5t33.5 -82.5q0 -66 -55 -98q81 -27 81 -114q0 -56 -36 -90t-97 -34h-170zM243 214h-107v-170h107q39 0 62.5 23.5t23.5 61.5t-23.5 61.5t-62.5 23.5zM136 255h92q34 0 55 21t21 55q0 33 -21 54t-55 21h-92v-151z" />
    <glyph glyph-name="afii10068" unicode="&#x433;" horiz-adv-x="368" 
d="M136 404v-404h-55v450h244v-46h-189z" />
    <glyph glyph-name="afii10069" unicode="&#x434;" horiz-adv-x="530" 
d="M484 46v-166h-52v120h-339v-120h-52v166q39 0 64.5 29.5t25.5 76.5v298h295v-404h58zM186 156q0 -69 -46 -110h231v358h-185v-248z" />
    <glyph glyph-name="afii10070" unicode="&#x435;" horiz-adv-x="511" 
d="M464 212h-357q3 -76 50.5 -122t124.5 -46q81 0 129 51l35 -35q-65 -67 -168 -67q-102 0 -165.5 64.5t-63.5 169.5q0 102 58.5 166t152.5 64q95 0 149.5 -66t54.5 -179zM262 407q-64 0 -106.5 -41.5t-48.5 -111.5h301q-7 71 -45.5 112t-100.5 41z" />
    <glyph glyph-name="afii10072" unicode="&#x436;" horiz-adv-x="647" 
d="M296 0v450h55v-450h-55zM545 0l-191 236l175 214h64l-176 -214l192 -236h-64zM37 0l192 236l-176 214h65l174 -214l-191 -236h-64z" />
    <glyph glyph-name="afii10073" unicode="&#x437;" horiz-adv-x="406" 
d="M189 457q64 0 102 -32.5t38 -85.5q0 -72 -59 -103q81 -26 81 -115q0 -58 -41 -93t-114 -35q-92 0 -157 67l32 33q49 -52 120 -52q49 0 77 24t28 63q0 38 -23.5 61t-63.5 23h-69v41h52q37 0 60 22t23 56q0 33 -24 55.5t-66 22.5q-63 0 -106 -45l-32 32q59 61 142 61z" />
    <glyph glyph-name="afii10074" unicode="&#x438;" horiz-adv-x="537" 
d="M136 450v-361l275 361h45v-450h-55v361l-275 -361h-45v450h55z" />
    <glyph glyph-name="afii10075" unicode="&#x439;" horiz-adv-x="537" 
d="M268 577q61 0 105 44l30 -30q-55 -57 -135 -57q-78 0 -135 57l31 31q43 -45 104 -45zM136 450v-361l275 361h45v-450h-55v361l-275 -361h-45v450h55z" />
    <glyph glyph-name="afii10076" unicode="&#x43a;" horiz-adv-x="456" 
d="M136 0h-55v450h55v-450zM352 0l-214 236l198 214h67l-200 -214l216 -236h-67z" />
    <glyph glyph-name="afii10077" unicode="&#x43b;" horiz-adv-x="498" 
d="M41 0v37q40 0 63 22.5t23 66.5v324h291v-450h-56v404h-180v-280q0 -60 -29.5 -94t-76.5 -34q-26 0 -35 4z" />
    <glyph glyph-name="afii10078" unicode="&#x43c;" horiz-adv-x="599" 
d="M81 0v450h53l166 -291l166 291h53v-450h-52v360l-150 -266h-35l-149 266v-360h-52z" />
    <glyph glyph-name="afii10079" unicode="&#x43d;" horiz-adv-x="530" 
d="M136 450v-199h258v199h56v-450h-56v206h-258v-206h-55v450h55z" />
    <glyph glyph-name="afii10080" unicode="&#x43e;" horiz-adv-x="557" 
d="M49 225q0 103 63.5 167.5t165.5 64.5q103 0 166.5 -64t63.5 -168t-63.5 -168t-166.5 -64q-102 0 -165.5 64.5t-63.5 167.5zM105 225q0 -81 48 -131t125 -50t125 50t48 131t-48 131t-125 50t-125 -50t-48 -131z" />
    <glyph glyph-name="afii10081" unicode="&#x43f;" horiz-adv-x="517" 
d="M381 0v404h-245v-404h-55v450h355v-450h-55z" />
    <glyph glyph-name="afii10082" unicode="&#x440;" horiz-adv-x="541" 
d="M81 450h55v-40q56 47 138 47q98 0 158.5 -64.5t60.5 -167.5t-63 -167.5t-164 -64.5q-77 0 -130 38v-281h-55v700zM436 225q0 81 -48.5 131t-125.5 50q-76 0 -126 -48v-267q49 -47 126 -47t125.5 50t48.5 131z" />
    <glyph glyph-name="afii10083" unicode="&#x441;" horiz-adv-x="482" 
d="M105 225q0 -81 48.5 -131t126.5 -50q80 0 128 51l35 -35q-64 -67 -166 -67t-165 64t-63 168t63 168t165 64q103 0 166 -68l-35 -34q-48 51 -128 51q-78 0 -126.5 -50t-48.5 -131z" />
    <glyph glyph-name="afii10084" unicode="&#x442;" horiz-adv-x="432" 
d="M244 404v-404h-55v404h-145v46h346v-46h-146z" />
    <glyph glyph-name="afii10085" unicode="&#x443;" horiz-adv-x="529" 
d="M497 450l-323 -700h-61l125 250l-206 450h62l171 -384l171 384h61z" />
    <glyph glyph-name="afii10086" unicode="&#x444;" horiz-adv-x="666" 
d="M387 -5q-11 0 -27 2v-247h-55v247q-18 -2 -27 -2q-102 0 -165.5 63.5t-63.5 166.5t63.5 166.5t165.5 63.5q9 0 27 -2v297h55v-297q16 2 27 2q103 0 166.5 -63.5t63.5 -166.5t-63.5 -166.5t-166.5 -63.5zM387 406q-11 0 -27 -2v-359q8 -1 27 -1q77 0 125 50t48 131
t-48 131t-125 50zM105 225q0 -81 48 -131t125 -50q18 0 27 1v359q-18 2 -27 2q-77 0 -125 -50t-48 -131z" />
    <glyph glyph-name="afii10087" unicode="&#x445;" horiz-adv-x="507" 
d="M405 0l-152 193l-151 -193h-65l180 229l-174 221h65l145 -185l145 185h65l-174 -221l181 -229h-65z" />
    <glyph glyph-name="afii10088" unicode="&#x446;" horiz-adv-x="533" 
d="M81 0v450h55v-404h245v404h55v-404h53v-166h-52v120h-356z" />
    <glyph glyph-name="afii10089" unicode="&#x447;" horiz-adv-x="474" 
d="M394 0h-56v193q-47 -18 -107 -18q-73 0 -113.5 42t-40.5 112v121h55v-120q0 -46 27.5 -76.5t82.5 -30.5q59 0 96 20v207h56v-450z" />
    <glyph glyph-name="afii10090" unicode="&#x448;" horiz-adv-x="710" 
d="M574 46v404h55v-450h-548v450h55v-404h191v404h56v-404h191z" />
    <glyph glyph-name="afii10091" unicode="&#x449;" horiz-adv-x="726" 
d="M81 0v450h55v-404h191v404h56v-404h191v404h55v-404h54v-166h-52v120h-550z" />
    <glyph glyph-name="afii10092" unicode="&#x44a;" horiz-adv-x="508" 
d="M320 0h-155v404h-121v46h177v-197h99q64 0 100.5 -35t36.5 -92q0 -56 -36.5 -91t-100.5 -35zM319 209h-98v-165h98q37 0 60 23t23 59q0 38 -23 60.5t-60 22.5z" />
    <glyph glyph-name="afii10093" unicode="&#x44b;" horiz-adv-x="591" 
d="M81 0v450h55v-197h100q63 0 99.5 -35t36.5 -92q0 -56 -36.5 -91t-99.5 -35h-155zM234 209h-98v-165h98q37 0 60 23t23 59q0 38 -22.5 60.5t-60.5 22.5zM455 0v450h55v-450h-55z" />
    <glyph glyph-name="afii10094" unicode="&#x44c;" horiz-adv-x="423" 
d="M81 0v450h55v-197h100q63 0 99.5 -35t36.5 -92q0 -56 -36.5 -91t-99.5 -35h-155zM234 209h-98v-165h98q37 0 60 23t23 59q0 38 -22.5 60.5t-60.5 22.5z" />
    <glyph glyph-name="afii10095" unicode="&#x44d;" horiz-adv-x="482" 
d="M158 207v43h218q-8 71 -55.5 113.5t-118.5 42.5q-80 0 -128 -51l-35 35q64 67 166 67t165 -64t63 -168t-63 -168t-165 -64t-166 67l35 35q48 -51 128 -51q73 0 121 44.5t53 118.5h-218z" />
    <glyph glyph-name="afii10096" unicode="&#x44e;" horiz-adv-x="744" 
d="M136 450v-199h125q8 93 67 149.5t150 56.5q97 0 157.5 -64t60.5 -168t-60.5 -168t-157.5 -64q-93 0 -152.5 58.5t-65.5 154.5h-124v-206h-55v450h55zM317 225q0 -81 44.5 -131t116.5 -50t116.5 50t44.5 131t-44.5 131t-116.5 50t-116.5 -50t-44.5 -131z" />
    <glyph glyph-name="afii10097" unicode="&#x44f;" horiz-adv-x="459" 
d="M379 450v-450h-55v192h-92l-112 -192h-59l118 194q-51 8 -79.5 42t-28.5 85q0 58 37.5 93.5t102.5 35.5h168zM212 236h112v170h-112q-38 0 -62 -23.5t-24 -61.5t24 -61.5t62 -23.5z" />
    <glyph glyph-name="uni0450" unicode="&#x450;" horiz-adv-x="511" 
d="M464 212h-357q3 -76 50.5 -122t124.5 -46q81 0 129 51l35 -35q-65 -67 -168 -67q-102 0 -165.5 64.5t-63.5 169.5q0 102 58.5 166t152.5 64q95 0 149.5 -66t54.5 -179zM262 407q-64 0 -106.5 -41.5t-48.5 -111.5h301q-7 71 -45.5 112t-100.5 41zM197 667l119 -119
l-30 -30l-119 119z" />
    <glyph glyph-name="afii10071" unicode="&#x451;" horiz-adv-x="511" 
d="M464 212h-357q3 -76 50.5 -122t124.5 -46q81 0 129 51l35 -35q-65 -67 -168 -67q-102 0 -165.5 64.5t-63.5 169.5q0 102 58.5 166t152.5 64q95 0 149.5 -66t54.5 -179zM262 407q-64 0 -106.5 -41.5t-48.5 -111.5h301q-7 71 -45.5 112t-100.5 41zM129 552q0 16 11.5 27.5
t28.5 11.5t28 -11.5t11 -27.5q0 -17 -11.5 -28.5t-27.5 -11.5q-17 0 -28.5 12t-11.5 28zM314 552q0 16 11.5 27.5t28.5 11.5q16 0 27.5 -11.5t11.5 -27.5q0 -17 -11.5 -28.5t-27.5 -11.5t-28 12t-12 28z" />
    <glyph glyph-name="afii10099" unicode="&#x452;" horiz-adv-x="536" 
d="M337 -250v37q27 0 43.5 14.5t16.5 42.5v431q0 58 -35 94.5t-91 36.5q-79 0 -126 -49v-357h-55v604h-60v46h60v100h55v-100h183v-46h-183v-195q59 48 137 48q76 0 123 -50.5t47 -131.5v-432q0 -45 -24 -71t-62 -26q-21 0 -29 4z" />
    <glyph glyph-name="afii10100" unicode="&#x453;" horiz-adv-x="368" 
d="M146 548l119 119l30 -30l-119 -119zM136 404v-404h-55v450h244v-46h-189z" />
    <glyph glyph-name="afii10101" unicode="&#x454;" horiz-adv-x="482" 
d="M280 406q-72 0 -119 -42.5t-55 -113.5h254v-43h-255q6 -74 54 -118.5t121 -44.5q80 0 128 51l35 -35q-64 -67 -166 -67t-165 64t-63 168t63 168t165 64q103 0 166 -68l-35 -34q-48 51 -128 51z" />
    <glyph glyph-name="afii10102" unicode="&#x455;" horiz-adv-x="383" 
d="M316 405l-35 -34q-35 37 -94 37q-39 0 -58.5 -22.5t-19.5 -51.5t22.5 -48.5t55 -31.5t65 -25.5t55 -39.5t22.5 -64q0 -53 -37.5 -92.5t-107.5 -39.5q-87 0 -141 57l35 35q38 -44 103 -44q47 0 70 26t23 57q0 28 -22.5 46.5t-55 30.5t-65 25.5t-55 40t-22.5 66.5
q0 51 33 87.5t97 36.5q82 0 132 -52z" />
    <glyph glyph-name="afii10103" unicode="&#x456;" 
d="M81 0v450h55v-450h-55zM67 585q0 17 12 29t29 12t29 -12t12 -29t-12 -29t-29 -12t-29 12t-12 29z" />
    <glyph glyph-name="afii10104" unicode="&#x457;" 
d="M81 0v450h55v-450h-55zM-4 558q0 16 12 28t28 12t27.5 -11.5t11.5 -28.5q0 -16 -11.5 -27.5t-27.5 -11.5q-17 0 -28.5 11.5t-11.5 27.5zM141 558q0 17 11 28.5t28 11.5t28.5 -11.5t11.5 -28.5t-11.5 -28t-28.5 -11q-16 0 -27.5 11.5t-11.5 27.5z" />
    <glyph glyph-name="afii10105" unicode="&#x458;" 
d="M67 585q0 17 12 29t29 12t29 -12t12 -29t-12 -29t-29 -12t-29 12t-12 29zM21 -250v37q27 0 43.5 14.5t16.5 42.5v606h55v-607q0 -45 -24 -71t-62 -26q-22 0 -29 4z" />
    <glyph glyph-name="afii10106" unicode="&#x459;" horiz-adv-x="698" 
d="M362 0v404h-180v-280q0 -60 -29.5 -94t-76.5 -34q-26 0 -35 4v37q40 0 63 22.5t23 66.5v324h291v-197h99q64 0 100.5 -35t36.5 -92q0 -56 -36.5 -91t-100.5 -35h-155zM516 209h-98v-165h98q37 0 60 23t23 59q0 38 -22.5 60.5t-60.5 22.5z" />
    <glyph glyph-name="afii10107" unicode="&#x45a;" horiz-adv-x="726" 
d="M136 450v-199h252v199h55v-199h106q61 0 96.5 -34.5t35.5 -91.5q0 -56 -35.5 -90.5t-96.5 -34.5h-161v206h-252v-206h-55v450h55zM547 206h-104v-162h104q35 0 57 22.5t22 58.5t-22 58.5t-57 22.5z" />
    <glyph glyph-name="afii10108" unicode="&#x45b;" horiz-adv-x="536" 
d="M30 604v46h60v100h55v-100h183v-46h-183v-195q59 48 137 48q76 0 123 -50.5t47 -131.5v-275h-55v275q0 58 -35 94.5t-91 36.5q-79 0 -126 -49v-357h-55v604h-60z" />
    <glyph glyph-name="afii10109" unicode="&#x45c;" horiz-adv-x="456" 
d="M174 548l118 119l30 -30l-118 -119zM136 0h-55v450h55v-450zM352 0l-214 236l198 214h67l-200 -214l216 -236h-67z" />
    <glyph glyph-name="uni045D" unicode="&#x45d;" horiz-adv-x="537" 
d="M204 667l119 -119l-30 -30l-119 119zM136 450v-361l275 361h45v-450h-55v361l-275 -361h-45v450h55z" />
    <glyph glyph-name="afii10110" unicode="&#x45e;" horiz-adv-x="529" 
d="M497 450l-323 -700h-61l125 250l-206 450h62l171 -384l171 384h61zM265 577q62 0 104 44l31 -30q-55 -57 -135 -57q-78 0 -135 57l30 31q45 -45 105 -45z" />
    <glyph glyph-name="afii10193" unicode="&#x45f;" horiz-adv-x="517" 
d="M232 -120v120h-151v450h55v-404h245v404h55v-450h-152v-120h-52z" />
    <glyph glyph-name="afii10050" unicode="&#x490;" horiz-adv-x="467" 
d="M141 651v-651h-57v700h280v125h46v-174h-269z" />
    <glyph glyph-name="afii10098" unicode="&#x491;" horiz-adv-x="365" 
d="M136 404v-404h-55v450h188v100h46v-146h-179z" />
    <glyph glyph-name="uni04D8" unicode="&#x4d8;" horiz-adv-x="750" 
d="M697 350q0 -159 -89.5 -258t-232.5 -99t-232 99t-89 258v23h583q-8 126 -88 204t-204 78q-133 0 -216 -86l-37 36q96 102 255 102q157 0 253.5 -99t96.5 -258zM375 45q112 0 183.5 77t77.5 202h-522q6 -125 77.5 -202t183.5 -77z" />
    <glyph glyph-name="afii10846" unicode="&#x4d9;" horiz-adv-x="511" 
d="M49 238h356q-3 75 -50.5 121.5t-123.5 46.5q-82 0 -130 -51l-34 35q64 67 167 67t166.5 -64.5t63.5 -169.5q0 -102 -59 -166t-153 -64q-95 0 -149 66t-54 179zM250 43q64 0 106.5 41.5t48.5 111.5h-301q7 -71 45.5 -112t100.5 -41z" />
    <glyph glyph-name="Wgrave" unicode="&#x1e80;" horiz-adv-x="1146" 
d="M1112 700l-266 -700h-59l-214 604l-214 -604h-59l-266 700h65l230 -615l214 615h60l214 -615l230 615h65zM508 890l119 -119l-30 -30l-119 119z" />
    <glyph glyph-name="wgrave" unicode="&#x1e81;" horiz-adv-x="794" 
d="M762 450l-176 -450h-58l-131 374l-131 -374h-58l-176 450h63l142 -384l132 384h56l132 -384l142 384h63zM333 667l118 -119l-30 -30l-118 119z" />
    <glyph glyph-name="Wacute" unicode="&#x1e82;" horiz-adv-x="1146" 
d="M1112 700l-266 -700h-59l-214 604l-214 -604h-59l-266 700h65l230 -615l214 615h60l214 -615l230 615h65zM518 771l119 119l30 -30l-119 -119z" />
    <glyph glyph-name="wacute" unicode="&#x1e83;" horiz-adv-x="794" 
d="M762 450l-176 -450h-58l-131 374l-131 -374h-58l-176 450h63l142 -384l132 384h56l132 -384l142 384h63zM343 548l118 119l30 -30l-118 -119z" />
    <glyph glyph-name="Wdieresis" unicode="&#x1e84;" horiz-adv-x="1146" 
d="M1112 700l-266 -700h-59l-214 604l-214 -604h-59l-266 700h65l230 -615l214 615h60l214 -615l230 615h65zM441 797q0 17 11.5 28t27.5 11q17 0 28.5 -11.5t11.5 -27.5q0 -17 -12 -28.5t-28 -11.5t-27.5 11.5t-11.5 28.5zM626 797q0 17 11 28t28 11t28.5 -11.5t11.5 -27.5
q0 -17 -11.5 -28.5t-28.5 -11.5q-16 0 -27.5 11.5t-11.5 28.5z" />
    <glyph glyph-name="wdieresis" unicode="&#x1e85;" horiz-adv-x="794" 
d="M762 450l-176 -450h-58l-131 374l-131 -374h-58l-176 450h63l142 -384l132 384h56l132 -384l142 384h63zM265 573q0 17 11.5 28.5t28.5 11.5q16 0 27.5 -11.5t11.5 -28.5t-11 -28t-28 -11t-28.5 11.5t-11.5 27.5zM450 573q0 17 11 28.5t28 11.5t28.5 -11.5t11.5 -28.5
t-11.5 -28t-28.5 -11t-28 11t-11 28z" />
    <glyph glyph-name="Ygrave" unicode="&#x1ef2;" horiz-adv-x="661" 
d="M302 0v309l-268 391h66l230 -335l230 335h67l-268 -392v-308h-57zM266 890l119 -119l-30 -30l-119 119z" />
    <glyph glyph-name="ygrave" unicode="&#x1ef3;" horiz-adv-x="529" 
d="M497 450l-323 -700h-61l125 250l-206 450h62l171 -384l171 384h61zM200 667l119 -119l-30 -30l-119 119z" />
    <glyph glyph-name="figuredash" unicode="&#x2012;" horiz-adv-x="500" 
d="M67 327v46h366v-46h-366z" />
    <glyph glyph-name="endash" unicode="&#x2013;" horiz-adv-x="500" 
d="M67 240v46h366v-46h-366z" />
    <glyph glyph-name="emdash" unicode="&#x2014;" horiz-adv-x="700" 
d="M67 240v46h566v-46h-566z" />
    <glyph glyph-name="quoteleft" unicode="&#x2018;" 
d="M135 707l22 -22q-39 -39 -43 -69q15 -2 25.5 -13t10.5 -27q0 -17 -12 -29t-30 -12q-17 0 -28.5 12.5t-11.5 36.5q0 56 67 123z" />
    <glyph glyph-name="quoteright" unicode="&#x2019;" 
d="M82 535l-22 22q39 39 43 68q-15 2 -25.5 13.5t-10.5 27.5q0 17 12 29t30 12q17 0 28.5 -12.5t11.5 -36.5q0 -56 -67 -123z" />
    <glyph glyph-name="quotesinglbase" unicode="&#x201a;" 
d="M82 -96l-22 21q39 41 43 69q-15 2 -25.5 13.5t-10.5 26.5q0 17 12 29t30 12q17 0 28.5 -12t11.5 -37q0 -57 -67 -122z" />
    <glyph glyph-name="quotedblleft" unicode="&#x201c;" horiz-adv-x="339" 
d="M257 723l22 -22q-38 -38 -43 -69q15 -2 25.5 -13t10.5 -27q0 -17 -12 -29t-29 -12t-29 12.5t-12 36.5q0 56 67 123zM135 723l22 -22q-39 -39 -43 -69q15 -2 25.5 -13t10.5 -27q0 -17 -12 -29t-30 -12q-17 0 -28.5 12.5t-11.5 36.5q0 56 67 123z" />
    <glyph glyph-name="quotedblright" unicode="&#x201d;" horiz-adv-x="339" 
d="M82 551l-22 22q39 39 43 68q-15 2 -25.5 13.5t-10.5 27.5q0 17 12 29t30 12q17 0 28.5 -12.5t11.5 -36.5q0 -56 -67 -123zM204 551l-21 22q38 38 43 68q-16 2 -26 13.5t-10 27.5q0 17 12 29t29 12t29 -12.5t12 -36.5q0 -55 -68 -123z" />
    <glyph glyph-name="quotedblbase" unicode="&#x201e;" horiz-adv-x="339" 
d="M82 -96l-22 21q39 41 43 69q-15 2 -25.5 13.5t-10.5 26.5q0 17 12 29t30 12q17 0 28.5 -12t11.5 -37q0 -57 -67 -122zM204 -96l-21 21q38 40 43 69q-16 2 -26 13t-10 27q0 17 12 29t29 12t29 -12t12 -37q0 -56 -68 -122z" />
    <glyph glyph-name="dagger" unicode="&#x2020;" horiz-adv-x="500" 
d="M67 404v46h155v300h56v-300h155v-46h-155v-654h-56v654h-155z" />
    <glyph glyph-name="daggerdbl" unicode="&#x2021;" horiz-adv-x="500" 
d="M67 70v46h155v288h-155v46h155v300h56v-300h155v-46h-155v-288h155v-46h-155v-320h-56v320h-155z" />
    <glyph glyph-name="bullet" unicode="&#x2022;" horiz-adv-x="259" 
d="M66 275q0 27 18.5 45.5t45.5 18.5t45.5 -18.5t18.5 -45.5t-18.5 -45.5t-45.5 -18.5t-45.5 18.5t-18.5 45.5z" />
    <glyph glyph-name="ellipsis" unicode="&#x2026;" horiz-adv-x="649" 
d="M67 34q0 17 12 29t29 12t29 -12t12 -29t-12 -29t-29 -12t-29 12t-12 29zM284 34q0 17 12 29t29 12t29 -12t12 -29t-12 -29t-29 -12t-29 12t-12 29zM500 34q0 17 12 29t29 12t29 -12t12 -29t-12 -29t-29 -12t-29 12t-12 29z" />
    <glyph glyph-name="perthousand" unicode="&#x2030;" horiz-adv-x="1222" 
d="M207 0l365 700h57l-364 -700h-58zM44 542q0 73 45 119t117 46q73 0 118 -45.5t45 -119.5t-45 -119.5t-118 -45.5q-72 0 -117 46t-45 119zM94 542q0 -53 31.5 -87t80.5 -34q50 0 81.5 34t31.5 87t-31.5 87t-81.5 34q-49 0 -80.5 -34t-31.5 -87zM467 158q0 73 45 119
t117 46q73 0 118 -45.5t45 -119.5t-45 -119.5t-118 -45.5q-72 0 -117 46t-45 119zM517 158q0 -53 31.5 -87t80.5 -34q50 0 81.5 34t31.5 87t-31.5 87t-81.5 34q-49 0 -80.5 -34t-31.5 -87zM853 158q0 74 45 119.5t118 45.5q72 0 117 -46t45 -119t-45 -119t-117 -46
q-73 0 -118 45.5t-45 119.5zM903 158q0 -53 31.5 -87t81.5 -34q49 0 80.5 34t31.5 87t-31.5 87t-80.5 34q-50 0 -81.5 -34t-31.5 -87z" />
    <glyph glyph-name="guilsinglleft" unicode="&#x2039;" horiz-adv-x="304" 
d="M210 81l-170 169l170 169l30 -30l-140 -139l140 -139z" />
    <glyph glyph-name="guilsinglright" unicode="&#x203a;" horiz-adv-x="304" 
d="M256 250l-169 -169l-30 30l139 139l-139 139l30 30z" />
    <glyph glyph-name="fraction" unicode="&#x2044;" horiz-adv-x="530" 
d="M61 0l364 700h44l-364 -700h-44z" />
    <glyph glyph-name="Euro" unicode="&#x20ac;" horiz-adv-x="751" 
d="M44 400v36h66q25 124 116.5 197.5t225.5 73.5q156 0 255 -102l-37 -37q-84 87 -216 87q-108 0 -184 -59t-100 -160h285v-36h-292q-3 -24 -3 -50t3 -50h292v-36h-285q24 -101 100 -160t184 -59q133 0 216 86l37 -36q-97 -102 -255 -102q-134 0 -225.5 73.5t-116.5 197.5
h-66v36h61q-3 24 -3 50t3 50h-61z" />
    <glyph glyph-name="uni20B4" unicode="&#x20b4;" horiz-adv-x="423" 
d="M47 394v36h209l15 15q24 24 35.5 45t11.5 54q0 49 -33 80.5t-85 31.5q-73 0 -116 -52l-36 36q59 67 152 67q78 0 126 -45t48 -116q0 -63 -48 -116h50v-36h-85l-86 -86h171v-36h-207l-17 -17q-24 -24 -35.5 -45t-11.5 -54q0 -49 33 -80.5t85 -31.5q73 0 116 52l36 -36
q-59 -67 -152 -67q-78 0 -126 45t-48 116q0 64 49 118h-51v36h87l86 86h-173z" />
    <glyph glyph-name="afii61352" unicode="&#x2116;" horiz-adv-x="992" 
d="M84 700h41l449 -594v594h57v-700h-41l-449 594v-594h-57v700zM707 576q0 57 35.5 92.5t91.5 35.5q57 0 92.5 -35.5t35.5 -92.5t-35.5 -92.5t-92.5 -35.5q-56 0 -91.5 35.5t-35.5 92.5zM746 576q0 -42 24.5 -68t63.5 -26q40 0 64.5 26t24.5 68q0 41 -24.5 67.5t-64.5 26.5
q-39 0 -63.5 -26.5t-24.5 -67.5z" />
    <glyph glyph-name="trademark" unicode="&#x2122;" horiz-adv-x="686" 
d="M163 669v-319h-38v319h-100v31h238v-31h-100zM605 350v274l-118 -194h-17l-118 194v-274h-37v350h28l135 -217l136 217h29v-350h-38z" />
    <glyph glyph-name="arrowleft" unicode="&#x2190;" horiz-adv-x="1016" 
d="M412 -4l-354 354l354 354l36 -37l-291 -291h774v-52h-774l292 -291z" />
    <glyph glyph-name="arrowup" unicode="&#x2191;" horiz-adv-x="823" 
d="M386 -169v774l-291 -292l-37 37l354 354l354 -354l-38 -36l-290 291v-774h-52z" />
    <glyph glyph-name="arrowright" unicode="&#x2192;" horiz-adv-x="1016" 
d="M85 324v52h774l-292 291l37 37l354 -354l-354 -354l-37 37l292 291h-774z" />
    <glyph glyph-name="arrowdown" unicode="&#x2193;" horiz-adv-x="823" 
d="M412 -173l-354 354l37 37l291 -292v774h52v-774l290 291l38 -36z" />
    <glyph glyph-name="uni2196" unicode="&#x2196;" horiz-adv-x="779" 
d="M85 132v500h500v-52h-412l548 -548l-37 -37l-547 548v-411h-52z" />
    <glyph glyph-name="uni2197" unicode="&#x2197;" horiz-adv-x="779" 
d="M194 580v52h500v-500h-52v411l-547 -548l-37 37l548 548h-412z" />
    <glyph glyph-name="uni2198" unicode="&#x2198;" horiz-adv-x="779" 
d="M194 0v52h412l-548 548l37 36l547 -548v412h52v-500h-500z" />
    <glyph glyph-name="uni2199" unicode="&#x2199;" horiz-adv-x="779" 
d="M85 0v500h52v-412l547 548l37 -36l-548 -548h412v-52h-500z" />
    <glyph glyph-name="minus" unicode="&#x2212;" horiz-adv-x="440" 
d="M67 281v45h306v-45h-306z" />
    <glyph glyph-name="commaaccent" unicode="&#xf6c3;" 
d="M84 -204l-19 19q37 37 39 63q-14 2 -23 12t-9 24q0 15 10.5 25.5t26.5 10.5q15 0 25 -11.5t10 -32.5q0 -52 -60 -110z" />
    <glyph glyph-name="adieresis.alt" horiz-adv-x="539" 
d="M278 457q118 0 181 -68v-389h-55v38q-57 -45 -136 -45q-98 0 -158.5 64t-60.5 168t63 168t166 64zM105 225q0 -81 48.5 -131t126.5 -50q77 0 124 47v277q-49 38 -127 38q-77 0 -124.5 -50t-47.5 -131zM330 573q0 17 11.5 28.5t28.5 11.5t28.5 -11.5t11.5 -28.5
q0 -16 -11.5 -27.5t-28.5 -11.5t-28.5 11.5t-11.5 27.5zM146 573q0 17 11.5 28.5t27.5 11.5t27.5 -11.5t11.5 -28.5t-11 -28t-28 -11t-28 11t-11 28z" />
    <glyph glyph-name="agrave.alt" horiz-adv-x="539" 
d="M278 457q118 0 181 -68v-389h-55v38q-57 -45 -136 -45q-98 0 -158.5 64t-60.5 168t63 168t166 64zM105 225q0 -81 48.5 -131t126.5 -50q77 0 124 47v277q-49 38 -127 38q-77 0 -124.5 -50t-47.5 -131zM213 667l119 -119l-30 -30l-119 119z" />
    <glyph glyph-name="amacron.alt" horiz-adv-x="539" 
d="M278 457q118 0 181 -68v-389h-55v38q-57 -45 -136 -45q-98 0 -158.5 64t-60.5 168t63 168t166 64zM105 225q0 -81 48.5 -131t126.5 -50q77 0 124 47v277q-49 38 -127 38q-77 0 -124.5 -50t-47.5 -131zM160 549v37h236v-37h-236z" />
    <glyph glyph-name="aogonek.alt" horiz-adv-x="539" 
d="M425 -40q0 -29 16 -45t42 -16q27 0 42 16l23 -23q-24 -25 -65 -25q-40 0 -65 25t-25 67q0 25 11 41v38q-57 -45 -136 -45q-98 0 -158.5 64t-60.5 168t63 168t166 64q118 0 181 -68v-389h-23q-11 -16 -11 -40zM105 225q0 -81 48.5 -131t126.5 -50q77 0 124 47v277
q-49 38 -127 38q-77 0 -124.5 -50t-47.5 -131z" />
    <glyph glyph-name="aring.alt" horiz-adv-x="539" 
d="M278 457q118 0 181 -68v-389h-55v38q-57 -45 -136 -45q-98 0 -158.5 64t-60.5 168t63 168t166 64zM105 225q0 -81 48.5 -131t126.5 -50q77 0 124 47v277q-49 38 -127 38q-77 0 -124.5 -50t-47.5 -131zM193 600q0 40 24 64.5t62 24.5q39 0 62.5 -24.5t23.5 -64.5
t-23.5 -64t-62.5 -24q-38 0 -62 24t-24 64zM223 600q0 -26 15.5 -42t40.5 -16t40.5 16t15.5 42t-16 42t-40 16q-25 0 -40.5 -16t-15.5 -42z" />
    <glyph glyph-name="atilde.alt" horiz-adv-x="539" 
d="M278 457q118 0 181 -68v-389h-55v38q-57 -45 -136 -45q-98 0 -158.5 64t-60.5 168t63 168t166 64zM105 225q0 -81 48.5 -131t126.5 -50q77 0 124 47v277q-49 38 -127 38q-77 0 -124.5 -50t-47.5 -131zM181 545h-35q0 37 22 59.5t57 22.5q31 0 58.5 -25.5t48.5 -25.5
q19 0 31.5 13t12.5 33h35q0 -36 -22 -58.5t-57 -22.5q-32 0 -59 25t-47 25t-32.5 -12.5t-12.5 -33.5z" />
    <glyph glyph-name="g.alt" horiz-adv-x="539" 
d="M404 -39v73q-57 -41 -133 -41q-99 0 -160.5 64.5t-61.5 167.5q0 104 63 168t166 64q118 0 181 -68v-428q0 -99 -59 -158.5t-157 -59.5q-103 0 -168 68l35 34q49 -51 130 -51q75 0 119.5 45.5t44.5 121.5zM105 225q0 -81 48 -131t125 -50t126 49v275q-49 38 -127 38
q-77 0 -124.5 -50t-47.5 -131z" />
    <glyph glyph-name="gbreve.alt" horiz-adv-x="539" 
d="M404 -39v73q-57 -41 -133 -41q-99 0 -160.5 64.5t-61.5 167.5q0 104 63 168t166 64q118 0 181 -68v-428q0 -99 -59 -158.5t-157 -59.5q-103 0 -168 68l35 34q49 -51 130 -51q75 0 119.5 45.5t44.5 121.5zM105 225q0 -81 48 -131t125 -50t126 49v275q-49 38 -127 38
q-77 0 -124.5 -50t-47.5 -131zM277 577q62 0 104 44l31 -30q-55 -57 -135 -57q-78 0 -135 57l30 31q45 -45 105 -45z" />
    <glyph glyph-name="gcircumflex.alt" horiz-adv-x="539" 
d="M404 -39v73q-57 -41 -133 -41q-99 0 -160.5 64.5t-61.5 167.5q0 104 63 168t166 64q118 0 181 -68v-428q0 -99 -59 -158.5t-157 -59.5q-103 0 -168 68l35 34q49 -51 130 -51q75 0 119.5 45.5t44.5 121.5zM105 225q0 -81 48 -131t125 -50t126 49v275q-49 38 -127 38
q-77 0 -124.5 -50t-47.5 -131zM277 667l119 -119l-30 -30l-89 89l-89 -89l-30 30z" />
    <glyph glyph-name="gcommaaccent.alt" horiz-adv-x="539" 
d="M404 -39v73q-57 -41 -133 -41q-99 0 -160.5 64.5t-61.5 167.5q0 104 63 168t166 64q118 0 181 -68v-428q0 -99 -59 -158.5t-157 -59.5q-103 0 -168 68l35 34q49 -51 130 -51q75 0 119.5 45.5t44.5 121.5zM105 225q0 -81 48 -131t125 -50t126 49v275q-49 38 -127 38
q-77 0 -124.5 -50t-47.5 -131zM299 675l19 -19q-37 -39 -39 -64q14 -2 23 -12t9 -23q0 -16 -10.5 -26t-26.5 -10q-35 0 -35 43q0 51 60 111z" />
    <glyph glyph-name="gdotaccent.alt" horiz-adv-x="539" 
d="M404 -39v73q-57 -41 -133 -41q-99 0 -160.5 64.5t-61.5 167.5q0 104 63 168t166 64q118 0 181 -68v-428q0 -99 -59 -158.5t-157 -59.5q-103 0 -168 68l35 34q49 -51 130 -51q75 0 119.5 45.5t44.5 121.5zM105 225q0 -81 48 -131t125 -50t126 49v275q-49 38 -127 38
q-77 0 -124.5 -50t-47.5 -131zM235 585q0 17 12 29t29 12t29 -12t12 -29t-12 -29t-29 -12t-29 12t-12 29z" />
    <glyph glyph-name="afii10021.alt" horiz-adv-x="825" 
d="M731 0h-637v-150h-54v199h60l285 651h55l285 -651h59v-199h-53v150zM412 629l-247 -580h495z" />
    <glyph glyph-name="afii10029.alt" horiz-adv-x="744" 
d="M34 0l310 700h55l311 -700h-67l-271 627l-271 -627h-67z" />
    <glyph glyph-name="afii10058.alt" horiz-adv-x="992" 
d="M34 0l310 700h55l141 -317h203q88 0 142 -52.5t54 -138.5q0 -87 -54 -139.5t-142 -52.5h-100l-271 627l-271 -627h-67zM743 332h-181l125 -282h56q62 0 99.5 39t37.5 103q0 63 -37.5 101.5t-99.5 38.5z" />
    <glyph glyph-name="afii10065.alt" horiz-adv-x="539" 
d="M278 457q118 0 181 -68v-389h-55v38q-57 -45 -136 -45q-98 0 -158.5 64t-60.5 168t63 168t166 64zM105 225q0 -81 48.5 -131t126.5 -50q77 0 124 47v277q-49 38 -127 38q-77 0 -124.5 -50t-47.5 -131z" />
    <glyph glyph-name="afii10069.alt" horiz-adv-x="601" 
d="M560 46v-166h-52v120h-415v-120h-52v166h51l182 404h53l182 -404h51zM301 387l-149 -341h297z" />
    <glyph glyph-name="afii10077.alt" horiz-adv-x="529" 
d="M32 0l206 450h53l206 -450h-61l-171 385l-171 -385h-62z" />
    <glyph glyph-name="afii10106.alt" horiz-adv-x="703" 
d="M32 0l206 450h53l90 -197h141q64 0 100.5 -35t36.5 -92q0 -56 -36.5 -91t-100.5 -35h-86l-171 385l-171 -385h-62zM521 209h-120l76 -165h44q37 0 60 23t23 59q0 38 -23 60.5t-60 22.5z" />
    <glyph glyph-name="acircumflex.alt" horiz-adv-x="539" 
d="M278 457q118 0 181 -68v-389h-55v38q-57 -45 -136 -45q-98 0 -158.5 64t-60.5 168t63 168t166 64zM105 225q0 -81 48.5 -131t126.5 -50q77 0 124 47v277q-49 38 -127 38q-77 0 -124.5 -50t-47.5 -131zM278 667l119 -119l-30 -30l-89 89l-89 -89l-30 30z" />
    <glyph glyph-name="abreve.alt" horiz-adv-x="539" 
d="M278 457q118 0 181 -68v-389h-55v38q-57 -45 -136 -45q-98 0 -158.5 64t-60.5 168t63 168t166 64zM105 225q0 -81 48.5 -131t126.5 -50q77 0 124 47v277q-49 38 -127 38q-77 0 -124.5 -50t-47.5 -131zM278 577q62 0 104 44l31 -30q-55 -57 -135 -57q-78 0 -135 57l30 31
q45 -45 105 -45z" />
    <glyph glyph-name="aacute.alt" horiz-adv-x="539" 
d="M278 457q118 0 181 -68v-389h-55v38q-57 -45 -136 -45q-98 0 -158.5 64t-60.5 168t63 168t166 64zM105 225q0 -81 48.5 -131t126.5 -50q77 0 124 47v277q-49 38 -127 38q-77 0 -124.5 -50t-47.5 -131zM223 548l119 119l30 -30l-119 -119z" />
    <glyph glyph-name="a.alt" horiz-adv-x="539" 
d="M278 457q118 0 181 -68v-389h-55v38q-57 -45 -136 -45q-98 0 -158.5 64t-60.5 168t63 168t166 64zM105 225q0 -81 48.5 -131t126.5 -50q77 0 124 47v277q-49 38 -127 38q-77 0 -124.5 -50t-47.5 -131z" />
    <glyph glyph-name="zero.fitted" horiz-adv-x="530" 
d="M40 350q0 159 62.5 258t162.5 99t162.5 -99t62.5 -258t-62.5 -258t-162.5 -99t-162.5 99t-62.5 258zM97 350q0 -137 46.5 -221.5t121.5 -84.5t121.5 84.5t46.5 221.5t-46.5 221.5t-121.5 84.5t-121.5 -84.5t-46.5 -221.5z" />
    <glyph glyph-name="one.fitted" horiz-adv-x="530" 
d="M120 0v46h118v604l-125 -22v45l180 31v-658h118v-46h-291z" />
    <glyph glyph-name="germandbls.case" horiz-adv-x="589" 
d="M137 528v-528h-56v528q0 80 50.5 129.5t132.5 49.5t133 -49.5t51 -127.5q0 -64 -36 -108t-96 -55q0 -39 23 -64.5t55 -40l64 -30t54.5 -44.5t22.5 -73q0 -48 -37.5 -85t-107.5 -37q-87 0 -141 57l34 35q39 -44 104 -44q47 0 70 23.5t23 51.5q0 31 -22.5 52.5t-55 35.5
t-64.5 31t-54.5 49.5t-22.5 80.5v45q59 0 94.5 33t35.5 88q0 56 -35 90.5t-92 34.5q-56 0 -91.5 -36t-35.5 -92z" />
    <glyph glyph-name="at.case" horiz-adv-x="795" 
d="M638 124l28 -27q-46 -50 -115.5 -77t-150.5 -27q-157 0 -254 99t-97 258t97 258t253 99q158 0 253 -94.5t95 -233.5q0 -103 -49.5 -151.5t-113.5 -48.5q-62 0 -84 36q-42 -36 -103 -36q-73 0 -118 47.5t-45 123.5q0 77 47 124t124 47q88 0 133 -50v-218q0 -33 53 -33
q44 0 77 37t33 118q0 126 -81 208.5t-220 82.5q-137 0 -221.5 -87t-84.5 -229q0 -143 84.5 -229.5t223.5 -86.5q151 0 236 90zM280 350q0 -60 34 -95t92 -35q54 0 88 31v204q-34 25 -90 25q-58 0 -91 -35t-33 -95z" />
    <glyph glyph-name="parenleft.case" horiz-adv-x="300" 
d="M243 757v-44q-49 0 -84 -102.5t-35 -261.5q0 -158 35 -260t84 -102v-44q-75 0 -125.5 114t-50.5 293t50.5 293t125.5 114z" />
    <glyph glyph-name="parenright.case" horiz-adv-x="300" 
d="M57 713v44q75 0 125.5 -114t50.5 -293t-50.5 -293t-125.5 -114v44q50 0 84.5 102t34.5 261t-34.5 261t-84.5 102z" />
    <glyph glyph-name="bracketleft.case" horiz-adv-x="297" 
d="M239 750v-46h-103v-708h103v-46h-158v800h158z" />
    <glyph glyph-name="bracketright.case" horiz-adv-x="297" 
d="M57 704v46h159v-800h-159v46h104v708h-104z" />
    <glyph glyph-name="braceleft.case" horiz-adv-x="322" 
d="M278 -13v-44q-62 0 -103.5 48t-41.5 123v77q0 59 -26 97.5t-63 38.5v44q37 0 63 38.5t26 97.5v79q0 75 41.5 123t103.5 48v-44q-37 0 -63 -38t-26 -97v-78q0 -55 -23 -94.5t-62 -56.5q39 -17 62 -56.5t23 -94.5v-77q0 -58 26 -96t63 -38z" />
    <glyph glyph-name="braceright.case" horiz-adv-x="322" 
d="M44 -57v44q37 0 63 38t26 96v77q0 55 23 94.5t62 56.5q-39 17 -62 56.5t-23 94.5v78q0 59 -26 97t-63 38v44q62 0 103.5 -48t41.5 -123v-79q0 -59 26 -97.5t63 -38.5v-44q-37 0 -63 -38.5t-26 -97.5v-77q0 -75 -41.5 -123t-103.5 -48z" />
    <glyph glyph-name="questiondown.case" horiz-adv-x="468" 
d="M389 103l37 -37q-75 -73 -188 -73q-92 0 -140.5 52.5t-48.5 125.5q0 35 11.5 62.5t29 43.5l38 34l38 34.5t29 45t11.5 66.5v57h56v-57q0 -44 -11.5 -78t-29 -53t-38 -37t-38 -32t-29 -35.5t-11.5 -49.5q0 -51 33.5 -89.5t100.5 -38.5q42 0 83 16t67 43zM275 666
q0 -17 -12 -29t-29 -12t-29 12t-12 29t12 29t29 12t29 -12t12 -29z" />
    <glyph glyph-name="guillemotleft.case" horiz-adv-x="470" 
d="M210 181l-170 169l170 169l30 -30l-140 -139l140 -139zM376 181l-169 169l169 169l30 -30l-139 -139l139 -139z" />
    <glyph glyph-name="guillemotright.case" horiz-adv-x="470" 
d="M423 350l-169 -169l-30 30l139 139l-139 139l30 30zM256 350l-169 -169l-30 30l139 139l-139 139l30 30z" />
    <glyph glyph-name="guilsinglleft.case" horiz-adv-x="304" 
d="M210 181l-170 169l170 169l30 -30l-140 -139l140 -139z" />
    <glyph glyph-name="guilsinglright.case" horiz-adv-x="304" 
d="M256 350l-169 -169l-30 30l139 139l-139 139l30 30z" />
    <glyph glyph-name="hyphen.case" horiz-adv-x="340" 
d="M67 327v46h206v-46h-206z" />
    <glyph glyph-name="endash.case" horiz-adv-x="500" 
d="M67 327v46h366v-46h-366z" />
    <glyph glyph-name="emdash.case" horiz-adv-x="700" 
d="M67 327v46h566v-46h-566z" />
    <glyph glyph-name="bar.case" 
d="M81 -50v800h55v-800h-55z" />
    <glyph glyph-name="brokenbar.case" 
d="M81 -50v350h55v-350h-55zM136 750v-350h-55v350h55z" />
    <glyph glyph-name="asciitilde.case" horiz-adv-x="433" 
d="M80 302h-40q0 45 28.5 73t72.5 28q27 0 48 -10.5t32 -23t29.5 -23t40.5 -10.5q27 0 44 17.5t17 45.5h40q0 -46 -28 -74t-73 -28q-34 0 -57.5 17t-44 34t-47.5 17t-44.5 -17.5t-17.5 -45.5z" />
    <glyph glyph-name="dagger.case" horiz-adv-x="500" 
d="M67 487v46h155v217h56v-217h155v-46h-155v-537h-56v537h-155z" />
    <glyph glyph-name="daggerdbl.case" horiz-adv-x="500" 
d="M67 187v46h155v254h-155v46h155v217h56v-217h155v-46h-155v-254h155v-46h-155v-237h-56v237h-155z" />
    <glyph glyph-name="bullet.case" horiz-adv-x="259" 
d="M66 350q0 27 18.5 45.5t45.5 18.5t45.5 -18.5t18.5 -45.5t-18.5 -45.5t-45.5 -18.5t-45.5 18.5t-18.5 45.5z" />
    <glyph glyph-name="A.smcp" horiz-adv-x="581" 
d="M487 0l-67 146h-259l-67 -146h-62l233 504h51l233 -504h-62zM290 435l-109 -241h219z" />
    <glyph glyph-name="Aacute.smcp" horiz-adv-x="581" 
d="M487 0l-67 146h-259l-67 -146h-62l233 504h51l233 -504h-62zM290 435l-109 -241h219zM245 558l93 90l27 -28l-92 -89z" />
    <glyph glyph-name="Abreve.smcp" horiz-adv-x="581" 
d="M487 0l-67 146h-259l-67 -146h-62l233 504h51l233 -504h-62zM290 435l-109 -241h219zM290 581q47 0 77 30l28 -27q-43 -43 -105 -43q-59 0 -104 43l27 27q32 -30 77 -30z" />
    <glyph glyph-name="Acircumflex.smcp" horiz-adv-x="581" 
d="M487 0l-67 146h-259l-67 -146h-62l233 504h51l233 -504h-62zM290 435l-109 -241h219zM290 648l93 -90l-27 -27l-66 63l-65 -63l-27 27z" />
    <glyph glyph-name="Agrave.smcp" horiz-adv-x="581" 
d="M487 0l-67 146h-259l-67 -146h-62l233 504h51l233 -504h-62zM290 435l-109 -241h219zM243 648l92 -90l-27 -27l-93 89z" />
    <glyph glyph-name="Adieresis.smcp" horiz-adv-x="581" 
d="M487 0l-67 146h-259l-67 -146h-62l233 504h51l233 -504h-62zM290 435l-109 -241h219zM187 574q0 14 9.5 23.5t23.5 9.5t24 -9.5t10 -23.5t-10 -24t-24 -10t-23.5 10t-9.5 24zM326 574q0 14 10 24t24 10q15 0 24.5 -10t9.5 -24t-9.5 -24t-24.5 -10q-14 0 -24 10t-10 24z
" />
    <glyph glyph-name="Amacron.smcp" horiz-adv-x="581" 
d="M487 0l-67 146h-259l-67 -146h-62l233 504h51l233 -504h-62zM290 435l-109 -241h219zM200 553v34h181v-34h-181z" />
    <glyph glyph-name="Aogonek.smcp" horiz-adv-x="581" 
d="M508 -28q0 -19 11.5 -30t29.5 -11q20 0 30 10l21 -19q-21 -19 -51 -19q-31 0 -50 19t-19 50q0 19 7 28l-67 146h-259l-67 -146h-62l233 504h51l233 -504h-34q-7 -10 -7 -28zM290 435l-109 -241h219z" />
    <glyph glyph-name="Aring.smcp" horiz-adv-x="581" 
d="M487 0l-67 146h-259l-67 -146h-62l233 504h51l233 -504h-62zM290 435l-109 -241h219zM225 591q0 29 18 46.5t47 17.5q30 0 48 -17.5t18 -46.5t-18 -47t-48 -18q-29 0 -47 18t-18 47zM251 591q0 -18 11 -28.5t28 -10.5q18 0 29 10.5t11 28.5q0 17 -11 28t-29 11
q-17 0 -28 -11t-11 -28z" />
    <glyph glyph-name="Atilde.smcp" horiz-adv-x="581" 
d="M487 0l-67 146h-259l-67 -146h-62l233 504h51l233 -504h-62zM290 435l-109 -241h219zM218 550h-31q0 28 18 45.5t45 17.5q24 0 45 -17.5t35 -17.5t23 9t9 23h31q0 -28 -17.5 -45.5t-45.5 -17.5q-24 0 -44.5 17.5t-35.5 17.5q-14 0 -23 -9t-9 -23z" />
    <glyph glyph-name="AE.smcp" horiz-adv-x="599" 
d="M344 459v-182h181v-46h-181v-186h210v-45h-264v146h-129l-67 -146h-62l233 504h285v-45h-206zM181 194h109v242z" />
    <glyph glyph-name="AEacute.smcp" horiz-adv-x="599" 
d="M344 459v-182h181v-46h-181v-186h210v-45h-264v146h-129l-67 -146h-62l233 504h285v-45h-206zM181 194h109v242zM272 558l93 90l28 -28l-94 -89z" />
    <glyph glyph-name="B.smcp" horiz-adv-x="428" 
d="M68 0v504h142q63 0 101 -35.5t38 -94.5q0 -76 -62 -109q42 -13 66.5 -46.5t24.5 -79.5q0 -63 -41 -101t-107 -38h-162zM325 142q0 43 -26.5 69t-70.5 26h-105v-190h105q44 0 70.5 26t26.5 69zM296 370q0 40 -24.5 63.5t-64.5 23.5h-84v-174h84q40 0 64.5 24t24.5 63z" />
    <glyph glyph-name="C.smcp" horiz-adv-x="546" 
d="M103 252q0 -93 59 -150.5t153 -57.5q97 0 154 57l35 -34q-72 -72 -192 -72q-118 0 -191 71t-73 186t73 186t191 71q120 0 192 -72l-35 -35q-58 58 -154 58q-94 0 -153 -57.5t-59 -150.5z" />
    <glyph glyph-name="Cacute.smcp" horiz-adv-x="546" 
d="M103 252q0 -93 59 -150.5t153 -57.5q97 0 154 57l35 -34q-72 -72 -192 -72q-118 0 -191 71t-73 186t73 186t191 71q120 0 192 -72l-35 -35q-58 58 -154 58q-94 0 -153 -57.5t-59 -150.5zM251 561l93 91l27 -27l-93 -90z" />
    <glyph glyph-name="Ccaron.smcp" horiz-adv-x="546" 
d="M103 252q0 -93 59 -150.5t153 -57.5q97 0 154 57l35 -34q-72 -72 -192 -72q-118 0 -191 71t-73 186t73 186t191 71q120 0 192 -72l-35 -35q-58 58 -154 58q-94 0 -153 -57.5t-59 -150.5zM295 531l-93 89l28 28l65 -63l66 63l27 -28z" />
    <glyph glyph-name="Ccedilla.smcp" horiz-adv-x="546" 
d="M103 252q0 -93 59 -150.5t153 -57.5q97 0 154 57l35 -34q-67 -67 -181 -72v-37q49 -10 49 -55q0 -26 -17 -42t-44 -16t-45 18l18 18q13 -10 27 -10q16 0 26 9t10 24q0 33 -48 33v58q-113 4 -182 74.5t-69 182.5q0 115 73 186t191 71q120 0 192 -72l-35 -35
q-58 58 -154 58q-94 0 -153 -57.5t-59 -150.5z" />
    <glyph glyph-name="Ccircumflex.smcp" horiz-adv-x="546" 
d="M103 252q0 -93 59 -150.5t153 -57.5q97 0 154 57l35 -34q-72 -72 -192 -72q-118 0 -191 71t-73 186t73 186t191 71q120 0 192 -72l-35 -35q-58 58 -154 58q-94 0 -153 -57.5t-59 -150.5zM297 648l93 -90l-28 -27l-65 63l-66 -63l-27 27z" />
    <glyph glyph-name="Cdotaccent.smcp" horiz-adv-x="546" 
d="M103 252q0 -93 59 -150.5t153 -57.5q97 0 154 57l35 -34q-72 -72 -192 -72q-118 0 -191 71t-73 186t73 186t191 71q120 0 192 -72l-35 -35q-58 58 -154 58q-94 0 -153 -57.5t-59 -150.5zM261 583q0 15 10.5 25t25.5 10t25 -10t10 -25q0 -14 -10 -24.5t-25 -10.5
t-25.5 10.5t-10.5 24.5z" />
    <glyph glyph-name="D.smcp" horiz-adv-x="539" 
d="M68 0v504h159q118 0 191 -69t73 -183t-73 -183t-191 -69h-159zM435 252q0 93 -57.5 149t-150.5 56h-104v-410h104q93 0 150.5 56t57.5 149z" />
    <glyph glyph-name="Dcaron.smcp" horiz-adv-x="539" 
d="M68 0v504h159q118 0 191 -69t73 -183t-73 -183t-191 -69h-159zM435 252q0 93 -57.5 149t-150.5 56h-104v-410h104q93 0 150.5 56t57.5 149zM262 531l-93 89l27 28l66 -63l65 63l28 -28z" />
    <glyph glyph-name="Dcroat.smcp" horiz-adv-x="552" 
d="M45 231v42h42v231h152q119 0 191.5 -69t72.5 -183t-72.5 -183t-191.5 -69h-152v231h-42zM447 252q0 93 -57.5 149t-150.5 56h-96v-184h122v-42h-122v-184h96q93 0 150.5 56t57.5 149z" />
    <glyph glyph-name="Eth.smcp" horiz-adv-x="552" 
d="M45 231v42h42v231h152q119 0 191.5 -69t72.5 -183t-72.5 -183t-191.5 -69h-152v231h-42zM447 252q0 93 -57.5 149t-150.5 56h-96v-184h122v-42h-122v-184h96q93 0 150.5 56t57.5 149z" />
    <glyph glyph-name="Thorn.smcp" horiz-adv-x="408" 
d="M68 0v504h55v-105h86q68 0 109.5 -38.5t41.5 -102.5q0 -63 -41.5 -101.5t-109.5 -38.5h-86v-118h-55zM305 258q0 43 -26.5 68.5t-69.5 25.5h-86v-188h86q43 0 69.5 25.5t26.5 68.5z" />
    <glyph glyph-name="E.smcp" horiz-adv-x="395" 
d="M122 459v-182h198v-46h-198v-186h226v-45h-280v504h277v-45h-223z" />
    <glyph glyph-name="Eacute.smcp" horiz-adv-x="395" 
d="M122 459v-182h198v-46h-198v-186h226v-45h-280v504h277v-45h-223zM163 558l92 90l28 -28l-94 -89z" />
    <glyph glyph-name="Ebreve.smcp" horiz-adv-x="395" 
d="M122 459v-182h198v-46h-198v-186h226v-45h-280v504h277v-45h-223zM207 581q45 0 78 30l27 -27q-43 -43 -105 -43q-61 0 -104 43l27 27q32 -30 77 -30z" />
    <glyph glyph-name="Ecaron.smcp" horiz-adv-x="395" 
d="M122 459v-182h198v-46h-198v-186h226v-45h-280v504h277v-45h-223zM207 531l-93 89l28 28l65 -63l66 63l27 -28z" />
    <glyph glyph-name="Ecircumflex.smcp" horiz-adv-x="395" 
d="M122 459v-182h198v-46h-198v-186h226v-45h-280v504h277v-45h-223zM207 648l93 -90l-27 -27l-66 63l-65 -63l-28 27z" />
    <glyph glyph-name="Edieresis.smcp" horiz-adv-x="395" 
d="M122 459v-182h198v-46h-198v-186h226v-45h-280v504h277v-45h-223zM103 574q0 14 10 23.5t24 9.5t24 -9.5t10 -23.5t-10 -24t-24 -10t-24 10t-10 24zM244 574q0 14 9.5 24t23.5 10t24 -10t10 -24t-10 -24t-24 -10t-23.5 10t-9.5 24z" />
    <glyph glyph-name="Edotaccent.smcp" horiz-adv-x="395" 
d="M122 459v-182h198v-46h-198v-186h226v-45h-280v504h277v-45h-223zM172 583q0 15 10 25t25 10t25.5 -10t10.5 -25q0 -14 -10.5 -24.5t-25.5 -10.5t-25 10.5t-10 24.5z" />
    <glyph glyph-name="Egrave.smcp" horiz-adv-x="395" 
d="M122 459v-182h198v-46h-198v-186h226v-45h-280v504h277v-45h-223zM159 648l94 -90l-28 -27l-92 89z" />
    <glyph glyph-name="Emacron.smcp" horiz-adv-x="395" 
d="M122 459v-182h198v-46h-198v-186h226v-45h-280v504h277v-45h-223zM116 553v34h182v-34h-182z" />
    <glyph glyph-name="Eogonek.smcp" horiz-adv-x="395" 
d="M264 -28q0 -19 11.5 -30t30.5 -11q20 0 30 10l20 -19q-19 -19 -50 -19t-50.5 19t-19.5 50q0 15 8 28h-176v504h277v-45h-223v-182h198v-46h-198v-186h226v-45h-76q-8 -11 -8 -28z" />
    <glyph glyph-name="F.smcp" horiz-adv-x="374" 
d="M122 459v-182h185v-46h-185v-231h-54v504h265v-45h-211z" />
    <glyph glyph-name="G.smcp" horiz-adv-x="573" 
d="M312 221v45h192v-199q-72 -72 -192 -72q-118 0 -191 71t-73 186t73 186t191 71q120 0 192 -72l-35 -35q-58 58 -154 58q-94 0 -153 -57.5t-59 -150.5t59 -150.5t153 -57.5q82 0 135 42v135h-138z" />
    <glyph glyph-name="Gbreve.smcp" horiz-adv-x="573" 
d="M312 221v45h192v-199q-72 -72 -192 -72q-118 0 -191 71t-73 186t73 186t191 71q120 0 192 -72l-35 -35q-58 58 -154 58q-94 0 -153 -57.5t-59 -150.5t59 -150.5t153 -57.5q82 0 135 42v135h-138zM311 581q45 0 77 30l27 -27q-43 -43 -104 -43q-60 0 -105 43l28 27
q32 -30 77 -30z" />
    <glyph glyph-name="Gcircumflex.smcp" horiz-adv-x="573" 
d="M312 221v45h192v-199q-72 -72 -192 -72q-118 0 -191 71t-73 186t73 186t191 71q120 0 192 -72l-35 -35q-58 58 -154 58q-94 0 -153 -57.5t-59 -150.5t59 -150.5t153 -57.5q82 0 135 42v135h-138zM311 648l93 -90l-27 -27l-66 63l-65 -63l-28 27z" />
    <glyph glyph-name="Gcommaaccent.smcp" horiz-adv-x="573" 
d="M312 221v45h192v-199q-72 -72 -192 -72q-118 0 -191 71t-73 186t73 186t191 71q120 0 192 -72l-35 -35q-58 58 -154 58q-94 0 -153 -57.5t-59 -150.5t59 -150.5t153 -57.5q82 0 135 42v135h-138zM288 -156l-16 16q28 28 30 47q-11 1 -18.5 9t-7.5 19q0 13 9 21.5t22 8.5
q30 0 30 -34q0 -40 -49 -87z" />
    <glyph glyph-name="Gdotaccent.smcp" horiz-adv-x="573" 
d="M312 221v45h192v-199q-72 -72 -192 -72q-118 0 -191 71t-73 186t73 186t191 71q120 0 192 -72l-35 -35q-58 58 -154 58q-94 0 -153 -57.5t-59 -150.5t59 -150.5t153 -57.5q82 0 135 42v135h-138zM276 583q0 15 10 25t25 10t25.5 -10t10.5 -25q0 -14 -10.5 -24.5
t-25.5 -10.5t-25 10.5t-10 24.5z" />
    <glyph glyph-name="H.smcp" horiz-adv-x="539" 
d="M122 504v-227h294v227h54v-504h-54v231h-294v-231h-54v504h54z" />
    <glyph glyph-name="Hbar.smcp" horiz-adv-x="545" 
d="M87 0v367h-46v42h46v95h53v-95h262v95h53v-95h49v-42h-49v-367h-53v231h-262v-231h-53zM140 277h262v90h-262v-90z" />
    <glyph glyph-name="Hcircumflex.smcp" horiz-adv-x="539" 
d="M122 504v-227h294v227h54v-504h-54v231h-294v-231h-54v504h54zM269 648l93 -90l-27 -27l-66 63l-65 -63l-28 27z" />
    <glyph glyph-name="I.smcp" horiz-adv-x="185" 
d="M66 0v504h53v-504h-53z" />
    <glyph glyph-name="Iacute.smcp" horiz-adv-x="185" 
d="M66 0v504h53v-504h-53zM48 558l93 90l27 -28l-93 -89z" />
    <glyph glyph-name="Ibreve.smcp" horiz-adv-x="186" 
d="M66 0v504h54v-504h-54zM94 581q44 0 77 30l27 -27q-43 -43 -104 -43q-60 0 -105 43l27 27q32 -30 78 -30z" />
    <glyph glyph-name="Icircumflex.smcp" horiz-adv-x="186" 
d="M66 0v504h53v-504h-53zM93 648l93 -90l-27 -27l-66 63l-66 -63l-27 27z" />
    <glyph glyph-name="Idieresis.smcp" horiz-adv-x="186" 
d="M66 0v504h53v-504h-53zM1 574q0 14 9.5 23.5t24.5 9.5q14 0 24 -9.5t10 -23.5t-10 -24t-24 -10q-15 0 -24.5 10t-9.5 24zM118 574q0 14 9.5 24t23.5 10t24 -10t10 -24t-10 -24t-24 -10t-23.5 10t-9.5 24z" />
    <glyph glyph-name="Idotaccent.smcp" horiz-adv-x="186" 
d="M66 0v504h53v-504h-53zM57 583q0 15 10.5 25t25.5 10t25 -10t10 -25q0 -14 -10 -24.5t-25 -10.5t-25.5 10.5t-10.5 24.5z" />
    <glyph glyph-name="Igrave.smcp" horiz-adv-x="185" 
d="M66 0v504h53v-504h-53zM45 648l93 -90l-27 -27l-93 89z" />
    <glyph glyph-name="Imacron.smcp" horiz-adv-x="186" 
d="M67 0v504h53v-504h-53zM2 553v34h182v-34h-182z" />
    <glyph glyph-name="Iogonek.smcp" horiz-adv-x="186" 
d="M66 0v504h53v-504h-53zM86 -28q0 -19 11.5 -30t30.5 -11q20 0 30 10l20 -19q-19 -19 -50 -19t-50.5 19t-19.5 50q0 17 8 28h28q-8 -11 -8 -28z" />
    <glyph glyph-name="Itilde.smcp" horiz-adv-x="185" 
d="M66 0v504h53v-504h-53zM21 550h-30q0 28 17.5 45.5t44.5 17.5q23 0 44 -17.5t36 -17.5q14 0 23 9t9 23h31q0 -28 -17.5 -45.5t-45.5 -17.5q-24 0 -44.5 17.5t-35.5 17.5q-14 0 -23 -9t-9 -23z" />
    <glyph glyph-name="IJ.smcp" horiz-adv-x="398" 
d="M68 180v324h54v-324h-54zM278 137v367h54v-367q0 -64 -40.5 -103t-105.5 -39q-67 0 -107 40l35 35q24 -26 69 -26q43 0 69 25.5t26 67.5z" />
    <glyph glyph-name="J.smcp" horiz-adv-x="360" 
d="M240 137v367h54v-367q0 -64 -41 -103t-106 -39q-64 0 -106 40l35 35q24 -26 69 -26q42 0 68.5 25.5t26.5 67.5z" />
    <glyph glyph-name="Jcircumflex.smcp" horiz-adv-x="359" 
d="M240 137v367h54v-367q0 -64 -41 -103t-106 -39q-64 0 -106 40l35 35q24 -26 69 -26q42 0 68.5 25.5t26.5 67.5zM267 648l92 -90l-27 -27l-65 63l-66 -63l-28 27z" />
    <glyph glyph-name="K.smcp" horiz-adv-x="465" 
d="M66 0v504h53v-504h-53zM362 0l-234 259l219 245h67l-218 -245l235 -259h-69z" />
    <glyph glyph-name="Kcommaaccent.smcp" horiz-adv-x="465" 
d="M66 0v504h53v-504h-53zM362 0l-234 259l219 245h67l-218 -245l235 -259h-69zM216 -156l-16 16q26 24 30 47q-11 1 -18.5 9t-7.5 19q0 13 9 21.5t22 8.5q12 0 21 -8.5t9 -25.5q0 -40 -49 -87z" />
    <glyph glyph-name="L.smcp" horiz-adv-x="369" 
d="M122 504v-459h207v-45h-261v504h54z" />
    <glyph glyph-name="Lacute.smcp" horiz-adv-x="369" 
d="M122 504v-459h207v-45h-261v504h54zM124 558l94 90l27 -28l-93 -89z" />
    <glyph glyph-name="Lcaron.smcp" horiz-adv-x="369" 
d="M122 504v-459h207v-45h-261v504h54zM95 531l-93 89l28 28l65 -63l66 63l27 -28z" />
    <glyph glyph-name="Lcommaaccent.smcp" horiz-adv-x="369" 
d="M122 504v-459h207v-45h-261v504h54zM180 -156l-16 16q26 24 30 47q-11 1 -18.5 9t-7.5 19q0 13 9 21.5t22 8.5q12 0 21 -8.5t9 -25.5q0 -40 -49 -87z" />
    <glyph glyph-name="Ldot.smcp" horiz-adv-x="370" 
d="M122 504v-459h207v-45h-261v504h54zM237 234q0 15 10.5 25t25.5 10t25 -10t10 -25t-10 -25t-25 -10t-25.5 10t-10.5 25z" />
    <glyph glyph-name="Lslash.smcp" horiz-adv-x="389" 
d="M18 168l70 68v268h54v-226l67 65l28 -28l-95 -91v-179h206v-45h-260v182l-42 -41z" />
    <glyph glyph-name="M.smcp" horiz-adv-x="627" 
d="M506 0v393l-180 -277h-25l-179 277v-393h-54v504h41l205 -313l204 313h41v-504h-53z" />
    <glyph glyph-name="N.smcp" horiz-adv-x="555" 
d="M68 504h37l328 -402v402h54v-504h-37l-328 402v-402h-54v504z" />
    <glyph glyph-name="Nacute.smcp" horiz-adv-x="555" 
d="M68 504h37l328 -402v402h54v-504h-37l-328 402v-402h-54v504zM232 558l93 90l28 -28l-93 -89z" />
    <glyph glyph-name="Ncaron.smcp" horiz-adv-x="555" 
d="M68 504h37l328 -402v402h54v-504h-37l-328 402v-402h-54v504zM277 531l-92 89l27 28l65 -63l66 63l27 -28z" />
    <glyph glyph-name="Ncommaaccent.smcp" horiz-adv-x="555" 
d="M68 504h37l328 -402v402h54v-504h-37l-328 402v-402h-54v504zM261 -156l-16 16q26 24 31 47q-12 1 -19.5 9t-7.5 19q0 13 9 21.5t22 8.5q30 0 30 -34q0 -40 -49 -87z" />
    <glyph glyph-name="Ntilde.smcp" horiz-adv-x="555" 
d="M68 504h37l328 -402v402h54v-504h-37l-328 402v-402h-54v504zM205 550h-30q0 28 17.5 45.5t43.5 17.5q24 0 45 -17.5t36 -17.5q14 0 23 9t9 23h31q0 -28 -17.5 -45.5t-45.5 -17.5q-24 0 -44.5 17.5t-35.5 17.5q-14 0 -23 -9t-9 -23z" />
    <glyph glyph-name="Eng.smcp" horiz-adv-x="555" 
d="M391 -180v34q19 0 30.5 10.5t11.5 28.5v127l-311 382v-402h-54v504h37l328 -402v402h54v-612q0 -35 -20 -55t-52 -20q-16 0 -24 3z" />
    <glyph glyph-name="O.smcp" horiz-adv-x="624" 
d="M48 252q0 115 73 186t191 71t191 -71t73 -186t-73 -186t-191 -71t-191 71t-73 186zM103 252q0 -93 58 -150.5t151 -57.5t150.5 57.5t57.5 150.5t-57.5 150.5t-150.5 57.5t-151 -57.5t-58 -150.5z" />
    <glyph glyph-name="Oacute.smcp" horiz-adv-x="624" 
d="M48 252q0 115 73 186t191 71t191 -71t73 -186t-73 -186t-191 -71t-191 71t-73 186zM103 252q0 -93 58 -150.5t151 -57.5t150.5 57.5t57.5 150.5t-57.5 150.5t-150.5 57.5t-151 -57.5t-58 -150.5zM267 558l93 90l27 -28l-93 -89z" />
    <glyph glyph-name="Obreve.smcp" horiz-adv-x="624" 
d="M48 252q0 115 73 186t191 71t191 -71t73 -186t-73 -186t-191 -71t-191 71t-73 186zM103 252q0 -93 58 -150.5t151 -57.5t150.5 57.5t57.5 150.5t-57.5 150.5t-150.5 57.5t-151 -57.5t-58 -150.5zM312 581q45 0 77 30l28 -27q-43 -43 -105 -43q-61 0 -104 43l27 27
q32 -30 77 -30z" />
    <glyph glyph-name="Ocircumflex.smcp" horiz-adv-x="624" 
d="M48 252q0 115 73 186t191 71t191 -71t73 -186t-73 -186t-191 -71t-191 71t-73 186zM103 252q0 -93 58 -150.5t151 -57.5t150.5 57.5t57.5 150.5t-57.5 150.5t-150.5 57.5t-151 -57.5t-58 -150.5zM312 648l93 -90l-27 -27l-66 63l-65 -63l-28 27z" />
    <glyph glyph-name="Odieresis.smcp" horiz-adv-x="624" 
d="M48 252q0 115 73 186t191 71t191 -71t73 -186t-73 -186t-191 -71t-191 71t-73 186zM103 252q0 -93 58 -150.5t151 -57.5t150.5 57.5t57.5 150.5t-57.5 150.5t-150.5 57.5t-151 -57.5t-58 -150.5zM208 574q0 14 10 23.5t24 9.5t24 -9.5t10 -23.5t-10 -24t-24 -10t-24 10
t-10 24zM348 574q0 14 10 24t24 10t24 -10t10 -24t-10 -24t-24 -10t-24 10t-10 24z" />
    <glyph glyph-name="Ograve.smcp" horiz-adv-x="624" 
d="M48 252q0 115 73 186t191 71t191 -71t73 -186t-73 -186t-191 -71t-191 71t-73 186zM103 252q0 -93 58 -150.5t151 -57.5t150.5 57.5t57.5 150.5t-57.5 150.5t-150.5 57.5t-151 -57.5t-58 -150.5zM264 648l93 -90l-27 -27l-93 89z" />
    <glyph glyph-name="Ohungarumlaut.smcp" horiz-adv-x="624" 
d="M48 252q0 115 73 186t191 71t191 -71t73 -186t-73 -186t-191 -71t-191 71t-73 186zM103 252q0 -93 58 -150.5t151 -57.5t150.5 57.5t57.5 150.5t-57.5 150.5t-150.5 57.5t-151 -57.5t-58 -150.5zM212 558l92 90l28 -28l-93 -89zM322 558l93 90l28 -28l-93 -89z" />
    <glyph glyph-name="Omacron.smcp" horiz-adv-x="624" 
d="M48 252q0 115 73 186t191 71t191 -71t73 -186t-73 -186t-191 -71t-191 71t-73 186zM103 252q0 -93 58 -150.5t151 -57.5t150.5 57.5t57.5 150.5t-57.5 150.5t-150.5 57.5t-151 -57.5t-58 -150.5zM221 553v34h182v-34h-182z" />
    <glyph glyph-name="Oslash.smcp" horiz-adv-x="624" 
d="M51 -5l67 74q-70 70 -70 183q0 115 73 186t191 71q94 0 162 -48l43 48h56l-67 -74q70 -72 70 -183q0 -115 -73 -186t-191 -71q-95 0 -162 47l-42 -47h-57zM103 252q0 -86 51 -143l285 313q-54 38 -127 38q-93 0 -151 -57.5t-58 -150.5zM520 252q0 87 -50 143l-284 -314
q52 -37 126 -37q93 0 150.5 57.5t57.5 150.5z" />
    <glyph glyph-name="Oslashacute.smcp" horiz-adv-x="624" 
d="M51 -5l67 74q-70 70 -70 183q0 115 73 186t191 71q94 0 162 -48l43 48h56l-67 -74q70 -72 70 -183q0 -115 -73 -186t-191 -71q-95 0 -162 47l-42 -47h-57zM103 252q0 -86 51 -143l285 313q-54 38 -127 38q-93 0 -151 -57.5t-58 -150.5zM520 252q0 87 -50 143l-284 -314
q52 -37 126 -37q93 0 150.5 57.5t57.5 150.5zM267 558l93 90l27 -28l-93 -89z" />
    <glyph glyph-name="Otilde.smcp" horiz-adv-x="624" 
d="M48 252q0 115 73 186t191 71t191 -71t73 -186t-73 -186t-191 -71t-191 71t-73 186zM103 252q0 -93 58 -150.5t151 -57.5t150.5 57.5t57.5 150.5t-57.5 150.5t-150.5 57.5t-151 -57.5t-58 -150.5zM240 550h-31q0 28 17.5 45.5t44.5 17.5q23 0 44.5 -17.5t36.5 -17.5
q14 0 23 9t9 23h31q0 -28 -17.5 -45.5t-45.5 -17.5q-24 0 -44.5 17.5t-35.5 17.5q-14 0 -23 -9t-9 -23z" />
    <glyph glyph-name="OE.smcp" horiz-adv-x="675" 
d="M422 459v-182h180v-46h-180v-186h208v-45h-259q-32 -5 -59 -5q-118 0 -191 71t-73 186t73 186t191 71q26 0 58 -5h257v-45h-205zM312 44q32 0 56 7v402q-24 7 -56 7q-93 0 -151 -57.5t-58 -150.5t58 -150.5t151 -57.5z" />
    <glyph glyph-name="P.smcp" horiz-adv-x="408" 
d="M68 0v504h141q68 0 109.5 -38.5t41.5 -102.5t-41.5 -102.5t-109.5 -38.5h-86v-222h-55zM305 363q0 42 -26.5 68t-69.5 26h-86v-187h86q43 0 69.5 25.5t26.5 67.5z" />
    <glyph glyph-name="Q.smcp" horiz-adv-x="624" 
d="M551 -18l-70 66q-69 -53 -169 -53q-118 0 -191 71t-73 186t73 186t191 71t191 -71t73 -186q0 -99 -60 -170l69 -66zM103 252q0 -93 58 -150.5t151 -57.5q85 0 133 39l-87 83l35 35l83 -79q44 53 44 130q0 93 -58 150.5t-150 57.5q-93 0 -151 -57.5t-58 -150.5z" />
    <glyph glyph-name="R.smcp" horiz-adv-x="419" 
d="M325 0l-125 222h-77v-222h-55v504h146q69 0 110.5 -38.5t41.5 -102.5q0 -54 -30.5 -90.5t-81.5 -47.5l132 -225h-61zM310 363q0 42 -26.5 68t-69.5 26h-91v-187h91q43 0 69.5 25.5t26.5 67.5z" />
    <glyph glyph-name="Racute.smcp" horiz-adv-x="419" 
d="M325 0l-125 222h-77v-222h-55v504h146q69 0 110.5 -38.5t41.5 -102.5q0 -54 -30.5 -90.5t-81.5 -47.5l132 -225h-61zM310 363q0 42 -26.5 68t-69.5 26h-91v-187h91q43 0 69.5 25.5t26.5 67.5zM161 558l93 90l28 -28l-94 -89z" />
    <glyph glyph-name="Rcaron.smcp" horiz-adv-x="419" 
d="M325 0l-125 222h-77v-222h-55v504h146q69 0 110.5 -38.5t41.5 -102.5q0 -54 -30.5 -90.5t-81.5 -47.5l132 -225h-61zM310 363q0 42 -26.5 68t-69.5 26h-91v-187h91q43 0 69.5 25.5t26.5 67.5zM206 531l-93 89l28 28l65 -63l66 63l27 -28z" />
    <glyph glyph-name="Rcommaaccent.smcp" horiz-adv-x="419" 
d="M325 0l-125 222h-77v-222h-55v504h146q69 0 110.5 -38.5t41.5 -102.5q0 -54 -30.5 -90.5t-81.5 -47.5l132 -225h-61zM310 363q0 42 -26.5 68t-69.5 26h-91v-187h91q43 0 69.5 25.5t26.5 67.5zM193 -156l-16 16q26 24 31 47q-12 1 -19.5 9t-7.5 19q0 13 9 21.5t22 8.5
q30 0 30 -34q0 -42 -49 -87z" />
    <glyph glyph-name="S.smcp" horiz-adv-x="416" 
d="M349 450l-34 -34q-44 44 -112 44q-47 0 -70.5 -26t-23.5 -59q0 -32 26.5 -54t63.5 -35t74.5 -28.5t64 -45t26.5 -73.5q0 -59 -41 -101.5t-119 -42.5q-99 0 -163 66l34 34q48 -51 124 -51q55 0 82.5 29t27.5 65q0 31 -26.5 51.5t-64 33.5t-75 28.5t-64 46t-26.5 76.5
q0 57 37 96t108 39q92 0 151 -59z" />
    <glyph glyph-name="Sacute.smcp" horiz-adv-x="416" 
d="M349 450l-34 -34q-44 44 -112 44q-47 0 -70.5 -26t-23.5 -59q0 -32 26.5 -54t63.5 -35t74.5 -28.5t64 -45t26.5 -73.5q0 -59 -41 -101.5t-119 -42.5q-99 0 -163 66l34 34q48 -51 124 -51q55 0 82.5 29t27.5 65q0 31 -26.5 51.5t-64 33.5t-75 28.5t-64 46t-26.5 76.5
q0 57 37 96t108 39q92 0 151 -59zM153 558l93 90l27 -28l-92 -89z" />
    <glyph glyph-name="Scaron.smcp" horiz-adv-x="416" 
d="M349 450l-34 -34q-44 44 -112 44q-47 0 -70.5 -26t-23.5 -59q0 -32 26.5 -54t63.5 -35t74.5 -28.5t64 -45t26.5 -73.5q0 -59 -41 -101.5t-119 -42.5q-99 0 -163 66l34 34q48 -51 124 -51q55 0 82.5 29t27.5 65q0 31 -26.5 51.5t-64 33.5t-75 28.5t-64 46t-26.5 76.5
q0 57 37 96t108 39q92 0 151 -59zM198 531l-93 89l28 28l65 -63l66 63l28 -28z" />
    <glyph glyph-name="Scedilla.smcp" horiz-adv-x="416" 
d="M349 450l-34 -34q-44 44 -112 44q-47 0 -70.5 -26t-23.5 -59q0 -32 26.5 -54t63.5 -35t74.5 -28.5t64 -45t26.5 -73.5q0 -57 -38.5 -98.5t-109.5 -44.5v-38q49 -10 49 -55q0 -26 -17 -42t-45 -16q-26 0 -44 18l18 18q12 -10 26 -10q16 0 26 9t10 24q0 33 -48 33v58
q-90 5 -150 66l34 34q48 -51 124 -51q55 0 82.5 29t27.5 65q0 31 -26.5 51.5t-64 33.5t-75 28.5t-64 46t-26.5 76.5q0 57 37 96t108 39q92 0 151 -59z" />
    <glyph glyph-name="Scircumflex.smcp" horiz-adv-x="416" 
d="M349 450l-34 -34q-44 44 -112 44q-47 0 -70.5 -26t-23.5 -59q0 -32 26.5 -54t63.5 -35t74.5 -28.5t64 -45t26.5 -73.5q0 -59 -41 -101.5t-119 -42.5q-99 0 -163 66l34 34q48 -51 124 -51q55 0 82.5 29t27.5 65q0 31 -26.5 51.5t-64 33.5t-75 28.5t-64 46t-26.5 76.5
q0 57 37 96t108 39q92 0 151 -59zM198 648l94 -90l-28 -27l-66 63l-65 -63l-28 27z" />
    <glyph glyph-name="Scommaaccent.smcp" horiz-adv-x="416" 
d="M349 450l-34 -34q-44 44 -112 44q-47 0 -70.5 -26t-23.5 -59q0 -32 26.5 -54t63.5 -35t74.5 -28.5t64 -45t26.5 -73.5q0 -59 -41 -101.5t-119 -42.5q-99 0 -163 66l34 34q48 -51 124 -51q55 0 82.5 29t27.5 65q0 31 -26.5 51.5t-64 33.5t-75 28.5t-64 46t-26.5 76.5
q0 57 37 96t108 39q92 0 151 -59zM188 -156l-16 16q26 24 30 47q-11 1 -18.5 9t-7.5 19q0 13 9 21.5t22 8.5q30 0 30 -34q0 -40 -49 -87z" />
    <glyph glyph-name="T.smcp" horiz-adv-x="438" 
d="M246 459v-459h-54v459h-151v45h357v-45h-152z" />
    <glyph glyph-name="Tbar.smcp" horiz-adv-x="438" 
d="M83 245v43h109v171h-151v45h357v-45h-152v-171h110v-43h-110v-245h-54v245h-109z" />
    <glyph glyph-name="two.fitted" horiz-adv-x="530" 
d="M62 53l309 306q44 44 44 129q0 74 -42.5 121t-110.5 47q-67 0 -109.5 -47t-42.5 -121h-57q0 97 58 158t151 61q94 0 152 -60.5t58 -158.5q0 -103 -64 -167l-275 -272h339v-49h-410v53z" />
    <glyph glyph-name="three.fitted" horiz-adv-x="530" 
d="M217 358v48h46q55 0 90 35t35 90t-35 90t-90 35t-89.5 -35t-34.5 -90h-57q0 78 50.5 127t130.5 49q81 0 131 -49t50 -127q0 -52 -24.5 -90.5t-66.5 -57.5q58 -20 91.5 -68t33.5 -115q0 -92 -59.5 -149.5t-155.5 -57.5q-95 0 -154.5 57.5t-59.5 149.5h56q0 -69 44 -112.5
t114 -43.5t114 43.5t44 112.5q0 70 -44 114t-114 44h-46z" />
    <glyph glyph-name="four.fitted" horiz-adv-x="530" 
d="M360 0v140h-321v32l317 528h57v-511h65v-49h-63v-140h-55zM108 189h253v426z" />
    <glyph glyph-name="five.fitted" horiz-adv-x="530" 
d="M472 212q0 -98 -58 -158.5t-152 -60.5q-93 0 -151 56.5t-58 146.5h55q0 -67 43 -109.5t111 -42.5t110.5 47t42.5 121q0 82 -47.5 132.5t-123.5 50.5q-79 0 -127 -46l-40 19l46 332h298v-49h-249l-35 -234q43 28 110 28q101 0 163 -64.5t62 -168.5z" />
    <glyph glyph-name="six.fitted" horiz-adv-x="530" 
d="M296 707l47 -28q-99 -148 -173 -276q42 25 96 25q97 0 157 -59.5t60 -157.5q0 -97 -60.5 -157.5t-157.5 -60.5q-98 0 -158 60.5t-60 161.5q0 18 2 35t4 31.5t10.5 34.5t13.5 33.5t20 40.5l24.5 43l33 54l38 60.5l48 74zM104 212q0 -75 45 -121.5t116 -46.5t116 46.5
t45 121.5q0 74 -45 120.5t-116 46.5t-116 -46.5t-45 -120.5z" />
    <glyph glyph-name="seven.fitted" horiz-adv-x="530" 
d="M58 651v49h414v-25l-262 -675h-60l252 651h-344z" />
    <glyph glyph-name="eight.fitted" horiz-adv-x="530" 
d="M83 531q0 78 50.5 127t131.5 49t131.5 -49t50.5 -127q0 -52 -24.5 -90.5t-67.5 -57.5q59 -20 92.5 -68t33.5 -115q0 -92 -60 -149.5t-156 -57.5t-156 57.5t-60 149.5q0 68 33.5 115.5t92.5 67.5q-43 19 -67.5 57.5t-24.5 90.5zM105 200q0 -69 44.5 -112.5t115.5 -43.5
t115.5 43.5t44.5 112.5q0 70 -44.5 113.5t-115.5 43.5t-115.5 -43.5t-44.5 -113.5zM140 531q0 -55 35 -89.5t90 -34.5t90 34.5t35 89.5t-35 90t-90 35t-90 -35t-35 -90z" />
    <glyph glyph-name="nine.fitted" horiz-adv-x="530" 
d="M233 -7l-47 28q98 145 173 276q-41 -25 -95 -25q-97 0 -157 59.5t-60 157.5q0 97 60.5 157.5t157.5 60.5q98 0 158 -60.5t60 -161.5q0 -76 -32.5 -141t-158.5 -259zM426 488q0 75 -44.5 121.5t-116.5 46.5t-116.5 -46.5t-44.5 -121.5q0 -74 44.5 -120.5t116.5 -46.5
t116.5 46.5t44.5 120.5z" />
    <glyph glyph-name="exclamdown.case" 
d="M67 666q0 17 12 29t29 12t29 -12t12 -29t-12 -29t-29 -12t-29 12t-12 29zM81 514h55v-514h-55v514z" />
    <glyph glyph-name="Uhungarumlaut.smcp" horiz-adv-x="526" 
d="M404 184v320h54v-320q0 -84 -54 -136.5t-141 -52.5q-88 0 -141.5 52t-53.5 137v320h54v-320q0 -63 39 -101.5t101 -38.5q63 0 102.5 38.5t39.5 101.5zM162 558l94 90l27 -28l-94 -89zM274 558l92 90l28 -28l-93 -89z" />
    <glyph glyph-name="Umacron.smcp" horiz-adv-x="526" 
d="M404 184v320h54v-320q0 -84 -54 -136.5t-141 -52.5q-88 0 -141.5 52t-53.5 137v320h54v-320q0 -63 39 -101.5t101 -38.5q63 0 102.5 38.5t39.5 101.5zM172 553v34h182v-34h-182z" />
    <glyph glyph-name="Uogonek.smcp" horiz-adv-x="526" 
d="M304 -28q0 -19 12 -30t30 -11q20 0 30 10l20 -19q-19 -19 -50 -19t-50 19t-19 50q0 17 3 24q-5 -1 -17 -1q-88 0 -141.5 52t-53.5 137v320h54v-320q0 -63 39 -101.5t101 -38.5q63 0 102.5 38.5t39.5 101.5v320h54v-320q0 -71 -39.5 -120.5t-106.5 -63.5q-8 -11 -8 -28z
" />
    <glyph glyph-name="Uring.smcp" horiz-adv-x="526" 
d="M404 184v320h54v-320q0 -84 -54 -136.5t-141 -52.5q-88 0 -141.5 52t-53.5 137v320h54v-320q0 -63 39 -101.5t101 -38.5q63 0 102.5 38.5t39.5 101.5zM197 591q0 29 18.5 46.5t47.5 17.5q30 0 48 -17.5t18 -46.5t-18 -47t-48 -18q-29 0 -47.5 18t-18.5 47zM223 591
q0 -18 11 -28.5t29 -10.5t29 10.5t11 28.5q0 17 -11.5 28t-28.5 11q-18 0 -29 -11t-11 -28z" />
    <glyph glyph-name="Utilde.smcp" horiz-adv-x="526" 
d="M404 184v320h54v-320q0 -84 -54 -136.5t-141 -52.5q-88 0 -141.5 52t-53.5 137v320h54v-320q0 -63 39 -101.5t101 -38.5q63 0 102.5 38.5t39.5 101.5zM191 550h-31q0 28 17.5 45.5t44.5 17.5q23 0 44.5 -17.5t36.5 -17.5q14 0 22.5 9t8.5 23h32q0 -28 -17.5 -45.5
t-45.5 -17.5q-24 0 -45 17.5t-35 17.5t-23 -9t-9 -23z" />
    <glyph glyph-name="V.smcp" horiz-adv-x="581" 
d="M549 504l-233 -504h-51l-233 504h63l195 -434l196 434h63z" />
    <glyph glyph-name="W.smcp" horiz-adv-x="871" 
d="M840 504l-198 -504h-55l-152 412l-151 -412h-55l-197 504h62l162 -421l152 421h55l152 -421l162 421h63z" />
    <glyph glyph-name="Wacute.smcp" horiz-adv-x="871" 
d="M840 504l-198 -504h-55l-152 412l-151 -412h-55l-197 504h62l162 -421l152 421h55l152 -421l162 421h63zM390 558l94 90l27 -28l-94 -89z" />
    <glyph glyph-name="Wcircumflex.smcp" horiz-adv-x="871" 
d="M840 504l-198 -504h-55l-152 412l-151 -412h-55l-197 504h62l162 -421l152 421h55l152 -421l162 421h63zM435 648l94 -90l-28 -27l-66 63l-65 -63l-28 27z" />
    <glyph glyph-name="Wdieresis.smcp" horiz-adv-x="871" 
d="M840 504l-198 -504h-55l-152 412l-151 -412h-55l-197 504h62l162 -421l152 421h55l152 -421l162 421h63zM331 574q0 14 10.5 23.5t24.5 9.5t23.5 -9.5t9.5 -23.5t-9.5 -24t-23.5 -10t-24.5 10t-10.5 24zM472 574q0 14 9.5 24t23.5 10q15 0 25 -10t10 -24t-10 -24t-25 -10
q-14 0 -23.5 10t-9.5 24z" />
    <glyph glyph-name="Wgrave.smcp" horiz-adv-x="871" 
d="M840 504l-198 -504h-55l-152 412l-151 -412h-55l-197 504h62l162 -421l152 421h55l152 -421l162 421h63zM387 648l94 -90l-27 -27l-94 89z" />
    <glyph glyph-name="X.smcp" horiz-adv-x="560" 
d="M456 0l-176 219l-177 -219h-69l206 255l-201 249h70l171 -212l171 212h69l-202 -249l208 -255h-70z" />
    <glyph glyph-name="Y.smcp" horiz-adv-x="519" 
d="M232 0v218l-200 286h63l164 -233l165 233h63l-201 -286v-218h-54z" />
    <glyph glyph-name="Yacute.smcp" horiz-adv-x="519" 
d="M232 0v218l-200 286h63l164 -233l165 233h63l-201 -286v-218h-54zM214 558l93 90l27 -28l-93 -89z" />
    <glyph glyph-name="Ycircumflex.smcp" horiz-adv-x="519" 
d="M232 0v218l-200 286h63l164 -233l165 233h63l-201 -286v-218h-54zM259 648l93 -90l-27 -27l-66 63l-65 -63l-28 27z" />
    <glyph glyph-name="Ydieresis.smcp" horiz-adv-x="519" 
d="M232 0v218l-200 286h63l164 -233l165 233h63l-201 -286v-218h-54zM155 574q0 14 10 23.5t24 9.5t24 -9.5t10 -23.5t-10 -24t-24 -10t-24 10t-10 24zM295 574q0 14 10 24t24 10t24 -10t10 -24t-10 -24t-24 -10t-24 10t-10 24z" />
    <glyph glyph-name="Ygrave.smcp" horiz-adv-x="519" 
d="M232 0v218l-200 286h63l164 -233l165 233h63l-201 -286v-218h-54zM211 648l93 -90l-27 -27l-93 89z" />
    <glyph glyph-name="Z.smcp" horiz-adv-x="489" 
d="M53 459v45h386v-19l-313 -440h315v-45h-393v20l313 439h-308z" />
    <glyph glyph-name="Zacute.smcp" horiz-adv-x="489" 
d="M53 459v45h386v-19l-313 -440h315v-45h-393v20l313 439h-308zM199 558l93 90l27 -28l-92 -89z" />
    <glyph glyph-name="Zcaron.smcp" horiz-adv-x="489" 
d="M53 459v45h386v-19l-313 -440h315v-45h-393v20l313 439h-308zM244 531l-93 89l28 28l65 -63l66 63l27 -28z" />
    <glyph glyph-name="Zdotaccent.smcp" horiz-adv-x="489" 
d="M53 459v45h386v-19l-313 -440h315v-45h-393v20l313 439h-308zM209 583q0 15 10 25t25 10t25.5 -10t10.5 -25q0 -14 -10.5 -24.5t-25.5 -10.5t-25 10.5t-10 24.5z" />
    <glyph glyph-name="uni018F.smcp" horiz-adv-x="580" 
d="M531 252q0 -115 -66.5 -186t-174.5 -71t-175 71t-67 186v21h427q-7 84 -64 135.5t-145 51.5q-98 0 -156 -58l-34 35q72 72 192 72q118 0 190.5 -71t72.5 -186zM290 44q78 0 128 50.5t56 133.5h-368q5 -83 55.5 -133.5t128.5 -50.5z" />
    <glyph glyph-name="afii10017.smcp" horiz-adv-x="581" 
d="M487 0l-67 146h-259l-67 -146h-62l233 504h51l233 -504h-62zM290 435l-109 -241h219z" />
    <glyph glyph-name="afii10018.smcp" horiz-adv-x="422" 
d="M68 0v504h265v-45h-210v-177h100q68 0 109.5 -38.5t41.5 -102.5t-41.5 -102.5t-109.5 -38.5h-155zM319 141q0 42 -26.5 67.5t-69.5 25.5h-100v-187h100q43 0 69.5 26t26.5 68z" />
    <glyph glyph-name="afii10019.smcp" horiz-adv-x="428" 
d="M68 0v504h142q63 0 101 -35.5t38 -94.5q0 -76 -62 -109q42 -13 66.5 -46.5t24.5 -79.5q0 -63 -41 -101t-107 -38h-162zM325 142q0 43 -26.5 69t-70.5 26h-105v-190h105q44 0 70.5 26t26.5 69zM296 370q0 40 -24.5 63.5t-64.5 23.5h-84v-174h84q40 0 64.5 24t24.5 63z" />
    <glyph glyph-name="afii10020.smcp" horiz-adv-x="370" 
d="M68 0v504h261v-45h-207v-459h-54z" />
    <glyph glyph-name="afii10021.smcp" horiz-adv-x="529" 
d="M441 0h-353v-108h-51v152q41 0 64 28t23 83v349h313v-459h55v-153h-51v108zM179 155q0 -75 -42 -110h245v414h-203v-304z" />
    <glyph glyph-name="afii10022.smcp" horiz-adv-x="395" 
d="M122 459v-182h198v-46h-198v-186h226v-45h-280v504h277v-45h-223z" />
    <glyph glyph-name="afii10023.smcp" horiz-adv-x="395" 
d="M122 459v-182h198v-46h-198v-186h226v-45h-280v504h277v-45h-223zM103 574q0 14 10 23.5t24 9.5t24 -9.5t10 -23.5t-10 -24t-24 -10t-24 10t-10 24zM244 574q0 14 9.5 24t23.5 10t24 -10t10 -24t-10 -24t-24 -10t-23.5 10t-9.5 24z" />
    <glyph glyph-name="afii10024.smcp" horiz-adv-x="696" 
d="M321 0v504h54v-504h-54zM598 0l-214 259l203 245h62l-203 -245l216 -259h-64zM312 259l-214 -259h-64l215 259l-203 245h63z" />
    <glyph glyph-name="afii10025.smcp" horiz-adv-x="428" 
d="M149 237v46h58q42 0 67 24t25 66q0 41 -24.5 65t-69.5 24q-66 0 -123 -54l-33 33q70 68 159 68q70 0 107.5 -36.5t37.5 -95.5q0 -78 -65 -112q41 -13 65.5 -46t24.5 -81q0 -66 -44.5 -104.5t-121.5 -38.5q-99 0 -171 72l34 34q59 -59 133 -59q55 0 86 27.5t31 72.5
q0 43 -26.5 69t-70.5 26h-79z" />
    <glyph glyph-name="afii10026.smcp" horiz-adv-x="550" 
d="M445 504h37v-504h-54v402l-323 -402h-37v504h54v-402z" />
    <glyph glyph-name="afii10027.smcp" horiz-adv-x="550" 
d="M275 581q45 0 77 30l27 -27q-41 -43 -104 -43q-61 0 -104 43l27 27q32 -30 77 -30zM445 504h37v-504h-54v402l-323 -402h-37v504h54v-402z" />
    <glyph glyph-name="afii10028.smcp" horiz-adv-x="465" 
d="M66 0v504h53v-504h-53zM362 0l-234 259l219 245h67l-218 -245l235 -259h-69z" />
    <glyph glyph-name="afii10029.smcp" horiz-adv-x="513" 
d="M39 0v34q40 0 64 22.5t24 64.5v383h318v-504h-56v459h-207v-335q0 -58 -30.5 -92.5t-77.5 -34.5q-24 0 -35 3z" />
    <glyph glyph-name="afii10030.smcp" horiz-adv-x="627" 
d="M506 0v393l-180 -277h-25l-179 277v-393h-54v504h41l205 -313l204 313h41v-504h-53z" />
    <glyph glyph-name="afii10031.smcp" horiz-adv-x="539" 
d="M122 504v-227h294v227h54v-504h-54v231h-294v-231h-54v504h54z" />
    <glyph glyph-name="afii10032.smcp" horiz-adv-x="624" 
d="M48 252q0 115 73 186t191 71t191 -71t73 -186t-73 -186t-191 -71t-191 71t-73 186zM103 252q0 -93 58 -150.5t151 -57.5t150.5 57.5t57.5 150.5t-57.5 150.5t-150.5 57.5t-151 -57.5t-58 -150.5z" />
    <glyph glyph-name="afii10033.smcp" horiz-adv-x="517" 
d="M68 504h381v-504h-54v459h-273v-459h-54v504z" />
    <glyph glyph-name="afii10034.smcp" horiz-adv-x="408" 
d="M68 0v504h141q68 0 109.5 -38.5t41.5 -102.5t-41.5 -102.5t-109.5 -38.5h-86v-222h-55zM305 363q0 42 -26.5 68t-69.5 26h-86v-187h86q43 0 69.5 25.5t26.5 67.5z" />
    <glyph glyph-name="afii10035.smcp" horiz-adv-x="546" 
d="M103 252q0 -93 59 -150.5t153 -57.5q97 0 154 57l35 -34q-72 -72 -192 -72q-118 0 -191 71t-73 186t73 186t191 71q120 0 192 -72l-35 -35q-58 58 -154 58q-94 0 -153 -57.5t-59 -150.5z" />
    <glyph glyph-name="afii10036.smcp" horiz-adv-x="438" 
d="M246 459v-459h-54v459h-151v45h357v-45h-152z" />
    <glyph glyph-name="afii10037.smcp" horiz-adv-x="477" 
d="M447 504l-265 -504h-58l89 158l-183 346h58l151 -283l150 283h58z" />
    <glyph glyph-name="afii10038.smcp" horiz-adv-x="594" 
d="M270 0v49q-99 0 -160.5 56t-61.5 147t61.5 147t160.5 56v49h54v-49q99 0 160.5 -56t61.5 -147t-61.5 -147t-160.5 -56v-49h-54zM324 406v-308q75 0 121 42.5t46 111.5t-46 111.5t-121 42.5zM270 98v308q-74 0 -120.5 -42.5t-46.5 -111.5t46.5 -111.5t120.5 -42.5z" />
    <glyph glyph-name="afii10039.smcp" horiz-adv-x="560" 
d="M456 0l-176 219l-177 -219h-69l206 255l-201 249h70l171 -212l171 212h69l-202 -249l208 -255h-70z" />
    <glyph glyph-name="afii10040.smcp" horiz-adv-x="564" 
d="M476 0h-408v504h54v-459h298v459h54v-459h53v-153h-51v108z" />
    <glyph glyph-name="afii10041.smcp" horiz-adv-x="454" 
d="M386 0h-52v227q-54 -14 -113 -14q-74 0 -113.5 39.5t-39.5 114.5v137h52v-136q0 -112 111 -112q65 0 103 15v233h52v-504z" />
    <glyph glyph-name="afii10042.smcp" horiz-adv-x="783" 
d="M714 0h-646v504h54v-459h242v459h54v-459h242v459h54v-504z" />
    <glyph glyph-name="afii10043.smcp" horiz-adv-x="804" 
d="M716 0h-648v504h54v-459h242v459h54v-459h242v459h54v-459h53v-153h-51v108z" />
    <glyph glyph-name="afii10044.smcp" horiz-adv-x="505" 
d="M41 459v45h172v-222h92q68 0 110 -38.5t42 -102.5t-41.5 -102.5t-110.5 -38.5h-147v459h-117zM402 141q0 42 -26.5 67.5t-70.5 25.5h-92v-187h92q43 0 70 26t27 68z" />
    <glyph glyph-name="afii10045.smcp" horiz-adv-x="567" 
d="M68 0v504h55v-222h94q68 0 109.5 -38.5t41.5 -102.5t-41.5 -102.5t-109.5 -38.5h-149zM312 141q0 42 -26 67.5t-69 25.5h-94v-187h94q43 0 69 26t26 68zM445 0v504h53v-504h-53z" />
    <glyph glyph-name="afii10046.smcp" horiz-adv-x="416" 
d="M68 0v504h55v-222h94q68 0 109.5 -38.5t41.5 -102.5t-41.5 -102.5t-109.5 -38.5h-149zM312 141q0 42 -26 67.5t-69 25.5h-94v-187h94q43 0 69 26t26 68z" />
    <glyph glyph-name="afii10047.smcp" horiz-adv-x="546" 
d="M75 402l-34 35q74 72 192 72t191 -71t73 -186t-73 -186t-191 -71t-192 72l34 34q59 -57 156 -57q89 0 146 51t63 136h-267v46h267q-8 82 -65 132.5t-144 50.5q-96 0 -156 -58z" />
    <glyph glyph-name="afii10048.smcp" horiz-adv-x="792" 
d="M122 504v-227h142q7 104 72.5 168t166.5 64q107 0 174 -71t67 -186t-67 -186t-174 -71q-102 0 -167.5 65t-71.5 171h-142v-231h-54v504h54zM318 252q0 -93 51 -150.5t134 -57.5t134.5 57.5t51.5 150.5t-51.5 150.5t-134.5 57.5t-134 -57.5t-51 -150.5z" />
    <glyph glyph-name="afii10049.smcp" horiz-adv-x="427" 
d="M359 504v-504h-55v222h-84l-121 -222h-62l130 224q-55 9 -87 46t-32 93q0 64 41.5 102.5t110.5 38.5h159zM103 363q0 -42 26.5 -67.5t70.5 -25.5h104v187h-104q-43 0 -70 -26t-27 -68z" />
    <glyph glyph-name="afii10050.smcp" horiz-adv-x="369" 
d="M122 459v-459h-54v504h208v90h42v-135h-196z" />
    <glyph glyph-name="afii10051.smcp" horiz-adv-x="541" 
d="M379 0v34q19 0 30.5 10.5t11.5 28.5v103q0 38 -24 62t-63 24q-54 0 -88 -32v-230h-54v459h-151v45h357v-45h-152v-182q42 33 100 33t93.5 -37t35.5 -97v-104q0 -35 -19.5 -55t-52.5 -20q-18 0 -24 3z" />
    <glyph glyph-name="afii10052.smcp" horiz-adv-x="370" 
d="M152 558l93 90l27 -28l-93 -89zM68 0v504h261v-45h-207v-459h-54z" />
    <glyph glyph-name="afii10053.smcp" horiz-adv-x="546" 
d="M315 460q-88 0 -145 -50.5t-65 -132.5h314v-46h-314q6 -85 63.5 -136t146.5 -51q97 0 154 57l35 -34q-72 -72 -192 -72q-118 0 -191 71t-73 186t73 186t191 71q120 0 192 -72l-35 -35q-58 58 -154 58z" />
    <glyph glyph-name="afii10054.smcp" horiz-adv-x="416" 
d="M349 450l-34 -34q-44 44 -112 44q-47 0 -70.5 -26t-23.5 -59q0 -32 26.5 -54t63.5 -35t74.5 -28.5t64 -45t26.5 -73.5q0 -59 -41 -101.5t-119 -42.5q-99 0 -163 66l34 34q48 -51 124 -51q55 0 82.5 29t27.5 65q0 31 -26.5 51.5t-64 33.5t-75 28.5t-64 46t-26.5 76.5
q0 57 37 96t108 39q92 0 151 -59z" />
    <glyph glyph-name="afii10055.smcp" horiz-adv-x="185" 
d="M66 0v504h53v-504h-53z" />
    <glyph glyph-name="afii10056.smcp" horiz-adv-x="186" 
d="M66 0v504h53v-504h-53zM1 574q0 14 9.5 23.5t24.5 9.5q14 0 24 -9.5t10 -23.5t-10 -24t-24 -10q-15 0 -24.5 10t-9.5 24zM118 574q0 14 9.5 24t23.5 10t24 -10t10 -24t-10 -24t-24 -10t-23.5 10t-9.5 24z" />
    <glyph glyph-name="afii10057.smcp" horiz-adv-x="360" 
d="M240 137v367h54v-367q0 -64 -41 -103t-106 -39q-64 0 -106 40l35 35q24 -26 69 -26q42 0 68.5 25.5t26.5 67.5z" />
    <glyph glyph-name="afii10058.smcp" horiz-adv-x="725" 
d="M378 0v459h-196v-335q0 -58 -30.5 -92.5t-77.5 -34.5q-24 0 -35 3v34q40 0 64 22.5t24 64.5v383h306v-222h93q68 0 109.5 -38.5t41.5 -102.5t-41.5 -102.5t-109.5 -38.5h-148zM622 141q0 42 -26.5 67.5t-69.5 25.5h-93v-187h93q43 0 69.5 26t26.5 68z" />
    <glyph glyph-name="afii10059.smcp" horiz-adv-x="722" 
d="M122 504v-222h252v222h56v-222h92q68 0 109.5 -38.5t41.5 -102.5t-41.5 -102.5t-109.5 -38.5h-148v234h-252v-234h-54v504h54zM619 141q0 42 -26.5 67.5t-70.5 25.5h-92v-187h92q43 0 70 26t27 68z" />
    <glyph glyph-name="afii10060.smcp" horiz-adv-x="541" 
d="M246 459v-182q42 33 100 33t93.5 -37t35.5 -97v-176h-54v176q0 38 -24 62t-63 24q-54 0 -88 -32v-230h-54v459h-151v45h357v-45h-152z" />
    <glyph glyph-name="afii10061.smcp" horiz-adv-x="465" 
d="M66 0v504h53v-504h-53zM362 0l-234 259l219 245h67l-218 -245l235 -259h-69zM187 558l93 90l27 -28l-93 -89z" />
    <glyph glyph-name="afii10062.smcp" horiz-adv-x="477" 
d="M239 581q45 0 77 30l27 -27q-43 -43 -104 -43q-60 0 -105 43l28 27q32 -30 77 -30zM447 504l-265 -504h-58l89 158l-183 346h58l151 -283l150 283h58z" />
    <glyph glyph-name="afii10145.smcp" horiz-adv-x="543" 
d="M246 0h-178v504h54v-459h298v459h54v-504h-177v-108h-51v108z" />
    <glyph glyph-name="uni040D.smcp" horiz-adv-x="550" 
d="M227 648l93 -90l-27 -27l-93 89zM445 504h37v-504h-54v402l-323 -402h-37v504h54v-402z" />
    <glyph glyph-name="uni0400.smcp" horiz-adv-x="395" 
d="M122 459v-182h198v-46h-198v-186h226v-45h-280v504h277v-45h-223zM160 648l93 -90l-27 -27l-93 89z" />
    <glyph glyph-name="uni04D8.smcp" horiz-adv-x="580" 
d="M531 252q0 -115 -66.5 -186t-174.5 -71t-175 71t-67 186v21h427q-7 84 -64 135.5t-145 51.5q-98 0 -156 -58l-34 35q72 72 192 72q118 0 190.5 -71t72.5 -186zM290 44q78 0 128 50.5t56 133.5h-368q5 -83 55.5 -133.5t128.5 -50.5z" />
    <glyph glyph-name="afii10056_afii10056.smcp" horiz-adv-x="372" 
d="M66 0v504h53v-504h-53zM1 574q0 14 9.5 23.5t24.5 9.5q14 0 24 -9.5t10 -23.5t-10 -24t-24 -10q-15 0 -24.5 10t-9.5 24zM252 0v504h54v-504h-54zM303 574q0 14 10 24t24 10q15 0 24.5 -10t9.5 -24t-9.5 -24t-24.5 -10q-14 0 -24 10t-10 24zM152 574q0 14 9.5 24t24.5 10
q14 0 24 -10t10 -24t-10 -24t-24 -10q-15 0 -24.5 10t-9.5 24z" />
    <glyph glyph-name="afii10021.alt.smcp" horiz-adv-x="633" 
d="M546 0h-458v-108h-51v153h43l211 459h51l211 -459h43v-153h-50v108zM316 436l-173 -391h348z" />
    <glyph glyph-name="afii10029.alt.smcp" horiz-adv-x="581" 
d="M32 0l233 504h51l233 -504h-63l-196 434l-195 -434h-63z" />
    <glyph glyph-name="afii10058.alt.smcp" horiz-adv-x="769" 
d="M32 0l233 504h51l103 -222h150q68 0 110 -38.5t42 -102.5t-41.5 -102.5t-110.5 -38.5h-83l-196 434l-195 -434h-63zM569 234h-129l88 -187h41q43 0 70 26t27 68t-26.5 67.5t-70.5 25.5z" />
    <glyph glyph-name="Aringacute.smcp" horiz-adv-x="581" 
d="M262 630l93 91l28 -27l-78 -74q23 -5 37 -22t14 -42q0 -43 -37 -59l230 -497h-62l-67 146h-259l-67 -146h-62l230 497q-37 16 -37 59q0 25 13 41.5t35 21.5zM290 435l-109 -241h219zM251 556q0 -17 11 -28t28 -11q18 0 29 11t11 28q0 18 -11 28.5t-29 10.5
q-17 0 -28 -10.5t-11 -28.5z" />
    <glyph glyph-name="germandbls.smcp" horiz-adv-x="462" 
d="M119 375v-375h-53v375q0 60 39.5 97t102.5 37q64 0 103.5 -36.5t39.5 -95.5q0 -44 -25.5 -75.5t-68.5 -42.5q0 -31 24.5 -50.5t54.5 -28.5t54.5 -32.5t24.5 -61.5q0 -37 -29 -64t-82 -27q-69 0 -110 43l33 32q29 -31 74 -31q31 0 46.5 15t15.5 33q0 24 -24.5 40.5
t-54.5 26.5t-54.5 36.5t-24.5 67.5v41q41 0 66.5 22t25.5 58t-25 60t-64 24t-64 -24.5t-25 -63.5z" />
    <glyph glyph-name="at.smcp" horiz-adv-x="615" 
d="M482 93l26 -25q-73 -73 -198 -73q-119 0 -192.5 71t-73.5 186t73.5 186t190.5 71q119 0 191 -68t72 -168q0 -75 -37.5 -110t-86.5 -35t-65 27q-32 -27 -77 -27q-54 0 -87.5 34.5t-33.5 89.5q0 56 36 90t94 34q67 0 103 -39v-146q0 -26 38 -26q30 0 52 24.5t22 78.5
q0 89 -59.5 147t-160.5 58q-100 0 -161.5 -61t-61.5 -160t61.5 -160t163.5 -61q111 0 171 62zM226 252q0 -40 24 -63.5t65 -23.5q39 0 61 21v136q-25 17 -63 17q-40 0 -63.5 -23.5t-23.5 -63.5z" />
    <glyph glyph-name="parenleft.smcp" horiz-adv-x="244" 
d="M194 545v-39q-35 0 -59.5 -72t-24.5 -183q0 -110 24.5 -181.5t59.5 -71.5v-39q-59 0 -98.5 82t-39.5 211t39.5 211t98.5 82z" />
    <glyph glyph-name="parenright.smcp" horiz-adv-x="244" 
d="M49 506v39q59 0 98.5 -81.5t39.5 -211.5t-39.5 -211.5t-98.5 -81.5v39q35 0 60 71.5t25 182.5t-25 182.5t-60 71.5z" />
    <glyph glyph-name="bracketleft.smcp" horiz-adv-x="243" 
d="M194 540v-41h-76v-494h76v-41h-128v576h128z" />
    <glyph glyph-name="bracketright.smcp" horiz-adv-x="243" 
d="M49 499v41h128v-576h-128v41h76v494h-76z" />
    <glyph glyph-name="braceleft.smcp" horiz-adv-x="259" 
d="M218 -2v-39q-49 0 -82 35t-33 89v54q0 41 -18.5 67.5t-43.5 26.5v40q25 0 43.5 26.5t18.5 67.5v56q0 54 33 89t82 35v-39q-25 0 -43 -26.5t-18 -66.5v-54q0 -79 -64 -108q64 -29 64 -107v-54q0 -40 18 -66t43 -26z" />
    <glyph glyph-name="braceright.smcp" horiz-adv-x="259" 
d="M41 -41v39q25 0 43.5 26t18.5 66v54q0 79 64 107q-64 28 -64 108v54q0 40 -18.5 66.5t-43.5 26.5v39q49 0 82.5 -35t33.5 -89v-56q0 -41 18 -67.5t43 -26.5v-40q-25 0 -43 -26.5t-18 -67.5v-54q0 -54 -33.5 -89t-82.5 -35z" />
    <glyph glyph-name="exclamdown.smcp" horiz-adv-x="184" 
d="M56 474q0 15 10.5 25t25.5 10t25.5 -10t10.5 -25q0 -14 -10.5 -24.5t-25.5 -10.5t-25.5 10.5t-10.5 24.5zM66 366h52v-366h-52v366z" />
    <glyph glyph-name="questiondown.smcp" horiz-adv-x="373" 
d="M299 82l35 -34q-59 -53 -144 -53q-70 0 -108 37.5t-38 91.5q0 36 18.5 61.5t40 38.5t40 38.5t18.5 61.5v42h52v-42q0 -36 -12 -63t-28.5 -42t-33.5 -28t-29 -29t-12 -37q0 -33 23.5 -58.5t69.5 -25.5q67 0 108 41zM223 474q0 -14 -10.5 -24.5t-25.5 -10.5
q-14 0 -24.5 10.5t-10.5 24.5q0 15 10.5 25t24.5 10q15 0 25.5 -10t10.5 -25z" />
    <glyph glyph-name="bar.smcp" horiz-adv-x="184" 
d="M66 -36v576h52v-576h-52z" />
    <glyph glyph-name="brokenbar.smcp" horiz-adv-x="184" 
d="M66 -36v252h52v-252h-52zM118 540v-252h-52v252h52z" />
    <glyph glyph-name="dagger.smcp" horiz-adv-x="395" 
d="M56 345v41h115v154h52v-154h116v-41h-116v-381h-52v381h-115z" />
    <glyph glyph-name="daggerdbl.smcp" horiz-adv-x="395" 
d="M56 129v41h115v175h-115v41h115v154h52v-154h116v-41h-116v-175h116v-41h-116v-165h-52v165h-115z" />
    <glyph glyph-name="zero.smcp" horiz-adv-x="444" 
d="M48 252q0 115 48.5 186t125.5 71t125.5 -71t48.5 -186t-48.5 -186t-125.5 -71t-125.5 71t-48.5 186zM102 252q0 -94 33.5 -152.5t86.5 -58.5t86.5 58.5t33.5 152.5t-33.5 152.5t-86.5 58.5t-86.5 -58.5t-33.5 -152.5z" />
    <glyph glyph-name="one.smcp" horiz-adv-x="255" 
d="M34 442v42l134 23v-507h-51v457z" />
    <glyph glyph-name="two.smcp" horiz-adv-x="407" 
d="M48 46l228 219q31 29 31 85q0 50 -29.5 81t-76.5 31q-46 0 -75.5 -31t-29.5 -81h-53q0 71 43.5 115t114.5 44q72 0 116 -44t44 -115q0 -75 -48 -120l-195 -185h243v-45h-313v46z" />
    <glyph glyph-name="three.smcp" horiz-adv-x="418" 
d="M174 251v45h34q39 0 63 23t24 60t-24 60.5t-63 23.5t-63 -23.5t-24 -60.5h-54q0 58 39 94t102 36t102 -36t39 -94q0 -72 -66 -105q42 -14 65.5 -47.5t23.5 -80.5q0 -67 -45.5 -109t-118.5 -42t-118.5 42t-45.5 109h54q0 -47 30.5 -76t79.5 -29t79.5 29t30.5 76t-30.5 76
t-79.5 29h-34z" />
    <glyph glyph-name="four.smcp" horiz-adv-x="430" 
d="M281 0v97h-240v27l236 380h54v-361h47v-46h-45v-97h-52zM106 143h176v282z" />
    <glyph glyph-name="five.smcp" horiz-adv-x="407" 
d="M361 154q0 -71 -44 -115t-116 -44q-71 0 -114.5 41t-43.5 108h52q0 -45 29.5 -73.5t76.5 -28.5t76.5 31t29.5 81q0 54 -33 88t-86 34q-55 0 -89 -31l-37 16l33 243h227v-45h-181l-24 -152q27 15 74 15q76 0 123 -46.5t47 -121.5z" />
    <glyph glyph-name="six.smcp" horiz-adv-x="417" 
d="M230 509l44 -25q-81 -109 -127 -189q30 15 62 15q73 0 118.5 -43.5t45.5 -114.5q0 -70 -45.5 -113.5t-119.5 -43.5t-119 44t-45 118q0 66 35 128.5t151 223.5zM98 153q0 -50 30.5 -81t79.5 -31t80 31t31 81t-31 81t-80 31t-79.5 -31t-30.5 -81z" />
    <glyph glyph-name="seven.smcp" horiz-adv-x="412" 
d="M48 459v45h316v-19l-191 -485h-56l180 459h-249z" />
    <glyph glyph-name="eight.smcp" horiz-adv-x="421" 
d="M70 379q0 58 39 94t101 36q63 0 102 -36t39 -94q0 -72 -65 -105q41 -14 64.5 -47.5t23.5 -80.5q0 -67 -45.5 -109t-118.5 -42t-118 42t-45 109q0 47 23 80.5t64 47.5q-64 32 -64 105zM100 146q0 -47 30.5 -76t79.5 -29t80 29t31 76t-31 76t-80 29t-79.5 -29t-30.5 -76z
M123 379q0 -37 24.5 -59.5t62.5 -22.5q39 0 63 22.5t24 59.5t-24 60.5t-63 23.5q-38 0 -62.5 -23.5t-24.5 -60.5z" />
    <glyph glyph-name="nine.smcp" horiz-adv-x="417" 
d="M187 -5l-45 25q73 96 128 189q-30 -15 -62 -15q-73 0 -118.5 43.5t-45.5 114.5q0 70 45.5 113.5t119.5 43.5t119 -44t45 -118q0 -66 -35 -128.5t-151 -223.5zM319 351q0 50 -31 81t-80 31t-79.5 -31t-30.5 -81t30.5 -81t79.5 -31t80 31t31 81z" />
    <glyph glyph-name="dollar.smcp" horiz-adv-x="416" 
d="M190 -72v67q-89 5 -149 66l34 34q45 -48 115 -51v189q-32 12 -51 21t-41.5 25.5t-33.5 40t-11 54.5q0 55 34.5 93.5t102.5 41.5v67h32v-69q76 -8 127 -57l-34 -34q-35 35 -93 43v-181q35 -13 52.5 -21.5t42.5 -25t36 -39.5t11 -53q0 -55 -36.5 -96.5t-105.5 -46.5v-68
h-32zM309 138q0 30 -22 48.5t-65 35.5v-177q43 7 65 34.5t22 58.5zM109 375q0 -31 21 -50t60 -35v169q-41 -4 -61 -29t-20 -55z" />
    <glyph glyph-name="Euro.smcp" horiz-adv-x="581" 
d="M41 285v32h50q20 88 88.5 140t168.5 52q118 0 192 -72l-34 -35q-60 58 -155 58q-76 0 -130 -38.5t-73 -104.5h204v-32h-210q-2 -11 -2 -33q0 -23 2 -33h210v-32h-204q19 -66 72.5 -104.5t130.5 -38.5q96 0 155 57l34 -34q-74 -72 -192 -72q-100 0 -168.5 52t-88.5 140
h-50v32h45q-2 20 -2 33q0 11 2 33h-45z" />
    <glyph glyph-name="sterling.smcp" horiz-adv-x="404" 
d="M41 231v42h57v94q0 64 40.5 103t105.5 39q66 0 106 -40l-34 -35q-26 26 -70 26q-42 0 -68.5 -25.5t-26.5 -67.5v-94h135v-42h-135v-147q19 -5 57.5 -25t61.5 -20q20 0 32 12t12 31h43q0 -39 -24 -63t-62 -24q-33 0 -77.5 24t-67.5 24q-20 0 -32 -11.5t-12 -31.5h-43
q0 32 16 53.5t43 29.5v148h-57z" />
    <glyph glyph-name="yen.smcp" horiz-adv-x="519" 
d="M126 159v32h106v27l-200 286h63l164 -233l165 233h63l-201 -286v-27h107v-32h-107v-61h107v-31h-107v-67h-54v67h-106v31h106v61h-106z" />
    <glyph glyph-name="uni20B4.smcp" horiz-adv-x="339" 
d="M43 281v32h156l10 9q33 33 33 66q0 32 -23.5 53t-59.5 21q-51 0 -82 -34l-33 33q43 48 115 48q61 0 98.5 -33t37.5 -86q0 -44 -30 -77h31v-32h-63l-59 -57h122v-31h-154l-11 -11q-34 -32 -34 -66q0 -32 23.5 -53t59.5 -21q51 0 82 34l33 -33q-42 -48 -115 -48
q-61 0 -98.5 33t-37.5 86q0 43 31 79h-32v31h63l60 57h-123z" />
    <glyph glyph-name="numbersign.smcp" horiz-adv-x="473" 
d="M259 0l22 127h-130l-22 -127h-52l21 127h-57v42h64l27 166h-64v42h71l22 127h52l-22 -127h131l21 127h52l-21 -127h58v-42h-64l-28 -166h65v-42h-72l-21 -127h-53zM185 335l-28 -166h131l27 166h-130z" />
    <glyph glyph-name="zero.fitted.smcp" horiz-adv-x="417" 
d="M38 252q0 115 47.5 186t123.5 71t123 -71t47 -186t-47 -186t-123 -71t-123.5 71t-47.5 186zM92 252q0 -94 32.5 -152.5t84.5 -58.5t84 58.5t32 152.5t-32 152.5t-84 58.5t-84.5 -58.5t-32.5 -152.5z" />
    <glyph glyph-name="one.fitted.smcp" horiz-adv-x="417" 
d="M96 0v41h86v416l-92 -15v42l144 23v-466h87v-41h-225z" />
    <glyph glyph-name="two.fitted.smcp" horiz-adv-x="418" 
d="M53 46l230 219q31 29 31 85q0 49 -30 80.5t-77 31.5t-76.5 -31t-29.5 -81h-54q0 71 44.5 115t115.5 44t115.5 -44t44.5 -115q0 -73 -50 -120l-196 -185h246v-45h-314v46z" />
    <glyph glyph-name="three.fitted.smcp" horiz-adv-x="418" 
d="M174 251v45h34q38 0 62.5 23t24.5 60t-24.5 60.5t-62.5 23.5q-39 0 -63 -23.5t-24 -60.5h-53q0 58 38.5 94t101.5 36t102 -36t39 -94q0 -72 -65 -105q41 -15 64.5 -48.5t23.5 -79.5q0 -67 -45.5 -109t-118.5 -42t-118.5 42t-45.5 109h54q0 -47 30.5 -76t79.5 -29t79.5 29
t30.5 76t-30.5 76t-79.5 29h-34z" />
    <glyph glyph-name="four.fitted.smcp" horiz-adv-x="417" 
d="M274 0v97h-238v27l235 380h53v-361h47v-46h-45v-97h-52zM101 143h175v282z" />
    <glyph glyph-name="five.fitted.smcp" horiz-adv-x="418" 
d="M367 154q0 -71 -44.5 -115t-115.5 -44t-115.5 41t-44.5 108h52q0 -45 30 -73.5t78 -28.5q47 0 77 31.5t30 80.5q0 54 -34 88t-87 34q-55 0 -89 -31l-38 16l33 243h229v-45h-183l-23 -152q26 15 74 15q76 0 123.5 -46.5t47.5 -121.5z" />
    <glyph glyph-name="six.fitted.smcp" horiz-adv-x="418" 
d="M231 509l44 -25q-79 -107 -128 -189q28 15 63 15q73 0 118.5 -43.5t45.5 -114.5q0 -70 -45.5 -113.5t-119.5 -43.5t-119.5 44t-45.5 118q0 66 35.5 129.5t151.5 222.5zM97 153q0 -49 31.5 -80.5t80.5 -31.5t80.5 31.5t31.5 80.5t-31.5 80.5t-80.5 31.5t-80.5 -31.5
t-31.5 -80.5z" />
    <glyph glyph-name="seven.fitted.smcp" horiz-adv-x="417" 
d="M50 459v45h317v-19l-192 -485h-56l181 459h-250z" />
    <glyph glyph-name="eight.fitted.smcp" horiz-adv-x="418" 
d="M68 379q0 58 39.5 94t101.5 36q63 0 102 -36t39 -94q0 -73 -65 -105q41 -15 65 -48.5t24 -79.5q0 -67 -46 -109t-119 -42t-119 42t-46 109q0 46 24 79.5t65 48.5q-65 32 -65 105zM98 146q0 -47 31 -76t80 -29t80 29t31 76t-31 76t-80 29t-80 -29t-31 -76zM122 379
q0 -37 24.5 -59.5t62.5 -22.5q39 0 63 22.5t24 59.5t-24 60.5t-63 23.5q-38 0 -62.5 -23.5t-24.5 -60.5z" />
    <glyph glyph-name="nine.fitted.smcp" horiz-adv-x="417" 
d="M187 -5l-45 25q79 104 128 189q-28 -15 -62 -15q-73 0 -118.5 43.5t-45.5 114.5q0 70 45.5 113.5t119.5 43.5t119.5 -44t45.5 -118q0 -66 -35 -128.5t-152 -223.5zM320 351q0 50 -31 81t-81 31q-49 0 -80 -31.5t-31 -80.5t31 -80.5t80 -31.5q50 0 81 31t31 81z" />
    <glyph glyph-name="exclam.smcp" horiz-adv-x="184" 
d="M56 30q0 14 10.5 24.5t25.5 10.5t25.5 -10.5t10.5 -24.5q0 -15 -10.5 -25t-25.5 -10t-25.5 10t-10.5 25zM66 138v366h52v-366h-52z" />
    <glyph glyph-name="ampersand.smcp" horiz-adv-x="473" 
d="M262 251v45h171v-45h-59v-105q0 -67 -45.5 -109t-118.5 -42t-118 42t-45 109q0 47 23.5 80.5t64.5 47.5q-65 32 -65 105q0 58 39 94t101 36q63 0 102 -36t39 -94h-54q0 37 -24 60.5t-63 23.5q-38 0 -62.5 -23.5t-24.5 -60.5t24.5 -60t62.5 -23h22v-45h-22
q-49 0 -79.5 -29t-30.5 -76t30.5 -76t79.5 -29t80 29t31 76v105h-59z" />
    <glyph glyph-name="slash.smcp" horiz-adv-x="431" 
d="M51 -36l276 576h53l-276 -576h-53z" />
    <glyph glyph-name="backslash.smcp" horiz-adv-x="431" 
d="M104 540l276 -576h-53l-276 576h53z" />
    <glyph glyph-name="question.smcp" horiz-adv-x="373" 
d="M73 422l-34 34q58 53 143 53q70 0 108.5 -37.5t38.5 -91.5q0 -36 -18.5 -61.5t-40.5 -38.5t-40.5 -38.5t-18.5 -61.5v-42h-52v42q0 36 12 63t28.5 42t33.5 28t29 29t12 37q0 33 -23 58.5t-69 25.5q-66 0 -109 -41zM149 30q0 14 10.5 24.5t25.5 10.5t25 -10.5t10 -24.5
q0 -15 -10 -25t-25 -10t-25.5 10t-10.5 25z" />
    <glyph glyph-name="percent.smcp" horiz-adv-x="659" 
d="M165 0l276 504h53l-276 -504h-53zM41 388q0 54 35 87.5t91 33.5t91 -33.5t35 -87.5q0 -55 -35 -88.5t-91 -33.5t-91 33.5t-35 88.5zM88 388q0 -37 22 -59.5t57 -22.5t57 22.5t22 59.5q0 36 -22 59t-57 23t-57 -23t-22 -59zM366 116q0 55 35 88.5t91 33.5t91 -33.5
t35 -88.5q0 -54 -35 -87.5t-91 -33.5t-91 33.5t-35 87.5zM413 116q0 -36 22 -59t57 -23t57 23t22 59q0 37 -22 59.5t-57 22.5t-57 -22.5t-22 -59.5z" />
    <glyph glyph-name="perthousand.smcp" horiz-adv-x="952" 
d="M165 0l276 504h53l-276 -504h-53zM41 388q0 54 35 87.5t91 33.5t91 -33.5t35 -87.5q0 -55 -35 -88.5t-91 -33.5t-91 33.5t-35 88.5zM88 388q0 -37 22 -59.5t57 -22.5t57 22.5t22 59.5q0 36 -22 59t-57 23t-57 -23t-22 -59zM366 116q0 55 35 88.5t91 33.5t91 -33.5
t35 -88.5q0 -54 -35 -87.5t-91 -33.5t-91 33.5t-35 87.5zM413 116q0 -36 22 -59t57 -23t57 23t22 59q0 37 -22 59.5t-57 22.5t-57 -22.5t-22 -59.5zM659 116q0 55 35 88.5t91 33.5t91 -33.5t35 -88.5q0 -54 -35 -87.5t-91 -33.5t-91 33.5t-35 87.5zM706 116q0 -36 22 -59
t57 -23t57 23t22 59q0 37 -22 59.5t-57 22.5t-57 -22.5t-22 -59.5z" />
    <glyph glyph-name="section.smcp" horiz-adv-x="337" 
d="M129 316l154 -147l-35 -35l-155 149q-48 45 -48 105q0 54 37.5 87.5t98.5 33.5q72 0 115 -48l-33 -33q-32 34 -82 34q-37 0 -59.5 -21t-22.5 -54q0 -41 30 -71zM208 8l-154 148l35 34l155 -149q49 -46 49 -105q0 -54 -37.5 -87.5t-98.5 -33.5q-73 0 -116 48l34 33
q31 -34 82 -34q36 0 59 21t23 54q0 42 -31 71z" />
    <glyph glyph-name="paragraph.smcp" horiz-adv-x="447" 
d="M273 504v-504h-51v229h-23q-67 0 -107.5 37.5t-40.5 99.5q0 63 40.5 100.5t107.5 37.5h74zM331 0v504h50v-504h-50z" />
    <glyph glyph-name="quoteright_afii10056.smcp" horiz-adv-x="259" 
d="M139 0v504h54v-504h-54zM191 574q0 14 9.5 24t23.5 10t24 -10t10 -24t-10 -24t-24 -10t-23.5 10t-9.5 24zM22 508l-21 21q38 40 43 69q-16 2 -26.5 13t-10.5 27q0 17 12.5 29t29.5 12t28.5 -12t11.5 -37q0 -57 -67 -122z" />
    <glyph glyph-name="zero.sub" horiz-adv-x="302" 
d="M35 125q0 80 32 129.5t84 49.5t84 -49.5t32 -129.5t-32 -129.5t-84 -49.5t-84 49.5t-32 129.5zM72 125q0 -65 22 -105.5t57 -40.5t57 40.5t22 105.5t-22 105.5t-57 40.5t-57 -40.5t-22 -105.5z" />
    <glyph glyph-name="one.sub" horiz-adv-x="178" 
d="M26 258v28l91 16v-352h-36v318z" />
    <glyph glyph-name="two.sub" horiz-adv-x="278" 
d="M35 -18l152 152q20 20 20 59q0 35 -19 56.5t-50 21.5t-50.5 -22t-19.5 -56h-37q0 50 29.5 80.5t77.5 30.5q47 0 76.5 -31t29.5 -80q0 -51 -32 -83l-128 -129h160v-31h-209v32z" />
    <glyph glyph-name="three.sub" horiz-adv-x="286" 
d="M120 125v31h23q25 0 41 16t16 42t-16 41.5t-41 15.5t-41 -15.5t-16 -41.5h-38q0 40 26.5 65t68.5 25t68 -25t26 -65q0 -52 -43 -73q58 -23 58 -89q0 -47 -30 -76.5t-79 -29.5t-79.5 29.5t-30.5 76.5h37q0 -32 20.5 -52.5t52.5 -20.5t52 20.5t20 52.5t-20 52.5t-52 20.5
h-23z" />
    <glyph glyph-name="four.sub" horiz-adv-x="293" 
d="M190 -50v68h-160v18l158 264h37v-251h31v-31h-30v-68h-36zM75 49h116v196z" />
    <glyph glyph-name="five.sub" horiz-adv-x="278" 
d="M244 57q0 -49 -29.5 -80t-76.5 -31q-48 0 -77.5 28.5t-29.5 75.5h36q0 -32 19.5 -51.5t51.5 -19.5q31 0 50 21.5t19 56.5q0 37 -21.5 60.5t-56.5 23.5q-39 0 -58 -21l-27 11l22 169h152v-31h-120l-15 -106q18 11 48 11q50 0 81.5 -32.5t31.5 -84.5z" />
    <glyph glyph-name="six.sub" horiz-adv-x="286" 
d="M157 304l31 -18q-63 -92 -85 -131q18 10 40 10q49 0 79.5 -30t30.5 -79t-30.5 -79.5t-79.5 -30.5q-50 0 -80 30.5t-30 82.5q0 45 23 87.5t101 157.5zM70 56q0 -34 20.5 -55.5t52.5 -21.5t52 21.5t20 55.5t-20 55.5t-52 21.5t-52.5 -21.5t-20.5 -55.5z" />
    <glyph glyph-name="seven.sub" horiz-adv-x="281" 
d="M35 269v31h211v-13l-126 -337h-39l119 319h-165z" />
    <glyph glyph-name="eight.sub" horiz-adv-x="287" 
d="M49 214q0 40 26.5 65t68.5 25t68 -25t26 -65q0 -52 -43 -73q58 -23 58 -89q0 -47 -30 -76.5t-79 -29.5t-79.5 29.5t-30.5 76.5q0 66 58 89q-43 21 -43 73zM71 52q0 -32 20.5 -52.5t52.5 -20.5t52 20.5t20 52.5t-20 52t-52 20t-52.5 -20t-20.5 -52zM87 214q0 -26 16 -42
t41 -16t41 16t16 42t-15.5 41.5t-41.5 15.5t-41.5 -15.5t-15.5 -41.5z" />
    <glyph glyph-name="nine.sub" horiz-adv-x="286" 
d="M129 -54l-31 18q63 92 85 131q-20 -10 -40 -10q-50 0 -80 30t-30 79t30.5 79.5t79.5 30.5t79.5 -30.5t30.5 -82.5q0 -32 -15.5 -68t-32.5 -63t-76 -114zM215 194q0 34 -20 55.5t-52 21.5t-52.5 -21.5t-20.5 -55.5t20.5 -55.5t52.5 -21.5t52 21.5t20 55.5z" />
    <glyph glyph-name="comma.sub" horiz-adv-x="129" 
d="M51 -102l-13 13q19 19 23 36q-9 2 -15 8.5t-6 15.5q0 10 7 17t18 7q24 0 24 -28q0 -31 -38 -69z" />
    <glyph glyph-name="period.sub" horiz-adv-x="129" 
d="M40 -29q0 10 7 17t18 7q10 0 17 -7t7 -17t-7 -17.5t-17 -7.5q-11 0 -18 7t-7 18z" />
    <glyph glyph-name="parenleft.sub" horiz-adv-x="168" 
d="M133 329v-28q-23 0 -39.5 -50t-16.5 -126q0 -77 16.5 -126.5t39.5 -49.5v-28q-40 0 -66.5 57t-26.5 147t26.5 147t66.5 57z" />
    <glyph glyph-name="parenright.sub" horiz-adv-x="168" 
d="M35 301v28q40 0 66.5 -57t26.5 -147t-26.5 -147t-66.5 -57v28q23 0 39.5 49.5t16.5 126.5t-16.5 126.5t-39.5 49.5z" />
    <glyph glyph-name="hyphen.sub" horiz-adv-x="189" 
d="M40 110v30h109v-30h-109z" />
    <glyph glyph-name="zero.sup" horiz-adv-x="302" 
d="M35 525q0 80 32 129.5t84 49.5t84 -49.5t32 -129.5t-32 -129.5t-84 -49.5t-84 49.5t-32 129.5zM72 525q0 -65 22 -105.5t57 -40.5t57 40.5t22 105.5t-22 105.5t-57 40.5t-57 -40.5t-22 -105.5z" />
    <glyph glyph-name="one.sup" horiz-adv-x="178" 
d="M26 658v28l91 16v-352h-36v318z" />
    <glyph glyph-name="two.sup" horiz-adv-x="278" 
d="M35 382l152 152q20 20 20 59q0 35 -19 56.5t-50 21.5t-50.5 -22t-19.5 -56h-37q0 50 29.5 80.5t77.5 30.5q47 0 76.5 -31t29.5 -80q0 -51 -32 -83l-128 -129h160v-31h-209v32z" />
    <glyph glyph-name="three.sup" horiz-adv-x="286" 
d="M120 525v31h23q25 0 41 16t16 42t-16 41.5t-41 15.5t-41 -15.5t-16 -41.5h-38q0 40 26.5 65t68.5 25t68 -25t26 -65q0 -52 -43 -73q58 -23 58 -89q0 -47 -30 -76.5t-79 -29.5t-79.5 29.5t-30.5 76.5h37q0 -32 20.5 -52.5t52.5 -20.5t52 20.5t20 52.5t-20 52.5t-52 20.5
h-23z" />
    <glyph glyph-name="four.sup" horiz-adv-x="293" 
d="M190 350v68h-160v18l158 264h37v-251h31v-31h-30v-68h-36zM75 449h116v196z" />
    <glyph glyph-name="five.sup" horiz-adv-x="278" 
d="M244 457q0 -49 -29.5 -80t-76.5 -31q-48 0 -77.5 28.5t-29.5 75.5h36q0 -31 20 -51t51 -20t50 21.5t19 56.5q0 37 -21.5 60.5t-56.5 23.5q-39 0 -58 -21l-27 11l22 169h152v-31h-120l-15 -106q18 11 48 11q50 0 81.5 -32.5t31.5 -84.5z" />
    <glyph glyph-name="six.sup" horiz-adv-x="286" 
d="M157 704l31 -18q-63 -92 -85 -131q18 10 40 10q49 0 79.5 -30t30.5 -79t-30.5 -79.5t-79.5 -30.5q-50 0 -80 30.5t-30 82.5q0 45 23 87.5t101 157.5zM70 456q0 -34 20.5 -55.5t52.5 -21.5t52 21.5t20 55.5t-20 55.5t-52 21.5t-52.5 -21.5t-20.5 -55.5z" />
    <glyph glyph-name="seven.sup" horiz-adv-x="281" 
d="M35 669v31h211v-13l-126 -337h-39l119 319h-165z" />
    <glyph glyph-name="eight.sup" horiz-adv-x="287" 
d="M49 614q0 40 26.5 65t68.5 25t68 -25t26 -65q0 -52 -43 -73q58 -23 58 -89q0 -47 -30 -76.5t-79 -29.5t-79.5 29.5t-30.5 76.5q0 66 58 89q-43 21 -43 73zM71 452q0 -32 20.5 -52.5t52.5 -20.5t52 20.5t20 52.5t-20 52t-52 20t-52.5 -20t-20.5 -52zM87 614q0 -26 16 -42
t41 -16t41 16t16 42t-15.5 41.5t-41.5 15.5t-41.5 -15.5t-15.5 -41.5z" />
    <glyph glyph-name="nine.sup" horiz-adv-x="286" 
d="M129 346l-31 18q63 92 85 131q-20 -10 -40 -10q-50 0 -80 30t-30 79t30.5 79.5t79.5 30.5t79.5 -30.5t30.5 -82.5q0 -32 -15.5 -68t-32.5 -63t-76 -114zM215 594q0 34 -20 55.5t-52 21.5t-52.5 -21.5t-20.5 -55.5t20.5 -55.5t52.5 -21.5t52 21.5t20 55.5z" />
    <glyph glyph-name="comma.sup" horiz-adv-x="129" 
d="M51 298l-13 13q19 19 23 36q-9 2 -15 8.5t-6 15.5q0 10 7 17t18 7q24 0 24 -28q0 -31 -38 -69z" />
    <glyph glyph-name="period.sup" horiz-adv-x="129" 
d="M40 371q0 10 7 17t18 7q10 0 17 -7t7 -17t-7 -17.5t-17 -7.5q-11 0 -18 7t-7 18z" />
    <glyph glyph-name="parenleft.sup" horiz-adv-x="168" 
d="M133 729v-28q-23 0 -39.5 -50t-16.5 -126q0 -77 16.5 -126.5t39.5 -49.5v-28q-40 0 -66.5 57t-26.5 147t26.5 147t66.5 57z" />
    <glyph glyph-name="parenright.sup" horiz-adv-x="168" 
d="M35 701v28q40 0 66.5 -57t26.5 -147t-26.5 -147t-66.5 -57v28q23 0 39.5 49.5t16.5 126.5t-16.5 126.5t-39.5 49.5z" />
    <glyph glyph-name="hyphen.sup" horiz-adv-x="189" 
d="M40 510v30h109v-30h-109z" />
    <glyph glyph-name="Ugrave.smcp" horiz-adv-x="526" 
d="M404 184v320h54v-320q0 -84 -54 -136.5t-141 -52.5q-88 0 -141.5 52t-53.5 137v320h54v-320q0 -63 39 -101.5t101 -38.5q63 0 102.5 38.5t39.5 101.5zM215 648l93 -90l-27 -27l-93 89z" />
    <glyph glyph-name="Udieresis.smcp" horiz-adv-x="526" 
d="M404 184v320h54v-320q0 -84 -54 -136.5t-141 -52.5q-88 0 -141.5 52t-53.5 137v320h54v-320q0 -63 39 -101.5t101 -38.5q63 0 102.5 38.5t39.5 101.5zM159 574q0 14 10 23.5t24 9.5t24 -9.5t10 -23.5t-10 -24t-24 -10t-24 10t-10 24zM299 574q0 14 10 24t24 10t24 -10
t10 -24t-10 -24t-24 -10t-24 10t-10 24z" />
    <glyph glyph-name="Ucircumflex.smcp" horiz-adv-x="526" 
d="M404 184v320h54v-320q0 -84 -54 -136.5t-141 -52.5q-88 0 -141.5 52t-53.5 137v320h54v-320q0 -63 39 -101.5t101 -38.5q63 0 102.5 38.5t39.5 101.5zM263 648l93 -90l-27 -27l-66 63l-65 -63l-28 27z" />
    <glyph glyph-name="a.ord" horiz-adv-x="259" 
d="M229 477v-25q-8 -2 -16 -2q-29 0 -40 26q-30 -28 -71 -28q-35 0 -53 20t-18 47q0 37 34 59t86 22q11 0 19 -2v31q0 19 -13 33t-38 14q-36 0 -55 -21l-21 21q30 32 79 32q41 0 63 -23t22 -56v-127q0 -21 22 -21zM113 480q36 0 57 24v64q-4 1 -17 1q-37 0 -60.5 -13.5
t-23.5 -36.5q0 -15 10.5 -27t33.5 -12z" />
    <glyph glyph-name="b.ord" horiz-adv-x="307" 
d="M148 448q-66 0 -100 39h-1v378h37v-182q31 21 70 21q55 0 88.5 -35.5t33.5 -92.5t-35 -92.5t-93 -35.5zM238 576q0 41 -24.5 67.5t-64.5 26.5t-65 -27v-146q6 0 28.5 -7.5t37.5 -7.5q39 0 63.5 26t24.5 68z" />
    <glyph glyph-name="c.ord" horiz-adv-x="274" 
d="M69 576q0 -42 25 -68t65 -26q42 0 66 26l23 -23q-32 -37 -91 -37q-57 0 -91.5 35.5t-34.5 92.5t34.5 92.5t91.5 35.5q58 0 91 -38l-23 -23q-24 27 -66 27q-40 0 -65 -26.5t-25 -67.5z" />
    <glyph glyph-name="d.ord" horiz-adv-x="308" 
d="M262 452h-38v21q-30 -25 -74 -25q-53 0 -86 35.5t-33 92.5t34.5 92.5t90.5 35.5q36 0 68 -19v180h38v-413zM69 576q0 -42 25 -68t65 -26q42 0 65 25v138q-25 25 -65 25t-65 -26.5t-25 -67.5z" />
    <glyph glyph-name="e.ord" horiz-adv-x="290" 
d="M261 566h-190q2 -38 26.5 -61t63.5 -23q41 0 67 26l23 -23q-35 -37 -93 -37q-57 0 -92 35.5t-35 93.5q0 57 32.5 92t85.5 35t82.5 -37t29.5 -101zM149 670q-32 0 -53.5 -20.5t-24.5 -56.5h152q-4 36 -23 56.5t-51 20.5z" />
    <glyph glyph-name="egrave.ord" horiz-adv-x="290" 
d="M261 566h-190q2 -38 26.5 -61t63.5 -23q41 0 67 26l23 -23q-35 -37 -93 -37q-57 0 -92 35.5t-35 93.5q0 57 32.5 92t85.5 35t82.5 -37t29.5 -101zM149 670q-32 0 -53.5 -20.5t-24.5 -56.5h152q-4 36 -23 56.5t-51 20.5zM114 822l68 -68l-20 -19l-68 68z" />
    <glyph glyph-name="f.ord" horiz-adv-x="187" 
d="M23 669v31h35v86q0 38 22 60.5t59 22.5q17 0 29 -6v-32q-10 5 -23 5q-22 0 -35 -13.5t-13 -36.5v-86h71v-31h-71v-217h-39v217h-35z" />
    <glyph glyph-name="g.ord" horiz-adv-x="288" 
d="M18 387q0 24 15.5 42t41.5 26q-32 14 -32 41q0 28 35 42q-43 22 -43 75q0 41 26.5 66t69.5 25q41 0 66 -22q19 22 42 22q3 0 7.5 -0.5t6.5 -0.5v-31q-3 1 -11 1q-13 0 -26 -13q11 -20 11 -46q0 -39 -27 -63.5t-70 -24.5q-24 0 -37.5 -8t-13.5 -21q0 -12 16.5 -20t44.5 -8
q52 0 83.5 -21t31.5 -55q0 -36 -35.5 -59.5t-89.5 -23.5q-51 0 -81.5 21.5t-30.5 55.5zM57 387q0 -21 19 -33.5t53 -12.5q37 0 62 14.5t25 37.5q0 20 -21 33t-55 13q-38 0 -60.5 -14.5t-22.5 -37.5zM73 614q0 -26 16 -42t43 -16q26 0 42.5 16t16.5 42t-16.5 42.5t-42.5 16.5
q-27 0 -43 -16.5t-16 -42.5z" />
    <glyph glyph-name="h.ord" horiz-adv-x="299" 
d="M47 865h37v-187q33 26 73 26q42 0 68 -28.5t26 -73.5v-150h-38v150q0 30 -18 49t-46 19q-41 0 -65 -27v-191h-37v413z" />
    <glyph glyph-name="i.ord" horiz-adv-x="131" 
d="M47 452v248h37v-248h-37zM40 774q0 11 7.5 18.5t18.5 7.5q10 0 18 -8t8 -18t-8 -18t-18 -8q-11 0 -18.5 7.5t-7.5 18.5z" />
    <glyph glyph-name="j.ord" horiz-adv-x="131" 
d="M39 774q0 11 7.5 18.5t18.5 7.5t18.5 -8t7.5 -18t-7.5 -18t-18.5 -8t-18.5 7.5t-7.5 18.5zM15 315v24q31 0 31 30v331h38v-332q0 -26 -14 -41t-37 -15q-13 0 -18 3z" />
    <glyph glyph-name="k.ord" horiz-adv-x="265" 
d="M84 452h-37v413h37v-279l101 114h46l-105 -116l117 -132h-45l-114 129v-129z" />
    <glyph glyph-name="l.ord" horiz-adv-x="146" 
d="M117 477v-25q-8 -2 -19 -2q-23 0 -37 15t-14 41v359h37v-358q0 -30 33 -30z" />
    </font>
</defs>
</svg>
