<?xml version="1.0" standalone="no"?>
<!DOCTYPE svg PUBLIC "-//W3C//DTD SVG 1.1//EN" "http://www.w3.org/Graphics/SVG/1.1/DTD/svg11.dtd" >
<svg>
<metadata>
Created by FontForge 20090622 at Wed Sep 21 20:22:13 2016
 By deploy user
Copyright (c) 2014 by Andriy Konstantynov. All rights reserved.
</metadata>
<defs>
<font id="ProbaPro-ExtraLight" horiz-adv-x="213" >
  <font-face 
    font-family="Proba Pro ExLt"
    font-weight="300"
    font-stretch="normal"
    units-per-em="1000"
    panose-1="2 13 0 3 3 2 0 0 0 0"
    ascent="750"
    descent="-250"
    x-height="450"
    cap-height="700"
    bbox="-23 -256 1148 982"
    underline-thickness="50"
    underline-position="-50"
    unicode-range="U+0020-U+FB03"
  />
<missing-glyph horiz-adv-x="230" 
 />
    <glyph glyph-name="ff" unicode="ff" horiz-adv-x="552" 
d="M343 0v418h-204v-418h-37v418h-68v32h68v172q0 60 36 97t95 37q26 0 53 -10v-36q-20 12 -50 12q-43 0 -70 -28t-27 -72v-172h204v172q0 60 36 97t95 37q26 0 53 -10v-36q-19 12 -50 12q-43 0 -70 -28t-27 -72v-172h147v-32h-147v-418h-37z" />
    <glyph glyph-name="fi" unicode="fi" horiz-adv-x="468" 
d="M343 0v418h-204v-418h-37v418h-68v32h68v172q0 60 36 97t95 37q26 0 53 -10v-36q-20 12 -50 12q-43 0 -70 -28t-27 -72v-172h240v-450h-36zM329 585q0 13 9.5 22.5t22.5 9.5q14 0 23.5 -9.5t9.5 -22.5t-10 -23t-23 -10t-22.5 9.5t-9.5 23.5z" />
    <glyph glyph-name="ffi" unicode="ffi" horiz-adv-x="709" 
d="M584 0v418h-204v-418h-37v418h-204v-418h-37v418h-68v32h68v172q0 60 36 97t95 37q26 0 53 -10v-36q-20 12 -50 12q-43 0 -70 -28t-27 -72v-172h204v172q0 60 36 97t95 37q26 0 53 -10v-36q-19 12 -50 12q-43 0 -70 -28t-27 -72v-172h240v-450h-36zM570 585q0 13 9 22.5
t23 9.5t23.5 -9.5t9.5 -22.5t-9.5 -23t-23.5 -10q-13 0 -22.5 9.5t-9.5 23.5z" />
    <glyph glyph-name="f_j" unicode="fj" horiz-adv-x="468" 
d="M279 -250v25q64 0 64 60v583h-204v-418h-37v418h-68v32h68v172q0 60 36 97t95 37q26 0 53 -10v-36q-20 12 -50 12q-43 0 -70 -28t-27 -72v-172h240v-615q0 -42 -21.5 -65t-54.5 -23q-18 0 -24 3zM329 585q0 13 9.5 22.5t22.5 9.5q14 0 23.5 -9.5t9.5 -22.5t-10 -23
t-23 -10t-22.5 9.5t-9.5 23.5z" />
    <glyph glyph-name="afii10104_afii10104" unicode="&#x457;&#x457;" horiz-adv-x="426" 
d="M88 0v450h37v-450h-37zM6 556q0 14 9 23t23 9t23 -9t9 -23q0 -13 -9.5 -22t-22.5 -9t-22.5 9t-9.5 22zM301 0v450h37v-450h-37zM356 556q0 14 9 23t23 9t23 -9t9 -23q0 -13 -9.5 -22t-22.5 -9t-22.5 9t-9.5 22zM181 556q0 14 9.5 23t22.5 9t22.5 -9t9.5 -23
q0 -13 -9.5 -22t-22.5 -9t-22.5 9t-9.5 22z" />
    <glyph glyph-name="afii10103_afii10104" unicode="&#x456;&#x457;" horiz-adv-x="426" 
d="M88 0v450h37v-450h-37zM74 585q0 13 9 22.5t23 9.5t23.5 -9t9.5 -23t-9.5 -23.5t-23.5 -9.5q-13 0 -22.5 9.5t-9.5 23.5zM301 0v450h37v-450h-37zM222 556q0 14 9 23t23 9q13 0 22 -9.5t9 -22.5t-9 -22t-22 -9t-22.5 9t-9.5 22zM356 556q0 14 9 23t23 9t23 -9t9 -23
q0 -13 -9.5 -22t-22.5 -9t-22.5 9t-9.5 22z" />
    <glyph glyph-name="quoteright_afii10104" unicode="&#x2019;&#x457;" horiz-adv-x="280" 
d="M46 526l-18 17q37 36 40 64q-13 1 -22 10t-9 22q0 14 9.5 23.5t23.5 9.5q32 0 32 -41q0 -49 -56 -105zM156 0v450h36v-450h-36zM211 556q0 13 9 22.5t22 9.5q14 0 23 -9t9 -23q0 -13 -9.5 -22t-22.5 -9t-22 9t-9 22z" />
    <glyph glyph-name="afii10056_afii10056" unicode="&#x407;&#x407;" horiz-adv-x="427" 
d="M88 0v700h37v-700h-37zM2 796q0 13 9.5 22t22.5 9t22.5 -9t9.5 -22q0 -14 -9 -23t-23 -9t-23 9t-9 23zM302 0v700h37v-700h-37zM361 796q0 14 9.5 23t22.5 9t22.5 -9t9.5 -23t-9.5 -23t-22.5 -9t-22.5 9t-9.5 23zM181 796q0 14 9.5 23t22.5 9t22.5 -9t9.5 -23t-9.5 -23
t-22.5 -9t-22.5 9t-9.5 23z" />
    <glyph glyph-name="f_f_j" unicode="ffj" horiz-adv-x="709" 
d="M520 -250v25q64 0 64 60v583h-204v-418h-37v418h-204v-418h-37v418h-68v32h68v172q0 60 36 97t95 37q26 0 53 -10v-36q-20 12 -50 12q-43 0 -70 -28t-27 -72v-172h204v172q0 60 36 97t95 37q26 0 53 -10v-36q-19 12 -50 12q-43 0 -70 -28t-27 -72v-172h240v-615
q0 -42 -21.5 -65t-54.5 -23q-18 0 -24 3zM570 585q0 13 9 22.5t23 9.5t23.5 -9.5t9.5 -22.5t-9.5 -23t-23.5 -10q-13 0 -22.5 9.5t-9.5 23.5z" />
    <glyph glyph-name=".notdef" horiz-adv-x="230" 
 />
    <glyph glyph-name=".null" horiz-adv-x="0" 
 />
    <glyph glyph-name="nonmarkingreturn" horiz-adv-x="333" 
 />
    <glyph glyph-name="space" unicode=" " horiz-adv-x="230" 
 />
    <glyph glyph-name="exclam" unicode="!" 
d="M74 27q0 13 9 22.5t23 9.5t23.5 -9t9.5 -23t-9.5 -23.5t-23.5 -9.5q-13 0 -22.5 9.5t-9.5 23.5zM88 180v520h37v-520h-37z" />
    <glyph glyph-name="quotedbl" unicode="&#x22;" horiz-adv-x="355" 
d="M88 450v250h34v-250h-34zM233 450v250h33v-250h-33z" />
    <glyph glyph-name="numbersign" unicode="#" horiz-adv-x="589" 
d="M334 0l32 192h-197l-32 -192h-37l32 192h-85v32h90l42 251h-90v32h96l32 193h37l-33 -193h198l32 193h38l-33 -193h86v-32h-91l-43 -251h94v-32h-98l-32 -192h-38zM216 475l-42 -251h198l42 251h-198z" />
    <glyph glyph-name="dollar" unicode="$" horiz-adv-x="511" 
d="M237 -100v94q-121 5 -191 83l24 25q59 -69 167 -73v312q-42 16 -67 29t-54 35t-43 53t-14 71q0 71 44.5 123t133.5 54v94h28v-95q101 -8 164 -74l-26 -25q-23 26 -60.5 43t-77.5 21v-299q46 -18 70 -29.5t56 -33.5t46.5 -52t14.5 -70q0 -73 -47.5 -129.5t-139.5 -61.5
v-95h-28zM414 186q0 55 -38 85.5t-111 58.5v-301q76 6 112.5 54t36.5 103zM97 530q0 -56 36 -88t104 -60v289q-71 -2 -105.5 -44.5t-34.5 -96.5z" />
    <glyph glyph-name="percent" unicode="%" horiz-adv-x="815" 
d="M208 0l361 700h39l-361 -700h-39zM47 546q0 71 43 115.5t113 44.5t113 -44.5t43 -115.5t-43 -115t-113 -44t-113 44t-43 115zM81 546q0 -57 34 -92.5t88 -35.5t88 35.5t34 92.5t-34 92.5t-88 35.5t-88 -35.5t-34 -92.5zM456 154q0 70 43.5 114.5t112.5 44.5q70 0 113 -44
t43 -115t-43 -115.5t-113 -44.5q-69 0 -112.5 44.5t-43.5 115.5zM490 154q0 -57 34 -93t88 -36t88 36t34 93t-34 92.5t-88 35.5t-88 -35.5t-34 -92.5z" />
    <glyph glyph-name="ampersand" unicode="&#x26;" horiz-adv-x="615" 
d="M345 367v33h223v-33h-93v-169q0 -91 -58 -147.5t-151 -56.5q-94 0 -152 56.5t-58 147.5q0 69 36.5 119t99.5 68q-46 18 -72.5 57.5t-26.5 93.5q0 76 48 123t125 47t124.5 -47t47.5 -123h-37q0 60 -37.5 97.5t-97.5 37.5t-98 -37.5t-38 -97.5t38 -98t98 -38h30v-33h-30
q-77 0 -125 -47t-48 -122q0 -76 48 -123t125 -47t124.5 47t47.5 123v169h-93z" />
    <glyph glyph-name="quotesingle" unicode="'" horiz-adv-x="210" 
d="M88 450v250h34v-250h-34z" />
    <glyph glyph-name="parenleft" unicode="(" horiz-adv-x="303" 
d="M239 756v-32q-54 0 -91 -133t-37 -341t37 -341.5t91 -133.5v-31q-70 0 -117.5 142t-47.5 364t47.5 364t117.5 142z" />
    <glyph glyph-name="parenright" unicode=")" horiz-adv-x="303" 
d="M64 724v32q70 0 117.5 -142t47.5 -364t-47.5 -364t-117.5 -142v31q53 0 90 134t37 341t-37 340.5t-90 133.5z" />
    <glyph glyph-name="asterisk" unicode="*" horiz-adv-x="440" 
d="M220 505l-86 -119l-25 19l86 119l-140 45l11 29l139 -45v147h31v-147l140 46l9 -29l-140 -46l87 -119l-26 -18z" />
    <glyph glyph-name="plus" unicode="+" horiz-adv-x="445" 
d="M74 285v32h133v133h32v-133h132v-32h-132v-133h-32v133h-133z" />
    <glyph glyph-name="comma" unicode="," 
d="M83 -87l-18 17q37 38 40 65q-13 1 -22 10t-9 22q0 14 9.5 23t23.5 9q32 0 32 -40q0 -50 -56 -106z" />
    <glyph glyph-name="hyphen" unicode="-" horiz-adv-x="340" 
d="M74 245v32h192v-32h-192z" />
    <glyph glyph-name="period" unicode="." 
d="M74 27q0 13 9 22.5t23 9.5t23.5 -9t9.5 -23t-9.5 -23.5t-23.5 -9.5q-13 0 -22.5 9.5t-9.5 23.5z" />
    <glyph glyph-name="slash" unicode="/" horiz-adv-x="536" 
d="M68 -50l362 800h38l-362 -800h-38z" />
    <glyph glyph-name="zero" unicode="0" horiz-adv-x="568" 
d="M57 350q0 158 63 257t164 99q102 0 164.5 -98.5t62.5 -257.5t-62.5 -257.5t-164.5 -98.5q-101 0 -164 99t-63 257zM94 350q0 -143 52.5 -232.5t137.5 -89.5t137.5 89.5t52.5 232.5t-52.5 232t-137.5 89t-137.5 -89t-52.5 -232z" />
    <glyph glyph-name="one" unicode="1" horiz-adv-x="295" 
d="M34 642v32l147 29v-703h-37v665z" />
    <glyph glyph-name="two" unicode="2" horiz-adv-x="512" 
d="M61 40l309 309q49 49 49 141q0 80 -46 130.5t-120 50.5q-73 0 -119 -50.5t-46 -130.5h-37q0 97 56 156.5t146 59.5q91 0 147 -59.5t56 -156.5q0 -105 -59 -166l-291 -291h350v-33h-395v40z" />
    <glyph glyph-name="three" unicode="3" horiz-adv-x="527" 
d="M215 367v33h46q61 0 98.5 38t37.5 98t-37.5 97.5t-98.5 37.5q-60 0 -97.5 -37.5t-37.5 -97.5h-37q0 76 47.5 123t124.5 47t125 -47t48 -123q0 -54 -26.5 -93.5t-71.5 -57.5q62 -18 98.5 -68t36.5 -119q0 -91 -58 -147.5t-152 -56.5q-93 0 -151 56.5t-58 147.5h37
q0 -76 47.5 -123t124.5 -47t125 47t48 123q0 75 -48 122t-125 47h-46z" />
    <glyph glyph-name="four" unicode="4" horiz-adv-x="533" 
d="M372 0v145h-325v26l321 529h40v-521h67v-34h-66v-145h-37zM92 179h281v463z" />
    <glyph glyph-name="five" unicode="5" horiz-adv-x="514" 
d="M456 210q0 -97 -56 -156.5t-147 -59.5q-90 0 -146 54.5t-56 142.5h37q0 -72 46 -117t119 -45q74 0 120 50.5t46 130.5q0 88 -50.5 142.5t-132.5 54.5q-86 0 -136 -48l-26 17l46 324h286v-34h-253l-40 -258q50 33 124 33q98 0 158.5 -64t60.5 -167z" />
    <glyph glyph-name="six" unicode="6" horiz-adv-x="530" 
d="M299 706l31 -18l-174 -292q47 30 109 30q95 0 154 -59t59 -156t-59 -157t-154 -60t-154 60t-59 158q0 21 2.5 38.5t5 32.5t14 39.5l20 42t33 58l42 70l58.5 95.5zM89 211q0 -82 49 -132.5t127 -50.5t127 50.5t49 132.5q0 81 -49 131.5t-127 50.5t-127 -50.5t-49 -131.5z
" />
    <glyph glyph-name="seven" unicode="7" horiz-adv-x="512" 
d="M57 666v34h398v-22l-268 -678h-40l263 666h-353z" />
    <glyph glyph-name="eight" unicode="8" horiz-adv-x="531" 
d="M93 536q0 76 48 123t125 47t124.5 -47t47.5 -123q0 -54 -26 -94t-72 -57q62 -18 98.5 -68t36.5 -119q0 -91 -58 -147.5t-151 -56.5q-94 0 -152 56.5t-58 147.5q0 69 36 119t99 68q-46 17 -72 57t-26 94zM93 198q0 -76 48 -123t125 -47t124.5 47t47.5 123q0 75 -48 122
t-124 47q-77 0 -125 -47t-48 -122zM130 536q0 -60 38 -98t98 -38t97.5 38t37.5 98t-37.5 97.5t-97.5 37.5t-98 -37.5t-38 -97.5z" />
    <glyph glyph-name="nine" unicode="9" horiz-adv-x="530" 
d="M231 -6l-31 18l173 292q-47 -31 -108 -31q-95 0 -154 59.5t-59 156.5t59 157t154 60t154 -60t59 -158q0 -21 -2.5 -38.5t-5 -33t-14 -39.5l-20.5 -42t-33 -58l-42 -69.5l-58 -95.5zM441 489q0 81 -49 131.5t-127 50.5t-127 -50.5t-49 -131.5t49 -131.5t127 -50.5
t127 50.5t49 131.5z" />
    <glyph glyph-name="colon" unicode=":" 
d="M74 27q0 13 9 22.5t23 9.5t23.5 -9t9.5 -23t-9.5 -23.5t-23.5 -9.5q-13 0 -22.5 9.5t-9.5 23.5zM74 423q0 14 9.5 23.5t22.5 9.5q14 0 23.5 -9.5t9.5 -23.5t-9.5 -23t-23.5 -9t-23 9.5t-9 22.5z" />
    <glyph glyph-name="semicolon" unicode=";" 
d="M74 423q0 14 9.5 23.5t22.5 9.5q14 0 23.5 -9.5t9.5 -23.5t-9.5 -23t-23.5 -9t-23 9.5t-9 22.5zM83 -87l-18 17q37 38 40 65q-13 1 -22 10t-9 22q0 14 9.5 23t23.5 9q32 0 32 -40q0 -50 -56 -106z" />
    <glyph glyph-name="less" unicode="&#x3c;" horiz-adv-x="410" 
d="M316 112l-271 188l271 187l23 -23l-238 -164l238 -165z" />
    <glyph glyph-name="equal" unicode="=" horiz-adv-x="492" 
d="M74 342v32h344v-32h-344zM74 171v32h344v-32h-344z" />
    <glyph glyph-name="greater" unicode="&#x3e;" horiz-adv-x="410" 
d="M356 300l-271 -188l-23 23l239 165l-239 164l23 23z" />
    <glyph glyph-name="question" unicode="?" horiz-adv-x="465" 
d="M71 609l-25 25q70 72 184 72q91 0 137 -52t46 -124q0 -42 -16.5 -72t-40 -49l-47 -38.5t-40 -53.5t-16.5 -81v-56h-36v56q0 53 16.5 91t39.5 58.5t46.5 38.5t40 44t16.5 62q0 56 -36 98.5t-110 42.5q-44 0 -88 -16.5t-71 -45.5zM203 27q0 13 9.5 22.5t22.5 9.5
q14 0 23.5 -9.5t9.5 -22.5t-10 -23t-23 -10t-22.5 9.5t-9.5 23.5z" />
    <glyph glyph-name="at" unicode="@" horiz-adv-x="1040" 
d="M857 -91l24 -23q-62 -68 -155.5 -105t-201.5 -37q-211 0 -341.5 133.5t-130.5 347.5t130.5 347.5t339.5 133.5q212 0 339 -127t127 -314q0 -72 -20 -127t-52.5 -85t-68.5 -44.5t-74 -14.5q-86 0 -105 50q-56 -50 -144 -50q-100 0 -161.5 64t-61.5 167t62 167t164 64
q110 0 173 -61v-319q0 -23 21 -35.5t56 -12.5q30 0 59 12.5t55.5 38t43 73t16.5 110.5q0 112 -49.5 204t-148 148.5t-229.5 56.5q-193 0 -314 -124t-121 -322q0 -199 121 -323t315 -124q100 0 187.5 34.5t144.5 96.5zM339 225q0 -88 52.5 -142.5t137.5 -54.5q82 0 135 51
v300q-51 42 -138 42q-85 0 -136 -54t-51 -142z" />
    <glyph glyph-name="A" unicode="A" horiz-adv-x="737" 
d="M655 0l-103 235h-367l-103 -235h-42l310 700h37l311 -700h-43zM369 655l-169 -385h337z" />
    <glyph glyph-name="B" unicode="B" horiz-adv-x="536" 
d="M92 0v700h170q80 0 129 -48t49 -129q0 -56 -25 -96.5t-69 -60.5q61 -14 96.5 -61.5t35.5 -116.5q0 -85 -51.5 -136.5t-135.5 -51.5h-199zM441 190q0 68 -42 110.5t-109 42.5h-160v-309h160q68 0 109.5 43t41.5 113zM402 522q0 65 -38.5 104.5t-102.5 39.5h-131v-289h131
q64 0 102.5 40t38.5 105z" />
    <glyph glyph-name="C" unicode="C" horiz-adv-x="705" 
d="M95 350q0 -143 86 -232t224 -89q142 0 228 91l25 -24q-96 -102 -254 -102q-155 0 -251 99t-96 257t96 257t251 99q157 0 254 -102l-25 -25q-87 92 -228 92q-138 0 -224 -89t-86 -232z" />
    <glyph glyph-name="D" unicode="D" horiz-adv-x="687" 
d="M92 0v700h191q155 0 251 -96t96 -254t-96 -254t-251 -96h-191zM591 350q0 142 -85 229t-223 87h-153v-632h153q138 0 223 87t85 229z" />
    <glyph glyph-name="E" unicode="E" horiz-adv-x="513" 
d="M130 666v-295h288v-34h-288v-304h327v-33h-365v700h360v-34h-322z" />
    <glyph glyph-name="F" unicode="F" horiz-adv-x="482" 
d="M130 666v-295h265v-34h-265v-337h-38v700h341v-34h-303z" />
    <glyph glyph-name="G" unicode="G" horiz-adv-x="751" 
d="M404 322v34h254v-261q-95 -101 -254 -101q-155 0 -251 99t-96 257t96 257t251 99q157 0 254 -102l-25 -25q-87 92 -228 92q-138 0 -224 -89t-86 -232t86 -232t224 -89q130 0 216 81v212h-217z" />
    <glyph glyph-name="H" unicode="H" horiz-adv-x="697" 
d="M130 700v-329h437v329h37v-700h-37v337h-437v-337h-38v700h38z" />
    <glyph glyph-name="I" unicode="I" horiz-adv-x="214" 
d="M88 0v700h37v-700h-37z" />
    <glyph glyph-name="J" unicode="J" horiz-adv-x="455" 
d="M329 183v517h38v-517q0 -84 -51.5 -136.5t-133.5 -52.5q-83 0 -135 54l25 26q42 -45 109 -45q66 0 107 43t41 111z" />
    <glyph glyph-name="K" unicode="K" horiz-adv-x="575" 
d="M88 0v700h37v-700h-37zM483 0l-332 358l312 342h47l-313 -342l334 -358h-48z" />
    <glyph glyph-name="L" unicode="L" horiz-adv-x="468" 
d="M130 700v-667h291v-33h-329v700h38z" />
    <glyph glyph-name="M" unicode="M" horiz-adv-x="821" 
d="M691 0v621l-268 -447h-26l-267 447v-621h-38v700h31l287 -479l288 479h30v-700h-37z" />
    <glyph glyph-name="N" unicode="N" horiz-adv-x="718" 
d="M92 700h30l466 -632v632h37v-700h-30l-465 632v-632h-38v700z" />
    <glyph glyph-name="O" unicode="O" horiz-adv-x="808" 
d="M57 350q0 158 96 257t251 99t251 -99t96 -257t-96 -257t-251 -99t-251 99t-96 257zM95 350q0 -143 86 -232t223 -89q138 0 223.5 89t85.5 232t-85.5 232t-223.5 89q-137 0 -223 -89t-86 -232z" />
    <glyph glyph-name="P" unicode="P" horiz-adv-x="509" 
d="M92 0v700h173q84 0 135.5 -51.5t51.5 -135.5t-51.5 -135t-135.5 -51h-135v-327h-38zM414 513q0 69 -41 111t-108 42h-135v-305h135q67 0 108 42t41 110z" />
    <glyph glyph-name="Q" unicode="Q" horiz-adv-x="808" 
d="M742 -29l-105 105q-93 -82 -233 -82q-155 0 -251 99t-96 257t96 257t251 99t251 -99t96 -257q0 -152 -89 -249l105 -105zM95 350q0 -143 85.5 -232t222.5 -89q127 0 209 73l-129 129l24 25l127 -127q79 87 79 221q0 143 -86 232t-224 89q-137 0 -222.5 -89t-85.5 -232z
" />
    <glyph glyph-name="R" unicode="R" horiz-adv-x="521" 
d="M437 0l-186 327h-121v-327h-38v700h179q84 0 135.5 -51.5t51.5 -135.5q0 -80 -46 -130t-122 -56l191 -327h-44zM420 513q0 69 -41 111t-108 42h-141v-305h141q67 0 108 42t41 110z" />
    <glyph glyph-name="S" unicode="S" horiz-adv-x="511" 
d="M429 631l-26 -25q-26 30 -70.5 47.5t-89.5 17.5q-74 0 -110 -43t-36 -98q0 -52 36.5 -87t89 -55l104.5 -41.5t88.5 -61t36.5 -99.5q0 -76 -51.5 -134t-152.5 -58q-59 0 -113 22t-89 61l24 25q31 -36 78.5 -54.5t96.5 -18.5q86 0 127.5 49t41.5 108q0 43 -26.5 73.5
t-65.5 46.5l-85.5 35.5t-85.5 39t-65.5 57.5t-26.5 91q0 72 45.5 124.5t137.5 52.5q116 0 187 -75z" />
    <glyph glyph-name="T" unicode="T" horiz-adv-x="558" 
d="M298 666v-666h-37v666h-214v34h465v-34h-214z" />
    <glyph glyph-name="U" unicode="U" horiz-adv-x="689" 
d="M558 251v449h38v-449q0 -115 -69.5 -186t-182.5 -71t-182.5 71t-69.5 186v449h38v-449q0 -99 59 -160.5t154 -61.5q96 0 155.5 61.5t59.5 160.5z" />
    <glyph glyph-name="V" unicode="V" horiz-adv-x="737" 
d="M698 700l-311 -700h-37l-310 700h43l286 -654l285 654h44z" />
    <glyph glyph-name="W" unicode="W" horiz-adv-x="1160" 
d="M1120 700l-271 -700h-39l-230 640l-230 -640h-39l-271 700h42l248 -647l230 647h40l230 -647l248 647h42z" />
    <glyph glyph-name="X" unicode="X" horiz-adv-x="706" 
d="M615 0l-262 327l-262 -327h-47l283 353l-277 347h47l256 -320l256 320h48l-279 -347l284 -353h-47z" />
    <glyph glyph-name="Y" unicode="Y" horiz-adv-x="655" 
d="M309 0v316l-269 384h44l244 -347l243 347h44l-269 -384v-316h-37z" />
    <glyph glyph-name="Z" unicode="Z" horiz-adv-x="625" 
d="M65 666v34h499v-22l-456 -645h460v-33h-511v22l456 644h-448z" />
    <glyph glyph-name="bracketleft" unicode="[" horiz-adv-x="296" 
d="M232 750v-32h-107v-936h107v-32h-144v1000h144z" />
    <glyph glyph-name="backslash" unicode="\" horiz-adv-x="536" 
d="M106 750l362 -800h-38l-362 800h38z" />
    <glyph glyph-name="bracketright" unicode="]" horiz-adv-x="296" 
d="M64 718v32h143v-1000h-143v32h107v936h-107z" />
    <glyph glyph-name="asciicircum" unicode="^" horiz-adv-x="466" 
d="M233 657l187 -187l-21 -22l-166 166l-166 -166l-22 22z" />
    <glyph glyph-name="underscore" unicode="_" horiz-adv-x="450" 
d="M0 -132v32h450v-32h-450z" />
    <glyph glyph-name="grave" unicode="`" horiz-adv-x="261" 
d="M85 657l112 -112l-21 -21l-112 112z" />
    <glyph glyph-name="a" unicode="a" horiz-adv-x="445" 
d="M396 25v-25q-7 -3 -21 -3q-47 0 -59 47q-56 -50 -133 -50q-65 0 -96 35.5t-31 82.5q0 65 61.5 103.5t160.5 38.5q24 0 36 -3v75q0 38 -27 67.5t-80 29.5q-31 0 -61 -10.5t-47 -28.5l-22 22q48 50 131 50q71 0 107 -38.5t36 -91.5v-259q0 -42 45 -42zM190 27q73 0 124 52
v143q-16 2 -35 2q-83 0 -135 -30t-52 -80q0 -33 23 -60t75 -27z" />
    <glyph glyph-name="b" unicode="b" horiz-adv-x="539" 
d="M262 -6q-111 0 -174 61v695h37v-339q56 45 138 45q100 0 162 -64t62 -167t-62 -167t-163 -64zM450 225q0 88 -52.5 142t-137.5 54t-135 -52v-300q52 -41 137 -41t136.5 54.5t51.5 142.5z" />
    <glyph glyph-name="c" unicode="c" horiz-adv-x="486" 
d="M89 225q0 -88 53 -142.5t138 -54.5q86 0 140 56l23 -24q-61 -66 -164 -66q-101 0 -164 64t-63 167t63 167t164 64q102 0 164 -67l-23 -24q-53 56 -140 56q-85 0 -138 -54t-53 -142z" />
    <glyph glyph-name="d" unicode="d" horiz-adv-x="542" 
d="M453 0h-36v42q-59 -48 -143 -48q-99 0 -160.5 64t-61.5 167t62.5 167t163.5 64q80 0 139 -45v339h36v-750zM89 225q0 -88 53 -142.5t138 -54.5q82 0 137 53v288q-54 52 -137 52q-85 0 -138 -54t-53 -142z" />
    <glyph glyph-name="e" unicode="e" horiz-adv-x="513" 
d="M462 219h-372q2 -86 54 -138.5t137 -52.5q87 0 140 56l24 -24q-63 -66 -166 -66q-101 0 -164 64t-63 169q0 101 58 165t151 64q92 0 146.5 -65t54.5 -172zM262 422q-71 0 -118.5 -47t-53.5 -126h334q-6 80 -49 126.5t-113 46.5z" />
    <glyph glyph-name="f" unicode="f" horiz-adv-x="311" 
d="M34 418v32h68v172q0 60 36 97t95 37q26 0 53 -10v-36q-20 12 -50 12q-43 0 -70 -28t-27 -72v-172h147v-32h-147v-418h-37v418h-68z" />
    <glyph glyph-name="g" unicode="g" horiz-adv-x="495" 
d="M31 -123q0 46 30 79t81 48q-66 23 -66 75q0 56 74 79q-43 17 -66 53.5t-23 85.5q0 72 46 115.5t120 43.5q66 0 111 -36q33 36 76 36q9 0 23 -2v-33q-11 3 -21 3q-30 0 -58 -25q34 -42 34 -101q0 -70 -46.5 -113.5t-120.5 -43.5q-52 0 -82.5 -16.5t-30.5 -43.5t35 -44
t94 -17q93 0 147 -35.5t54 -94.5q0 -64 -62.5 -105t-157.5 -41q-87 0 -139 37t-52 96zM68 -123q0 -46 41.5 -73.5t112.5 -27.5q77 0 129.5 32t52.5 81q0 45 -44.5 72t-117.5 27q-80 0 -127 -30.5t-47 -80.5zM98 298q0 -56 35.5 -90.5t93.5 -34.5q57 0 93 35t36 90
q0 56 -36 91t-93 35q-58 0 -93.5 -35t-35.5 -91z" />
    <glyph glyph-name="h" unicode="h" horiz-adv-x="529" 
d="M88 750h37v-342q57 48 142 48q76 0 123 -49t47 -129v-278h-37v278q0 64 -38 103.5t-100 39.5q-85 0 -137 -52v-369h-37v750z" />
    <glyph glyph-name="i" unicode="i" 
d="M88 0v450h37v-450h-37zM74 585q0 13 9 22.5t23 9.5t23.5 -9t9.5 -23t-9.5 -23.5t-23.5 -9.5q-13 0 -22.5 9.5t-9.5 23.5z" />
    <glyph glyph-name="j" unicode="j" 
d="M74 585q0 13 9 22.5t23 9.5t23.5 -9t9.5 -23t-9.5 -23.5t-23.5 -9.5q-13 0 -22.5 9.5t-9.5 23.5zM24 -250v25q64 0 64 60v615h37v-615q0 -42 -22 -65t-55 -23q-18 0 -24 3z" />
    <glyph glyph-name="k" unicode="k" horiz-adv-x="450" 
d="M125 0h-37v750h37v-750zM360 0l-228 238l204 212h46l-205 -212l229 -238h-46z" />
    <glyph glyph-name="l" unicode="l" horiz-adv-x="239" 
d="M190 25v-25q-8 -3 -25 -3q-33 0 -55 23t-22 65v665h37v-665q0 -60 65 -60z" />
    <glyph glyph-name="m" unicode="m" horiz-adv-x="763" 
d="M638 0v315q0 47 -28 76.5t-73 29.5q-89 0 -144 -58q7 -21 7 -48v-315h-37v315q0 47 -28 76.5t-73 29.5q-85 0 -137 -52v-369h-37v450h37v-42q57 48 142 48q77 0 114 -64q62 64 161 64q59 0 96 -39.5t37 -101.5v-315h-37z" />
    <glyph glyph-name="n" unicode="n" horiz-adv-x="525" 
d="M88 450h37v-42q57 48 142 48q76 0 123 -49t47 -129v-278h-37v278q0 64 -38 103.5t-100 39.5q-85 0 -137 -52v-369h-37v450z" />
    <glyph glyph-name="o" unicode="o" horiz-adv-x="558" 
d="M52 225q0 103 63 167t164 64q102 0 164.5 -64t62.5 -167t-62.5 -167t-164.5 -64q-101 0 -164 64t-63 167zM89 225q0 -88 52.5 -142.5t137.5 -54.5t137.5 54.5t52.5 142.5t-52.5 142t-137.5 54t-137.5 -54t-52.5 -142z" />
    <glyph glyph-name="p" unicode="p" horiz-adv-x="542" 
d="M88 450h37v-42q57 48 142 48q100 0 161.5 -64t61.5 -167t-62.5 -167t-163.5 -64q-81 0 -139 44v-288h-37v700zM452 225q0 88 -52.5 142t-137.5 54t-137 -52v-288q53 -53 137 -53q85 0 137.5 54.5t52.5 142.5z" />
    <glyph glyph-name="q" unicode="q" horiz-adv-x="539" 
d="M278 456q110 0 173 -61v-645h-37v288q-57 -44 -138 -44q-100 0 -162 64t-62 167t62 167t164 64zM89 225q0 -88 52.5 -142.5t137.5 -54.5q83 0 135 52v299q-50 42 -137 42q-85 0 -136.5 -54t-51.5 -142z" />
    <glyph glyph-name="r" unicode="r" horiz-adv-x="341" 
d="M259 455q10 0 30 -2v-34q-16 3 -31 3q-84 0 -133 -68v-354h-37v450h37v-56q55 61 134 61z" />
    <glyph glyph-name="s" unicode="s" horiz-adv-x="381" 
d="M307 407l-24 -23q-16 17 -45 28t-56 11q-45 0 -67 -26t-22 -59q0 -32 23.5 -53.5t57.5 -34l67.5 -25.5t57 -39t23.5 -64q0 -50 -35.5 -89t-104.5 -39q-86 0 -135 54l23 24q39 -45 111 -45q53 0 78.5 29.5t25.5 65.5q0 31 -23.5 51t-57.5 32.5l-67.5 26t-57 40t-23.5 65.5
q0 49 31 84t93 35q81 0 127 -49z" />
    <glyph glyph-name="t" unicode="t" horiz-adv-x="306" 
d="M30 418v32h63v100h37v-100h141v-32h-141v-296q0 -42 25.5 -68t67.5 -26q29 0 48 12v-36q-27 -10 -52 -10q-57 0 -91.5 35.5t-34.5 92.5v296h-63z" />
    <glyph glyph-name="u" unicode="u" horiz-adv-x="539" 
d="M450 450v-272q0 -82 -50 -133t-131 -51t-131 51t-50 133v272h37v-272q0 -67 40 -108.5t105 -41.5q64 0 104 41.5t40 108.5v272h36z" />
    <glyph glyph-name="v" unicode="v" horiz-adv-x="530" 
d="M491 450l-208 -450h-37l-207 450h40l186 -407l185 407h41z" />
    <glyph glyph-name="w" unicode="w" horiz-adv-x="796" 
d="M757 450l-177 -450h-39l-143 401l-143 -401h-39l-177 450h41l156 -407l143 407h38l143 -407l156 407h41z" />
    <glyph glyph-name="x" unicode="x" horiz-adv-x="501" 
d="M414 0l-163 204l-163 -204h-44l183 228l-177 222h43l158 -197l157 197h43l-178 -222l184 -228h-43z" />
    <glyph glyph-name="y" unicode="y" horiz-adv-x="530" 
d="M491 450l-326 -700h-40l121 250l-207 450h40l186 -408l185 408h41z" />
    <glyph glyph-name="z" unicode="z" horiz-adv-x="467" 
d="M60 418v32h350v-22l-304 -396h304v-32h-353v22l304 396h-301z" />
    <glyph glyph-name="braceleft" unicode="{" horiz-adv-x="326" 
d="M279 -225v-31q-57 0 -96 59t-39 151v102q0 78 -28 128t-69 50v31q40 0 68.5 50.5t28.5 127.5v103q0 92 39 151t96 59v-32q-41 0 -69 -50t-28 -128v-103q0 -70 -24 -122t-62 -71q38 -21 62 -72.5t24 -121.5v-102q0 -78 28 -128.5t69 -50.5z" />
    <glyph glyph-name="bar" unicode="|" 
d="M88 -250v1000h37v-1000h-37z" />
    <glyph glyph-name="braceright" unicode="}" horiz-adv-x="326" 
d="M47 -256v31q41 0 69 50.5t28 128.5v102q0 70 24 121.5t62 72.5q-38 19 -62 71t-24 122v103q0 78 -28 128t-69 50v32q57 0 96 -59t39 -151v-103q0 -77 28.5 -127.5t68.5 -50.5v-31q-41 0 -69 -50t-28 -128v-102q0 -92 -39 -151t-96 -59z" />
    <glyph glyph-name="asciitilde" unicode="~" horiz-adv-x="433" 
d="M75 254h-30q0 43 26.5 69.5t67.5 26.5q27 0 48 -11t32.5 -24.5t30.5 -24.5t43 -11q29 0 47 18.5t18 48.5h29q0 -43 -26 -69.5t-68 -26.5q-28 0 -49 11t-32 24.5t-29.5 24.5t-42.5 11q-29 0 -47 -18.5t-18 -48.5z" />
    <glyph glyph-name="exclamdown" unicode="&#xa1;" 
d="M74 423q0 14 9.5 23.5t22.5 9.5q14 0 23.5 -9.5t9.5 -23.5t-9.5 -23t-23.5 -9t-23 9.5t-9 22.5zM88 270h37v-520h-37v520z" />
    <glyph glyph-name="cent" unicode="&#xa2;" horiz-adv-x="486" 
d="M251 -100v96q-90 8 -144.5 70.5t-54.5 158.5q0 95 54.5 157.5t144.5 71.5v96h28v-94q102 0 164 -67l-23 -24q-53 56 -140 56h-1v-393h1q86 0 140 56l23 -24q-61 -66 -164 -66v-94h-28zM89 225q0 -80 44.5 -133t117.5 -62v389q-73 -10 -117.5 -62t-44.5 -132z" />
    <glyph glyph-name="sterling" unicode="&#xa3;" horiz-adv-x="506" 
d="M47 334v32h77v151q0 84 51.5 136.5t133.5 52.5q83 0 135 -54l-25 -26q-42 45 -109 45q-66 0 -107.5 -43t-41.5 -111v-151h191v-32h-191v-235q34 -5 94.5 -38.5t96.5 -33.5q29 0 47 18.5t18 48.5h33q0 -45 -27 -72.5t-71 -27.5t-108.5 36.5t-99.5 36.5q-29 0 -47 -18.5
t-18 -48.5h-33q0 39 21 65.5t57 32.5v236h-77z" />
    <glyph glyph-name="currency" unicode="&#xa4;" horiz-adv-x="509" 
d="M99 300q0 61 31 101l-83 84l23 22l83 -83q41 35 102 35q60 0 101 -35l84 83l22 -22l-84 -84q33 -41 33 -101t-33 -102l84 -83l-23 -23l-83 84q-41 -36 -101 -36q-61 0 -102 36l-83 -84l-23 23l83 83q-31 42 -31 102zM133 300q0 -57 34 -92.5t88 -35.5t87.5 35.5
t33.5 92.5t-33.5 92.5t-87.5 35.5t-88 -35.5t-34 -92.5z" />
    <glyph glyph-name="yen" unicode="&#xa5;" horiz-adv-x="655" 
d="M155 234v27h154v55l-269 384h44l244 -347l243 347h44l-269 -384v-55h154v-27h-154v-102h154v-27h-154v-105h-37v105h-154v27h154v102h-154z" />
    <glyph glyph-name="brokenbar" unicode="&#xa6;" 
d="M88 -250v450h37v-450h-37zM125 750v-450h-37v450h37z" />
    <glyph glyph-name="section" unicode="&#xa7;" horiz-adv-x="418" 
d="M138 433l209 -209l-25 -25l-211 209q-59 59 -59 142q0 69 46 112.5t120 43.5q92 0 149 -66l-24 -25q-47 56 -125 56q-57 0 -93 -34t-36 -88q0 -73 49 -116zM280 17l-209 209l25 25l210 -210q60 -58 60 -141q0 -69 -46.5 -112.5t-119.5 -43.5q-93 0 -150 66l25 25
q47 -56 125 -56q56 0 92 34t36 88q0 68 -48 116z" />
    <glyph glyph-name="dieresis" unicode="&#xa8;" horiz-adv-x="415" 
d="M84 574q0 14 9 23t23 9q13 0 22 -9.5t9 -22.5t-9 -22.5t-22 -9.5q-14 0 -23 9t-9 23zM266 574q0 14 9 23t23 9t23 -9t9 -23t-9 -23t-23 -9t-23 9t-9 23z" />
    <glyph glyph-name="copyright" unicode="&#xa9;" horiz-adv-x="808" 
d="M57 350q0 158 96 257t251 99t251 -99t96 -257t-96 -257t-251 -99t-251 99t-96 257zM88 350q0 -146 88 -237t228 -91q142 0 229 91t87 237t-87 237t-229 91q-140 0 -228 -91t-88 -237zM264 350q0 -68 40.5 -110.5t106.5 -42.5q65 0 108 43l18 -17q-49 -51 -127 -51
q-79 0 -127 49t-48 129t48 129t127 49q78 0 127 -51l-18 -18q-42 44 -108 44t-106.5 -42.5t-40.5 -110.5z" />
    <glyph glyph-name="ordfeminine" unicode="&#xaa;" horiz-adv-x="257" 
d="M226 471v-19q-6 -2 -13 -2q-28 0 -37 25q-31 -26 -72 -26q-35 0 -52.5 19.5t-17.5 45.5q0 37 33.5 58.5t87.5 21.5q11 0 19 -2v36q0 20 -14 35.5t-41 15.5q-38 0 -57 -21l-16 16q29 29 75 29q39 0 60 -22t21 -53v-135q0 -22 24 -22zM111 473q38 0 63 26v72q-4 1 -18 1
q-41 0 -67.5 -15t-26.5 -40q0 -17 11.5 -30.5t37.5 -13.5z" />
    <glyph glyph-name="guillemotleft" unicode="&#xab;" horiz-adv-x="470" 
d="M213 82l-168 168l168 167l21 -21l-146 -146l146 -146zM376 82l-168 168l168 167l21 -21l-146 -146l146 -146z" />
    <glyph glyph-name="logicalnot" unicode="&#xac;" horiz-adv-x="500" 
d="M74 284v32h352v-151h-32v119h-320z" />
    <glyph glyph-name="uni00AD" unicode="&#xad;" horiz-adv-x="340" 
d="M74 245v32h192v-32h-192z" />
    <glyph glyph-name="registered" unicode="&#xae;" horiz-adv-x="808" 
d="M57 350q0 158 96 257t251 99t251 -99t96 -257t-96 -257t-251 -99t-251 99t-96 257zM88 350q0 -146 88 -237t228 -91q142 0 229 91t87 237t-87 237t-229 91q-140 0 -228 -91t-88 -237zM486 174l-88 159h-54v-159h-29v350h93q44 0 71 -26.5t27 -69.5q0 -38 -21 -63t-58 -31
l92 -160h-33zM477 428q0 32 -19 51.5t-50 19.5h-64v-141h64q31 0 50 19.5t19 50.5z" />
    <glyph glyph-name="macron" unicode="&#xaf;" horiz-adv-x="392" 
d="M82 555v28h228v-28h-228z" />
    <glyph glyph-name="degree" unicode="&#xb0;" horiz-adv-x="293" 
d="M52 608q0 43 26.5 70t68.5 27q43 0 69 -26.5t26 -70.5t-26 -71t-69 -27q-42 0 -68.5 27t-26.5 71zM78 608q0 -32 19.5 -51.5t49.5 -19.5q31 0 50 19.5t19 51.5q0 31 -19.5 51t-49.5 20t-49.5 -20t-19.5 -51z" />
    <glyph glyph-name="plusminus" unicode="&#xb1;" horiz-adv-x="445" 
d="M74 288v32h133v133h32v-133h132v-32h-132v-133h-32v133h-133zM74 89v32h297v-32h-297z" />
    <glyph glyph-name="twosuperior" unicode="&#xb2;" horiz-adv-x="277" 
d="M38 376l153 153q22 22 22 65q0 37 -21 60.5t-54 23.5q-34 0 -55.5 -23t-21.5 -61h-28q0 49 29 79t76 30q46 0 74.5 -30t28.5 -79q0 -52 -31 -83l-136 -137h167v-24h-203v26z" />
    <glyph glyph-name="threesuperior" unicode="&#xb3;" horiz-adv-x="285" 
d="M119 529v24h23q28 0 45 17.5t17 45.5t-17 45t-45 17t-45 -17t-17 -45h-29q0 38 25.5 62.5t65.5 24.5t65 -24.5t25 -62.5q0 -53 -45 -75q62 -22 62 -91q0 -46 -29.5 -74.5t-77.5 -28.5t-77.5 28.5t-29.5 74.5h28q0 -35 22 -56.5t57 -21.5t57 21.5t22 56.5t-22 57t-57 22
h-23z" />
    <glyph glyph-name="acute" unicode="&#xb4;" horiz-adv-x="261" 
d="M64 545l112 112l21 -21l-112 -112z" />
    <glyph glyph-name="mu" unicode="&#xb5;" horiz-adv-x="539" 
d="M24 -200v25q64 0 64 60v565h37v-279q2 -64 42 -103.5t103 -39.5q64 0 104 41.5t40 108.5v272h36v-272q0 -82 -50 -133t-131 -51q-94 0 -144 66v-175q0 -42 -22 -65t-55 -23q-18 0 -24 3z" />
    <glyph glyph-name="paragraph" unicode="&#xb6;" horiz-adv-x="527" 
d="M323 700v-700h-35v330h-41q-83 0 -134.5 50.5t-51.5 133.5q0 84 51 135t135 51h76zM403 0v700h35v-700h-35z" />
    <glyph glyph-name="periodcentered" unicode="&#xb7;" 
d="M74 250q0 14 9 23t23 9t23.5 -9t9.5 -23t-9.5 -23.5t-23.5 -9.5q-13 0 -22.5 9.5t-9.5 23.5z" />
    <glyph glyph-name="cedilla" unicode="&#xb8;" horiz-adv-x="257" 
d="M125 0v-63q29 -5 46 -23.5t17 -48.5q0 -33 -21 -53t-55 -20t-55 23l18 17q15 -15 37 -15q23 0 37.5 13.5t14.5 35.5t-16 36t-48 14v84h25z" />
    <glyph glyph-name="onesuperior" unicode="&#xb9;" horiz-adv-x="172" 
d="M27 664v23l82 15v-352h-27v325z" />
    <glyph glyph-name="ordmasculine" unicode="&#xba;" horiz-adv-x="317" 
d="M32 576q0 56 35.5 91.5t91.5 35.5t91 -35.5t35 -91.5q0 -57 -35 -92t-91 -35t-91.5 35t-35.5 92zM61 576q0 -46 27 -73.5t71 -27.5q43 0 70 28t27 73t-27 73t-70 28q-44 0 -71 -28t-27 -73z" />
    <glyph glyph-name="guillemotright" unicode="&#xbb;" horiz-adv-x="470" 
d="M416 250l-168 -168l-21 22l146 146l-146 146l21 21zM253 250l-168 -168l-21 22l146 146l-146 146l21 21z" />
    <glyph glyph-name="onequarter" unicode="&#xbc;" horiz-adv-x="629" 
d="M27 664v23l82 15v-352h-27v325zM110 0l360 700h33l-360 -700h-33zM532 0v70h-161v15l159 265h29v-256h32v-24h-32v-70h-27zM405 94h128v213z" />
    <glyph glyph-name="onehalf" unicode="&#xbd;" horiz-adv-x="679" 
d="M27 664v23l82 15v-352h-27v325zM110 0l360 700h33l-360 -700h-33zM440 26l153 153q22 22 22 65q0 37 -21 60.5t-54 23.5q-34 0 -55.5 -23t-21.5 -61h-28q0 49 29 79t76 30q46 0 74.5 -30t28.5 -79q0 -52 -31 -83l-136 -137h167v-24h-203v26z" />
    <glyph glyph-name="threequarters" unicode="&#xbe;" horiz-adv-x="638" 
d="M119 529v24h23q28 0 45 17.5t17 45.5t-17 45t-45 17t-45 -17t-17 -45h-29q0 38 25.5 62.5t65.5 24.5t65 -24.5t25 -62.5q0 -53 -45 -75q62 -22 62 -91q0 -46 -29.5 -74.5t-77.5 -28.5t-77.5 28.5t-29.5 74.5h28q0 -35 22 -56.5t57 -21.5t57 21.5t22 56.5t-22 57t-57 22
h-23zM147 0l360 700h33l-360 -700h-33zM541 0v70h-161v15l159 265h29v-256h32v-24h-32v-70h-27zM414 94h128v213z" />
    <glyph glyph-name="questiondown" unicode="&#xbf;" horiz-adv-x="465" 
d="M393 -159l26 -25q-70 -72 -184 -72q-91 0 -137 51.5t-46 123.5q0 43 16.5 73t40 49l46.5 38.5t39.5 53.5t16.5 81v56h37v-56q0 -53 -16.5 -91t-40 -58.5t-46.5 -38.5t-39.5 -44t-16.5 -62q0 -56 36 -99t110 -43q44 0 87.5 17t70.5 46zM262 423q0 -13 -9 -22.5t-23 -9.5
t-23.5 9.5t-9.5 22.5t9.5 23t23.5 10q13 0 22.5 -9.5t9.5 -23.5z" />
    <glyph glyph-name="Agrave" unicode="&#xc0;" horiz-adv-x="737" 
d="M655 0l-103 235h-367l-103 -235h-42l310 700h37l311 -700h-43zM369 655l-169 -385h337zM303 879l112 -112l-21 -22l-112 112z" />
    <glyph glyph-name="Aacute" unicode="&#xc1;" horiz-adv-x="737" 
d="M655 0l-103 235h-367l-103 -235h-42l310 700h37l311 -700h-43zM369 655l-169 -385h337zM322 767l112 112l21 -22l-112 -112z" />
    <glyph glyph-name="Acircumflex" unicode="&#xc2;" horiz-adv-x="737" 
d="M655 0l-103 235h-367l-103 -235h-42l310 700h37l311 -700h-43zM369 655l-169 -385h337zM369 879l112 -112l-22 -22l-90 91l-91 -91l-21 22z" />
    <glyph glyph-name="Atilde" unicode="&#xc3;" horiz-adv-x="737" 
d="M655 0l-103 235h-367l-103 -235h-42l310 700h37l311 -700h-43zM369 655l-169 -385h337zM269 773h-27q0 34 20.5 54.5t52.5 20.5q29 0 56.5 -26t49.5 -26q21 0 34 13t13 35h27q0 -34 -20 -54.5t-54 -20.5q-31 0 -57.5 26t-47.5 26t-34 -13t-13 -35z" />
    <glyph glyph-name="Adieresis" unicode="&#xc4;" horiz-adv-x="737" 
d="M655 0l-103 235h-367l-103 -235h-42l310 700h37l311 -700h-43zM369 655l-169 -385h337zM246 796q0 13 9 22t22 9t22.5 -9t9.5 -22q0 -14 -9.5 -23t-22.5 -9t-22 9.5t-9 22.5zM428 796q0 14 9 23t23 9t23 -9t9 -23t-9 -23t-23 -9t-23 9t-9 23z" />
    <glyph glyph-name="Aring" unicode="&#xc5;" horiz-adv-x="737" 
d="M655 0l-103 235h-367l-103 -235h-42l310 700h37l311 -700h-43zM369 655l-169 -385h337zM284 827q0 39 23.5 62.5t61.5 23.5t61 -23.5t23 -62.5t-23 -63t-61 -24t-61.5 24t-23.5 63zM309 827q0 -28 17 -45t43 -17t43 17t17 45q0 27 -17 44.5t-43 17.5t-43 -17t-17 -45z
" />
    <glyph glyph-name="AE" unicode="&#xc6;" horiz-adv-x="765" 
d="M406 666v-295h264v-34h-264v-304h304v-33h-341v235h-184l-103 -235h-42l310 700h355v-34h-299zM200 270h169v383z" />
    <glyph glyph-name="Ccedilla" unicode="&#xc7;" horiz-adv-x="705" 
d="M95 350q0 -143 86 -232t224 -89q142 0 228 91l25 -24q-91 -97 -243 -102v-57q29 -5 46 -23.5t17 -48.5q0 -33 -21 -53t-55 -20t-55 23l18 17q15 -15 37 -15q23 0 37.5 13.5t14.5 35.5t-16 36t-48 14v79q-150 4 -241.5 102t-91.5 253q0 158 96 257t251 99q157 0 254 -102
l-25 -25q-87 92 -228 92q-138 0 -224 -89t-86 -232z" />
    <glyph glyph-name="Egrave" unicode="&#xc8;" horiz-adv-x="513" 
d="M130 666v-295h288v-34h-288v-304h327v-33h-365v700h360v-34h-322zM209 879l112 -112l-21 -22l-112 112z" />
    <glyph glyph-name="Eacute" unicode="&#xc9;" horiz-adv-x="513" 
d="M130 666v-295h288v-34h-288v-304h327v-33h-365v700h360v-34h-322zM228 767l112 112l21 -22l-112 -112z" />
    <glyph glyph-name="Ecircumflex" unicode="&#xca;" horiz-adv-x="513" 
d="M130 666v-295h288v-34h-288v-304h327v-33h-365v700h360v-34h-322zM274 879l112 -112l-21 -22l-91 91l-90 -91l-22 22z" />
    <glyph glyph-name="Edieresis" unicode="&#xcb;" horiz-adv-x="513" 
d="M130 666v-295h288v-34h-288v-304h327v-33h-365v700h360v-34h-322zM151 796q0 13 9.5 22t22.5 9t22.5 -9t9.5 -22q0 -14 -9.5 -23t-22.5 -9t-22.5 9t-9.5 23zM334 796q0 13 9 22.5t22 9.5t22.5 -9t9.5 -23t-9.5 -23t-22.5 -9t-22 9.5t-9 22.5z" />
    <glyph glyph-name="Igrave" unicode="&#xcc;" horiz-adv-x="214" 
d="M88 0v700h37v-700h-37zM42 879l112 -112l-22 -22l-112 112z" />
    <glyph glyph-name="Iacute" unicode="&#xcd;" horiz-adv-x="214" 
d="M88 0v700h37v-700h-37zM60 767l112 112l22 -22l-112 -112z" />
    <glyph glyph-name="Icircumflex" unicode="&#xce;" horiz-adv-x="214" 
d="M88 0v700h37v-700h-37zM107 879l112 -112l-22 -22l-90 91l-91 -91l-21 22z" />
    <glyph glyph-name="Idieresis" unicode="&#xcf;" horiz-adv-x="214" 
d="M88 0v700h37v-700h-37zM2 796q0 13 9.5 22t22.5 9t22.5 -9t9.5 -22q0 -14 -9 -23t-23 -9t-23 9t-9 23zM148 796q0 13 9 22.5t22 9.5t22.5 -9t9.5 -23t-9.5 -23t-22.5 -9t-22 9.5t-9 22.5z" />
    <glyph glyph-name="Eth" unicode="&#xd0;" horiz-adv-x="713" 
d="M55 334v32h66v334h187q156 0 252 -96t96 -254t-96 -254t-252 -96h-187v334h-66zM617 350q0 142 -85 229t-224 87h-149v-300h181v-32h-181v-300h149q139 0 224 87t85 229z" />
    <glyph glyph-name="Ntilde" unicode="&#xd1;" horiz-adv-x="718" 
d="M92 700h30l466 -632v632h37v-700h-30l-465 632v-632h-38v700zM259 773h-27q0 34 20.5 54.5t52.5 20.5q30 0 57 -26t49 -26q21 0 34 13t13 35h27q0 -34 -20 -54.5t-54 -20.5q-31 0 -57.5 26t-47.5 26t-34 -13t-13 -35z" />
    <glyph glyph-name="Ograve" unicode="&#xd2;" horiz-adv-x="808" 
d="M57 350q0 158 96 257t251 99t251 -99t96 -257t-96 -257t-251 -99t-251 99t-96 257zM95 350q0 -143 86 -232t223 -89q138 0 223.5 89t85.5 232t-85.5 232t-223.5 89q-137 0 -223 -89t-86 -232zM339 879l112 -112l-22 -22l-112 112z" />
    <glyph glyph-name="Oacute" unicode="&#xd3;" horiz-adv-x="808" 
d="M57 350q0 158 96 257t251 99t251 -99t96 -257t-96 -257t-251 -99t-251 99t-96 257zM95 350q0 -143 86 -232t223 -89q138 0 223.5 89t85.5 232t-85.5 232t-223.5 89q-137 0 -223 -89t-86 -232zM357 767l112 112l22 -22l-112 -112z" />
    <glyph glyph-name="Ocircumflex" unicode="&#xd4;" horiz-adv-x="808" 
d="M57 350q0 158 96 257t251 99t251 -99t96 -257t-96 -257t-251 -99t-251 99t-96 257zM95 350q0 -143 86 -232t223 -89q138 0 223.5 89t85.5 232t-85.5 232t-223.5 89q-137 0 -223 -89t-86 -232zM404 879l112 -112l-21 -22l-91 91l-90 -91l-22 22z" />
    <glyph glyph-name="Otilde" unicode="&#xd5;" horiz-adv-x="808" 
d="M57 350q0 158 96 257t251 99t251 -99t96 -257t-96 -257t-251 -99t-251 99t-96 257zM95 350q0 -143 86 -232t223 -89q138 0 223.5 89t85.5 232t-85.5 232t-223.5 89q-137 0 -223 -89t-86 -232zM304 773h-27q0 34 20.5 54.5t52.5 20.5q30 0 57.5 -26t49.5 -26q20 0 33 13
t13 35h27q0 -34 -20 -54.5t-53 -20.5q-31 0 -58 26t-48 26t-34 -13t-13 -35z" />
    <glyph glyph-name="Odieresis" unicode="&#xd6;" horiz-adv-x="808" 
d="M57 350q0 158 96 257t251 99t251 -99t96 -257t-96 -257t-251 -99t-251 99t-96 257zM95 350q0 -143 86 -232t223 -89q138 0 223.5 89t85.5 232t-85.5 232t-223.5 89q-137 0 -223 -89t-86 -232zM281 796q0 13 9.5 22t22.5 9t22.5 -9t9.5 -22q0 -14 -9.5 -23t-22.5 -9
t-22.5 9t-9.5 23zM464 796q0 13 9 22.5t22 9.5t22.5 -9t9.5 -23t-9.5 -23t-22.5 -9t-22 9.5t-9 22.5z" />
    <glyph glyph-name="multiply" unicode="&#xd7;" horiz-adv-x="445" 
d="M92 144l-22 23l130 130l-130 130l22 23l131 -130l130 130l23 -23l-131 -130l131 -130l-23 -23l-130 130z" />
    <glyph glyph-name="Oslash" unicode="&#xd8;" horiz-adv-x="808" 
d="M68 -6l86 97q-97 99 -97 259q0 158 96 257t251 99q133 0 226 -77l68 77h42l-87 -98q98 -98 98 -258q0 -158 -96 -257t-251 -99q-136 0 -226 76l-67 -76h-43zM95 350q0 -141 84 -230l427 482q-83 69 -202 69q-137 0 -223 -89t-86 -232zM713 350q0 141 -84 230l-426 -482
q82 -69 201 -69q138 0 223.5 89t85.5 232z" />
    <glyph glyph-name="Ugrave" unicode="&#xd9;" horiz-adv-x="689" 
d="M558 251v449h38v-449q0 -115 -69.5 -186t-182.5 -71t-182.5 71t-69.5 186v449h38v-449q0 -99 59 -160.5t154 -61.5q96 0 155.5 61.5t59.5 160.5zM279 879l112 -112l-21 -22l-112 112z" />
    <glyph glyph-name="Uacute" unicode="&#xda;" horiz-adv-x="689" 
d="M558 251v449h38v-449q0 -115 -69.5 -186t-182.5 -71t-182.5 71t-69.5 186v449h38v-449q0 -99 59 -160.5t154 -61.5q96 0 155.5 61.5t59.5 160.5zM298 767l112 112l21 -22l-112 -112z" />
    <glyph glyph-name="Ucircumflex" unicode="&#xdb;" horiz-adv-x="689" 
d="M558 251v449h38v-449q0 -115 -69.5 -186t-182.5 -71t-182.5 71t-69.5 186v449h38v-449q0 -99 59 -160.5t154 -61.5q96 0 155.5 61.5t59.5 160.5zM344 879l112 -112l-21 -22l-91 91l-90 -91l-22 22z" />
    <glyph glyph-name="Udieresis" unicode="&#xdc;" horiz-adv-x="689" 
d="M558 251v449h38v-449q0 -115 -69.5 -186t-182.5 -71t-182.5 71t-69.5 186v449h38v-449q0 -99 59 -160.5t154 -61.5q96 0 155.5 61.5t59.5 160.5zM221 796q0 13 9.5 22t22.5 9t22.5 -9t9.5 -22q0 -14 -9.5 -23t-22.5 -9t-22.5 9t-9.5 23zM404 796q0 13 9 22.5t22 9.5
t22.5 -9t9.5 -23t-9.5 -23t-22.5 -9t-22 9.5t-9 22.5z" />
    <glyph glyph-name="Yacute" unicode="&#xdd;" horiz-adv-x="655" 
d="M309 0v316l-269 384h44l244 -347l243 347h44l-269 -384v-316h-37zM281 767l112 112l21 -22l-112 -112z" />
    <glyph glyph-name="Thorn" unicode="&#xde;" horiz-adv-x="509" 
d="M92 0v700h38v-156h135q84 0 135.5 -51t51.5 -136q0 -84 -51.5 -135t-135.5 -51h-135v-171h-38zM414 357q0 69 -41 111t-108 42h-135v-305h135q67 0 108 42t41 110z" />
    <glyph glyph-name="germandbls" unicode="&#xdf;" horiz-adv-x="590" 
d="M125 585v-585h-37v585q0 76 49 123.5t128 47.5t128 -47.5t49 -122.5q0 -67 -38.5 -112.5t-101.5 -53.5q0 -49 23.5 -81t57 -49l67 -34.5t57 -50t23.5 -81.5q0 -51 -35.5 -90.5t-104.5 -39.5q-86 0 -135 54l24 24q38 -45 110 -45q53 0 78.5 30t25.5 66q0 34 -17 59t-42 38
l-55 30t-55 34.5t-42 51.5t-17 81v33q62 0 101 37t39 98q0 60 -39 98t-101 38t-101 -38t-39 -98z" />
    <glyph glyph-name="agrave" unicode="&#xe0;" horiz-adv-x="445" 
d="M396 25v-25q-7 -3 -21 -3q-47 0 -59 47q-56 -50 -133 -50q-65 0 -96 35.5t-31 82.5q0 65 61.5 103.5t160.5 38.5q24 0 36 -3v75q0 38 -27 67.5t-80 29.5q-31 0 -61 -10.5t-47 -28.5l-22 22q48 50 131 50q71 0 107 -38.5t36 -91.5v-259q0 -42 45 -42zM190 27q73 0 124 52
v143q-16 2 -35 2q-83 0 -135 -30t-52 -80q0 -33 23 -60t75 -27zM142 657l112 -112l-22 -21l-112 112z" />
    <glyph glyph-name="aacute" unicode="&#xe1;" horiz-adv-x="445" 
d="M396 25v-25q-7 -3 -21 -3q-47 0 -59 47q-56 -50 -133 -50q-65 0 -96 35.5t-31 82.5q0 65 61.5 103.5t160.5 38.5q24 0 36 -3v75q0 38 -27 67.5t-80 29.5q-31 0 -61 -10.5t-47 -28.5l-22 22q48 50 131 50q71 0 107 -38.5t36 -91.5v-259q0 -42 45 -42zM190 27q73 0 124 52
v143q-16 2 -35 2q-83 0 -135 -30t-52 -80q0 -33 23 -60t75 -27zM161 545l112 112l21 -21l-112 -112z" />
    <glyph glyph-name="acircumflex" unicode="&#xe2;" horiz-adv-x="445" 
d="M396 25v-25q-7 -3 -21 -3q-47 0 -59 47q-56 -50 -133 -50q-65 0 -96 35.5t-31 82.5q0 65 61.5 103.5t160.5 38.5q24 0 36 -3v75q0 38 -27 67.5t-80 29.5q-31 0 -61 -10.5t-47 -28.5l-22 22q48 50 131 50q71 0 107 -38.5t36 -91.5v-259q0 -42 45 -42zM190 27q73 0 124 52
v143q-16 2 -35 2q-83 0 -135 -30t-52 -80q0 -33 23 -60t75 -27zM208 657l112 -112l-21 -21l-91 90l-90 -90l-22 21z" />
    <glyph glyph-name="atilde" unicode="&#xe3;" horiz-adv-x="445" 
d="M396 25v-25q-7 -3 -21 -3q-47 0 -59 47q-56 -50 -133 -50q-65 0 -96 35.5t-31 82.5q0 65 61.5 103.5t160.5 38.5q24 0 36 -3v75q0 38 -27 67.5t-80 29.5q-31 0 -61 -10.5t-47 -28.5l-22 22q48 50 131 50q71 0 107 -38.5t36 -91.5v-259q0 -42 45 -42zM190 27q73 0 124 52
v143q-16 2 -35 2q-83 0 -135 -30t-52 -80q0 -33 23 -60t75 -27zM118 551h-27q0 34 20 55t52 21q30 0 57.5 -26.5t49.5 -26.5q21 0 34 13.5t13 35.5h27q0 -34 -20.5 -55t-53.5 -21q-31 0 -58 26.5t-48 26.5q-20 0 -33 -13.5t-13 -35.5z" />
    <glyph glyph-name="adieresis" unicode="&#xe4;" horiz-adv-x="445" 
d="M396 25v-25q-7 -3 -21 -3q-47 0 -59 47q-56 -50 -133 -50q-65 0 -96 35.5t-31 82.5q0 65 61.5 103.5t160.5 38.5q24 0 36 -3v75q0 38 -27 67.5t-80 29.5q-31 0 -61 -10.5t-47 -28.5l-22 22q48 50 131 50q71 0 107 -38.5t36 -91.5v-259q0 -42 45 -42zM190 27q73 0 124 52
v143q-16 2 -35 2q-83 0 -135 -30t-52 -80q0 -33 23 -60t75 -27zM90 574q0 14 9 23t23 9t23 -9t9 -23t-9 -23t-23 -9t-23 9t-9 23zM273 574q0 13 9 22.5t22 9.5q14 0 23 -9t9 -23t-9 -23t-23 -9q-13 0 -22 9.5t-9 22.5z" />
    <glyph glyph-name="aring" unicode="&#xe5;" horiz-adv-x="445" 
d="M396 25v-25q-7 -3 -21 -3q-47 0 -59 47q-56 -50 -133 -50q-65 0 -96 35.5t-31 82.5q0 65 61.5 103.5t160.5 38.5q24 0 36 -3v75q0 38 -27 67.5t-80 29.5q-31 0 -61 -10.5t-47 -28.5l-22 22q48 50 131 50q71 0 107 -38.5t36 -91.5v-259q0 -42 45 -42zM190 27q73 0 124 52
v143q-16 2 -35 2q-83 0 -135 -30t-52 -80q0 -33 23 -60t75 -27zM128 605q0 39 23.5 63t61.5 24t61 -24t23 -63q0 -38 -23 -62t-61 -24t-61.5 24t-23.5 62zM153 605q0 -27 16.5 -44t43.5 -17q26 0 42.5 16.5t16.5 44.5t-16.5 45t-42.5 17t-43 -17t-17 -45z" />
    <glyph glyph-name="ae" unicode="&#xe6;" horiz-adv-x="732" 
d="M314 251v75q0 38 -27 67.5t-80 29.5q-31 0 -61 -10.5t-47 -28.5l-22 22q48 50 131 50q87 0 122 -64q58 64 150 64q93 0 147 -65t54 -172h-330v-123q51 -68 149 -68q87 0 141 56l23 -24q-61 -66 -165 -66q-111 0 -171 69q-59 -69 -145 -69q-65 0 -96 35.5t-31 82.5
q0 65 61.5 103.5t160.5 38.5q24 0 36 -3zM351 326v-77h293q-6 80 -49.5 126.5t-112.5 46.5q-87 0 -135 -65q4 -20 4 -31zM314 87v135q-16 2 -35 2q-83 0 -135 -30t-52 -80q0 -33 23 -60t75 -27q73 0 124 60z" />
    <glyph glyph-name="ccedilla" unicode="&#xe7;" horiz-adv-x="486" 
d="M89 225q0 -88 53 -142.5t138 -54.5q86 0 140 56l23 -24q-58 -63 -157 -66v-57q29 -5 46.5 -24t17.5 -48q0 -33 -21.5 -53t-54.5 -20q-35 0 -56 23l18 17q17 -15 38 -15q23 0 37 13.5t14 35.5t-16 36t-48 14v79q-94 5 -151.5 68.5t-57.5 161.5q0 103 63 167t164 64
q102 0 164 -67l-23 -24q-53 56 -140 56q-85 0 -138 -54t-53 -142z" />
    <glyph glyph-name="egrave" unicode="&#xe8;" horiz-adv-x="513" 
d="M462 219h-372q2 -86 54 -138.5t137 -52.5q87 0 140 56l24 -24q-63 -66 -166 -66q-101 0 -164 64t-63 169q0 101 58 165t151 64q92 0 146.5 -65t54.5 -172zM262 422q-71 0 -118.5 -47t-53.5 -126h334q-6 80 -49 126.5t-113 46.5zM196 657l112 -112l-21 -21l-112 112z" />
    <glyph glyph-name="eacute" unicode="&#xe9;" horiz-adv-x="513" 
d="M462 219h-372q2 -86 54 -138.5t137 -52.5q87 0 140 56l24 -24q-63 -66 -166 -66q-101 0 -164 64t-63 169q0 101 58 165t151 64q92 0 146.5 -65t54.5 -172zM262 422q-71 0 -118.5 -47t-53.5 -126h334q-6 80 -49 126.5t-113 46.5zM214 545l112 112l22 -21l-112 -112z" />
    <glyph glyph-name="ecircumflex" unicode="&#xea;" horiz-adv-x="513" 
d="M462 219h-372q2 -86 54 -138.5t137 -52.5q87 0 140 56l24 -24q-63 -66 -166 -66q-101 0 -164 64t-63 169q0 101 58 165t151 64q92 0 146.5 -65t54.5 -172zM262 422q-71 0 -118.5 -47t-53.5 -126h334q-6 80 -49 126.5t-113 46.5zM262 657l112 -112l-22 -21l-90 90l-91 -90
l-21 21z" />
    <glyph glyph-name="edieresis" unicode="&#xeb;" horiz-adv-x="513" 
d="M462 219h-372q2 -86 54 -138.5t137 -52.5q87 0 140 56l24 -24q-63 -66 -166 -66q-101 0 -164 64t-63 169q0 101 58 165t151 64q92 0 146.5 -65t54.5 -172zM262 422q-71 0 -118.5 -47t-53.5 -126h334q-6 80 -49 126.5t-113 46.5zM139 574q0 13 9 22.5t22 9.5q14 0 23 -9
t9 -23t-9 -23t-23 -9q-13 0 -22 9.5t-9 22.5zM321 574q0 14 9.5 23t22.5 9t22.5 -9t9.5 -23t-9.5 -23t-22.5 -9t-22.5 9t-9.5 23z" />
    <glyph glyph-name="igrave" unicode="&#xec;" 
d="M41 657l112 -112l-21 -21l-112 112zM88 0v450h37v-450h-37z" />
    <glyph glyph-name="iacute" unicode="&#xed;" 
d="M60 545l112 112l21 -21l-112 -112zM88 0v450h37v-450h-37z" />
    <glyph glyph-name="icircumflex" unicode="&#xee;" 
d="M88 0v450h37v-450h-37zM106 657l112 -112l-21 -21l-91 90l-90 -90l-21 21z" />
    <glyph glyph-name="idieresis" unicode="&#xef;" 
d="M88 0v450h37v-450h-37zM6 574q0 14 9 23t23 9t23 -9t9 -23t-9 -23t-23 -9t-23 9t-9 23zM143 574q0 14 9.5 23t22.5 9t22.5 -9t9.5 -23t-9.5 -23t-22.5 -9t-22.5 9t-9.5 23z" />
    <glyph glyph-name="eth" unicode="&#xf0;" horiz-adv-x="558" 
d="M170 555l-16 27l104 60l-61 96l32 18q35 -58 61 -96l106 62l16 -28l-104 -60l50 -78.5l44 -68.5l33 -53.5t28 -49.5l18.5 -39.5t15 -40.5t6.5 -36t3 -41q0 -105 -62.5 -169t-164.5 -64q-101 0 -164 64t-63 167q0 102 64.5 166.5t162.5 64.5q66 0 120 -34l-122 195z
M469 225q0 88 -52.5 142t-137.5 54t-137.5 -54t-52.5 -142t52.5 -142.5t137.5 -54.5t137.5 54.5t52.5 142.5z" />
    <glyph glyph-name="ntilde" unicode="&#xf1;" horiz-adv-x="525" 
d="M88 450h37v-42q57 48 142 48q76 0 123 -49t47 -129v-278h-37v278q0 64 -38 103.5t-100 39.5q-85 0 -137 -52v-369h-37v450zM158 551h-27q0 34 20.5 55t52.5 21q30 0 57 -26.5t49 -26.5q21 0 34 13.5t13 35.5h27q0 -34 -20 -55t-54 -21q-30 0 -57 26.5t-48 26.5t-34 -13.5
t-13 -35.5z" />
    <glyph glyph-name="ograve" unicode="&#xf2;" horiz-adv-x="558" 
d="M52 225q0 103 63 167t164 64q102 0 164.5 -64t62.5 -167t-62.5 -167t-164.5 -64q-101 0 -164 64t-63 167zM89 225q0 -88 52.5 -142.5t137.5 -54.5t137.5 54.5t52.5 142.5t-52.5 142t-137.5 54t-137.5 -54t-52.5 -142zM214 657l112 -112l-22 -21l-112 112z" />
    <glyph glyph-name="oacute" unicode="&#xf3;" horiz-adv-x="558" 
d="M52 225q0 103 63 167t164 64q102 0 164.5 -64t62.5 -167t-62.5 -167t-164.5 -64q-101 0 -164 64t-63 167zM89 225q0 -88 52.5 -142.5t137.5 -54.5t137.5 54.5t52.5 142.5t-52.5 142t-137.5 54t-137.5 -54t-52.5 -142zM232 545l112 112l22 -21l-112 -112z" />
    <glyph glyph-name="ocircumflex" unicode="&#xf4;" horiz-adv-x="558" 
d="M52 225q0 103 63 167t164 64q102 0 164.5 -64t62.5 -167t-62.5 -167t-164.5 -64q-101 0 -164 64t-63 167zM89 225q0 -88 52.5 -142.5t137.5 -54.5t137.5 54.5t52.5 142.5t-52.5 142t-137.5 54t-137.5 -54t-52.5 -142zM279 657l112 -112l-21 -21l-91 90l-90 -90l-22 21z
" />
    <glyph glyph-name="otilde" unicode="&#xf5;" horiz-adv-x="558" 
d="M52 225q0 103 63 167t164 64q102 0 164.5 -64t62.5 -167t-62.5 -167t-164.5 -64q-101 0 -164 64t-63 167zM89 225q0 -88 52.5 -142.5t137.5 -54.5t137.5 54.5t52.5 142.5t-52.5 142t-137.5 54t-137.5 -54t-52.5 -142zM179 551h-27q0 34 20.5 55t52.5 21q30 0 57.5 -26.5
t49.5 -26.5q20 0 33 13.5t13 35.5h27q0 -34 -20 -55t-53 -21q-31 0 -58 26.5t-48 26.5t-34 -13.5t-13 -35.5z" />
    <glyph glyph-name="odieresis" unicode="&#xf6;" horiz-adv-x="558" 
d="M52 225q0 103 63 167t164 64q102 0 164.5 -64t62.5 -167t-62.5 -167t-164.5 -64q-101 0 -164 64t-63 167zM89 225q0 -88 52.5 -142.5t137.5 -54.5t137.5 54.5t52.5 142.5t-52.5 142t-137.5 54t-137.5 -54t-52.5 -142zM156 574q0 14 9 23t23 9t23 -9t9 -23t-9 -23t-23 -9
t-23 9t-9 23zM339 574q0 13 9 22.5t22 9.5q14 0 23 -9t9 -23t-9 -23t-23 -9q-13 0 -22 9.5t-9 22.5z" />
    <glyph glyph-name="divide" unicode="&#xf7;" horiz-adv-x="500" 
d="M74 246v32h352v-32h-352zM219 94q0 13 9 22t22 9t22 -9t9 -22q0 -14 -9 -23t-22 -9t-22 9t-9 23zM219 431q0 13 9 22t22 9t22 -9t9 -22q0 -14 -9 -23t-22 -9t-22 9t-9 23z" />
    <glyph glyph-name="oslash" unicode="&#xf8;" horiz-adv-x="558" 
d="M68 -6l50 61q-66 64 -66 170q0 103 63 167t164 64q78 0 136 -41l34 42h41l-51 -61q67 -65 67 -171q0 -103 -62.5 -167t-164.5 -64q-79 0 -137 41l-33 -41h-41zM471 225q0 88 -54 144l-253 -308q48 -34 115 -34q86 0 139 55t53 143zM88 225q0 -88 52 -143l253 307
q-48 34 -114 34q-85 0 -138 -54.5t-53 -143.5z" />
    <glyph glyph-name="ugrave" unicode="&#xf9;" horiz-adv-x="539" 
d="M450 450v-272q0 -82 -50 -133t-131 -51t-131 51t-50 133v272h37v-272q0 -67 40 -108.5t105 -41.5q64 0 104 41.5t40 108.5v272h36zM204 657l112 -112l-22 -21l-112 112z" />
    <glyph glyph-name="uacute" unicode="&#xfa;" horiz-adv-x="539" 
d="M450 450v-272q0 -82 -50 -133t-131 -51t-131 51t-50 133v272h37v-272q0 -67 40 -108.5t105 -41.5q64 0 104 41.5t40 108.5v272h36zM222 545l112 112l22 -21l-112 -112z" />
    <glyph glyph-name="ucircumflex" unicode="&#xfb;" horiz-adv-x="539" 
d="M450 450v-272q0 -82 -50 -133t-131 -51t-131 51t-50 133v272h37v-272q0 -67 40 -108.5t105 -41.5q64 0 104 41.5t40 108.5v272h36zM269 657l112 -112l-21 -21l-91 90l-90 -90l-22 21z" />
    <glyph glyph-name="udieresis" unicode="&#xfc;" horiz-adv-x="539" 
d="M450 450v-272q0 -82 -50 -133t-131 -51t-131 51t-50 133v272h37v-272q0 -67 40 -108.5t105 -41.5q64 0 104 41.5t40 108.5v272h36zM146 574q0 14 9 23t23 9t23 -9t9 -23t-9 -23t-23 -9t-23 9t-9 23zM328 574q0 14 9 23t23 9t23 -9t9 -23t-9 -23t-23 -9t-23 9t-9 23z" />
    <glyph glyph-name="yacute" unicode="&#xfd;" horiz-adv-x="530" 
d="M491 450l-326 -700h-40l121 250l-207 450h40l186 -408l185 408h41zM218 545l112 112l22 -21l-112 -112z" />
    <glyph glyph-name="thorn" unicode="&#xfe;" horiz-adv-x="542" 
d="M88 750h37v-342q57 48 142 48q100 0 161.5 -64t61.5 -167t-62.5 -167t-163.5 -64q-81 0 -139 44v-288h-37v1000zM452 225q0 88 -52.5 142t-137.5 54t-137 -52v-288q53 -53 137 -53q85 0 137.5 54.5t52.5 142.5z" />
    <glyph glyph-name="ydieresis" unicode="&#xff;" horiz-adv-x="530" 
d="M491 450l-326 -700h-40l121 250l-207 450h40l186 -408l185 408h41zM142 574q0 14 9 23t23 9q13 0 22 -9.5t9 -22.5t-9 -22.5t-22 -9.5q-14 0 -23 9t-9 23zM324 574q0 14 9 23t23 9t23 -9t9 -23t-9 -23t-23 -9t-23 9t-9 23z" />
    <glyph glyph-name="Amacron" unicode="&#x100;" horiz-adv-x="737" 
d="M655 0l-103 235h-367l-103 -235h-42l310 700h37l311 -700h-43zM369 655l-169 -385h337zM255 776v28h227v-28h-227z" />
    <glyph glyph-name="amacron" unicode="&#x101;" horiz-adv-x="445" 
d="M396 25v-25q-7 -3 -21 -3q-47 0 -59 47q-56 -50 -133 -50q-65 0 -96 35.5t-31 82.5q0 65 61.5 103.5t160.5 38.5q24 0 36 -3v75q0 38 -27 67.5t-80 29.5q-31 0 -61 -10.5t-47 -28.5l-22 22q48 50 131 50q71 0 107 -38.5t36 -91.5v-259q0 -42 45 -42zM190 27q73 0 124 52
v143q-16 2 -35 2q-83 0 -135 -30t-52 -80q0 -33 23 -60t75 -27zM95 555v28h227v-28h-227z" />
    <glyph glyph-name="Abreve" unicode="&#x102;" horiz-adv-x="737" 
d="M655 0l-103 235h-367l-103 -235h-42l310 700h37l311 -700h-43zM369 655l-169 -385h337zM369 794q61 0 107 46l22 -22q-53 -55 -129 -55t-129 55l22 22q46 -46 107 -46z" />
    <glyph glyph-name="abreve" unicode="&#x103;" horiz-adv-x="445" 
d="M396 25v-25q-7 -3 -21 -3q-47 0 -59 47q-56 -50 -133 -50q-65 0 -96 35.5t-31 82.5q0 65 61.5 103.5t160.5 38.5q24 0 36 -3v75q0 38 -27 67.5t-80 29.5q-31 0 -61 -10.5t-47 -28.5l-22 22q48 50 131 50q71 0 107 -38.5t36 -91.5v-259q0 -42 45 -42zM190 27q73 0 124 52
v143q-16 2 -35 2q-83 0 -135 -30t-52 -80q0 -33 23 -60t75 -27zM213 572q62 0 107 47l22 -23q-55 -55 -129 -55q-76 0 -129 55l22 23q47 -47 107 -47z" />
    <glyph glyph-name="Aogonek" unicode="&#x104;" horiz-adv-x="737" 
d="M670 -42q0 -30 16.5 -47.5t43.5 -17.5q29 0 44 18l19 -18q-22 -25 -63 -25q-39 0 -62.5 24t-23.5 65q0 25 11 43l-103 235h-367l-103 -235h-42l310 700h37l311 -700h-17q-11 -17 -11 -42zM369 655l-169 -385h337z" />
    <glyph glyph-name="aogonek" unicode="&#x105;" horiz-adv-x="445" 
d="M370 -42q0 -30 17 -47.5t44 -17.5q29 0 44 18l19 -18q-22 -25 -63 -25q-39 0 -62.5 24t-23.5 65q0 25 11 43q-31 10 -40 44q-56 -50 -133 -50q-65 0 -96 35.5t-31 82.5q0 65 61.5 103.5t160.5 38.5q24 0 36 -3v75q0 38 -27 67.5t-80 29.5q-31 0 -61 -10.5t-47 -28.5
l-22 22q48 50 131 50q71 0 107 -38.5t36 -91.5v-259q0 -42 45 -42v-25l-17 -3q-9 -16 -9 -39zM190 27q73 0 124 52v143q-16 2 -35 2q-83 0 -135 -30t-52 -80q0 -33 23 -60t75 -27z" />
    <glyph glyph-name="Cacute" unicode="&#x106;" horiz-adv-x="705" 
d="M95 350q0 -143 86 -232t224 -89q142 0 228 91l25 -24q-96 -102 -254 -102q-155 0 -251 99t-96 257t96 257t251 99q157 0 254 -102l-25 -25q-87 92 -228 92q-138 0 -224 -89t-86 -232zM336 775l112 112l22 -21l-112 -112z" />
    <glyph glyph-name="cacute" unicode="&#x107;" horiz-adv-x="486" 
d="M89 225q0 -88 53 -142.5t138 -54.5q86 0 140 56l23 -24q-61 -66 -164 -66q-101 0 -164 64t-63 167t63 167t164 64q102 0 164 -67l-23 -24q-53 56 -140 56q-85 0 -138 -54t-53 -142zM229 545l112 112l22 -21l-112 -112z" />
    <glyph glyph-name="Ccircumflex" unicode="&#x108;" horiz-adv-x="705" 
d="M95 350q0 -143 86 -232t224 -89q142 0 228 91l25 -24q-96 -102 -254 -102q-155 0 -251 99t-96 257t96 257t251 99q157 0 254 -102l-25 -25q-87 92 -228 92q-138 0 -224 -89t-86 -232zM383 879l112 -112l-21 -22l-91 91l-90 -91l-22 22z" />
    <glyph glyph-name="ccircumflex" unicode="&#x109;" horiz-adv-x="486" 
d="M89 225q0 -88 53 -142.5t138 -54.5q86 0 140 56l23 -24q-61 -66 -164 -66q-101 0 -164 64t-63 167t63 167t164 64q102 0 164 -67l-23 -24q-53 56 -140 56q-85 0 -138 -54t-53 -142zM275 657l112 -112l-21 -21l-91 90l-90 -90l-22 21z" />
    <glyph glyph-name="Cdotaccent" unicode="&#x10a;" horiz-adv-x="705" 
d="M95 350q0 -143 86 -232t224 -89q142 0 228 91l25 -24q-96 -102 -254 -102q-155 0 -251 99t-96 257t96 257t251 99q157 0 254 -102l-25 -25q-87 92 -228 92q-138 0 -224 -89t-86 -232zM351 806q0 14 9 23.5t23 9.5t23.5 -9.5t9.5 -23.5t-9.5 -23t-23.5 -9q-13 0 -22.5 9
t-9.5 23z" />
    <glyph glyph-name="cdotaccent" unicode="&#x10b;" horiz-adv-x="486" 
d="M89 225q0 -88 53 -142.5t138 -54.5q86 0 140 56l23 -24q-61 -66 -164 -66q-101 0 -164 64t-63 167t63 167t164 64q102 0 164 -67l-23 -24q-53 56 -140 56q-85 0 -138 -54t-53 -142zM243 585q0 13 9.5 22.5t22.5 9.5q14 0 23.5 -9.5t9.5 -22.5t-10 -23t-23 -10t-22.5 9.5
t-9.5 23.5z" />
    <glyph glyph-name="Ccaron" unicode="&#x10c;" horiz-adv-x="705" 
d="M95 350q0 -143 86 -232t224 -89q142 0 228 91l25 -24q-96 -102 -254 -102q-155 0 -251 99t-96 257t96 257t251 99q157 0 254 -102l-25 -25q-87 92 -228 92q-138 0 -224 -89t-86 -232zM383 745l-112 112l21 22l91 -91l90 91l22 -22z" />
    <glyph glyph-name="ccaron" unicode="&#x10d;" horiz-adv-x="486" 
d="M89 225q0 -88 53 -142.5t138 -54.5q86 0 140 56l23 -24q-61 -66 -164 -66q-101 0 -164 64t-63 167t63 167t164 64q102 0 164 -67l-23 -24q-53 56 -140 56q-85 0 -138 -54t-53 -142zM274 524l-112 112l22 21l90 -90l91 90l21 -21z" />
    <glyph glyph-name="Dcaron" unicode="&#x10e;" horiz-adv-x="687" 
d="M92 0v700h191q155 0 251 -96t96 -254t-96 -254t-251 -96h-191zM591 350q0 142 -85 229t-223 87h-153v-632h153q138 0 223 87t85 229zM333 745l-112 112l22 22l90 -91l91 91l21 -22z" />
    <glyph glyph-name="dcaron" unicode="&#x10f;" horiz-adv-x="661" 
d="M453 0h-36v42q-59 -48 -143 -48q-99 0 -160.5 64t-61.5 167t62.5 167t163.5 64q80 0 139 -45v339h36v-750zM89 225q0 -88 53 -142.5t138 -54.5q82 0 137 53v288q-54 52 -137 52q-85 0 -138 -54t-53 -142zM577 610l-17 17q38 36 39 64q-13 1 -21.5 10t-8.5 22
q0 14 9.5 23.5t23.5 9.5t23 -10.5t9 -30.5q0 -48 -57 -105z" />
    <glyph glyph-name="Dcroat" unicode="&#x110;" horiz-adv-x="713" 
d="M55 334v32h66v334h187q156 0 252 -96t96 -254t-96 -254t-252 -96h-187v334h-66zM617 350q0 142 -85 229t-224 87h-149v-300h181v-32h-181v-300h149q139 0 224 87t85 229z" />
    <glyph glyph-name="dcroat" unicode="&#x111;" horiz-adv-x="546" 
d="M453 0h-36v42q-59 -48 -143 -48q-99 0 -160.5 64t-61.5 167t62.5 167t163.5 64q80 0 139 -46v190h-145v32h145v118h36v-118h63v-32h-63v-600zM89 225q0 -88 53 -142.5t138 -54.5q86 0 137 53v288q-52 52 -137 52t-138 -54t-53 -142z" />
    <glyph glyph-name="Emacron" unicode="&#x112;" horiz-adv-x="513" 
d="M130 666v-295h288v-34h-288v-304h327v-33h-365v700h360v-34h-322zM161 776v28h227v-28h-227z" />
    <glyph glyph-name="emacron" unicode="&#x113;" horiz-adv-x="513" 
d="M462 219h-372q2 -86 54 -138.5t137 -52.5q87 0 140 56l24 -24q-63 -66 -166 -66q-101 0 -164 64t-63 169q0 101 58 165t151 64q92 0 146.5 -65t54.5 -172zM262 422q-71 0 -118.5 -47t-53.5 -126h334q-6 80 -49 126.5t-113 46.5zM148 555v28h227v-28h-227z" />
    <glyph glyph-name="Ebreve" unicode="&#x114;" horiz-adv-x="513" 
d="M130 666v-295h288v-34h-288v-304h327v-33h-365v700h360v-34h-322zM274 794q61 0 107 46l22 -22q-53 -55 -129 -55q-74 0 -129 55l22 22q46 -46 107 -46z" />
    <glyph glyph-name="ebreve" unicode="&#x115;" horiz-adv-x="513" 
d="M462 219h-372q2 -86 54 -138.5t137 -52.5q87 0 140 56l24 -24q-63 -66 -166 -66q-101 0 -164 64t-63 169q0 101 58 165t151 64q92 0 146.5 -65t54.5 -172zM262 422q-71 0 -118.5 -47t-53.5 -126h334q-6 80 -49 126.5t-113 46.5zM260 572q62 0 107 47l22 -23
q-55 -55 -129 -55t-129 55l22 23q47 -47 107 -47z" />
    <glyph glyph-name="Edotaccent" unicode="&#x116;" horiz-adv-x="513" 
d="M130 666v-295h288v-34h-288v-304h327v-33h-365v700h360v-34h-322zM242 806q0 14 9 23.5t23 9.5t23.5 -9.5t9.5 -23.5q0 -13 -9.5 -22.5t-23.5 -9.5t-23 9t-9 23z" />
    <glyph glyph-name="edotaccent" unicode="&#x117;" horiz-adv-x="513" 
d="M462 219h-372q2 -86 54 -138.5t137 -52.5q87 0 140 56l24 -24q-63 -66 -166 -66q-101 0 -164 64t-63 169q0 101 58 165t151 64q92 0 146.5 -65t54.5 -172zM262 422q-71 0 -118.5 -47t-53.5 -126h334q-6 80 -49 126.5t-113 46.5zM229 585q0 14 9.5 23t23.5 9t23 -9.5
t9 -22.5q0 -14 -9.5 -23.5t-22.5 -9.5q-14 0 -23.5 9.5t-9.5 23.5z" />
    <glyph glyph-name="Eogonek" unicode="&#x118;" horiz-adv-x="513" 
d="M342 -42q0 -30 16.5 -47.5t43.5 -17.5q29 0 44 18l19 -18q-22 -25 -63 -25q-39 0 -62.5 24t-23.5 65q0 25 11 43h-235v700h360v-34h-322v-295h288v-34h-288v-304h327v-33h-104q-11 -15 -11 -42z" />
    <glyph glyph-name="eogonek" unicode="&#x119;" horiz-adv-x="513" 
d="M321 -42q0 -30 17 -47.5t44 -17.5q28 0 44 18l19 -18q-24 -25 -63 -25t-62.5 24t-23.5 65q0 24 8 38q-4 0 -12.5 -0.5t-12.5 -0.5q-101 0 -164 64t-63 169q0 101 58 165t151 64q92 0 146.5 -65t54.5 -172h-372q2 -86 54 -138.5t137 -52.5q87 0 140 56l24 -24
q-45 -48 -113 -60q-11 -17 -11 -42zM262 422q-71 0 -118.5 -47t-53.5 -126h334q-6 80 -49 126.5t-113 46.5z" />
    <glyph glyph-name="Ecaron" unicode="&#x11a;" horiz-adv-x="513" 
d="M130 666v-295h288v-34h-288v-304h327v-33h-365v700h360v-34h-322zM274 745l-112 112l22 22l90 -91l91 91l21 -22z" />
    <glyph glyph-name="ecaron" unicode="&#x11b;" horiz-adv-x="513" 
d="M462 219h-372q2 -86 54 -138.5t137 -52.5q87 0 140 56l24 -24q-63 -66 -166 -66q-101 0 -164 64t-63 169q0 101 58 165t151 64q92 0 146.5 -65t54.5 -172zM262 422q-71 0 -118.5 -47t-53.5 -126h334q-6 80 -49 126.5t-113 46.5zM261 524l-112 112l22 21l90 -90l91 90
l21 -21z" />
    <glyph glyph-name="Gcircumflex" unicode="&#x11c;" horiz-adv-x="751" 
d="M404 322v34h254v-261q-95 -101 -254 -101q-155 0 -251 99t-96 257t96 257t251 99q157 0 254 -102l-25 -25q-87 92 -228 92q-138 0 -224 -89t-86 -232t86 -232t224 -89q130 0 216 81v212h-217zM403 879l112 -112l-21 -22l-91 91l-90 -91l-22 22z" />
    <glyph glyph-name="gcircumflex" unicode="&#x11d;" horiz-adv-x="495" 
d="M31 -123q0 46 30 79t81 48q-66 23 -66 75q0 56 74 79q-43 17 -66 53.5t-23 85.5q0 72 46 115.5t120 43.5q66 0 111 -36q33 36 76 36q9 0 23 -2v-33q-11 3 -21 3q-30 0 -58 -25q34 -42 34 -101q0 -70 -46.5 -113.5t-120.5 -43.5q-52 0 -82.5 -16.5t-30.5 -43.5t35 -44
t94 -17q93 0 147 -35.5t54 -94.5q0 -64 -62.5 -105t-157.5 -41q-87 0 -139 37t-52 96zM68 -123q0 -46 41.5 -73.5t112.5 -27.5q77 0 129.5 32t52.5 81q0 45 -44.5 72t-117.5 27q-80 0 -127 -30.5t-47 -80.5zM98 298q0 -56 35.5 -90.5t93.5 -34.5q57 0 93 35t36 90
q0 56 -36 91t-93 35q-58 0 -93.5 -35t-35.5 -91zM225 657l112 -112l-21 -21l-91 90l-90 -90l-22 21z" />
    <glyph glyph-name="Gbreve" unicode="&#x11e;" horiz-adv-x="751" 
d="M404 322v34h254v-261q-95 -101 -254 -101q-155 0 -251 99t-96 257t96 257t251 99q157 0 254 -102l-25 -25q-87 92 -228 92q-138 0 -224 -89t-86 -232t86 -232t224 -89q130 0 216 81v212h-217zM403 794q61 0 107 46l22 -22q-53 -55 -129 -55q-74 0 -129 55l22 22
q46 -46 107 -46z" />
    <glyph glyph-name="gbreve" unicode="&#x11f;" horiz-adv-x="495" 
d="M31 -123q0 46 30 79t81 48q-66 23 -66 75q0 56 74 79q-43 17 -66 53.5t-23 85.5q0 72 46 115.5t120 43.5q66 0 111 -36q33 36 76 36q9 0 23 -2v-33q-11 3 -21 3q-30 0 -58 -25q34 -42 34 -101q0 -70 -46.5 -113.5t-120.5 -43.5q-52 0 -82.5 -16.5t-30.5 -43.5t35 -44
t94 -17q93 0 147 -35.5t54 -94.5q0 -64 -62.5 -105t-157.5 -41q-87 0 -139 37t-52 96zM68 -123q0 -46 41.5 -73.5t112.5 -27.5q77 0 129.5 32t52.5 81q0 45 -44.5 72t-117.5 27q-80 0 -127 -30.5t-47 -80.5zM98 298q0 -56 35.5 -90.5t93.5 -34.5q57 0 93 35t36 90
q0 56 -36 91t-93 35q-58 0 -93.5 -35t-35.5 -91zM227 572q62 0 107 47l22 -23q-55 -55 -129 -55q-76 0 -129 55l22 23q47 -47 107 -47z" />
    <glyph glyph-name="Gdotaccent" unicode="&#x120;" horiz-adv-x="751" 
d="M404 322v34h254v-261q-95 -101 -254 -101q-155 0 -251 99t-96 257t96 257t251 99q157 0 254 -102l-25 -25q-87 92 -228 92q-138 0 -224 -89t-86 -232t86 -232t224 -89q130 0 216 81v212h-217zM371 806q0 14 9 23.5t23 9.5t23.5 -9.5t9.5 -23.5q0 -13 -9.5 -22.5
t-23.5 -9.5q-13 0 -22.5 9t-9.5 23z" />
    <glyph glyph-name="gdotaccent" unicode="&#x121;" horiz-adv-x="495" 
d="M31 -123q0 46 30 79t81 48q-66 23 -66 75q0 56 74 79q-43 17 -66 53.5t-23 85.5q0 72 46 115.5t120 43.5q66 0 111 -36q33 36 76 36q9 0 23 -2v-33q-11 3 -21 3q-30 0 -58 -25q34 -42 34 -101q0 -70 -46.5 -113.5t-120.5 -43.5q-52 0 -82.5 -16.5t-30.5 -43.5t35 -44
t94 -17q93 0 147 -35.5t54 -94.5q0 -64 -62.5 -105t-157.5 -41q-87 0 -139 37t-52 96zM68 -123q0 -46 41.5 -73.5t112.5 -27.5q77 0 129.5 32t52.5 81q0 45 -44.5 72t-117.5 27q-80 0 -127 -30.5t-47 -80.5zM98 298q0 -56 35.5 -90.5t93.5 -34.5q57 0 93 35t36 90
q0 56 -36 91t-93 35q-58 0 -93.5 -35t-35.5 -91zM190 585q0 13 9 22.5t23 9.5t23.5 -9t9.5 -23t-9.5 -23.5t-23.5 -9.5q-13 0 -22.5 9.5t-9.5 23.5z" />
    <glyph glyph-name="Gcommaaccent" unicode="&#x122;" horiz-adv-x="751" 
d="M404 322v34h254v-261q-95 -101 -254 -101q-155 0 -251 99t-96 257t96 257t251 99q157 0 254 -102l-25 -25q-87 92 -228 92q-138 0 -224 -89t-86 -232t86 -232t224 -89q130 0 216 81v212h-217zM378 -190l-16 16q37 35 38 61q-12 1 -20.5 9.5t-8.5 20.5q0 13 9 21.5t22 8.5
q29 0 29 -38q0 -48 -53 -99z" />
    <glyph glyph-name="gcommaaccent" unicode="&#x123;" horiz-adv-x="495" 
d="M31 -123q0 46 30 79t81 48q-66 23 -66 75q0 56 74 79q-43 17 -66 53.5t-23 85.5q0 72 46 115.5t120 43.5q66 0 111 -36q33 36 76 36q9 0 23 -2v-33q-11 3 -21 3q-30 0 -58 -25q34 -42 34 -101q0 -70 -46.5 -113.5t-120.5 -43.5q-52 0 -82.5 -16.5t-30.5 -43.5t35 -44
t94 -17q93 0 147 -35.5t54 -94.5q0 -64 -62.5 -105t-157.5 -41q-87 0 -139 37t-52 96zM68 -123q0 -46 41.5 -73.5t112.5 -27.5q77 0 129.5 32t52.5 81q0 45 -44.5 72t-117.5 27q-80 0 -127 -30.5t-47 -80.5zM98 298q0 -56 35.5 -90.5t93.5 -34.5q57 0 93 35t36 90
q0 56 -36 91t-93 35q-58 0 -93.5 -35t-35.5 -91zM252 666l15 -16q-36 -38 -37 -62q12 0 20.5 -8.5t8.5 -21.5t-9 -21.5t-22 -8.5q-30 0 -30 38q0 46 54 100z" />
    <glyph glyph-name="Hcircumflex" unicode="&#x124;" horiz-adv-x="697" 
d="M130 700v-329h437v329h37v-700h-37v337h-437v-337h-38v700h38zM348 879l112 -112l-21 -22l-91 91l-90 -91l-22 22z" />
    <glyph glyph-name="hcircumflex" unicode="&#x125;" horiz-adv-x="529" 
d="M88 750h37v-342q57 48 142 48q76 0 123 -49t47 -129v-278h-37v278q0 64 -38 103.5t-100 39.5q-85 0 -137 -52v-369h-37v750zM265 882l112 -112l-22 -22l-90 91l-91 -91l-21 22z" />
    <glyph glyph-name="Hbar" unicode="&#x126;" horiz-adv-x="700" 
d="M114 0v517h-67v32h67v151h37v-151h396v151h37v-151h69v-32h-69v-517h-37v337h-396v-337h-37zM151 371h396v146h-396v-146z" />
    <glyph glyph-name="hbar" unicode="&#x127;" horiz-adv-x="534" 
d="M30 618v32h63v100h36v-100h192v-32h-192v-210q57 48 143 48q76 0 122.5 -49t46.5 -129v-278h-36v278q0 64 -38.5 103.5t-100.5 39.5q-84 0 -137 -53v-368h-36v618h-63z" />
    <glyph glyph-name="Itilde" unicode="&#x128;" horiz-adv-x="214" 
d="M88 0v700h37v-700h-37zM8 773h-27q0 34 20.5 54.5t52.5 20.5q30 0 57 -26t49 -26q21 0 34 13t13 35h27q0 -34 -20 -54.5t-54 -20.5q-31 0 -57.5 26t-47.5 26t-34 -13t-13 -35z" />
    <glyph glyph-name="itilde" unicode="&#x129;" 
d="M7 551h-27q0 34 20.5 55t52.5 21q30 0 57.5 -26.5t49.5 -26.5q20 0 33.5 13.5t13.5 35.5h27q0 -34 -20.5 -55t-53.5 -21q-31 0 -58 26.5t-48 26.5q-20 0 -33.5 -13.5t-13.5 -35.5zM88 0v450h37v-450h-37z" />
    <glyph glyph-name="Imacron" unicode="&#x12a;" horiz-adv-x="214" 
d="M88 0v700h37v-700h-37zM-7 776v28h228v-28h-228z" />
    <glyph glyph-name="imacron" unicode="&#x12b;" 
d="M-7 555v28h227v-28h-227zM88 0v450h37v-450h-37z" />
    <glyph glyph-name="Ibreve" unicode="&#x12c;" horiz-adv-x="214" 
d="M88 0v700h37v-700h-37zM107 794q61 0 107 46l22 -22q-53 -55 -129 -55q-74 0 -129 55l22 22q46 -46 107 -46z" />
    <glyph glyph-name="ibreve" unicode="&#x12d;" 
d="M106 572q63 0 107 47l23 -23q-55 -55 -130 -55q-74 0 -129 55l23 23q45 -47 106 -47zM88 0v450h37v-450h-37z" />
    <glyph glyph-name="Iogonek" unicode="&#x12e;" horiz-adv-x="214" 
d="M103 -42q0 -30 16.5 -47.5t43.5 -17.5q29 0 44 18l19 -18q-22 -25 -63 -25q-39 0 -62.5 24t-23.5 65q0 25 11 43v700h37v-700h-11q-11 -17 -11 -42z" />
    <glyph glyph-name="iogonek" unicode="&#x12f;" 
d="M103 -42q0 -30 16.5 -47.5t43.5 -17.5q29 0 44 18l19 -18q-22 -25 -63 -25q-39 0 -62.5 24t-23.5 65q0 25 11 43v450h37v-450h-11q-11 -17 -11 -42zM74 585q0 13 9 22.5t23 9.5t23.5 -9t9.5 -23t-9.5 -23.5t-23.5 -9.5q-13 0 -22.5 9.5t-9.5 23.5z" />
    <glyph glyph-name="Idotaccent" unicode="&#x130;" horiz-adv-x="214" 
d="M88 0v700h37v-700h-37zM74 806q0 14 9.5 23.5t23.5 9.5t23 -9.5t9 -23.5t-9.5 -23t-22.5 -9q-14 0 -23.5 9.5t-9.5 22.5z" />
    <glyph glyph-name="dotlessi" unicode="&#x131;" 
d="M88 0v450h37v-450h-37z" />
    <glyph glyph-name="IJ" unicode="&#x132;" horiz-adv-x="511" 
d="M92 250v450h38v-450h-38zM386 183v517h37v-517q0 -84 -51.5 -136.5t-133.5 -52.5q-83 0 -135 54l25 26q42 -45 109 -45q66 0 107.5 43t41.5 111z" />
    <glyph glyph-name="ij" unicode="&#x133;" horiz-adv-x="426" 
d="M88 0v450h37v-450h-37zM74 585q0 13 9 22.5t23 9.5t23.5 -9t9.5 -23t-9.5 -23.5t-23.5 -9.5q-13 0 -22.5 9.5t-9.5 23.5zM287 585q0 13 9.5 22.5t22.5 9.5q14 0 23.5 -9t9.5 -23t-9.5 -23.5t-23.5 -9.5q-13 0 -22.5 9.5t-9.5 23.5zM237 -250v25q64 0 64 60v615h37v-615
q0 -42 -22 -65t-55 -23q-18 0 -24 3z" />
    <glyph glyph-name="Jcircumflex" unicode="&#x134;" horiz-adv-x="455" 
d="M329 183v517h38v-517q0 -84 -51.5 -136.5t-133.5 -52.5q-83 0 -135 54l25 26q42 -45 109 -45q66 0 107 43t41 111zM348 879l112 -112l-22 -22l-90 91l-91 -91l-21 22z" />
    <glyph glyph-name="jcircumflex" unicode="&#x135;" 
d="M24 -250v25q64 0 64 60v615h37v-615q0 -42 -22 -65t-55 -23q-18 0 -24 3zM106 657l112 -112l-21 -21l-91 90l-90 -90l-21 21z" />
    <glyph glyph-name="Kcommaaccent" unicode="&#x136;" horiz-adv-x="575" 
d="M88 0v700h37v-700h-37zM483 0l-332 358l312 342h47l-313 -342l334 -358h-48zM268 -190l-16 16q37 35 38 61q-12 1 -20.5 9.5t-8.5 20.5q0 13 9 21.5t22 8.5q29 0 29 -38q0 -48 -53 -99z" />
    <glyph glyph-name="kcommaaccent" unicode="&#x137;" horiz-adv-x="450" 
d="M125 0h-37v750h37v-750zM360 0l-228 238l204 212h46l-205 -212l229 -238h-46zM206 -190l-16 16q35 34 38 61q-12 1 -20.5 9.5t-8.5 20.5q0 13 9 21.5t22 8.5q29 0 29 -38q0 -48 -53 -99z" />
    <glyph glyph-name="Lacute" unicode="&#x139;" horiz-adv-x="468" 
d="M130 700v-667h291v-33h-329v700h38zM167 767l112 112l22 -22l-112 -112z" />
    <glyph glyph-name="lacute" unicode="&#x13a;" horiz-adv-x="239" 
d="M190 25v-25q-8 -3 -25 -3q-33 0 -55 23t-22 65v665h37v-665q0 -60 65 -60zM53 798l112 112l22 -21l-112 -112z" />
    <glyph glyph-name="Lcommaaccent" unicode="&#x13b;" horiz-adv-x="468" 
d="M130 700v-667h291v-33h-329v700h38zM234 -190l-16 16q37 35 38 61q-12 1 -20.5 9.5t-8.5 20.5q0 13 9 21.5t22 8.5q29 0 29 -38q0 -48 -53 -99z" />
    <glyph glyph-name="lcommaaccent" unicode="&#x13c;" horiz-adv-x="239" 
d="M190 25v-25q-8 -3 -25 -3q-33 0 -55 23t-22 65v665h37v-665q0 -60 65 -60zM110 -190l-16 16q37 35 38 61q-12 1 -20.5 9.5t-8.5 20.5q0 13 9 21.5t22 8.5q29 0 29 -38q0 -48 -53 -99z" />
    <glyph glyph-name="Lcaron" unicode="&#x13d;" horiz-adv-x="468" 
d="M130 700v-667h291v-33h-329v700h38zM111 745l-112 112l22 22l90 -91l91 91l21 -22z" />
    <glyph glyph-name="lcaron" unicode="&#x13e;" horiz-adv-x="339" 
d="M190 25v-25q-8 -3 -25 -3q-33 0 -55 23t-22 65v665h37v-665q0 -60 65 -60zM259 610l-17 17q37 36 40 64q-13 1 -22 10t-9 22q0 14 9.5 23.5t23.5 9.5t23 -10.5t9 -30.5q0 -48 -57 -105z" />
    <glyph glyph-name="Ldot" unicode="&#x13f;" horiz-adv-x="468" 
d="M130 700v-667h291v-33h-329v700h38zM317 325q0 13 9.5 22.5t23.5 9.5t23 -9.5t9 -22.5q0 -14 -9.5 -23.5t-22.5 -9.5q-14 0 -23.5 10t-9.5 23z" />
    <glyph glyph-name="ldot" unicode="&#x140;" horiz-adv-x="355" 
d="M190 25v-25q-8 -3 -25 -3q-33 0 -55 23t-22 65v665h37v-665q0 -60 65 -60zM253 325q0 13 9.5 22.5t23.5 9.5t23 -9.5t9 -22.5q0 -14 -9.5 -23.5t-22.5 -9.5q-14 0 -23.5 10t-9.5 23z" />
    <glyph glyph-name="Lslash" unicode="&#x141;" horiz-adv-x="477" 
d="M17 247l84 84v369h38v-339l100 101l22 -22l-122 -122v-285h291v-33h-329v288l-63 -63z" />
    <glyph glyph-name="lslash" unicode="&#x142;" horiz-adv-x="252" 
d="M198 25v-25q-6 -3 -25 -3q-33 0 -55 23t-22 65v230l-62 -62l-21 21l83 84v392h37v-363l68 68l21 -22l-89 -89v-259q0 -30 17.5 -45t47.5 -15z" />
    <glyph glyph-name="Nacute" unicode="&#x143;" horiz-adv-x="718" 
d="M92 700h30l466 -632v632h37v-700h-30l-465 632v-632h-38v700zM312 767l112 112l22 -22l-112 -112z" />
    <glyph glyph-name="nacute" unicode="&#x144;" horiz-adv-x="525" 
d="M88 450h37v-42q57 48 142 48q76 0 123 -49t47 -129v-278h-37v278q0 64 -38 103.5t-100 39.5q-85 0 -137 -52v-369h-37v450zM215 545l112 112l22 -21l-112 -112z" />
    <glyph glyph-name="Ncommaaccent" unicode="&#x145;" horiz-adv-x="718" 
d="M92 700h30l466 -632v632h37v-700h-30l-465 632v-632h-38v700zM340 -190l-16 16q37 35 38 61q-12 1 -20.5 9.5t-8.5 20.5q0 13 9 21.5t22 8.5q29 0 29 -38q0 -48 -53 -99z" />
    <glyph glyph-name="ncommaaccent" unicode="&#x146;" horiz-adv-x="525" 
d="M88 450h37v-42q57 48 142 48q76 0 123 -49t47 -129v-278h-37v278q0 64 -38 103.5t-100 39.5q-85 0 -137 -52v-369h-37v450zM239 -190l-16 16q37 35 38 61q-12 1 -20.5 9.5t-8.5 20.5q0 13 9 21.5t22 8.5q29 0 29 -38q0 -48 -53 -99z" />
    <glyph glyph-name="Ncaron" unicode="&#x147;" horiz-adv-x="718" 
d="M92 700h30l466 -632v632h37v-700h-30l-465 632v-632h-38v700zM359 745l-112 112l21 22l91 -91l90 91l22 -22z" />
    <glyph glyph-name="ncaron" unicode="&#x148;" horiz-adv-x="525" 
d="M88 450h37v-42q57 48 142 48q76 0 123 -49t47 -129v-278h-37v278q0 64 -38 103.5t-100 39.5q-85 0 -137 -52v-369h-37v450zM262 524l-112 112l22 21l90 -90l91 90l21 -21z" />
    <glyph glyph-name="Eng" unicode="&#x14a;" horiz-adv-x="718" 
d="M524 -250v25q64 0 64 60v174l-458 623v-632h-38v700h30l466 -632v632h37v-865q0 -42 -22 -65t-55 -23q-18 0 -24 3z" />
    <glyph glyph-name="eng" unicode="&#x14b;" horiz-adv-x="525" 
d="M336 -250v25q64 0 64 60v443q0 64 -38 103.5t-100 39.5q-85 0 -137 -52v-369h-37v450h37v-42q57 48 142 48q76 0 123 -49t47 -129v-443q0 -42 -22 -65t-55 -23q-18 0 -24 3z" />
    <glyph glyph-name="Omacron" unicode="&#x14c;" horiz-adv-x="808" 
d="M57 350q0 158 96 257t251 99t251 -99t96 -257t-96 -257t-251 -99t-251 99t-96 257zM95 350q0 -143 86 -232t223 -89q138 0 223.5 89t85.5 232t-85.5 232t-223.5 89q-137 0 -223 -89t-86 -232zM290 776v28h228v-28h-228z" />
    <glyph glyph-name="omacron" unicode="&#x14d;" horiz-adv-x="558" 
d="M52 225q0 103 63 167t164 64q102 0 164.5 -64t62.5 -167t-62.5 -167t-164.5 -64q-101 0 -164 64t-63 167zM89 225q0 -88 52.5 -142.5t137.5 -54.5t137.5 54.5t52.5 142.5t-52.5 142t-137.5 54t-137.5 -54t-52.5 -142zM165 555v28h228v-28h-228z" />
    <glyph glyph-name="Obreve" unicode="&#x14e;" horiz-adv-x="808" 
d="M57 350q0 158 96 257t251 99t251 -99t96 -257t-96 -257t-251 -99t-251 99t-96 257zM95 350q0 -143 86 -232t223 -89q138 0 223.5 89t85.5 232t-85.5 232t-223.5 89q-137 0 -223 -89t-86 -232zM404 794q61 0 107 46l22 -22q-53 -55 -129 -55q-74 0 -129 55l22 22
q46 -46 107 -46z" />
    <glyph glyph-name="obreve" unicode="&#x14f;" horiz-adv-x="558" 
d="M52 225q0 103 63 167t164 64q102 0 164.5 -64t62.5 -167t-62.5 -167t-164.5 -64q-101 0 -164 64t-63 167zM89 225q0 -88 52.5 -142.5t137.5 -54.5t137.5 54.5t52.5 142.5t-52.5 142t-137.5 54t-137.5 -54t-52.5 -142zM279 572q62 0 107 47l22 -23q-55 -55 -129 -55
t-129 55l22 23q47 -47 107 -47z" />
    <glyph glyph-name="Ohungarumlaut" unicode="&#x150;" horiz-adv-x="808" 
d="M57 350q0 158 96 257t251 99t251 -99t96 -257t-96 -257t-251 -99t-251 99t-96 257zM95 350q0 -143 86 -232t223 -89q138 0 223.5 89t85.5 232t-85.5 232t-223.5 89q-137 0 -223 -89t-86 -232zM289 767l112 112l22 -22l-112 -112zM425 767l112 112l22 -22l-112 -112z" />
    <glyph glyph-name="ohungarumlaut" unicode="&#x151;" horiz-adv-x="558" 
d="M52 225q0 103 63 167t164 64q102 0 164.5 -64t62.5 -167t-62.5 -167t-164.5 -64q-101 0 -164 64t-63 167zM89 225q0 -88 52.5 -142.5t137.5 -54.5t137.5 54.5t52.5 142.5t-52.5 142t-137.5 54t-137.5 -54t-52.5 -142zM164 545l112 112l22 -21l-112 -112zM300 545l112 112
l22 -21l-112 -112z" />
    <glyph glyph-name="OE" unicode="&#x152;" horiz-adv-x="861" 
d="M506 666v-295h261v-34h-261v-304h300v-33h-333q-44 -6 -69 -6q-155 0 -251 99t-96 257t96 257t251 99q23 0 69 -6h328v-34h-295zM404 29q34 0 65 6v629q-29 7 -65 7q-137 0 -223 -89t-86 -232t86 -232t223 -89z" />
    <glyph glyph-name="oe" unicode="&#x153;" horiz-adv-x="864" 
d="M813 219h-372q2 -86 54 -138.5t137 -52.5q87 0 141 56l23 -24q-61 -66 -165 -66q-114 0 -176 79q-63 -79 -176 -79q-101 0 -164 64t-63 167t63 167t164 64q110 0 174 -77q58 77 159 77q93 0 147 -65t54 -172zM279 28q100 0 155 75q-30 53 -30 124q0 70 28 121
q-54 73 -153 73q-85 0 -137.5 -54t-52.5 -142t52.5 -142.5t137.5 -54.5zM614 422q-71 0 -118.5 -47t-54.5 -126h335q-6 80 -49.5 126.5t-112.5 46.5z" />
    <glyph glyph-name="Racute" unicode="&#x154;" horiz-adv-x="521" 
d="M437 0l-186 327h-121v-327h-38v700h179q84 0 135.5 -51.5t51.5 -135.5q0 -80 -46 -130t-122 -56l191 -327h-44zM420 513q0 69 -41 111t-108 42h-141v-305h141q67 0 108 42t41 110zM212 767l112 112l21 -22l-112 -112z" />
    <glyph glyph-name="racute" unicode="&#x155;" horiz-adv-x="341" 
d="M259 455q10 0 30 -2v-34q-16 3 -31 3q-84 0 -133 -68v-354h-37v450h37v-56q55 61 134 61zM142 545l112 112l22 -21l-112 -112z" />
    <glyph glyph-name="Rcommaaccent" unicode="&#x156;" horiz-adv-x="521" 
d="M437 0l-186 327h-121v-327h-38v700h179q84 0 135.5 -51.5t51.5 -135.5q0 -80 -46 -130t-122 -56l191 -327h-44zM420 513q0 69 -41 111t-108 42h-141v-305h141q67 0 108 42t41 110zM241 -190l-16 16q37 35 38 61q-12 1 -20.5 9.5t-8.5 20.5q0 13 9 21.5t22 8.5
q29 0 29 -38q0 -48 -53 -99z" />
    <glyph glyph-name="rcommaaccent" unicode="&#x157;" horiz-adv-x="341" 
d="M259 455q10 0 30 -2v-34q-16 3 -31 3q-84 0 -133 -68v-354h-37v450h37v-56q55 61 134 61zM84 -190l-16 16q36 36 37 61q-12 1 -20.5 9.5t-8.5 20.5q0 13 9 21.5t22 8.5q30 0 30 -38q0 -46 -53 -99z" />
    <glyph glyph-name="Rcaron" unicode="&#x158;" horiz-adv-x="521" 
d="M437 0l-186 327h-121v-327h-38v700h179q84 0 135.5 -51.5t51.5 -135.5q0 -80 -46 -130t-122 -56l191 -327h-44zM420 513q0 69 -41 111t-108 42h-141v-305h141q67 0 108 42t41 110zM258 745l-112 112l22 22l90 -91l91 91l21 -22z" />
    <glyph glyph-name="rcaron" unicode="&#x159;" horiz-adv-x="341" 
d="M259 455q10 0 30 -2v-34q-16 3 -31 3q-84 0 -133 -68v-354h-37v450h37v-56q55 61 134 61zM189 524l-112 112l22 21l90 -90l91 90l21 -21z" />
    <glyph glyph-name="Sacute" unicode="&#x15a;" horiz-adv-x="511" 
d="M429 631l-26 -25q-26 30 -70.5 47.5t-89.5 17.5q-74 0 -110 -43t-36 -98q0 -52 36.5 -87t89 -55l104.5 -41.5t88.5 -61t36.5 -99.5q0 -76 -51.5 -134t-152.5 -58q-59 0 -113 22t-89 61l24 25q31 -36 78.5 -54.5t96.5 -18.5q86 0 127.5 49t41.5 108q0 43 -26.5 73.5
t-65.5 46.5l-85.5 35.5t-85.5 39t-65.5 57.5t-26.5 91q0 72 45.5 124.5t137.5 52.5q116 0 187 -75zM194 767l112 112l22 -22l-112 -112z" />
    <glyph glyph-name="sacute" unicode="&#x15b;" horiz-adv-x="381" 
d="M307 407l-24 -23q-16 17 -45 28t-56 11q-45 0 -67 -26t-22 -59q0 -32 23.5 -53.5t57.5 -34l67.5 -25.5t57 -39t23.5 -64q0 -50 -35.5 -89t-104.5 -39q-86 0 -135 54l23 24q39 -45 111 -45q53 0 78.5 29.5t25.5 65.5q0 31 -23.5 51t-57.5 32.5l-67.5 26t-57 40t-23.5 65.5
q0 49 31 84t93 35q81 0 127 -49zM131 545l112 112l22 -21l-112 -112z" />
    <glyph glyph-name="Scircumflex" unicode="&#x15c;" horiz-adv-x="511" 
d="M429 631l-26 -25q-26 30 -70.5 47.5t-89.5 17.5q-74 0 -110 -43t-36 -98q0 -52 36.5 -87t89 -55l104.5 -41.5t88.5 -61t36.5 -99.5q0 -76 -51.5 -134t-152.5 -58q-59 0 -113 22t-89 61l24 25q31 -36 78.5 -54.5t96.5 -18.5q86 0 127.5 49t41.5 108q0 43 -26.5 73.5
t-65.5 46.5l-85.5 35.5t-85.5 39t-65.5 57.5t-26.5 91q0 72 45.5 124.5t137.5 52.5q116 0 187 -75zM241 879l112 -112l-21 -22l-91 91l-90 -91l-22 22z" />
    <glyph glyph-name="scircumflex" unicode="&#x15d;" horiz-adv-x="381" 
d="M307 407l-24 -23q-16 17 -45 28t-56 11q-45 0 -67 -26t-22 -59q0 -32 23.5 -53.5t57.5 -34l67.5 -25.5t57 -39t23.5 -64q0 -50 -35.5 -89t-104.5 -39q-86 0 -135 54l23 24q39 -45 111 -45q53 0 78.5 29.5t25.5 65.5q0 31 -23.5 51t-57.5 32.5l-67.5 26t-57 40t-23.5 65.5
q0 49 31 84t93 35q81 0 127 -49zM178 657l112 -112l-22 -21l-90 90l-91 -90l-21 21z" />
    <glyph glyph-name="Scedilla" unicode="&#x15e;" horiz-adv-x="511" 
d="M429 631l-26 -25q-26 30 -70.5 47.5t-89.5 17.5q-74 0 -110 -43t-36 -98q0 -52 36.5 -87t89 -55l104.5 -41.5t88.5 -61t36.5 -99.5q0 -74 -49 -131.5t-144 -60.5v-57q29 -5 46.5 -24t17.5 -48q0 -33 -21.5 -53t-54.5 -20q-35 0 -56 23l18 17q17 -15 38 -15q23 0 37 13.5
t14 35.5t-16 36t-48 14v78q-119 6 -188 83l24 25q31 -36 78.5 -54.5t96.5 -18.5q86 0 127.5 49t41.5 108q0 43 -26.5 73.5t-65.5 46.5l-85.5 35.5t-85.5 39t-65.5 57.5t-26.5 91q0 72 45.5 124.5t137.5 52.5q116 0 187 -75z" />
    <glyph glyph-name="scedilla" unicode="&#x15f;" horiz-adv-x="381" 
d="M307 407l-24 -23q-16 17 -45 28t-56 11q-45 0 -67 -26t-22 -59q0 -32 23.5 -53.5t57.5 -34l67.5 -25.5t57 -39t23.5 -64q0 -48 -32.5 -86t-95.5 -41v-58q29 -5 46.5 -24t17.5 -48q0 -33 -21.5 -53t-54.5 -20q-35 0 -56 23l18 17q17 -15 38 -15q23 0 37 13.5t14 35.5
t-16 36t-48 14v79q-78 5 -122 53l23 24q39 -45 111 -45q53 0 78.5 29.5t25.5 65.5q0 31 -23.5 51t-57.5 32.5l-67.5 26t-57 40t-23.5 65.5q0 49 31 84t93 35q81 0 127 -49z" />
    <glyph glyph-name="Scaron" unicode="&#x160;" horiz-adv-x="511" 
d="M429 631l-26 -25q-26 30 -70.5 47.5t-89.5 17.5q-74 0 -110 -43t-36 -98q0 -52 36.5 -87t89 -55l104.5 -41.5t88.5 -61t36.5 -99.5q0 -76 -51.5 -134t-152.5 -58q-59 0 -113 22t-89 61l24 25q31 -36 78.5 -54.5t96.5 -18.5q86 0 127.5 49t41.5 108q0 43 -26.5 73.5
t-65.5 46.5l-85.5 35.5t-85.5 39t-65.5 57.5t-26.5 91q0 72 45.5 124.5t137.5 52.5q116 0 187 -75zM241 745l-112 112l22 22l90 -91l91 91l21 -22z" />
    <glyph glyph-name="scaron" unicode="&#x161;" horiz-adv-x="381" 
d="M307 407l-24 -23q-16 17 -45 28t-56 11q-45 0 -67 -26t-22 -59q0 -32 23.5 -53.5t57.5 -34l67.5 -25.5t57 -39t23.5 -64q0 -50 -35.5 -89t-104.5 -39q-86 0 -135 54l23 24q39 -45 111 -45q53 0 78.5 29.5t25.5 65.5q0 31 -23.5 51t-57.5 32.5l-67.5 26t-57 40t-23.5 65.5
q0 49 31 84t93 35q81 0 127 -49zM178 524l-112 112l21 21l91 -90l90 90l22 -21z" />
    <glyph glyph-name="Tcommaaccent" unicode="&#x162;" horiz-adv-x="558" 
d="M298 666v-666h-37v666h-214v34h465v-34h-214zM260 -190l-16 16q37 35 38 61q-12 1 -20.5 9.5t-8.5 20.5q0 13 9 21.5t22 8.5q29 0 29 -38q0 -48 -53 -99z" />
    <glyph glyph-name="tcommaaccent" unicode="&#x163;" horiz-adv-x="306" 
d="M30 418v32h63v100h37v-100h141v-32h-141v-296q0 -42 25.5 -68t67.5 -26q29 0 48 12v-36q-27 -10 -52 -10q-57 0 -91.5 35.5t-34.5 92.5v296h-63zM146 -190l-16 16q36 34 37 61q-12 1 -20.5 9.5t-8.5 20.5q0 13 9 21.5t23 8.5q29 0 29 -38q0 -48 -53 -99z" />
    <glyph glyph-name="Tcaron" unicode="&#x164;" horiz-adv-x="558" 
d="M298 666v-666h-37v666h-214v34h465v-34h-214zM279 745l-112 112l21 22l91 -91l90 91l22 -22z" />
    <glyph glyph-name="tcaron" unicode="&#x165;" horiz-adv-x="318" 
d="M30 418v32h63v100h37v-100h141v-32h-141v-296q0 -42 25.5 -68t67.5 -26q29 0 48 12v-36q-27 -10 -52 -10q-57 0 -91.5 35.5t-34.5 92.5v296h-63zM244 567l-17 17q37 39 39 65q-13 1 -22 10t-9 22t10 22.5t24 9.5q31 0 31 -40q0 -50 -56 -106z" />
    <glyph glyph-name="Tbar" unicode="&#x166;" horiz-adv-x="558" 
d="M105 354v32h156v280h-214v34h465v-34h-214v-280h156v-32h-156v-354h-37v354h-156z" />
    <glyph glyph-name="tbar" unicode="&#x167;" horiz-adv-x="306" 
d="M30 269v31h63v118h-63v32h63v100h37v-100h141v-32h-141v-118h141v-31h-141v-147q0 -42 25.5 -68t67.5 -26q29 0 48 12v-36q-27 -10 -52 -10q-57 0 -91.5 35.5t-34.5 92.5v147h-63z" />
    <glyph glyph-name="Utilde" unicode="&#x168;" horiz-adv-x="689" 
d="M558 251v449h38v-449q0 -115 -69.5 -186t-182.5 -71t-182.5 71t-69.5 186v449h38v-449q0 -99 59 -160.5t154 -61.5q96 0 155.5 61.5t59.5 160.5zM244 773h-27q0 33 20.5 54t52.5 21q30 0 57.5 -26t49.5 -26q21 0 34 13t13 35h27q0 -34 -20.5 -54.5t-53.5 -20.5
q-31 0 -58 26t-48 26t-34 -13.5t-13 -34.5z" />
    <glyph glyph-name="utilde" unicode="&#x169;" horiz-adv-x="539" 
d="M450 450v-272q0 -82 -50 -133t-131 -51t-131 51t-50 133v272h37v-272q0 -67 40 -108.5t105 -41.5q64 0 104 41.5t40 108.5v272h36zM169 551h-27q0 34 20.5 55t52.5 21q30 0 57 -26.5t49 -26.5q21 0 34 13.5t13 35.5h27q0 -34 -20 -55t-54 -21q-31 0 -57 26.5t-48 26.5
q-21 0 -34 -13.5t-13 -35.5z" />
    <glyph glyph-name="Umacron" unicode="&#x16a;" horiz-adv-x="689" 
d="M558 251v449h38v-449q0 -115 -69.5 -186t-182.5 -71t-182.5 71t-69.5 186v449h38v-449q0 -99 59 -160.5t154 -61.5q96 0 155.5 61.5t59.5 160.5zM231 776v28h227v-28h-227z" />
    <glyph glyph-name="umacron" unicode="&#x16b;" horiz-adv-x="539" 
d="M450 450v-272q0 -82 -50 -133t-131 -51t-131 51t-50 133v272h37v-272q0 -67 40 -108.5t105 -41.5q64 0 104 41.5t40 108.5v272h36zM155 555v28h228v-28h-228z" />
    <glyph glyph-name="Ubreve" unicode="&#x16c;" horiz-adv-x="689" 
d="M558 251v449h38v-449q0 -115 -69.5 -186t-182.5 -71t-182.5 71t-69.5 186v449h38v-449q0 -99 59 -160.5t154 -61.5q96 0 155.5 61.5t59.5 160.5zM344 794q61 0 107 46l22 -22q-52 -55 -129 -55q-74 0 -129 55l22 22q46 -46 107 -46z" />
    <glyph glyph-name="ubreve" unicode="&#x16d;" horiz-adv-x="539" 
d="M450 450v-272q0 -82 -50 -133t-131 -51t-131 51t-50 133v272h37v-272q0 -67 40 -108.5t105 -41.5q64 0 104 41.5t40 108.5v272h36zM269 572q62 0 107 47l22 -23q-55 -55 -129 -55t-129 55l22 23q47 -47 107 -47z" />
    <glyph glyph-name="Uring" unicode="&#x16e;" horiz-adv-x="689" 
d="M558 251v449h38v-449q0 -115 -69.5 -186t-182.5 -71t-182.5 71t-69.5 186v449h38v-449q0 -99 59 -160.5t154 -61.5q96 0 155.5 61.5t59.5 160.5zM260 827q0 39 23 62.5t61 23.5t61.5 -23.5t23.5 -62.5t-23.5 -63t-61.5 -24t-61 24t-23 63zM285 827q0 -28 16.5 -45
t42.5 -17q27 0 43.5 17t16.5 45t-17 45t-43 17t-42.5 -17t-16.5 -45z" />
    <glyph glyph-name="uring" unicode="&#x16f;" horiz-adv-x="539" 
d="M450 450v-272q0 -82 -50 -133t-131 -51t-131 51t-50 133v272h37v-272q0 -67 40 -108.5t105 -41.5q64 0 104 41.5t40 108.5v272h36zM185 605q0 39 23 63t61 24t61.5 -24t23.5 -63q0 -38 -23.5 -62t-61.5 -24q-37 0 -60.5 24t-23.5 62zM209 605q0 -27 16.5 -44t43.5 -17
t43.5 17t16.5 44t-17 44.5t-43 17.5t-43 -17t-17 -45z" />
    <glyph glyph-name="Uhungarumlaut" unicode="&#x170;" horiz-adv-x="689" 
d="M558 251v449h38v-449q0 -115 -69.5 -186t-182.5 -71t-182.5 71t-69.5 186v449h38v-449q0 -99 59 -160.5t154 -61.5q96 0 155.5 61.5t59.5 160.5zM230 767l112 112l21 -22l-112 -112zM366 767l112 112l21 -22l-112 -112z" />
    <glyph glyph-name="uhungarumlaut" unicode="&#x171;" horiz-adv-x="539" 
d="M450 450v-272q0 -82 -50 -133t-131 -51t-131 51t-50 133v272h37v-272q0 -67 40 -108.5t105 -41.5q64 0 104 41.5t40 108.5v272h36zM154 545l112 112l22 -21l-112 -112zM290 545l112 112l22 -21l-112 -112z" />
    <glyph glyph-name="Uogonek" unicode="&#x172;" horiz-adv-x="689" 
d="M390 -42q0 -30 16.5 -47.5t43.5 -17.5q28 0 45 18l19 -18q-24 -25 -63 -25t-63 24t-24 65q0 23 9 38q-10 -1 -29 -1q-113 0 -182.5 71t-69.5 186v449h38v-449q0 -99 59 -160.5t154 -61.5q96 0 155.5 61.5t59.5 160.5v449h38v-449q0 -99 -53 -166.5t-143 -84.5
q-10 -18 -10 -42z" />
    <glyph glyph-name="uogonek" unicode="&#x173;" horiz-adv-x="539" 
d="M306 -42q0 -30 16.5 -47.5t43.5 -17.5q29 0 44 18l19 -18q-22 -25 -63 -25q-39 0 -62.5 24t-23.5 65q0 22 8 38q-6 -1 -19 -1q-81 0 -131 51t-50 133v272h37v-272q0 -67 40 -108.5t105 -41.5q64 0 104 41.5t40 108.5v272h36v-272q0 -69 -36 -116.5t-98 -61.5
q-10 -18 -10 -42z" />
    <glyph glyph-name="Wcircumflex" unicode="&#x174;" horiz-adv-x="1160" 
d="M1120 700l-271 -700h-39l-230 640l-230 -640h-39l-271 700h42l248 -647l230 647h40l230 -647l248 647h42zM580 879l112 -112l-22 -22l-90 91l-91 -91l-21 22z" />
    <glyph glyph-name="wcircumflex" unicode="&#x175;" horiz-adv-x="796" 
d="M757 450l-177 -450h-39l-143 401l-143 -401h-39l-177 450h41l156 -407l143 407h38l143 -407l156 407h41zM398 657l112 -112l-21 -21l-91 90l-90 -90l-22 21z" />
    <glyph glyph-name="Ycircumflex" unicode="&#x176;" horiz-adv-x="655" 
d="M309 0v316l-269 384h44l244 -347l243 347h44l-269 -384v-316h-37zM328 879l112 -112l-22 -22l-90 91l-91 -91l-21 22z" />
    <glyph glyph-name="ycircumflex" unicode="&#x177;" horiz-adv-x="530" 
d="M491 450l-326 -700h-40l121 250l-207 450h40l186 -408l185 408h41zM265 657l112 -112l-22 -21l-90 90l-91 -90l-21 21z" />
    <glyph glyph-name="Ydieresis" unicode="&#x178;" horiz-adv-x="655" 
d="M309 0v316l-269 384h44l244 -347l243 347h44l-269 -384v-316h-37zM205 796q0 13 9 22t22 9t22.5 -9t9.5 -22q0 -14 -9 -23t-23 -9q-13 0 -22 9.5t-9 22.5zM387 796q0 14 9.5 23t22.5 9t22 -9.5t9 -22.5t-9 -22.5t-22 -9.5t-22.5 9t-9.5 23z" />
    <glyph glyph-name="Zacute" unicode="&#x179;" horiz-adv-x="625" 
d="M65 666v34h499v-22l-456 -645h460v-33h-511v22l456 644h-448zM265 767l112 112l22 -22l-112 -112z" />
    <glyph glyph-name="zacute" unicode="&#x17a;" horiz-adv-x="467" 
d="M60 418v32h350v-22l-304 -396h304v-32h-353v22l304 396h-301zM186 545l112 112l22 -21l-112 -112z" />
    <glyph glyph-name="Zdotaccent" unicode="&#x17b;" horiz-adv-x="625" 
d="M65 666v34h499v-22l-456 -645h460v-33h-511v22l456 644h-448zM280 806q0 14 9 23.5t23 9.5t23.5 -9.5t9.5 -23.5q0 -13 -9.5 -22.5t-23.5 -9.5t-23 9t-9 23z" />
    <glyph glyph-name="zdotaccent" unicode="&#x17c;" horiz-adv-x="467" 
d="M60 418v32h350v-22l-304 -396h304v-32h-353v22l304 396h-301zM200 585q0 13 9.5 22.5t23.5 9.5q13 0 22.5 -9.5t9.5 -22.5q0 -14 -9.5 -23.5t-22.5 -9.5t-23 10t-10 23z" />
    <glyph glyph-name="Zcaron" unicode="&#x17d;" horiz-adv-x="625" 
d="M65 666v34h499v-22l-456 -645h460v-33h-511v22l456 644h-448zM312 745l-112 112l22 22l90 -91l91 91l21 -22z" />
    <glyph glyph-name="zcaron" unicode="&#x17e;" horiz-adv-x="467" 
d="M60 418v32h350v-22l-304 -396h304v-32h-353v22l304 396h-301zM233 524l-112 112l21 21l91 -90l90 90l22 -21z" />
    <glyph glyph-name="longs" unicode="&#x17f;" horiz-adv-x="297" 
d="M88 0v622q0 60 36 97t95 37q26 0 53 -10v-36q-19 12 -49 12q-44 0 -71 -28t-27 -72v-622h-37z" />
    <glyph glyph-name="uni018F" unicode="&#x18f;" horiz-adv-x="755" 
d="M698 350q0 -158 -89 -257t-231 -99q-144 0 -232.5 98.5t-88.5 257.5v16h603q-5 136 -90.5 220.5t-219.5 84.5q-141 0 -227 -92l-26 25q96 102 254 102q155 0 251 -99t96 -257zM378 29q122 0 199.5 83.5t82.5 219.5h-564q5 -136 82 -219.5t200 -83.5z" />
    <glyph glyph-name="florin" unicode="&#x192;" horiz-adv-x="311" 
d="M38 -250v25q64 0 64 60v583h-68v32h68v172q0 60 36 97t95 37q26 0 53 -10v-36q-20 12 -50 12q-43 0 -70 -28t-27 -72v-172h147v-32h-147v-583q0 -42 -22 -65t-55 -23q-18 0 -24 3z" />
    <glyph glyph-name="uni01DD" unicode="&#x1dd;" horiz-adv-x="513" 
d="M52 231h372q-2 86 -54 138t-137 52q-88 0 -141 -55l-23 24q61 66 165 66q102 0 165 -64t63 -169q0 -101 -58 -165t-151 -64t-147 65t-54 172zM252 28q70 0 117.5 47t54.5 126h-335q6 -80 49.5 -126.5t113.5 -46.5z" />
    <glyph glyph-name="Aringacute" unicode="&#x1fa;" horiz-adv-x="737" 
d="M346 870l112 112l22 -22l-100 -100q34 -4 53.5 -27t19.5 -59q0 -33 -16.5 -55.5t-45.5 -28.5l307 -690h-43l-103 235h-367l-103 -235h-42l306 690q-29 7 -45.5 29t-16.5 55q0 35 19.5 58t52.5 28zM369 655l-169 -385h337zM309 774q0 -28 16.5 -44.5t43.5 -16.5t43.5 16.5
t16.5 44.5q0 27 -17 44.5t-43 17.5t-43 -17t-17 -45z" />
    <glyph glyph-name="aringacute" unicode="&#x1fb;" horiz-adv-x="445" 
d="M396 25v-25q-7 -3 -21 -3q-47 0 -59 47q-56 -50 -133 -50q-65 0 -96 35.5t-31 82.5q0 65 61.5 103.5t160.5 38.5q24 0 36 -3v75q0 38 -27 67.5t-80 29.5q-31 0 -61 -10.5t-47 -28.5l-22 22q48 50 131 50q71 0 107 -38.5t36 -91.5v-259q0 -42 45 -42zM190 27q73 0 124 52
v143q-16 2 -35 2q-83 0 -135 -30t-52 -80q0 -33 23 -60t75 -27zM189 666l112 112l22 -22l-101 -101q34 -3 54 -26t20 -59q0 -39 -23 -63t-61 -24t-61.5 24t-23.5 63q0 35 20 58t52 27zM152 570q0 -28 17 -45t43 -17t43 17t17 45q0 27 -17 44.5t-43 17.5t-43 -17t-17 -45z
" />
    <glyph glyph-name="AEacute" unicode="&#x1fc;" horiz-adv-x="765" 
d="M406 666v-295h264v-34h-264v-304h304v-33h-341v235h-184l-103 -235h-42l310 700h355v-34h-299zM200 270h169v383zM357 767l112 112l22 -22l-112 -112z" />
    <glyph glyph-name="aeacute" unicode="&#x1fd;" horiz-adv-x="732" 
d="M314 251v75q0 38 -27 67.5t-80 29.5q-31 0 -61 -10.5t-47 -28.5l-22 22q48 50 131 50q87 0 122 -64q58 64 150 64q93 0 147 -65t54 -172h-330v-123q51 -68 149 -68q87 0 141 56l23 -24q-61 -66 -165 -66q-111 0 -171 69q-59 -69 -145 -69q-65 0 -96 35.5t-31 82.5
q0 65 61.5 103.5t160.5 38.5q24 0 36 -3zM351 326v-77h293q-6 80 -49.5 126.5t-112.5 46.5q-87 0 -135 -65q4 -20 4 -31zM314 87v135q-16 2 -35 2q-83 0 -135 -30t-52 -80q0 -33 23 -60t75 -27q73 0 124 60zM322 545l112 112l22 -21l-112 -112z" />
    <glyph glyph-name="Oslashacute" unicode="&#x1fe;" horiz-adv-x="808" 
d="M68 -6l86 97q-97 99 -97 259q0 158 96 257t251 99q133 0 226 -77l68 77h42l-87 -98q98 -98 98 -258q0 -158 -96 -257t-251 -99q-136 0 -226 76l-67 -76h-43zM95 350q0 -141 84 -230l427 482q-83 69 -202 69q-137 0 -223 -89t-86 -232zM713 350q0 141 -84 230l-426 -482
q82 -69 201 -69q138 0 223.5 89t85.5 232zM357 767l112 112l22 -22l-112 -112z" />
    <glyph glyph-name="oslashacute" unicode="&#x1ff;" horiz-adv-x="558" 
d="M68 -6l50 61q-66 64 -66 170q0 103 63 167t164 64q78 0 136 -41l34 42h41l-51 -61q67 -65 67 -171q0 -103 -62.5 -167t-164.5 -64q-79 0 -137 41l-33 -41h-41zM471 225q0 88 -54 144l-253 -308q48 -34 115 -34q86 0 139 55t53 143zM88 225q0 -88 52 -143l253 307
q-48 34 -114 34q-85 0 -138 -54.5t-53 -143.5zM232 545l112 112l22 -21l-112 -112z" />
    <glyph glyph-name="Scommaaccent" unicode="&#x218;" horiz-adv-x="511" 
d="M429 631l-26 -25q-26 30 -70.5 47.5t-89.5 17.5q-74 0 -110 -43t-36 -98q0 -52 36.5 -87t89 -55l104.5 -41.5t88.5 -61t36.5 -99.5q0 -76 -51.5 -134t-152.5 -58q-59 0 -113 22t-89 61l24 25q31 -36 78.5 -54.5t96.5 -18.5q86 0 127.5 49t41.5 108q0 43 -26.5 73.5
t-65.5 46.5l-85.5 35.5t-85.5 39t-65.5 57.5t-26.5 91q0 72 45.5 124.5t137.5 52.5q116 0 187 -75zM229 -190l-16 16q35 34 38 61q-12 1 -20.5 9.5t-8.5 20.5q0 13 9 21.5t22 8.5q29 0 29 -38q0 -48 -53 -99z" />
    <glyph glyph-name="scommaaccent" unicode="&#x219;" horiz-adv-x="381" 
d="M307 407l-24 -23q-16 17 -45 28t-56 11q-45 0 -67 -26t-22 -59q0 -32 23.5 -53.5t57.5 -34l67.5 -25.5t57 -39t23.5 -64q0 -50 -35.5 -89t-104.5 -39q-86 0 -135 54l23 24q39 -45 111 -45q53 0 78.5 29.5t25.5 65.5q0 31 -23.5 51t-57.5 32.5l-67.5 26t-57 40t-23.5 65.5
q0 49 31 84t93 35q81 0 127 -49zM160 -190l-16 16q35 34 38 61q-12 1 -20.5 9.5t-8.5 20.5q0 13 9 21.5t22 8.5q29 0 29 -38q0 -48 -53 -99z" />
    <glyph glyph-name="uni021A" unicode="&#x21a;" horiz-adv-x="558" 
d="M298 666v-666h-37v666h-214v34h465v-34h-214zM260 -190l-16 16q37 35 38 61q-12 1 -20.5 9.5t-8.5 20.5q0 13 9 21.5t22 8.5q29 0 29 -38q0 -48 -53 -99z" />
    <glyph glyph-name="uni021B" unicode="&#x21b;" horiz-adv-x="306" 
d="M30 418v32h63v100h37v-100h141v-32h-141v-296q0 -42 25.5 -68t67.5 -26q29 0 48 12v-36q-27 -10 -52 -10q-57 0 -91.5 35.5t-34.5 92.5v296h-63zM146 -190l-16 16q36 34 37 61q-12 1 -20.5 9.5t-8.5 20.5q0 13 9 21.5t23 8.5q29 0 29 -38q0 -48 -53 -99z" />
    <glyph glyph-name="dotlessj" unicode="&#x237;" 
d="M24 -250v25q64 0 64 60v615h37v-615q0 -42 -22 -65t-55 -23q-18 0 -24 3z" />
    <glyph glyph-name="circumflex" unicode="&#x2c6;" horiz-adv-x="352" 
d="M176 657l112 -112l-22 -21l-90 90l-91 -90l-21 21z" />
    <glyph glyph-name="caron" unicode="&#x2c7;" horiz-adv-x="352" 
d="M176 524l-112 112l21 21l91 -90l90 90l22 -21z" />
    <glyph glyph-name="breve" unicode="&#x2d8;" horiz-adv-x="351" 
d="M175 572q62 0 107 47l22 -23q-55 -55 -129 -55t-129 55l22 23q47 -47 107 -47z" />
    <glyph glyph-name="dotaccent" unicode="&#x2d9;" 
d="M74 585q0 13 9 22.5t23 9.5t23.5 -9t9.5 -23t-9.5 -23.5t-23.5 -9.5q-13 0 -22.5 9.5t-9.5 23.5z" />
    <glyph glyph-name="ring" unicode="&#x2da;" horiz-adv-x="275" 
d="M53 605q0 39 23.5 63t61.5 24t61 -24t23 -63q0 -38 -23 -62t-61 -24t-61.5 24t-23.5 62zM78 605q0 -27 17 -44t43 -17t43 17t17 44t-17 44.5t-43 17.5t-43 -17t-17 -45z" />
    <glyph glyph-name="ogonek" unicode="&#x2db;" horiz-adv-x="255" 
d="M78 -42q0 -30 17 -47.5t44 -17.5q29 0 44 18l19 -18q-22 -25 -63 -25q-39 0 -62.5 24t-23.5 65q0 25 11 43h26q-12 -16 -12 -42z" />
    <glyph glyph-name="tilde" unicode="&#x2dc;" horiz-adv-x="327" 
d="M64 551h-27q0 34 20.5 55t52.5 21q30 0 57 -26.5t49 -26.5q21 0 34 13.5t13 35.5h27q0 -34 -20 -55t-54 -21q-30 0 -57 26.5t-48 26.5t-34 -13.5t-13 -35.5z" />
    <glyph glyph-name="hungarumlaut" unicode="&#x2dd;" horiz-adv-x="397" 
d="M64 545l112 112l21 -21l-112 -112zM200 545l112 112l21 -21l-112 -112z" />
    <glyph glyph-name="uni0400" unicode="&#x400;" horiz-adv-x="513" 
d="M130 666v-295h288v-34h-288v-304h327v-33h-365v700h360v-34h-322zM209 879l112 -112l-21 -22l-112 112z" />
    <glyph glyph-name="afii10023" unicode="&#x401;" horiz-adv-x="513" 
d="M130 666v-295h288v-34h-288v-304h327v-33h-365v700h360v-34h-322zM151 796q0 13 9.5 22t22.5 9t22.5 -9t9.5 -22q0 -14 -9.5 -23t-22.5 -9t-22.5 9t-9.5 23zM334 796q0 13 9 22.5t22 9.5t22.5 -9t9.5 -23t-9.5 -23t-22.5 -9t-22 9.5t-9 22.5z" />
    <glyph glyph-name="afii10051" unicode="&#x402;" horiz-adv-x="703" 
d="M510 0v25q29 0 46.5 15t17.5 45v163q0 64 -38.5 104t-100.5 40q-85 0 -137 -54v-338h-37v666h-214v34h465v-34h-214v-288q59 48 143 48q76 0 123 -49t47 -129v-163q0 -42 -22 -65t-55 -23q-18 0 -24 3z" />
    <glyph glyph-name="afii10052" unicode="&#x403;" horiz-adv-x="470" 
d="M207 767l112 112l21 -22l-112 -112zM92 0v700h329v-34h-291v-666h-38z" />
    <glyph glyph-name="afii10053" unicode="&#x404;" horiz-adv-x="705" 
d="M405 671q-133 0 -218 -83t-91 -217h456v-34h-456q4 -138 89 -223t220 -85q142 0 228 91l25 -24q-96 -102 -254 -102q-155 0 -251 99t-96 257t96 257t251 99q157 0 254 -102l-25 -25q-87 92 -228 92z" />
    <glyph glyph-name="afii10054" unicode="&#x405;" horiz-adv-x="511" 
d="M429 631l-26 -25q-26 30 -70.5 47.5t-89.5 17.5q-74 0 -110 -43t-36 -98q0 -52 36.5 -87t89 -55l104.5 -41.5t88.5 -61t36.5 -99.5q0 -76 -51.5 -134t-152.5 -58q-59 0 -113 22t-89 61l24 25q31 -36 78.5 -54.5t96.5 -18.5q86 0 127.5 49t41.5 108q0 43 -26.5 73.5
t-65.5 46.5l-85.5 35.5t-85.5 39t-65.5 57.5t-26.5 91q0 72 45.5 124.5t137.5 52.5q116 0 187 -75z" />
    <glyph glyph-name="afii10055" unicode="&#x406;" horiz-adv-x="214" 
d="M88 0v700h37v-700h-37z" />
    <glyph glyph-name="afii10056" unicode="&#x407;" horiz-adv-x="214" 
d="M88 0v700h37v-700h-37zM2 796q0 13 9.5 22t22.5 9t22.5 -9t9.5 -22q0 -14 -9 -23t-23 -9t-23 9t-9 23zM148 796q0 13 9 22.5t22 9.5t22.5 -9t9.5 -23t-9.5 -23t-22.5 -9t-22 9.5t-9 22.5z" />
    <glyph glyph-name="afii10057" unicode="&#x408;" horiz-adv-x="455" 
d="M329 183v517h38v-517q0 -84 -51.5 -136.5t-133.5 -52.5q-83 0 -135 54l25 26q42 -45 109 -45q66 0 107 43t41 111z" />
    <glyph glyph-name="afii10058" unicode="&#x409;" horiz-adv-x="937" 
d="M510 0v666h-307v-512q0 -74 -35.5 -115.5t-85.5 -41.5q-28 0 -38 3v25q56 0 88.5 31t32.5 93v551h383v-327h145q84 0 135.5 -51t51.5 -135q0 -85 -51.5 -136t-135.5 -51h-183zM842 187q0 68 -41 110t-108 42h-145v-305h145q67 0 108 42t41 111z" />
    <glyph glyph-name="afii10059" unicode="&#x40a;" horiz-adv-x="929" 
d="M130 700v-327h372v327h38v-327h144q84 0 136 -51t52 -135q0 -85 -52 -136t-136 -51h-182v339h-372v-339h-38v700h38zM834 187q0 68 -41.5 110t-108.5 42h-144v-305h144q68 0 109 42t41 111z" />
    <glyph glyph-name="afii10060" unicode="&#x40b;" horiz-adv-x="703" 
d="M298 666v-288q59 48 143 48q76 0 123 -49t47 -129v-248h-37v248q0 64 -38.5 104t-100.5 40q-85 0 -137 -54v-338h-37v666h-214v34h465v-34h-214z" />
    <glyph glyph-name="afii10061" unicode="&#x40c;" horiz-adv-x="575" 
d="M88 0v700h37v-700h-37zM483 0l-332 358l312 342h47l-313 -342l334 -358h-48zM240 767l112 112l22 -22l-112 -112z" />
    <glyph glyph-name="uni040D" unicode="&#x40d;" horiz-adv-x="715" 
d="M292 879l112 -112l-21 -22l-112 112zM593 700h30v-700h-37v632l-464 -632h-30v700h38v-632z" />
    <glyph glyph-name="afii10062" unicode="&#x40e;" horiz-adv-x="610" 
d="M305 794q61 0 107 46l22 -22q-53 -55 -129 -55q-74 0 -129 55l22 22q46 -46 107 -46zM571 700l-361 -700h-40l116 220l-247 480h40l226 -438l225 438h41z" />
    <glyph glyph-name="afii10145" unicode="&#x40f;" horiz-adv-x="705" 
d="M335 0h-243v700h38v-667h446v667h37v-700h-242v-150h-36v150z" />
    <glyph glyph-name="afii10017" unicode="&#x410;" horiz-adv-x="737" 
d="M655 0l-103 235h-367l-103 -235h-42l310 700h37l311 -700h-43zM369 655l-169 -385h337z" />
    <glyph glyph-name="afii10018" unicode="&#x411;" horiz-adv-x="532" 
d="M92 0v700h332v-34h-294v-293h158q84 0 135.5 -51t51.5 -135q0 -85 -51.5 -136t-135.5 -51h-196zM437 187q0 68 -41 110t-108 42h-158v-305h158q67 0 108 42t41 111z" />
    <glyph glyph-name="afii10019" unicode="&#x412;" horiz-adv-x="536" 
d="M92 0v700h170q80 0 129 -48t49 -129q0 -56 -25 -96.5t-69 -60.5q61 -14 96.5 -61.5t35.5 -116.5q0 -85 -51.5 -136.5t-135.5 -51.5h-199zM441 190q0 68 -42 110.5t-109 42.5h-160v-309h160q68 0 109.5 43t41.5 113zM402 522q0 65 -38.5 104.5t-102.5 39.5h-131v-289h131
q64 0 102.5 40t38.5 105z" />
    <glyph glyph-name="afii10020" unicode="&#x413;" horiz-adv-x="470" 
d="M92 0v700h329v-34h-291v-666h-38z" />
    <glyph glyph-name="afii10021" unicode="&#x414;" horiz-adv-x="673" 
d="M592 0h-511v-150h-36v183q119 0 119 155v512h393v-667h70v-183h-35v150zM202 187q0 -109 -61 -154h378v633h-317v-479z" />
    <glyph glyph-name="afii10022" unicode="&#x415;" horiz-adv-x="513" 
d="M130 666v-295h288v-34h-288v-304h327v-33h-365v700h360v-34h-322z" />
    <glyph glyph-name="afii10024" unicode="&#x416;" horiz-adv-x="873" 
d="M417 0v700h38v-700h-38zM784 0l-304 358l289 342h44l-289 -342l305 -358h-45zM392 358l-304 -358h-45l305 358l-289 342h44z" />
    <glyph glyph-name="afii10025" unicode="&#x417;" horiz-adv-x="536" 
d="M181 343v34h80q65 0 104 40t39 110q0 66 -36.5 105t-105.5 39q-97 0 -180 -83l-25 25q93 93 206 93q87 0 132.5 -48.5t45.5 -129.5q0 -120 -95 -162q60 -15 96 -62t36 -117q0 -88 -57 -140.5t-155 -52.5q-125 0 -219 102l25 24q85 -91 193 -91q83 0 129.5 43.5
t46.5 116.5q0 70 -41.5 112t-109.5 42h-109z" />
    <glyph glyph-name="afii10026" unicode="&#x418;" horiz-adv-x="715" 
d="M593 700h30v-700h-37v632l-464 -632h-30v700h38v-632z" />
    <glyph glyph-name="afii10027" unicode="&#x419;" horiz-adv-x="715" 
d="M358 794q61 0 107 46l22 -22q-53 -55 -129 -55q-74 0 -129 55l22 22q46 -46 107 -46zM593 700h30v-700h-37v632l-464 -632h-30v700h38v-632z" />
    <glyph glyph-name="afii10028" unicode="&#x41a;" horiz-adv-x="575" 
d="M88 0v700h37v-700h-37zM483 0l-332 358l312 342h47l-313 -342l334 -358h-48z" />
    <glyph glyph-name="afii10029" unicode="&#x41b;" horiz-adv-x="659" 
d="M44 0v25q56 0 88.5 31t32.5 93v551h402v-700h-38v666h-326v-512q0 -74 -35.5 -115.5t-85.5 -41.5q-28 0 -38 3z" />
    <glyph glyph-name="afii10030" unicode="&#x41c;" horiz-adv-x="821" 
d="M691 0v621l-268 -447h-26l-267 447v-621h-38v700h31l287 -479l288 479h30v-700h-37z" />
    <glyph glyph-name="afii10031" unicode="&#x41d;" horiz-adv-x="697" 
d="M130 700v-329h437v329h37v-700h-37v337h-437v-337h-38v700h38z" />
    <glyph glyph-name="afii10032" unicode="&#x41e;" horiz-adv-x="808" 
d="M57 350q0 158 96 257t251 99t251 -99t96 -257t-96 -257t-251 -99t-251 99t-96 257zM95 350q0 -143 86 -232t223 -89q138 0 223.5 89t85.5 232t-85.5 232t-223.5 89q-137 0 -223 -89t-86 -232z" />
    <glyph glyph-name="afii10033" unicode="&#x41f;" horiz-adv-x="674" 
d="M92 700h489v-700h-37v666h-414v-666h-38v700z" />
    <glyph glyph-name="afii10034" unicode="&#x420;" horiz-adv-x="509" 
d="M92 0v700h173q84 0 135.5 -51.5t51.5 -135.5t-51.5 -135t-135.5 -51h-135v-327h-38zM414 513q0 69 -41 111t-108 42h-135v-305h135q67 0 108 42t41 110z" />
    <glyph glyph-name="afii10035" unicode="&#x421;" horiz-adv-x="705" 
d="M95 350q0 -143 86 -232t224 -89q142 0 228 91l25 -24q-96 -102 -254 -102q-155 0 -251 99t-96 257t96 257t251 99q157 0 254 -102l-25 -25q-87 92 -228 92q-138 0 -224 -89t-86 -232z" />
    <glyph glyph-name="afii10036" unicode="&#x422;" horiz-adv-x="558" 
d="M298 666v-666h-37v666h-214v34h465v-34h-214z" />
    <glyph glyph-name="afii10037" unicode="&#x423;" horiz-adv-x="610" 
d="M571 700l-361 -700h-40l116 220l-247 480h40l226 -438l225 438h41z" />
    <glyph glyph-name="afii10038" unicode="&#x424;" horiz-adv-x="738" 
d="M350 0v69q-130 0 -211.5 78t-81.5 203t81.5 203t211.5 78v69h38v-69q130 0 211.5 -78t81.5 -203t-81.5 -203t-211.5 -78v-69h-38zM388 596v-492q114 0 184.5 68t70.5 178t-70.5 178t-184.5 68zM350 104v492q-114 0 -184.5 -68t-70.5 -178t70.5 -178t184.5 -68z" />
    <glyph glyph-name="afii10039" unicode="&#x425;" horiz-adv-x="706" 
d="M615 0l-262 327l-262 -327h-47l283 353l-277 347h47l256 -320l256 320h48l-279 -347l284 -353h-47z" />
    <glyph glyph-name="afii10040" unicode="&#x426;" horiz-adv-x="728" 
d="M647 0h-555v700h38v-667h446v667h37v-667h70v-183h-36v150z" />
    <glyph glyph-name="afii10041" unicode="&#x427;" horiz-adv-x="581" 
d="M488 0h-36v331q-69 -22 -158 -22q-98 0 -150 53t-52 154v184h37v-183q0 -82 41 -128.5t128 -46.5q98 0 154 22v336h36v-700z" />
    <glyph glyph-name="afii10042" unicode="&#x428;" horiz-adv-x="1039" 
d="M946 0h-854v700h38v-667h371v667h37v-667h371v667h37v-700z" />
    <glyph glyph-name="afii10043" unicode="&#x429;" horiz-adv-x="1062" 
d="M980 0h-888v700h38v-667h371v667h37v-667h371v667h37v-667h70v-183h-36v150z" />
    <glyph glyph-name="afii10044" unicode="&#x42a;" horiz-adv-x="632" 
d="M47 666v34h196v-327h145q84 0 135.5 -51t51.5 -135q0 -85 -51.5 -136t-135.5 -51h-183v666h-158zM537 187q0 68 -41 110t-108 42h-145v-305h145q67 0 108 42t41 111z" />
    <glyph glyph-name="afii10045" unicode="&#x42b;" horiz-adv-x="710" 
d="M92 0v700h38v-327h145q84 0 135.5 -51t51.5 -135q0 -85 -51.5 -136t-135.5 -51h-183zM424 187q0 68 -41 110t-108 42h-145v-305h145q67 0 108 42t41 111zM580 0v700h37v-700h-37z" />
    <glyph glyph-name="afii10046" unicode="&#x42c;" horiz-adv-x="519" 
d="M92 0v700h38v-327h145q84 0 135.5 -51t51.5 -135q0 -85 -51.5 -136t-135.5 -51h-183zM424 187q0 68 -41 110t-108 42h-145v-305h145q67 0 108 42t41 111z" />
    <glyph glyph-name="afii10047" unicode="&#x42d;" horiz-adv-x="705" 
d="M72 579l-25 25q97 102 254 102q155 0 251 -99t96 -257t-96 -257t-251 -99q-158 0 -254 102l25 24q86 -91 228 -91q136 0 221 85t89 223h-385v34h385q-7 134 -92 217t-218 83q-141 0 -228 -92z" />
    <glyph glyph-name="afii10048" unicode="&#x42e;" horiz-adv-x="1029" 
d="M130 700v-329h216q6 150 91.5 242.5t220.5 92.5q140 0 227 -99t87 -257t-87 -257t-227 -99q-137 0 -222.5 95t-89.5 248h-216v-337h-38v700h38zM383 350q0 -143 76.5 -232t198.5 -89q123 0 199.5 89t76.5 232t-76.5 232t-199.5 89q-122 0 -198.5 -89t-76.5 -232z" />
    <glyph glyph-name="afii10049" unicode="&#x42f;" horiz-adv-x="538" 
d="M445 700v-700h-38v327h-133l-182 -327h-43l185 327q-80 3 -128.5 53.5t-48.5 132.5q0 84 51.5 135.5t135.5 51.5h201zM95 513q0 -68 41 -110t108 -42h163v305h-163q-67 0 -108 -42t-41 -111z" />
    <glyph glyph-name="afii10065" unicode="&#x430;" horiz-adv-x="445" 
d="M396 25v-25q-7 -3 -21 -3q-47 0 -59 47q-56 -50 -133 -50q-65 0 -96 35.5t-31 82.5q0 65 61.5 103.5t160.5 38.5q24 0 36 -3v75q0 38 -27 67.5t-80 29.5q-31 0 -61 -10.5t-47 -28.5l-22 22q48 50 131 50q71 0 107 -38.5t36 -91.5v-259q0 -42 45 -42zM190 27q73 0 124 52
v143q-16 2 -35 2q-83 0 -135 -30t-52 -80q0 -33 23 -60t75 -27z" />
    <glyph glyph-name="afii10066" unicode="&#x431;" horiz-adv-x="568" 
d="M444 755l23 -23q-22 -27 -55 -47.5t-65.5 -32.5l-68 -26t-66 -34.5t-55.5 -52t-40 -84.5t-16 -125h5q50 126 186 126q99 0 161.5 -64t62.5 -168q0 -103 -63.5 -166.5t-169.5 -63.5q-220 0 -220 311q0 86 16 150t44 101t61.5 61.5t72 39l72.5 26.5t65.5 29.5t49.5 42.5z
M111 224q0 -88 45 -142t130 -54q86 0 139.5 55t53.5 143q0 87 -53 141t-138 54q-83 0 -130 -53t-47 -144z" />
    <glyph glyph-name="afii10067" unicode="&#x432;" horiz-adv-x="437" 
d="M88 0v450h143q54 0 86 -31t32 -82q0 -69 -56 -99q38 -12 60 -42.5t22 -72.5q0 -55 -35 -89t-94 -34h-158zM242 220h-117v-189h117q44 0 70.5 26t26.5 69q0 42 -26.5 68t-70.5 26zM125 249h102q39 0 63 23.5t24 62.5q0 38 -23.5 61t-63.5 23h-102v-170z" />
    <glyph glyph-name="afii10068" unicode="&#x433;" horiz-adv-x="369" 
d="M125 418v-418h-37v450h234v-32h-197z" />
    <glyph glyph-name="afii10069" unicode="&#x434;" horiz-adv-x="524" 
d="M473 32v-152h-35v120h-357v-120h-35v152q40 0 65.5 31.5t25.5 82.5v304h280v-418h56zM174 148q0 -70 -49 -116h255v386h-206v-270z" />
    <glyph glyph-name="afii10070" unicode="&#x435;" horiz-adv-x="513" 
d="M462 219h-372q2 -86 54 -138.5t137 -52.5q87 0 140 56l24 -24q-63 -66 -166 -66q-101 0 -164 64t-63 169q0 101 58 165t151 64q92 0 146.5 -65t54.5 -172zM262 422q-71 0 -118.5 -47t-53.5 -126h334q-6 80 -49 126.5t-113 46.5z" />
    <glyph glyph-name="afii10072" unicode="&#x436;" horiz-adv-x="628" 
d="M296 0v450h36v-450h-36zM541 0l-200 234l184 216h44l-185 -216l200 -234h-43zM44 0l200 234l-185 216h44l184 -216l-200 -234h-43z" />
    <glyph glyph-name="afii10073" unicode="&#x437;" horiz-adv-x="404" 
d="M187 456q62 0 99 -32t37 -84q0 -72 -62 -103q40 -12 61.5 -42.5t21.5 -73.5q0 -57 -40.5 -92t-108.5 -35q-89 0 -153 66l23 23q54 -56 128 -56q52 0 83.5 26.5t31.5 70.5q0 43 -27 69t-72 26h-68v30h52q42 0 67.5 24t25.5 63q0 38 -27 62.5t-74 24.5q-66 0 -111 -48
l-23 23q58 58 136 58z" />
    <glyph glyph-name="afii10074" unicode="&#x438;" horiz-adv-x="541" 
d="M125 450v-391l296 391h32v-450h-37v391l-296 -391h-32v450h37z" />
    <glyph glyph-name="afii10075" unicode="&#x439;" horiz-adv-x="541" 
d="M270 572q62 0 107 47l22 -23q-55 -55 -129 -55t-129 55l22 23q47 -47 107 -47zM125 450v-391l296 391h32v-450h-37v391l-296 -391h-32v450h37z" />
    <glyph glyph-name="afii10076" unicode="&#x43a;" horiz-adv-x="447" 
d="M125 0h-37v450h37v-450zM357 0l-224 234l208 216h46l-209 -216l225 -234h-46z" />
    <glyph glyph-name="afii10077" unicode="&#x43b;" horiz-adv-x="496" 
d="M44 0v25q41 0 65.5 23t24.5 69v333h274v-450h-36v418h-202v-301q0 -58 -27.5 -89t-68.5 -31q-22 0 -30 3z" />
    <glyph glyph-name="afii10078" unicode="&#x43c;" horiz-adv-x="600" 
d="M88 0v450h36l176 -311l176 311h35v-450h-35v386l-162 -289h-28l-163 289v-386h-35z" />
    <glyph glyph-name="afii10079" unicode="&#x43d;" horiz-adv-x="533" 
d="M125 450v-205h283v205h36v-450h-36v213h-283v-213h-37v450h37z" />
    <glyph glyph-name="afii10080" unicode="&#x43e;" horiz-adv-x="558" 
d="M52 225q0 103 63 167t164 64q102 0 164.5 -64t62.5 -167t-62.5 -167t-164.5 -64q-101 0 -164 64t-63 167zM89 225q0 -88 52.5 -142.5t137.5 -54.5t137.5 54.5t52.5 142.5t-52.5 142t-137.5 54t-137.5 -54t-52.5 -142z" />
    <glyph glyph-name="afii10081" unicode="&#x43f;" horiz-adv-x="518" 
d="M394 0v418h-269v-418h-37v450h342v-450h-36z" />
    <glyph glyph-name="afii10082" unicode="&#x440;" horiz-adv-x="542" 
d="M88 450h37v-42q57 48 142 48q100 0 161.5 -64t61.5 -167t-62.5 -167t-163.5 -64q-81 0 -139 44v-288h-37v700zM452 225q0 88 -52.5 142t-137.5 54t-137 -52v-288q53 -53 137 -53q85 0 137.5 54.5t52.5 142.5z" />
    <glyph glyph-name="afii10083" unicode="&#x441;" horiz-adv-x="486" 
d="M89 225q0 -88 53 -142.5t138 -54.5q86 0 140 56l23 -24q-61 -66 -164 -66q-101 0 -164 64t-63 167t63 167t164 64q102 0 164 -67l-23 -24q-53 56 -140 56q-85 0 -138 -54t-53 -142z" />
    <glyph glyph-name="afii10084" unicode="&#x442;" horiz-adv-x="430" 
d="M234 418v-418h-37v418h-150v32h337v-32h-150z" />
    <glyph glyph-name="afii10085" unicode="&#x443;" horiz-adv-x="530" 
d="M491 450l-326 -700h-40l121 250l-207 450h40l186 -408l185 408h41z" />
    <glyph glyph-name="afii10086" unicode="&#x444;" horiz-adv-x="652" 
d="M373 -5q-11 0 -29 2v-247h-36v247q-20 -2 -29 -2q-101 0 -164 63.5t-63 166.5t63 166.5t164 63.5q9 0 29 -2v297h36v-297q18 2 29 2q101 0 164 -63.5t63 -166.5t-63 -166.5t-164 -63.5zM373 421q-11 0 -29 -2v-389q18 -2 29 -2q85 0 137.5 54.5t52.5 142.5t-52.5 142
t-137.5 54zM89 225q0 -88 52.5 -142.5t137.5 -54.5q9 0 29 2v389q-20 2 -29 2q-85 0 -137.5 -54t-52.5 -142z" />
    <glyph glyph-name="afii10087" unicode="&#x445;" horiz-adv-x="501" 
d="M414 0l-163 204l-163 -204h-44l183 228l-177 222h43l158 -197l157 197h43l-178 -222l184 -228h-43z" />
    <glyph glyph-name="afii10088" unicode="&#x446;" horiz-adv-x="531" 
d="M88 0v450h37v-418h269v418h36v-418h52v-152h-35v120h-359z" />
    <glyph glyph-name="afii10089" unicode="&#x447;" horiz-adv-x="473" 
d="M385 0h-37v200q-49 -20 -110 -20q-73 0 -113.5 41.5t-40.5 110.5v118h36v-118q0 -51 31 -85t92 -34q62 0 105 22v215h37v-450z" />
    <glyph glyph-name="afii10090" unicode="&#x448;" horiz-adv-x="710" 
d="M585 32v418h37v-450h-534v450h37v-418h212v418h36v-418h212z" />
    <glyph glyph-name="afii10091" unicode="&#x449;" horiz-adv-x="723" 
d="M88 0v450h37v-418h212v418h36v-418h212v418h37v-418h51v-152h-35v120h-550z" />
    <glyph glyph-name="afii10092" unicode="&#x44a;" horiz-adv-x="502" 
d="M318 0h-148v418h-123v32h160v-204h111q59 0 94 -34t35 -89t-35 -89t-94 -34zM317 215h-110v-184h110q43 0 68 25.5t25 66.5t-25 66.5t-68 25.5z" />
    <glyph glyph-name="afii10093" unicode="&#x44b;" horiz-adv-x="581" 
d="M88 0v450h37v-204h110q59 0 94.5 -34t35.5 -89t-35.5 -89t-94.5 -34h-147zM235 215h-110v-184h110q42 0 67.5 25.5t25.5 66.5t-25.5 66.5t-67.5 25.5zM456 0v450h37v-450h-37z" />
    <glyph glyph-name="afii10094" unicode="&#x44c;" horiz-adv-x="420" 
d="M88 0v450h37v-204h110q59 0 94.5 -34t35.5 -89t-35.5 -89t-94.5 -34h-147zM235 215h-110v-184h110q42 0 67.5 25.5t25.5 66.5t-25.5 66.5t-67.5 25.5z" />
    <glyph glyph-name="afii10095" unicode="&#x44d;" horiz-adv-x="486" 
d="M162 214v30h234q-6 80 -57.5 128.5t-132.5 48.5q-87 0 -139 -55l-24 23q61 67 165 67q101 0 163.5 -64t62.5 -167t-62.5 -167t-163.5 -64q-102 0 -165 66l24 25q52 -57 139 -57q82 0 134.5 51.5t56.5 134.5h-235z" />
    <glyph glyph-name="afii10096" unicode="&#x44e;" horiz-adv-x="742" 
d="M125 450v-205h138q6 95 64.5 153t148.5 58q96 0 155 -64t59 -167t-59 -167t-155 -64q-92 0 -150.5 60.5t-62.5 158.5h-138v-213h-37v450h37zM300 225q0 -88 49 -142.5t127 -54.5q79 0 128 54.5t49 142.5t-49 142t-128 54q-78 0 -127 -54t-49 -142z" />
    <glyph glyph-name="afii10097" unicode="&#x44f;" horiz-adv-x="456" 
d="M368 450v-450h-37v198h-103l-120 -198h-41l124 199q-53 5 -83.5 38.5t-30.5 86.5q0 56 35.5 91t96.5 35h159zM210 229h121v190h-121q-44 0 -70.5 -26t-26.5 -69t26.5 -69t70.5 -26z" />
    <glyph glyph-name="uni0450" unicode="&#x450;" horiz-adv-x="513" 
d="M462 219h-372q2 -86 54 -138.5t137 -52.5q87 0 140 56l24 -24q-63 -66 -166 -66q-101 0 -164 64t-63 169q0 101 58 165t151 64q92 0 146.5 -65t54.5 -172zM262 422q-71 0 -118.5 -47t-53.5 -126h334q-6 80 -49 126.5t-113 46.5zM196 657l112 -112l-21 -21l-112 112z" />
    <glyph glyph-name="afii10071" unicode="&#x451;" horiz-adv-x="513" 
d="M462 219h-372q2 -86 54 -138.5t137 -52.5q87 0 140 56l24 -24q-63 -66 -166 -66q-101 0 -164 64t-63 169q0 101 58 165t151 64q92 0 146.5 -65t54.5 -172zM262 422q-71 0 -118.5 -47t-53.5 -126h334q-6 80 -49 126.5t-113 46.5zM139 551q0 13 9 22t22 9t22.5 -9t9.5 -22
t-9 -22.5t-23 -9.5q-13 0 -22 9.5t-9 22.5zM321 551q0 13 9.5 22.5t22.5 9.5t22.5 -9.5t9.5 -22.5t-9.5 -22.5t-22.5 -9.5t-22.5 9.5t-9.5 22.5z" />
    <glyph glyph-name="afii10099" unicode="&#x452;" horiz-adv-x="534" 
d="M341 -250v25q29 0 46.5 15t17.5 45v443q0 64 -38.5 103.5t-100.5 39.5q-84 0 -137 -53v-368h-36v618h-63v32h63v100h36v-100h192v-32h-192v-210q57 48 143 48q76 0 122.5 -49t46.5 -129v-443q0 -42 -22 -65t-54 -23q-18 0 -24 3z" />
    <glyph glyph-name="afii10100" unicode="&#x453;" horiz-adv-x="369" 
d="M156 545l112 112l22 -21l-112 -112zM125 418v-418h-37v450h234v-32h-197z" />
    <glyph glyph-name="afii10101" unicode="&#x454;" horiz-adv-x="486" 
d="M280 421q-80 0 -132.5 -48.5t-58.5 -128.5h276v-30h-276q4 -83 56.5 -134.5t134.5 -51.5q86 0 140 56l23 -24q-61 -66 -164 -66q-101 0 -164 64t-63 167t63 167t164 64q102 0 164 -67l-23 -24q-53 56 -140 56z" />
    <glyph glyph-name="afii10102" unicode="&#x455;" horiz-adv-x="381" 
d="M307 407l-24 -23q-16 17 -45 28t-56 11q-45 0 -67 -26t-22 -59q0 -32 23.5 -53.5t57.5 -34l67.5 -25.5t57 -39t23.5 -64q0 -50 -35.5 -89t-104.5 -39q-86 0 -135 54l23 24q39 -45 111 -45q53 0 78.5 29.5t25.5 65.5q0 31 -23.5 51t-57.5 32.5l-67.5 26t-57 40t-23.5 65.5
q0 49 31 84t93 35q81 0 127 -49z" />
    <glyph glyph-name="afii10103" unicode="&#x456;" 
d="M88 0v450h37v-450h-37zM74 585q0 13 9 22.5t23 9.5t23.5 -9t9.5 -23t-9.5 -23.5t-23.5 -9.5q-13 0 -22.5 9.5t-9.5 23.5z" />
    <glyph glyph-name="afii10104" unicode="&#x457;" 
d="M88 0v450h37v-450h-37zM6 556q0 14 9 23t23 9t23 -9t9 -23q0 -13 -9.5 -22t-22.5 -9t-22.5 9t-9.5 22zM143 556q0 14 9.5 23t22.5 9t22.5 -9t9.5 -23q0 -13 -9.5 -22t-22.5 -9t-22.5 9t-9.5 22z" />
    <glyph glyph-name="afii10105" unicode="&#x458;" 
d="M74 585q0 13 9 22.5t23 9.5t23.5 -9t9.5 -23t-9.5 -23.5t-23.5 -9.5q-13 0 -22.5 9.5t-9.5 23.5zM24 -250v25q64 0 64 60v615h37v-615q0 -42 -22 -65t-55 -23q-18 0 -24 3z" />
    <glyph glyph-name="afii10106" unicode="&#x459;" horiz-adv-x="695" 
d="M372 0v418h-202v-301q0 -58 -27.5 -89t-68.5 -31q-22 0 -30 3v25q41 0 65.5 23t24.5 69v333h274v-204h111q59 0 94 -34t35 -89t-35 -89t-94 -34h-147zM518 215h-110v-184h110q43 0 68.5 25.5t25.5 66.5t-25.5 66.5t-68.5 25.5z" />
    <glyph glyph-name="afii10107" unicode="&#x45a;" horiz-adv-x="724" 
d="M125 450v-205h274v205h37v-205h116q57 0 91 -34t34 -88q0 -55 -34 -89t-91 -34h-153v213h-274v-213h-37v450h37zM551 213h-115v-182h115q40 0 64.5 25t24.5 66t-24.5 66t-64.5 25z" />
    <glyph glyph-name="afii10108" unicode="&#x45b;" horiz-adv-x="534" 
d="M30 618v32h63v100h36v-100h192v-32h-192v-210q57 48 143 48q76 0 122.5 -49t46.5 -129v-278h-36v278q0 64 -38.5 103.5t-100.5 39.5q-84 0 -137 -53v-368h-36v618h-63z" />
    <glyph glyph-name="afii10109" unicode="&#x45c;" horiz-adv-x="447" 
d="M176 545l112 112l22 -21l-112 -112zM125 0h-37v450h37v-450zM357 0l-224 234l208 216h46l-209 -216l225 -234h-46z" />
    <glyph glyph-name="uni045D" unicode="&#x45d;" horiz-adv-x="541" 
d="M205 657l112 -112l-22 -21l-112 112zM125 450v-391l296 391h32v-450h-37v391l-296 -391h-32v450h37z" />
    <glyph glyph-name="afii10110" unicode="&#x45e;" horiz-adv-x="530" 
d="M491 450l-326 -700h-40l121 250l-207 450h40l186 -408l185 408h41zM265 572q62 0 107 47l22 -23q-55 -55 -129 -55t-129 55l22 23q47 -47 107 -47z" />
    <glyph glyph-name="afii10193" unicode="&#x45f;" horiz-adv-x="518" 
d="M242 -120v120h-154v450h37v-418h269v418h36v-450h-153v-120h-35z" />
    <glyph glyph-name="afii10050" unicode="&#x490;" horiz-adv-x="469" 
d="M130 666v-666h-38v700h286v125h32v-159h-280z" />
    <glyph glyph-name="afii10098" unicode="&#x491;" horiz-adv-x="365" 
d="M125 418v-418h-37v450h192v100h32v-132h-187z" />
    <glyph glyph-name="uni04D8" unicode="&#x4d8;" horiz-adv-x="755" 
d="M698 350q0 -158 -89 -257t-231 -99q-144 0 -232.5 98.5t-88.5 257.5v16h603q-5 136 -90.5 220.5t-219.5 84.5q-141 0 -227 -92l-26 25q96 102 254 102q155 0 251 -99t96 -257zM378 29q122 0 199.5 83.5t82.5 219.5h-564q5 -136 82 -219.5t200 -83.5z" />
    <glyph glyph-name="afii10846" unicode="&#x4d9;" horiz-adv-x="513" 
d="M52 231h372q-2 86 -54 138t-137 52q-88 0 -141 -55l-23 24q61 66 165 66q102 0 165 -64t63 -169q0 -101 -58 -165t-151 -64t-147 65t-54 172zM252 28q70 0 117.5 47t54.5 126h-335q6 -80 49.5 -126.5t113.5 -46.5z" />
    <glyph glyph-name="Wgrave" unicode="&#x1e80;" horiz-adv-x="1160" 
d="M1120 700l-271 -700h-39l-230 640l-230 -640h-39l-271 700h42l248 -647l230 647h40l230 -647l248 647h42zM515 879l112 -112l-22 -22l-112 112z" />
    <glyph glyph-name="wgrave" unicode="&#x1e81;" horiz-adv-x="796" 
d="M757 450l-177 -450h-39l-143 401l-143 -401h-39l-177 450h41l156 -407l143 407h38l143 -407l156 407h41zM333 657l112 -112l-22 -21l-112 112z" />
    <glyph glyph-name="Wacute" unicode="&#x1e82;" horiz-adv-x="1160" 
d="M1120 700l-271 -700h-39l-230 640l-230 -640h-39l-271 700h42l248 -647l230 647h40l230 -647l248 647h42zM533 767l112 112l22 -22l-112 -112z" />
    <glyph glyph-name="wacute" unicode="&#x1e83;" horiz-adv-x="796" 
d="M757 450l-177 -450h-39l-143 401l-143 -401h-39l-177 450h41l156 -407l143 407h38l143 -407l156 407h41zM351 545l112 112l22 -21l-112 -112z" />
    <glyph glyph-name="Wdieresis" unicode="&#x1e84;" horiz-adv-x="1160" 
d="M1120 700l-271 -700h-39l-230 640l-230 -640h-39l-271 700h42l248 -647l230 647h40l230 -647l248 647h42zM457 796q0 13 9.5 22t22.5 9t22 -9t9 -22t-9 -22.5t-22 -9.5t-22.5 9t-9.5 23zM639 796q0 14 9.5 23t22.5 9t22.5 -9t9.5 -23t-9.5 -23t-22.5 -9t-22.5 9t-9.5 23z
" />
    <glyph glyph-name="wdieresis" unicode="&#x1e85;" horiz-adv-x="796" 
d="M757 450l-177 -450h-39l-143 401l-143 -401h-39l-177 450h41l156 -407l143 407h38l143 -407l156 407h41zM275 574q0 14 9.5 23t22.5 9t22.5 -9t9.5 -23t-9.5 -23t-22.5 -9t-22.5 9t-9.5 23zM457 574q0 14 9.5 23t22.5 9t22.5 -9t9.5 -23t-9.5 -23t-22.5 -9t-22.5 9
t-9.5 23z" />
    <glyph glyph-name="Ygrave" unicode="&#x1ef2;" horiz-adv-x="655" 
d="M309 0v316l-269 384h44l244 -347l243 347h44l-269 -384v-316h-37zM262 879l112 -112l-21 -22l-112 112z" />
    <glyph glyph-name="ygrave" unicode="&#x1ef3;" horiz-adv-x="530" 
d="M491 450l-326 -700h-40l121 250l-207 450h40l186 -408l185 408h41zM200 657l112 -112l-22 -21l-112 112z" />
    <glyph glyph-name="figuredash" unicode="&#x2012;" horiz-adv-x="500" 
d="M74 334v32h352v-32h-352z" />
    <glyph glyph-name="endash" unicode="&#x2013;" horiz-adv-x="500" 
d="M74 245v32h352v-32h-352z" />
    <glyph glyph-name="emdash" unicode="&#x2014;" horiz-adv-x="700" 
d="M74 245v32h552v-32h-552z" />
    <glyph glyph-name="quoteleft" unicode="&#x2018;" 
d="M131 706l17 -17q-37 -38 -39 -64q13 -2 22 -11t9 -22q0 -14 -9.5 -23t-24.5 -9q-31 0 -31 40q0 50 56 106z" />
    <glyph glyph-name="quoteright" unicode="&#x2019;" 
d="M83 560l-18 17q37 36 40 64q-13 1 -22 10t-9 22q0 14 9.5 23.5t23.5 9.5q32 0 32 -41q0 -49 -56 -105z" />
    <glyph glyph-name="quotesinglbase" unicode="&#x201a;" 
d="M83 -87l-18 17q37 38 40 65q-13 1 -22 10t-9 22q0 14 9.5 23t23.5 9q32 0 32 -40q0 -50 -56 -106z" />
    <glyph glyph-name="quotedblleft" unicode="&#x201c;" horiz-adv-x="323" 
d="M242 713l17 -17q-38 -36 -39 -64q13 -1 21.5 -10t8.5 -22q0 -14 -9.5 -23.5t-23.5 -9.5t-23 10.5t-9 30.5q0 48 57 105zM131 713l17 -17q-36 -36 -39 -64q13 -1 22 -10t9 -22q0 -14 -9.5 -23.5t-24.5 -9.5q-31 0 -31 41q0 49 56 105z" />
    <glyph glyph-name="quotedblright" unicode="&#x201d;" horiz-adv-x="323" 
d="M83 567l-18 17q37 38 40 65q-13 1 -22 10t-9 22q0 14 9.5 23t23.5 9q32 0 32 -40q0 -50 -56 -106zM193 567l-17 17q38 40 39 65q-13 1 -22 10t-9 22t10 22.5t24 9.5q31 0 31 -40q0 -50 -56 -106z" />
    <glyph glyph-name="quotedblbase" unicode="&#x201e;" horiz-adv-x="323" 
d="M83 -87l-18 17q37 38 40 65q-13 1 -22 10t-9 22q0 14 9.5 23t23.5 9q32 0 32 -40q0 -50 -56 -106zM193 -87l-17 17q38 40 39 65q-13 1 -22 10t-9 22t10 22.5t24 9.5q31 0 31 -40q0 -50 -56 -106z" />
    <glyph glyph-name="dagger" unicode="&#x2020;" horiz-adv-x="500" 
d="M74 418v32h158v300h36v-300h158v-32h-158v-668h-36v668h-158z" />
    <glyph glyph-name="daggerdbl" unicode="&#x2021;" horiz-adv-x="500" 
d="M74 75v32h158v311h-158v32h158v300h36v-300h158v-32h-158v-311h158v-32h-158v-325h-36v325h-158z" />
    <glyph glyph-name="bullet" unicode="&#x2022;" horiz-adv-x="260" 
d="M73 275q0 24 16.5 40.5t40.5 16.5t40 -16.5t16 -40.5t-16 -40.5t-40 -16.5t-40.5 16.5t-16.5 40.5z" />
    <glyph glyph-name="ellipsis" unicode="&#x2026;" horiz-adv-x="639" 
d="M74 27q0 13 9 22.5t23 9.5t23.5 -9t9.5 -23t-9.5 -23.5t-23.5 -9.5q-13 0 -22.5 9.5t-9.5 23.5zM287 27q0 13 9.5 22.5t22.5 9.5q14 0 23.5 -9t9.5 -23t-9.5 -23.5t-23.5 -9.5q-13 0 -22.5 9.5t-9.5 23.5zM500 27q0 13 9 22.5t23 9.5t23.5 -9t9.5 -23t-9.5 -23.5
t-23.5 -9.5q-13 0 -22.5 9.5t-9.5 23.5z" />
    <glyph glyph-name="perthousand" unicode="&#x2030;" horiz-adv-x="1195" 
d="M208 0l361 700h39l-361 -700h-39zM47 546q0 71 43 115.5t113 44.5t113 -44.5t43 -115.5t-43 -115t-113 -44t-113 44t-43 115zM81 546q0 -57 34 -92.5t88 -35.5t88 35.5t34 92.5t-34 92.5t-88 35.5t-88 -35.5t-34 -92.5zM456 154q0 70 43.5 114.5t112.5 44.5q70 0 113 -44
t43 -115t-43 -115.5t-113 -44.5q-69 0 -112.5 44.5t-43.5 115.5zM490 154q0 -57 34 -93t88 -36t88 36t34 93t-34 92.5t-88 35.5t-88 -35.5t-34 -92.5zM836 154q0 70 43.5 114.5t112.5 44.5q70 0 113 -44t43 -115t-43 -115.5t-113 -44.5q-69 0 -112.5 44.5t-43.5 115.5z
M871 154q0 -57 33.5 -93t87.5 -36t88 36t34 93t-34 92.5t-88 35.5t-87.5 -35.5t-33.5 -92.5z" />
    <glyph glyph-name="guilsinglleft" unicode="&#x2039;" horiz-adv-x="307" 
d="M213 82l-168 168l168 167l21 -21l-146 -146l146 -146z" />
    <glyph glyph-name="guilsinglright" unicode="&#x203a;" horiz-adv-x="307" 
d="M253 250l-168 -168l-21 22l146 146l-146 146l21 21z" />
    <glyph glyph-name="fraction" unicode="&#x2044;" horiz-adv-x="530" 
d="M68 0l361 700h33l-361 -700h-33z" />
    <glyph glyph-name="Euro" unicode="&#x20ac;" horiz-adv-x="755" 
d="M47 405v28h67q24 125 115 199t224 74q156 0 255 -102l-26 -25q-86 92 -227 92q-117 0 -198 -64.5t-104 -173.5h302v-28h-308q-3 -27 -3 -55q0 -29 3 -56h308v-27h-302q23 -109 104 -173.5t198 -64.5q141 0 227 91l26 -24q-97 -102 -255 -102q-133 0 -224.5 74t-115.5 199
h-66v27h62q-3 27 -3 56q0 28 3 55h-62z" />
    <glyph glyph-name="uni20B4" unicode="&#x20b4;" horiz-adv-x="419" 
d="M51 397v27h208l18 18q18 18 27.5 29.5t17.5 32t8 45.5q0 54 -36.5 88t-92.5 34q-78 0 -125 -56l-24 25q55 66 149 66q74 0 120 -43t46 -112q0 -40 -15 -68.5t-44 -58.5h59v-27h-86l-93 -93h179v-28h-207l-18 -18q-27 -26 -40 -48.5t-13 -58.5q0 -54 36 -88t93 -34
q78 0 125 56l24 -25q-57 -66 -149 -66q-74 0 -120 43t-46 112q0 41 15 69.5t44 57.5h-60v28h89l92 93h-181z" />
    <glyph glyph-name="afii61352" unicode="&#x2116;" horiz-adv-x="989" 
d="M92 700h30l466 -632v632h37v-700h-30l-465 632v-632h-38v700zM705 576q0 56 35.5 91.5t91.5 35.5t91 -35.5t35 -91.5q0 -57 -35 -92t-91 -35t-91.5 35t-35.5 92zM734 576q0 -46 27 -73.5t71 -27.5q43 0 70 28t27 73t-27 73t-70 28q-44 0 -71 -28t-27 -73z" />
    <glyph glyph-name="trademark" unicode="&#x2122;" horiz-adv-x="687" 
d="M159 676v-326h-29v326h-103v24h235v-24h-103zM612 350v291l-126 -208h-14l-127 208v-291h-28v350h22l140 -228l139 228h23v-350h-29z" />
    <glyph glyph-name="arrowleft" unicode="&#x2190;" horiz-adv-x="1037" 
d="M418 -4l-354 354l354 354l25 -25l-312 -311h813v-35h-813l312 -312z" />
    <glyph glyph-name="arrowup" unicode="&#x2191;" horiz-adv-x="836" 
d="M401 -177v814l-311 -312l-26 24l354 354l354 -354l-25 -24l-311 312v-814h-35z" />
    <glyph glyph-name="arrowright" unicode="&#x2192;" horiz-adv-x="1037" 
d="M93 333v35h813l-312 311l25 25l354 -354l-354 -354l-25 25l312 312h-813z" />
    <glyph glyph-name="arrowdown" unicode="&#x2193;" horiz-adv-x="836" 
d="M418 -180l-354 354l26 25l311 -312v813h35v-813l311 311l25 -24z" />
    <glyph glyph-name="uni2196" unicode="&#x2196;" horiz-adv-x="792" 
d="M93 131v500h500v-35h-441l576 -576l-25 -24l-575 575v-440h-35z" />
    <glyph glyph-name="uni2197" unicode="&#x2197;" horiz-adv-x="792" 
d="M199 596v35h500v-500h-35v440l-575 -575l-25 24l576 576h-441z" />
    <glyph glyph-name="uni2198" unicode="&#x2198;" horiz-adv-x="792" 
d="M199 0v35h441l-576 575l25 25l575 -576v441h35v-500h-500z" />
    <glyph glyph-name="uni2199" unicode="&#x2199;" horiz-adv-x="792" 
d="M93 0v500h35v-441l575 576l25 -25l-576 -575h441v-35h-500z" />
    <glyph glyph-name="minus" unicode="&#x2212;" horiz-adv-x="445" 
d="M74 288v32h297v-32h-297z" />
    <glyph glyph-name="commaaccent" unicode="&#xf6c3;" 
d="M84 -190l-16 16q36 36 37 61q-12 1 -20.5 9.5t-8.5 20.5q0 13 9 21.5t22 8.5q30 0 30 -38q0 -46 -53 -99z" />
    <glyph glyph-name="adieresis.alt" horiz-adv-x="539" 
d="M278 456q110 0 173 -61v-395h-37v40q-57 -46 -140 -46q-99 0 -160.5 64t-61.5 167t62 167t164 64zM89 225q0 -88 53 -142.5t138 -54.5q81 0 134 50v301q-50 42 -137 42q-85 0 -136.5 -54t-51.5 -142zM154 574q0 14 9 23t23 9t23 -9t9 -23t-9 -23t-23 -9t-23 9t-9 23z
M337 574q0 13 9 22.5t22 9.5q14 0 23 -9t9 -23t-9 -23t-23 -9q-13 0 -22 9.5t-9 22.5z" />
    <glyph glyph-name="agrave.alt" horiz-adv-x="539" 
d="M278 456q110 0 173 -61v-395h-37v40q-57 -46 -140 -46q-99 0 -160.5 64t-61.5 167t62 167t164 64zM89 225q0 -88 53 -142.5t138 -54.5q81 0 134 50v301q-50 42 -137 42q-85 0 -136.5 -54t-51.5 -142zM211 657l112 -112l-21 -21l-112 112z" />
    <glyph glyph-name="amacron.alt" horiz-adv-x="539" 
d="M278 456q110 0 173 -61v-395h-37v40q-57 -46 -140 -46q-99 0 -160.5 64t-61.5 167t62 167t164 64zM89 225q0 -88 53 -142.5t138 -54.5q81 0 134 50v301q-50 42 -137 42q-85 0 -136.5 -54t-51.5 -142zM163 555v28h227v-28h-227z" />
    <glyph glyph-name="aogonek.alt" horiz-adv-x="539" 
d="M429 -42q0 -30 16.5 -47.5t43.5 -17.5q29 0 44 18l19 -18q-22 -25 -63 -25q-39 0 -62.5 24t-23.5 65q0 25 11 43v40q-57 -46 -140 -46q-99 0 -160.5 64t-61.5 167t62 167t164 64q110 0 173 -61v-395h-11q-11 -17 -11 -42zM89 225q0 -88 53 -142.5t138 -54.5q81 0 134 50
v301q-50 42 -137 42q-85 0 -136.5 -54t-51.5 -142z" />
    <glyph glyph-name="aring.alt" horiz-adv-x="539" 
d="M278 456q110 0 173 -61v-395h-37v40q-57 -46 -140 -46q-99 0 -160.5 64t-61.5 167t62 167t164 64zM89 225q0 -88 53 -142.5t138 -54.5q81 0 134 50v301q-50 42 -137 42q-85 0 -136.5 -54t-51.5 -142zM194 605q0 39 23.5 63t60.5 24q38 0 61.5 -24t23.5 -63
q0 -38 -23.5 -62t-61.5 -24q-37 0 -60.5 24t-23.5 62zM219 605q0 -28 16.5 -44.5t42.5 -16.5q27 0 43.5 16.5t16.5 44.5t-17 45t-43 17t-42.5 -17t-16.5 -45z" />
    <glyph glyph-name="atilde.alt" horiz-adv-x="539" 
d="M278 456q110 0 173 -61v-395h-37v40q-57 -46 -140 -46q-99 0 -160.5 64t-61.5 167t62 167t164 64zM89 225q0 -88 53 -142.5t138 -54.5q81 0 134 50v301q-50 42 -137 42q-85 0 -136.5 -54t-51.5 -142zM178 551h-27q0 34 20.5 55t52.5 21q30 0 57.5 -26.5t49.5 -26.5
q20 0 33.5 13.5t13.5 35.5h27q0 -34 -20.5 -55t-53.5 -21q-31 0 -58 26.5t-48 26.5q-20 0 -33.5 -13.5t-13.5 -35.5z" />
    <glyph glyph-name="g.alt" horiz-adv-x="539" 
d="M414 -45v83q-57 -44 -138 -44q-100 0 -162 64t-62 167t62 167t164 64q110 0 173 -61v-440q0 -95 -57 -153t-151 -58q-103 0 -165 67l23 24q54 -57 140 -57q79 0 126 48.5t47 128.5zM89 225q0 -88 52.5 -142.5t137.5 -54.5q83 0 135 52v299q-50 42 -137 42
q-85 0 -136.5 -54t-51.5 -142z" />
    <glyph glyph-name="gbreve.alt" horiz-adv-x="539" 
d="M414 -45v83q-57 -44 -138 -44q-100 0 -162 64t-62 167t62 167t164 64q110 0 173 -61v-440q0 -95 -57 -153t-151 -58q-103 0 -165 67l23 24q54 -57 140 -57q79 0 126 48.5t47 128.5zM89 225q0 -88 52.5 -142.5t137.5 -54.5q83 0 135 52v299q-50 42 -137 42
q-85 0 -136.5 -54t-51.5 -142zM277 572q62 0 107 47l22 -23q-53 -55 -129 -55q-74 0 -129 55l22 23q47 -47 107 -47z" />
    <glyph glyph-name="gcircumflex.alt" horiz-adv-x="539" 
d="M414 -45v83q-57 -44 -138 -44q-100 0 -162 64t-62 167t62 167t164 64q110 0 173 -61v-440q0 -95 -57 -153t-151 -58q-103 0 -165 67l23 24q54 -57 140 -57q79 0 126 48.5t47 128.5zM89 225q0 -88 52.5 -142.5t137.5 -54.5q83 0 135 52v299q-50 42 -137 42
q-85 0 -136.5 -54t-51.5 -142zM278 657l112 -112l-22 -21l-90 90l-91 -90l-21 21z" />
    <glyph glyph-name="gcommaaccent.alt" horiz-adv-x="539" 
d="M414 -45v83q-57 -44 -138 -44q-100 0 -162 64t-62 167t62 167t164 64q110 0 173 -61v-440q0 -95 -57 -153t-151 -58q-103 0 -165 67l23 24q54 -57 140 -57q79 0 126 48.5t47 128.5zM89 225q0 -88 52.5 -142.5t137.5 -54.5q83 0 135 52v299q-50 42 -137 42
q-85 0 -136.5 -54t-51.5 -142zM298 666l16 -16q-36 -38 -37 -62q12 0 20.5 -8.5t8.5 -21.5t-9 -21.5t-22 -8.5q-30 0 -30 38q0 45 53 100z" />
    <glyph glyph-name="gdotaccent.alt" horiz-adv-x="539" 
d="M414 -45v83q-57 -44 -138 -44q-100 0 -162 64t-62 167t62 167t164 64q110 0 173 -61v-440q0 -95 -57 -153t-151 -58q-103 0 -165 67l23 24q54 -57 140 -57q79 0 126 48.5t47 128.5zM89 225q0 -88 52.5 -142.5t137.5 -54.5q83 0 135 52v299q-50 42 -137 42
q-85 0 -136.5 -54t-51.5 -142zM244 585q0 14 9.5 23t23.5 9q13 0 22.5 -9.5t9.5 -22.5q0 -14 -9.5 -23.5t-22.5 -9.5q-14 0 -23.5 9.5t-9.5 23.5z" />
    <glyph glyph-name="afii10021.alt" horiz-adv-x="834" 
d="M753 0h-672v-150h-36v183h62l291 667h38l291 -667h61v-183h-35v150zM417 654l-267 -621h534z" />
    <glyph glyph-name="afii10029.alt" horiz-adv-x="737" 
d="M40 0l310 700h37l311 -700h-44l-285 654l-286 -654h-43z" />
    <glyph glyph-name="afii10058.alt" horiz-adv-x="983" 
d="M40 0l310 700h37l145 -327h207q84 0 135.5 -51t51.5 -135q0 -85 -51.5 -136t-135.5 -51h-85l-285 654l-286 -654h-43zM739 339h-192l135 -305h57q67 0 108 42t41 111q0 68 -41 110t-108 42z" />
    <glyph glyph-name="afii10065.alt" horiz-adv-x="539" 
d="M278 456q110 0 173 -61v-395h-37v40q-57 -46 -140 -46q-99 0 -160.5 64t-61.5 167t62 167t164 64zM89 225q0 -88 53 -142.5t138 -54.5q81 0 134 50v301q-50 42 -137 42q-85 0 -136.5 -54t-51.5 -142z" />
    <glyph glyph-name="afii10069.alt" horiz-adv-x="611" 
d="M565 32v-152h-35v120h-449v-120h-35v152h52l189 418h37l188 -418h53zM306 409l-168 -377h334z" />
    <glyph glyph-name="afii10077.alt" horiz-adv-x="530" 
d="M39 0l207 450h37l208 -450h-41l-185 408l-186 -408h-40z" />
    <glyph glyph-name="afii10106.alt" horiz-adv-x="697" 
d="M39 0l207 450h37l94 -204h144q59 0 94 -34t35 -89t-35 -89t-94 -34h-71l-185 408l-186 -408h-40zM520 215h-128l84 -184h44q43 0 68.5 25.5t25.5 66.5t-25.5 66.5t-68.5 25.5z" />
    <glyph glyph-name="acircumflex.alt" horiz-adv-x="539" 
d="M278 456q110 0 173 -61v-395h-37v40q-57 -46 -140 -46q-99 0 -160.5 64t-61.5 167t62 167t164 64zM89 225q0 -88 53 -142.5t138 -54.5q81 0 134 50v301q-50 42 -137 42q-85 0 -136.5 -54t-51.5 -142zM278 657l112 -112l-22 -21l-90 90l-91 -90l-21 21z" />
    <glyph glyph-name="abreve.alt" horiz-adv-x="539" 
d="M278 456q110 0 173 -61v-395h-37v40q-57 -46 -140 -46q-99 0 -160.5 64t-61.5 167t62 167t164 64zM89 225q0 -88 53 -142.5t138 -54.5q81 0 134 50v301q-50 42 -137 42q-85 0 -136.5 -54t-51.5 -142zM277 572q62 0 107 47l22 -23q-55 -55 -129 -55t-129 55l22 23
q47 -47 107 -47z" />
    <glyph glyph-name="aacute.alt" horiz-adv-x="539" 
d="M278 456q110 0 173 -61v-395h-37v40q-57 -46 -140 -46q-99 0 -160.5 64t-61.5 167t62 167t164 64zM89 225q0 -88 53 -142.5t138 -54.5q81 0 134 50v301q-50 42 -137 42q-85 0 -136.5 -54t-51.5 -142zM230 545l112 112l21 -21l-112 -112z" />
    <glyph glyph-name="a.alt" horiz-adv-x="539" 
d="M278 456q110 0 173 -61v-395h-37v40q-57 -46 -140 -46q-99 0 -160.5 64t-61.5 167t62 167t164 64zM89 225q0 -88 53 -142.5t138 -54.5q81 0 134 50v301q-50 42 -137 42q-85 0 -136.5 -54t-51.5 -142z" />
    <glyph glyph-name="zero.fitted" horiz-adv-x="530" 
d="M43 350q0 159 61.5 257.5t160.5 98.5t160.5 -99t61.5 -257t-61.5 -257t-160.5 -99t-160.5 98.5t-61.5 257.5zM80 350q0 -143 51.5 -232.5t133.5 -89.5t133.5 89.5t51.5 232.5t-51 232t-134 89t-134 -89t-51 -232z" />
    <glyph glyph-name="one.fitted" horiz-adv-x="530" 
d="M129 0v32h120v633l-127 -23v32l163 29v-671h120v-32h-276z" />
    <glyph glyph-name="germandbls.case" horiz-adv-x="587" 
d="M125 535v-535h-37v535q0 76 48.5 123.5t127.5 47.5q78 0 126.5 -47.5t48.5 -122.5q0 -66 -38.5 -110.5t-101.5 -52.5q0 -42 23.5 -70t57 -43.5l67 -31t57 -45t23.5 -73.5q0 -45 -35.5 -80.5t-104.5 -35.5q-86 0 -135 54l24 24q38 -45 110 -45q53 0 78.5 26.5t25.5 57.5
q0 34 -23.5 57.5t-57 38.5t-67 32t-57 50.5t-23.5 82.5v33q63 0 101.5 36t38.5 96q0 59 -38.5 96.5t-99.5 37.5t-100 -38t-39 -98z" />
    <glyph glyph-name="at.case" horiz-adv-x="797" 
d="M648 118l20 -19q-46 -50 -116 -77.5t-151 -27.5q-156 0 -252.5 99t-96.5 257t96.5 257t250.5 99q157 0 251.5 -94t94.5 -233q0 -102 -48.5 -151t-110.5 -49t-81 35q-41 -35 -104 -35q-73 0 -119 47.5t-46 123.5t46.5 123.5t121.5 47.5q80 0 128 -46v-235q0 -15 16 -23
t41 -8q49 0 86.5 40t37.5 128q0 128 -83 213.5t-229 85.5q-143 0 -230 -89.5t-87 -236.5t87 -236.5t231 -89.5q75 0 139.5 24.5t106.5 69.5zM268 350q0 -65 37 -103t100 -38q59 0 95 33v221q-37 28 -97 28q-63 0 -99 -38t-36 -103z" />
    <glyph glyph-name="parenleft.case" horiz-adv-x="303" 
d="M239 756v-32q-54 0 -91 -105.5t-37 -269.5q0 -163 37 -268.5t91 -105.5v-31q-70 0 -117.5 114t-47.5 292t47.5 292t117.5 114z" />
    <glyph glyph-name="parenright.case" horiz-adv-x="303" 
d="M64 724v32q70 0 117.5 -114t47.5 -292t-47.5 -292t-117.5 -114v31q53 0 90 105.5t37 269.5t-37 269t-90 105z" />
    <glyph glyph-name="bracketleft.case" horiz-adv-x="296" 
d="M232 750v-32h-107v-736h107v-32h-144v800h144z" />
    <glyph glyph-name="bracketright.case" horiz-adv-x="296" 
d="M64 718v32h143v-800h-143v32h107v736h-107z" />
    <glyph glyph-name="braceleft.case" horiz-adv-x="326" 
d="M279 -25v-31q-57 0 -96 47t-39 120v81q0 62 -28 102t-69 40v31q41 0 69 40t28 103v81q0 73 39 120t96 47v-32q-41 0 -69 -39.5t-28 -101.5v-80q0 -56 -24 -97t-62 -56q39 -17 62.5 -57.5t23.5 -96.5v-80q0 -61 28.5 -101t68.5 -40z" />
    <glyph glyph-name="braceright.case" horiz-adv-x="326" 
d="M47 -56v31q40 0 68.5 40t28.5 101v80q0 56 23.5 96.5t62.5 57.5q-38 15 -62 56t-24 97v80q0 62 -28 101.5t-69 39.5v32q57 0 96 -47t39 -120v-81q0 -63 28 -103t69 -40v-31q-41 0 -69 -40t-28 -102v-81q0 -73 -39 -120t-96 -47z" />
    <glyph glyph-name="questiondown.case" horiz-adv-x="465" 
d="M393 91l26 -25q-71 -72 -184 -72q-91 0 -137 51.5t-46 123.5q0 43 16.5 73t40 49l46.5 38.5t39.5 53.5t16.5 81v56h37v-56q0 -53 -16.5 -91t-40 -58.5t-46.5 -38.5t-39.5 -44t-16.5 -62q0 -57 36 -99.5t110 -42.5q44 0 87.5 17t70.5 46zM262 673q0 -13 -9 -22.5t-23 -9.5
t-23.5 9.5t-9.5 22.5t9.5 23t23.5 10q13 0 22.5 -9.5t9.5 -23.5z" />
    <glyph glyph-name="guillemotleft.case" horiz-adv-x="470" 
d="M213 182l-168 168l168 167l21 -21l-146 -146l146 -146zM376 182l-168 168l168 167l21 -21l-146 -146l146 -146z" />
    <glyph glyph-name="guillemotright.case" horiz-adv-x="470" 
d="M416 350l-168 -168l-21 22l146 146l-146 146l21 21zM253 350l-168 -168l-21 22l146 146l-146 146l21 21z" />
    <glyph glyph-name="guilsinglleft.case" horiz-adv-x="307" 
d="M213 182l-168 168l168 167l21 -21l-146 -146l146 -146z" />
    <glyph glyph-name="guilsinglright.case" horiz-adv-x="307" 
d="M253 350l-168 -168l-21 22l146 146l-146 146l21 21z" />
    <glyph glyph-name="hyphen.case" horiz-adv-x="340" 
d="M74 334v32h192v-32h-192z" />
    <glyph glyph-name="endash.case" horiz-adv-x="500" 
d="M74 334v32h352v-32h-352z" />
    <glyph glyph-name="emdash.case" horiz-adv-x="700" 
d="M74 334v32h552v-32h-552z" />
    <glyph glyph-name="bar.case" 
d="M88 -50v800h37v-800h-37z" />
    <glyph glyph-name="brokenbar.case" 
d="M88 -50v350h37v-350h-37zM125 750v-350h-37v350h37z" />
    <glyph glyph-name="asciitilde.case" horiz-adv-x="433" 
d="M75 304h-30q0 43 26.5 69.5t67.5 26.5q27 0 48 -11t32.5 -24.5t30.5 -24.5t43 -11q29 0 47 18.5t18 48.5h29q0 -43 -26 -69.5t-68 -26.5q-28 0 -49 11t-32 24.5t-29.5 24.5t-42.5 11q-29 0 -47 -18.5t-18 -48.5z" />
    <glyph glyph-name="dagger.case" horiz-adv-x="500" 
d="M74 497v32h158v221h36v-221h158v-32h-158v-547h-36v547h-158z" />
    <glyph glyph-name="daggerdbl.case" horiz-adv-x="500" 
d="M74 197v32h158v268h-158v32h158v221h36v-221h158v-32h-158v-268h158v-32h-158v-247h-36v247h-158z" />
    <glyph glyph-name="bullet.case" horiz-adv-x="260" 
d="M73 350q0 24 16.5 40.5t40.5 16.5t40 -16.5t16 -40.5t-16 -40.5t-40 -16.5t-40.5 16.5t-16.5 40.5z" />
    <glyph glyph-name="A.smcp" horiz-adv-x="575" 
d="M497 0l-75 161h-270l-74 -161h-41l233 504h35l233 -504h-41zM287 459l-120 -265h242z" />
    <glyph glyph-name="Aacute.smcp" horiz-adv-x="575" 
d="M497 0l-75 161h-270l-74 -161h-41l233 504h35l233 -504h-41zM287 459l-120 -265h242zM249 554l87 84l20 -20l-87 -83z" />
    <glyph glyph-name="Abreve.smcp" horiz-adv-x="575" 
d="M497 0l-75 161h-270l-74 -161h-41l233 504h35l233 -504h-41zM287 459l-120 -265h242zM287 574q47 0 80 33l20 -20q-43 -41 -100 -41t-98 41l19 20q35 -33 79 -33z" />
    <glyph glyph-name="Acircumflex.smcp" horiz-adv-x="575" 
d="M497 0l-75 161h-270l-74 -161h-41l233 504h35l233 -504h-41zM287 459l-120 -265h242zM287 638l87 -84l-19 -19l-68 64l-66 -64l-20 19z" />
    <glyph glyph-name="Agrave.smcp" horiz-adv-x="575" 
d="M497 0l-75 161h-270l-74 -161h-41l233 504h35l233 -504h-41zM287 459l-120 -265h242zM239 638l87 -84l-20 -19l-87 83z" />
    <glyph glyph-name="Adieresis.smcp" horiz-adv-x="575" 
d="M497 0l-75 161h-270l-74 -161h-41l233 504h35l233 -504h-41zM287 459l-120 -265h242zM192 574q0 10 8 18t18 8q12 0 19.5 -7.5t7.5 -18.5q0 -12 -7.5 -19.5t-19.5 -7.5q-11 0 -18.5 7.5t-7.5 19.5zM329 574q0 11 8 18.5t19 7.5q12 0 20 -7.5t8 -18.5q0 -12 -8 -19.5
t-20 -7.5q-11 0 -19 7.5t-8 19.5z" />
    <glyph glyph-name="Amacron.smcp" horiz-adv-x="575" 
d="M497 0l-75 161h-270l-74 -161h-41l233 504h35l233 -504h-41zM287 459l-120 -265h242zM201 557v25h174v-25h-174z" />
    <glyph glyph-name="Aogonek.smcp" horiz-adv-x="576" 
d="M511 -29q0 -21 12 -33t32 -12q21 0 32 11l17 -14q-19 -19 -49 -19q-29 0 -47.5 18t-18.5 48q0 18 8 30l-75 161h-270l-74 -161h-41l233 504h35l233 -504h-19q-8 -13 -8 -29zM287 459l-120 -265h242z" />
    <glyph glyph-name="Aring.smcp" horiz-adv-x="575" 
d="M497 0l-75 161h-270l-74 -161h-41l233 504h35l233 -504h-41zM287 459l-120 -265h242zM223 594q0 28 18 45.5t46 17.5q29 0 47 -17.5t18 -45.5t-18 -45.5t-47 -17.5q-28 0 -46 17.5t-18 45.5zM244 594q0 -19 12 -31t31 -12q20 0 32 12t12 31t-12 30.5t-32 11.5
q-19 0 -31 -11.5t-12 -30.5z" />
    <glyph glyph-name="Atilde.smcp" horiz-adv-x="575" 
d="M497 0l-75 161h-270l-74 -161h-41l233 504h35l233 -504h-41zM287 459l-120 -265h242zM213 554h-23q0 25 16 41t41 16q23 0 43.5 -18t36.5 -18q15 0 24.5 9t9.5 24h24q0 -26 -16 -41.5t-42 -15.5q-23 0 -43.5 18.5t-36.5 18.5q-15 0 -24.5 -9.5t-9.5 -24.5z" />
    <glyph glyph-name="AE.smcp" horiz-adv-x="596" 
d="M323 473v-203h194v-31h-194v-208h223v-31h-259v161h-135l-74 -161h-41l233 504h272v-31h-219zM167 194h120v265z" />
    <glyph glyph-name="AEacute.smcp" horiz-adv-x="596" 
d="M323 473v-203h194v-31h-194v-208h223v-31h-259v161h-135l-74 -161h-41l233 504h272v-31h-219zM167 194h120v265zM276 554l87 84l20 -20l-88 -83z" />
    <glyph glyph-name="B.smcp" horiz-adv-x="424" 
d="M76 0v504h132q60 0 97.5 -35t37.5 -94q0 -79 -68 -111q45 -11 71 -45t26 -82q0 -62 -39.5 -99.5t-103.5 -37.5h-153zM336 138q0 48 -29.5 77t-78.5 29h-115v-212h115q49 0 78.5 29t29.5 77zM307 374q0 44 -28 71t-72 27h-94v-196h94q44 0 72 27t28 71z" />
    <glyph glyph-name="C.smcp" horiz-adv-x="548" 
d="M88 252q0 -99 63 -161t163 -62q105 0 166 63l24 -24q-73 -73 -192 -73q-116 0 -188.5 71.5t-72.5 185.5t72.5 185.5t188.5 71.5q119 0 192 -73l-24 -25q-62 64 -166 64q-100 0 -163 -62t-63 -161z" />
    <glyph glyph-name="Cacute.smcp" horiz-adv-x="548" 
d="M88 252q0 -99 63 -161t163 -62q105 0 166 63l24 -24q-73 -73 -192 -73q-116 0 -188.5 71.5t-72.5 185.5t72.5 185.5t188.5 71.5q119 0 192 -73l-24 -25q-62 64 -166 64q-100 0 -163 -62t-63 -161zM259 559l86 84l20 -19l-87 -84z" />
    <glyph glyph-name="Ccaron.smcp" horiz-adv-x="548" 
d="M88 252q0 -99 63 -161t163 -62q105 0 166 63l24 -24q-73 -73 -192 -73q-116 0 -188.5 71.5t-72.5 185.5t72.5 185.5t188.5 71.5q119 0 192 -73l-24 -25q-62 64 -166 64q-100 0 -163 -62t-63 -161zM297 535l-87 83l19 20l68 -65l67 65l19 -20z" />
    <glyph glyph-name="Ccedilla.smcp" horiz-adv-x="548" 
d="M88 252q0 -99 63 -161t163 -62q105 0 166 63l24 -24q-70 -70 -183 -73v-39q49 -8 49 -53q0 -25 -16 -40t-42 -15t-43 17l15 15q11 -11 28 -11q16 0 26.5 9.5t10.5 25.5q0 35 -48 35v56q-112 4 -181 74.5t-69 182.5q0 114 72.5 185.5t188.5 71.5q119 0 192 -73l-24 -25
q-62 64 -166 64q-100 0 -163 -62t-63 -161z" />
    <glyph glyph-name="Ccircumflex.smcp" horiz-adv-x="548" 
d="M88 252q0 -99 63 -161t163 -62q105 0 166 63l24 -24q-73 -73 -192 -73q-116 0 -188.5 71.5t-72.5 185.5t72.5 185.5t188.5 71.5q119 0 192 -73l-24 -25q-62 64 -166 64q-100 0 -163 -62t-63 -161zM297 638l87 -84l-20 -19l-67 64l-67 -64l-20 19z" />
    <glyph glyph-name="Cdotaccent.smcp" horiz-adv-x="548" 
d="M88 252q0 -99 63 -161t163 -62q105 0 166 63l24 -24q-73 -73 -192 -73q-116 0 -188.5 71.5t-72.5 185.5t72.5 185.5t188.5 71.5q119 0 192 -73l-24 -25q-62 64 -166 64q-100 0 -163 -62t-63 -161zM270 581q0 12 8 20t19 8q12 0 20 -8t8 -20q0 -11 -8 -19t-20 -8
q-11 0 -19 8t-8 19z" />
    <glyph glyph-name="D.smcp" horiz-adv-x="537" 
d="M76 0v504h148q117 0 189.5 -69.5t72.5 -182.5t-72.5 -182.5t-189.5 -69.5h-148zM448 252q0 99 -61.5 159.5t-162.5 60.5h-111v-440h111q101 0 162.5 60.5t61.5 159.5z" />
    <glyph glyph-name="Dcaron.smcp" horiz-adv-x="537" 
d="M76 0v504h148q117 0 189.5 -69.5t72.5 -182.5t-72.5 -182.5t-189.5 -69.5h-148zM448 252q0 99 -61.5 159.5t-162.5 60.5h-111v-440h111q101 0 162.5 60.5t61.5 159.5zM261 535l-87 83l19 20l68 -65l67 65l19 -20z" />
    <glyph glyph-name="Dcroat.smcp" horiz-adv-x="554" 
d="M50 237v30h47v237h144q117 0 189.5 -69t72.5 -183t-72.5 -183t-189.5 -69h-144v237h-47zM465 252q0 99 -61.5 159.5t-162.5 60.5h-107v-205h131v-30h-131v-205h107q101 0 162.5 60.5t61.5 159.5z" />
    <glyph glyph-name="Eth.smcp" horiz-adv-x="554" 
d="M50 237v30h47v237h144q117 0 189.5 -69t72.5 -183t-72.5 -183t-189.5 -69h-144v237h-47zM465 252q0 99 -61.5 159.5t-162.5 60.5h-107v-205h131v-30h-131v-205h107q101 0 162.5 60.5t61.5 159.5z" />
    <glyph glyph-name="Thorn.smcp" horiz-adv-x="404" 
d="M76 0v504h37v-110h96q65 0 104.5 -37t39.5 -100q0 -61 -39.5 -98t-104.5 -37h-96v-122h-37zM316 257q0 48 -29.5 76.5t-77.5 28.5h-96v-208h96q48 0 77.5 28.5t29.5 74.5z" />
    <glyph glyph-name="E.smcp" horiz-adv-x="402" 
d="M112 473v-203h211v-31h-211v-208h239v-31h-275v504h272v-31h-236z" />
    <glyph glyph-name="Eacute.smcp" horiz-adv-x="402" 
d="M112 473v-203h211v-31h-211v-208h239v-31h-275v504h272v-31h-236zM176 554l86 84l20 -20l-88 -83z" />
    <glyph glyph-name="Ebreve.smcp" horiz-adv-x="402" 
d="M112 473v-203h211v-31h-211v-208h239v-31h-275v504h272v-31h-236zM214 574q44 0 79 33l19 -20q-43 -41 -98 -41q-57 0 -100 41l20 20q35 -33 80 -33z" />
    <glyph glyph-name="Ecaron.smcp" horiz-adv-x="402" 
d="M112 473v-203h211v-31h-211v-208h239v-31h-275v504h272v-31h-236zM214 535l-88 83l20 20l68 -65l66 65l20 -20z" />
    <glyph glyph-name="Ecircumflex.smcp" horiz-adv-x="402" 
d="M112 473v-203h211v-31h-211v-208h239v-31h-275v504h272v-31h-236zM214 638l86 -84l-20 -19l-66 64l-68 -64l-20 19z" />
    <glyph glyph-name="Edieresis.smcp" horiz-adv-x="402" 
d="M112 473v-203h211v-31h-211v-208h239v-31h-275v504h272v-31h-236zM118 574q0 11 7.5 18.5t19.5 7.5q11 0 18.5 -8t7.5 -18q0 -12 -7.5 -19.5t-18.5 -7.5q-12 0 -19.5 7.5t-7.5 19.5zM255 574q0 11 8 18.5t19 7.5t19 -7.5t8 -18.5q0 -12 -8 -19.5t-19 -7.5t-19 7.5
t-8 19.5z" />
    <glyph glyph-name="Edotaccent.smcp" horiz-adv-x="402" 
d="M112 473v-203h211v-31h-211v-208h239v-31h-275v504h272v-31h-236zM186 581q0 12 8 20t20 8q11 0 19 -8t8 -20q0 -11 -8 -19t-19 -8q-12 0 -20 8t-8 19z" />
    <glyph glyph-name="Egrave.smcp" horiz-adv-x="402" 
d="M112 473v-203h211v-31h-211v-208h239v-31h-275v504h272v-31h-236zM164 638l88 -84l-20 -19l-86 83z" />
    <glyph glyph-name="Emacron.smcp" horiz-adv-x="402" 
d="M112 473v-203h211v-31h-211v-208h239v-31h-275v504h272v-31h-236zM126 557v25h174v-25h-174z" />
    <glyph glyph-name="Eogonek.smcp" horiz-adv-x="402" 
d="M266 -29q0 -21 12 -33t32 -12q19 0 33 11l15 -14q-16 -19 -48 -19q-29 0 -47.5 18t-18.5 48q0 18 8 30h-176v504h272v-31h-236v-203h211v-31h-211v-208h239v-31h-77q-8 -11 -8 -29z" />
    <glyph glyph-name="F.smcp" horiz-adv-x="379" 
d="M112 473v-203h195v-31h-195v-239h-36v504h258v-31h-222z" />
    <glyph glyph-name="G.smcp" horiz-adv-x="580" 
d="M312 228v31h192v-191q-71 -73 -192 -73q-116 0 -188.5 71.5t-72.5 185.5t72.5 185.5t188.5 71.5q119 0 192 -73l-24 -25q-62 64 -166 64q-100 0 -163 -62t-63 -161t63 -161t163 -62q94 0 154 52v147h-156z" />
    <glyph glyph-name="Gbreve.smcp" horiz-adv-x="580" 
d="M312 228v31h192v-191q-71 -73 -192 -73q-116 0 -188.5 71.5t-72.5 185.5t72.5 185.5t188.5 71.5q119 0 192 -73l-24 -25q-62 64 -166 64q-100 0 -163 -62t-63 -161t63 -161t163 -62q94 0 154 52v147h-156zM312 574q44 0 79 33l20 -20q-43 -41 -99 -41q-58 0 -99 41l20 20
q35 -33 79 -33z" />
    <glyph glyph-name="Gcircumflex.smcp" horiz-adv-x="580" 
d="M312 228v31h192v-191q-71 -73 -192 -73q-116 0 -188.5 71.5t-72.5 185.5t72.5 185.5t188.5 71.5q119 0 192 -73l-24 -25q-62 64 -166 64q-100 0 -163 -62t-63 -161t63 -161t163 -62q94 0 154 52v147h-156zM312 638l87 -84l-20 -19l-67 64l-67 -64l-20 19z" />
    <glyph glyph-name="Gcommaaccent.smcp" horiz-adv-x="580" 
d="M312 228v31h192v-191q-71 -73 -192 -73q-116 0 -188.5 71.5t-72.5 185.5t72.5 185.5t188.5 71.5q119 0 192 -73l-24 -25q-62 64 -166 64q-100 0 -163 -62t-63 -161t63 -161t163 -62q94 0 154 52v147h-156zM292 -143l-13 12q27 27 28 46q-9 1 -15.5 7.5t-6.5 15.5
q0 10 7.5 17.5t17.5 7.5q24 0 24 -30q0 -36 -42 -76z" />
    <glyph glyph-name="Gdotaccent.smcp" horiz-adv-x="580" 
d="M312 228v31h192v-191q-71 -73 -192 -73q-116 0 -188.5 71.5t-72.5 185.5t72.5 185.5t188.5 71.5q119 0 192 -73l-24 -25q-62 64 -166 64q-100 0 -163 -62t-63 -161t63 -161t163 -62q94 0 154 52v147h-156zM284 581q0 12 8 20t20 8q11 0 19.5 -8t8.5 -20q0 -11 -8.5 -19
t-19.5 -8q-12 0 -20 8t-8 19z" />
    <glyph glyph-name="H.smcp" horiz-adv-x="542" 
d="M112 504v-234h317v234h37v-504h-37v239h-317v-239h-36v504h36z" />
    <glyph glyph-name="Hbar.smcp" horiz-adv-x="546" 
d="M93 0v370h-49v30h49v104h36v-104h286v104h36v-104h51v-30h-51v-370h-36v239h-286v-239h-36zM129 270h286v100h-286v-100z" />
    <glyph glyph-name="Hcircumflex.smcp" horiz-adv-x="542" 
d="M112 504v-234h317v234h37v-504h-37v239h-317v-239h-36v504h36zM271 638l87 -84l-20 -19l-67 64l-67 -64l-20 19z" />
    <glyph glyph-name="I.smcp" horiz-adv-x="181" 
d="M73 0v504h36v-504h-36z" />
    <glyph glyph-name="Iacute.smcp" horiz-adv-x="181" 
d="M73 0v504h36v-504h-36zM53 554l86 84l20 -20l-87 -83z" />
    <glyph glyph-name="Ibreve.smcp" horiz-adv-x="182" 
d="M73 0v504h36v-504h-36zM92 574q44 0 79 33l19 -20q-41 -41 -98 -41t-100 41l20 20q36 -33 80 -33z" />
    <glyph glyph-name="Icircumflex.smcp" horiz-adv-x="182" 
d="M73 0v504h36v-504h-36zM91 638l87 -84l-20 -19l-67 64l-67 -64l-20 19z" />
    <glyph glyph-name="Idieresis.smcp" horiz-adv-x="182" 
d="M73 0v504h36v-504h-36zM8 574q0 11 8 18.5t19 7.5t19 -7.5t8 -18.5q0 -12 -8 -19.5t-19 -7.5t-19 7.5t-8 19.5zM120 574q0 10 8 18t18 8q12 0 19.5 -7.5t7.5 -18.5q0 -12 -7.5 -19.5t-19.5 -7.5q-11 0 -18.5 7.5t-7.5 19.5z" />
    <glyph glyph-name="Idotaccent.smcp" horiz-adv-x="182" 
d="M73 0v504h36v-504h-36zM63 581q0 12 8 20t20 8t20 -8t8 -20q0 -11 -8 -19t-20 -8t-20 8t-8 19z" />
    <glyph glyph-name="Igrave.smcp" horiz-adv-x="181" 
d="M73 0v504h36v-504h-36zM42 638l87 -84l-20 -19l-86 83z" />
    <glyph glyph-name="Imacron.smcp" horiz-adv-x="182" 
d="M74 0v504h35v-504h-35zM4 557v25h174v-25h-174z" />
    <glyph glyph-name="Iogonek.smcp" horiz-adv-x="182" 
d="M73 0v504h36v-504h-36zM87 -29q0 -21 12 -33t31 -12q20 0 33 11l16 -14q-18 -19 -48 -19q-29 0 -47.5 18t-18.5 48q0 20 8 30h22q-8 -13 -8 -29z" />
    <glyph glyph-name="Itilde.smcp" horiz-adv-x="181" 
d="M73 0v504h36v-504h-36zM17 554h-23q0 25 16 41t41 16q23 0 43.5 -18t36.5 -18q15 0 24.5 9t9.5 24h23q0 -26 -16 -41.5t-41 -15.5q-24 0 -44 18.5t-36 18.5q-14 0 -24 -9.5t-10 -24.5z" />
    <glyph glyph-name="IJ.smcp" horiz-adv-x="402" 
d="M76 180v324h36v-324h-36zM293 134v370h36v-370q0 -61 -39.5 -100t-101.5 -39q-63 0 -103 40l23 24q30 -30 78 -30t77.5 29t29.5 76z" />
    <glyph glyph-name="J.smcp" horiz-adv-x="361" 
d="M252 134v370h36v-370q0 -62 -39 -100.5t-103 -38.5q-60 0 -102 40l24 24q28 -30 78 -30q47 0 76.5 29t29.5 76z" />
    <glyph glyph-name="Jcircumflex.smcp" horiz-adv-x="361" 
d="M252 134v370h36v-370q0 -62 -39 -100.5t-103 -38.5q-60 0 -102 40l24 24q28 -30 78 -30q47 0 76.5 29t29.5 76zM270 638l87 -84l-20 -19l-67 64l-68 -64l-19 19z" />
    <glyph glyph-name="K.smcp" horiz-adv-x="456" 
d="M73 0v504h36v-504h-36zM369 0l-245 258l230 246h45l-229 -246l245 -258h-46z" />
    <glyph glyph-name="Kcommaaccent.smcp" horiz-adv-x="456" 
d="M73 0v504h36v-504h-36zM369 0l-245 258l230 246h45l-229 -246l245 -258h-46zM213 -143l-14 12q28 26 29 46q-10 1 -16.5 7.5t-6.5 15.5q0 11 7.5 18t18.5 7q24 0 24 -30q0 -36 -42 -76z" />
    <glyph glyph-name="L.smcp" horiz-adv-x="371" 
d="M112 504v-473h215v-31h-251v504h36z" />
    <glyph glyph-name="Lacute.smcp" horiz-adv-x="371" 
d="M112 504v-473h215v-31h-251v504h36zM132 554l87 84l19 -20l-86 -83z" />
    <glyph glyph-name="Lcaron.smcp" horiz-adv-x="371" 
d="M112 504v-473h215v-31h-251v504h36zM94 535l-87 83l20 20l67 -65l68 65l19 -20z" />
    <glyph glyph-name="Lcommaaccent.smcp" horiz-adv-x="371" 
d="M112 504v-473h215v-31h-251v504h36zM184 -143l-13 12q27 27 28 46q-10 1 -16.5 7.5t-6.5 15.5q0 11 7.5 18t18.5 7q25 0 25 -30q0 -37 -43 -76z" />
    <glyph glyph-name="Ldot.smcp" horiz-adv-x="371" 
d="M112 504v-473h215v-31h-251v504h36zM245 234q0 12 8 20t20 8t20 -8t8 -20t-8 -20t-20 -8t-20 8t-8 20z" />
    <glyph glyph-name="Lslash.smcp" horiz-adv-x="382" 
d="M21 175l65 62v267h37v-238l72 70l20 -20l-92 -89v-196h214v-31h-251v199l-45 -44z" />
    <glyph glyph-name="M.smcp" horiz-adv-x="633" 
d="M521 0v429l-194 -307h-21l-194 307v-429h-36v504h28l212 -334l213 334h28v-504h-36z" />
    <glyph glyph-name="N.smcp" horiz-adv-x="558" 
d="M76 504h27l343 -437v437h36v-504h-27l-343 437v-437h-36v504z" />
    <glyph glyph-name="Nacute.smcp" horiz-adv-x="558" 
d="M76 504h27l343 -437v437h36v-504h-27l-343 437v-437h-36v504zM241 554l86 84l20 -20l-87 -83z" />
    <glyph glyph-name="Ncaron.smcp" horiz-adv-x="558" 
d="M76 504h27l343 -437v437h36v-504h-27l-343 437v-437h-36v504zM279 535l-87 83l19 20l68 -65l67 65l19 -20z" />
    <glyph glyph-name="Ncommaaccent.smcp" horiz-adv-x="558" 
d="M76 504h27l343 -437v437h36v-504h-27l-343 437v-437h-36v504zM264 -143l-13 12q27 27 29 46q-10 1 -17 7.5t-7 15.5q0 11 7.5 18t18.5 7q25 0 25 -30q0 -37 -43 -76z" />
    <glyph glyph-name="Ntilde.smcp" horiz-adv-x="558" 
d="M76 504h27l343 -437v437h36v-504h-27l-343 437v-437h-36v504zM205 554h-24q0 25 16 41t41 16q23 0 43.5 -18t36.5 -18q15 0 24.5 9t9.5 24h24q0 -25 -16 -41t-42 -16q-23 0 -43 18.5t-36 18.5q-15 0 -24.5 -9.5t-9.5 -24.5z" />
    <glyph glyph-name="Eng.smcp" horiz-adv-x="558" 
d="M399 -180v24q47 0 47 42v125l-334 426v-437h-36v504h27l343 -437v437h36v-619q0 -32 -18 -49.5t-45 -17.5q-16 0 -20 2z" />
    <glyph glyph-name="O.smcp" horiz-adv-x="626" 
d="M51 252q0 114 72.5 185.5t188.5 71.5q117 0 189.5 -71.5t72.5 -185.5t-72.5 -185.5t-189.5 -71.5q-116 0 -188.5 71.5t-72.5 185.5zM88 252q0 -99 62.5 -161t161.5 -62q101 0 163 62t62 161t-62 161t-163 62q-99 0 -161.5 -62t-62.5 -161z" />
    <glyph glyph-name="Oacute.smcp" horiz-adv-x="626" 
d="M51 252q0 114 72.5 185.5t188.5 71.5q117 0 189.5 -71.5t72.5 -185.5t-72.5 -185.5t-189.5 -71.5q-116 0 -188.5 71.5t-72.5 185.5zM88 252q0 -99 62.5 -161t161.5 -62q101 0 163 62t62 161t-62 161t-163 62q-99 0 -161.5 -62t-62.5 -161zM274 554l88 84l19 -20l-87 -83z
" />
    <glyph glyph-name="Obreve.smcp" horiz-adv-x="626" 
d="M51 252q0 114 72.5 185.5t188.5 71.5q117 0 189.5 -71.5t72.5 -185.5t-72.5 -185.5t-189.5 -71.5q-116 0 -188.5 71.5t-72.5 185.5zM88 252q0 -99 62.5 -161t161.5 -62q101 0 163 62t62 161t-62 161t-163 62q-99 0 -161.5 -62t-62.5 -161zM312 574q45 0 80 33l20 -20
q-43 -41 -100 -41t-98 41l19 20q36 -33 79 -33z" />
    <glyph glyph-name="Ocircumflex.smcp" horiz-adv-x="626" 
d="M51 252q0 114 72.5 185.5t188.5 71.5q117 0 189.5 -71.5t72.5 -185.5t-72.5 -185.5t-189.5 -71.5q-116 0 -188.5 71.5t-72.5 185.5zM88 252q0 -99 62.5 -161t161.5 -62q101 0 163 62t62 161t-62 161t-163 62q-99 0 -161.5 -62t-62.5 -161zM312 638l88 -84l-20 -19l-68 64
l-66 -64l-20 19z" />
    <glyph glyph-name="Odieresis.smcp" horiz-adv-x="626" 
d="M51 252q0 114 72.5 185.5t188.5 71.5q117 0 189.5 -71.5t72.5 -185.5t-72.5 -185.5t-189.5 -71.5q-116 0 -188.5 71.5t-72.5 185.5zM88 252q0 -99 62.5 -161t161.5 -62q101 0 163 62t62 161t-62 161t-163 62q-99 0 -161.5 -62t-62.5 -161zM217 574q0 11 8 18.5t19 7.5
t18.5 -7.5t7.5 -18.5q0 -12 -7.5 -19.5t-18.5 -7.5t-19 7.5t-8 19.5zM354 574q0 10 8 18t19 8q12 0 20 -7.5t8 -18.5q0 -12 -8 -19.5t-20 -7.5q-11 0 -19 7.5t-8 19.5z" />
    <glyph glyph-name="Ograve.smcp" horiz-adv-x="626" 
d="M51 252q0 114 72.5 185.5t188.5 71.5q117 0 189.5 -71.5t72.5 -185.5t-72.5 -185.5t-189.5 -71.5q-116 0 -188.5 71.5t-72.5 185.5zM88 252q0 -99 62.5 -161t161.5 -62q101 0 163 62t62 161t-62 161t-163 62q-99 0 -161.5 -62t-62.5 -161zM264 638l87 -84l-19 -19l-88 83
z" />
    <glyph glyph-name="Ohungarumlaut.smcp" horiz-adv-x="626" 
d="M51 252q0 114 72.5 185.5t188.5 71.5q117 0 189.5 -71.5t72.5 -185.5t-72.5 -185.5t-189.5 -71.5q-116 0 -188.5 71.5t-72.5 185.5zM88 252q0 -99 62.5 -161t161.5 -62q101 0 163 62t62 161t-62 161t-163 62q-99 0 -161.5 -62t-62.5 -161zM222 554l87 84l20 -20l-87 -83z
M327 554l86 84l20 -20l-86 -83z" />
    <glyph glyph-name="Omacron.smcp" horiz-adv-x="626" 
d="M51 252q0 114 72.5 185.5t188.5 71.5q117 0 189.5 -71.5t72.5 -185.5t-72.5 -185.5t-189.5 -71.5q-116 0 -188.5 71.5t-72.5 185.5zM88 252q0 -99 62.5 -161t161.5 -62q101 0 163 62t62 161t-62 161t-163 62q-99 0 -161.5 -62t-62.5 -161zM226 557v25h174v-25h-174z" />
    <glyph glyph-name="Oslash.smcp" horiz-adv-x="625" 
d="M58 -5l65 71q-72 70 -72 186q0 114 72.5 185.5t188.5 71.5q99 0 168 -53l48 53h40l-66 -72q72 -70 72 -185q0 -114 -72.5 -185.5t-189.5 -71.5q-100 0 -167 52l-47 -52h-40zM88 252q0 -97 60 -159l308 337q-59 45 -144 45q-99 0 -161.5 -62t-62.5 -161zM537 252
q0 96 -60 158l-307 -336q57 -45 142 -45q101 0 163 62t62 161z" />
    <glyph glyph-name="Oslashacute.smcp" horiz-adv-x="625" 
d="M58 -5l65 71q-72 70 -72 186q0 114 72.5 185.5t188.5 71.5q99 0 168 -53l48 53h40l-66 -72q72 -70 72 -185q0 -114 -72.5 -185.5t-189.5 -71.5q-100 0 -167 52l-47 -52h-40zM88 252q0 -97 60 -159l308 337q-59 45 -144 45q-99 0 -161.5 -62t-62.5 -161zM537 252
q0 96 -60 158l-307 -336q57 -45 142 -45q101 0 163 62t62 161zM274 554l87 84l20 -20l-87 -83z" />
    <glyph glyph-name="Otilde.smcp" horiz-adv-x="626" 
d="M51 252q0 114 72.5 185.5t188.5 71.5q117 0 189.5 -71.5t72.5 -185.5t-72.5 -185.5t-189.5 -71.5q-116 0 -188.5 71.5t-72.5 185.5zM88 252q0 -99 62.5 -161t161.5 -62q101 0 163 62t62 161t-62 161t-163 62q-99 0 -161.5 -62t-62.5 -161zM239 554h-24q0 25 16 41t41 16
q23 0 44 -18t37 -18q15 0 24.5 9t9.5 24h23q0 -26 -16 -41.5t-41 -15.5q-24 0 -44 18.5t-36 18.5t-25 -9.5t-9 -24.5z" />
    <glyph glyph-name="OE.smcp" horiz-adv-x="669" 
d="M399 473v-203h191v-31h-191v-208h220v-31h-252q-45 -5 -55 -5q-116 0 -188.5 71.5t-72.5 185.5t72.5 185.5t188.5 71.5q12 0 54 -5h250v-31h-217zM312 29q25 0 52 5v436q-27 5 -52 5q-99 0 -161.5 -62t-62.5 -161t62.5 -161t161.5 -62z" />
    <glyph glyph-name="P.smcp" horiz-adv-x="404" 
d="M76 0v504h133q65 0 104.5 -37t39.5 -100q0 -61 -39.5 -99t-104.5 -38h-96v-230h-37zM316 367q0 47 -29.5 76t-77.5 29h-96v-209h96q48 0 77.5 28.5t29.5 75.5z" />
    <glyph glyph-name="Q.smcp" horiz-adv-x="626" 
d="M562 -20l-76 73q-71 -58 -174 -58q-116 0 -188.5 71.5t-72.5 185.5t72.5 185.5t188.5 71.5q117 0 189.5 -71.5t72.5 -185.5q0 -106 -64 -176l75 -72zM88 252q0 -99 62 -161t162 -62q93 0 149 48l-93 89l23 24l92 -87q54 59 54 149q0 99 -62.5 161t-162.5 62t-162 -62
t-62 -161z" />
    <glyph glyph-name="R.smcp" horiz-adv-x="413" 
d="M334 0l-135 230h-86v-230h-37v504h138q65 0 104 -37t39 -100q0 -56 -32.5 -92.5t-87.5 -43.5l139 -231h-42zM321 367q0 47 -29.5 76t-77.5 29h-101v-209h101q48 0 77.5 28.5t29.5 75.5z" />
    <glyph glyph-name="Racute.smcp" horiz-adv-x="413" 
d="M334 0l-135 230h-86v-230h-37v504h138q65 0 104 -37t39 -100q0 -56 -32.5 -92.5t-87.5 -43.5l139 -231h-42zM321 367q0 47 -29.5 76t-77.5 29h-101v-209h101q48 0 77.5 28.5t29.5 75.5zM166 554l88 84l19 -20l-87 -83z" />
    <glyph glyph-name="Rcaron.smcp" horiz-adv-x="413" 
d="M334 0l-135 230h-86v-230h-37v504h138q65 0 104 -37t39 -100q0 -56 -32.5 -92.5t-87.5 -43.5l139 -231h-42zM321 367q0 47 -29.5 76t-77.5 29h-101v-209h101q48 0 77.5 28.5t29.5 75.5zM204 535l-86 83l20 20l66 -65l68 65l20 -20z" />
    <glyph glyph-name="Rcommaaccent.smcp" horiz-adv-x="413" 
d="M334 0l-135 230h-86v-230h-37v504h138q65 0 104 -37t39 -100q0 -56 -32.5 -92.5t-87.5 -43.5l139 -231h-42zM321 367q0 47 -29.5 76t-77.5 29h-101v-209h101q48 0 77.5 28.5t29.5 75.5zM192 -143l-14 12q27 26 30 46q-10 1 -17 7.5t-7 15.5q0 11 7.5 18t18.5 7
q25 0 25 -30q0 -37 -43 -76z" />
    <glyph glyph-name="S.smcp" horiz-adv-x="407" 
d="M337 453l-24 -24q-43 46 -118 46q-52 0 -78 -29t-26 -67q0 -36 27 -59.5t65.5 -37.5t77 -29.5t65.5 -44.5t27 -72q0 -56 -39.5 -98.5t-115.5 -42.5q-95 0 -155 62l23 24q46 -52 129 -52q61 0 91.5 33t30.5 73q0 34 -27 57t-65.5 37l-77.5 29.5t-66 45.5t-27 75
q0 54 34.5 92t104.5 38q90 0 144 -56z" />
    <glyph glyph-name="Sacute.smcp" horiz-adv-x="407" 
d="M337 453l-24 -24q-43 46 -118 46q-52 0 -78 -29t-26 -67q0 -36 27 -59.5t65.5 -37.5t77 -29.5t65.5 -44.5t27 -72q0 -56 -39.5 -98.5t-115.5 -42.5q-95 0 -155 62l23 24q46 -52 129 -52q61 0 91.5 33t30.5 73q0 34 -27 57t-65.5 37l-77.5 29.5t-66 45.5t-27 75
q0 54 34.5 92t104.5 38q90 0 144 -56zM155 554l86 84l20 -20l-87 -83z" />
    <glyph glyph-name="Scaron.smcp" horiz-adv-x="407" 
d="M337 453l-24 -24q-43 46 -118 46q-52 0 -78 -29t-26 -67q0 -36 27 -59.5t65.5 -37.5t77 -29.5t65.5 -44.5t27 -72q0 -56 -39.5 -98.5t-115.5 -42.5q-95 0 -155 62l23 24q46 -52 129 -52q61 0 91.5 33t30.5 73q0 34 -27 57t-65.5 37l-77.5 29.5t-66 45.5t-27 75
q0 54 34.5 92t104.5 38q90 0 144 -56zM193 535l-87 83l20 20l67 -65l67 65l20 -20z" />
    <glyph glyph-name="Scedilla.smcp" horiz-adv-x="407" 
d="M337 453l-24 -24q-43 46 -118 46q-52 0 -78 -29t-26 -67q0 -36 27 -59.5t65.5 -37.5t77 -29.5t65.5 -44.5t27 -72q0 -54 -37.5 -96t-108.5 -45v-39q49 -8 49 -53q0 -25 -16.5 -40t-42.5 -15q-23 0 -42 17l14 15q13 -11 28 -11q17 0 27.5 9.5t10.5 25.5q0 35 -48 35v56
q-90 5 -144 62l23 24q46 -52 129 -52q61 0 91.5 33t30.5 73q0 34 -27 57t-65.5 37l-77.5 29.5t-66 45.5t-27 75q0 54 34.5 92t104.5 38q90 0 144 -56z" />
    <glyph glyph-name="Scircumflex.smcp" horiz-adv-x="407" 
d="M337 453l-24 -24q-43 46 -118 46q-52 0 -78 -29t-26 -67q0 -36 27 -59.5t65.5 -37.5t77 -29.5t65.5 -44.5t27 -72q0 -56 -39.5 -98.5t-115.5 -42.5q-95 0 -155 62l23 24q46 -52 129 -52q61 0 91.5 33t30.5 73q0 34 -27 57t-65.5 37l-77.5 29.5t-66 45.5t-27 75
q0 54 34.5 92t104.5 38q90 0 144 -56zM193 638l87 -84l-20 -19l-67 64l-67 -64l-20 19z" />
    <glyph glyph-name="Scommaaccent.smcp" horiz-adv-x="407" 
d="M337 453l-24 -24q-43 46 -118 46q-52 0 -78 -29t-26 -67q0 -36 27 -59.5t65.5 -37.5t77 -29.5t65.5 -44.5t27 -72q0 -56 -39.5 -98.5t-115.5 -42.5q-95 0 -155 62l23 24q46 -52 129 -52q61 0 91.5 33t30.5 73q0 34 -27 57t-65.5 37l-77.5 29.5t-66 45.5t-27 75
q0 54 34.5 92t104.5 38q90 0 144 -56zM184 -143l-14 12q26 25 29 46q-10 1 -16.5 7.5t-6.5 15.5q0 10 7 17.5t18 7.5q25 0 25 -30q0 -36 -42 -76z" />
    <glyph glyph-name="T.smcp" horiz-adv-x="439" 
d="M237 473v-473h-35v473h-158v31h352v-31h-159z" />
    <glyph glyph-name="Tbar.smcp" horiz-adv-x="439" 
d="M88 252v29h114v192h-158v31h352v-31h-159v-192h115v-29h-115v-252h-35v252h-114z" />
    <glyph glyph-name="two.fitted" horiz-adv-x="530" 
d="M68 40l313 309q48 48 48 141q0 80 -46.5 130.5t-120.5 50.5t-120 -50.5t-46 -130.5h-38q0 97 56.5 156.5t147.5 59.5q92 0 148.5 -59.5t56.5 -156.5q0 -105 -61 -166l-293 -291h354v-33h-399v40z" />
    <glyph glyph-name="three.fitted" horiz-adv-x="530" 
d="M216 367v33h46q61 0 98.5 38t37.5 98t-37.5 97.5t-98.5 37.5q-60 0 -97.5 -37.5t-37.5 -97.5h-37q0 76 47.5 123t124.5 47q78 0 126 -47t48 -123q0 -54 -26.5 -93.5t-72.5 -57.5q62 -18 99 -68t37 -119q0 -91 -58.5 -147.5t-152.5 -56.5q-93 0 -151 56.5t-58 147.5h37
q0 -76 47.5 -123t124.5 -47t125 47t48 123q0 75 -48 122t-125 47h-46z" />
    <glyph glyph-name="four.fitted" horiz-adv-x="530" 
d="M371 0v145h-326v26l321 529h40v-521h67v-34h-66v-145h-36zM90 179h281v463z" />
    <glyph glyph-name="five.fitted" horiz-adv-x="530" 
d="M467 210q0 -97 -56.5 -156.5t-148.5 -59.5q-91 0 -147.5 54.5t-56.5 142.5h37q0 -72 46.5 -117t120.5 -45t120.5 50.5t46.5 130.5q0 88 -51 142.5t-133 54.5q-87 0 -138 -48l-26 17l47 324h289v-34h-256l-41 -258q50 33 126 33q98 0 159.5 -64t61.5 -167z" />
    <glyph glyph-name="six.fitted" horiz-adv-x="530" 
d="M299 706l31 -18l-175 -292q47 30 110 30q96 0 155.5 -59.5t59.5 -155.5q0 -97 -59.5 -157t-155.5 -60t-155.5 60t-59.5 158q0 21 2.5 38.5t5.5 33t14.5 39l20 42t32.5 58l42.5 70l59 95.5zM87 211q0 -82 49.5 -132.5t128.5 -50.5t128.5 50.5t49.5 132.5q0 81 -49.5 131.5
t-128.5 50.5t-128.5 -50.5t-49.5 -131.5z" />
    <glyph glyph-name="seven.fitted" horiz-adv-x="530" 
d="M64 666v34h402v-22l-271 -678h-40l266 666h-357z" />
    <glyph glyph-name="eight.fitted" horiz-adv-x="530" 
d="M91 536q0 76 48.5 123t125.5 47t125.5 -47t48.5 -123q0 -54 -26.5 -93.5t-72.5 -57.5q63 -18 100 -68t37 -119q0 -91 -59 -147.5t-153 -56.5t-153 56.5t-59 147.5q0 69 37 119t100 68q-46 17 -72.5 57t-26.5 94zM90 198q0 -76 48.5 -123t126.5 -47t126.5 47t48.5 123
q0 75 -48.5 122t-126.5 47t-126.5 -47t-48.5 -122zM128 536q0 -60 38 -98t99 -38t99 38t38 98t-38 97.5t-99 37.5t-99 -37.5t-38 -97.5z" />
    <glyph glyph-name="nine.fitted" horiz-adv-x="530" 
d="M230 -6l-31 18l176 292q-49 -31 -110 -31q-96 0 -155.5 59.5t-59.5 156.5t59 157t156 60q96 0 155.5 -60t59.5 -158q0 -21 -2.5 -38.5t-5 -33t-14.5 -39.5l-20.5 -41.5t-33 -58l-42.5 -70l-59 -95.5zM443 489q0 82 -49 132t-129 50t-129 -50t-49 -132q0 -81 49.5 -131.5
t128.5 -50.5t128.5 50.5t49.5 131.5z" />
    <glyph glyph-name="exclamdown.case" 
d="M74 673q0 14 9.5 23.5t22.5 9.5q14 0 23.5 -9.5t9.5 -23.5t-9.5 -23t-23.5 -9t-23 9.5t-9 22.5zM88 520h37v-520h-37v520z" />
    <glyph glyph-name="Uhungarumlaut.smcp" horiz-adv-x="534" 
d="M421 182v322h36v-322q0 -83 -52.5 -135t-137.5 -52q-86 0 -138.5 51.5t-52.5 135.5v322h36v-322q0 -69 42.5 -111t111.5 -42t112 42t43 111zM176 554l87 84l20 -20l-87 -83zM281 554l87 84l20 -20l-87 -83z" />
    <glyph glyph-name="Umacron.smcp" horiz-adv-x="534" 
d="M421 182v322h36v-322q0 -83 -52.5 -135t-137.5 -52q-86 0 -138.5 51.5t-52.5 135.5v322h36v-322q0 -69 42.5 -111t111.5 -42t112 42t43 111zM180 557v25h174v-25h-174z" />
    <glyph glyph-name="Uogonek.smcp" horiz-adv-x="534" 
d="M303 -29q0 -21 12.5 -33t31.5 -12q20 0 33 11l15 -14q-16 -19 -47 -19q-29 0 -47.5 18t-18.5 48q0 18 4 26q-3 0 -9.5 -0.5t-9.5 -0.5q-86 0 -138.5 51.5t-52.5 135.5v322h36v-322q0 -69 42.5 -111t111.5 -42t112 42t43 111v322h36v-322q0 -72 -40 -121t-107 -62
q-7 -14 -7 -28z" />
    <glyph glyph-name="Uring.smcp" horiz-adv-x="534" 
d="M421 182v322h36v-322q0 -83 -52.5 -135t-137.5 -52q-86 0 -138.5 51.5t-52.5 135.5v322h36v-322q0 -69 42.5 -111t111.5 -42t112 42t43 111zM202 594q0 28 18 45.5t47 17.5t46.5 -17.5t17.5 -45.5t-17.5 -45.5t-46.5 -17.5t-47 17.5t-18 45.5zM224 594q0 -20 12 -31.5
t31 -11.5t31 12t12 31t-12 30.5t-31 11.5t-31 -11.5t-12 -30.5z" />
    <glyph glyph-name="Utilde.smcp" horiz-adv-x="534" 
d="M421 182v322h36v-322q0 -83 -52.5 -135t-137.5 -52q-86 0 -138.5 51.5t-52.5 135.5v322h36v-322q0 -69 42.5 -111t111.5 -42t112 42t43 111zM192 554h-23q0 25 16 41t41 16q23 0 43.5 -18t36.5 -18t25 9t9 24h24q0 -26 -16 -41.5t-42 -15.5q-23 0 -43.5 18.5t-35.5 18.5
t-25 -9.5t-10 -24.5z" />
    <glyph glyph-name="V.smcp" horiz-adv-x="575" 
d="M538 504l-233 -504h-35l-233 504h42l208 -458l209 458h42z" />
    <glyph glyph-name="W.smcp" horiz-adv-x="884" 
d="M847 504l-202 -504h-37l-167 444l-165 -444h-37l-202 504h42l178 -450l166 450h38l166 -450l178 450h42z" />
    <glyph glyph-name="Wacute.smcp" horiz-adv-x="884" 
d="M847 504l-202 -504h-37l-167 444l-165 -444h-37l-202 504h42l178 -450l166 450h38l166 -450l178 450h42zM403 554l88 84l19 -20l-87 -83z" />
    <glyph glyph-name="Wcircumflex.smcp" horiz-adv-x="884" 
d="M847 504l-202 -504h-37l-167 444l-165 -444h-37l-202 504h42l178 -450l166 450h38l166 -450l178 450h42zM441 638l88 -84l-20 -19l-68 64l-66 -64l-20 19z" />
    <glyph glyph-name="Wdieresis.smcp" horiz-adv-x="884" 
d="M847 504l-202 -504h-37l-167 444l-165 -444h-37l-202 504h42l178 -450l166 450h38l166 -450l178 450h42zM346 574q0 11 8 18.5t19 7.5t19 -7.5t8 -18.5q0 -12 -8 -19.5t-19 -7.5t-19 7.5t-8 19.5zM484 574q0 10 8 18t18 8q12 0 20 -7.5t8 -18.5q0 -12 -8 -19.5t-20 -7.5
q-11 0 -18.5 7.5t-7.5 19.5z" />
    <glyph glyph-name="Wgrave.smcp" horiz-adv-x="884" 
d="M847 504l-202 -504h-37l-167 444l-165 -444h-37l-202 504h42l178 -450l166 450h38l166 -450l178 450h42zM393 638l87 -84l-19 -19l-88 83z" />
    <glyph glyph-name="X.smcp" horiz-adv-x="554" 
d="M467 0l-190 230l-190 -230h-47l211 254l-206 250h46l186 -224l185 224h46l-206 -250l211 -254h-46z" />
    <glyph glyph-name="Y.smcp" horiz-adv-x="514" 
d="M238 0v224l-201 280h43l176 -244l178 244h42l-202 -280v-224h-36z" />
    <glyph glyph-name="Yacute.smcp" horiz-adv-x="514" 
d="M238 0v224l-201 280h43l176 -244l178 244h42l-202 -280v-224h-36zM218 554l87 84l20 -20l-87 -83z" />
    <glyph glyph-name="Ycircumflex.smcp" horiz-adv-x="514" 
d="M238 0v224l-201 280h43l176 -244l178 244h42l-202 -280v-224h-36zM256 638l88 -84l-20 -19l-68 64l-66 -64l-20 19z" />
    <glyph glyph-name="Ydieresis.smcp" horiz-adv-x="514" 
d="M238 0v224l-201 280h43l176 -244l178 244h42l-202 -280v-224h-36zM161 574q0 11 8 18.5t19 7.5t18.5 -7.5t7.5 -18.5q0 -12 -7.5 -19.5t-18.5 -7.5t-19 7.5t-8 19.5zM298 574q0 10 8 18t19 8q12 0 19.5 -7.5t7.5 -18.5q0 -12 -7.5 -19.5t-19.5 -7.5q-11 0 -19 7.5
t-8 19.5z" />
    <glyph glyph-name="Ygrave.smcp" horiz-adv-x="514" 
d="M238 0v224l-201 280h43l176 -244l178 244h42l-202 -280v-224h-36zM208 638l87 -84l-20 -19l-87 83z" />
    <glyph glyph-name="Z.smcp" horiz-adv-x="489" 
d="M57 473v31h378v-17l-333 -456h336v-31h-387v17l333 456h-327z" />
    <glyph glyph-name="Zacute.smcp" horiz-adv-x="489" 
d="M57 473v31h378v-17l-333 -456h336v-31h-387v17l333 456h-327zM206 554l87 84l19 -20l-86 -83z" />
    <glyph glyph-name="Zcaron.smcp" horiz-adv-x="489" 
d="M57 473v31h378v-17l-333 -456h336v-31h-387v17l333 456h-327zM244 535l-86 83l19 20l67 -65l68 65l19 -20z" />
    <glyph glyph-name="Zdotaccent.smcp" horiz-adv-x="489" 
d="M57 473v31h378v-17l-333 -456h336v-31h-387v17l333 456h-327zM216 581q0 12 8 20t20 8t20 -8t8 -20q0 -11 -8 -19t-20 -8t-20 8t-8 19z" />
    <glyph glyph-name="uni018F.smcp" horiz-adv-x="584" 
d="M533 252q0 -114 -67 -185.5t-174 -71.5t-174 71.5t-67 185.5v15h445q-5 93 -67 150.5t-158 57.5q-104 0 -167 -63l-23 24q73 73 191 73q117 0 189 -71.5t72 -185.5zM292 29q88 0 143.5 57t59.5 149h-406q4 -92 59.5 -149t143.5 -57z" />
    <glyph glyph-name="afii10017.smcp" horiz-adv-x="575" 
d="M497 0l-75 161h-270l-74 -161h-41l233 504h35l233 -504h-41zM287 459l-120 -265h242z" />
    <glyph glyph-name="afii10018.smcp" horiz-adv-x="420" 
d="M76 0v504h253v-31h-216v-200h112q65 0 104.5 -37.5t39.5 -98.5q0 -63 -39.5 -100t-104.5 -37h-149zM332 137q0 47 -29.5 75.5t-77.5 28.5h-112v-209h112q48 0 77.5 29t29.5 76z" />
    <glyph glyph-name="afii10019.smcp" horiz-adv-x="424" 
d="M76 0v504h132q60 0 97.5 -35t37.5 -94q0 -79 -68 -111q45 -11 71 -45t26 -82q0 -62 -39.5 -99.5t-103.5 -37.5h-153zM336 138q0 48 -29.5 77t-78.5 29h-115v-212h115q49 0 78.5 29t29.5 77zM307 374q0 44 -28 71t-72 27h-94v-196h94q44 0 72 27t28 71z" />
    <glyph glyph-name="afii10020.smcp" horiz-adv-x="372" 
d="M76 0v504h251v-31h-215v-473h-36z" />
    <glyph glyph-name="afii10021.smcp" horiz-adv-x="526" 
d="M450 0h-374v-108h-34v139q88 0 88 111v362h300v-473h54v-139h-34v108zM167 142q0 -78 -45 -111h272v442h-227v-331z" />
    <glyph glyph-name="afii10022.smcp" horiz-adv-x="402" 
d="M112 473v-203h211v-31h-211v-208h239v-31h-275v504h272v-31h-236z" />
    <glyph glyph-name="afii10023.smcp" horiz-adv-x="402" 
d="M112 473v-203h211v-31h-211v-208h239v-31h-275v504h272v-31h-236zM118 574q0 11 7.5 18.5t19.5 7.5q11 0 18.5 -8t7.5 -18q0 -12 -7.5 -19.5t-18.5 -7.5q-12 0 -19.5 7.5t-7.5 19.5zM255 574q0 11 8 18.5t19 7.5t19 -7.5t8 -18.5q0 -12 -8 -19.5t-19 -7.5t-19 7.5
t-8 19.5z" />
    <glyph glyph-name="afii10024.smcp" horiz-adv-x="682" 
d="M323 0v504h35v-504h-35zM598 0l-224 258l213 246h42l-212 -246l224 -258h-43zM307 258l-224 -258h-43l224 258l-213 246h43z" />
    <glyph glyph-name="afii10025.smcp" horiz-adv-x="424" 
d="M147 244v32h59q47 0 75 27t28 74q0 45 -26.5 72t-76.5 27q-70 0 -131 -58l-23 23q70 68 156 68q66 0 101.5 -36t35.5 -94q0 -83 -69 -115q44 -12 70 -45.5t26 -82.5q0 -65 -43.5 -103t-117.5 -38q-94 0 -167 73l24 24q61 -64 141 -64q59 0 93 30t34 80q0 48 -29.5 77
t-78.5 29h-81z" />
    <glyph glyph-name="afii10026.smcp" horiz-adv-x="555" 
d="M452 504h27v-504h-36v437l-340 -437h-27v504h36v-437z" />
    <glyph glyph-name="afii10027.smcp" horiz-adv-x="555" 
d="M278 574q44 0 79 33l20 -20q-43 -41 -99 -41q-57 0 -100 41l20 20q36 -33 80 -33zM452 504h27v-504h-36v437l-340 -437h-27v504h36v-437z" />
    <glyph glyph-name="afii10028.smcp" horiz-adv-x="456" 
d="M73 0v504h36v-504h-36zM369 0l-245 258l230 246h45l-229 -246l245 -258h-46z" />
    <glyph glyph-name="afii10029.smcp" horiz-adv-x="514" 
d="M41 0v24q42 0 66.5 22t24.5 66v392h306v-504h-37v473h-233v-358q0 -55 -27.5 -86t-68.5 -31q-25 0 -31 2z" />
    <glyph glyph-name="afii10030.smcp" horiz-adv-x="633" 
d="M521 0v429l-194 -307h-21l-194 307v-429h-36v504h28l212 -334l213 334h28v-504h-36z" />
    <glyph glyph-name="afii10031.smcp" horiz-adv-x="542" 
d="M112 504v-234h317v234h37v-504h-37v239h-317v-239h-36v504h36z" />
    <glyph glyph-name="afii10032.smcp" horiz-adv-x="626" 
d="M51 252q0 114 72.5 185.5t188.5 71.5q117 0 189.5 -71.5t72.5 -185.5t-72.5 -185.5t-189.5 -71.5q-116 0 -188.5 71.5t-72.5 185.5zM88 252q0 -99 62.5 -161t161.5 -62q101 0 163 62t62 161t-62 161t-163 62q-99 0 -161.5 -62t-62.5 -161z" />
    <glyph glyph-name="afii10033.smcp" horiz-adv-x="523" 
d="M76 504h371v-504h-35v473h-300v-473h-36v504z" />
    <glyph glyph-name="afii10034.smcp" horiz-adv-x="404" 
d="M76 0v504h133q65 0 104.5 -37t39.5 -100q0 -61 -39.5 -99t-104.5 -38h-96v-230h-37zM316 367q0 47 -29.5 76t-77.5 29h-96v-209h96q48 0 77.5 28.5t29.5 75.5z" />
    <glyph glyph-name="afii10035.smcp" horiz-adv-x="548" 
d="M88 252q0 -99 63 -161t163 -62q105 0 166 63l24 -24q-73 -73 -192 -73q-116 0 -188.5 71.5t-72.5 185.5t72.5 185.5t188.5 71.5q119 0 192 -73l-24 -25q-62 64 -166 64q-100 0 -163 -62t-63 -161z" />
    <glyph glyph-name="afii10036.smcp" horiz-adv-x="439" 
d="M237 473v-473h-35v473h-158v31h352v-31h-159z" />
    <glyph glyph-name="afii10037.smcp" horiz-adv-x="478" 
d="M441 504l-269 -504h-38l87 158l-184 346h38l164 -304l163 304h39z" />
    <glyph glyph-name="afii10038.smcp" horiz-adv-x="580" 
d="M272 0v49q-98 0 -159.5 56.5t-61.5 146.5t61.5 146.5t159.5 56.5v49h36v-49q98 0 159 -56.5t61 -146.5t-61 -146.5t-159 -56.5v-49h-36zM308 421v-338q82 0 133 47t51 122t-51 122t-133 47zM272 83v338q-82 0 -133 -47t-51 -122t51 -122t133 -47z" />
    <glyph glyph-name="afii10039.smcp" horiz-adv-x="554" 
d="M467 0l-190 230l-190 -230h-47l211 254l-206 250h46l186 -224l185 224h46l-206 -250l211 -254h-46z" />
    <glyph glyph-name="afii10040.smcp" horiz-adv-x="566" 
d="M489 0h-413v504h36v-473h323v473h37v-473h52v-139h-35v108z" />
    <glyph glyph-name="afii10041.smcp" horiz-adv-x="456" 
d="M380 0h-35v235q-51 -16 -118 -16q-73 0 -112 39t-39 112v134h35v-133q0 -122 122 -122q66 0 112 16v239h35v-504z" />
    <glyph glyph-name="afii10042.smcp" horiz-adv-x="794" 
d="M718 0h-642v504h36v-473h267v473h36v-473h267v473h36v-504z" />
    <glyph glyph-name="afii10043.smcp" horiz-adv-x="812" 
d="M736 0h-660v504h36v-473h267v473h36v-473h267v473h36v-473h53v-139h-35v108z" />
    <glyph glyph-name="afii10044.smcp" horiz-adv-x="498" 
d="M44 473v31h155v-231h104q65 0 104 -37.5t39 -98.5q0 -63 -39 -100t-104 -37h-140v473h-119zM410 137q0 47 -29.5 75.5t-77.5 28.5h-104v-209h104q48 0 77.5 29t29.5 76z" />
    <glyph glyph-name="afii10045.smcp" horiz-adv-x="557" 
d="M76 0v504h37v-231h104q64 0 104 -37.5t40 -98.5q0 -62 -40 -99.5t-104 -37.5h-141zM323 137q0 47 -29 75.5t-77 28.5h-104v-209h104q48 0 77 29t29 76zM445 0v504h36v-504h-36z" />
    <glyph glyph-name="afii10046.smcp" horiz-adv-x="412" 
d="M76 0v504h37v-231h104q64 0 104 -37.5t40 -98.5q0 -62 -40 -99.5t-104 -37.5h-141zM323 137q0 47 -29 75.5t-77 28.5h-104v-209h104q48 0 77 29t29 76z" />
    <glyph glyph-name="afii10047.smcp" horiz-adv-x="548" 
d="M68 411l-24 25q73 73 191 73q117 0 189.5 -71.5t72.5 -185.5t-72.5 -185.5t-189.5 -71.5q-118 0 -191 73l24 24q61 -63 166 -63q98 0 159.5 57.5t65.5 152.5h-282v31h282q-5 92 -67.5 148.5t-157.5 56.5q-105 0 -166 -64z" />
    <glyph glyph-name="afii10048.smcp" horiz-adv-x="792" 
d="M112 504v-234h156q5 107 69.5 173t165.5 66q106 0 172 -71.5t66 -185.5t-66 -185.5t-172 -71.5q-102 0 -166.5 67.5t-68.5 176.5h-156v-239h-36v504h36zM304 252q0 -99 55.5 -161t143.5 -62q90 0 145.5 62t55.5 161t-55.5 161t-145.5 62q-88 0 -143.5 -62t-55.5 -161z
" />
    <glyph glyph-name="afii10049.smcp" horiz-adv-x="425" 
d="M348 504v-504h-36v230h-97l-130 -230h-41l135 230q-58 5 -93 42t-35 95q0 63 39.5 100t104.5 37h153zM88 367q0 -47 29.5 -75.5t77.5 -28.5h117v209h-117q-48 0 -77.5 -29t-29.5 -76z" />
    <glyph glyph-name="afii10050.smcp" horiz-adv-x="371" 
d="M112 473v-473h-36v504h212v90h30v-121h-206z" />
    <glyph glyph-name="afii10051.smcp" horiz-adv-x="545" 
d="M388 0v24q47 0 47 42v112q0 43 -27.5 70t-71.5 27q-64 0 -99 -37v-238h-35v473h-158v31h352v-31h-159v-200q45 35 105 35q58 0 93.5 -36t35.5 -94v-113q0 -32 -18 -49.5t-45 -17.5q-16 0 -20 2z" />
    <glyph glyph-name="afii10052.smcp" horiz-adv-x="372" 
d="M162 554l86 84l20 -20l-88 -83zM76 0v504h251v-31h-215v-473h-36z" />
    <glyph glyph-name="afii10053.smcp" horiz-adv-x="548" 
d="M314 475q-96 0 -158 -56.5t-67 -148.5h333v-31h-333q4 -95 65.5 -152.5t159.5 -57.5q105 0 166 63l24 -24q-73 -73 -192 -73q-116 0 -188.5 71.5t-72.5 185.5t72.5 185.5t188.5 71.5q119 0 192 -73l-24 -25q-62 64 -166 64z" />
    <glyph glyph-name="afii10054.smcp" horiz-adv-x="407" 
d="M337 453l-24 -24q-43 46 -118 46q-52 0 -78 -29t-26 -67q0 -36 27 -59.5t65.5 -37.5t77 -29.5t65.5 -44.5t27 -72q0 -56 -39.5 -98.5t-115.5 -42.5q-95 0 -155 62l23 24q46 -52 129 -52q61 0 91.5 33t30.5 73q0 34 -27 57t-65.5 37l-77.5 29.5t-66 45.5t-27 75
q0 54 34.5 92t104.5 38q90 0 144 -56z" />
    <glyph glyph-name="afii10055.smcp" horiz-adv-x="181" 
d="M73 0v504h36v-504h-36z" />
    <glyph glyph-name="afii10056.smcp" horiz-adv-x="182" 
d="M73 0v504h36v-504h-36zM8 574q0 11 8 18.5t19 7.5t19 -7.5t8 -18.5q0 -12 -8 -19.5t-19 -7.5t-19 7.5t-8 19.5zM120 574q0 10 8 18t18 8q12 0 19.5 -7.5t7.5 -18.5q0 -12 -7.5 -19.5t-19.5 -7.5q-11 0 -18.5 7.5t-7.5 19.5z" />
    <glyph glyph-name="afii10057.smcp" horiz-adv-x="361" 
d="M252 134v370h36v-370q0 -62 -39 -100.5t-103 -38.5q-60 0 -102 40l24 24q28 -30 78 -30q47 0 76.5 29t29.5 76z" />
    <glyph glyph-name="afii10058.smcp" horiz-adv-x="723" 
d="M388 0v473h-220v-358q0 -55 -27.5 -86t-68.5 -31q-25 0 -31 2v24q42 0 66.5 22t24.5 66v392h292v-231h104q65 0 104.5 -37.5t39.5 -98.5q0 -63 -39.5 -100t-104.5 -37h-140zM635 137q0 47 -29.5 75.5t-77.5 28.5h-104v-209h104q48 0 77.5 29t29.5 76z" />
    <glyph glyph-name="afii10059.smcp" horiz-adv-x="718" 
d="M112 504v-231h270v231h38v-231h103q64 0 104 -37.5t40 -98.5q0 -62 -40 -99.5t-104 -37.5h-141v241h-270v-241h-36v504h36zM630 137q0 47 -29.5 75.5t-77.5 28.5h-103v-209h103q48 0 77.5 29t29.5 76z" />
    <glyph glyph-name="afii10060.smcp" horiz-adv-x="545" 
d="M237 473v-200q45 35 105 35q58 0 93.5 -36t35.5 -94v-178h-36v178q0 43 -27.5 70t-71.5 27q-64 0 -99 -37v-238h-35v473h-158v31h352v-31h-159z" />
    <glyph glyph-name="afii10061.smcp" horiz-adv-x="456" 
d="M73 0v504h36v-504h-36zM369 0l-245 258l230 246h45l-229 -246l245 -258h-46zM189 554l87 84l19 -20l-87 -83z" />
    <glyph glyph-name="afii10062.smcp" horiz-adv-x="478" 
d="M239 574q46 0 79 33l20 -20q-43 -41 -99 -41q-57 0 -100 41l21 20q35 -33 79 -33zM441 504l-269 -504h-38l87 158l-184 346h38l164 -304l163 304h39z" />
    <glyph glyph-name="afii10145.smcp" horiz-adv-x="548" 
d="M257 0h-181v504h36v-473h323v473h37v-504h-181v-108h-34v108z" />
    <glyph glyph-name="uni040D.smcp" horiz-adv-x="555" 
d="M229 638l87 -84l-20 -19l-86 83zM452 504h27v-504h-36v437l-340 -437h-27v504h36v-437z" />
    <glyph glyph-name="uni0400.smcp" horiz-adv-x="402" 
d="M112 473v-203h211v-31h-211v-208h239v-31h-275v504h272v-31h-236zM165 638l87 -84l-20 -19l-86 83z" />
    <glyph glyph-name="uni04D8.smcp" horiz-adv-x="584" 
d="M533 252q0 -114 -67 -185.5t-174 -71.5t-174 71.5t-67 185.5v15h445q-5 93 -67 150.5t-158 57.5q-104 0 -167 -63l-23 24q73 73 191 73q117 0 189 -71.5t72 -185.5zM292 29q88 0 143.5 57t59.5 149h-406q4 -92 59.5 -149t143.5 -57z" />
    <glyph glyph-name="afii10056_afii10056.smcp" horiz-adv-x="364" 
d="M73 0v504h36v-504h-36zM8 574q0 11 8 18.5t19 7.5t19 -7.5t8 -18.5q0 -12 -8 -19.5t-19 -7.5t-19 7.5t-8 19.5zM255 0v504h36v-504h-36zM301 574q0 11 8 18.5t19 7.5q12 0 20 -7.5t8 -18.5q0 -12 -8 -19.5t-20 -7.5q-11 0 -19 7.5t-8 19.5zM154 574q0 11 8 18.5t20 7.5
q11 0 19 -8t8 -18q0 -12 -8 -19.5t-19 -7.5q-12 0 -20 7.5t-8 19.5z" />
    <glyph glyph-name="afii10021.alt.smcp" horiz-adv-x="642" 
d="M565 0h-489v-108h-34v139h45l216 473h35l216 -473h46v-139h-35v108zM320 459l-191 -428h384z" />
    <glyph glyph-name="afii10029.alt.smcp" horiz-adv-x="575" 
d="M37 0l233 504h35l233 -504h-42l-209 458l-208 -458h-42z" />
    <glyph glyph-name="afii10058.alt.smcp" horiz-adv-x="760" 
d="M37 0l233 504h35l107 -231h153q65 0 104.5 -37.5t39.5 -98.5q0 -63 -39.5 -100t-104.5 -37h-69l-209 458l-208 -458h-42zM565 241h-139l98 -209h41q49 0 78.5 29t29.5 76t-29.5 75.5t-78.5 28.5z" />
    <glyph glyph-name="Aringacute.smcp" horiz-adv-x="575" 
d="M267 628l87 84l20 -20l-76 -73q25 -3 39.5 -20t14.5 -42q0 -48 -44 -61l230 -496h-41l-75 161h-270l-74 -161h-41l229 496q-43 13 -43 61q0 25 14.5 42t38.5 20zM287 459l-120 -265h242zM244 557q0 -19 12 -31t31 -12q20 0 32 12t12 31t-12 30.5t-32 11.5
q-19 0 -31 -11.5t-12 -30.5z" />
    <glyph glyph-name="germandbls.smcp" horiz-adv-x="460" 
d="M109 382v-382h-36v382q0 56 37.5 91.5t97.5 35.5t97.5 -35t37.5 -91q0 -46 -28 -78t-74 -39q0 -29 17 -48.5t41.5 -30l49.5 -21.5t42 -32t17 -52q0 -35 -27.5 -61t-79.5 -26q-66 0 -104 41l23 22q29 -32 80 -32q37 0 55 17.5t18 39.5q0 23 -17 38.5t-41.5 26t-49.5 22.5
t-42 36t-17 59v29q45 0 73 25t28 65q0 41 -28 67t-71 26q-44 0 -71.5 -26.5t-27.5 -68.5z" />
    <glyph glyph-name="at.smcp" horiz-adv-x="616" 
d="M492 88l18 -18q-73 -75 -200 -75q-117 0 -190 71.5t-73 185.5t73 185.5t189 71.5q118 0 189 -68t71 -168q0 -74 -36.5 -109t-83.5 -35q-48 0 -63 26q-31 -26 -77 -26q-55 0 -89 34t-34 89t35 89t92 34q62 0 98 -34v-162q0 -24 42 -24q35 0 61 27.5t26 87.5q0 92 -62 152
t-168 60q-104 0 -168.5 -63.5t-64.5 -166.5q0 -104 64 -167t170 -63q115 0 181 66zM215 252q0 -45 27 -71t72 -26q42 0 68 23v152q-28 19 -70 19q-45 0 -71 -26.5t-26 -70.5z" />
    <glyph glyph-name="parenleft.smcp" horiz-adv-x="246" 
d="M190 545v-29q-38 0 -65 -74.5t-27 -190.5q0 -115 27 -189t65 -74v-29q-54 0 -90.5 82t-36.5 211t36.5 211t90.5 82z" />
    <glyph glyph-name="parenright.smcp" horiz-adv-x="246" 
d="M55 516v29q55 0 91.5 -82t36.5 -211t-36.5 -211t-91.5 -82v29q38 0 65.5 74.5t27.5 189.5t-27.5 189.5t-65.5 74.5z" />
    <glyph glyph-name="bracketleft.smcp" horiz-adv-x="242" 
d="M187 540v-29h-79v-518h79v-29h-114v576h114z" />
    <glyph glyph-name="bracketright.smcp" horiz-adv-x="242" 
d="M55 511v29h115v-576h-115v29h80v518h-80z" />
    <glyph glyph-name="braceleft.smcp" horiz-adv-x="263" 
d="M219 -12v-29q-44 0 -75 34.5t-31 87.5v57q0 43 -20 71t-49 28v29q29 0 49 28t20 72v57q0 53 31 87.5t75 34.5v-29q-29 0 -49 -27.5t-20 -70.5v-57q0 -40 -17.5 -69t-47.5 -40q30 -12 47.5 -41t17.5 -69v-56q0 -43 20 -70.5t49 -27.5z" />
    <glyph glyph-name="braceright.smcp" horiz-adv-x="263" 
d="M44 -41v29q29 0 49 27.5t20 70.5v56q0 39 18 68.5t47 41.5q-29 12 -47 40.5t-18 68.5v57q0 43 -20 70.5t-49 27.5v29q45 0 75.5 -34.5t30.5 -87.5v-57q0 -44 20 -72t49 -28v-29q-29 0 -49 -28t-20 -71v-57q0 -53 -30.5 -87.5t-75.5 -34.5z" />
    <glyph glyph-name="exclamdown.smcp" horiz-adv-x="181" 
d="M63 481q0 12 8 20t19 8q12 0 20 -8t8 -20q0 -11 -8 -19t-20 -8q-11 0 -19 8t-8 19zM73 371h35v-371h-35v371z" />
    <glyph glyph-name="questiondown.smcp" horiz-adv-x="370" 
d="M303 71l24 -23q-55 -53 -139 -53q-69 0 -105 37.5t-36 89.5q0 30 12.5 52t30 35.5l34.5 27.5t29.5 37.5t12.5 56.5v40h35v-40q0 -38 -12 -65t-29.5 -42t-35 -28t-29.5 -31t-12 -42q0 -38 26 -67t78 -29q33 0 65 12t51 32zM211 481q0 -11 -8 -19t-20 -8q-11 0 -19 8t-8 19
q0 12 8 20t19 8q12 0 20 -8t8 -20z" />
    <glyph glyph-name="bar.smcp" horiz-adv-x="181" 
d="M73 -36v576h35v-576h-35z" />
    <glyph glyph-name="brokenbar.smcp" horiz-adv-x="181" 
d="M73 -36v252h35v-252h-35zM108 540v-252h-35v252h35z" />
    <glyph glyph-name="dagger.smcp" horiz-adv-x="395" 
d="M63 353v29h117v158h35v-158h117v-29h-117v-389h-35v389h-117z" />
    <glyph glyph-name="daggerdbl.smcp" horiz-adv-x="395" 
d="M63 137v29h117v187h-117v29h117v158h35v-158h117v-29h-117v-187h117v-29h-117v-173h-35v173h-117z" />
    <glyph glyph-name="zero.smcp" horiz-adv-x="446" 
d="M51 252q0 114 47.5 185.5t123.5 71.5q77 0 124.5 -71.5t47.5 -185.5t-47.5 -185.5t-124.5 -71.5q-76 0 -123.5 71.5t-47.5 185.5zM87 252q0 -100 37.5 -162.5t97.5 -62.5q61 0 99 62.5t38 162.5t-38 162.5t-99 62.5q-60 0 -97.5 -62.5t-37.5 -162.5z" />
    <glyph glyph-name="one.smcp" horiz-adv-x="245" 
d="M35 455v30l117 21v-506h-35v472z" />
    <glyph glyph-name="two.smcp" horiz-adv-x="405" 
d="M53 34l231 222q35 33 35 96q0 55 -33.5 90t-85.5 35t-85 -35t-33 -90h-35q0 70 42.5 113.5t110.5 43.5q70 0 112 -43t42 -114q0 -77 -45 -120l-210 -201h255v-31h-301v34z" />
    <glyph glyph-name="three.smcp" horiz-adv-x="416" 
d="M172 260v31h34q43 0 70 25.5t27 66.5t-27 67.5t-70 26.5t-70 -26.5t-27 -67.5h-35q0 56 36.5 91t95.5 35q60 0 96.5 -35t36.5 -91q0 -77 -71 -107q45 -14 71.5 -49t26.5 -84q0 -65 -44.5 -106.5t-115.5 -41.5q-70 0 -114.5 41.5t-44.5 106.5h36q0 -52 34 -84t89 -32
t89.5 32t34.5 84t-34.5 84.5t-89.5 32.5h-34z" />
    <glyph glyph-name="four.smcp" horiz-adv-x="424" 
d="M287 0v102h-243v22l240 380h37v-371h49v-31h-48v-102h-35zM87 133h200v316z" />
    <glyph glyph-name="five.smcp" horiz-adv-x="405" 
d="M354 152q0 -71 -42 -114t-112 -43q-68 0 -110.5 40t-42.5 105h35q0 -50 33 -81.5t85 -31.5t85.5 35t33.5 90q0 61 -36.5 98t-95.5 37q-60 0 -98 -33l-25 13l35 237h218v-31h-187l-28 -175q34 21 87 21q74 0 119.5 -46t45.5 -121z" />
    <glyph glyph-name="six.smcp" horiz-adv-x="417" 
d="M232 509l30 -18q-81 -123 -129 -202q33 19 76 19q71 0 116 -43t45 -113t-44.5 -113.5t-117.5 -43.5q-72 0 -116.5 43.5t-44.5 115.5q0 13 1.5 24.5t3 21.5t7 23.5t9 23t14.5 28l18 31t24.5 39l29 44.5l36.5 55.5zM83 152q0 -56 34.5 -90.5t90.5 -34.5t91 34.5t35 90.5
t-35 90.5t-91 34.5t-90.5 -34.5t-34.5 -90.5z" />
    <glyph glyph-name="seven.smcp" horiz-adv-x="407" 
d="M51 473v31h304v-17l-197 -487h-39l192 473h-260z" />
    <glyph glyph-name="eight.smcp" horiz-adv-x="419" 
d="M77 383q0 56 37 91t96 35t95.5 -35t36.5 -91q0 -78 -70 -107q45 -14 71 -49t26 -84q0 -65 -44.5 -106.5t-114.5 -41.5q-71 0 -115 41t-44 107q0 49 25.5 84t70.5 49q-70 29 -70 107zM86 143q0 -52 34.5 -84t89.5 -32t89 32t34 84t-34 84t-89 32t-89.5 -32t-34.5 -84z
M113 383q0 -41 27 -66.5t70 -25.5t70 25.5t27 66.5t-27 67.5t-70 26.5t-70 -26.5t-27 -67.5z" />
    <glyph glyph-name="nine.smcp" horiz-adv-x="417" 
d="M185 -5l-31 18q75 111 130 202q-33 -19 -76 -19q-72 0 -116.5 43t-44.5 113t44.5 113.5t116.5 43.5q73 0 117.5 -43.5t44.5 -115.5q0 -13 -1.5 -24.5t-3 -21.5t-7 -23.5t-9 -23t-14.5 -28l-18 -31t-24.5 -39l-29 -44.5l-36.5 -55.5zM334 352q0 55 -35 90t-91 35
q-55 0 -90 -35t-35 -90q0 -56 34.5 -90.5t90.5 -34.5t91 34.5t35 90.5z" />
    <glyph glyph-name="dollar.smcp" horiz-adv-x="407" 
d="M188 -72v67q-89 5 -145 62l23 24q44 -50 122 -52v213q-31 12 -50 21t-41 25t-32.5 38.5t-10.5 52.5q0 53 33 91t101 39v67h24v-68q77 -7 125 -55l-24 -24q-37 38 -101 45v-203q35 -13 52.5 -21t42 -24.5t35.5 -38.5t11 -51q0 -54 -36 -95.5t-105 -44.5v-68h-24zM317 135
q0 37 -27 58t-78 40v-203q53 5 79 37t26 68zM91 379q0 -37 25 -58.5t72 -40.5v195q-49 -2 -73 -31t-24 -65z" />
    <glyph glyph-name="Euro.smcp" horiz-adv-x="585" 
d="M44 290v24h50q19 89 87 142t168 53q117 0 192 -73l-24 -25q-62 64 -166 64q-84 0 -142.5 -43.5t-76.5 -117.5h220v-24h-225q-2 -24 -2 -38t2 -38h225v-24h-220q18 -74 76.5 -117.5t142.5 -43.5q105 0 166 63l24 -24q-75 -73 -192 -73q-100 0 -168 53t-87 142h-50v24h46
q-2 12 -2 38q0 25 2 38h-46z" />
    <glyph glyph-name="sterling.smcp" horiz-adv-x="401" 
d="M43 237v30h59v103q0 62 38.5 100.5t101.5 38.5t103 -40l-23 -24q-30 30 -79 30q-47 0 -76.5 -29t-29.5 -76v-103h141v-30h-141v-162q24 -4 67 -26.5t68 -22.5q22 0 35 13t13 33h30q0 -34 -21.5 -55.5t-55.5 -21.5q-33 0 -80.5 25.5t-72.5 25.5q-21 0 -34 -12.5t-13 -33.5
h-30q0 30 16 50t43 25v162h-59z" />
    <glyph glyph-name="yen.smcp" horiz-adv-x="514" 
d="M126 165v24h112v35l-201 280h43l176 -244l178 244h42l-202 -280v-35h113v-24h-113v-69h113v-24h-113v-72h-36v72h-112v24h112v69h-112z" />
    <glyph glyph-name="uni20B4.smcp" horiz-adv-x="335" 
d="M47 284v24h156l12 11q14 14 20 21.5t12 21.5t6 31q0 37 -26 60.5t-67 23.5q-56 0 -90 -39l-23 23q45 48 113 48q57 0 92.5 -32t35.5 -83q0 -47 -39 -86h40v-24h-65l-67 -64h132v-23h-156l-12 -12q-20 -19 -29 -34t-9 -40q0 -37 26 -60.5t66 -23.5q56 0 90 39l23 -23
q-42 -48 -113 -48q-57 0 -92.5 32t-35.5 83q0 46 41 87h-41v23h64l67 64h-131z" />
    <glyph glyph-name="numbersign.smcp" horiz-adv-x="466" 
d="M260 0l23 134h-142l-23 -134h-35l22 134h-61v30h67l30 176h-67v30h72l23 134h35l-23 -134h143l23 134h35l-23 -134h63v-30h-67l-31 -176h69v-30h-74l-23 -134h-36zM176 340l-30 -176h143l30 176h-143z" />
    <glyph glyph-name="zero.fitted.smcp" horiz-adv-x="417" 
d="M41 252q0 114 46.5 185.5t121.5 71.5q74 0 120.5 -71.5t46.5 -185.5t-46.5 -185.5t-120.5 -71.5q-75 0 -121.5 71.5t-46.5 185.5zM76 252q0 -100 37 -162.5t96 -62.5t95 62.5t36 162.5t-36.5 162.5t-94.5 62.5q-59 0 -96 -62.5t-37 -162.5z" />
    <glyph glyph-name="one.fitted.smcp" horiz-adv-x="417" 
d="M103 0v29h89v443l-94 -17v30l129 21v-477h89v-29h-213z" />
    <glyph glyph-name="two.fitted.smcp" horiz-adv-x="418" 
d="M59 34l233 222q35 33 35 96q0 55 -33.5 90t-86.5 35t-86 -35t-33 -90h-36q0 71 42.5 114t112.5 43t112.5 -43t42.5 -114q0 -75 -47 -120l-212 -201h259v-31h-303v34z" />
    <glyph glyph-name="three.fitted.smcp" horiz-adv-x="418" 
d="M173 260v31h34q44 0 71 25.5t27 66.5t-27.5 67.5t-70.5 26.5t-70 -26.5t-27 -67.5h-35q0 56 36.5 91t95.5 35q60 0 97 -35t37 -91q0 -77 -71 -107q45 -14 71 -49t26 -84q0 -66 -44 -107t-116 -41q-70 0 -114.5 41.5t-44.5 106.5h36q0 -52 34 -84t89 -32t89.5 32t34.5 84
t-34.5 84.5t-89.5 32.5h-34z" />
    <glyph glyph-name="four.fitted.smcp" horiz-adv-x="417" 
d="M284 0v102h-242v22l239 380h37v-371h49v-31h-48v-102h-35zM85 133h200v316z" />
    <glyph glyph-name="five.fitted.smcp" horiz-adv-x="418" 
d="M362 152q0 -71 -42.5 -114t-112.5 -43t-112.5 40t-42.5 105h35q0 -50 33 -81.5t87 -31.5q53 0 86.5 35t33.5 90q0 60 -37 97.5t-96 37.5q-62 0 -100 -33l-25 13l35 237h220v-31h-189l-28 -175q35 21 88 21q75 0 121 -46t46 -121z" />
    <glyph glyph-name="six.fitted.smcp" horiz-adv-x="418" 
d="M233 509l30 -18q-93 -140 -130 -202q32 19 76 19q72 0 117.5 -43t45.5 -113t-45 -113.5t-118 -43.5t-118 43.5t-45 115.5q0 52 22.5 96.5t116.5 185.5zM82 152q0 -55 35.5 -90t91.5 -35t91.5 35t35.5 90t-35.5 90t-91.5 35t-91.5 -35t-35.5 -90z" />
    <glyph glyph-name="seven.fitted.smcp" horiz-adv-x="417" 
d="M55 473v31h306v-17l-199 -487h-38l193 473h-262z" />
    <glyph glyph-name="eight.fitted.smcp" horiz-adv-x="418" 
d="M76 383q0 56 37 91t96 35q60 0 97 -35t37 -91q0 -77 -71 -107q45 -14 71.5 -49t26.5 -84q0 -65 -44.5 -106.5t-116.5 -41.5q-71 0 -116 41.5t-45 106.5q0 49 26.5 84t72.5 49q-71 28 -71 107zM84 143q0 -52 34.5 -84t90.5 -32t90.5 32t34.5 84t-34.5 84t-90.5 32
t-90.5 -32t-34.5 -84zM111 383q0 -41 27.5 -66.5t70.5 -25.5q44 0 71 25.5t27 66.5t-27.5 67.5t-70.5 26.5t-70.5 -26.5t-27.5 -67.5z" />
    <glyph glyph-name="nine.fitted.smcp" horiz-adv-x="417" 
d="M184 -5l-30 18q75 111 130 202q-32 -19 -76 -19q-72 0 -117 43t-45 113t45 113.5t118 43.5q72 0 117 -43.5t45 -115.5q0 -52 -22.5 -96.5t-116.5 -185.5zM335 352q0 55 -35 90t-92 35q-56 0 -91 -35t-35 -90q0 -56 35 -90.5t91 -34.5q57 0 92 34.5t35 90.5z" />
    <glyph glyph-name="exclam.smcp" horiz-adv-x="181" 
d="M63 23q0 11 8 19t19 8q12 0 20 -8t8 -19q0 -12 -8 -20t-20 -8q-11 0 -19 8t-8 20zM73 133v371h35v-371h-35z" />
    <glyph glyph-name="ampersand.smcp" horiz-adv-x="479" 
d="M267 260v31h168v-31h-66v-117q0 -65 -44.5 -106.5t-114.5 -41.5q-71 0 -115 41t-44 107q0 49 26 84t71 49q-71 30 -71 107q0 56 37 91t96 35t95.5 -35t36.5 -91h-35q0 41 -27 67.5t-70 26.5t-70 -26.5t-27 -67.5t27 -66.5t70 -25.5h22v-31h-22q-55 0 -89.5 -32.5
t-34.5 -84.5t34.5 -84t89.5 -32t89 32t34 84v117h-66z" />
    <glyph glyph-name="slash.smcp" horiz-adv-x="424" 
d="M58 -36l273 576h36l-273 -576h-36z" />
    <glyph glyph-name="backslash.smcp" horiz-adv-x="424" 
d="M94 540l273 -576h-36l-273 576h36z" />
    <glyph glyph-name="question.smcp" horiz-adv-x="370" 
d="M66 433l-23 23q55 53 139 53q69 0 104.5 -37.5t35.5 -90.5q0 -30 -12.5 -52t-30 -35.5l-34.5 -27t-29.5 -37t-12.5 -56.5v-40h-35v40q0 38 12 65t29.5 42t35 28t29.5 30.5t12 41.5q0 39 -26 68t-78 29q-72 0 -116 -44zM157 23q0 11 8.5 19t19.5 8q12 0 20 -8t8 -19
q0 -12 -8 -20t-20 -8q-11 0 -19.5 8t-8.5 20z" />
    <glyph glyph-name="percent.smcp" horiz-adv-x="640" 
d="M166 0l272 504h37l-272 -504h-37zM44 392q0 52 33 84.5t87 32.5q53 0 86.5 -32.5t33.5 -84.5t-33.5 -85t-86.5 -33q-54 0 -87 32.5t-33 85.5zM76 392q0 -40 24.5 -64.5t63.5 -24.5t63 24.5t24 64.5q0 39 -24 63.5t-63 24.5t-63.5 -24.5t-24.5 -63.5zM356 112
q0 52 33.5 84.5t87.5 32.5q53 0 86 -32.5t33 -84.5t-33 -84.5t-86 -32.5q-54 0 -87.5 32.5t-33.5 84.5zM389 112q0 -39 24.5 -63.5t63.5 -24.5q38 0 62.5 24.5t24.5 63.5q0 40 -24.5 64.5t-62.5 24.5q-39 0 -63.5 -24.5t-24.5 -64.5z" />
    <glyph glyph-name="perthousand.smcp" horiz-adv-x="928" 
d="M166 0l272 504h37l-272 -504h-37zM44 392q0 52 33 84.5t87 32.5q53 0 86.5 -32.5t33.5 -84.5t-33.5 -85t-86.5 -33q-54 0 -87 32.5t-33 85.5zM76 392q0 -40 24.5 -64.5t63.5 -24.5t63 24.5t24 64.5q0 39 -24 63.5t-63 24.5t-63.5 -24.5t-24.5 -63.5zM356 112
q0 52 33.5 84.5t87.5 32.5q53 0 86 -32.5t33 -84.5t-33 -84.5t-86 -32.5q-54 0 -87.5 32.5t-33.5 84.5zM389 112q0 -39 24.5 -63.5t63.5 -24.5q38 0 62.5 24.5t24.5 63.5q0 40 -24.5 64.5t-62.5 24.5q-39 0 -63.5 -24.5t-24.5 -64.5zM644 112q0 52 33.5 84.5t86.5 32.5
t86.5 -32.5t33.5 -84.5t-33.5 -84.5t-86.5 -32.5t-86.5 32.5t-33.5 84.5zM677 112q0 -39 24 -63.5t63 -24.5t63.5 24.5t24.5 63.5q0 40 -24.5 64.5t-63.5 24.5t-63 -24.5t-24 -64.5z" />
    <glyph glyph-name="section.smcp" horiz-adv-x="334" 
d="M118 313l157 -149l-25 -23l-156 149q-47 44 -47 103q0 51 35.5 83.5t92.5 32.5q71 0 113 -48l-22 -23q-36 39 -91 39q-40 0 -65.5 -23.5t-25.5 -61.5q0 -47 34 -79zM217 10l-156 151l23 23l157 -150q46 -43 46 -103q0 -52 -35.5 -84t-92.5 -32q-70 0 -113 48l23 23
q34 -39 90 -39q41 0 66.5 24t25.5 61q0 46 -34 78z" />
    <glyph glyph-name="paragraph.smcp" horiz-adv-x="425" 
d="M259 504v-504h-34v234h-28q-64 0 -103 37t-39 98t39 98t103 37h62zM318 0v504h34v-504h-34z" />
    <glyph glyph-name="quoteright_afii10056.smcp" horiz-adv-x="243" 
d="M134 0v504h36v-504h-36zM181 574q0 11 8 18.5t19 7.5t19 -7.5t8 -18.5q0 -12 -8 -19.5t-19 -7.5t-19 7.5t-8 19.5zM18 526l-17 17q37 37 39 64q-13 1 -22 10t-9 22q0 14 10 23.5t24 9.5q31 0 31 -41q0 -49 -56 -105z" />
    <glyph glyph-name="zero.sub" horiz-adv-x="303" 
d="M37 125q0 80 31.5 129t83.5 49q51 0 83 -49.5t32 -128.5t-32 -128.5t-83 -49.5q-52 0 -83.5 49t-31.5 129zM65 125q0 -68 24 -110.5t63 -42.5q38 0 62 42.5t24 110.5t-24 110.5t-62 42.5q-39 0 -63 -42.5t-24 -110.5z" />
    <glyph glyph-name="one.sub" horiz-adv-x="172" 
d="M27 264v23l82 15v-352h-27v325z" />
    <glyph glyph-name="two.sub" horiz-adv-x="277" 
d="M38 -24l153 153q22 22 22 65q0 37 -21 60.5t-54 23.5q-34 0 -55.5 -23t-21.5 -61h-28q0 49 29 79t76 30q46 0 74.5 -30t28.5 -79q0 -52 -31 -83l-136 -137h167v-24h-203v26z" />
    <glyph glyph-name="three.sub" horiz-adv-x="285" 
d="M119 129v24h23q28 0 45 17.5t17 45.5t-17 45t-45 17t-45 -17t-17 -45h-29q0 38 25.5 62.5t65.5 24.5t65 -24.5t25 -62.5q0 -53 -45 -75q62 -22 62 -91q0 -46 -29.5 -74.5t-77.5 -28.5t-77.5 28.5t-29.5 74.5h28q0 -35 22 -56.5t57 -21.5t57 21.5t22 56.5t-22 57t-57 22
h-23z" />
    <glyph glyph-name="four.sub" horiz-adv-x="290" 
d="M192 -50v70h-160v15l158 265h29v-256h33v-24h-32v-70h-28zM66 44h128v213z" />
    <glyph glyph-name="five.sub" horiz-adv-x="277" 
d="M241 56q0 -49 -28.5 -79t-74.5 -30q-47 0 -76 28t-29 73h28q0 -34 21.5 -55t55.5 -21q33 0 54 23.5t21 60.5q0 40 -23.5 65.5t-61.5 25.5q-39 0 -63 -22l-20 9l23 166h147v-24h-123l-17 -117q22 13 55 13q50 0 80.5 -32t30.5 -84z" />
    <glyph glyph-name="six.sub" horiz-adv-x="286" 
d="M159 303l23 -13q-46 -69 -86 -138q22 12 47 12q48 0 78 -30t30 -79q0 -48 -29.5 -78t-78.5 -30t-78.5 30t-29.5 80q0 39 17.5 74t80.5 132zM63 55q0 -37 22.5 -60t57.5 -23t57.5 23t22.5 60q0 38 -22.5 61.5t-57.5 23.5t-57.5 -23.5t-22.5 -61.5z" />
    <glyph glyph-name="seven.sub" horiz-adv-x="278" 
d="M37 276v24h205v-12l-130 -338h-30l125 326h-170z" />
    <glyph glyph-name="eight.sub" horiz-adv-x="287" 
d="M53 216q0 38 25 62.5t65 24.5t65.5 -24.5t25.5 -62.5q0 -54 -46 -75q62 -21 62 -91q0 -46 -29.5 -74.5t-77.5 -28.5t-77.5 28.5t-29.5 74.5q0 70 63 91q-46 21 -46 75zM64 50q0 -34 22 -56t57 -22q36 0 57.5 21.5t21.5 56.5t-21.5 56.5t-57.5 21.5q-35 0 -57 -21.5
t-22 -56.5zM82 216q0 -28 17 -45.5t44 -17.5q28 0 45.5 17.5t17.5 45.5t-17.5 45t-45.5 17q-27 0 -44 -17t-17 -45z" />
    <glyph glyph-name="nine.sub" horiz-adv-x="286" 
d="M127 -53l-23 13q46 69 86 138q-21 -12 -47 -12q-49 0 -78.5 30t-29.5 79q0 48 29.5 78t78.5 30q48 0 78 -30t30 -80q0 -9 -1 -17.5t-2 -16t-5 -17.5l-7 -17t-10.5 -20t-12 -21.5t-16 -26.5l-19 -30l-24 -37.5zM223 195q0 37 -22.5 60t-57.5 23t-57.5 -23t-22.5 -60
q0 -38 22.5 -61.5t57.5 -23.5t57.5 23.5t22.5 61.5z" />
    <glyph glyph-name="comma.sub" horiz-adv-x="127" 
d="M51 -98l-11 11q20 22 21 34q-18 2 -18 20q0 9 6.5 14.5t15.5 5.5q19 0 19 -24q0 -28 -33 -61z" />
    <glyph glyph-name="period.sub" horiz-adv-x="127" 
d="M43 -33q0 9 6 14.5t15 5.5q20 0 20 -20q0 -8 -5.5 -14t-14.5 -6q-8 0 -14.5 6t-6.5 14z" />
    <glyph glyph-name="parenleft.sub" horiz-adv-x="169" 
d="M131 328v-22q-25 0 -42.5 -51.5t-17.5 -129.5q0 -79 17.5 -130.5t42.5 -51.5v-21q-37 0 -62.5 57t-25.5 146t25.5 146t62.5 57z" />
    <glyph glyph-name="parenright.sub" horiz-adv-x="169" 
d="M38 306v22q38 0 63 -56.5t25 -146.5t-25 -146.5t-63 -56.5v22q25 0 42.5 51t17.5 130t-17.5 130t-42.5 51z" />
    <glyph glyph-name="hyphen.sub" horiz-adv-x="189" 
d="M43 113v24h103v-24h-103z" />
    <glyph glyph-name="zero.sup" horiz-adv-x="303" 
d="M37 525q0 80 31.5 129t83.5 49q51 0 83 -49.5t32 -128.5t-32 -128.5t-83 -49.5q-52 0 -83.5 49t-31.5 129zM65 525q0 -68 24 -110.5t63 -42.5q38 0 62 42.5t24 110.5t-24 110.5t-62 42.5q-39 0 -63 -42.5t-24 -110.5z" />
    <glyph glyph-name="one.sup" horiz-adv-x="172" 
d="M27 664v23l82 15v-352h-27v325z" />
    <glyph glyph-name="two.sup" horiz-adv-x="277" 
d="M38 376l153 153q22 22 22 65q0 37 -21 60.5t-54 23.5q-34 0 -55.5 -23t-21.5 -61h-28q0 49 29 79t76 30q46 0 74.5 -30t28.5 -79q0 -52 -31 -83l-136 -137h167v-24h-203v26z" />
    <glyph glyph-name="three.sup" horiz-adv-x="285" 
d="M119 529v24h23q28 0 45 17.5t17 45.5t-17 45t-45 17t-45 -17t-17 -45h-29q0 38 25.5 62.5t65.5 24.5t65 -24.5t25 -62.5q0 -53 -45 -75q62 -22 62 -91q0 -46 -29.5 -74.5t-77.5 -28.5t-77.5 28.5t-29.5 74.5h28q0 -35 22 -56.5t57 -21.5t57 21.5t22 56.5t-22 57t-57 22
h-23z" />
    <glyph glyph-name="four.sup" horiz-adv-x="290" 
d="M192 350v70h-160v15l158 265h29v-256h33v-24h-32v-70h-28zM66 444h128v213z" />
    <glyph glyph-name="five.sup" horiz-adv-x="277" 
d="M241 456q0 -49 -28.5 -79t-74.5 -30q-47 0 -76 28t-29 73h28q0 -34 21.5 -55t55.5 -21q33 0 54 23.5t21 60.5q0 40 -23.5 65.5t-61.5 25.5q-39 0 -63 -22l-20 9l23 166h147v-24h-123l-17 -117q22 13 55 13q50 0 80.5 -32t30.5 -84z" />
    <glyph glyph-name="six.sup" horiz-adv-x="286" 
d="M159 703l23 -13q-46 -69 -86 -138q22 12 47 12q48 0 78 -30t30 -79q0 -48 -29.5 -78t-78.5 -30t-78.5 30t-29.5 80q0 39 17.5 74t80.5 132zM63 455q0 -37 22.5 -60t57.5 -23t57.5 23t22.5 60q0 38 -22.5 61.5t-57.5 23.5t-57.5 -23.5t-22.5 -61.5z" />
    <glyph glyph-name="seven.sup" horiz-adv-x="278" 
d="M37 676v24h205v-12l-130 -338h-30l125 326h-170z" />
    <glyph glyph-name="eight.sup" horiz-adv-x="287" 
d="M53 616q0 38 25 62.5t65 24.5t65.5 -24.5t25.5 -62.5q0 -54 -46 -75q62 -21 62 -91q0 -46 -29.5 -74.5t-77.5 -28.5t-77.5 28.5t-29.5 74.5q0 70 63 91q-46 21 -46 75zM64 450q0 -34 22 -56t57 -22q36 0 57.5 21.5t21.5 56.5t-21.5 56.5t-57.5 21.5q-35 0 -57 -21.5
t-22 -56.5zM82 616q0 -28 17 -45.5t44 -17.5q28 0 45.5 17.5t17.5 45.5t-17.5 45t-45.5 17q-27 0 -44 -17t-17 -45z" />
    <glyph glyph-name="nine.sup" horiz-adv-x="286" 
d="M127 347l-23 13q46 69 86 138q-21 -12 -47 -12q-49 0 -78.5 30t-29.5 79q0 48 29.5 78t78.5 30q48 0 78 -30t30 -80q0 -9 -1 -17.5t-2 -16t-5 -17.5l-7 -17t-10.5 -20t-12 -21.5t-16 -26.5l-19 -30l-24 -37.5zM223 595q0 37 -22.5 60t-57.5 23t-57.5 -23t-22.5 -60
q0 -38 22.5 -61.5t57.5 -23.5t57.5 23.5t22.5 61.5z" />
    <glyph glyph-name="comma.sup" horiz-adv-x="127" 
d="M51 302l-11 11q20 22 21 34q-18 2 -18 20q0 9 6.5 14.5t15.5 5.5q19 0 19 -24q0 -28 -33 -61z" />
    <glyph glyph-name="period.sup" horiz-adv-x="127" 
d="M43 367q0 9 6 14.5t15 5.5q20 0 20 -20q0 -8 -5.5 -14t-14.5 -6q-8 0 -14.5 6t-6.5 14z" />
    <glyph glyph-name="parenleft.sup" horiz-adv-x="169" 
d="M131 728v-22q-25 0 -42.5 -51.5t-17.5 -129.5q0 -79 17.5 -130.5t42.5 -51.5v-21q-37 0 -62.5 57t-25.5 146t25.5 146t62.5 57z" />
    <glyph glyph-name="parenright.sup" horiz-adv-x="169" 
d="M38 706v22q38 0 63 -56.5t25 -146.5t-25 -146.5t-63 -56.5v22q25 0 42.5 51t17.5 130t-17.5 130t-42.5 51z" />
    <glyph glyph-name="hyphen.sup" horiz-adv-x="189" 
d="M43 513v24h103v-24h-103z" />
    <glyph glyph-name="Ugrave.smcp" horiz-adv-x="534" 
d="M421 182v322h36v-322q0 -83 -52.5 -135t-137.5 -52q-86 0 -138.5 51.5t-52.5 135.5v322h36v-322q0 -69 42.5 -111t111.5 -42t112 42t43 111zM218 638l87 -84l-20 -19l-86 83z" />
    <glyph glyph-name="Udieresis.smcp" horiz-adv-x="534" 
d="M421 182v322h36v-322q0 -83 -52.5 -135t-137.5 -52q-86 0 -138.5 51.5t-52.5 135.5v322h36v-322q0 -69 42.5 -111t111.5 -42t112 42t43 111zM171 574q0 11 8 18.5t19 7.5t19 -7.5t8 -18.5q0 -12 -8 -19.5t-19 -7.5t-19 7.5t-8 19.5zM308 574q0 11 8 18.5t20 7.5
q11 0 19 -7.5t8 -18.5q0 -12 -8 -19.5t-19 -7.5q-12 0 -20 7.5t-8 19.5z" />
    <glyph glyph-name="Ucircumflex.smcp" horiz-adv-x="534" 
d="M421 182v322h36v-322q0 -83 -52.5 -135t-137.5 -52q-86 0 -138.5 51.5t-52.5 135.5v322h36v-322q0 -69 42.5 -111t111.5 -42t112 42t43 111zM267 638l87 -84l-20 -19l-67 64l-67 -64l-20 19z" />
    <glyph glyph-name="a.ord" horiz-adv-x="257" 
d="M226 471v-19q-6 -2 -13 -2q-28 0 -37 25q-31 -26 -72 -26q-35 0 -52.5 19.5t-17.5 45.5q0 37 33.5 58.5t87.5 21.5q11 0 19 -2v36q0 20 -14 35.5t-41 15.5q-38 0 -57 -21l-16 16q29 29 75 29q39 0 60 -22t21 -53v-135q0 -22 24 -22zM111 473q38 0 63 26v72q-4 1 -18 1
q-41 0 -67.5 -15t-26.5 -40q0 -17 11.5 -30.5t37.5 -13.5z" />
    <glyph glyph-name="b.ord" horiz-adv-x="307" 
d="M149 449q-65 0 -98 36v380h28v-184q30 22 73 22q55 0 88.5 -35.5t33.5 -91.5q0 -57 -34 -92t-91 -35zM246 576q0 45 -27 73t-71 28q-42 0 -69 -27v-160q7 0 31 -7.5t40 -7.5q43 0 69.5 27.5t26.5 73.5z" />
    <glyph glyph-name="c.ord" horiz-adv-x="276" 
d="M61 576q0 -46 27 -73.5t71 -27.5q46 0 72 28l18 -18q-34 -36 -91 -36q-56 0 -91 35t-35 92q0 56 35 91.5t91 35.5t91 -37l-18 -18q-26 29 -72 29q-44 0 -71 -28t-27 -73z" />
    <glyph glyph-name="d.ord" horiz-adv-x="309" 
d="M258 452h-28v22q-31 -25 -77 -25q-54 0 -87.5 35t-33.5 92q0 56 35 91.5t90 35.5q42 0 73 -22v184h28v-413zM61 576q0 -46 27 -73.5t71 -27.5q45 0 71 27v148q-27 27 -71 27t-71 -28t-27 -73z" />
    <glyph glyph-name="e.ord" horiz-adv-x="291" 
d="M260 569h-198q2 -42 28.5 -68t69.5 -26q47 0 73 28l17 -18q-34 -36 -91 -36t-92 35.5t-35 92.5q0 56 32.5 91t84.5 35t81.5 -36t29.5 -98zM149 678q-36 0 -59.5 -23.5t-27.5 -63.5h170q-4 40 -25.5 63.5t-57.5 23.5z" />
    <glyph glyph-name="egrave.ord" horiz-adv-x="291" 
d="M260 569h-198q2 -42 28.5 -68t69.5 -26q47 0 73 28l17 -18q-34 -36 -91 -36t-92 35.5t-35 92.5q0 56 32.5 91t84.5 35t81.5 -36t29.5 -98zM149 678q-36 0 -59.5 -23.5t-27.5 -63.5h170q-4 40 -25.5 63.5t-57.5 23.5zM113 817l65 -64l-15 -16l-65 65z" />
    <glyph glyph-name="f.ord" horiz-adv-x="184" 
d="M24 676v24h35v90q0 35 21 56.5t56 21.5q17 0 29 -6v-25q-11 6 -25 6q-23 0 -37 -14.5t-14 -38.5v-90h76v-24h-76v-224h-30v224h-35z" />
    <glyph glyph-name="g.ord" horiz-adv-x="285" 
d="M20 385q0 52 59 69q-34 15 -34 42q0 29 38 43q-46 18 -46 75q0 40 25.5 64.5t67.5 24.5q40 0 64 -21q18 21 41 21q3 0 7.5 -0.5t6.5 -0.5v-24q-3 1 -11 1q-17 0 -30 -13q15 -23 15 -51q0 -39 -25.5 -63t-68.5 -24q-26 0 -41.5 -9t-15.5 -23q0 -13 18.5 -21.5t48.5 -8.5
q51 0 81.5 -20t30.5 -54q0 -36 -34.5 -58.5t-88.5 -22.5q-49 0 -78.5 20.5t-29.5 53.5zM49 385q0 -23 21.5 -37t57.5 -14q40 0 67 16.5t27 41.5q0 23 -23 37t-60 14q-41 0 -65.5 -16t-24.5 -42zM65 615q0 -29 18 -46.5t48 -17.5q29 0 47 17.5t18 46.5t-18 46.5t-47 17.5
q-30 0 -48 -17.5t-18 -46.5z" />
    <glyph glyph-name="h.ord" horiz-adv-x="300" 
d="M51 865h28v-188q33 26 76 26q42 0 67.5 -27.5t25.5 -71.5v-152h-28v152q0 32 -20 52.5t-51 20.5q-44 0 -70 -28v-197h-28v413z" />
    <glyph glyph-name="i.ord" horiz-adv-x="129" 
d="M51 452v248h28v-248h-28zM43 774q0 9 6.5 15.5t15.5 6.5t15 -6.5t6 -15.5t-6 -15.5t-15 -6.5t-15.5 6.5t-6.5 15.5z" />
    <glyph glyph-name="j.ord" horiz-adv-x="129" 
d="M42 774q0 9 6.5 15.5t15.5 6.5t15.5 -6.5t6.5 -15.5t-6.5 -15.5t-15.5 -6.5t-15.5 6.5t-6.5 15.5zM17 315v18q33 0 33 32v335h28v-336q0 -24 -13 -37.5t-33 -13.5q-13 0 -15 2z" />
    <glyph glyph-name="k.ord" horiz-adv-x="261" 
d="M79 452h-28v413h28v-413zM201 452l-121 131l108 117h35l-109 -117l121 -131h-34z" />
    <glyph glyph-name="l.ord" horiz-adv-x="144" 
d="M113 471v-19q-6 -2 -16 -2q-20 0 -33 13.5t-13 38.5v363h28v-362q0 -32 34 -32z" />
    <glyph glyph-name="m.ord" horiz-adv-x="430" 
d="M352 452v170q0 25 -14.5 40t-37.5 15q-45 0 -74 -29q3 -12 3 -26v-170h-28v170q0 25 -14.5 40t-37.5 15q-44 0 -70 -28v-197h-28v248h28v-23q33 26 76 26t62 -34q34 34 88 34q34 0 54.5 -22.5t20.5 -58.5v-170h-28z" />
    <glyph glyph-name="n.ord" horiz-adv-x="299" 
d="M51 700h28v-23q33 26 76 26q42 0 67.5 -27.5t25.5 -71.5v-152h-28v152q0 32 -20 52.5t-51 20.5q-44 0 -70 -28v-197h-28v248z" />
    <glyph glyph-name="p.ord" horiz-adv-x="309" 
d="M51 700h28v-23q33 26 76 26q54 0 87.5 -35.5t33.5 -91.5q0 -57 -34 -92t-90 -35q-42 0 -73 20v-154h-28v385zM247 576q0 45 -27 73t-71 28t-70 -28v-148q26 -26 70 -26t71 27.5t27 73.5z" />
    <glyph glyph-name="q.ord" horiz-adv-x="307" 
d="M257 666h-1v-351h-28v156q-28 -22 -73 -22q-55 0 -89 35t-34 92t34.5 92t91.5 35q64 0 99 -37zM61 576q0 -46 27 -73.5t71 -27.5t69 25v160q-7 0 -31 8.5t-39 8.5q-44 0 -70.5 -28t-26.5 -73z" />
    <glyph glyph-name="r.ord" horiz-adv-x="199" 
d="M150 702q11 0 16 -1v-25q-10 2 -18 2q-43 0 -69 -36v-190h-28v248h28v-32q29 34 71 34z" />
    </font>
</defs>
</svg>
