<svg xmlns="http://www.w3.org/2000/svg" viewBox="0 0 188.62 156.96"><defs><style>.cls-1{fill:#e63f16;}</style></defs><title>ithink-logo</title><g id="Layer_2" data-name="Layer 2"><g id="Layer_1-2" data-name="Layer 1"><path class="cls-1" d="M86.61,157,56.66,154.3l-.34-2.81c-.51-4.16-.91-8.84-1.2-13.93a63.19,63.19,0,0,1-11.77-6.14c-4.34,2.67-8.4,5-12.11,7l-2.5,1.33L9.43,116.66l1.75-2.23c2.58-3.3,5.61-6.89,9-10.69a63.18,63.18,0,0,1-4-12.67c-5-1.18-9.5-2.4-13.5-3.63L0,86.61,2.66,56.66l2.81-.34c4.16-.51,8.84-.91,13.93-1.2a63.19,63.19,0,0,1,6.14-11.77c-2.68-4.34-5-8.41-7-12.11l-1.33-2.5L40.3,9.43l2.23,1.75c3.31,2.59,6.9,5.61,10.69,9a63.23,63.23,0,0,1,12.67-4c1.18-5,2.4-9.49,3.63-13.5L70.36,0l30,2.66.34,2.81c.51,4.17.91,8.84,1.2,13.93a63.24,63.24,0,0,1,11.77,6.14c4.34-2.67,8.4-5,12.11-7l2.5-1.33,19.3,23.06-1.75,2.23c-3,3.8-6.52,8-10.55,12.41L130,50.24c3.14-3.46,6-6.75,8.46-9.81l-12-14.33c-3.45,1.9-7.19,4.11-11.15,6.6l-2,1.25-1.91-1.37a56.21,56.21,0,0,0-14.16-7.39l-2.22-.78L95,22c-.23-4.67-.55-9-1-12.92L75.41,7.48c-1.09,3.78-2.17,8-3.22,12.55l-.53,2.29-2.32.38A56.22,56.22,0,0,0,54.1,27.48l-2.12,1-1.74-1.58c-3.46-3.14-6.75-6-9.81-8.46l-14.33,12c1.9,3.44,4.11,7.18,6.6,11.15l1.25,2L32.57,45.5a56.17,56.17,0,0,0-7.39,14.16l-.78,2.22L22,62c-4.68.23-9,.55-12.92,1L7.48,81.56c3.78,1.09,8,2.17,12.55,3.22l2.29.53.38,2.32a56.21,56.21,0,0,0,4.78,15.24l1,2.12-1.58,1.74c-3.14,3.46-6,6.75-8.46,9.81l12,14.33c3.45-1.9,7.19-4.12,11.15-6.6l2-1.25,1.91,1.38a56.21,56.21,0,0,0,14.16,7.39l2.22.78.11,2.35c.23,4.67.55,9,1,12.92l18.61,1.65c1.09-3.78,2.17-8,3.22-12.55l.53-2.29,2.32-.38a56.18,56.18,0,0,0,15.26-4.79l2.12-1,1.74,1.58c3.42,3.1,6.7,5.94,9.8,8.46l14.31-12c-1.94-3.49-4.15-7.22-6.6-11.13l5.93-3.72c3.13,5,5.89,9.72,8.2,14l1.34,2.51-23.08,19.32-2.23-1.77c-3.34-2.64-6.92-5.66-10.66-9a63.18,63.18,0,0,1-12.69,4c-1.18,5-2.4,9.5-3.63,13.5Z"/><path d="M57,65.19a2.26,2.26,0,1,1-2.26,2.26A2.24,2.24,0,0,1,57,65.19Zm-1.49,9.71h3V99.72h-3Z"/><path d="M81.4,99.72H75.11V66.29H64.8V61.1H91.72v5.19H81.4Z"/><path d="M102.85,58.35V76.71a10.37,10.37,0,0,1,6.73-2.32c5.68,0,9.27,4.25,9.27,10.54V99.72h-6.07V84.93c0-3-1.93-5.13-4.8-5.13a6.75,6.75,0,0,0-5.13,2V99.72H96.79V58.35Z"/><path d="M128.33,63.81a3.64,3.64,0,1,1-3.64,3.64A3.6,3.6,0,0,1,128.33,63.81Zm-3,11.09h6.07V99.72H125.3Z"/><path d="M143.83,74.89v1.82a10.37,10.37,0,0,1,6.73-2.32c5.68,0,9.27,4.25,9.27,10.54V99.72h-6.07V84.93c0-3-1.93-5.13-4.8-5.13a6.75,6.75,0,0,0-5.13,2V99.72h-6.07V74.89Z"/><path d="M166.22,99.72V58.35h6.07V85l8.11-10.15h7.17l-9.49,11.58,10.54,13.24H181.5L172.29,88V99.72Z"/></g></g></svg>