<?xml version="1.0" encoding="utf-8"?>
<!-- Generator: Adobe Illustrator 16.0.0, SVG Export Plug-In . SVG Version: 6.00 Build 0)  -->
<!DOCTYPE svg PUBLIC "-//W3C//DTD SVG 1.1//EN" "http://www.w3.org/Graphics/SVG/1.1/DTD/svg11.dtd">
<svg version="1.1" id="Layer_1" xmlns="http://www.w3.org/2000/svg" xmlns:xlink="http://www.w3.org/1999/xlink" x="0px" y="0px"
	 width="595.279px" height="459.185px" viewBox="0 191.353 595.279 459.185" enable-background="new 0 191.353 595.279 459.185"
	 xml:space="preserve">
<title>Java-logo</title>
<g id="Layer_2">
	<g id="Content">
		<g>
			<path fill="#A01C0C" d="M183.608,650.537c-34.931,0-62.288-18.305-62.288-41.664c0-0.729,0.029-1.456,0.089-2.185
				c-6.137-6.589-9.604-15.224-9.729-24.228c0-3.603,0.583-7.183,1.726-10.6c-7.895-7.246-12.882-17.117-14.033-27.771
				C38.177,511.324-0.015,447.534,0,378.119c0-102.982,82.365-186.767,183.607-186.767c101.243,0,183.607,83.784,183.607,186.767
				h-19.329c0-92.147-73.703-167.085-164.278-167.085S19.344,285.972,19.344,378.119c-0.036,64.118,36.384,122.681,93.907,151.003
				l6.207,2.999l-0.739,6.95c-0.075,0.637-0.115,1.276-0.121,1.918c0,9.017,6.791,16.031,12.489,20.329l7.203,5.438l-4.788,7.715
				c-1.558,2.376-2.413,5.143-2.469,7.982c0.435,5.324,3.054,10.231,7.235,13.557l4.585,4.144l-1.732,5.986
				c-0.275,0.884-0.425,1.801-0.444,2.726c0,10.379,18.365,21.986,42.945,21.986L183.608,650.537z"/>
		</g>
		<polygon fill="#FFFFFF" points="146.329,491.77 137.639,491.77 137.639,390.818 106.084,390.818 106.084,383.22 177.884,383.22 
			177.884,390.818 146.329,390.818 		"/>
		<g>
			<path fill="#FFFFFF" d="M205.007,375.465v52.724c5.873-4.827,13.27-7.41,20.87-7.289c15.552,0,25.764,11.476,25.764,28.226
				v42.644h-8.366v-42.644c0-12.094-7.775-20.317-19.059-20.317c-7.141-0.186-14.058,2.496-19.209,7.444v55.517h-8.384V375.451
				L205.007,375.465z"/>
			<path fill="#FFFFFF" d="M276.797,421.985h8.384v69.78h-8.384V421.985z M280.912,394.695c3.511-0.059,6.404,2.739,6.463,6.249
				s-2.739,6.403-6.249,6.462c-3.51,0.06-6.403-2.738-6.463-6.249c0-0.035,0-0.07,0-0.105c-0.067-3.443,2.67-6.289,6.113-6.355
				C280.822,394.695,280.867,394.695,280.912,394.695"/>
			<path fill="#FFFFFF" d="M318.102,421.989v6.2c5.879-4.832,13.283-7.415,20.892-7.289c15.552,0,25.768,11.476,25.768,28.226
				v42.644h-8.384v-42.644c0-12.094-7.776-20.317-19.06-20.317c-7.141-0.186-14.058,2.496-19.208,7.444v55.517h-8.392v-69.78
				H318.102z"/>
		</g>
		<path fill="#FFFFFF" d="M397.824,454.707l29.724-32.725h10.216l-29.88,32.725l33.387,37.063h-10.22L397.824,454.707z
			 M389.441,375.465h8.384v116.318h-8.384V375.465z"/>
		<g>
			<path fill="#FFFFFF" d="M262.38,532.48h20.582v77.545c0.8,17.187-12.484,31.769-29.672,32.568
				c-0.983,0.046-1.968,0.045-2.951-0.003c-8.747,0.194-17.225-3.032-23.63-8.992l13.108-13.336
				c2.568,2.485,6.032,3.827,9.604,3.721c7.126,0.056,12.946-5.676,13.002-12.801c0.003-0.385-0.012-0.77-0.043-1.153V532.48z"/>
		</g>
		<path fill="#FFFFFF" d="M326.244,599.151h31.857l-15.851-39.388L326.244,599.151z M365.422,617.759h-46.495l-9.757,23.26h-23.936
			l47.409-108.538h19.208l47.41,108.545h-23.933L365.422,617.759z"/>
		<polygon fill="#FFFFFF" points="449.865,641.019 430.656,641.019 383.247,532.474 407.635,532.474 440.257,613.263 
			472.883,532.474 497.275,532.474 		"/>
		<path fill="#FFFFFF" d="M538.267,559.764l15.854,39.388h-31.86L538.267,559.764z M528.662,532.47l-47.409,108.549h23.936
			l9.757-23.26h46.496l9.906,23.26h23.936L547.87,532.48L528.662,532.47z"/>
	</g>
</g>
</svg>
