<?xml version="1.0" encoding="utf-8"?>
<!-- Generator: Adobe Illustrator 16.0.0, SVG Export Plug-In . SVG Version: 6.00 Build 0)  -->
<!DOCTYPE svg PUBLIC "-//W3C//DTD SVG 1.1//EN" "http://www.w3.org/Graphics/SVG/1.1/DTD/svg11.dtd">
<svg version="1.1" id="Layer_1" xmlns="http://www.w3.org/2000/svg" xmlns:xlink="http://www.w3.org/1999/xlink" x="0px" y="0px"
	 width="249.393px" height="179.515px" viewBox="0 0 249.393 179.515" enable-background="new 0 0 249.393 179.515"
	 xml:space="preserve">
<g>
	<defs>
		<rect id="SVGID_1_" width="249.393" height="179.515"/>
	</defs>
	<clipPath id="SVGID_2_">
		<use xlink:href="#SVGID_1_"  overflow="visible"/>
	</clipPath>
	<path clip-path="url(#SVGID_2_)" fill="#00AEEF" d="M185.36,58.732C178.605,28.965,152.545,7.7,121.986,7.016
		C94.527,6.395,69.133,23.098,58.83,48.563l-6.489-2.625c11.388-28.144,39.413-46.589,69.802-45.92
		c33.774,0.755,62.577,24.262,70.044,57.165L185.36,58.732z"/>
	<path clip-path="url(#SVGID_2_)" fill="#00AEEF" d="M28.692,163.974l-3.425-17.788C9.416,135.841,0,118.513,0,99.523
		c0-30.724,24.995-55.719,55.718-55.719c11.166,0,21.941,3.291,31.156,9.518l-3.918,5.8c-8.055-5.442-17.473-8.318-27.238-8.318
		C28.855,50.804,7,72.66,7,99.523c0,17.06,8.692,32.587,23.252,41.535l1.312,0.807l2.325,12.074l13.98-6.327l1.006,0.142
		c2.304,0.325,4.607,0.488,6.843,0.488c12.568,0,24.499-4.771,33.596-13.435l1.763-1.679l3,1.427
		c4.806,2.081,9.854,3.587,15.019,4.479l-1.191,6.898c-5.313-0.918-10.512-2.422-15.489-4.479
		c-10.164,8.908-23.106,13.788-36.698,13.788c-2.229,0-4.51-0.142-6.797-0.422L28.692,163.974z"/>
	<g clip-path="url(#SVGID_2_)">
		<path d="M82.282,74.904h4.799v17.927h0.166c0.993-1.434,1.986-2.758,2.923-3.972l11.363-13.956h5.957L94.031,90.68l14.507,21.402
			h-5.682L90.611,93.825l-3.53,4.082v14.176h-4.799V74.904z"/>
		<path d="M112.009,72.918h4.854v16.659h0.11c0.772-1.379,1.986-2.593,3.475-3.42c1.434-0.828,3.144-1.379,4.964-1.379
			c3.586,0,9.322,2.207,9.322,11.419v15.886h-4.854V96.748c0-4.302-1.6-7.943-6.178-7.943c-3.144,0-5.626,2.207-6.509,4.854
			c-0.276,0.662-0.331,1.379-0.331,2.317v16.106h-4.854V72.918z"/>
		<path d="M157.402,112.083l-0.386-3.365h-0.166c-1.489,2.097-4.357,3.972-8.163,3.972c-5.406,0-8.164-3.806-8.164-7.667
			c0-6.454,5.736-9.984,16.052-9.929v-0.552c0-2.206-0.606-6.178-6.067-6.178c-2.482,0-5.075,0.772-6.95,1.986l-1.104-3.199
			c2.206-1.434,5.405-2.372,8.771-2.372c8.164,0,10.149,5.571,10.149,10.922v9.984c0,2.316,0.11,4.578,0.441,6.398H157.402z
			 M156.686,98.458c-5.296-0.11-11.308,0.828-11.308,6.013c0,3.145,2.096,4.634,4.578,4.634c3.475,0,5.682-2.207,6.453-4.468
			c0.166-0.497,0.276-1.049,0.276-1.545V98.458z"/>
		<path d="M169.202,93.714c0-3.145-0.055-5.847-0.221-8.33h4.248l0.165,5.24h0.221c1.214-3.585,4.137-5.847,7.392-5.847
			c0.552,0,0.938,0.055,1.379,0.166v4.579c-0.496-0.11-0.993-0.166-1.654-0.166c-3.42,0-5.848,2.592-6.51,6.233
			c-0.11,0.662-0.22,1.435-0.22,2.262v14.231h-4.8V93.714z"/>
		<path d="M192.037,97.63h0.109c0.662-0.938,1.601-2.096,2.372-3.034l7.833-9.211h5.847l-10.314,10.977l11.749,15.721h-5.902
			l-9.212-12.797l-2.481,2.758v10.039h-4.8V72.918h4.8V97.63z"/>
		<path d="M218.511,77.883c0.055,1.655-1.158,2.979-3.089,2.979c-1.71,0-2.924-1.324-2.924-2.979c0-1.71,1.269-3.034,3.034-3.034
			C217.353,74.849,218.511,76.173,218.511,77.883z M213.104,112.083V85.385h4.854v26.698H213.104z"/>
		<path d="M227.886,85.385l5.24,15.003c0.883,2.428,1.6,4.634,2.151,6.84h0.165c0.607-2.206,1.379-4.412,2.262-6.84l5.186-15.003
			h5.074l-10.48,26.698h-4.634L222.7,85.385H227.886z"/>
	</g>
	<g clip-path="url(#SVGID_2_)">
		<text transform="matrix(1 0 0 1 122.4883 165.1958)" font-family="'ProbaPro-Bold'" font-size="55.1536">WP</text>
	</g>
</g>
</svg>
