<svg xmlns="http://www.w3.org/2000/svg" width="208.945mm" height="83.608mm" viewBox="0 0 592.286 236.999"><defs><style>.a{fill:#e4003a;}.b{fill:#009fe3;}</style></defs><title>nix-logo</title><path class="a" d="M7.773,63.652h24.6V80.271H32.8Q36.251,72.5,44.782,66.564a34.408,34.408,0,0,1,20.177-5.934q10.139,0,17.37,3.561A34.259,34.259,0,0,1,94.2,73.577a37.883,37.883,0,0,1,6.792,13.384,56.121,56.121,0,0,1,2.167,15.535v64.741h-25.9v-57.4a72.074,72.074,0,0,0-.648-9.5,25.6,25.6,0,0,0-2.8-8.954A18.6,18.6,0,0,0,67.872,84.8q-3.78-2.59-10.033-2.59a22.143,22.143,0,0,0-10.79,2.483A22.9,22.9,0,0,0,39.6,91.059a28.177,28.177,0,0,0-4.422,8.954,35.579,35.579,0,0,0-1.513,10.251v56.972H7.773V63.652Z" transform="translate(-7.773 -16.168)"/><polygon class="b" points="278.784 123.564 278.784 154.12 231.089 114.631 183.398 154.12 183.398 123.564 231.089 84.075 278.784 123.564"/><circle class="a" cx="231.089" cy="114.631" r="0.001"/><polygon class="a" points="231.089 84.075 249.543 99.354 278.784 75.145 278.784 44.588 231.089 84.075"/><polygon class="a" points="183.398 75.145 212.637 99.354 231.089 84.075 183.398 44.588 183.398 75.145"/><rect class="a" x="126.444" y="47.484" width="25.896" height="103.584"/><path class="b" d="M213.452,210.348A15.789,15.789,0,0,0,202.6,205.8c-6.6,0-9.091,4.84-9.091,8.652,0,12.024,24.928,7.844,24.928,24.049,0,7.4-5.059,14.662-15.763,14.662a21.789,21.789,0,0,1-16.056-6.746l3.445-3.443a16.654,16.654,0,0,0,12.1,5.2c7.624,0,10.557-5.57,10.557-9.529,0-11.658-24.855-7.26-24.855-24.049,0-7.039,4.4-13.783,14.224-13.783a20.772,20.772,0,0,1,14.81,6.012Z" transform="translate(-7.773 -16.168)"/><path class="b" d="M254.951,248.182c11.951,0,20.089-8.58,20.089-21.189S266.9,205.8,254.951,205.8s-20.162,8.578-20.162,21.19,8.211,21.189,20.162,21.189m0-47.365c15.323,0,25.808,10.631,25.808,26.176s-10.485,26.174-25.808,26.174c-15.4,0-25.881-10.631-25.881-26.174s10.484-26.176,25.881-26.176" transform="translate(-7.773 -16.168)"/><polygon class="b" points="292.123 231.866 312.212 231.866 312.212 236.485 286.624 236.485 286.624 185.165 292.123 185.165 292.123 231.866"/><path class="b" d="M363.756,201.33h5.5v32.627c0,11.512-7.773,19.209-19.137,19.209-11.437,0-19.063-7.7-19.063-19.209V201.33h5.5v32.627c0,8.5,5.5,14.225,13.491,14.225,8.138,0,13.711-5.721,13.711-14.225V201.33Z" transform="translate(-7.773 -16.168)"/><polygon class="b" points="394.621 236.487 389.123 236.487 389.123 189.782 374.386 189.782 374.386 185.163 409.357 185.163 409.357 189.782 394.621 189.782 394.621 236.487"/><rect class="b" x="422.042" y="185.163" width="5.573" height="51.322"/><path class="b" d="M474.684,248.182c11.951,0,20.09-8.58,20.09-21.189s-8.139-21.19-20.09-21.19-20.161,8.578-20.161,21.19,8.211,21.189,20.161,21.189m0-47.365c15.323,0,25.809,10.631,25.809,26.176s-10.485,26.174-25.809,26.174c-15.4,0-25.881-10.631-25.881-26.174s10.484-26.176,25.881-26.176" transform="translate(-7.773 -16.168)"/><polygon class="b" points="510.097 185.163 541.989 226.075 541.989 185.163 547.488 185.163 547.488 236.487 543.75 236.487 511.855 195.575 511.855 236.487 506.356 236.487 506.356 185.163 510.097 185.163"/><path class="b" d="M595.072,210.348a15.789,15.789,0,0,0-10.851-4.545c-6.6,0-9.092,4.84-9.092,8.652,0,12.024,24.929,7.844,24.929,24.049,0,7.4-5.06,14.662-15.764,14.662a21.788,21.788,0,0,1-16.056-6.746l3.445-3.443a16.654,16.654,0,0,0,12.1,5.2c7.624,0,10.557-5.57,10.557-9.529,0-11.658-24.854-7.26-24.854-24.049,0-7.039,4.4-13.783,14.224-13.783a20.773,20.773,0,0,1,14.811,6.012Z" transform="translate(-7.773 -16.168)"/><path class="a" d="M163.143,32.145a15.978,15.978,0,1,1-15.977-15.978,15.976,15.976,0,0,1,15.977,15.978" transform="translate(-7.773 -16.168)"/></svg>