<?xml version="1.0" encoding="utf-8"?>
<!-- Generator: Adobe Illustrator 16.0.0, SVG Export Plug-In . SVG Version: 6.00 Build 0)  -->
<!DOCTYPE svg PUBLIC "-//W3C//DTD SVG 1.1//EN" "http://www.w3.org/Graphics/SVG/1.1/DTD/svg11.dtd">
<svg version="1.1" id="Layer_1" xmlns="http://www.w3.org/2000/svg" xmlns:xlink="http://www.w3.org/1999/xlink" x="0px" y="0px"
	 width="211.183px" height="147.809px" viewBox="0 0 211.183 147.809" enable-background="new 0 0 211.183 147.809"
	 xml:space="preserve">
<g>
	<defs>
		<rect id="SVGID_1_" width="211.183" height="147.809"/>
	</defs>
	<clipPath id="SVGID_2_">
		<use xlink:href="#SVGID_1_"  overflow="visible"/>
	</clipPath>
	<path clip-path="url(#SVGID_2_)" fill="#A201BD" d="M133.939,44.303C121.203,18.474,93.451,3.732,64.902,7.617l-0.943-6.935
		c31.542-4.296,62.188,11.993,76.258,40.525L133.939,44.303z"/>
	<path clip-path="url(#SVGID_2_)" fill="#A201BD" d="M0.693,83.875C-3.45,53.432,11.235,24.138,38.104,9.246l3.393,6.123
		C17.172,28.85,3.879,55.37,7.629,82.932L0.693,83.875z"/>
	<path clip-path="url(#SVGID_2_)" fill="#A201BD" d="M74.02,147.809c-26.96,0-52.377-14.885-65.298-39.061l6.174-3.299
		c13.116,24.541,40.453,38.508,68.047,34.756l0.943,6.936C80.589,147.59,77.291,147.809,74.02,147.809"/>
	<path clip-path="url(#SVGID_2_)" fill="#A201BD" d="M104.864,49.793c-8.57-10.971-22.451-16.614-36.229-14.747L67.69,28.11
		c16.233-2.211,32.592,4.449,42.689,17.374L104.864,49.793z"/>
	<path clip-path="url(#SVGID_2_)" fill="#A201BD" d="M28.122,80.143c-2.378-17.476,5.594-35.061,20.308-44.801l3.863,5.838
		C39.805,49.446,33.04,64.37,35.058,79.2L28.122,80.143z"/>
	<path clip-path="url(#SVGID_2_)" fill="#A201BD" d="M73.865,120.139c-16.22,0-31.376-8.507-39.78-22.765l6.029-3.555
		c8.05,13.653,23.404,21.095,39.097,18.957l0.943,6.936C78.05,120,75.947,120.139,73.865,120.139"/>
	<path clip-path="url(#SVGID_2_)" d="M82.38,61.067c-1.875-2.096-5.351-3.53-8.494-3.53c-5.406,0-7.392,3.971-7.392,7.171
		c0,9.709,19.141,6.454,19.141,18.534c0,5.24-3.585,10.812-11.584,10.812c-4.523,0-8.771-1.82-11.583-4.854l1.985-1.987
		c2.262,2.594,6.068,3.973,9.323,3.973c6.343,0,8.604-4.634,8.604-7.888c0-9.433-19.141-6.013-19.141-18.535
		c0-5.019,3.089-10.094,10.426-10.094c3.972,0,8.054,1.544,10.756,4.358L82.38,61.067z"/>
	<polygon clip-path="url(#SVGID_2_)" points="97.271,107.458 93.906,107.458 100.801,93.667 89.438,68.846 92.858,68.846 
		102.291,90.027 111.723,68.846 115.087,68.846 	"/>
	<path clip-path="url(#SVGID_2_)" d="M124.351,68.845v2.206c1.985-1.654,4.634-2.593,7.558-2.593c5.626,0,9.322,4.082,9.322,10.041
		v15.169h-3.034V78.499c0-4.302-2.814-7.227-6.896-7.227c-2.869,0-5.24,0.993-6.95,2.647v19.748h-3.033V68.845H124.351z"/>
	<path clip-path="url(#SVGID_2_)" d="M161.139,91.24c2.923,0,5.405-1.048,7.062-2.813l1.93,1.931
		c-2.207,2.316-5.406,3.695-9.157,3.695c-7.501,0-12.575-5.185-12.575-12.797c0-7.613,5.074-12.797,12.575-12.797
		c3.751,0,6.95,1.38,9.157,3.751l-1.93,1.876c-1.656-1.766-4.139-2.814-7.062-2.814c-5.736,0-9.652,4.027-9.652,9.984
		C151.486,87.213,155.402,91.24,161.139,91.24"/>
	<path clip-path="url(#SVGID_2_)" d="M110.803,139.037c2.316,0,4.138,1.82,4.138,4.138c0,2.316-1.821,4.137-4.138,4.137
		c-2.315,0-4.137-1.82-4.137-4.137C106.666,140.857,108.487,139.037,110.803,139.037"/>
	<polygon clip-path="url(#SVGID_2_)" points="124.591,108.147 145.827,132.418 145.827,108.147 153.275,108.147 153.275,146.759 
		148.586,146.759 127.35,122.489 127.35,146.759 119.903,146.759 119.903,108.147 	"/>
	<polygon clip-path="url(#SVGID_2_)" points="166.231,124.419 178.367,124.419 178.367,130.487 166.231,130.487 166.231,140.692 
		180.297,140.692 180.297,146.759 158.785,146.759 158.785,108.148 180.021,108.148 180.021,114.214 166.231,114.214 	"/>
	<polygon clip-path="url(#SVGID_2_)" points="201.254,146.759 193.809,146.759 193.809,114.214 183.879,114.214 183.879,108.147 
		211.184,108.147 211.184,114.214 201.254,114.214 	"/>
</g>
</svg>
