<?xml version="1.0" encoding="utf-8"?>
<!-- Generator: Adobe Illustrator 16.0.0, SVG Export Plug-In . SVG Version: 6.00 Build 0)  -->
<!DOCTYPE svg PUBLIC "-//W3C//DTD SVG 1.1//EN" "http://www.w3.org/Graphics/SVG/1.1/DTD/svg11.dtd">
<svg version="1.1" id="Layer_1" xmlns="http://www.w3.org/2000/svg" xmlns:xlink="http://www.w3.org/1999/xlink" x="0px" y="0px"
	 width="187.9px" height="138.275px" viewBox="0 0 187.9 138.275" enable-background="new 0 0 187.9 138.275" xml:space="preserve">
<g>
	<defs>
		<rect id="SVGID_1_" width="187.9" height="138.275"/>
	</defs>
	<clipPath id="SVGID_2_">
		<use xlink:href="#SVGID_1_"  overflow="visible"/>
	</clipPath>
	<path clip-path="url(#SVGID_2_)" fill="#374789" d="M36.006,126.401c-15.804,0-28.661-12.856-28.661-28.66
		c0-4.859,1.212-9.566,3.527-13.774C3.93,76.661,0,66.905,0,56.77c0-21.759,17.702-39.461,39.46-39.461
		c1.393,0,2.803,0.077,4.216,0.23C51.506,6.514,64.044,0,77.652,0c9.889,0,15.358,3.255,21.235,8.029
		c20.321-9.85,44.462,0.461,54.904,16.977l-5.916,3.741c-11.269-17.821-33.766-21.362-47.709-13.49l-2.117,1.196l-1.859-1.568
		C89.592,9.325,85.558,7,77.652,7c-11.956,0-22.919,6.046-29.329,16.172l-1.24,1.959l-2.287-0.377
		c-1.787-0.295-3.582-0.445-5.336-0.445C21.562,24.309,7,38.871,7,56.77c0,9.144,3.889,17.912,10.671,24.059l2.276,2.063
		l-1.751,2.524c-2.519,3.633-3.851,7.895-3.851,12.324c0,11.943,9.717,21.66,21.661,21.66c10.83,0,17.642-3.302,20.825-10.093
		l2.586-5.517l3.463,5.013c4.326,6.261,10.128,9.652,17.246,10.078l-0.419,6.988c-7.55-0.453-14.145-3.556-19.323-9.041
		C55.393,123.186,47.219,126.401,36.006,126.401"/>
	<polygon clip-path="url(#SVGID_2_)" points="66.265,85.182 63.121,85.182 63.121,49.273 51.703,49.273 51.703,46.57 77.683,46.57 
		77.683,49.273 66.265,49.273 	"/>
	<path clip-path="url(#SVGID_2_)" d="M87.498,43.812v18.755c1.985-1.655,4.633-2.593,7.557-2.593c5.626,0,9.322,4.082,9.322,10.039
		v15.169h-3.034V70.013c0-4.303-2.813-7.225-6.895-7.225c-2.869,0-5.24,0.992-6.95,2.647v19.747h-3.034v-41.37H87.498z"/>
	<path clip-path="url(#SVGID_2_)" d="M114.964,50.652c1.269,0,2.261,0.993,2.261,2.262c0,1.268-0.992,2.261-2.261,2.261
		c-1.27,0-2.262-0.993-2.262-2.261C112.702,51.645,113.694,50.652,114.964,50.652 M113.474,60.36h3.034v24.822h-3.034V60.36z"/>
	<path clip-path="url(#SVGID_2_)" d="M128.421,60.36v2.207c1.985-1.655,4.633-2.593,7.557-2.593c5.626,0,9.322,4.082,9.322,10.039
		v15.169h-3.034V70.013c0-4.302-2.813-7.225-6.895-7.225c-2.869,0-5.24,0.992-6.95,2.647v19.747h-3.034V60.36H128.421z"/>
	<path clip-path="url(#SVGID_2_)" d="M154.231,43.812h3.034v41.37h-3.034V43.812z M157.266,71.999l10.756-11.639h3.696
		l-10.812,11.639l12.08,13.184h-3.696L157.266,71.999z"/>
	<path clip-path="url(#SVGID_2_)" d="M96.453,99.663h11.859c7.557,0,12.632,4.523,12.632,11.584s-5.075,11.583-12.632,11.583h-4.137
		v15.445h-7.723V99.663z M108.313,106.006h-4.137v10.479h4.137c2.924,0,4.909-2.096,4.909-5.239
		C113.222,108.102,111.236,106.006,108.313,106.006"/>
	<polygon clip-path="url(#SVGID_2_)" points="133.353,115.935 150.452,115.935 150.452,99.664 157.898,99.664 157.898,138.275 
		150.452,138.275 150.452,122.002 133.353,122.002 133.353,138.275 125.905,138.275 125.905,99.664 133.353,99.664 	"/>
	<path clip-path="url(#SVGID_2_)" d="M163.409,99.663h11.859c7.558,0,12.632,4.523,12.632,11.584s-5.074,11.583-12.632,11.583
		h-4.137v15.445h-7.723V99.663z M175.269,106.006h-4.137v10.479h4.137c2.924,0,4.909-2.096,4.909-5.239
		C180.178,108.102,178.192,106.006,175.269,106.006"/>
</g>
</svg>
