<svg xmlns="http://www.w3.org/2000/svg" width="8.736cm" height="5.827cm" viewBox="0 0 247.632 165.175"><defs><style>.a{fill:#00aeef;}</style></defs><title>WP-logo</title><path class="a" d="M-118.1,109.273A66.39,66.39,0,0,0-181.47,57.558,66.87,66.87,0,0,0-244.627,99.1l-6.488-2.625a73.891,73.891,0,0,1,69.8-45.92,73.379,73.379,0,0,1,70.044,57.165Z" transform="translate(303.456 -50.542)"/><path class="a" d="M-274.764,214.516l-3.425-17.788a55.368,55.368,0,0,1-25.268-46.663,55.782,55.782,0,0,1,55.719-55.719,55.438,55.438,0,0,1,31.155,9.518l-3.918,5.8a48.463,48.463,0,0,0-27.237-8.318,48.774,48.774,0,0,0-48.719,48.719A48.442,48.442,0,0,0-273.2,191.6l1.313,0.807,2.325,12.074,13.979-6.327,1.006,0.142a49.318,49.318,0,0,0,6.844.488,48.51,48.51,0,0,0,33.6-13.435l1.763-1.679,3,1.427a66.145,66.145,0,0,0,15.02,4.479l-1.191,6.9a73.179,73.179,0,0,1-15.489-4.479,55.456,55.456,0,0,1-36.7,13.789,56.039,56.039,0,0,1-6.8-.422Z" transform="translate(303.456 -50.542)"/><path d="M-220.9,124.012h3.089v38.612H-220.9V124.012Zm4.082,18.81,16.548-18.81h3.972l-16.6,18.81,17.762,19.8h-3.972Z" transform="translate(303.456 -50.542)"/><path d="M-185.6,121.254v18.755a11.715,11.715,0,0,1,7.557-2.593c5.626,0,9.322,4.082,9.322,10.039v15.169h-3.034V147.455c0-4.3-2.812-7.226-6.895-7.226a9.755,9.755,0,0,0-6.95,2.647v19.747h-3.034v-41.37h3.034Z" transform="translate(303.456 -50.542)"/><path d="M-141.918,162.624a3.436,3.436,0,0,1-1.379.221,3.679,3.679,0,0,1-3.7-2.647,10.612,10.612,0,0,1-7.227,2.813c-5.074,0-7.061-3.53-7.061-6.675,0-5.02,5.186-7.943,12.081-7.943a7.937,7.937,0,0,1,1.93.166v-3.53c0-2.317-1.6-4.965-5.46-4.965a8.361,8.361,0,0,0-5.627,2.041l-1.765-1.71a10.954,10.954,0,0,1,7.611-2.979c5.682,0,8.33,3.751,8.33,7.612v13.349a2.044,2.044,0,0,0,2.261,2.206v2.041Zm-5.351-4.854v-7.006a6.737,6.737,0,0,0-1.765-.165c-5.351,0-9.212,2.1-9.212,5.461,0,1.765,1.048,4.3,4.854,4.3A8.618,8.618,0,0,0-147.269,157.771Z" transform="translate(303.456 -50.542)"/><path d="M-123.166,137.581v2.759a10.155,10.155,0,0,0-1.82-.166,8.292,8.292,0,0,0-6.84,3.586v18.864h-3.034V137.8h3.034v3.089a9.37,9.37,0,0,1,7.061-3.42A15.718,15.718,0,0,1-123.166,137.581Z" transform="translate(303.456 -50.542)"/><path d="M-115.944,162.624v-41.37h3.034v41.37h-3.034Zm3.034-13.184,10.756-11.639h3.7l-10.812,11.639,12.08,13.184h-3.7Z" transform="translate(303.456 -50.542)"/><path d="M-89.195,128.094a2.237,2.237,0,0,1,2.262,2.262,2.237,2.237,0,0,1-2.262,2.262,2.237,2.237,0,0,1-2.262-2.262A2.237,2.237,0,0,1-89.195,128.094Zm-1.489,9.708h3.034v24.822h-3.034V137.8Z" transform="translate(303.456 -50.542)"/><path d="M-67.188,162.624h-2.924L-81.474,137.8h3.42l9.432,21.127L-59.19,137.8h3.365Z" transform="translate(303.456 -50.542)"/><path d="M-135.054,215.717H-142.5l-8.385-25.539-8.329,25.539h-7.446L-180.4,177.1h8.716l8.715,26.808,8.274-26.808h7.667l8.274,26.808,8.715-26.808h8.716Z" transform="translate(303.456 -50.542)"/><path d="M-118.018,177.1h11.859c7.558,0,12.632,4.523,12.632,11.584s-5.074,11.583-12.632,11.583H-110.3v15.445h-7.723V177.1Zm11.859,6.344H-110.3v10.48h4.137c2.924,0,4.909-2.1,4.909-5.24S-103.235,183.448-106.158,183.448Z" transform="translate(303.456 -50.542)"/></svg>